<?xml version="1.0" encoding="UTF-8" standalone="no"?>
<svg
   xmlns:dc="http://purl.org/dc/elements/1.1/"
   xmlns:cc="http://creativecommons.org/ns#"
   xmlns:rdf="http://www.w3.org/1999/02/22-rdf-syntax-ns#"
   xmlns:svg="http://www.w3.org/2000/svg"
   xmlns="http://www.w3.org/2000/svg"
   xmlns:sodipodi="http://sodipodi.sourceforge.net/DTD/sodipodi-0.dtd"
   xmlns:inkscape="http://www.inkscape.org/namespaces/inkscape"
   width="1200"
   height="1200"
   viewBox="0 0 1200 1200"
   fill="none"
   version="1.1"
   id="svg626"
   sodipodi:docname="1200x1200-banner.svg"
   inkscape:version="1.0.2 (e86c870879, 2021-01-15, custom)"
   inkscape:export-filename="C:\Users\bethma\OneDrive\dotnetConf\Creative\Social_1200x1200.png"
   inkscape:export-xdpi="96"
   inkscape:export-ydpi="96">
  <metadata
     id="metadata630">
    <rdf:RDF>
      <cc:Work
         rdf:about="">
        <dc:format>image/svg+xml</dc:format>
        <dc:type
           rdf:resource="http://purl.org/dc/dcmitype/StillImage" />
      </cc:Work>
    </rdf:RDF>
  </metadata>
  <sodipodi:namedview
     pagecolor="#ffffff"
     bordercolor="#666666"
     borderopacity="1"
     objecttolerance="10"
     gridtolerance="10"
     guidetolerance="10"
     inkscape:pageopacity="0"
     inkscape:pageshadow="2"
     inkscape:window-width="3152"
     inkscape:window-height="1622"
     id="namedview628"
     showgrid="false"
     inkscape:zoom="0.84"
     inkscape:cx="600"
     inkscape:cy="600"
     inkscape:window-x="0"
     inkscape:window-y="0"
     inkscape:window-maximized="0"
     inkscape:current-layer="g495" />
  <g
     clip-path="url(#clip0)"
     id="g495">
    <path
       d="M 523.855,1533 C 1151.3,1574.42 1430,1290.69 1417.6,834.247 1408.16,487.507 1281.64,382.362 1338.24,100.393 1410.49,-259.599 642.547,-425.848 141.964,-157.625 -248.376,51.5485 -462.37,741.165 -268.288,1130.93 -132.79,1403.09 201.885,1511.75 523.855,1533 Z"
       fill="url(#paint0_radial)"
       id="path321" />
    <path
       d="m 487.466,157.725 c 0,0 -5.706,3.384 -9.509,9.779 -1.827,-4.942 -9.779,-9.51 -9.779,-9.51 0,0 6.679,-3.399 9.509,-9.779 3.414,6.08 9.779,9.51 9.779,9.51 z"
       fill="#4adafa"
       id="path323" />
    <path
       d="m 33.7138,325.044 c 0,0 -10.0484,5.765 -16.8622,16.802 -3.04,-8.686 -16.8022836,-16.862 -16.8022836,-16.862 0,0 11.7406836,-5.766 16.8621836,-16.802 5.7655,10.722 16.8023,16.862 16.8023,16.862 z"
       fill="#4adafa"
       id="path325" />
    <path
       d="m 863.813,1001.37 -8.671,8.82 -0.06,-7.62 c -0.015,-1.41 -1.168,-2.54 -2.576,-2.53 -1.407,0.02 -2.546,1.17 -2.531,2.58 l 0.06,7.62 -8.82,-8.67 c -1.004,-0.99 -2.621,-0.98 -3.609,0.03 -0.989,1 -0.974,2.62 0.03,3.61 l 8.82,8.67 -7.622,0.06 c -1.408,0.01 -2.546,1.17 -2.531,2.57 0.015,1.41 1.168,2.55 2.576,2.53 l 7.622,-0.06 -8.671,8.82 c -0.988,1.01 -0.973,2.63 0.03,3.61 1.004,0.99 2.621,0.98 3.609,-0.03 l 8.671,-8.82 0.06,7.63 c 0.015,1.4 1.168,2.54 2.576,2.53 1.362,-0.02 2.546,-1.22 2.531,-2.58 l -0.06,-7.62 8.82,8.67 c 1.003,0.99 2.621,0.97 3.609,-0.03 0.989,-1 0.974,-2.62 -0.03,-3.61 l -8.82,-8.67 7.622,-0.06 c 1.363,-0.02 2.546,-1.21 2.531,-2.58 -0.015,-1.4 -1.168,-2.54 -2.576,-2.53 l -7.622,0.06 8.671,-8.82 c 0.988,-1 0.973,-2.62 -0.03,-3.61 -1.004,-0.98 -2.621,-0.97 -3.609,0.03 z"
       fill="#a4ecfc"
       id="path327" />
    <path
       d="m 539.43,175.231 c 3.954,-0.315 6.889,-0.899 11.277,-1.647 2.246,-0.39 2.216,-3.669 -0.06,-3.969 -4.283,-0.584 -7.039,-0.868 -11.127,-0.928 -1.033,-0.015 -1.902,-0.794 -1.977,-1.827 -0.329,-3.894 -0.913,-8.222 -1.647,-12.52 -0.389,-2.246 -3.654,-2.201 -3.968,0.06 -0.584,4.268 -0.854,8.506 -0.914,12.594 -0.015,1.049 -0.824,1.917 -1.857,1.992 -3.923,0.27 -7.532,0.674 -10.647,1.123 -2.307,0.33 -2.277,3.684 0.03,3.984 3.654,0.479 7.577,0.928 10.902,1.198 0.988,0.075 1.782,0.868 1.842,1.857 0.269,4.013 0.688,7.712 1.138,10.887 0.329,2.306 3.684,2.276 3.983,-0.03 0.479,-3.654 0.929,-7.593 1.198,-10.902 0.075,-1.019 0.854,-1.797 1.827,-1.872 z"
       fill="#4adafa"
       id="path329" />
    <path
       opacity="0.7"
       d="M 31,-119 C -165.058,-22.0877 -89.2895,313.236 -139,547 -79.7045,485.952 -3.75252,452.328 128.152,379.035 363.207,248.422 680.089,153.113 796.5,139.729 c 187.603,-21.554 11.738,58.209 -70.351,97.009 -82.089,38.799 -137.236,90.017 3.676,41.252 C 904.823,217.425 1163.61,142.954 1265,139.729 1245.78,-106.569 428.894,-315.644 31,-119 Z"
       fill="url(#paint1_radial)"
       id="path331" />
    <path
       opacity="0.6"
       d="M 1370.63,657.275 C 1369.12,587.02 1364.38,525.091 1357.83,469 1227.65,804.926 913.105,922.383 728.767,973.823 556.992,1021.77 211.603,1101.92 11,1325.57 c 9.0954,6.37 18.3093,12.54 27.6714,18.49 0.3851,0.24 0.7703,0.48 1.1554,0.74 4.1181,2.61 8.2659,5.19 12.4136,7.74 0.8592,0.53 1.7184,1.03 2.5776,1.57 3.7626,2.28 7.5548,4.53 11.347,6.75 0.9777,0.57 1.9258,1.13 2.9034,1.69 3.8515,2.22 7.703,4.42 11.5841,6.55 0.8295,0.47 1.6591,0.92 2.4887,1.39 4.3847,2.43 8.7991,4.8 13.2431,7.14 0.2963,0.15 0.5629,0.3 0.8592,0.45 9.8065,5.15 19.7315,10.13 29.7455,14.93 0.266,0.12 0.503,0.24 0.77,0.36 4.563,2.16 9.125,4.29 13.717,6.4 0.948,0.41 1.867,0.86 2.815,1.27 3.97,1.81 7.94,3.56 11.939,5.31 1.126,0.5 2.252,0.97 3.407,1.48 3.911,1.69 7.822,3.35 11.762,4.98 1.096,0.44 2.163,0.91 3.259,1.36 4.237,1.75 8.503,3.44 12.769,5.12 0.741,0.3 1.452,0.6 2.193,0.86 10.251,4 20.59,7.86 31.019,11.53 0.267,0.09 0.563,0.18 0.829,0.3 4.741,1.66 9.511,3.29 14.281,4.89 1.125,0.38 2.281,0.74 3.436,1.12 3.941,1.31 7.911,2.61 11.881,3.85 1.392,0.45 2.785,0.89 4.177,1.31 3.792,1.18 7.584,2.34 11.377,3.49 1.422,0.45 2.873,0.86 4.296,1.28 3.94,1.15 7.88,2.31 11.821,3.44 1.214,0.35 2.459,0.71 3.673,1.03 4.8,1.34 9.629,2.67 14.458,3.94 0.326,0.09 0.682,0.18 1.007,0.27 5.363,1.42 10.755,2.79 16.147,4.15 0.385,0.09 0.8,0.18 1.185,0.3 4.77,1.18 9.54,2.34 14.31,3.43 1.422,0.33 2.844,0.65 4.296,0.98 3.762,0.86 7.555,1.72 11.317,2.55 1.719,0.38 3.407,0.74 5.126,1.09 3.555,0.78 7.11,1.52 10.665,2.26 1.778,0.35 3.555,0.74 5.333,1.09 3.585,0.71 7.17,1.43 10.755,2.11 1.688,0.32 3.377,0.65 5.066,0.97 3.999,0.75 8.029,1.49 12.058,2.2 1.215,0.2 2.459,0.44 3.674,0.65 5.303,0.92 10.606,1.81 15.909,2.67 0.504,0.08 1.007,0.14 1.511,0.23 4.711,0.74 9.421,1.48 14.132,2.17 1.689,0.23 3.407,0.47 5.096,0.74 3.555,0.5 7.081,1 10.636,1.48 1.955,0.27 3.911,0.53 5.866,0.77 3.318,0.44 6.636,0.86 9.955,1.27 2.044,0.24 4.058,0.51 6.103,0.74 3.288,0.39 6.606,0.77 9.895,1.13 1.985,0.21 3.94,0.44 5.925,0.65 3.556,0.39 7.14,0.74 10.696,1.1 1.688,0.18 3.347,0.32 5.036,0.5 5.215,0.51 10.429,0.95 15.613,1.39 h 0.03 c 37.389,3.09 73.504,4.69 108.316,4.77 365.594,1.07 589.394,-160.45 686.954,-433.05 2.31,-6.49 4.56,-13.04 6.76,-19.65 6.54,-19.85 12.44,-40.27 17.68,-61.215 1.75,-6.993 3.44,-14.015 5.04,-21.127 3.23,-14.193 6.16,-28.653 8.83,-43.32 5.33,-29.364 9.54,-59.647 12.62,-90.789 5.48,-54.581 7.5,-111.828 6.22,-171.564 z"
       fill="url(#paint2_radial)"
       id="path333" />
    <path
       d="m 607.628,128.265 c 5.872,0 10.633,-4.76 10.633,-10.633 0,-5.872 -4.761,-10.632 -10.633,-10.632 -5.872,0 -10.632,4.76 -10.632,10.632 0,5.873 4.76,10.633 10.632,10.633 z"
       fill="#afd3fe"
       id="path335" />
    <path
       d="m 1119.13,1018.1 c 6.85,0 12.41,-5.56 12.41,-12.41 0,-6.86 -5.56,-12.418 -12.41,-12.418 -6.86,0 -12.42,5.558 -12.42,12.418 0,6.85 5.56,12.41 12.42,12.41 z"
       fill="#afd3fe"
       id="path337" />
    <path
       d="m 341.865,67.7308 c 4.897,0 8.866,-3.9692 8.866,-8.8654 0,-4.8962 -3.969,-8.8654 -8.866,-8.8654 -4.896,0 -8.865,3.9692 -8.865,8.8654 0,4.8962 3.969,8.8654 8.865,8.8654 z"
       fill="#afd3fe"
       id="path339" />
    <path
       d="m 495.865,589.731 c 4.897,0 8.866,-3.969 8.866,-8.866 0,-4.896 -3.969,-8.865 -8.866,-8.865 -4.896,0 -8.865,3.969 -8.865,8.865 0,4.897 3.969,8.866 8.865,8.866 z"
       fill="#4a95ef"
       id="path341" />
    <path
       d="m 621.865,435.731 c 4.897,0 8.866,-3.969 8.866,-8.866 0,-4.896 -3.969,-8.865 -8.866,-8.865 -4.896,0 -8.865,3.969 -8.865,8.865 0,4.897 3.969,8.866 8.865,8.866 z"
       fill="#4a95ef"
       id="path343" />
    <path
       d="m 63.2751,379.749 c 3.9202,0 7.0983,-3.178 7.0983,-7.099 0,-3.92 -3.1781,-7.098 -7.0983,-7.098 -3.9203,0 -7.0983,3.178 -7.0983,7.098 0,3.921 3.178,7.099 7.0983,7.099 z"
       fill="#afd3fe"
       id="path345" />
    <path
       d="m 314.022,362.704 c 4.896,0 8.866,-3.97 8.866,-8.866 0,-4.896 -3.97,-8.865 -8.866,-8.865 -4.896,0 -8.865,3.969 -8.865,8.865 0,4.896 3.969,8.866 8.865,8.866 z"
       fill="#4a95ef"
       id="path347" />
    <path
       d="m 771.415,1137.2 c 6.856,0 12.414,-5.56 12.414,-12.41 0,-6.86 -5.558,-12.42 -12.414,-12.42 -6.857,0 -12.415,5.56 -12.415,12.42 0,6.85 5.558,12.41 12.415,12.41 z"
       fill="#afd3fe"
       id="path349" />
    <path
       d="m 145.252,162.18 c 33.463,0 60.59,-27.127 60.59,-60.59 0,-33.4629 -27.127,-60.59 -60.59,-60.59 -33.463,0 -60.5899,27.1271 -60.5899,60.59 0,33.463 27.1269,60.59 60.5899,60.59 z"
       fill="url(#paint3_radial)"
       id="path351" />
    <path
       d="m 145.252,162.18 c 33.463,0 60.59,-27.127 60.59,-60.59 0,-33.4629 -27.127,-60.59 -60.59,-60.59 -33.463,0 -60.5899,27.1271 -60.5899,60.59 0,33.463 27.1269,60.59 60.5899,60.59 z"
       fill="url(#paint4_radial)"
       id="path353" />
    <path
       d="m 84.527,104.735 0.4792,3.444 c -30.1453,14.361 -43.4434,25.248 -41.272,32.751 2.6057,9.045 48.6399,-1.632 109.8138,-22.508 61.159,-20.8755 104.902,-41.3767 101.862,-49.2387 -2.845,-7.3679 14.691,-14.7208 17.432,-5.481 4.402,14.8106 -47.158,43.3687 -114.696,66.4307 -67.539,23.062 -125.6582,30.31 -129.8963,17.087 -2.9201,-9.03 20.0071,-25.578 56.2773,-42.485 z"
       fill="url(#paint5_linear)"
       id="path355" />
    <path
       d="m 979.989,1121.86 c 30.001,0 54.331,-24.32 54.331,-54.33 0,-30 -24.33,-54.33 -54.331,-54.33 -30.006,0 -54.331,24.33 -54.331,54.33 0,30.01 24.325,54.33 54.331,54.33 z"
       fill="url(#paint6_radial)"
       id="path357" />
    <path
       d="m 1041.79,1102.77 c -0.16,0.28 -0.31,0.57 -0.48,0.84"
       stroke="#afd3fe"
       stroke-width="4.7698"
       stroke-linecap="round"
       stroke-linejoin="round"
       id="path359" />
    <path
       d="m 975.631,1145.19 h -1.019 c -1.976,-0.03 -3.549,-1.64 -3.519,-3.62 0.03,-1.98 1.573,-3.53 3.624,-3.52 h 0.914 0.793 c 0.015,0 0.03,0 0.03,0 1.962,0 3.55,1.57 3.564,3.53 0.015,1.98 -1.572,3.58 -3.534,3.61 z m 18.569,-2.3 c -1.602,0 -3.055,-1.08 -3.459,-2.7 -0.479,-1.91 0.674,-3.85 2.591,-4.34 0.554,-0.14 1.108,-0.29 1.647,-0.44 1.902,-0.52 3.863,0.59 4.403,2.49 0.524,1.9 -0.584,3.86 -2.486,4.4 -0.599,0.17 -1.213,0.33 -1.812,0.48 -0.3,0.06 -0.599,0.11 -0.884,0.11 z m -37.273,-0.05 c -0.3,0 -0.584,-0.03 -0.884,-0.12 -0.614,-0.15 -1.213,-0.31 -1.812,-0.49 -1.902,-0.54 -2.995,-2.52 -2.456,-4.42 0.539,-1.9 2.516,-2.99 4.403,-2.46 0.554,0.15 1.093,0.3 1.647,0.45 1.917,0.5 3.055,2.45 2.576,4.35 -0.434,1.61 -1.887,2.69 -3.474,2.69 z m 55.573,-7.2 c -1.26,0 -2.47,-0.66 -3.13,-1.84 -0.96,-1.72 -0.33,-3.9 1.39,-4.85 0.5,-0.27 0.99,-0.56 1.49,-0.86 1.7,-1 3.89,-0.43 4.89,1.27 1.01,1.71 0.44,3.9 -1.27,4.89 -0.54,0.31 -1.09,0.63 -1.63,0.93 -0.56,0.31 -1.16,0.46 -1.74,0.46 z m -73.843,-0.14 c -0.599,0 -1.198,-0.15 -1.752,-0.46 -0.54,-0.3 -1.094,-0.61 -1.618,-0.94 -1.692,-1.01 -2.261,-3.19 -1.258,-4.9 1.004,-1.69 3.19,-2.26 4.897,-1.26 0.494,0.29 0.989,0.57 1.483,0.86 1.722,0.97 2.336,3.14 1.363,4.86 -0.644,1.19 -1.857,1.84 -3.115,1.84 z m 89.653,-11.57 c -0.94,0 -1.87,-0.36 -2.57,-1.09 -1.36,-1.43 -1.33,-3.69 0.09,-5.05 0.4,-0.39 0.81,-0.79 1.21,-1.2 1.38,-1.41 3.64,-1.42 5.05,-0.04 1.41,1.37 1.42,3.63 0.04,5.04 -0.45,0.45 -0.9,0.9 -1.35,1.34 -0.68,0.65 -1.58,1 -2.47,1 z m -105.422,-0.2 c -0.899,0 -1.797,-0.33 -2.486,-1 -0.449,-0.43 -0.899,-0.88 -1.333,-1.33 -1.378,-1.41 -1.363,-3.67 0.045,-5.05 1.408,-1.38 3.669,-1.36 5.047,0.05 0.404,0.4 0.793,0.8 1.213,1.21 1.407,1.38 1.452,3.64 0.074,5.05 -0.703,0.71 -1.632,1.07 -2.56,1.07 z m -12.175,-15.45 c -1.213,0 -2.396,-0.63 -3.07,-1.74 -0.33,-0.54 -0.644,-1.08 -0.944,-1.63 -0.973,-1.72 -0.359,-3.89 1.363,-4.87 1.722,-0.97 3.894,-0.36 4.867,1.37 0.285,0.49 0.569,0.98 0.854,1.46 1.003,1.7 0.464,3.9 -1.243,4.9 -0.584,0.34 -1.213,0.51 -1.827,0.51 z m -7.787,-18.08 c -1.558,0 -2.981,-1.01 -3.43,-2.59 -0.179,-0.6 -0.329,-1.21 -0.494,-1.82 -0.494,-1.92 0.659,-3.87 2.576,-4.35 1.917,-0.49 3.848,0.66 4.343,2.58 0.134,0.55 0.284,1.09 0.449,1.63 0.539,1.9 -0.554,3.88 -2.456,4.42 -0.344,0.09 -0.674,0.13 -0.988,0.13 z"
       fill="#afd3fe"
       id="path361" />
    <path
       d="m 909.604,1029.15 c 0.165,-0.28 0.315,-0.57 0.48,-0.84"
       stroke="#afd3fe"
       stroke-width="4.7698"
       stroke-linecap="round"
       stroke-linejoin="round"
       id="path363" />
    <path
       d="m 1044.14,1037.28 c -1.33,0 -2.62,-0.76 -3.23,-2.05 -0.26,-0.54 -0.51,-1.06 -0.78,-1.59 -0.88,-1.76 -0.17,-3.91 1.59,-4.79 1.75,-0.88 3.91,-0.16 4.79,1.59 0.28,0.58 0.57,1.17 0.85,1.75 0.84,1.78 0.08,3.91 -1.7,4.75 -0.48,0.24 -1.01,0.34 -1.52,0.34 z m -11.06,-17.09 c -1.01,0 -2.01,-0.41 -2.71,-1.24 -0.39,-0.45 -0.78,-0.88 -1.17,-1.33 -1.32,-1.47 -1.2,-3.73 0.25,-5.05 1.47,-1.32 3.73,-1.2 5.05,0.26 0.43,0.48 0.87,0.97 1.29,1.45 1.28,1.5 1.1,3.74 -0.39,5.03 -0.66,0.6 -1.5,0.88 -2.32,0.88 z m -110.791,-4.28 c -0.914,0 -1.827,-0.34 -2.531,-1.05 -1.393,-1.39 -1.393,-3.65 0,-5.04 0.464,-0.47 0.928,-0.92 1.393,-1.37 1.422,-1.36 3.684,-1.3 5.046,0.14 1.363,1.42 1.303,3.68 -0.134,5.05 -0.435,0.4 -0.854,0.82 -1.273,1.22 -0.674,0.71 -1.588,1.05 -2.501,1.05 z m 95.541,-9.22 c -0.69,0 -1.38,-0.2 -1.98,-0.6 -0.49,-0.33 -0.98,-0.65 -1.48,-0.98 -1.66,-1.06 -2.15,-3.26 -1.11,-4.92 1.07,-1.665 3.27,-2.159 4.93,-1.111 0.55,0.345 1.09,0.704 1.63,1.061 1.65,1.1 2.08,3.31 0.99,4.96 -0.69,1.03 -1.83,1.59 -2.98,1.59 z m -79.293,-3.07 c -1.243,0 -2.456,-0.66 -3.115,-1.83 -0.973,-1.72 -0.359,-3.894 1.363,-4.867 0.569,-0.315 1.138,-0.629 1.707,-0.928 1.752,-0.929 3.909,-0.27 4.837,1.482 0.929,1.737 0.27,3.913 -1.482,4.833 -0.525,0.29 -1.049,0.57 -1.558,0.86 -0.569,0.3 -1.168,0.45 -1.752,0.45 z m 61.024,-5.903 c -0.374,0 -0.748,-0.06 -1.138,-0.18 -0.554,-0.18 -1.123,-0.359 -1.677,-0.539 -1.887,-0.569 -2.95,-2.576 -2.366,-4.463 0.584,-1.887 2.576,-2.95 4.463,-2.366 0.614,0.195 1.247,0.389 1.857,0.599 1.87,0.629 2.87,2.651 2.26,4.523 -0.52,1.482 -1.92,2.426 -3.399,2.426 z m -42.11,-1.618 c -1.603,0 -3.055,-1.078 -3.46,-2.71 -0.479,-1.917 0.689,-3.849 2.606,-4.328 0.629,-0.15 1.258,-0.3 1.887,-0.449 1.917,-0.42 3.834,0.778 4.268,2.71 0.434,1.932 -0.779,3.834 -2.71,4.268 -0.585,0.135 -1.154,0.27 -1.723,0.405 -0.299,0.074 -0.584,0.104 -0.868,0.104 z m 22.103,-2.141 c -0.06,0 -0.119,0 -0.179,0 -0.584,-0.03 -1.183,-0.045 -1.767,-0.06 -1.977,-0.045 -3.535,-1.692 -3.475,-3.654 0.045,-1.977 1.633,-3.549 3.654,-3.474 0.644,0.015 1.288,0.045 1.932,0.075 1.977,0.104 3.489,1.767 3.384,3.743 -0.089,1.872 -1.662,3.37 -3.549,3.37 z"
       fill="#afd3fe"
       id="path365" />
    <path
       d="m 909.604,1037.94 c 4.855,0 8.79,-3.94 8.79,-8.79 0,-4.86 -3.935,-8.79 -8.79,-8.79 -4.855,0 -8.791,3.93 -8.791,8.79 0,4.85 3.936,8.79 8.791,8.79 z"
       fill="#afd3fe"
       id="path367" />
    <path
       d="m 1041.79,1111.56 c 4.86,0 8.79,-3.94 8.79,-8.79 0,-4.86 -3.93,-8.79 -8.79,-8.79 -4.85,0 -8.79,3.93 -8.79,8.79 0,4.85 3.94,8.79 8.79,8.79 z"
       fill="#afd3fe"
       id="path369" />
    <path
       d="m 676.259,472.444 c 4.781,-5.12 9.5,-10.585 14.114,-16.359 6.423,-8.038 12.643,-16.663 18.526,-25.825 42.918,-66.717 52.235,-135.799 20.828,-154.322 -31.422,-18.521 -91.679,20.546 -134.582,87.261 -5.013,7.781 -9.559,15.606 -13.636,23.381 -3.261,6.217 -6.236,12.395 -8.896,18.513 -1.236,2.846 -0.144,6.186 2.535,7.768 z"
       fill="#a4ecfc"
       id="path371" />
    <path
       d="m 680.394,444.518 c 8.985,-9.638 17.699,-20.791 25.648,-33.145 33.718,-52.406 41.035,-106.697 16.359,-121.245 -24.676,-14.548 -72.022,16.138 -105.74,68.543 -7.087,11.021 -12.996,22.109 -17.7,32.908 -0.982,2.242 -0.113,4.859 1.997,6.105 z"
       fill="#4adafa"
       id="path373" />
    <path
       d="m 618.616,480.475 c 0,0 -30.728,38.552 -38.556,65.129 -7.843,26.578 -20.672,47.895 -31.538,60.391 -10.865,12.497 -23.302,33.652 -29.793,51.433 -6.491,17.78 -19.41,46.229 -29.426,55.64 -10.019,9.396 -22.206,30.686 -24.179,41.107 -1.973,10.422 -13.312,28.611 -18.144,33.815 -4.831,5.204 -22.428,33.746 -26.4,46.612 -3.974,12.85 6.186,-1.64 12.057,-5.435 5.872,-3.794 16.944,-11.798 21.184,-27.284 4.256,-15.488 11.447,-32.874 22.145,-43.471 10.698,-10.597 25,-27.49 32.354,-48.373 7.353,-20.883 24.019,-48.373 36.609,-63.86 12.572,-15.5 28.065,-37.678 35.238,-59.873 7.159,-22.179 17.319,-36.669 30.412,-53.071 13.096,-16.387 22.471,-45.668 22.471,-45.668 z"
       fill="url(#paint7_linear)"
       id="path375" />
    <path
       d="m 575.549,457.136 c 0,0 -30.728,38.553 -38.556,65.129 -7.842,26.579 -20.672,47.896 -31.537,60.392 -10.866,12.496 -23.288,33.649 -29.794,51.432 -6.491,17.781 -19.41,46.23 -29.426,55.641 -10.018,9.396 -22.206,30.686 -24.179,41.107 -1.972,10.421 -13.312,28.611 -18.143,33.815 -4.832,5.204 -22.429,33.746 -26.401,46.611 -3.972,12.866 6.186,-1.639 12.058,-5.434 5.872,-3.795 16.943,-11.799 21.184,-27.285 4.255,-15.488 11.446,-32.873 22.144,-43.47 10.698,-10.598 25,-27.49 32.354,-48.373 7.353,-20.883 24.019,-48.373 36.609,-63.86 12.572,-15.5 28.066,-37.678 35.238,-59.873 7.159,-22.179 17.319,-36.669 30.412,-53.071 13.096,-16.387 22.471,-45.669 22.471,-45.669 z"
       fill="url(#paint8_linear)"
       id="path377" />
    <path
       d="m 670.864,550.872 c 14.57,-8.949 42.148,-28.907 54.127,-55.596 l -21.128,-5.459 c -10.863,24.197 -35.979,41.278 -47.574,48.17 -0.965,0.579 5.558,7.719 14.575,12.885 z"
       fill="url(#paint9_linear)"
       id="path379" />
    <path
       d="m 670.864,550.872 c 14.57,-8.949 42.148,-28.907 54.127,-55.596 l -21.128,-5.459 c -10.863,24.197 -35.979,41.278 -47.574,48.17 -0.965,0.579 5.558,7.719 14.575,12.885 z"
       fill="url(#paint10_linear)"
       id="path381" />
    <path
       d="m 656.447,537.904 11.431,10.167 c -3.079,3.87 -25.278,18.917 -18.649,68.758 l -15.93,10.014 -49.83,-44.346 c -1.753,-1.556 -1.487,-3.746 0.701,-4.94 z"
       fill="#522cd5"
       id="path383" />
    <path
       d="m 653.474,615.612 c 0.478,2.902 -1.026,4.37 -3.997,6.011 l -10.56,5.919 c -1.629,0.902 -4.044,0.667 -5.358,-0.489 l -0.246,-0.227 c -1.489,-1.317 -1.198,-3.218 0.661,-4.228 l 8.365,-5.001 c 3.43,-1.888 5.233,-3.414 4.65,-7.3 -3.434,-22.944 -5.191,-52.67 16.068,-66.511 l 7.923,7.039 c -10.279,7.618 -23.759,26.565 -17.506,64.787 z"
       fill="url(#paint11_linear)"
       id="path385" />
    <path
       d="m 646.867,613.204 c -0.553,1.891 -2.129,3.062 -4.53,4.378 l -8.366,5.001 c -1.859,1.01 -2.15,2.911 -0.661,4.227 l 0.247,0.228 c 1.315,1.171 3.729,1.391 5.357,0.489 l 10.561,-5.919 c 1.701,-0.927 2.901,-1.815 3.543,-2.95 z"
       fill="url(#paint12_radial)"
       id="path387" />
    <path
       d="m 635.377,527.193 c 16.025,-5.983 46.911,-20.262 63.797,-44.155 l -19.693,-9.425 c -15.319,21.662 -43.254,33.596 -55.959,38.12 -1.038,0.39 3.978,8.646 11.855,15.46 z"
       fill="url(#paint13_linear)"
       id="path389" />
    <path
       d="m 635.377,527.193 c 16.025,-5.983 46.911,-20.262 63.797,-44.155 l -19.693,-9.425 c -15.319,21.662 -43.254,33.596 -55.959,38.12 -1.038,0.39 3.978,8.646 11.855,15.46 z"
       fill="url(#paint14_linear)"
       id="path391" />
    <path
       d="m 623.714,511.676 9.263,12.174 c -3.769,3.212 -28.596,2.031 -36.936,51.927 l -14.358,15.824 -39.238,-51.591 c -0.355,-0.459 0.339,-2.554 2.695,-3.31 z"
       fill="#522cd5"
       id="path393" />
    <path
       d="m 605.944,587.017 c -0.084,2.949 -2.003,4.644 -5.228,5.674 l -11.437,3.58 c -1.767,0.567 -4.09,-0.111 -5.161,-1.516 l -7.572,-9.947 c -1.203,-1.587 -0.544,-3.385 1.457,-4.031 l 10.001,-3.627 c 3.726,-1.192 5.797,-2.339 5.961,-6.268 1.055,-23.179 10.063,-44.66 33.599,-54.157 l 7.91,10.393 c -11.55,5.549 -28.33,21.2 -29.53,59.899 z"
       fill="url(#paint15_linear)"
       id="path395" />
    <path
       d="m 584.12,594.77 c 1.069,1.39 3.379,2.085 5.161,1.516 l 11.437,-3.58 c 1.797,-0.571 3.18,-1.362 4.059,-2.452 L 592.792,574.52 c -0.997,1.245 -2.59,1.957 -4.786,2.645 l -10,3.627 c -2.017,0.648 -2.661,2.444 -1.458,4.03 z"
       fill="url(#paint16_radial)"
       id="path397" />
    <path
       d="m 877.234,493.727 -7.075,-17.366 c -18.18,7.418 -34.878,9.311 -49.607,5.658 -12.961,-3.221 -24.762,-10.831 -35.063,-22.615 l -14.116,12.346 c 19.159,21.908 53.066,43.498 105.861,21.977 z"
       fill="#8a6fe8"
       id="path399" />
    <path
       d="m 633.455,492.939 -17.697,-10.224 c -1.405,-0.821 -1.685,-2.627 -0.573,-3.703 l 12.386,-11.953 c 0.8,-0.772 2.089,-0.904 3.108,-0.322 l 10.561,6.105 c 1.019,0.582 1.503,1.745 1.155,2.792 l -5.266,16.074 c -0.463,1.433 -2.254,2.049 -3.674,1.231 z"
       fill="#0b7891"
       id="path401" />
    <path
       d="m 642.8,476.67 -16.677,-9.627 c -1.871,-1.079 -2.507,-3.343 -1.42,-5.047 l 28.301,-44.983 c 1.085,-1.718 3.459,-2.231 5.33,-1.152 l 16.677,9.627 c 1.871,1.079 2.507,3.344 1.42,5.047 l -28.301,44.983 c -1.085,1.718 -3.474,2.233 -5.33,1.152 z"
       fill="#ffffff"
       id="path403" />
    <path
       d="m 589.88,468.04 -17.697,-10.223 c -1.405,-0.821 -1.685,-2.627 -0.573,-3.704 l 12.386,-11.953 c 0.801,-0.771 2.089,-0.903 3.108,-0.322 l 10.562,6.105 c 1.018,0.582 1.502,1.746 1.155,2.793 l -5.267,16.074 c -0.463,1.432 -2.271,2.036 -3.674,1.23 z"
       fill="#0b7891"
       id="path405" />
    <path
       d="m 599.209,451.774 -16.676,-9.627 c -1.871,-1.079 -2.507,-3.343 -1.421,-5.047 l 28.302,-44.983 c 1.085,-1.718 3.459,-2.231 5.33,-1.152 l 16.677,9.627 c 1.871,1.079 2.507,3.344 1.42,5.047 l -28.301,44.983 c -1.072,1.701 -3.459,2.231 -5.331,1.152 z"
       fill="#ffffff"
       id="path407" />
    <path
       d="m 631.419,400.577 -5.397,-3.113 -27.824,44.209 c -1.085,1.719 -3.459,2.231 -5.33,1.152 l -11.28,-6.513 -0.492,0.775 c -1.085,1.719 -0.434,3.981 1.42,5.047 l 16.677,9.627 c 1.871,1.079 4.245,0.566 5.33,-1.152 l 28.301,-44.983 c 1.102,-1.705 0.466,-3.97 -1.405,-5.049 z"
       fill="#60defa"
       id="path409" />
    <path
       d="m 675.011,425.488 -5.397,-3.113 -27.824,44.209 c -1.085,1.719 -3.459,2.231 -5.33,1.152 l -7.988,-4.615 -3.292,-1.898 -0.492,0.775 c -1.085,1.719 -0.434,3.981 1.42,5.047 l 16.677,9.627 c 1.871,1.079 4.245,0.566 5.33,-1.152 l 28.301,-44.983 c 1.1,-1.72 0.449,-3.983 -1.405,-5.049 z"
       fill="#60defa"
       id="path411" />
    <path
       d="m 676.259,472.444 c 5.626,-6.021 11.156,-12.506 16.536,-19.415 5.577,-7.152 -105.618,-76.95 -109.126,-70.515 -4.134,7.583 -7.827,15.121 -11.058,22.564 -1.236,2.846 -0.144,6.186 2.535,7.768 z"
       fill="#179bb8"
       id="path413" />
    <path
       d="m 879.82,486.742 6.956,-17.645 c 1.824,-4.712 -0.524,-10.015 -5.235,-11.839 -4.711,-1.824 -10.015,0.523 -11.839,5.235 l -7.126,18.083 z"
       fill="#8a6fe8"
       id="path415" />
    <path
       d="m 876.824,510.113 c 10.483,-1.449 17.806,-11.122 16.357,-21.605 -1.449,-10.483 -11.122,-17.806 -21.605,-16.357 -10.483,1.449 -17.806,11.122 -16.357,21.605 1.449,10.483 11.122,17.806 21.605,16.357 z"
       fill="url(#paint17_radial)"
       id="path417" />
    <path
       d="m 838.076,536.366 -72.804,-45.352 5.499,-8.833 72.803,45.352 c 1.818,1.133 4.2,0.573 5.318,-1.242 l 15.905,-25.54 8.833,5.498 -15.905,25.54 c -4.149,6.694 -12.969,8.743 -19.649,4.577 z"
       fill="#d2f6fe"
       id="path419" />
    <path
       d="m 863.395,514.076 -1.431,-0.894 c -4.644,-2.894 -6.073,-9.001 -3.178,-13.645 l 19.088,-30.655 c 2.895,-4.644 9.002,-6.073 13.646,-3.178 l 1.43,0.894 c 4.644,2.894 6.073,9.001 3.178,13.645 l -19.088,30.655 c -2.895,4.644 -9.001,6.073 -13.645,3.178 z"
       fill="#77e3fb"
       id="path421" />
    <path
       d="m 871.531,512.536 -7.936,-5.13 c -3.883,-2.508 -5.001,-7.704 -2.494,-11.588 l 0.773,-1.198 c 2.507,-3.883 7.704,-5.002 11.587,-2.494 l 7.936,5.13 c 3.883,2.508 5.002,7.705 2.494,11.588 l -0.772,1.198 c -2.506,3.899 -7.702,5.017 -11.588,2.494 z"
       fill="#8a6fe8"
       id="path423" />
    <path
       d="m 882.971,506.08 -7.937,-5.13 c -3.883,-2.508 -5.001,-7.704 -2.493,-11.587 l 0.772,-1.199 c 2.508,-3.883 7.704,-5.001 11.587,-2.494 l 7.937,5.131 c 3.883,2.507 5.001,7.704 2.493,11.587 l -0.772,1.199 c -2.506,3.898 -7.704,5.001 -11.587,2.493 z"
       fill="#8a6fe8"
       id="path425" />
    <path
       d="m 894.081,499.578 -7.936,-5.13 c -3.883,-2.508 -5.002,-7.705 -2.494,-11.588 l 0.772,-1.198 c 2.508,-3.884 7.705,-5.002 11.588,-2.494 l 7.936,5.13 c 3.883,2.508 5.001,7.704 2.494,11.588 l -0.773,1.198 c -2.505,3.898 -7.702,5.017 -11.587,2.494 z"
       fill="#8a6fe8"
       id="path427" />
    <path
       d="m 798.53,476.099 c 19.349,-18.313 26.584,-38.057 26.584,-38.057 l 5.148,3.209 0.181,-0.025 c 17.696,-44.731 1.538,-97.099 -40.72,-123.486 -47.611,-29.737 -110.313,-15.257 -140.05,32.354 -29.737,47.611 -15.257,110.313 32.354,140.051 37.565,23.468 84.53,19.39 117.28,-6.757 1.246,-1.218 2.813,-3.787 -0.777,-7.289 z"
       fill="url(#paint18_radial)"
       id="path429" />
    <path
       d="m 798.747,476.223 c 19.12,-18.081 26.405,-37.571 26.571,-38.04 l -89.433,-55.861 c 0,0 -5.272,-4.1 -8.496,1.051 -3.225,5.151 -12.084,19.815 -22.13,35.903 -2.064,3.315 -0.349,6.599 1.771,7.92 0.017,0.013 87.059,51.255 91.717,49.027 z"
       fill="url(#paint19_radial)"
       id="path431" />
    <path
       d="m 746.591,443.639 c 0,0 20.547,-2.302 24.499,-2.634 3.938,-0.329 6.353,1.014 7.491,4.685 1.136,3.656 8.182,23.041 8.182,23.041 z"
       fill="#a08be8"
       id="path433" />
    <path
       d="m 798.571,484.289 c 0,0 5.261,-3.095 0.176,-8.066 0.013,-0.017 -87.882,-54.984 -87.882,-54.984 -2.053,-1.285 -3.91,-4.15 -2.912,-6.271 -0.879,1.428 -1.788,2.861 -2.692,4.324 -1.877,2.996 -0.635,5.977 1.206,7.506 0.189,0.143 0.38,0.301 0.582,0.427 l 6.008,3.751 z"
       fill="#512bd4"
       id="path435" />
    <path
       d="M 783.024,494.065 634.383,401.213 c -0.205,7.747 0.479,15.479 2.015,23.032 l 125.045,78.108 c 7.452,-1.937 14.695,-4.707 21.581,-8.288 z"
       fill="#d0c5f3"
       id="path437" />
    <path
       d="m 783.376,305.64 16.899,10.011 7.893,-18.759 -12.125,-7.181 z"
       fill="#8a6fe8"
       id="path439" />
    <path
       d="m 808.579,298.865 c 7.65,-1.058 12.994,-8.116 11.936,-15.766 -1.058,-7.649 -8.116,-12.993 -15.766,-11.936 -7.649,1.058 -12.993,8.116 -11.936,15.766 1.058,7.649 8.116,12.993 15.766,11.936 z"
       fill="#d8cff7"
       id="path441" />
    <path
       d="m 770.627,312.415 c -0.754,-0.449 -0.989,-1.478 -0.44,-2.184 5.653,-7.486 16.141,-9.705 24.399,-4.803 8.258,4.901 11.368,15.158 7.506,23.703 -0.366,0.804 -1.369,1.112 -2.125,0.647 z"
       fill="url(#paint20_radial)"
       id="path443" />
    <path
       d="m 751.378,419.181 c 3.819,-6.322 3.867,-13.287 0.109,-15.558 -3.759,-2.27 -9.902,1.014 -13.721,7.336 -3.819,6.322 -3.867,13.288 -0.109,15.559 3.759,2.27 9.902,-1.015 13.721,-7.337 z"
       fill="#512bd4"
       id="path445" />
    <path
       d="m 805.59,453.229 c 4.005,-6.205 4.262,-13.167 0.572,-15.548 -3.689,-2.382 -9.927,0.718 -13.933,6.924 -4.006,6.205 -4.262,13.167 -0.573,15.548 3.69,2.382 9.928,-0.718 13.934,-6.924 z"
       fill="#512bd4"
       id="path447" />
    <path
       d="m 748.051,409.378 c 2.234,-0.524 4.465,0.044 6.166,1.331 -0.174,2.638 -1.129,5.63 -2.854,8.498 -1.075,1.794 -2.355,3.324 -3.689,4.57 -2.515,-0.729 -4.563,-2.752 -5.184,-5.465 -0.925,-4.024 1.568,-8.013 5.561,-8.934 z"
       fill="#8065e0"
       id="path449" />
    <path
       d="m 802.553,442.914 c 2.234,-0.524 4.481,0.042 6.181,1.329 -0.14,2.772 -1.201,5.994 -3.164,9.033 -1,1.553 -2.15,2.911 -3.349,4.03 -2.528,-0.711 -4.608,-2.746 -5.233,-5.489 -0.936,-3.991 1.572,-7.982 5.565,-8.903 z"
       fill="#8065e0"
       id="path451" />
    <path
       d="M 757.936,510.019 574.78,394.845 c -3.637,-2.28 -4.731,-7.08 -2.436,-10.719 l 10.304,-16.34 c 2.283,-3.621 7.083,-4.715 10.704,-2.433 l 196.902,123.73 c 5.239,3.304 4.321,8.013 -1.323,10.562 l -23.654,10.866 c -2.387,1.084 -5.135,0.894 -7.341,-0.492 z"
       fill="#27bee0"
       id="path453" />
    <path
       d="M 790.237,489.07 593.335,365.34 c -3.622,-2.282 -8.424,-1.203 -10.704,2.433 l -1.3,2.056 c 2.38,-1.252 5.333,-1.245 7.76,0.296 l 196.902,123.729 c 2.61,1.639 3.686,3.643 3.428,5.554 5.192,-2.594 5.887,-7.133 0.816,-10.338 z"
       fill="#a4ecfc"
       id="path455" />
    <path
       d="m 763.487,475.622 -27.814,-17.372 -15.371,24.61 27.814,17.372 z"
       fill="#512bd4"
       id="path457" />
    <path
       d="m 730.072,476.752 c -0.202,-0.126 -0.349,-0.305 -0.398,-0.544 -0.063,-0.238 -0.032,-0.457 0.096,-0.644 0.126,-0.202 0.307,-0.335 0.546,-0.383 0.24,-0.049 0.459,-0.017 0.678,0.121 0.219,0.139 0.352,0.321 0.401,0.56 0.063,0.237 0.032,0.457 -0.094,0.659 -0.126,0.202 -0.309,0.319 -0.549,0.368 -0.241,0.033 -0.463,-0.013 -0.68,-0.137 z"
       fill="#ffffff"
       id="path459" />
    <path
       d="m 738.547,481.885 -1.364,-0.857 -0.05,-7.927 c 0.003,-0.2 0.021,-0.403 0.056,-0.592 l -0.034,-0.026 c -0.083,0.18 -0.278,0.546 -0.619,1.085 l -3.159,5.065 -1.212,-0.755 4.822,-7.725 1.463,0.905 0.021,7.716 c -0.002,0.323 -0.003,0.539 -0.018,0.649 l 0.017,0.013 c 0.091,-0.228 0.289,-0.579 0.591,-1.066 l 3.109,-4.981 1.211,0.755 z"
       fill="#ffffff"
       id="path461" />
    <path
       d="m 744.437,485.561 -4.225,-2.645 4.821,-7.724 4.058,2.545 -0.679,1.093 -2.812,-1.764 -1.374,2.189 2.593,1.625 -0.681,1.078 -2.593,-1.625 -1.421,2.288 2.979,1.864 z"
       fill="#ffffff"
       id="path463" />
    <path
       d="m 754.6,482.664 -2.17,-1.345 -4.142,6.631 -1.246,-0.781 4.143,-6.631 -2.155,-1.347 0.679,-1.094 5.572,3.489 z"
       fill="#ffffff"
       id="path465" />
    <path
       d="m 573.705,330.351 5.153,18.031 c 18.89,-5.394 35.688,-5.456 49.929,-0.213 12.524,4.619 23.434,13.459 32.39,26.306 l 15.369,-10.736 C 659.884,339.872 628.529,314.715 573.705,330.351 Z"
       fill="url(#paint21_linear)"
       id="path467" />
    <path
       d="m 567.551,346.455 -10.159,14.382 c -2.682,3.846 -1.734,9.143 2.112,11.825 3.846,2.682 9.143,1.734 11.825,-2.111 l 10.415,-14.756 z"
       fill="#8a6fe8"
       id="path469" />
    <path
       d="m 567.353,328.892 -17.577,1.215 c -4.686,0.356 -8.181,4.437 -7.826,9.124 0.356,4.687 4.437,8.182 9.109,7.828 l 18.018,-1.245 z"
       fill="#8a6fe8"
       id="path471" />
    <path
       d="m 568.181,341.109 -17.531,1.655 c -4.67,0.477 -8.077,4.638 -7.601,9.308 0.477,4.67 4.638,8.077 9.308,7.601 l 17.986,-1.702 z"
       fill="#8a6fe8"
       id="path473" />
    <path
       d="m 573.232,322.036 -17.47,-2.244 c -4.661,-0.57 -8.892,2.752 -9.462,7.413 -0.57,4.661 2.751,8.892 7.412,9.462 l 17.908,2.291 z"
       fill="#8a6fe8"
       id="path475" />
    <path
       d="m 578.724,356.981 c 9.733,-1.346 16.533,-10.326 15.187,-20.059 -1.345,-9.733 -10.326,-16.532 -20.059,-15.187 -9.733,1.346 -16.532,10.327 -15.187,20.059 1.346,9.733 10.327,16.533 20.059,15.187 z"
       fill="url(#paint22_radial)"
       id="path477" />
    <path
       d="m 675.752,390.035 c 10.208,-1.411 17.339,-10.83 15.928,-21.038 -1.411,-10.208 -10.83,-17.339 -21.038,-15.928 -10.208,1.411 -17.339,10.83 -15.928,21.038 1.412,10.208 10.831,17.339 21.038,15.928 z"
       fill="url(#paint23_radial)"
       id="path479" />
    <path
       d="m 51.3906,816.234 c 0,-3.802 0.9896,-6.718 2.9688,-8.75 1.9791,-2.031 4.8437,-3.046 8.5937,-3.046 3.8021,0 6.6927,1.067 8.6719,3.203 1.9792,2.083 2.9688,4.948 2.9688,8.593 0,3.698 -1.0157,6.641 -3.0469,8.828 -1.9792,2.136 -4.8438,3.204 -8.5938,3.204 -3.75,0 -6.6146,-1.068 -8.5937,-3.204 -1.9792,-2.135 -2.9688,-5.078 -2.9688,-8.828 z M 195.297,826 h -22.891 l -56.172,-91.016 h -0.625 l 0.391,5.078 c 0.729,9.688 1.094,18.542 1.094,26.563 V 826 H 100.141 V 711.781 h 22.656 l 56.015,90.547 h 0.469 c -0.104,-1.198 -0.312,-5.547 -0.625,-13.047 -0.312,-7.552 -0.468,-13.437 -0.468,-17.656 v -59.844 h 17.109 z m 94.765,0 H 225.453 V 711.781 h 64.609 v 15.781 h -45.937 v 31.094 h 43.047 v 15.625 h -43.047 v 35.86 h 45.937 z m 64.219,0 h -18.672 v -98.203 h -33.593 v -16.016 h 85.859 v 16.016 h -33.594 z m 141.328,-99.844 c -10.729,0 -19.166,3.802 -25.312,11.406 -6.146,7.605 -9.219,18.099 -9.219,31.485 0,14.01 2.943,24.609 8.828,31.797 5.938,7.187 14.505,10.781 25.703,10.781 4.844,0 9.532,-0.469 14.063,-1.406 4.531,-0.99 9.245,-2.24 14.14,-3.75 v 16.015 c -8.958,3.386 -19.114,5.078 -30.468,5.078 -16.719,0 -29.558,-5.052 -38.516,-15.156 -8.958,-10.156 -13.437,-24.661 -13.437,-43.515 0,-11.875 2.161,-22.266 6.484,-31.172 4.375,-8.907 10.677,-15.729 18.906,-20.469 8.229,-4.74 17.891,-7.109 28.985,-7.109 11.666,0 22.448,2.448 32.343,7.343 l -6.718,15.547 c -3.855,-1.823 -7.943,-3.411 -12.266,-4.765 -4.271,-1.407 -8.776,-2.11 -13.516,-2.11 z m 127.5,56.485 c 0,14.114 -3.619,25.13 -10.859,33.047 -7.24,7.916 -17.318,11.874 -30.234,11.874 -8.073,0 -15.209,-1.822 -21.407,-5.468 -6.198,-3.646 -10.963,-8.88 -14.297,-15.703 -3.333,-6.823 -5,-14.74 -5,-23.75 0,-14.011 3.594,-24.948 10.782,-32.813 7.187,-7.864 17.317,-11.797 30.39,-11.797 12.5,0 22.396,4.037 29.688,12.11 7.292,8.02 10.937,18.854 10.937,32.5 z m -62.89,0 c 0,19.948 7.37,29.921 22.109,29.921 14.583,0 21.875,-9.973 21.875,-29.921 0,-19.74 -7.344,-29.61 -22.031,-29.61 -7.708,0 -13.307,2.552 -16.797,7.657 -3.437,5.104 -5.156,12.421 -5.156,21.953 z M 720.297,826 h -18.438 v -53.125 c 0,-6.667 -1.354,-11.641 -4.062,-14.922 -2.656,-3.281 -6.901,-4.922 -12.735,-4.922 -7.76,0 -13.437,2.292 -17.031,6.875 -3.593,4.584 -5.39,12.266 -5.39,23.047 V 826 h -18.36 v -86.406 h 14.375 l 2.578,11.328 h 0.938 c 2.604,-4.115 6.302,-7.292 11.094,-9.531 4.791,-2.24 10.104,-3.36 15.937,-3.36 20.729,0 31.094,10.547 31.094,31.641 z m 68.906,-72.5 H 768.109 V 826 h -18.437 v -72.5 h -14.219 v -8.594 l 14.219,-5.625 v -5.625 c 0,-10.208 2.396,-17.76 7.187,-22.656 4.792,-4.948 12.11,-7.422 21.953,-7.422 6.459,0 12.813,1.068 19.063,3.203 l -4.844,13.907 c -4.531,-1.459 -8.854,-2.188 -12.969,-2.188 -4.166,0 -7.213,1.302 -9.14,3.906 -1.875,2.552 -2.813,6.406 -2.813,11.563 v 5.625 h 21.094 z"
       fill="#ffffff"
       id="path481" />
    <path
       d="m 120.377,1126 -5.889,-18.84 c -0.371,-1.15 -1.064,-3.77 -2.08,-7.85 h -0.234 c -0.781,3.42 -1.465,6.06 -2.051,7.91 l -6.064,18.78 h -5.6254 l -8.7598,-32.11 h 5.0977 c 2.0703,8.07 3.6426,14.21 4.7168,18.43 1.0937,4.22 1.7187,7.06 1.8747,8.52 h 0.235 c 0.214,-1.11 0.556,-2.55 1.025,-4.3 0.488,-1.78 0.908,-3.19 1.26,-4.22 l 5.888,-18.43 h 5.274 l 5.742,18.43 c 1.094,3.36 1.836,6.18 2.227,8.47 h 0.234 c 0.078,-0.71 0.283,-1.79 0.615,-3.26 0.352,-1.46 2.393,-9.34 6.123,-23.64 h 5.039 l -8.877,32.11 z m 46.699,0 -5.888,-18.84 c -0.372,-1.15 -1.065,-3.77 -2.081,-7.85 h -0.234 c -0.781,3.42 -1.465,6.06 -2.051,7.91 l -6.064,18.78 h -5.625 l -8.76,-32.11 h 5.098 c 2.07,8.07 3.642,14.21 4.717,18.43 1.093,4.22 1.718,7.06 1.874,8.52 h 0.235 c 0.215,-1.11 0.557,-2.55 1.025,-4.3 0.489,-1.78 0.908,-3.19 1.26,-4.22 l 5.889,-18.43 h 5.273 l 5.742,18.43 c 1.094,3.36 1.836,6.18 2.227,8.47 h 0.234 c 0.078,-0.71 0.283,-1.79 0.615,-3.26 0.352,-1.46 2.393,-9.34 6.124,-23.64 h 5.039 l -8.877,32.11 z m 46.699,0 -5.888,-18.84 c -0.371,-1.15 -1.065,-3.77 -2.08,-7.85 h -0.235 c -0.781,3.42 -1.465,6.06 -2.051,7.91 l -6.064,18.78 h -5.625 l -8.76,-32.11 h 5.098 c 2.07,8.07 3.642,14.21 4.717,18.43 1.093,4.22 1.718,7.06 1.875,8.52 h 0.234 c 0.215,-1.11 0.557,-2.55 1.025,-4.3 0.489,-1.78 0.909,-3.19 1.26,-4.22 l 5.889,-18.43 h 5.273 l 5.743,18.43 c 1.093,3.36 1.835,6.18 2.226,8.47 h 0.234 c 0.079,-0.71 0.284,-1.79 0.616,-3.26 0.351,-1.46 2.392,-9.34 6.123,-23.64 h 5.039 l -8.877,32.11 z m 19.776,-3.11 c 0,-1.3 0.293,-2.29 0.879,-2.95 0.605,-0.69 1.465,-1.03 2.578,-1.03 1.133,0 2.012,0.34 2.637,1.03 0.644,0.66 0.966,1.65 0.966,2.95 0,1.27 -0.322,2.25 -0.966,2.93 -0.645,0.69 -1.524,1.03 -2.637,1.03 -0.996,0 -1.826,-0.3 -2.49,-0.91 -0.645,-0.62 -0.967,-1.64 -0.967,-3.05 z m 38.554,-1.2 h -0.263 c -2.246,3.27 -5.606,4.9 -10.078,4.9 -4.2,0 -7.471,-1.44 -9.815,-4.31 -2.324,-2.87 -3.486,-6.95 -3.486,-12.25 0,-5.29 1.172,-9.4 3.516,-12.33 2.343,-2.93 5.605,-4.4 9.785,-4.4 4.355,0 7.695,1.59 10.019,4.75 h 0.381 l -0.205,-2.31 -0.117,-2.26 v -13.07 h 4.863 V 1126 h -3.955 z m -9.726,0.82 c 3.32,0 5.723,-0.89 7.207,-2.69 1.504,-1.82 2.256,-4.74 2.256,-8.76 v -1.03 c 0,-4.55 -0.762,-7.79 -2.285,-9.72 -1.504,-1.96 -3.916,-2.93 -7.237,-2.93 -2.851,0 -5.039,1.11 -6.562,3.34 -1.504,2.2 -2.256,5.33 -2.256,9.37 0,4.1 0.752,7.2 2.256,9.29 1.504,2.09 3.711,3.13 6.621,3.13 z m 52.383,-12.59 c 0,5.23 -1.319,9.32 -3.955,12.27 -2.637,2.93 -6.28,4.4 -10.928,4.4 -2.871,0 -5.42,-0.68 -7.647,-2.03 -2.226,-1.34 -3.945,-3.28 -5.156,-5.8 -1.211,-2.52 -1.816,-5.47 -1.816,-8.84 0,-5.24 1.308,-9.31 3.926,-12.22 2.617,-2.93 6.25,-4.4 10.898,-4.4 4.492,0 8.057,1.5 10.693,4.49 2.657,2.99 3.985,7.03 3.985,12.13 z m -24.463,0 c 0,4.1 0.82,7.22 2.461,9.37 1.64,2.15 4.052,3.22 7.236,3.22 3.184,0 5.596,-1.06 7.236,-3.19 1.661,-2.15 2.491,-5.28 2.491,-9.4 0,-4.09 -0.83,-7.18 -2.491,-9.29 -1.64,-2.13 -4.072,-3.19 -7.294,-3.19 -3.184,0 -5.586,1.04 -7.208,3.13 -1.621,2.09 -2.431,5.21 -2.431,9.35 z m 43.389,12.65 c 0.859,0 1.689,-0.06 2.49,-0.17 0.801,-0.14 1.435,-0.28 1.904,-0.41 v 3.72 c -0.527,0.25 -1.309,0.46 -2.344,0.61 -1.015,0.18 -1.933,0.27 -2.754,0.27 -6.211,0 -9.316,-3.28 -9.316,-9.82 v -19.1 h -4.6 v -2.34 l 4.6,-2.03 2.051,-6.85 h 2.812 v 7.44 h 9.317 v 3.78 h -9.317 v 18.9 c 0,1.93 0.459,3.41 1.377,4.45 0.918,1.03 2.178,1.55 3.78,1.55 z M 366.5,1126 v -20.77 c 0,-2.62 -0.596,-4.57 -1.787,-5.86 -1.192,-1.29 -3.057,-1.93 -5.596,-1.93 -3.359,0 -5.82,0.9 -7.383,2.72 -1.562,1.82 -2.343,4.81 -2.343,8.99 V 1126 h -4.864 v -32.11 h 3.955 l 0.791,4.4 h 0.235 c 0.996,-1.59 2.392,-2.81 4.189,-3.67 1.797,-0.88 3.799,-1.32 6.006,-1.32 3.867,0 6.777,0.94 8.731,2.82 1.953,1.85 2.929,4.83 2.929,8.93 V 1126 Z m 28.447,0.59 c -4.746,0 -8.496,-1.45 -11.25,-4.34 -2.734,-2.89 -4.101,-6.9 -4.101,-12.04 0,-5.18 1.269,-9.29 3.808,-12.33 2.559,-3.05 5.987,-4.58 10.284,-4.58 4.023,0 7.207,1.33 9.55,3.99 2.344,2.64 3.516,6.12 3.516,10.46 v 3.07 h -22.119 c 0.097,3.77 1.045,6.64 2.842,8.59 1.816,1.95 4.365,2.93 7.646,2.93 3.457,0 6.875,-0.72 10.254,-2.17 v 4.34 c -1.719,0.74 -3.35,1.27 -4.893,1.58 -1.523,0.33 -3.369,0.5 -5.537,0.5 z m -1.318,-29.21 c -2.578,0 -4.639,0.84 -6.182,2.52 -1.523,1.68 -2.422,4 -2.695,6.97 h 16.787 c 0,-3.07 -0.684,-5.41 -2.051,-7.03 -1.367,-1.64 -3.32,-2.46 -5.859,-2.46 z m 31.816,25.19 c 0.86,0 1.69,-0.06 2.491,-0.17 0.8,-0.14 1.435,-0.28 1.904,-0.41 v 3.72 c -0.528,0.25 -1.309,0.46 -2.344,0.61 -1.016,0.18 -1.934,0.27 -2.754,0.27 -6.211,0 -9.316,-3.28 -9.316,-9.82 v -19.1 h -4.6 v -2.34 l 4.6,-2.03 2.051,-6.85 h 2.812 v 7.44 h 9.316 v 3.78 h -9.316 v 18.9 c 0,1.93 0.459,3.41 1.377,4.45 0.918,1.03 2.178,1.55 3.779,1.55 z m 23.672,4.02 c -4.648,0 -8.252,-1.43 -10.81,-4.28 -2.539,-2.87 -3.809,-6.93 -3.809,-12.16 0,-5.37 1.289,-9.52 3.867,-12.45 2.598,-2.93 6.289,-4.4 11.074,-4.4 1.543,0 3.086,0.17 4.629,0.5 1.543,0.33 2.754,0.73 3.633,1.17 l -1.494,4.14 c -1.074,-0.43 -2.246,-0.79 -3.516,-1.06 -1.269,-0.29 -2.392,-0.44 -3.369,-0.44 -6.523,0 -9.785,4.16 -9.785,12.48 0,3.95 0.791,6.97 2.373,9.08 1.602,2.11 3.965,3.17 7.09,3.17 2.676,0 5.42,-0.58 8.232,-1.73 v 4.31 c -2.148,1.11 -4.853,1.67 -8.115,1.67 z m 43.477,-16.67 c 0,5.23 -1.319,9.32 -3.955,12.27 -2.637,2.93 -6.28,4.4 -10.928,4.4 -2.871,0 -5.42,-0.68 -7.647,-2.03 -2.226,-1.34 -3.945,-3.28 -5.156,-5.8 -1.211,-2.52 -1.816,-5.47 -1.816,-8.84 0,-5.24 1.308,-9.31 3.926,-12.22 2.617,-2.93 6.25,-4.4 10.898,-4.4 4.492,0 8.057,1.5 10.693,4.49 2.657,2.99 3.985,7.03 3.985,12.13 z m -24.463,0 c 0,4.1 0.82,7.22 2.461,9.37 1.64,2.15 4.053,3.22 7.236,3.22 3.184,0 5.596,-1.06 7.236,-3.19 1.661,-2.15 2.491,-5.28 2.491,-9.4 0,-4.09 -0.83,-7.18 -2.491,-9.29 -1.64,-2.13 -4.072,-3.19 -7.294,-3.19 -3.184,0 -5.586,1.04 -7.208,3.13 -1.621,2.09 -2.431,5.21 -2.431,9.35 z m 54.99,16.08 v -20.77 c 0,-2.62 -0.596,-4.57 -1.787,-5.86 -1.191,-1.29 -3.057,-1.93 -5.596,-1.93 -3.359,0 -5.82,0.9 -7.383,2.72 -1.562,1.82 -2.343,4.81 -2.343,8.99 V 1126 h -4.864 v -32.11 h 3.956 l 0.791,4.4 h 0.234 c 0.996,-1.59 2.392,-2.81 4.189,-3.67 1.797,-0.88 3.799,-1.32 6.006,-1.32 3.867,0 6.778,0.94 8.731,2.82 1.953,1.85 2.929,4.83 2.929,8.93 V 1126 Z m 29.356,-28.33 h -8.174 V 1126 h -4.864 v -28.33 h -5.742 v -2.2 l 5.742,-1.76 v -1.78 c 0,-7.89 3.448,-11.84 10.342,-11.84 1.699,0 3.692,0.34 5.977,1.03 l -1.26,3.89 c -1.875,-0.6 -3.477,-0.9 -4.805,-0.9 -1.836,0 -3.193,0.61 -4.072,1.84 -0.879,1.21 -1.318,3.17 -1.318,5.86 v 2.08 h 8.174 z m 5.156,25.22 c 0,-1.3 0.293,-2.29 0.879,-2.95 0.605,-0.69 1.465,-1.03 2.578,-1.03 1.133,0 2.012,0.34 2.637,1.03 0.644,0.66 0.966,1.65 0.966,2.95 0,1.27 -0.322,2.25 -0.966,2.93 -0.645,0.69 -1.524,1.03 -2.637,1.03 -0.996,0 -1.826,-0.3 -2.49,-0.91 -0.645,-0.62 -0.967,-1.64 -0.967,-3.05 z m 38.672,3.11 v -20.77 c 0,-2.62 -0.596,-4.57 -1.787,-5.86 -1.192,-1.29 -3.057,-1.93 -5.596,-1.93 -3.36,0 -5.82,0.9 -7.383,2.72 -1.562,1.82 -2.344,4.81 -2.344,8.99 V 1126 h -4.863 v -32.11 h 3.955 l 0.791,4.4 h 0.234 c 0.997,-1.59 2.393,-2.81 4.19,-3.67 1.797,-0.88 3.799,-1.32 6.006,-1.32 3.867,0 6.777,0.94 8.73,2.82 1.953,1.85 2.93,4.83 2.93,8.93 V 1126 Z m 28.447,0.59 c -4.746,0 -8.496,-1.45 -11.25,-4.34 -2.734,-2.89 -4.102,-6.9 -4.102,-12.04 0,-5.18 1.27,-9.29 3.809,-12.33 2.559,-3.05 5.986,-4.58 10.283,-4.58 4.024,0 7.207,1.33 9.551,3.99 2.344,2.64 3.516,6.12 3.516,10.46 v 3.07 h -22.12 c 0.098,3.77 1.045,6.64 2.842,8.59 1.817,1.95 4.365,2.93 7.647,2.93 3.457,0 6.875,-0.72 10.254,-2.17 v 4.34 c -1.719,0.74 -3.35,1.27 -4.893,1.58 -1.523,0.33 -3.369,0.5 -5.537,0.5 z m -1.318,-29.21 c -2.579,0 -4.639,0.84 -6.182,2.52 -1.523,1.68 -2.422,4 -2.695,6.97 h 16.787 c 0,-3.07 -0.684,-5.41 -2.051,-7.03 -1.367,-1.64 -3.32,-2.46 -5.859,-2.46 z m 31.816,25.19 c 0.859,0 1.689,-0.06 2.49,-0.17 0.801,-0.14 1.436,-0.28 1.905,-0.41 v 3.72 c -0.528,0.25 -1.309,0.46 -2.344,0.61 -1.016,0.18 -1.934,0.27 -2.754,0.27 -6.211,0 -9.317,-3.28 -9.317,-9.82 v -19.1 h -4.599 v -2.34 l 4.599,-2.03 2.051,-6.85 h 2.813 v 7.44 h 9.316 v 3.78 h -9.316 v 18.9 c 0,1.93 0.459,3.41 1.377,4.45 0.918,1.03 2.177,1.55 3.779,1.55 z"
       fill="#ffffff"
       id="path485" />
    <path
       d="m 599.375,246.5 c 5.7,-0.4 9.9,-1.2 16.2,-2.1 3.2,-0.5 3.2,-5.2 0,-5.7 -6.1,-0.9 -10.1,-1.4 -15.9,-1.6 -1.5,0 -2.7,-1.2 -2.8,-2.7 -0.4,-5.6 -1.1,-11.8 -2.1,-18 -0.5,-3.2 -5.2,-3.2 -5.7,0 -0.9,6.1 -1.4,12.2 -1.6,18 0,1.5 -1.2,2.7 -2.7,2.8 -5.6,0.3 -10.8,0.8 -15.3,1.4 -3.3,0.4 -3.3,5.2 0,5.7 5.2,0.7 10.8,1.5 15.6,1.9 1.4,0.1 2.5,1.3 2.6,2.7 0.3,5.8 0.8,11.1 1.4,15.6 0.4,3.3 5.2,3.4 5.7,0 0.7,-5.2 1.5,-10.9 1.9,-15.6 0.2,-1.1 1.3,-2.3 2.7,-2.4 z"
       fill="#4a95ef"
       id="path487" />
    <path
       d="m 1117.38,656.5 c 5.7,-0.4 9.89,-1.2 16.19,-2.1 3.2,-0.5 3.2,-5.2 0,-5.7 -6.1,-0.9 -10.09,-1.4 -15.89,-1.6 -1.5,0 -2.7,-1.2 -2.8,-2.7 -0.4,-5.6 -1.11,-11.8 -2.11,-18 -0.5,-3.2 -5.2,-3.2 -5.7,0 -0.9,6.1 -1.39,12.2 -1.59,18 0,1.5 -1.21,2.7 -2.71,2.8 -5.6,0.3 -10.8,0.8 -15.3,1.4 -3.3,0.4 -3.3,5.2 0,5.7 5.2,0.7 10.8,1.5 15.6,1.9 1.4,0.1 2.51,1.3 2.61,2.7 0.3,5.8 0.79,11.1 1.39,15.6 0.4,3.3 5.2,3.4 5.7,0 0.7,-5.2 1.51,-10.9 1.91,-15.6 0.2,-1.1 1.3,-2.3 2.7,-2.4 z"
       fill="#afd3fe"
       id="path489" />
    <path
       d="m 152.375,551.5 c 5.7,-0.4 9.9,-1.2 16.2,-2.1 3.2,-0.5 3.2,-5.2 0,-5.7 -6.1,-0.9 -10.1,-1.4 -15.9,-1.6 -1.5,0 -2.7,-1.2 -2.8,-2.7 -0.4,-5.6 -1.1,-11.8 -2.1,-18 -0.5,-3.2 -5.2,-3.2 -5.7,0 -0.9,6.1 -1.4,12.2 -1.6,18 0,1.5 -1.2,2.7 -2.7,2.8 -5.6,0.3 -10.8,0.8 -15.3,1.4 -3.3,0.4 -3.3,5.2 0,5.7 5.2,0.7 10.8,1.5 15.6,1.9 1.4,0.1 2.5,1.3 2.6,2.7 0.3,5.8 0.8,11.1 1.4,15.6 0.4,3.3 5.2,3.4 5.7,0 0.7,-5.2 1.5,-10.9 1.9,-15.6 0.2,-1.1 1.3,-2.3 2.7,-2.4 z"
       fill="#4a95ef"
       id="path491" />
    <path
       d="m 145.777,912.08 c 0,10.016 -2.725,17.68 -8.176,22.993 -5.423,5.285 -13.24,7.927 -23.45,7.927 H 97.3423 v -60.679 h 18.5937 c 9.435,0 16.768,2.615 21.997,7.845 5.23,5.229 7.844,12.534 7.844,21.914 z m -7.47,0.249 c 0,-7.914 -1.993,-13.877 -5.977,-17.889 -3.957,-4.012 -9.85,-6.018 -17.681,-6.018 h -10.251 v 48.477 h 8.591 c 8.412,0 14.734,-2.061 18.968,-6.184 4.233,-4.151 6.35,-10.279 6.35,-18.386 z M 165.201,943 h -6.889 v -45.488 h 6.889 z m -7.471,-57.815 c 0,-1.577 0.388,-2.725 1.163,-3.445 0.774,-0.747 1.743,-1.12 2.905,-1.12 1.107,0 2.061,0.373 2.864,1.12 0.802,0.747 1.203,1.896 1.203,3.445 0,1.55 -0.401,2.712 -1.203,3.486 -0.803,0.747 -1.757,1.121 -2.864,1.121 -1.162,0 -2.131,-0.374 -2.905,-1.121 -0.775,-0.774 -1.163,-1.936 -1.163,-3.486 z m 51.424,45.405 c 0,4.234 -1.577,7.499 -4.732,9.795 -3.154,2.297 -7.581,3.445 -13.281,3.445 -6.032,0 -10.736,-0.955 -14.111,-2.864 v -6.391 c 2.186,1.106 4.524,1.978 7.014,2.614 2.518,0.637 4.939,0.955 7.263,0.955 3.597,0 6.364,-0.567 8.301,-1.702 1.937,-1.162 2.905,-2.919 2.905,-5.271 0,-1.77 -0.775,-3.278 -2.324,-4.524 -1.522,-1.272 -4.51,-2.766 -8.965,-4.482 -4.233,-1.577 -7.249,-2.947 -9.048,-4.109 -1.771,-1.19 -3.099,-2.532 -3.984,-4.026 -0.858,-1.494 -1.287,-3.279 -1.287,-5.354 0,-3.707 1.508,-6.627 4.524,-8.757 3.016,-2.158 7.153,-3.237 12.41,-3.237 4.897,0 9.684,0.996 14.36,2.988 l -2.449,5.603 c -4.565,-1.882 -8.701,-2.822 -12.409,-2.822 -3.265,0 -5.728,0.512 -7.388,1.535 -1.66,1.024 -2.49,2.435 -2.49,4.234 0,1.217 0.304,2.255 0.913,3.113 0.636,0.857 1.646,1.674 3.03,2.448 1.383,0.775 4.039,1.896 7.969,3.362 5.395,1.965 9.034,3.943 10.915,5.935 1.909,1.992 2.864,4.496 2.864,7.512 z m 29.426,13.24 c -6.585,0 -11.69,-2.02 -15.315,-6.059 -3.597,-4.068 -5.395,-9.809 -5.395,-17.225 0,-7.609 1.826,-13.488 5.478,-17.639 3.68,-4.15 8.91,-6.225 15.689,-6.225 2.185,0 4.371,0.235 6.557,0.705 2.186,0.471 3.902,1.024 5.147,1.66 l -2.117,5.852 c -1.522,-0.608 -3.182,-1.106 -4.98,-1.494 -1.799,-0.415 -3.39,-0.622 -4.773,-0.622 -9.242,0 -13.863,5.893 -13.863,17.68 0,5.59 1.121,9.878 3.362,12.867 2.269,2.988 5.617,4.482 10.044,4.482 3.791,0 7.678,-0.816 11.663,-2.449 v 6.101 c -3.044,1.578 -6.876,2.366 -11.497,2.366 z m 61.592,-23.616 c 0,7.416 -1.868,13.212 -5.603,17.39 -3.736,4.151 -8.896,6.226 -15.481,6.226 -4.067,0 -7.678,-0.955 -10.833,-2.864 -3.154,-1.909 -5.589,-4.648 -7.304,-8.217 -1.716,-3.57 -2.574,-7.748 -2.574,-12.535 0,-7.415 1.854,-13.184 5.562,-17.307 3.708,-4.15 8.854,-6.225 15.439,-6.225 6.364,0 11.414,2.116 15.149,6.35 3.763,4.233 5.645,9.961 5.645,17.182 z m -34.656,0 c 0,5.811 1.162,10.238 3.486,13.282 2.325,3.043 5.742,4.565 10.252,4.565 4.51,0 7.927,-1.508 10.251,-4.524 2.352,-3.044 3.528,-7.484 3.528,-13.323 0,-5.783 -1.176,-10.168 -3.528,-13.156 -2.324,-3.016 -5.769,-4.524 -10.334,-4.524 -4.51,0 -7.914,1.48 -10.21,4.441 -2.297,2.96 -3.445,7.373 -3.445,13.239 z M 322.252,943 304.986,897.512 h 7.388 l 9.795,26.977 c 2.213,6.309 3.514,10.404 3.901,12.285 h 0.332 c 0.305,-1.466 1.259,-4.496 2.864,-9.089 1.633,-4.621 5.271,-14.678 10.916,-30.173 h 7.387 L 330.304,943 Z m 51.838,0.83 c -6.723,0 -12.036,-2.047 -15.937,-6.142 -3.874,-4.096 -5.811,-9.782 -5.811,-17.059 0,-7.332 1.799,-13.156 5.396,-17.473 3.624,-4.316 8.48,-6.474 14.568,-6.474 5.7,0 10.21,1.881 13.53,5.644 3.32,3.736 4.98,8.674 4.98,14.817 v 4.358 h -31.335 c 0.138,5.34 1.48,9.394 4.026,12.161 2.573,2.767 6.184,4.15 10.832,4.15 4.898,0 9.74,-1.024 14.527,-3.071 v 6.142 c -2.435,1.052 -4.746,1.799 -6.931,2.242 -2.159,0.47 -4.773,0.705 -7.845,0.705 z m -1.867,-41.379 c -3.653,0 -6.572,1.189 -8.758,3.569 -2.158,2.38 -3.431,5.672 -3.818,9.878 h 23.782 c 0,-4.344 -0.969,-7.664 -2.906,-9.961 -1.936,-2.324 -4.703,-3.486 -8.3,-3.486 z m 51.132,-5.769 c 2.02,0 3.833,0.166 5.437,0.498 l -0.954,6.391 c -1.882,-0.415 -3.542,-0.622 -4.981,-0.622 -3.68,0 -6.834,1.494 -9.462,4.482 -2.601,2.988 -3.902,6.71 -3.902,11.165 V 943 h -6.889 v -45.488 h 5.686 l 0.788,8.425 h 0.332 c 1.688,-2.961 3.722,-5.243 6.101,-6.848 2.38,-1.605 4.995,-2.407 7.844,-2.407 z m 50.718,41.462 c 1.218,0 2.394,-0.083 3.528,-0.249 1.135,-0.194 2.034,-0.387 2.698,-0.581 v 5.271 c -0.747,0.36 -1.854,0.65 -3.32,0.872 -1.439,0.249 -2.74,0.373 -3.902,0.373 -8.799,0 -13.198,-4.635 -13.198,-13.904 v -27.06 h -6.516 v -3.321 l 6.516,-2.863 2.905,-9.712 h 3.985 v 10.542 h 13.198 v 5.354 h -13.198 v 26.77 c 0,2.739 0.65,4.842 1.95,6.308 1.301,1.467 3.085,2.2 5.354,2.2 z M 520.558,943 v -29.426 c 0,-3.708 -0.844,-6.475 -2.532,-8.301 -1.688,-1.826 -4.33,-2.739 -7.927,-2.739 -4.787,0 -8.287,1.3 -10.501,3.901 -2.186,2.601 -3.279,6.862 -3.279,12.783 V 943 h -6.889 v -64.58 h 6.889 v 19.548 c 0,2.352 -0.11,4.303 -0.332,5.852 h 0.415 c 1.356,-2.186 3.279,-3.901 5.769,-5.146 2.518,-1.273 5.382,-1.909 8.592,-1.909 5.561,0 9.725,1.328 12.492,3.984 2.795,2.629 4.192,6.82 4.192,12.576 V 943 Z m 40.3,0.83 c -6.724,0 -12.036,-2.047 -15.938,-6.142 -3.873,-4.096 -5.81,-9.782 -5.81,-17.059 0,-7.332 1.798,-13.156 5.395,-17.473 3.625,-4.316 8.481,-6.474 14.568,-6.474 5.7,0 10.21,1.881 13.531,5.644 3.32,3.736 4.98,8.674 4.98,14.817 v 4.358 h -31.335 c 0.138,5.34 1.48,9.394 4.025,12.161 2.574,2.767 6.184,4.15 10.833,4.15 4.897,0 9.74,-1.024 14.526,-3.071 v 6.142 c -2.435,1.052 -4.745,1.799 -6.931,2.242 -2.158,0.47 -4.773,0.705 -7.844,0.705 z m -1.868,-41.379 c -3.652,0 -6.571,1.189 -8.757,3.569 -2.158,2.38 -3.431,5.672 -3.818,9.878 h 23.781 c 0,-4.344 -0.968,-7.664 -2.905,-9.961 -1.937,-2.324 -4.704,-3.486 -8.301,-3.486 z M 648.597,943 640.255,916.313 c -0.526,-1.632 -1.508,-5.34 -2.947,-11.123 h -0.332 c -1.107,4.842 -2.075,8.577 -2.905,11.206 L 625.479,943 h -7.968 l -12.41,-45.488 h 7.222 c 2.933,11.427 5.16,20.129 6.682,26.106 1.549,5.976 2.435,10.002 2.656,12.077 h 0.332 c 0.305,-1.577 0.789,-3.611 1.453,-6.101 0.692,-2.518 1.286,-4.51 1.784,-5.976 l 8.343,-26.106 h 7.47 l 8.135,26.106 c 1.55,4.759 2.601,8.757 3.155,11.994 h 0.332 c 0.11,-0.996 0.401,-2.531 0.871,-4.607 0.498,-2.075 3.39,-13.239 8.674,-33.493 h 7.139 L 656.773,943 Z m 68.274,-22.786 c 0,7.416 -1.868,13.212 -5.603,17.39 -3.735,4.151 -8.896,6.226 -15.481,6.226 -4.067,0 -7.678,-0.955 -10.832,-2.864 -3.155,-1.909 -5.59,-4.648 -7.305,-8.217 -1.716,-3.57 -2.573,-7.748 -2.573,-12.535 0,-7.415 1.854,-13.184 5.561,-17.307 3.708,-4.15 8.854,-6.225 15.44,-6.225 6.364,0 11.413,2.116 15.149,6.35 3.763,4.233 5.644,9.961 5.644,17.182 z m -34.656,0 c 0,5.811 1.162,10.238 3.487,13.282 2.324,3.043 5.741,4.565 10.251,4.565 4.51,0 7.927,-1.508 10.252,-4.524 2.351,-3.044 3.527,-7.484 3.527,-13.323 0,-5.783 -1.176,-10.168 -3.527,-13.156 -2.325,-3.016 -5.769,-4.524 -10.335,-4.524 -4.51,0 -7.913,1.48 -10.21,4.441 -2.296,2.96 -3.445,7.373 -3.445,13.239 z m 67.527,-23.532 c 2.02,0 3.832,0.166 5.437,0.498 l -0.954,6.391 c -1.882,-0.415 -3.542,-0.622 -4.981,-0.622 -3.68,0 -6.834,1.494 -9.463,4.482 -2.601,2.988 -3.901,6.71 -3.901,11.165 V 943 h -6.89 v -45.488 h 5.686 l 0.789,8.425 h 0.332 c 1.688,-2.961 3.721,-5.243 6.101,-6.848 2.38,-1.605 4.994,-2.407 7.844,-2.407 z M 770.577,943 h -6.889 v -64.58 h 6.889 z m 45.571,-6.101 h -0.373 c -3.182,4.621 -7.941,6.931 -14.277,6.931 -5.949,0 -10.584,-2.034 -13.904,-6.101 -3.293,-4.067 -4.939,-9.85 -4.939,-17.349 0,-7.498 1.66,-13.322 4.98,-17.473 3.321,-4.15 7.941,-6.225 13.863,-6.225 6.17,0 10.901,2.241 14.194,6.723 h 0.539 l -0.29,-3.279 -0.166,-3.195 V 878.42 h 6.89 V 943 h -5.603 z m -13.779,1.162 c 4.704,0 8.107,-1.273 10.21,-3.818 2.131,-2.574 3.196,-6.71 3.196,-12.41 v -1.453 c 0,-6.447 -1.079,-11.04 -3.237,-13.779 -2.131,-2.767 -5.548,-4.15 -10.252,-4.15 -4.04,0 -7.139,1.577 -9.297,4.731 -2.13,3.127 -3.196,7.554 -3.196,13.281 0,5.811 1.066,10.197 3.196,13.157 2.131,2.961 5.257,4.441 9.38,4.441 z m 96.289,-17.847 c 0,7.416 -1.867,13.212 -5.603,17.39 -3.735,4.151 -8.895,6.226 -15.481,6.226 -4.067,0 -7.678,-0.955 -10.832,-2.864 -3.155,-1.909 -5.589,-4.648 -7.305,-8.217 -1.715,-3.57 -2.573,-7.748 -2.573,-12.535 0,-7.415 1.854,-13.184 5.561,-17.307 3.708,-4.15 8.854,-6.225 15.44,-6.225 6.364,0 11.413,2.116 15.149,6.35 3.763,4.233 5.644,9.961 5.644,17.182 z m -34.656,0 c 0,5.811 1.163,10.238 3.487,13.282 2.324,3.043 5.741,4.565 10.251,4.565 4.51,0 7.927,-1.508 10.252,-4.524 2.352,-3.044 3.528,-7.484 3.528,-13.323 0,-5.783 -1.176,-10.168 -3.528,-13.156 -2.325,-3.016 -5.769,-4.524 -10.335,-4.524 -4.51,0 -7.913,1.48 -10.21,4.441 -2.296,2.96 -3.445,7.373 -3.445,13.239 z M 931.28,902.866 H 919.701 V 943 h -6.89 v -40.134 h -8.135 v -3.113 l 8.135,-2.49 v -2.532 c 0,-11.178 4.884,-16.768 14.651,-16.768 2.407,0 5.229,0.485 8.467,1.453 l -1.785,5.52 c -2.656,-0.858 -4.925,-1.287 -6.807,-1.287 -2.601,0 -4.524,0.872 -5.769,2.615 -1.245,1.716 -1.867,4.483 -1.867,8.301 v 2.947 h 11.579 z m 29.385,35.735 c 0,-1.854 0.415,-3.252 1.245,-4.192 0.858,-0.969 2.075,-1.453 3.652,-1.453 1.605,0 2.85,0.484 3.736,1.453 0.913,0.94 1.369,2.338 1.369,4.192 0,1.798 -0.456,3.182 -1.369,4.15 -0.913,0.968 -2.158,1.453 -3.736,1.453 -1.411,0 -2.587,-0.429 -3.527,-1.287 -0.913,-0.885 -1.37,-2.324 -1.37,-4.316 z M 1032.76,943 h -8.05 l -33.166,-50.925 h -0.332 c 0.443,5.976 0.664,11.455 0.664,16.435 V 943 h -6.516 v -60.679 h 7.969 l 33.081,50.718 h 0.33 c -0.06,-0.747 -0.18,-3.14 -0.37,-7.18 -0.2,-4.067 -0.27,-6.973 -0.21,-8.716 v -34.822 h 6.6 z m 50.51,0 h -33.83 v -60.679 h 33.83 v 6.267 h -26.77 v 19.549 h 25.15 v 6.225 h -25.15 v 22.329 h 26.77 z m 32.16,0 h -7.05 v -54.412 h -19.22 v -6.267 h 45.49 v 6.267 h -19.22 z"
       fill="#ffffff"
       id="path493" />
    <text
       xml:space="preserve"
       style="font-size:64px;line-height:1.25;font-family:'Open Sans';-inkscape-font-specification:'Open Sans';fill:none"
       x="116.66667"
       y="1007.1429"
       id="text634"><tspan
         sodipodi:role="line"
         id="tspan632"
         x="116.66667"
         y="1007.1429" /></text>
    <text
       xml:space="preserve"
       style="font-size:64px;line-height:1.25;font-family:'Open Sans';-inkscape-font-specification:'Open Sans'"
       x="83.333336"
       y="396.42856"
       id="text638"><tspan
         sodipodi:role="line"
         id="tspan636"
         x="83.333336"
         y="396.42856"
         style="fill:#ffffff" /></text>
    <text
       xml:space="preserve"
       style="font-size:61.3333px;line-height:1.25;font-family:'Open Sans';-inkscape-font-specification:'Open Sans'"
       x="90.047623"
       y="1036.238"
       id="text642"><tspan
         sodipodi:role="line"
         id="tspan640"
         x="90.047623"
         y="1036.238"
         style="font-size:61.3333px;fill:#ffffff">November 9-11, 2021</tspan></text>
  </g>
  <defs
     id="defs624">
    <radialGradient
       id="paint0_radial"
       cx="0"
       cy="0"
       r="1"
       gradientUnits="userSpaceOnUse"
       gradientTransform="translate(518.724 761.337) scale(704.021 1378.09)">
      <stop
         offset="0.4602"
         stop-color="#1572E0"
         id="stop497" />
      <stop
         offset="0.8725"
         stop-color="#3E8EED"
         id="stop499" />
    </radialGradient>
    <radialGradient
       id="paint1_radial"
       cx="0"
       cy="0"
       r="1"
       gradientUnits="userSpaceOnUse"
       gradientTransform="translate(514.79 -345.882) scale(984.396 1767.25)">
      <stop
         offset="0.1052"
         stop-color="#60A2F0"
         id="stop502" />
      <stop
         offset="0.5496"
         stop-color="#3E8EED"
         id="stop504" />
      <stop
         offset="0.9964"
         stop-color="#1C77E2"
         id="stop506" />
    </radialGradient>
    <radialGradient
       id="paint2_radial"
       cx="0"
       cy="0"
       r="1"
       gradientUnits="userSpaceOnUse"
       gradientTransform="translate(619.911 1042.79) scale(739.686 1007.78)">
      <stop
         offset="0.5491"
         stop-color="#549BEF"
         id="stop509" />
      <stop
         offset="0.9925"
         stop-color="#1C77E2"
         id="stop511" />
    </radialGradient>
    <radialGradient
       id="paint3_radial"
       cx="0"
       cy="0"
       r="1"
       gradientUnits="userSpaceOnUse"
       gradientTransform="translate(92.9712 11.5987) scale(159.129)">
      <stop
         offset="0.3813"
         stop-color="#77E3FB"
         id="stop514" />
      <stop
         offset="0.979"
         stop-color="#2CC7EA"
         id="stop516" />
    </radialGradient>
    <radialGradient
       id="paint4_radial"
       cx="0"
       cy="0"
       r="1"
       gradientUnits="userSpaceOnUse"
       gradientTransform="translate(138.918 108.573) scale(65.9083 118.681)">
      <stop
         offset="0.489583"
         stop-color="#A2CCFF"
         id="stop519" />
      <stop
         offset="0.9925"
         stop-color="#67A3EB"
         id="stop521" />
    </radialGradient>
    <linearGradient
       id="paint5_linear"
       x1="273.089"
       y1="106.575"
       x2="27.9844"
       y2="106.575"
       gradientUnits="userSpaceOnUse">
      <stop
         offset="0.000330688"
         stop-color="#B5D6FF"
         stop-opacity="0"
         id="stop524" />
      <stop
         offset="1"
         stop-color="#B5D6FF"
         id="stop526" />
    </linearGradient>
    <radialGradient
       id="paint6_radial"
       cx="0"
       cy="0"
       r="1"
       gradientUnits="userSpaceOnUse"
       gradientTransform="translate(956.882 1020.88) rotate(-6.92105) scale(125.366)">
      <stop
         offset="0.3813"
         stop-color="#AFD3FE"
         id="stop529" />
      <stop
         offset="0.979"
         stop-color="#2079E4"
         id="stop531" />
    </radialGradient>
    <linearGradient
       id="paint7_linear"
       x1="551.064"
       y1="841.563"
       x2="555.875"
       y2="479.631"
       gradientUnits="userSpaceOnUse">
      <stop
         stop-color="white"
         stop-opacity="0"
         id="stop534" />
      <stop
         offset="0.9936"
         stop-color="#60DEFA"
         id="stop536" />
    </linearGradient>
    <linearGradient
       id="paint8_linear"
       x1="507.998"
       y1="818.226"
       x2="512.809"
       y2="456.295"
       gradientUnits="userSpaceOnUse">
      <stop
         stop-color="white"
         stop-opacity="0"
         id="stop539" />
      <stop
         offset="0.9936"
         stop-color="#60DEFA"
         id="stop541" />
    </linearGradient>
    <linearGradient
       id="paint9_linear"
       x1="719.832"
       y1="492.334"
       x2="681.372"
       y2="557.217"
       gradientUnits="userSpaceOnUse">
      <stop
         stop-color="#522CD5"
         id="stop544" />
      <stop
         offset="0.4397"
         stop-color="#8A6FE8"
         id="stop546" />
    </linearGradient>
    <linearGradient
       id="paint10_linear"
       x1="719.832"
       y1="492.334"
       x2="681.372"
       y2="557.217"
       gradientUnits="userSpaceOnUse">
      <stop
         stop-color="#522CD5"
         id="stop549" />
      <stop
         offset="0.4397"
         stop-color="#8A6FE8"
         id="stop551" />
    </linearGradient>
    <linearGradient
       id="paint11_linear"
       x1="674.652"
       y1="547.134"
       x2="650.181"
       y2="632.231"
       gradientUnits="userSpaceOnUse">
      <stop
         stop-color="#522CD5"
         id="stop554" />
      <stop
         offset="0.4397"
         stop-color="#8A6FE8"
         id="stop556" />
    </linearGradient>
    <radialGradient
       id="paint12_radial"
       cx="0"
       cy="0"
       r="1"
       gradientUnits="userSpaceOnUse"
       gradientTransform="translate(647.142 610.677) rotate(41.6266) scale(17.0768 17.0756)">
      <stop
         offset="0.034"
         stop-color="#522CD5"
         id="stop559" />
      <stop
         offset="1"
         stop-color="#8A6FE8"
         id="stop561" />
    </radialGradient>
    <linearGradient
       id="paint13_linear"
       x1="694.518"
       y1="478.868"
       x2="644.299"
       y2="535.147"
       gradientUnits="userSpaceOnUse">
      <stop
         stop-color="#522CD5"
         id="stop564" />
      <stop
         offset="0.4397"
         stop-color="#8A6FE8"
         id="stop566" />
    </linearGradient>
    <linearGradient
       id="paint14_linear"
       x1="694.518"
       y1="478.868"
       x2="644.299"
       y2="535.147"
       gradientUnits="userSpaceOnUse">
      <stop
         stop-color="#522CD5"
         id="stop569" />
      <stop
         offset="0.4397"
         stop-color="#8A6FE8"
         id="stop571" />
    </linearGradient>
    <linearGradient
       id="paint15_linear"
       x1="638.53"
       y1="522.267"
       x2="597.665"
       y2="602.023"
       gradientUnits="userSpaceOnUse">
      <stop
         stop-color="#522CD5"
         id="stop574" />
      <stop
         offset="0.4397"
         stop-color="#8A6FE8"
         id="stop576" />
    </linearGradient>
    <radialGradient
       id="paint16_radial"
       cx="0"
       cy="0"
       r="1"
       gradientUnits="userSpaceOnUse"
       gradientTransform="translate(614.698 576.192) rotate(52.711) scale(30.2535 30.2519)">
      <stop
         offset="0.034"
         stop-color="#522CD5"
         id="stop579" />
      <stop
         offset="0.9955"
         stop-color="#8A6FE8"
         id="stop581" />
    </radialGradient>
    <radialGradient
       id="paint17_radial"
       cx="0"
       cy="0"
       r="1"
       gradientUnits="userSpaceOnUse"
       gradientTransform="translate(871.631 484.291) rotate(-14.792) scale(27.6616)">
      <stop
         stop-color="#8065E0"
         id="stop584" />
      <stop
         offset="1"
         stop-color="#512BD4"
         id="stop586" />
    </radialGradient>
    <radialGradient
       id="paint18_radial"
       cx="0"
       cy="0"
       r="1"
       gradientUnits="userSpaceOnUse"
       gradientTransform="translate(762.587 347.964) rotate(31.9889) scale(107.678)">
      <stop
         offset="0.3472"
         stop-color="#A08BE8"
         id="stop589" />
      <stop
         offset="0.684"
         stop-color="#8065E0"
         id="stop591" />
      <stop
         offset="0.7596"
         stop-color="#8065E0"
         id="stop593" />
    </radialGradient>
    <radialGradient
       id="paint19_radial"
       cx="0"
       cy="0"
       r="1"
       gradientUnits="userSpaceOnUse"
       gradientTransform="translate(747.738 400.706) rotate(-14.792) scale(108.478)">
      <stop
         offset="0.0933"
         stop-color="#E1DFDD"
         id="stop596" />
      <stop
         offset="0.6573"
         stop-color="white"
         id="stop598" />
    </radialGradient>
    <radialGradient
       id="paint20_radial"
       cx="0"
       cy="0"
       r="1"
       gradientUnits="userSpaceOnUse"
       gradientTransform="translate(785.373 308.624) rotate(-14.792) scale(15.4213)">
      <stop
         stop-color="#8065E0"
         id="stop601" />
      <stop
         offset="1"
         stop-color="#512BD4"
         id="stop603" />
    </radialGradient>
    <linearGradient
       id="paint21_linear"
       x1="673.809"
       y1="343.939"
       x2="577.433"
       y2="357.263"
       gradientUnits="userSpaceOnUse">
      <stop
         offset="0.2495"
         stop-color="#967FE6"
         id="stop606" />
      <stop
         offset="1"
         stop-color="#8A6FE8"
         id="stop608" />
    </linearGradient>
    <radialGradient
       id="paint22_radial"
       cx="0"
       cy="0"
       r="1"
       gradientUnits="userSpaceOnUse"
       gradientTransform="translate(575.162 330.921) rotate(-14.792) scale(28.0609)">
      <stop
         stop-color="#8065E0"
         id="stop611" />
      <stop
         offset="1"
         stop-color="#512BD4"
         id="stop613" />
    </radialGradient>
    <radialGradient
       id="paint23_radial"
       cx="0"
       cy="0"
       r="1"
       gradientUnits="userSpaceOnUse"
       gradientTransform="translate(678.285 368.651) rotate(-3.42043) scale(18.669)">
      <stop
         stop-color="#8065E0"
         id="stop616" />
      <stop
         offset="1"
         stop-color="#512BD4"
         id="stop618" />
    </radialGradient>
    <clipPath
       id="clip0">
      <rect
         width="1200"
         height="1200"
         fill="white"
         id="rect621" />
    </clipPath>
  </defs>
</svg>
