<?xml version="1.0" encoding="UTF-8" standalone="no"?>
<svg
   xmlns:dc="http://purl.org/dc/elements/1.1/"
   xmlns:cc="http://creativecommons.org/ns#"
   xmlns:rdf="http://www.w3.org/1999/02/22-rdf-syntax-ns#"
   xmlns:svg="http://www.w3.org/2000/svg"
   xmlns="http://www.w3.org/2000/svg"
   xmlns:sodipodi="http://sodipodi.sourceforge.net/DTD/sodipodi-0.dtd"
   xmlns:inkscape="http://www.inkscape.org/namespaces/inkscape"
   width="1600"
   height="900"
   viewBox="0 0 1600 900"
   fill="none"
   version="1.1"
   id="svg344"
   sodipodi:docname="1600x900-banner.svg"
   inkscape:version="1.0.2 (e86c870879, 2021-01-15, custom)"
   inkscape:export-filename="C:\Users\bethma\OneDrive\dotnetConf\Creative\Social_1600x900.png"
   inkscape:export-xdpi="96"
   inkscape:export-ydpi="96">
  <metadata
     id="metadata348">
    <rdf:RDF>
      <cc:Work
         rdf:about="">
        <dc:format>image/svg+xml</dc:format>
        <dc:type
           rdf:resource="http://purl.org/dc/dcmitype/StillImage" />
      </cc:Work>
    </rdf:RDF>
  </metadata>
  <sodipodi:namedview
     pagecolor="#ffffff"
     bordercolor="#666666"
     borderopacity="1"
     objecttolerance="10"
     gridtolerance="10"
     guidetolerance="10"
     inkscape:pageopacity="0"
     inkscape:pageshadow="2"
     inkscape:window-width="3840"
     inkscape:window-height="2050"
     id="namedview346"
     showgrid="false"
     inkscape:zoom="0.718125"
     inkscape:cx="800"
     inkscape:cy="450"
     inkscape:window-x="-12"
     inkscape:window-y="-12"
     inkscape:window-maximized="1"
     inkscape:current-layer="g208" />
  <g
     clip-path="url(#clip0)"
     id="g208">
    <rect
       width="1600"
       height="900"
       fill="#ffffff"
       id="rect10"
       x="0"
       y="0" />
    <path
       d="M 724.166,1523.88 C 1488.23,1566.54 1827.61,1274.27 1812.52,804.091 1801.02,446.913 1646.95,338.603 1715.87,48.1453 1803.86,-322.684 868.702,-493.938 259.123,-217.64 c -475.331,215.47051 -735.92,925.848 -499.578,1327.35 165.0001,280.35 572.546,392.28 964.621,414.17 z"
       fill="url(#paint0_radial)"
       id="path12" />
    <path
       d="m 557.466,148.725 c 0,0 -5.706,3.384 -9.509,9.779 -1.827,-4.942 -9.779,-9.51 -9.779,-9.51 0,0 6.679,-3.399 9.509,-9.779 3.414,6.08 9.779,9.51 9.779,9.51 z"
       fill="#4adafa"
       id="path14" />
    <path
       d="m 103.714,316.044 c 0,0 -10.0486,5.765 -16.8624,16.802 -3.04,-8.686 -16.8023,-16.862 -16.8023,-16.862 0,0 11.7407,-5.766 16.8622,-16.802 5.7655,10.722 16.8025,16.862 16.8025,16.862 z"
       fill="#4adafa"
       id="path16" />
    <path
       d="m 180.067,443.069 c -0.06,0 -6.065,-0.075 -11.92,-3.07 -7.698,-3.924 -11.576,-10.857 -11.531,-20.606 0,-0.719 -0.584,-1.318 -1.303,-1.318 -0.719,0 -1.318,0.584 -1.318,1.303 -0.105,23.241 -22.718,23.451 -23.676,23.451 -0.704,0 -1.288,0.554 -1.318,1.273 -0.03,0.704 0.524,1.303 1.228,1.348 0.06,0 6.08,0.434 11.965,3.609 7.728,4.163 11.621,10.917 11.576,20.067 0,0.718 0.584,1.318 1.303,1.318 0.719,0 1.318,-0.585 1.318,-1.303 0.045,-8.806 3.998,-15.425 11.771,-19.648 5.93,-3.22 11.965,-3.804 12.025,-3.804 0.704,-0.06 1.228,-0.659 1.198,-1.362 -0.045,-0.704 -0.629,-1.258 -1.318,-1.258 z"
       fill="#4a95ef"
       id="path18" />
    <path
       d="m 131.861,422.253 c 1.175,0 2.127,-0.952 2.127,-2.127 0,-1.174 -0.952,-2.126 -2.127,-2.126 -1.174,0 -2.126,0.952 -2.126,2.126 0,1.175 0.952,2.127 2.126,2.127 z"
       fill="#4a95ef"
       id="path20" />
    <path
       d="m 137.208,427.644 c 1.174,0 2.126,-0.952 2.126,-2.126 0,-1.175 -0.952,-2.127 -2.126,-2.127 -1.175,0 -2.127,0.952 -2.127,2.127 0,1.174 0.952,2.126 2.127,2.126 z"
       fill="#4a95ef"
       id="path22" />
    <path
       d="m 142.539,433.035 c 1.174,0 2.126,-0.952 2.126,-2.126 0,-1.175 -0.952,-2.127 -2.126,-2.127 -1.175,0 -2.127,0.952 -2.127,2.127 0,1.174 0.952,2.126 2.127,2.126 z"
       fill="#4a95ef"
       id="path24" />
    <path
       d="m 168.296,459.032 c 1.175,0 2.127,-0.952 2.127,-2.126 0,-1.175 -0.952,-2.127 -2.127,-2.127 -1.174,0 -2.126,0.952 -2.126,2.127 0,1.174 0.952,2.126 2.126,2.126 z"
       fill="#4a95ef"
       id="path26" />
    <path
       d="m 173.643,464.423 c 1.174,0 2.126,-0.952 2.126,-2.126 0,-1.175 -0.952,-2.127 -2.126,-2.127 -1.175,0 -2.127,0.952 -2.127,2.127 0,1.174 0.952,2.126 2.127,2.126 z"
       fill="#4a95ef"
       id="path28" />
    <path
       d="m 178.974,469.799 c 1.174,0 2.126,-0.952 2.126,-2.126 0,-1.174 -0.952,-2.126 -2.126,-2.126 -1.175,0 -2.127,0.952 -2.127,2.126 0,1.174 0.952,2.126 2.127,2.126 z"
       fill="#4a95ef"
       id="path30" />
    <path
       d="m 131.652,469.59 c 1.174,0 2.126,-0.952 2.126,-2.126 0,-1.175 -0.952,-2.127 -2.126,-2.127 -1.175,0 -2.127,0.952 -2.127,2.127 0,1.174 0.952,2.126 2.127,2.126 z"
       fill="#4a95ef"
       id="path32" />
    <path
       d="m 137.028,464.244 c 1.174,0 2.126,-0.952 2.126,-2.127 0,-1.174 -0.952,-2.126 -2.126,-2.126 -1.175,0 -2.127,0.952 -2.127,2.126 0,1.175 0.952,2.127 2.127,2.127 z"
       fill="#4a95ef"
       id="path34" />
    <path
       d="m 142.419,458.913 c 1.174,0 2.126,-0.952 2.126,-2.127 0,-1.174 -0.952,-2.126 -2.126,-2.126 -1.174,0 -2.127,0.952 -2.127,2.126 0,1.175 0.953,2.127 2.127,2.127 z"
       fill="#4a95ef"
       id="path36" />
    <path
       d="m 168.416,433.155 c 1.174,0 2.127,-0.952 2.127,-2.127 0,-1.174 -0.953,-2.126 -2.127,-2.126 -1.174,0 -2.126,0.952 -2.126,2.126 0,1.175 0.952,2.127 2.126,2.127 z"
       fill="#4a95ef"
       id="path38" />
    <path
       d="m 173.807,427.809 c 1.175,0 2.127,-0.952 2.127,-2.127 0,-1.174 -0.952,-2.126 -2.127,-2.126 -1.174,0 -2.126,0.952 -2.126,2.126 0,1.175 0.952,2.127 2.126,2.127 z"
       fill="#4a95ef"
       id="path40" />
    <path
       d="m 179.199,422.478 c 1.174,0 2.126,-0.952 2.126,-2.127 0,-1.174 -0.952,-2.126 -2.126,-2.126 -1.175,0 -2.127,0.952 -2.127,2.126 0,1.175 0.952,2.127 2.127,2.127 z"
       fill="#4a95ef"
       id="path42" />
    <path
       d="m 609.43,166.231 c 3.954,-0.315 6.889,-0.899 11.277,-1.647 2.246,-0.39 2.216,-3.669 -0.06,-3.969 -4.283,-0.584 -7.039,-0.868 -11.127,-0.928 -1.033,-0.015 -1.902,-0.794 -1.977,-1.827 -0.329,-3.894 -0.913,-8.222 -1.647,-12.52 -0.389,-2.246 -3.654,-2.201 -3.968,0.06 -0.584,4.268 -0.854,8.506 -0.914,12.594 -0.015,1.049 -0.824,1.917 -1.857,1.992 -3.923,0.27 -7.532,0.674 -10.647,1.123 -2.307,0.33 -2.277,3.684 0.03,3.984 3.654,0.479 7.577,0.928 10.902,1.198 0.988,0.075 1.782,0.868 1.842,1.857 0.269,4.013 0.688,7.712 1.138,10.887 0.329,2.306 3.684,2.276 3.983,-0.03 0.479,-3.654 0.929,-7.593 1.198,-10.902 0.075,-1.019 0.854,-1.797 1.827,-1.872 z"
       fill="#4adafa"
       id="path44" />
    <path
       opacity="0.7"
       d="M 52.6638,-128.132 C -244.496,-31.2008 -129.655,304.19 -205,538 -115.128,476.94 -0.00952148,443.309 199.915,370.002 556.18,239.363 1036.47,144.034 1212.91,130.648 c 284.34,-21.558 17.79,58.22 -106.63,97.028 -124.42,38.807 -208.004,90.035 5.57,41.261 C 1377.09,208.359 1769.33,133.874 1923,130.648 1893.86,-115.699 655.74,-324.816 52.6638,-128.132 Z"
       fill="url(#paint1_radial)"
       id="path46" />
    <path
       opacity="0.6"
       d="M 1999.48,394.275 C 1997.33,324.02 1990.61,262.091 1981.32,206 1796.68,541.926 1350.53,659.383 1089.07,710.823 845.425,758.766 355.531,838.918 71,1062.57 c 12.9008,6.37 25.9696,12.54 39.249,18.49 0.546,0.24 1.092,0.48 1.638,0.74 5.842,2.61 11.725,5.19 17.608,7.74 1.218,0.53 2.437,1.03 3.656,1.57 5.336,2.28 10.715,4.53 16.094,6.75 1.387,0.57 2.732,1.13 4.118,1.69 5.463,2.22 10.926,4.42 16.431,6.55 1.176,0.47 2.353,0.92 3.53,1.39 6.219,2.43 12.48,4.8 18.784,7.14 0.42,0.15 0.798,0.3 1.218,0.45 13.91,5.15 27.987,10.13 42.19,14.93 0.379,0.12 0.715,0.24 1.093,0.36 6.471,2.16 12.943,4.29 19.456,6.4 1.345,0.41 2.648,0.86 3.992,1.27 5.631,1.81 11.262,3.56 16.935,5.31 1.597,0.5 3.194,0.97 4.833,1.48 5.547,1.69 11.094,3.35 16.682,4.98 1.555,0.44 3.068,0.91 4.623,1.36 6.009,1.75 12.06,3.44 18.111,5.12 1.051,0.3 2.059,0.6 3.11,0.86 14.54,4 29.205,7.86 43.997,11.53 0.378,0.09 0.799,0.18 1.177,0.3 6.723,1.66 13.489,3.29 20.254,4.89 1.597,0.38 3.236,0.74 4.875,1.12 5.589,1.31 11.22,2.61 16.851,3.85 1.975,0.45 3.95,0.89 5.925,1.31 5.379,1.18 10.758,2.34 16.136,3.49 2.017,0.45 4.077,0.86 6.094,1.28 5.589,1.15 11.178,2.31 16.766,3.44 1.723,0.35 3.488,0.71 5.211,1.03 6.808,1.34 13.657,2.67 20.507,3.94 0.462,0.09 0.966,0.18 1.429,0.27 7.606,1.42 15.254,2.79 22.902,4.15 0.546,0.09 1.134,0.18 1.681,0.3 6.765,1.18 13.531,2.34 20.296,3.43 2.017,0.33 4.034,0.65 6.093,0.98 5.337,0.86 10.716,1.72 16.053,2.55 2.437,0.38 4.832,0.74 7.27,1.09 5.042,0.78 10.085,1.52 15.128,2.26 2.521,0.35 5.042,0.74 7.564,1.09 5.084,0.71 10.169,1.43 15.254,2.11 2.395,0.32 4.79,0.65 7.185,0.97 5.673,0.75 11.388,1.49 17.103,2.2 1.723,0.2 3.488,0.44 5.211,0.65 7.522,0.92 15.044,1.81 22.566,2.67 0.714,0.08 1.429,0.14 2.143,0.23 6.682,0.74 13.363,1.48 20.045,2.17 2.395,0.23 4.832,0.47 7.227,0.74 5.043,0.5 10.044,1 15.086,1.48 2.774,0.27 5.547,0.53 8.321,0.77 4.706,0.44 9.413,0.86 14.119,1.27 2.9,0.24 5.757,0.51 8.657,0.74 4.664,0.39 9.371,0.77 14.035,1.13 2.815,0.21 5.589,0.44 8.404,0.65 5.043,0.39 10.128,0.74 15.17,1.1 2.396,0.18 4.749,0.32 7.144,0.5 7.396,0.51 14.792,0.95 22.146,1.39 h 0.042 c 53.032,3.09 104.257,4.69 153.633,4.77 518.549,1.07 835.989,-160.45 974.369,-433.052 3.27,-6.489 6.47,-13.037 9.58,-19.645 9.28,-19.853 17.65,-40.269 25.08,-61.218 2.48,-6.993 4.88,-14.015 7.15,-21.127 4.58,-14.193 8.74,-28.653 12.52,-43.32 7.56,-29.364 13.53,-59.647 17.9,-90.789 7.78,-54.581 10.63,-111.828 8.83,-171.564 z"
       fill="url(#paint2_radial)"
       id="path48" />
    <path
       d="m 677.628,119.265 c 5.872,0 10.633,-4.76 10.633,-10.633 C 688.261,102.76 683.5,98 677.628,98 c -5.872,0 -10.632,4.76 -10.632,10.632 0,5.873 4.76,10.633 10.632,10.633 z"
       fill="#afd3fe"
       id="path50" />
    <path
       d="m 50.9411,170.664 c 4.8962,0 8.8654,-3.97 8.8654,-8.866 0,-4.896 -3.9692,-8.865 -8.8654,-8.865 -4.8962,0 -8.8654,3.969 -8.8654,8.865 0,4.896 3.9692,8.866 8.8654,8.866 z"
       fill="#afd3fe"
       id="path52" />
    <path
       d="m 411.865,58.7308 c 4.897,0 8.866,-3.9692 8.866,-8.8654 0,-4.8962 -3.969,-8.8654 -8.866,-8.8654 -4.896,0 -8.865,3.9692 -8.865,8.8654 0,4.8962 3.969,8.8654 8.865,8.8654 z"
       fill="#afd3fe"
       id="path54" />
    <path
       d="m 790.865,271.731 c 4.897,0 8.866,-3.969 8.866,-8.866 0,-4.896 -3.969,-8.865 -8.866,-8.865 -4.896,0 -8.865,3.969 -8.865,8.865 0,4.897 3.969,8.866 8.865,8.866 z"
       fill="#4a95ef"
       id="path56" />
    <path
       d="m 133.275,370.749 c 3.92,0 7.098,-3.178 7.098,-7.099 0,-3.92 -3.178,-7.098 -7.098,-7.098 -3.92,0 -7.098,3.178 -7.098,7.098 0,3.921 3.178,7.099 7.098,7.099 z"
       fill="#afd3fe"
       id="path58" />
    <path
       d="m 384.022,353.704 c 4.896,0 8.866,-3.97 8.866,-8.866 0,-4.896 -3.97,-8.865 -8.866,-8.865 -4.896,0 -8.865,3.969 -8.865,8.865 0,4.896 3.969,8.866 8.865,8.866 z"
       fill="#4a95ef"
       id="path60" />
    <path
       d="m 215.252,153.18 c 33.463,0 60.59,-27.127 60.59,-60.5899 C 275.842,59.1271 248.715,32 215.252,32 c -33.463,0 -60.59,27.1271 -60.59,60.5901 0,33.4629 27.127,60.5899 60.59,60.5899 z"
       fill="url(#paint3_radial)"
       id="path62" />
    <path
       d="m 215.252,153.18 c 33.463,0 60.59,-27.127 60.59,-60.5899 C 275.842,59.1271 248.715,32 215.252,32 c -33.463,0 -60.59,27.1271 -60.59,60.5901 0,33.4629 27.127,60.5899 60.59,60.5899 z"
       fill="url(#paint4_radial)"
       id="path64" />
    <path
       d="m 154.527,95.7347 0.479,3.4443 c -30.145,14.361 -43.443,25.248 -41.272,32.751 2.606,9.045 48.64,-1.632 109.814,-22.508 61.159,-20.8755 104.902,-41.3767 101.862,-49.2387 -2.845,-7.3679 14.691,-14.7208 17.432,-5.481 4.402,14.8106 -47.158,43.3685 -114.696,66.4307 -67.539,23.062 -125.658,30.31 -129.8963,17.087 -2.9201,-9.03 20.0073,-25.578 56.2773,-42.4853 z"
       fill="url(#paint5_linear)"
       id="path66" />
    <path
       d="m 1386.1,824.095 c 30.01,0 54.33,-24.325 54.33,-54.331 0,-30.006 -24.32,-54.33 -54.33,-54.33 -30,0 -54.33,24.324 -54.33,54.33 0,30.006 24.33,54.331 54.33,54.331 z"
       fill="url(#paint6_radial)"
       id="path68" />
    <path
       d="m 1386.1,824.095 c 30.01,0 54.33,-24.325 54.33,-54.331 0,-30.006 -24.32,-54.33 -54.33,-54.33 -30,0 -54.33,24.324 -54.33,54.33 0,30.006 24.33,54.331 54.33,54.331 z"
       fill="url(#paint7_radial)"
       id="path70" />
    <path
       d="m 1447.9,805.001 c -0.16,0.285 -0.31,0.569 -0.48,0.839"
       stroke="#afd3fe"
       stroke-width="4.7698"
       stroke-linecap="round"
       stroke-linejoin="round"
       id="path72" />
    <path
       d="m 1381.74,847.427 h -1.02 c -1.97,-0.03 -3.54,-1.648 -3.51,-3.625 0.03,-1.976 1.57,-3.534 3.62,-3.519 h 0.91 0.8 c 0.01,0 0.03,0 0.03,0 1.96,0 3.55,1.573 3.56,3.534 0.02,1.977 -1.57,3.58 -3.53,3.61 z m 18.57,-2.307 c -1.6,0 -3.05,-1.078 -3.46,-2.695 -0.48,-1.917 0.68,-3.849 2.59,-4.343 0.56,-0.135 1.11,-0.285 1.65,-0.434 1.9,-0.524 3.86,0.584 4.4,2.485 0.53,1.902 -0.58,3.864 -2.48,4.403 -0.6,0.165 -1.22,0.33 -1.81,0.479 -0.3,0.06 -0.6,0.105 -0.89,0.105 z m -37.27,-0.045 c -0.3,0 -0.59,-0.03 -0.88,-0.119 -0.62,-0.15 -1.22,-0.315 -1.82,-0.495 -1.9,-0.539 -2.99,-2.515 -2.45,-4.417 0.54,-1.902 2.51,-2.995 4.4,-2.456 0.55,0.15 1.09,0.299 1.65,0.449 1.91,0.494 3.05,2.441 2.57,4.343 -0.43,1.617 -1.88,2.695 -3.47,2.695 z m 55.57,-7.203 c -1.26,0 -2.47,-0.659 -3.13,-1.842 -0.96,-1.722 -0.33,-3.893 1.4,-4.852 0.49,-0.269 0.98,-0.554 1.48,-0.853 1.7,-1.004 3.89,-0.435 4.89,1.273 1.01,1.707 0.44,3.893 -1.27,4.882 -0.54,0.314 -1.09,0.629 -1.63,0.928 -0.55,0.315 -1.15,0.464 -1.74,0.464 z m -73.84,-0.135 c -0.6,0 -1.2,-0.149 -1.75,-0.464 -0.54,-0.299 -1.1,-0.614 -1.62,-0.943 -1.69,-1.004 -2.26,-3.19 -1.26,-4.897 1,-1.692 3.19,-2.261 4.9,-1.258 0.49,0.284 0.99,0.569 1.48,0.854 1.72,0.973 2.34,3.144 1.36,4.867 -0.64,1.183 -1.85,1.841 -3.11,1.841 z m 89.66,-11.575 c -0.95,0 -1.88,-0.36 -2.58,-1.094 -1.36,-1.422 -1.33,-3.684 0.09,-5.046 0.4,-0.39 0.81,-0.794 1.21,-1.198 1.38,-1.408 3.64,-1.423 5.05,-0.045 1.41,1.378 1.42,3.639 0.04,5.046 -0.44,0.45 -0.89,0.899 -1.34,1.333 -0.69,0.659 -1.59,1.004 -2.47,1.004 z M 1329,825.967 c -0.9,0 -1.8,-0.33 -2.49,-1.003 -0.45,-0.435 -0.89,-0.884 -1.33,-1.333 -1.38,-1.408 -1.36,-3.669 0.05,-5.047 1.4,-1.378 3.67,-1.363 5.04,0.045 0.41,0.404 0.8,0.809 1.22,1.213 1.4,1.378 1.45,3.639 0.07,5.047 -0.7,0.718 -1.63,1.078 -2.56,1.078 z m -12.17,-15.455 c -1.22,0 -2.4,-0.629 -3.07,-1.737 -0.33,-0.539 -0.65,-1.078 -0.95,-1.632 -0.97,-1.722 -0.36,-3.894 1.36,-4.867 1.73,-0.973 3.9,-0.36 4.87,1.363 0.29,0.494 0.57,0.988 0.86,1.467 1,1.693 0.46,3.894 -1.25,4.897 -0.58,0.345 -1.21,0.509 -1.82,0.509 z m -7.79,-18.075 c -1.56,0 -2.98,-1.018 -3.43,-2.591 -0.18,-0.599 -0.33,-1.213 -0.5,-1.827 -0.49,-1.916 0.66,-3.863 2.58,-4.342 1.92,-0.495 3.85,0.658 4.34,2.575 0.14,0.554 0.29,1.094 0.45,1.633 0.54,1.902 -0.55,3.878 -2.45,4.417 -0.35,0.09 -0.68,0.135 -0.99,0.135 z"
       fill="#afd3fe"
       id="path74" />
    <path
       d="m 1315.72,731.383 c 0.16,-0.285 0.31,-0.569 0.48,-0.839"
       stroke="#afd3fe"
       stroke-width="4.7698"
       stroke-linecap="round"
       stroke-linejoin="round"
       id="path76" />
    <path
       d="m 1450.26,739.514 c -1.34,0 -2.63,-0.763 -3.24,-2.051 -0.25,-0.539 -0.51,-1.064 -0.78,-1.588 -0.88,-1.767 -0.16,-3.908 1.59,-4.792 1.75,-0.883 3.91,-0.164 4.79,1.588 0.29,0.584 0.57,1.168 0.85,1.752 0.84,1.782 0.08,3.908 -1.7,4.747 -0.48,0.239 -1.01,0.344 -1.51,0.344 z m -11.07,-17.087 c -1,0 -2.01,-0.419 -2.71,-1.242 -0.39,-0.45 -0.78,-0.884 -1.17,-1.333 -1.32,-1.468 -1.2,-3.729 0.25,-5.047 1.47,-1.318 3.73,-1.198 5.05,0.255 0.44,0.479 0.87,0.973 1.29,1.452 1.29,1.498 1.11,3.744 -0.39,5.032 -0.66,0.599 -1.5,0.883 -2.32,0.883 z m -110.79,-4.282 c -0.91,0 -1.83,-0.345 -2.53,-1.049 -1.39,-1.392 -1.39,-3.654 0,-5.046 0.46,-0.465 0.93,-0.914 1.39,-1.363 1.43,-1.363 3.69,-1.303 5.05,0.135 1.36,1.422 1.3,3.684 -0.14,5.046 -0.43,0.405 -0.85,0.824 -1.27,1.228 -0.67,0.704 -1.59,1.049 -2.5,1.049 z m 95.54,-9.225 c -0.69,0 -1.37,-0.195 -1.97,-0.599 -0.5,-0.33 -0.99,-0.644 -1.49,-0.974 -1.66,-1.063 -2.15,-3.264 -1.1,-4.927 1.06,-1.662 3.26,-2.156 4.92,-1.108 0.56,0.345 1.1,0.704 1.64,1.064 1.64,1.093 2.08,3.309 0.98,4.956 -0.69,1.034 -1.82,1.588 -2.98,1.588 z m -79.29,-3.07 c -1.24,0 -2.46,-0.659 -3.12,-1.827 -0.97,-1.722 -0.36,-3.894 1.37,-4.867 0.57,-0.315 1.14,-0.629 1.7,-0.929 1.76,-0.928 3.91,-0.269 4.84,1.483 0.93,1.737 0.27,3.908 -1.48,4.837 -0.53,0.284 -1.05,0.569 -1.56,0.854 -0.57,0.299 -1.17,0.449 -1.75,0.449 z m 61.02,-5.9 c -0.37,0 -0.75,-0.06 -1.13,-0.18 -0.56,-0.18 -1.13,-0.36 -1.68,-0.539 -1.89,-0.569 -2.95,-2.576 -2.37,-4.463 0.59,-1.887 2.58,-2.95 4.46,-2.366 0.62,0.195 1.25,0.389 1.86,0.599 1.87,0.629 2.88,2.651 2.26,4.523 -0.52,1.482 -1.91,2.426 -3.4,2.426 z m -42.11,-1.618 c -1.6,0 -3.05,-1.078 -3.46,-2.71 -0.48,-1.917 0.69,-3.849 2.61,-4.328 0.63,-0.15 1.26,-0.3 1.89,-0.449 1.91,-0.42 3.83,0.778 4.26,2.71 0.44,1.932 -0.77,3.834 -2.71,4.268 -0.58,0.135 -1.15,0.27 -1.72,0.404 -0.3,0.075 -0.58,0.105 -0.87,0.105 z m 22.11,-2.141 c -0.06,0 -0.12,0 -0.18,0 -0.59,-0.03 -1.19,-0.045 -1.77,-0.06 -1.98,-0.045 -3.53,-1.692 -3.47,-3.654 0.04,-1.977 1.63,-3.549 3.65,-3.474 0.64,0.015 1.29,0.044 1.93,0.074 1.98,0.105 3.49,1.768 3.39,3.744 -0.09,1.872 -1.67,3.37 -3.55,3.37 z"
       fill="#afd3fe"
       id="path78" />
    <path
       d="m 1315.72,740.173 c 4.85,0 8.79,-3.936 8.79,-8.79 0,-4.855 -3.94,-8.791 -8.79,-8.791 -4.86,0 -8.79,3.936 -8.79,8.791 0,4.854 3.93,8.79 8.79,8.79 z"
       fill="#afd3fe"
       id="path80" />
    <path
       d="m 1447.9,813.792 c 4.86,0 8.79,-3.936 8.79,-8.791 0,-4.854 -3.93,-8.79 -8.79,-8.79 -4.85,0 -8.79,3.936 -8.79,8.79 0,4.855 3.94,8.791 8.79,8.791 z"
       fill="#afd3fe"
       id="path82" />
    <path
       d="m 1149.26,443.051 c 4.78,-5.121 9.5,-10.586 14.11,-16.359 6.43,-8.038 12.65,-16.663 18.53,-25.826 42.92,-66.716 52.23,-135.799 20.83,-154.322 -31.43,-18.521 -91.68,20.547 -134.58,87.261 -5.02,7.782 -9.56,15.606 -13.64,23.381 -3.26,6.217 -6.24,12.395 -8.9,18.513 -1.23,2.847 -0.14,6.186 2.54,7.769 z"
       fill="#a4ecfc"
       id="path84" />
    <path
       d="m 1153.39,415.124 c 8.99,-9.637 17.7,-20.791 25.65,-33.145 33.72,-52.405 41.04,-106.696 16.36,-121.245 -24.67,-14.548 -72.02,16.138 -105.74,68.544 -7.09,11.02 -13,22.109 -17.7,32.907 -0.98,2.243 -0.11,4.859 2,6.105 z"
       fill="#4adafa"
       id="path86" />
    <path
       d="m 1091.62,451.081 c 0,0 -30.73,38.553 -38.56,65.129 -7.84,26.578 -20.67,47.895 -31.54,60.392 -10.86,12.496 -23.3,33.651 -29.791,51.432 -6.491,17.781 -19.41,46.229 -29.426,55.641 -10.019,9.396 -22.206,30.685 -24.179,41.107 -1.973,10.421 -13.312,28.61 -18.144,33.814 -4.831,5.204 -22.428,33.746 -26.4,46.612 -3.974,12.85 6.186,-1.639 12.057,-5.434 5.872,-3.795 16.944,-11.799 21.184,-27.285 4.256,-15.488 11.447,-32.874 22.145,-43.471 10.698,-10.597 25,-27.489 32.354,-48.372 7.353,-20.883 24.02,-48.374 36.61,-63.861 12.57,-15.5 28.06,-37.677 35.24,-59.873 7.16,-22.178 17.32,-36.668 30.41,-53.071 13.09,-16.387 22.47,-45.668 22.47,-45.668 z"
       fill="url(#paint8_linear)"
       id="path88" />
    <path
       d="m 1048.55,427.743 c 0,0 -30.73,38.553 -38.56,65.129 -7.84,26.578 -20.669,47.895 -31.534,60.391 -10.866,12.497 -23.288,33.65 -29.794,51.433 -6.491,17.78 -19.41,46.229 -29.426,55.64 -10.018,9.396 -22.206,30.686 -24.179,41.107 -1.972,10.422 -13.312,28.611 -18.143,33.815 -4.832,5.204 -22.429,33.746 -26.401,46.612 -3.972,12.865 6.186,-1.64 12.058,-5.434 5.872,-3.795 16.943,-11.799 21.184,-27.285 4.255,-15.488 11.446,-32.874 22.144,-43.471 10.698,-10.597 25,-27.49 32.354,-48.373 7.353,-20.883 24.019,-48.373 36.609,-63.86 12.572,-15.5 28.068,-37.677 35.238,-59.873 7.16,-22.179 17.32,-36.668 30.41,-53.071 13.1,-16.387 22.47,-45.668 22.47,-45.668 z"
       fill="url(#paint9_linear)"
       id="path90" />
    <path
       d="m 1143.86,521.478 c 14.57,-8.949 42.15,-28.907 54.13,-55.596 l -21.13,-5.459 c -10.86,24.197 -35.98,41.278 -47.57,48.17 -0.97,0.58 5.56,7.72 14.57,12.885 z"
       fill="url(#paint10_linear)"
       id="path92" />
    <path
       d="m 1143.86,521.478 c 14.57,-8.949 42.15,-28.907 54.13,-55.596 l -21.13,-5.459 c -10.86,24.197 -35.98,41.278 -47.57,48.17 -0.97,0.58 5.56,7.72 14.57,12.885 z"
       fill="url(#paint11_linear)"
       id="path94" />
    <path
       d="m 1129.45,508.51 11.43,10.167 c -3.08,3.87 -25.28,18.917 -18.65,68.759 l -15.93,10.013 -49.83,-44.345 c -1.75,-1.557 -1.49,-3.747 0.7,-4.941 z"
       fill="#522cd5"
       id="path96" />
    <path
       d="m 1126.47,586.218 c 0.48,2.902 -1.02,4.371 -3.99,6.012 l -10.56,5.919 c -1.63,0.901 -4.05,0.666 -5.36,-0.49 l -0.25,-0.227 c -1.49,-1.316 -1.2,-3.217 0.66,-4.228 l 8.37,-5 c 3.43,-1.889 5.23,-3.415 4.65,-7.301 -3.43,-22.944 -5.19,-52.67 16.07,-66.51 l 7.92,7.038 c -10.28,7.618 -23.76,26.565 -17.51,64.787 z"
       fill="url(#paint12_linear)"
       id="path98" />
    <path
       d="m 1119.87,583.81 c -0.56,1.891 -2.13,3.063 -4.53,4.379 l -8.37,5 c -1.86,1.011 -2.15,2.911 -0.66,4.228 l 0.25,0.227 c 1.31,1.171 3.73,1.391 5.35,0.49 l 10.56,-5.919 c 1.71,-0.928 2.91,-1.816 3.55,-2.951 z"
       fill="url(#paint13_radial)"
       id="path100" />
    <path
       d="m 1108.38,497.799 c 16.02,-5.982 46.91,-20.262 63.79,-44.154 l -19.69,-9.425 c -15.32,21.661 -43.25,33.595 -55.96,38.12 -1.04,0.389 3.98,8.645 11.86,15.459 z"
       fill="url(#paint14_linear)"
       id="path102" />
    <path
       d="m 1108.38,497.799 c 16.02,-5.982 46.91,-20.262 63.79,-44.154 l -19.69,-9.425 c -15.32,21.661 -43.25,33.595 -55.96,38.12 -1.04,0.389 3.98,8.645 11.86,15.459 z"
       fill="url(#paint15_linear)"
       id="path104" />
    <path
       d="m 1096.71,482.282 9.27,12.174 c -3.77,3.212 -28.6,2.031 -36.94,51.928 l -14.36,15.823 -39.23,-51.591 c -0.36,-0.458 0.33,-2.553 2.69,-3.31 z"
       fill="#522cd5"
       id="path106" />
    <path
       d="m 1078.94,557.623 c -0.08,2.949 -2,4.644 -5.22,5.674 l -11.44,3.58 c -1.77,0.567 -4.09,-0.111 -5.16,-1.516 l -7.57,-9.947 c -1.21,-1.587 -0.55,-3.385 1.45,-4.03 l 10,-3.628 c 3.73,-1.191 5.8,-2.339 5.96,-6.267 1.06,-23.18 10.07,-44.661 33.6,-54.157 l 7.91,10.392 c -11.55,5.549 -28.33,21.2 -29.53,59.899 z"
       fill="url(#paint16_linear)"
       id="path108" />
    <path
       d="m 1057.12,565.376 c 1.07,1.39 3.38,2.086 5.16,1.516 l 11.44,-3.58 c 1.8,-0.571 3.18,-1.362 4.06,-2.452 l -11.99,-15.734 c -0.99,1.245 -2.59,1.957 -4.78,2.645 l -10,3.628 c -2.02,0.647 -2.66,2.443 -1.46,4.03 z"
       fill="url(#paint17_radial)"
       id="path110" />
    <path
       d="m 1350.23,464.333 -7.07,-17.366 c -18.18,7.418 -34.88,9.312 -49.61,5.658 -12.96,-3.22 -24.76,-10.83 -35.06,-22.615 l -14.12,12.346 c 19.16,21.908 53.07,43.499 105.86,21.977 z"
       fill="#8a6fe8"
       id="path112" />
    <path
       d="m 1106.46,463.545 -17.7,-10.224 c -1.41,-0.82 -1.69,-2.627 -0.58,-3.703 l 12.39,-11.953 c 0.8,-0.772 2.09,-0.904 3.11,-0.322 l 10.56,6.105 c 1.02,0.582 1.5,1.745 1.16,2.793 l -5.27,16.073 c -0.46,1.433 -2.25,2.05 -3.67,1.231 z"
       fill="#0b7891"
       id="path114" />
    <path
       d="m 1115.8,447.276 -16.68,-9.626 c -1.87,-1.079 -2.5,-3.344 -1.42,-5.047 L 1126,387.62 c 1.09,-1.719 3.46,-2.231 5.33,-1.152 l 16.68,9.626 c 1.87,1.079 2.51,3.344 1.42,5.047 l -28.3,44.983 c -1.08,1.719 -3.47,2.234 -5.33,1.152 z"
       fill="#ffffff"
       id="path116" />
    <path
       d="m 1062.88,438.647 -17.7,-10.224 c -1.4,-0.82 -1.68,-2.627 -0.57,-3.703 L 1057,412.767 c 0.8,-0.772 2.09,-0.904 3.1,-0.322 l 10.57,6.105 c 1.01,0.582 1.5,1.745 1.15,2.792 l -5.27,16.074 c -0.46,1.433 -2.27,2.036 -3.67,1.231 z"
       fill="#0b7891"
       id="path118" />
    <path
       d="m 1072.21,422.38 -16.68,-9.626 c -1.87,-1.079 -2.5,-3.344 -1.42,-5.047 l 28.3,-44.983 c 1.09,-1.719 3.46,-2.231 5.33,-1.152 l 16.68,9.626 c 1.87,1.079 2.51,3.344 1.42,5.047 l -28.3,44.983 c -1.07,1.702 -3.46,2.231 -5.33,1.152 z"
       fill="#ffffff"
       id="path120" />
    <path
       d="m 1104.42,371.183 -5.4,-3.113 -27.82,44.21 c -1.09,1.718 -3.46,2.231 -5.33,1.152 l -11.28,-6.514 -0.49,0.776 c -1.09,1.718 -0.44,3.981 1.42,5.047 l 16.67,9.626 c 1.87,1.079 4.25,0.567 5.33,-1.152 l 28.3,-44.983 c 1.11,-1.705 0.47,-3.97 -1.4,-5.049 z"
       fill="#60defa"
       id="path122" />
    <path
       d="m 1148.01,396.094 -5.4,-3.113 -27.82,44.21 c -1.08,1.718 -3.46,2.231 -5.33,1.152 l -7.99,-4.616 -3.29,-1.898 -0.49,0.776 c -1.09,1.718 -0.44,3.981 1.42,5.047 l 16.67,9.626 c 1.88,1.079 4.25,0.567 5.34,-1.152 l 28.3,-44.983 c 1.1,-1.72 0.45,-3.983 -1.41,-5.049 z"
       fill="#60defa"
       id="path124" />
    <path
       d="m 1149.26,443.051 c 5.62,-6.022 11.16,-12.506 16.54,-19.416 5.57,-7.152 -105.62,-76.95 -109.13,-70.514 -4.13,7.583 -7.83,15.12 -11.06,22.563 -1.24,2.847 -0.14,6.186 2.54,7.769 z"
       fill="#179bb8"
       id="path126" />
    <path
       d="m 1352.82,457.348 6.96,-17.645 c 1.82,-4.711 -0.53,-10.015 -5.24,-11.839 -4.71,-1.824 -10.01,0.524 -11.84,5.235 l -7.12,18.084 z"
       fill="#8a6fe8"
       id="path128" />
    <path
       d="m 1349.82,480.719 c 10.49,-1.449 17.81,-11.122 16.36,-21.605 -1.45,-10.482 -11.12,-17.806 -21.6,-16.356 -10.49,1.449 -17.81,11.122 -16.36,21.604 1.45,10.483 11.12,17.806 21.6,16.357 z"
       fill="url(#paint18_radial)"
       id="path130" />
    <path
       d="m 1311.08,506.972 -72.81,-45.351 5.5,-8.833 72.8,45.352 c 1.82,1.132 4.2,0.572 5.32,-1.243 l 15.91,-25.54 8.83,5.498 -15.91,25.541 c -4.14,6.693 -12.96,8.743 -19.64,4.576 z"
       fill="#d2f6fe"
       id="path132" />
    <path
       d="m 1336.39,484.682 -1.43,-0.894 c -4.64,-2.894 -6.07,-9.001 -3.17,-13.645 l 19.08,-30.655 c 2.9,-4.644 9.01,-6.072 13.65,-3.178 l 1.43,0.894 c 4.64,2.895 6.07,9.002 3.18,13.646 l -19.09,30.654 c -2.89,4.644 -9,6.073 -13.65,3.178 z"
       fill="#77e3fb"
       id="path134" />
    <path
       d="m 1344.53,483.142 -7.93,-5.13 c -3.89,-2.508 -5.01,-7.704 -2.5,-11.587 l 0.77,-1.199 c 2.51,-3.883 7.71,-5.001 11.59,-2.494 l 7.94,5.131 c 3.88,2.507 5,7.704 2.49,11.587 l -0.77,1.199 c -2.51,3.898 -7.7,5.016 -11.59,2.493 z"
       fill="#8a6fe8"
       id="path136" />
    <path
       d="m 1355.97,476.687 -7.94,-5.131 c -3.88,-2.507 -5,-7.704 -2.49,-11.587 l 0.77,-1.199 c 2.51,-3.883 7.71,-5.001 11.59,-2.493 l 7.94,5.13 c 3.88,2.508 5,7.704 2.49,11.587 l -0.77,1.199 c -2.51,3.898 -7.71,5.001 -11.59,2.494 z"
       fill="#8a6fe8"
       id="path138" />
    <path
       d="m 1367.08,470.184 -7.94,-5.13 c -3.88,-2.508 -5,-7.704 -2.49,-11.587 l 0.77,-1.199 c 2.51,-3.883 7.71,-5.001 11.59,-2.494 l 7.94,5.131 c 3.88,2.507 5,7.704 2.49,11.587 l -0.77,1.198 c -2.51,3.899 -7.7,5.017 -11.59,2.494 z"
       fill="#8a6fe8"
       id="path140" />
    <path
       d="m 1271.53,446.705 c 19.35,-18.312 26.58,-38.056 26.58,-38.056 l 5.15,3.209 0.18,-0.025 c 17.7,-44.732 1.54,-97.1 -40.72,-123.487 -47.61,-29.737 -110.31,-15.256 -140.05,32.354 -29.73,47.611 -15.25,110.314 32.36,140.051 37.56,23.468 84.53,19.39 117.28,-6.757 1.24,-1.218 2.81,-3.787 -0.78,-7.289 z"
       fill="url(#paint19_radial)"
       id="path142" />
    <path
       d="m 1271.75,446.829 c 19.12,-18.081 26.4,-37.571 26.57,-38.04 l -89.44,-55.861 c 0,0 -5.27,-4.1 -8.49,1.051 -3.23,5.151 -12.09,19.815 -22.13,35.904 -2.06,3.314 -0.35,6.598 1.77,7.92 0.02,0.013 87.06,51.254 91.72,49.026 z"
       fill="url(#paint20_radial)"
       id="path144" />
    <path
       d="m 1219.59,414.245 c 0,0 20.55,-2.302 24.5,-2.633 3.94,-0.329 6.35,1.013 7.49,4.684 1.14,3.657 8.18,23.041 8.18,23.041 z"
       fill="#a08be8"
       id="path146" />
    <path
       d="m 1271.57,454.895 c 0,0 5.26,-3.095 0.18,-8.066 0.01,-0.017 -87.88,-54.984 -87.88,-54.984 -2.06,-1.285 -3.91,-4.149 -2.92,-6.271 -0.88,1.429 -1.78,2.861 -2.69,4.324 -1.88,2.997 -0.63,5.977 1.21,7.506 0.19,0.143 0.38,0.301 0.58,0.427 l 6.01,3.752 z"
       fill="#512bd4"
       id="path148" />
    <path
       d="m 1256.02,464.671 -148.64,-92.852 c -0.2,7.747 0.48,15.479 2.02,23.032 l 125.04,78.109 c 7.45,-1.938 14.7,-4.707 21.58,-8.289 z"
       fill="#d0c5f3"
       id="path150" />
    <path
       d="m 1256.38,276.246 16.89,10.011 7.9,-18.759 -12.13,-7.18 z"
       fill="#8a6fe8"
       id="path152" />
    <path
       d="m 1281.58,269.471 c 7.65,-1.057 12.99,-8.116 11.94,-15.766 -1.06,-7.649 -8.12,-12.993 -15.77,-11.936 -7.65,1.058 -12.99,8.116 -11.94,15.766 1.06,7.65 8.12,12.994 15.77,11.936 z"
       fill="#d8cff7"
       id="path154" />
    <path
       d="m 1243.63,283.021 c -0.76,-0.449 -0.99,-1.478 -0.44,-2.184 5.65,-7.486 16.14,-9.704 24.4,-4.803 8.25,4.901 11.36,15.158 7.5,23.703 -0.36,0.804 -1.37,1.112 -2.12,0.647 z"
       fill="url(#paint21_radial)"
       id="path156" />
    <path
       d="m 1224.38,389.788 c 3.82,-6.322 3.87,-13.288 0.11,-15.559 -3.76,-2.27 -9.9,1.015 -13.72,7.337 -3.82,6.322 -3.87,13.287 -0.11,15.558 3.76,2.27 9.9,-1.014 13.72,-7.336 z"
       fill="#512bd4"
       id="path158" />
    <path
       d="m 1278.59,423.836 c 4.01,-6.206 4.26,-13.167 0.57,-15.549 -3.69,-2.381 -9.93,0.719 -13.93,6.924 -4.01,6.206 -4.26,13.167 -0.57,15.548 3.69,2.382 9.92,-0.718 13.93,-6.923 z"
       fill="#512bd4"
       id="path160" />
    <path
       d="m 1221.05,379.985 c 2.24,-0.525 4.47,0.043 6.17,1.331 -0.18,2.638 -1.13,5.63 -2.86,8.498 -1.07,1.793 -2.35,3.323 -3.69,4.569 -2.51,-0.729 -4.56,-2.752 -5.18,-5.465 -0.93,-4.023 1.57,-8.012 5.56,-8.933 z"
       fill="#8065e0"
       id="path162" />
    <path
       d="m 1275.55,413.52 c 2.24,-0.524 4.48,0.042 6.18,1.329 -0.14,2.772 -1.2,5.994 -3.16,9.033 -1,1.553 -2.15,2.911 -3.35,4.03 -2.53,-0.711 -4.61,-2.745 -5.23,-5.488 -0.94,-3.992 1.57,-7.983 5.56,-8.904 z"
       fill="#8065e0"
       id="path164" />
    <path
       d="M 1230.94,480.625 1047.78,365.451 c -3.64,-2.28 -4.73,-7.08 -2.44,-10.719 l 10.31,-16.339 c 2.28,-3.622 7.08,-4.716 10.7,-2.433 l 196.9,123.729 c 5.24,3.305 4.33,8.014 -1.32,10.562 l -23.65,10.866 c -2.39,1.084 -5.14,0.895 -7.34,-0.492 z"
       fill="#27bee0"
       id="path166" />
    <path
       d="M 1263.24,459.676 1066.33,335.947 c -3.62,-2.283 -8.42,-1.204 -10.7,2.433 l -1.3,2.055 c 2.38,-1.251 5.33,-1.244 7.76,0.296 l 196.9,123.73 c 2.61,1.638 3.69,3.642 3.43,5.554 5.19,-2.594 5.89,-7.134 0.82,-10.339 z"
       fill="#a4ecfc"
       id="path168" />
    <path
       d="m 1236.49,446.229 -27.82,-17.372 -15.37,24.609 27.82,17.372 z"
       fill="#512bd4"
       id="path170" />
    <path
       d="m 1203.07,447.359 c -0.2,-0.126 -0.35,-0.306 -0.4,-0.545 -0.06,-0.237 -0.03,-0.457 0.1,-0.644 0.13,-0.202 0.31,-0.334 0.55,-0.383 0.24,-0.048 0.46,-0.017 0.67,0.122 0.22,0.139 0.36,0.32 0.4,0.56 0.07,0.237 0.04,0.456 -0.09,0.658 -0.12,0.202 -0.31,0.32 -0.55,0.368 -0.24,0.034 -0.46,-0.013 -0.68,-0.136 z"
       fill="#ffffff"
       id="path172" />
    <path
       d="m 1211.55,452.492 -1.37,-0.858 -0.05,-7.927 c 0.01,-0.2 0.02,-0.403 0.06,-0.592 l -0.03,-0.026 c -0.09,0.181 -0.28,0.546 -0.62,1.085 l -3.16,5.065 -1.21,-0.755 4.82,-7.724 1.46,0.905 0.02,7.716 c 0,0.323 0,0.538 -0.02,0.648 l 0.02,0.013 c 0.09,-0.228 0.29,-0.578 0.59,-1.066 l 3.11,-4.981 1.21,0.755 z"
       fill="#ffffff"
       id="path174" />
    <path
       d="m 1217.44,456.167 -4.23,-2.645 4.82,-7.724 4.06,2.545 -0.68,1.093 -2.81,-1.764 -1.37,2.189 2.59,1.625 -0.68,1.079 -2.59,-1.625 -1.43,2.287 2.98,1.864 z"
       fill="#ffffff"
       id="path176" />
    <path
       d="m 1227.6,453.271 -2.17,-1.346 -4.14,6.631 -1.25,-0.781 4.14,-6.631 -2.15,-1.347 0.68,-1.094 5.57,3.489 z"
       fill="#ffffff"
       id="path178" />
    <path
       d="m 1046.71,300.957 5.15,18.032 c 18.89,-5.395 35.69,-5.457 49.93,-0.214 12.52,4.619 23.43,13.459 32.39,26.306 l 15.37,-10.736 c -16.67,-23.867 -48.02,-49.024 -102.84,-33.388 z"
       fill="url(#paint22_linear)"
       id="path180" />
    <path
       d="m 1040.55,317.061 -10.16,14.383 c -2.68,3.845 -1.73,9.142 2.11,11.824 3.85,2.682 9.15,1.735 11.83,-2.111 l 10.41,-14.756 z"
       fill="#8a6fe8"
       id="path182" />
    <path
       d="m 1040.35,299.498 -17.57,1.215 c -4.69,0.356 -8.19,4.437 -7.83,9.124 0.36,4.687 4.44,8.182 9.11,7.828 l 18.02,-1.245 z"
       fill="#8a6fe8"
       id="path184" />
    <path
       d="m 1041.18,311.716 -17.53,1.655 c -4.67,0.476 -8.08,4.637 -7.6,9.307 0.48,4.671 4.64,8.078 9.31,7.601 l 17.98,-1.702 z"
       fill="#8a6fe8"
       id="path186" />
    <path
       d="m 1046.23,292.643 -17.47,-2.244 c -4.66,-0.571 -8.89,2.751 -9.46,7.412 -0.57,4.661 2.75,8.892 7.41,9.462 l 17.91,2.291 z"
       fill="#8a6fe8"
       id="path188" />
    <path
       d="m 1051.72,327.587 c 9.74,-1.345 16.54,-10.326 15.19,-20.059 -1.34,-9.733 -10.33,-16.532 -20.06,-15.186 -9.73,1.345 -16.53,10.326 -15.18,20.059 1.34,9.733 10.32,16.532 20.05,15.186 z"
       fill="url(#paint23_radial)"
       id="path190" />
    <path
       d="m 1148.75,360.641 c 10.21,-1.411 17.34,-10.83 15.93,-21.038 -1.41,-10.208 -10.83,-17.339 -21.04,-15.927 -10.21,1.411 -17.34,10.83 -15.93,21.038 1.42,10.207 10.83,17.339 21.04,15.927 z"
       fill="url(#paint24_radial)"
       id="path192" />
    <path
       d="m 96.3906,732.234 c 0,-3.802 0.9896,-6.718 2.9688,-8.75 1.9796,-2.031 4.8436,-3.046 8.5936,-3.046 3.802,0 6.693,1.067 8.672,3.203 1.979,2.083 2.969,4.948 2.969,8.593 0,3.698 -1.016,6.641 -3.047,8.828 -1.979,2.136 -4.844,3.204 -8.594,3.204 -3.75,0 -6.614,-1.068 -8.5936,-3.204 -1.9792,-2.135 -2.9688,-5.078 -2.9688,-8.828 z M 240.297,742 h -22.891 l -56.172,-91.016 h -0.625 l 0.391,5.078 c 0.729,9.688 1.094,18.542 1.094,26.563 V 742 H 145.141 V 627.781 h 22.656 l 56.015,90.547 h 0.469 c -0.104,-1.198 -0.312,-5.547 -0.625,-13.047 -0.312,-7.552 -0.468,-13.437 -0.468,-17.656 v -59.844 h 17.109 z m 94.765,0 H 270.453 V 627.781 h 64.609 v 15.781 h -45.937 v 31.094 h 43.047 v 15.625 h -43.047 v 35.86 h 45.937 z m 64.219,0 h -18.672 v -98.203 h -33.593 v -16.016 h 85.859 v 16.016 h -33.594 z m 141.328,-99.844 c -10.729,0 -19.166,3.802 -25.312,11.406 -6.146,7.605 -9.219,18.099 -9.219,31.485 0,14.01 2.943,24.609 8.828,31.797 5.938,7.187 14.505,10.781 25.703,10.781 4.844,0 9.532,-0.469 14.063,-1.406 4.531,-0.99 9.245,-2.24 14.14,-3.75 v 16.015 c -8.958,3.386 -19.114,5.078 -30.468,5.078 -16.719,0 -29.558,-5.052 -38.516,-15.156 -8.958,-10.156 -13.437,-24.661 -13.437,-43.515 0,-11.875 2.161,-22.266 6.484,-31.172 4.375,-8.907 10.677,-15.729 18.906,-20.469 8.229,-4.74 17.891,-7.109 28.985,-7.109 11.666,0 22.448,2.448 32.343,7.343 l -6.718,15.547 c -3.855,-1.823 -7.943,-3.411 -12.266,-4.765 -4.271,-1.407 -8.776,-2.11 -13.516,-2.11 z m 127.5,56.485 c 0,14.114 -3.619,25.13 -10.859,33.047 -7.24,7.916 -17.318,11.874 -30.234,11.874 -8.073,0 -15.209,-1.822 -21.407,-5.468 -6.198,-3.646 -10.963,-8.88 -14.297,-15.703 -3.333,-6.823 -5,-14.74 -5,-23.75 0,-14.011 3.594,-24.948 10.782,-32.813 7.187,-7.864 17.317,-11.797 30.39,-11.797 12.5,0 22.396,4.037 29.688,12.11 7.292,8.02 10.937,18.854 10.937,32.5 z m -62.89,0 c 0,19.948 7.37,29.921 22.109,29.921 14.583,0 21.875,-9.973 21.875,-29.921 0,-19.74 -7.344,-29.61 -22.031,-29.61 -7.708,0 -13.307,2.552 -16.797,7.657 -3.437,5.104 -5.156,12.421 -5.156,21.953 z M 765.297,742 h -18.438 v -53.125 c 0,-6.667 -1.354,-11.641 -4.062,-14.922 -2.656,-3.281 -6.901,-4.922 -12.735,-4.922 -7.76,0 -13.437,2.292 -17.031,6.875 -3.593,4.584 -5.39,12.266 -5.39,23.047 V 742 h -18.36 v -86.406 h 14.375 l 2.578,11.328 h 0.938 c 2.604,-4.115 6.302,-7.292 11.094,-9.531 4.791,-2.24 10.104,-3.36 15.937,-3.36 20.729,0 31.094,10.547 31.094,31.641 z m 68.906,-72.5 H 813.109 V 742 h -18.437 v -72.5 h -14.219 v -8.594 l 14.219,-5.625 v -5.625 c 0,-10.208 2.396,-17.76 7.187,-22.656 4.792,-4.948 12.11,-7.422 21.953,-7.422 6.459,0 12.813,1.068 19.063,3.203 l -4.844,13.907 c -4.531,-1.459 -8.854,-2.188 -12.969,-2.188 -4.166,0 -7.213,1.302 -9.14,3.906 -1.875,2.552 -2.813,6.406 -2.813,11.563 v 5.625 h 21.094 z"
       fill="#ffffff"
       id="path194" />
    <path
       d="m 185.758,817.536 c 0,8.249 -2.245,14.561 -6.734,18.936 -4.466,4.352 -10.903,6.528 -19.311,6.528 H 145.87 v -49.971 h 15.313 c 7.77,0 13.808,2.154 18.115,6.46 4.306,4.307 6.46,10.323 6.46,18.047 z m -6.153,0.205 c 0,-6.517 -1.64,-11.427 -4.921,-14.731 -3.259,-3.304 -8.112,-4.956 -14.561,-4.956 h -8.442 v 39.922 h 7.075 c 6.927,0 12.134,-1.698 15.62,-5.093 3.486,-3.418 5.229,-8.465 5.229,-15.142 z M 201.754,843 h -5.674 v -37.461 h 5.674 z m -6.152,-47.612 c 0,-1.299 0.319,-2.245 0.957,-2.837 0.638,-0.615 1.435,-0.923 2.392,-0.923 0.912,0 1.698,0.308 2.359,0.923 0.66,0.615 0.991,1.561 0.991,2.837 0,1.276 -0.331,2.233 -0.991,2.871 -0.661,0.615 -1.447,0.923 -2.359,0.923 -0.957,0 -1.754,-0.308 -2.392,-0.923 -0.638,-0.638 -0.957,-1.595 -0.957,-2.871 z m 42.348,37.392 c 0,3.487 -1.299,6.175 -3.896,8.067 -2.598,1.891 -6.244,2.837 -10.938,2.837 -4.967,0 -8.841,-0.787 -11.621,-2.359 v -5.263 c 1.8,0.911 3.726,1.629 5.776,2.153 2.074,0.524 4.068,0.786 5.982,0.786 2.962,0 5.241,-0.467 6.836,-1.401 1.595,-0.957 2.392,-2.404 2.392,-4.341 0,-1.459 -0.638,-2.7 -1.914,-3.726 -1.253,-1.048 -3.714,-2.278 -7.382,-3.691 -3.487,-1.299 -5.97,-2.427 -7.452,-3.384 -1.458,-0.98 -2.552,-2.085 -3.281,-3.315 -0.706,-1.231 -1.059,-2.701 -1.059,-4.41 0,-3.053 1.241,-5.457 3.725,-7.212 2.484,-1.777 5.89,-2.666 10.22,-2.666 4.033,0 7.975,0.821 11.826,2.461 l -2.017,4.615 c -3.759,-1.55 -7.166,-2.325 -10.219,-2.325 -2.689,0 -4.717,0.422 -6.084,1.265 -1.367,0.843 -2.051,2.005 -2.051,3.486 0,1.003 0.251,1.858 0.752,2.564 0.524,0.706 1.356,1.378 2.495,2.017 1.139,0.638 3.327,1.56 6.563,2.768 4.443,1.618 7.439,3.247 8.989,4.888 1.572,1.64 2.358,3.703 2.358,6.186 z m 24.234,10.904 c -5.424,0 -9.628,-1.664 -12.613,-4.991 -2.962,-3.349 -4.443,-8.077 -4.443,-14.184 0,-6.266 1.504,-11.109 4.512,-14.527 3.03,-3.418 7.337,-5.127 12.92,-5.127 1.8,0 3.6,0.194 5.4,0.582 1.8,0.387 3.213,0.843 4.238,1.367 l -1.743,4.819 c -1.253,-0.501 -2.62,-0.911 -4.101,-1.23 -1.482,-0.342 -2.792,-0.513 -3.931,-0.513 -7.611,0 -11.416,4.853 -11.416,14.56 0,4.603 0.923,8.135 2.768,10.596 1.869,2.461 4.626,3.692 8.272,3.692 3.122,0 6.323,-0.673 9.604,-2.017 v 5.024 c -2.506,1.299 -5.662,1.949 -9.467,1.949 z m 50.722,-19.449 c 0,6.107 -1.538,10.881 -4.614,14.322 -3.076,3.418 -7.326,5.127 -12.749,5.127 -3.35,0 -6.323,-0.787 -8.921,-2.359 -2.598,-1.572 -4.603,-3.828 -6.016,-6.767 -1.412,-2.94 -2.119,-6.381 -2.119,-10.323 0,-6.106 1.527,-10.857 4.58,-14.253 3.054,-3.418 7.292,-5.127 12.715,-5.127 5.241,0 9.4,1.744 12.476,5.23 3.099,3.486 4.648,8.203 4.648,14.15 z m -28.54,0 c 0,4.786 0.957,8.431 2.871,10.938 1.914,2.506 4.728,3.76 8.443,3.76 3.714,0 6.528,-1.242 8.442,-3.726 1.937,-2.506 2.905,-6.164 2.905,-10.972 0,-4.762 -0.968,-8.374 -2.905,-10.835 -1.914,-2.483 -4.751,-3.725 -8.511,-3.725 -3.714,0 -6.517,1.219 -8.408,3.657 -1.891,2.438 -2.837,6.073 -2.837,10.903 z M 331.09,843 316.871,805.539 h 6.084 l 8.066,22.217 c 1.823,5.195 2.894,8.568 3.213,10.117 h 0.274 c 0.25,-1.208 1.037,-3.703 2.358,-7.485 1.345,-3.806 4.341,-12.089 8.989,-24.849 h 6.084 L 337.721,843 Z m 42.69,0.684 c -5.537,0 -9.912,-1.687 -13.125,-5.059 -3.19,-3.372 -4.785,-8.055 -4.785,-14.048 0,-6.038 1.481,-10.835 4.443,-14.389 2.986,-3.555 6.985,-5.333 11.998,-5.333 4.694,0 8.408,1.55 11.142,4.649 2.735,3.076 4.102,7.143 4.102,12.202 v 3.589 h -25.806 c 0.114,4.398 1.219,7.736 3.315,10.015 2.12,2.278 5.093,3.418 8.921,3.418 4.034,0 8.021,-0.844 11.963,-2.53 v 5.059 c -2.005,0.866 -3.908,1.481 -5.708,1.846 -1.777,0.387 -3.93,0.581 -6.46,0.581 z m -1.538,-34.078 c -3.008,0 -5.412,0.98 -7.212,2.94 -1.777,1.96 -2.825,4.671 -3.144,8.135 h 19.585 c 0,-3.578 -0.798,-6.312 -2.393,-8.203 -1.595,-1.915 -3.874,-2.872 -6.836,-2.872 z m 42.11,-4.751 c 1.663,0 3.155,0.137 4.477,0.411 l -0.786,5.263 c -1.55,-0.341 -2.917,-0.512 -4.102,-0.512 -3.03,0 -5.628,1.23 -7.793,3.691 -2.141,2.461 -3.212,5.526 -3.212,9.194 V 843 h -5.674 v -37.461 h 4.682 l 0.65,6.939 h 0.273 c 1.39,-2.439 3.065,-4.318 5.025,-5.64 1.959,-1.322 4.113,-1.983 6.46,-1.983 z m 41.767,34.146 c 1.003,0 1.971,-0.068 2.905,-0.205 0.935,-0.16 1.675,-0.319 2.222,-0.479 v 4.341 c -0.615,0.296 -1.527,0.536 -2.734,0.718 -1.185,0.205 -2.256,0.308 -3.213,0.308 -7.246,0 -10.869,-3.817 -10.869,-11.451 v -22.285 h -5.367 v -2.734 l 5.367,-2.359 2.392,-7.998 h 3.282 v 8.682 h 10.869 v 4.409 h -10.869 v 22.046 c 0,2.256 0.535,3.988 1.606,5.195 1.071,1.208 2.541,1.812 4.409,1.812 z M 494.4,843 v -24.233 c 0,-3.054 -0.695,-5.332 -2.085,-6.836 -1.39,-1.504 -3.566,-2.256 -6.528,-2.256 -3.942,0 -6.824,1.071 -8.647,3.213 -1.8,2.142 -2.701,5.651 -2.701,10.527 V 843 h -5.673 v -53.184 h 5.673 v 16.099 c 0,1.937 -0.091,3.543 -0.273,4.819 h 0.342 c 1.116,-1.8 2.7,-3.213 4.751,-4.238 2.073,-1.048 4.432,-1.572 7.075,-1.572 4.58,0 8.009,1.094 10.288,3.281 2.302,2.165 3.452,5.617 3.452,10.357 V 843 Z m 33.189,0.684 c -5.537,0 -9.912,-1.687 -13.125,-5.059 -3.19,-3.372 -4.785,-8.055 -4.785,-14.048 0,-6.038 1.481,-10.835 4.443,-14.389 2.985,-3.555 6.984,-5.333 11.997,-5.333 4.694,0 8.408,1.55 11.143,4.649 2.734,3.076 4.101,7.143 4.101,12.202 v 3.589 h -25.805 c 0.114,4.398 1.219,7.736 3.315,10.015 2.119,2.278 5.093,3.418 8.921,3.418 4.033,0 8.021,-0.844 11.963,-2.53 v 5.059 c -2.005,0.866 -3.908,1.481 -5.708,1.846 -1.778,0.387 -3.931,0.581 -6.46,0.581 z m -1.538,-34.078 c -3.008,0 -5.412,0.98 -7.212,2.94 -1.777,1.96 -2.826,4.671 -3.145,8.135 h 19.585 c 0,-3.578 -0.797,-6.312 -2.392,-8.203 -1.595,-1.915 -3.874,-2.872 -6.836,-2.872 z m 73.794,33.394 -6.87,-21.978 c -0.433,-1.344 -1.242,-4.397 -2.427,-9.16 h -0.274 c -0.911,3.988 -1.709,7.064 -2.392,9.229 L 580.807,843 h -6.563 l -10.22,-37.461 h 5.948 c 2.415,9.411 4.249,16.577 5.503,21.499 1.276,4.922 2.005,8.237 2.187,9.946 h 0.274 c 0.25,-1.298 0.649,-2.973 1.196,-5.024 0.569,-2.074 1.059,-3.714 1.47,-4.922 l 6.87,-21.499 h 6.152 l 6.699,21.499 c 1.276,3.919 2.142,7.212 2.598,9.878 h 0.273 c 0.091,-0.82 0.331,-2.085 0.718,-3.794 0.41,-1.709 2.791,-10.903 7.144,-27.583 h 5.879 L 606.578,843 Z m 56.225,-18.765 c 0,6.107 -1.538,10.881 -4.614,14.322 -3.076,3.418 -7.326,5.127 -12.749,5.127 -3.35,0 -6.323,-0.787 -8.921,-2.359 -2.598,-1.572 -4.603,-3.828 -6.015,-6.767 -1.413,-2.94 -2.12,-6.381 -2.12,-10.323 0,-6.106 1.527,-10.857 4.58,-14.253 3.054,-3.418 7.292,-5.127 12.715,-5.127 5.241,0 9.4,1.744 12.476,5.23 3.099,3.486 4.648,8.203 4.648,14.15 z m -28.54,0 c 0,4.786 0.957,8.431 2.871,10.938 1.914,2.506 4.729,3.76 8.443,3.76 3.714,0 6.528,-1.242 8.442,-3.726 1.937,-2.506 2.905,-6.164 2.905,-10.972 0,-4.762 -0.968,-8.374 -2.905,-10.835 -1.914,-2.483 -4.751,-3.725 -8.511,-3.725 -3.714,0 -6.517,1.219 -8.408,3.657 -1.891,2.438 -2.837,6.073 -2.837,10.903 z m 55.611,-19.38 c 1.663,0 3.156,0.137 4.477,0.411 l -0.786,5.263 c -1.549,-0.341 -2.917,-0.512 -4.102,-0.512 -3.03,0 -5.628,1.23 -7.792,3.691 -2.142,2.461 -3.213,5.526 -3.213,9.194 V 843 h -5.674 v -37.461 h 4.682 l 0.65,6.939 h 0.273 c 1.39,-2.439 3.065,-4.318 5.025,-5.64 1.959,-1.322 4.113,-1.983 6.46,-1.983 z M 700.299,843 h -5.674 v -53.184 h 5.674 z m 37.529,-5.024 h -0.307 c -2.621,3.805 -6.54,5.708 -11.758,5.708 -4.899,0 -8.716,-1.675 -11.451,-5.025 -2.711,-3.349 -4.067,-8.112 -4.067,-14.287 0,-6.175 1.367,-10.972 4.102,-14.39 2.734,-3.418 6.539,-5.127 11.416,-5.127 5.081,0 8.978,1.846 11.689,5.538 h 0.444 l -0.239,-2.701 -0.136,-2.631 v -15.245 h 5.673 V 843 h -4.614 z m -11.348,0.957 c 3.874,0 6.677,-1.049 8.409,-3.145 1.754,-2.119 2.632,-5.526 2.632,-10.22 v -1.196 c 0,-5.309 -0.889,-9.092 -2.667,-11.348 -1.754,-2.278 -4.568,-3.418 -8.442,-3.418 -3.327,0 -5.879,1.299 -7.656,3.897 -1.755,2.575 -2.632,6.221 -2.632,10.937 0,4.786 0.877,8.397 2.632,10.835 1.754,2.439 4.329,3.658 7.724,3.658 z m 79.297,-14.698 c 0,6.107 -1.538,10.881 -4.614,14.322 -3.076,3.418 -7.326,5.127 -12.749,5.127 -3.35,0 -6.323,-0.787 -8.921,-2.359 -2.597,-1.572 -4.603,-3.828 -6.015,-6.767 -1.413,-2.94 -2.12,-6.381 -2.12,-10.323 0,-6.106 1.527,-10.857 4.58,-14.253 3.054,-3.418 7.292,-5.127 12.715,-5.127 5.241,0 9.4,1.744 12.476,5.23 3.099,3.486 4.648,8.203 4.648,14.15 z m -28.54,0 c 0,4.786 0.957,8.431 2.871,10.938 1.914,2.506 4.729,3.76 8.443,3.76 3.714,0 6.528,-1.242 8.442,-3.726 1.937,-2.506 2.905,-6.164 2.905,-10.972 0,-4.762 -0.968,-8.374 -2.905,-10.835 -1.914,-2.483 -4.751,-3.725 -8.511,-3.725 -3.714,0 -6.517,1.219 -8.408,3.657 -1.891,2.438 -2.837,6.073 -2.837,10.903 z m 55.406,-14.287 h -9.537 V 843 h -5.673 v -33.052 h -6.7 v -2.563 l 6.7,-2.051 v -2.085 c 0,-9.206 4.021,-13.809 12.065,-13.809 1.982,0 4.307,0.399 6.973,1.197 l -1.47,4.546 c -2.188,-0.707 -4.056,-1.06 -5.605,-1.06 -2.142,0 -3.726,0.718 -4.751,2.153 -1.026,1.413 -1.539,3.692 -1.539,6.836 v 2.427 h 9.537 z m 24.199,29.429 c 0,-1.527 0.342,-2.677 1.025,-3.452 0.707,-0.798 1.709,-1.196 3.008,-1.196 1.322,0 2.347,0.398 3.076,1.196 0.752,0.775 1.128,1.925 1.128,3.452 0,1.481 -0.376,2.62 -1.128,3.418 -0.752,0.797 -1.777,1.196 -3.076,1.196 -1.162,0 -2.131,-0.353 -2.905,-1.059 -0.752,-0.73 -1.128,-1.914 -1.128,-3.555 z m 59.37,3.623 h -6.631 l -27.31,-41.938 h -0.273 c 0.365,4.921 0.547,9.433 0.547,13.535 V 843 h -5.366 v -49.971 h 6.562 l 27.241,41.768 h 0.274 c -0.046,-0.615 -0.148,-2.586 -0.308,-5.913 -0.159,-3.35 -0.216,-5.742 -0.171,-7.178 v -28.677 h 5.435 z m 41.597,0 h -27.857 v -49.971 h 27.857 v 5.161 h -22.046 v 16.099 h 20.713 v 5.127 h -20.713 v 18.389 h 22.046 z m 26.489,0 h -5.811 v -44.81 h -15.825 v -5.161 h 37.458 v 5.161 h -15.822 z"
       fill="#ffffff"
       id="path196" />
    <path
       d="m 1071.49,165 -5.4,-17.268 c -0.34,-1.056 -0.97,-3.455 -1.9,-7.197 h -0.22 c -0.72,3.133 -1.34,5.55 -1.88,7.251 L 1056.53,165 h -5.15 l -8.03,-29.434 h 4.67 c 1.9,7.395 3.34,13.025 4.32,16.892 1,3.868 1.58,6.473 1.72,7.815 h 0.22 c 0.19,-1.02 0.51,-2.336 0.94,-3.947 0.44,-1.63 0.83,-2.919 1.15,-3.868 l 5.4,-16.892 h 4.83 l 5.27,16.892 c 1,3.08 1.68,5.667 2.04,7.762 h 0.21 c 0.07,-0.645 0.26,-1.638 0.57,-2.981 0.32,-1.343 2.19,-8.567 5.61,-21.673 h 4.62 L 1076.78,165 Z m 42.81,0 -5.4,-17.268 c -0.34,-1.056 -0.98,-3.455 -1.91,-7.197 h -0.21 c -0.72,3.133 -1.34,5.55 -1.88,7.251 L 1099.34,165 h -5.16 l -8.03,-29.434 h 4.68 c 1.89,7.395 3.33,13.025 4.32,16.892 1,3.868 1.57,6.473 1.72,7.815 h 0.21 c 0.2,-1.02 0.51,-2.336 0.94,-3.947 0.45,-1.63 0.84,-2.919 1.16,-3.868 l 5.4,-16.892 h 4.83 l 5.26,16.892 c 1.01,3.08 1.69,5.667 2.04,7.762 h 0.22 c 0.07,-0.645 0.26,-1.638 0.56,-2.981 0.33,-1.343 2.2,-8.567 5.62,-21.673 h 4.62 L 1119.59,165 Z m 42.8,0 -5.39,-17.268 c -0.34,-1.056 -0.98,-3.455 -1.91,-7.197 h -0.21 c -0.72,3.133 -1.35,5.55 -1.88,7.251 L 1142.15,165 h -5.16 l -8.03,-29.434 h 4.67 c 1.9,7.395 3.34,13.025 4.33,16.892 1,3.868 1.57,6.473 1.72,7.815 h 0.21 c 0.2,-1.02 0.51,-2.336 0.94,-3.947 0.45,-1.63 0.83,-2.919 1.16,-3.868 l 5.39,-16.892 h 4.84 l 5.26,16.892 c 1,3.08 1.68,5.667 2.04,7.762 h 0.22 c 0.07,-0.645 0.26,-1.638 0.56,-2.981 0.32,-1.343 2.19,-8.567 5.61,-21.673 h 4.62 L 1162.4,165 Z m 18.13,-2.847 c 0,-1.199 0.27,-2.103 0.81,-2.712 0.55,-0.627 1.34,-0.94 2.36,-0.94 1.04,0 1.85,0.313 2.42,0.94 0.59,0.609 0.88,1.513 0.88,2.712 0,1.164 -0.29,2.059 -0.88,2.686 -0.59,0.626 -1.4,0.94 -2.42,0.94 -0.91,0 -1.67,-0.278 -2.28,-0.833 -0.59,-0.573 -0.89,-1.504 -0.89,-2.793 z m 35.34,-1.101 h -0.24 c -2.06,2.99 -5.14,4.485 -9.24,4.485 -3.85,0 -6.84,-1.316 -8.99,-3.948 -2.13,-2.631 -3.2,-6.373 -3.2,-11.225 0,-4.852 1.08,-8.621 3.22,-11.306 2.15,-2.686 5.14,-4.029 8.97,-4.029 4,0 7.06,1.45 9.19,4.351 h 0.35 l -0.19,-2.122 -0.11,-2.068 v -11.977 h 4.46 V 165 h -3.62 z m -8.91,0.752 c 3.04,0 5.24,-0.823 6.6,-2.471 1.38,-1.665 2.07,-4.341 2.07,-8.029 v -0.94 c 0,-4.172 -0.7,-7.144 -2.09,-8.916 -1.38,-1.791 -3.59,-2.686 -6.64,-2.686 -2.61,0 -4.61,1.021 -6.01,3.062 -1.38,2.023 -2.07,4.887 -2.07,8.593 0,3.76 0.69,6.598 2.07,8.514 1.38,1.915 3.4,2.873 6.07,2.873 z m 48.02,-11.548 c 0,4.799 -1.21,8.549 -3.63,11.253 -2.42,2.685 -5.76,4.028 -10.02,4.028 -2.63,0 -4.97,-0.618 -7.01,-1.853 -2.04,-1.235 -3.61,-3.008 -4.72,-5.317 -1.11,-2.31 -1.67,-5.013 -1.67,-8.111 0,-4.798 1.2,-8.531 3.6,-11.198 2.4,-2.686 5.73,-4.029 9.99,-4.029 4.12,0 7.39,1.37 9.8,4.109 2.44,2.739 3.66,6.445 3.66,11.118 z m -22.43,0 c 0,3.76 0.75,6.625 2.26,8.594 1.5,1.969 3.71,2.954 6.63,2.954 2.92,0 5.13,-0.976 6.63,-2.927 1.53,-1.969 2.29,-4.843 2.29,-8.621 0,-3.742 -0.76,-6.579 -2.29,-8.513 -1.5,-1.951 -3.73,-2.927 -6.68,-2.927 -2.92,0 -5.12,0.958 -6.61,2.873 -1.49,1.916 -2.23,4.772 -2.23,8.567 z m 39.77,11.602 c 0.79,0 1.55,-0.054 2.29,-0.161 0.73,-0.126 1.31,-0.251 1.74,-0.376 v 3.41 c -0.48,0.233 -1.2,0.421 -2.15,0.564 -0.93,0.162 -1.77,0.242 -2.52,0.242 -5.69,0 -8.54,-2.999 -8.54,-8.996 v -17.51 h -4.22 v -2.149 l 4.22,-1.853 1.88,-6.284 h 2.58 v 6.821 h 8.54 v 3.465 h -8.54 v 17.322 c 0,1.772 0.42,3.133 1.26,4.082 0.84,0.948 2,1.423 3.46,1.423 z M 1297.1,165 v -19.041 c 0,-2.399 -0.54,-4.189 -1.64,-5.371 -1.09,-1.181 -2.8,-1.772 -5.13,-1.772 -3.07,0 -5.33,0.832 -6.76,2.497 -1.43,1.666 -2.15,4.414 -2.15,8.245 V 165 h -4.46 v -29.434 h 3.63 l 0.72,4.029 h 0.22 c 0.91,-1.45 2.19,-2.569 3.84,-3.357 1.64,-0.806 3.48,-1.209 5.5,-1.209 3.55,0 6.21,0.86 8.01,2.578 1.79,1.701 2.68,4.432 2.68,8.191 V 165 Z m 26.08,0.537 c -4.35,0 -7.79,-1.325 -10.31,-3.975 -2.51,-2.649 -3.76,-6.328 -3.76,-11.037 0,-4.745 1.16,-8.513 3.49,-11.306 2.34,-2.793 5.49,-4.19 9.42,-4.19 3.69,0 6.61,1.218 8.76,3.653 2.15,2.417 3.22,5.612 3.22,9.587 v 2.82 h -20.27 c 0.09,3.455 0.95,6.078 2.6,7.869 1.67,1.79 4,2.685 7.01,2.685 3.17,0 6.3,-0.662 9.4,-1.987 v 3.974 c -1.58,0.681 -3.07,1.164 -4.49,1.451 -1.39,0.304 -3.08,0.456 -5.07,0.456 z m -1.21,-26.775 c -2.36,0 -4.25,0.77 -5.67,2.31 -1.39,1.539 -2.22,3.67 -2.47,6.391 h 15.39 c 0,-2.81 -0.62,-4.959 -1.88,-6.445 -1.25,-1.504 -3.04,-2.256 -5.37,-2.256 z m 29.17,23.096 c 0.78,0 1.54,-0.054 2.28,-0.161 0.73,-0.126 1.31,-0.251 1.74,-0.376 v 3.41 c -0.48,0.233 -1.2,0.421 -2.14,0.564 -0.94,0.162 -1.78,0.242 -2.53,0.242 -5.69,0 -8.54,-2.999 -8.54,-8.996 v -17.51 h -4.22 v -2.149 l 4.22,-1.853 1.88,-6.284 h 2.58 v 6.821 h 8.54 v 3.465 h -8.54 v 17.322 c 0,1.772 0.42,3.133 1.26,4.082 0.84,0.948 2,1.423 3.47,1.423 z m 21.69,3.679 c -4.26,0 -7.56,-1.307 -9.9,-3.921 -2.33,-2.632 -3.5,-6.347 -3.5,-11.145 0,-4.923 1.19,-8.728 3.55,-11.413 2.38,-2.686 5.76,-4.029 10.15,-4.029 1.41,0 2.83,0.152 4.24,0.457 1.42,0.304 2.53,0.662 3.33,1.074 l -1.37,3.787 c -0.98,-0.394 -2.05,-0.716 -3.22,-0.967 -1.16,-0.269 -2.19,-0.403 -3.09,-0.403 -5.98,0 -8.97,3.814 -8.97,11.44 0,3.617 0.73,6.392 2.18,8.326 1.47,1.933 3.63,2.9 6.5,2.9 2.45,0 4.97,-0.528 7.54,-1.584 v 3.947 c -1.97,1.021 -4.45,1.531 -7.44,1.531 z m 39.86,-15.281 c 0,4.799 -1.21,8.549 -3.63,11.253 -2.41,2.685 -5.75,4.028 -10.01,4.028 -2.64,0 -4.97,-0.618 -7.01,-1.853 -2.04,-1.235 -3.62,-3.008 -4.73,-5.317 -1.11,-2.31 -1.66,-5.013 -1.66,-8.111 0,-4.798 1.19,-8.531 3.59,-11.198 2.4,-2.686 5.73,-4.029 9.99,-4.029 4.12,0 7.39,1.37 9.81,4.109 2.43,2.739 3.65,6.445 3.65,11.118 z m -22.43,0 c 0,3.76 0.76,6.625 2.26,8.594 1.5,1.969 3.72,2.954 6.63,2.954 2.92,0 5.13,-0.976 6.64,-2.927 1.52,-1.969 2.28,-4.843 2.28,-8.621 0,-3.742 -0.76,-6.579 -2.28,-8.513 -1.51,-1.951 -3.74,-2.927 -6.69,-2.927 -2.92,0 -5.12,0.958 -6.61,2.873 -1.48,1.916 -2.23,4.772 -2.23,8.567 z M 1440.67,165 v -19.041 c 0,-2.399 -0.54,-4.189 -1.64,-5.371 -1.09,-1.181 -2.8,-1.772 -5.13,-1.772 -3.08,0 -5.33,0.832 -6.76,2.497 -1.44,1.666 -2.15,4.414 -2.15,8.245 V 165 h -4.46 v -29.434 h 3.63 l 0.72,4.029 h 0.22 c 0.91,-1.45 2.19,-2.569 3.84,-3.357 1.64,-0.806 3.48,-1.209 5.5,-1.209 3.55,0 6.21,0.86 8,2.578 1.79,1.701 2.69,4.432 2.69,8.191 V 165 Z m 26.91,-25.969 h -7.49 V 165 h -4.46 v -25.969 h -5.26 v -2.014 l 5.26,-1.612 v -1.638 c 0,-7.233 3.16,-10.85 9.48,-10.85 1.56,0 3.38,0.314 5.48,0.94 l -1.16,3.572 c -1.71,-0.555 -3.18,-0.832 -4.4,-0.832 -1.68,0 -2.93,0.564 -3.73,1.692 -0.81,1.11 -1.21,2.9 -1.21,5.371 v 1.906 h 7.49 z m 4.73,23.122 c 0,-1.199 0.27,-2.103 0.8,-2.712 0.56,-0.627 1.35,-0.94 2.37,-0.94 1.03,0 1.84,0.313 2.41,0.94 0.59,0.609 0.89,1.513 0.89,2.712 0,1.164 -0.3,2.059 -0.89,2.686 -0.59,0.626 -1.39,0.94 -2.41,0.94 -0.92,0 -1.68,-0.278 -2.29,-0.833 -0.59,-0.573 -0.88,-1.504 -0.88,-2.793 z m 35.45,2.847 v -19.041 c 0,-2.399 -0.55,-4.189 -1.64,-5.371 -1.09,-1.181 -2.8,-1.772 -5.13,-1.772 -3.08,0 -5.34,0.832 -6.77,2.497 -1.43,1.666 -2.15,4.414 -2.15,8.245 V 165 h -4.45 v -29.434 h 3.62 l 0.73,4.029 h 0.21 c 0.91,-1.45 2.19,-2.569 3.84,-3.357 1.65,-0.806 3.48,-1.209 5.51,-1.209 3.54,0 6.21,0.86 8,2.578 1.79,1.701 2.68,4.432 2.68,8.191 V 165 Z m 26.07,0.537 c -4.35,0 -7.78,-1.325 -10.31,-3.975 -2.51,-2.649 -3.76,-6.328 -3.76,-11.037 0,-4.745 1.16,-8.513 3.49,-11.306 2.35,-2.793 5.49,-4.19 9.43,-4.19 3.69,0 6.61,1.218 8.75,3.653 2.15,2.417 3.23,5.612 3.23,9.587 v 2.82 h -20.28 c 0.09,3.455 0.96,6.078 2.61,7.869 1.66,1.79 4,2.685 7,2.685 3.17,0 6.31,-0.662 9.4,-1.987 v 3.974 c -1.57,0.681 -3.07,1.164 -4.48,1.451 -1.4,0.304 -3.09,0.456 -5.08,0.456 z m -1.21,-26.775 c -2.36,0 -4.25,0.77 -5.66,2.31 -1.4,1.539 -2.22,3.67 -2.47,6.391 h 15.39 c 0,-2.81 -0.63,-4.959 -1.88,-6.445 -1.26,-1.504 -3.05,-2.256 -5.38,-2.256 z m 29.17,23.096 c 0.79,0 1.55,-0.054 2.28,-0.161 0.74,-0.126 1.32,-0.251 1.75,-0.376 v 3.41 c -0.49,0.233 -1.2,0.421 -2.15,0.564 -0.93,0.162 -1.77,0.242 -2.52,0.242 -5.7,0 -8.54,-2.999 -8.54,-8.996 v -17.51 h -4.22 v -2.149 l 4.22,-1.853 1.88,-6.284 h 2.57 v 6.821 h 8.54 v 3.465 h -8.54 v 17.322 c 0,1.772 0.42,3.133 1.27,4.082 0.84,0.948 1.99,1.423 3.46,1.423 z"
       fill="#ffffff"
       id="path200" />
    <path
       d="m 1522.38,539.5 c 5.7,-0.4 9.89,-1.2 16.19,-2.1 3.2,-0.5 3.2,-5.2 0,-5.7 -6.1,-0.9 -10.09,-1.4 -15.89,-1.6 -1.5,0 -2.7,-1.2 -2.8,-2.7 -0.4,-5.6 -1.11,-11.8 -2.11,-18 -0.5,-3.2 -5.2,-3.2 -5.7,0 -0.9,6.1 -1.39,12.2 -1.59,18 0,1.5 -1.21,2.7 -2.71,2.8 -5.6,0.3 -10.8,0.8 -15.3,1.4 -3.3,0.4 -3.3,5.2 0,5.7 5.2,0.7 10.8,1.5 15.6,1.9 1.4,0.1 2.51,1.3 2.61,2.7 0.3,5.8 0.79,11.1 1.39,15.6 0.4,3.3 5.2,3.4 5.7,0 0.7,-5.2 1.51,-10.9 1.91,-15.6 0.2,-1.1 1.3,-2.3 2.7,-2.4 z"
       fill="#afd3fe"
       id="path202" />
    <path
       d="m 1528.13,745.829 c 6.85,0 12.41,-5.558 12.41,-12.414 0,-6.857 -5.56,-12.415 -12.41,-12.415 -6.86,0 -12.42,5.558 -12.42,12.415 0,6.856 5.56,12.414 12.42,12.414 z"
       fill="#afd3fe"
       id="path204" />
    <path
       d="m 1180.41,864.927 c 6.86,0 12.42,-5.558 12.42,-12.414 0,-6.856 -5.56,-12.415 -12.42,-12.415 -6.85,0 -12.41,5.559 -12.41,12.415 0,6.856 5.56,12.414 12.41,12.414 z"
       fill="#afd3fe"
       id="path206" />
    <text
       xml:space="preserve"
       style="font-size:64px;line-height:1.25;font-family:'Open Sans';-inkscape-font-specification:'Open Sans'"
       x="1038.6111"
       y="81.270676"
       id="text352"><tspan
         sodipodi:role="line"
         id="tspan350"
         x="1038.6111"
         y="81.270676"
         style="font-size:53.3333px;fill:#ffffff">November 9-11, 2021</tspan></text>
  </g>
  <defs
     id="defs342">
    <radialGradient
       id="paint0_radial"
       cx="0"
       cy="0"
       r="1"
       gradientUnits="userSpaceOnUse"
       gradientTransform="translate(717.918 728.986) scale(857.312 1419.57)">
      <stop
         offset="0.4602"
         stop-color="#1572E0"
         id="stop210" />
      <stop
         offset="0.8725"
         stop-color="#3E8EED"
         id="stop212" />
    </radialGradient>
    <radialGradient
       id="paint1_radial"
       cx="0"
       cy="0"
       r="1"
       gradientUnits="userSpaceOnUse"
       gradientTransform="translate(785.93 -355.059) scale(1492.02 1767.6)">
      <stop
         offset="0.1052"
         stop-color="#60A2F0"
         id="stop215" />
      <stop
         offset="0.5496"
         stop-color="#3E8EED"
         id="stop217" />
      <stop
         offset="0.9964"
         stop-color="#1C77E2"
         id="stop219" />
    </radialGradient>
    <radialGradient
       id="paint2_radial"
       cx="0"
       cy="0"
       r="1"
       gradientUnits="userSpaceOnUse"
       gradientTransform="translate(934.669 779.793) scale(1049.16 1007.78)">
      <stop
         offset="0.5491"
         stop-color="#549BEF"
         id="stop222" />
      <stop
         offset="0.9925"
         stop-color="#1C77E2"
         id="stop224" />
    </radialGradient>
    <radialGradient
       id="paint3_radial"
       cx="0"
       cy="0"
       r="1"
       gradientUnits="userSpaceOnUse"
       gradientTransform="translate(162.971 2.59866) scale(159.129)">
      <stop
         offset="0.3813"
         stop-color="#77E3FB"
         id="stop227" />
      <stop
         offset="0.979"
         stop-color="#2CC7EA"
         id="stop229" />
    </radialGradient>
    <radialGradient
       id="paint4_radial"
       cx="0"
       cy="0"
       r="1"
       gradientUnits="userSpaceOnUse"
       gradientTransform="translate(208.918 99.5728) scale(65.9083 118.681)">
      <stop
         offset="0.489583"
         stop-color="#A2CCFF"
         id="stop232" />
      <stop
         offset="0.9925"
         stop-color="#67A3EB"
         id="stop234" />
    </radialGradient>
    <linearGradient
       id="paint5_linear"
       x1="343.089"
       y1="97.5748"
       x2="97.9844"
       y2="97.5748"
       gradientUnits="userSpaceOnUse">
      <stop
         offset="0.000330688"
         stop-color="#B5D6FF"
         stop-opacity="0"
         id="stop237" />
      <stop
         offset="1"
         stop-color="#B5D6FF"
         id="stop239" />
    </linearGradient>
    <radialGradient
       id="paint6_radial"
       cx="0"
       cy="0"
       r="1"
       gradientUnits="userSpaceOnUse"
       gradientTransform="translate(1362.99 723.111) rotate(-6.92105) scale(125.366)">
      <stop
         offset="0.3813"
         stop-color="#A4ECFC"
         id="stop242" />
      <stop
         offset="0.979"
         stop-color="#2CC7EA"
         id="stop244" />
    </radialGradient>
    <radialGradient
       id="paint7_radial"
       cx="0"
       cy="0"
       r="1"
       gradientUnits="userSpaceOnUse"
       gradientTransform="translate(1362.99 723.111) rotate(-6.92105) scale(125.366)">
      <stop
         offset="0.3813"
         stop-color="#AFD3FE"
         id="stop247" />
      <stop
         offset="0.979"
         stop-color="#2079E4"
         id="stop249" />
    </radialGradient>
    <linearGradient
       id="paint8_linear"
       x1="1024.06"
       y1="812.169"
       x2="1028.88"
       y2="450.237"
       gradientUnits="userSpaceOnUse">
      <stop
         stop-color="white"
         stop-opacity="0"
         id="stop252" />
      <stop
         offset="0.9936"
         stop-color="#60DEFA"
         id="stop254" />
    </linearGradient>
    <linearGradient
       id="paint9_linear"
       x1="980.998"
       y1="788.833"
       x2="985.809"
       y2="426.901"
       gradientUnits="userSpaceOnUse">
      <stop
         stop-color="white"
         stop-opacity="0"
         id="stop257" />
      <stop
         offset="0.9936"
         stop-color="#60DEFA"
         id="stop259" />
    </linearGradient>
    <linearGradient
       id="paint10_linear"
       x1="1192.83"
       y1="462.94"
       x2="1154.37"
       y2="527.824"
       gradientUnits="userSpaceOnUse">
      <stop
         stop-color="#522CD5"
         id="stop262" />
      <stop
         offset="0.4397"
         stop-color="#8A6FE8"
         id="stop264" />
    </linearGradient>
    <linearGradient
       id="paint11_linear"
       x1="1192.83"
       y1="462.94"
       x2="1154.37"
       y2="527.824"
       gradientUnits="userSpaceOnUse">
      <stop
         stop-color="#522CD5"
         id="stop267" />
      <stop
         offset="0.4397"
         stop-color="#8A6FE8"
         id="stop269" />
    </linearGradient>
    <linearGradient
       id="paint12_linear"
       x1="1147.65"
       y1="517.74"
       x2="1123.18"
       y2="602.838"
       gradientUnits="userSpaceOnUse">
      <stop
         stop-color="#522CD5"
         id="stop272" />
      <stop
         offset="0.4397"
         stop-color="#8A6FE8"
         id="stop274" />
    </linearGradient>
    <radialGradient
       id="paint13_radial"
       cx="0"
       cy="0"
       r="1"
       gradientUnits="userSpaceOnUse"
       gradientTransform="translate(1120.14 581.284) rotate(41.6266) scale(17.0768 17.0756)">
      <stop
         offset="0.034"
         stop-color="#522CD5"
         id="stop277" />
      <stop
         offset="1"
         stop-color="#8A6FE8"
         id="stop279" />
    </radialGradient>
    <linearGradient
       id="paint14_linear"
       x1="1167.52"
       y1="449.474"
       x2="1117.3"
       y2="505.754"
       gradientUnits="userSpaceOnUse">
      <stop
         stop-color="#522CD5"
         id="stop282" />
      <stop
         offset="0.4397"
         stop-color="#8A6FE8"
         id="stop284" />
    </linearGradient>
    <linearGradient
       id="paint15_linear"
       x1="1167.52"
       y1="449.474"
       x2="1117.3"
       y2="505.754"
       gradientUnits="userSpaceOnUse">
      <stop
         stop-color="#522CD5"
         id="stop287" />
      <stop
         offset="0.4397"
         stop-color="#8A6FE8"
         id="stop289" />
    </linearGradient>
    <linearGradient
       id="paint16_linear"
       x1="1111.53"
       y1="492.873"
       x2="1070.67"
       y2="572.629"
       gradientUnits="userSpaceOnUse">
      <stop
         stop-color="#522CD5"
         id="stop292" />
      <stop
         offset="0.4397"
         stop-color="#8A6FE8"
         id="stop294" />
    </linearGradient>
    <radialGradient
       id="paint17_radial"
       cx="0"
       cy="0"
       r="1"
       gradientUnits="userSpaceOnUse"
       gradientTransform="translate(1087.7 546.799) rotate(52.711) scale(30.2535 30.2519)">
      <stop
         offset="0.034"
         stop-color="#522CD5"
         id="stop297" />
      <stop
         offset="0.9955"
         stop-color="#8A6FE8"
         id="stop299" />
    </radialGradient>
    <radialGradient
       id="paint18_radial"
       cx="0"
       cy="0"
       r="1"
       gradientUnits="userSpaceOnUse"
       gradientTransform="translate(1344.63 454.898) rotate(-14.792) scale(27.6616)">
      <stop
         stop-color="#8065E0"
         id="stop302" />
      <stop
         offset="1"
         stop-color="#512BD4"
         id="stop304" />
    </radialGradient>
    <radialGradient
       id="paint19_radial"
       cx="0"
       cy="0"
       r="1"
       gradientUnits="userSpaceOnUse"
       gradientTransform="translate(1235.59 318.57) rotate(31.9889) scale(107.678)">
      <stop
         offset="0.3472"
         stop-color="#A08BE8"
         id="stop307" />
      <stop
         offset="0.684"
         stop-color="#8065E0"
         id="stop309" />
      <stop
         offset="0.7596"
         stop-color="#8065E0"
         id="stop311" />
    </radialGradient>
    <radialGradient
       id="paint20_radial"
       cx="0"
       cy="0"
       r="1"
       gradientUnits="userSpaceOnUse"
       gradientTransform="translate(1220.74 371.312) rotate(-14.792) scale(108.478)">
      <stop
         offset="0.0933"
         stop-color="#E1DFDD"
         id="stop314" />
      <stop
         offset="0.6573"
         stop-color="white"
         id="stop316" />
    </radialGradient>
    <radialGradient
       id="paint21_radial"
       cx="0"
       cy="0"
       r="1"
       gradientUnits="userSpaceOnUse"
       gradientTransform="translate(1258.37 279.231) rotate(-14.792) scale(15.4213)">
      <stop
         stop-color="#8065E0"
         id="stop319" />
      <stop
         offset="1"
         stop-color="#512BD4"
         id="stop321" />
    </radialGradient>
    <linearGradient
       id="paint22_linear"
       x1="1146.81"
       y1="314.545"
       x2="1050.43"
       y2="327.869"
       gradientUnits="userSpaceOnUse">
      <stop
         offset="0.2495"
         stop-color="#967FE6"
         id="stop324" />
      <stop
         offset="1"
         stop-color="#8A6FE8"
         id="stop326" />
    </linearGradient>
    <radialGradient
       id="paint23_radial"
       cx="0"
       cy="0"
       r="1"
       gradientUnits="userSpaceOnUse"
       gradientTransform="translate(1048.16 301.527) rotate(-14.792) scale(28.0609)">
      <stop
         stop-color="#8065E0"
         id="stop329" />
      <stop
         offset="1"
         stop-color="#512BD4"
         id="stop331" />
    </radialGradient>
    <radialGradient
       id="paint24_radial"
       cx="0"
       cy="0"
       r="1"
       gradientUnits="userSpaceOnUse"
       gradientTransform="translate(1151.28 339.257) rotate(-3.42043) scale(18.669)">
      <stop
         stop-color="#8065E0"
         id="stop334" />
      <stop
         offset="1"
         stop-color="#512BD4"
         id="stop336" />
    </radialGradient>
    <clipPath
       id="clip0">
      <rect
         width="1600"
         height="900"
         fill="white"
         id="rect339" />
    </clipPath>
  </defs>
</svg>
