<?xml version="1.0" encoding="UTF-8" standalone="no"?>
<svg
   width="468"
   height="60"
   viewBox="0 0 468 60"
   fill="none"
   version="1.1"
   id="svg448"
   xmlns="http://www.w3.org/2000/svg"
   xmlns:svg="http://www.w3.org/2000/svg">
  <g
     clip-path="url(#clip0)"
     id="g312">
    <rect
       width="468"
       height="60"
       fill="#ffffff"
       id="rect2"
       x="0"
       y="0" />
    <path
       d="M 263.296,108.316 C 486.237,112.299 585.263,85.0128 580.86,41.1174 577.504,7.7718 532.55,-2.33978 552.659,-29.4564 578.332,-64.0764 305.47,-80.0643 127.605,-54.2697 -11.0893,-34.1537 -87.1248,32.1658 -18.1642,69.6489 29.9803,95.8223 148.895,106.272 263.296,108.316 Z"
       fill="url(#paint0_radial)"
       id="path4" />
    <path
       opacity="0.6"
       d="m 517.334,34.5708 c -0.529,-4.5151 -2.188,-8.495 -4.479,-12.0999 -45.551,21.589 -155.616,29.1376 -220.118,32.4435 -60.106,3.0811 -180.962,8.2322 -251.1559,22.6058 3.1826,0.4095 6.4066,0.8056 9.6825,1.1883 0.1348,0.0153 0.2696,0.0305 0.4043,0.0476 1.441,0.1676 2.8924,0.3333 4.3437,0.4971 0.3007,0.0342 0.6013,0.0666 0.9019,0.1009 1.3166,0.1466 2.6436,0.2913 3.9705,0.4342 0.3421,0.0361 0.6739,0.0723 1.016,0.1085 1.3476,0.1428 2.6953,0.2837 4.0534,0.4208 0.2902,0.0305 0.5805,0.0591 0.8708,0.0896 1.5343,0.1561 3.0789,0.3084 4.6339,0.4589 0.1037,0.0095 0.197,0.019 0.3007,0.0286 3.4314,0.3313 6.9042,0.6512 10.4082,0.9597 0.0933,0.0076 0.1763,0.0152 0.2696,0.0229 1.5965,0.139 3.1929,0.2761 4.7998,0.4113 0.3317,0.0266 0.6531,0.0552 0.9848,0.0819 1.3892,0.1161 2.7783,0.2285 4.1779,0.3408 0.3939,0.0324 0.7878,0.0629 1.1921,0.0953 1.3684,0.1085 2.7369,0.2151 4.1156,0.3199 0.3836,0.0285 0.7568,0.059 1.1404,0.0876 1.4828,0.1123 2.9748,0.2209 4.4678,0.3294 0.259,0.0191 0.508,0.0381 0.767,0.0552 3.587,0.2571 7.205,0.5047 10.854,0.7408 0.094,0.0057 0.197,0.0114 0.291,0.0191 1.658,0.1066 3.327,0.2113 4.997,0.3142 0.393,0.0247 0.798,0.0476 1.202,0.0723 1.379,0.0838 2.768,0.1676 4.157,0.2476 0.487,0.0285 0.975,0.0571 1.462,0.0838 1.327,0.0761 2.654,0.1504 3.981,0.2247 0.497,0.0285 1.005,0.0552 1.503,0.0819 1.379,0.0742 2.757,0.1485 4.136,0.2209 0.425,0.0228 0.861,0.0457 1.286,0.0666 1.679,0.0857 3.369,0.1714 5.059,0.2533 0.114,0.0057 0.238,0.0114 0.352,0.0171 1.877,0.0914 3.763,0.179 5.65,0.2666 0.135,0.0057 0.28,0.0115 0.415,0.0191 1.669,0.0761 3.338,0.1504 5.007,0.2209 0.498,0.0209 0.995,0.0419 1.503,0.0628 1.317,0.0552 2.644,0.1105 3.96,0.1638 0.601,0.0247 1.192,0.0476 1.794,0.0704 1.244,0.0495 2.488,0.0972 3.732,0.1448 0.622,0.0228 1.244,0.0476 1.866,0.0704 1.254,0.0457 2.508,0.0914 3.763,0.1352 0.591,0.021 1.182,0.0419 1.773,0.0629 1.399,0.0476 2.809,0.0952 4.219,0.1409 0.425,0.0133 0.86,0.0286 1.285,0.0419 1.856,0.059 3.712,0.1161 5.567,0.1714 0.177,0.0057 0.353,0.0095 0.529,0.0152 1.648,0.0476 3.297,0.0952 4.945,0.139 0.591,0.0153 1.192,0.0305 1.783,0.0476 1.244,0.0324 2.478,0.0648 3.722,0.0952 0.684,0.0172 1.368,0.0343 2.052,0.0496 1.161,0.0285 2.323,0.0552 3.484,0.0818 0.715,0.0153 1.42,0.0324 2.135,0.0476 1.151,0.0248 2.312,0.0496 3.463,0.0724 0.694,0.0133 1.378,0.0286 2.073,0.0419 1.244,0.0248 2.498,0.0476 3.742,0.0705 0.591,0.0114 1.172,0.0209 1.763,0.0323 1.824,0.0324 3.649,0.061 5.463,0.0895 h 0.01 c 13.083,0.1981 25.72,0.3009 37.901,0.3066 127.927,0.0686 206.237,-10.3117 240.375,-27.8312 0.809,-0.4171 1.597,-0.8379 2.364,-1.2626 2.291,-1.2758 4.354,-2.5879 6.189,-3.9342 0.611,-0.4494 1.202,-0.9008 1.762,-1.3578 1.13,-0.9122 2.156,-1.8414 3.089,-2.7841 1.866,-1.8871 3.338,-3.8333 4.417,-5.8347 1.917,-3.5077 2.622,-7.1868 2.177,-11.0259 z"
       fill="url(#paint1_radial)"
       id="path6" />
    <path
       d="M 34.2407,-25.8747 C -42.5338,-12.6131 -12.8634,33.2729 -32.3296,65.2613 -9.11007,56.9074 20.632,52.3063 72.2846,42.2769 164.33,24.4037 288.417,11.3614 334.003,9.52996 407.466,6.58059 338.6,17.4954 306.454,22.8047 c -32.145,5.3094 -53.74,12.3181 1.44,5.6451 C 376.421,20.1619 477.759,9.97131 517.463,9.52996 509.936,-24.1737 190.052,-52.7837 34.2407,-25.8747 Z"
       fill="url(#paint2_radial)"
       id="path8" />
    <path
       d="M 34.2407,-25.8747 C -42.5338,-12.6131 -12.8634,33.2729 -32.3296,65.2613 -9.11007,56.9074 20.632,52.3063 72.2846,42.2769 164.33,24.4037 288.417,11.3614 334.003,9.52996 407.466,6.58059 338.6,17.4954 306.454,22.8047 c -32.145,5.3094 -53.74,12.3181 1.44,5.6451 C 376.421,20.1619 477.759,9.97131 517.463,9.52996 509.936,-24.1737 190.052,-52.7837 34.2407,-25.8747 Z"
       fill="url(#paint3_radial)"
       id="path10" />
    <path
       d="m 102.167,11.9924 c 0,0 -1.006,0.5972 -1.678,1.7253 -0.322,-0.8719 -1.7248,-1.6777 -1.7248,-1.6777 0,0 1.1783,-0.5998 1.6778,-1.7253 0.602,1.0727 1.725,1.6777 1.725,1.6777 z"
       fill="#afd3fe"
       id="path12" />
    <path
       d="m 175.243,14.1311 c 0.697,-0.0555 1.215,-0.1586 1.989,-0.2907 0.396,-0.0687 0.391,-0.6473 -0.01,-0.7001 -0.756,-0.1031 -1.242,-0.1533 -1.964,-0.1638 -0.182,-0.0027 -0.335,-0.1401 -0.348,-0.3224 -0.058,-0.6869 -0.161,-1.4505 -0.291,-2.2088 -0.069,-0.3963 -0.645,-0.3884 -0.7,0.0106 -0.103,0.753 -0.151,1.5007 -0.161,2.222 -0.003,0.185 -0.146,0.3382 -0.328,0.3514 -0.692,0.0476 -1.329,0.1189 -1.878,0.1982 -0.407,0.0581 -0.402,0.6499 0.005,0.7028 0.645,0.0845 1.337,0.1638 1.923,0.2113 0.175,0.0132 0.315,0.1533 0.325,0.3277 0.048,0.708 0.122,1.3606 0.201,1.9208 0.058,0.4069 0.65,0.4016 0.703,-0.0053 0.084,-0.6447 0.164,-1.3396 0.211,-1.9235 0.013,-0.1796 0.151,-0.317 0.323,-0.3302 z"
       fill="#afd3fe"
       id="path14" />
    <path
       d="m 228.885,8.74317 c -0.011,0 -1.07,-0.0132 -2.103,-0.54163 -1.358,-0.69223 -2.043,-1.91553 -2.035,-3.63554 0,-0.12682 -0.103,-0.2325 -0.23,-0.2325 -0.126,0 -0.232,0.10304 -0.232,0.22986 -0.019,4.10055 -4.008,4.13754 -4.177,4.13754 -0.124,0 -0.228,0.09776 -0.233,0.22458 -0.005,0.12418 0.093,0.22986 0.217,0.23779 0.01,0 1.073,0.07662 2.111,0.63675 1.363,0.73448 2.05,1.92608 2.042,3.54038 0,0.1269 0.103,0.2325 0.23,0.2325 0.127,0 0.233,-0.103 0.233,-0.2298 0.008,-1.5536 0.705,-2.7214 2.076,-3.46646 1.047,-0.56805 2.111,-0.6711 2.122,-0.6711 0.124,-0.01057 0.217,-0.11625 0.211,-0.24043 -0.008,-0.12418 -0.111,-0.22194 -0.232,-0.22194 z"
       fill="#afd3fe"
       id="path16" />
    <path
       d="m 220.38,5.06774 c 0.207,0 0.375,-0.16798 0.375,-0.37518 0,-0.20721 -0.168,-0.37518 -0.375,-0.37518 -0.208,0 -0.376,0.16797 -0.376,0.37518 0,0.2072 0.168,0.37518 0.376,0.37518 z"
       fill="#afd3fe"
       id="path18" />
    <path
       d="m 221.322,6.01916 c 0.208,0 0.376,-0.16798 0.376,-0.37519 0,-0.2072 -0.168,-0.37517 -0.376,-0.37517 -0.207,0 -0.375,0.16797 -0.375,0.37517 0,0.20721 0.168,0.37519 0.375,0.37519 z"
       fill="#afd3fe"
       id="path20" />
    <path
       d="m 222.263,6.97008 c 0.208,0 0.376,-0.16797 0.376,-0.37517 0,-0.20721 -0.168,-0.37518 -0.376,-0.37518 -0.207,0 -0.375,0.16797 -0.375,0.37518 0,0.2072 0.168,0.37517 0.375,0.37517 z"
       fill="#afd3fe"
       id="path22" />
    <path
       d="m 226.808,11.5568 c 0.207,0 0.375,-0.168 0.375,-0.3752 0,-0.2072 -0.168,-0.3752 -0.375,-0.3752 -0.207,0 -0.375,0.168 -0.375,0.3752 0,0.2072 0.168,0.3752 0.375,0.3752 z"
       fill="#afd3fe"
       id="path24" />
    <path
       d="m 227.751,12.5079 c 0.207,0 0.375,-0.168 0.375,-0.3752 0,-0.2072 -0.168,-0.3751 -0.375,-0.3751 -0.208,0 -0.376,0.1679 -0.376,0.3751 0,0.2072 0.168,0.3752 0.376,0.3752 z"
       fill="#afd3fe"
       id="path26" />
    <path
       d="m 228.691,13.4562 c 0.207,0 0.375,-0.168 0.375,-0.3752 0,-0.2072 -0.168,-0.3752 -0.375,-0.3752 -0.207,0 -0.375,0.168 -0.375,0.3752 0,0.2072 0.168,0.3752 0.375,0.3752 z"
       fill="#afd3fe"
       id="path28" />
    <path
       d="m 220.342,13.4198 c 0.207,0 0.375,-0.168 0.375,-0.3752 0,-0.2072 -0.168,-0.3752 -0.375,-0.3752 -0.207,0 -0.375,0.168 -0.375,0.3752 0,0.2072 0.168,0.3752 0.375,0.3752 z"
       fill="#afd3fe"
       id="path30" />
    <path
       d="m 221.29,12.4762 c 0.207,0 0.375,-0.168 0.375,-0.3752 0,-0.2072 -0.168,-0.3752 -0.375,-0.3752 -0.207,0 -0.375,0.168 -0.375,0.3752 0,0.2072 0.168,0.3752 0.375,0.3752 z"
       fill="#afd3fe"
       id="path32" />
    <path
       d="m 222.241,11.5358 c 0.208,0 0.376,-0.168 0.376,-0.3752 0,-0.2072 -0.168,-0.3752 -0.376,-0.3752 -0.207,0 -0.375,0.168 -0.375,0.3752 0,0.2072 0.168,0.3752 0.375,0.3752 z"
       fill="#afd3fe"
       id="path34" />
    <path
       d="m 226.828,6.99132 c 0.208,0 0.375,-0.16797 0.375,-0.37518 0,-0.2072 -0.167,-0.37517 -0.375,-0.37517 -0.207,0 -0.375,0.16797 -0.375,0.37517 0,0.20721 0.168,0.37518 0.375,0.37518 z"
       fill="#afd3fe"
       id="path36" />
    <path
       d="m 227.78,6.04821 c 0.207,0 0.375,-0.16797 0.375,-0.37518 0,-0.2072 -0.168,-0.37518 -0.375,-0.37518 -0.207,0 -0.375,0.16798 -0.375,0.37518 0,0.20721 0.168,0.37518 0.375,0.37518 z"
       fill="#afd3fe"
       id="path38" />
    <path
       d="m 228.731,5.10754 c 0.207,0 0.375,-0.16797 0.375,-0.37518 0,-0.20721 -0.168,-0.37518 -0.375,-0.37518 -0.208,0 -0.376,0.16797 -0.376,0.37518 0,0.20721 0.168,0.37518 0.376,0.37518 z"
       fill="#afd3fe"
       id="path40" />
    <path
       d="m 127.093,15.2013 c 1.036,0 1.876,-0.8399 1.876,-1.8759 0,-1.0361 -0.84,-1.8759 -1.876,-1.8759 -1.036,0 -1.876,0.8398 -1.876,1.8759 0,1.036 0.84,1.8759 1.876,1.8759 z"
       fill="#afd3fe"
       id="path42" />
    <path
       d="m 12.8,15.8631 c 0.8638,0 1.5641,-0.7003 1.5641,-1.5641 0,-0.8639 -0.7003,-1.5641 -1.5641,-1.5641 -0.8639,0 -1.5642,0.7002 -1.5642,1.5641 0,0.8638 0.7003,1.5641 1.5642,1.5641 z"
       fill="#afd3fe"
       id="path44" />
    <path
       d="m 288.866,19.1158 c 0.864,0 1.564,-0.7003 1.564,-1.5641 0,-0.8639 -0.7,-1.5642 -1.564,-1.5642 -0.863,0 -1.564,0.7003 -1.564,1.5642 0,0.8638 0.701,1.5641 1.564,1.5641 z"
       fill="#4a95ef"
       id="path46" />
    <path
       d="m 71.5641,23.1283 c 0.8639,0 1.5642,-0.7003 1.5642,-1.5642 C 73.1283,20.7003 72.428,20 71.5641,20 70.7003,20 70,20.7003 70,21.5641 c 0,0.8639 0.7003,1.5642 1.5641,1.5642 z"
       fill="#afd3fe"
       id="path48" />
    <path
       d="m 39,22 c 4.4183,0 8,-3.5817 8,-8 0,-4.41828 -3.5817,-8 -8,-8 -4.4183,0 -8,3.58172 -8,8 0,4.4183 3.5817,8 8,8 z"
       fill="url(#paint4_radial)"
       id="path50" />
    <path
       d="m 39,22 c 4.4183,0 8,-3.5817 8,-8 0,-4.41828 -3.5817,-8 -8,-8 -4.4183,0 -8,3.58172 -8,8 0,4.4183 3.5817,8 8,8 z"
       fill="url(#paint5_radial)"
       id="path52" />
    <path
       d="m 30.8412,14.2451 0.0665,0.4743 c -4.1816,1.9775 -6.0263,3.4765 -5.7251,4.5096 0.3615,1.2454 6.7472,-0.2248 15.233,-3.0992 8.4838,-2.8744 14.5517,-5.6973 14.13,-6.77987 -0.3947,-1.01451 2.0379,-2.02695 2.418,-0.75469 0.6108,2.03936 -6.5415,5.97156 -15.9102,9.14706 -9.3688,3.1755 -17.4309,4.1735 -18.0188,2.3527 -0.405,-1.2434 2.7754,-3.5219 7.8066,-5.8499 z"
       fill="url(#paint6_linear)"
       id="path54" />
    <path
       d="m 459.04,50.0688 c -0.029,0.0509 -0.056,0.1017 -0.085,0.1498"
       stroke="#afd3fe"
       stroke-width="4.7698"
       stroke-linecap="round"
       stroke-linejoin="round"
       id="path56" />
    <path
       d="m 447.366,57.554 h -0.179 c -0.349,-0.0053 -0.626,-0.2906 -0.621,-0.6394 0.005,-0.3488 0.277,-0.6235 0.639,-0.6209 h 0.161 0.141 c 0.002,0 0.005,0 0.005,0 0.346,0 0.626,0.2774 0.629,0.6235 0.002,0.3488 -0.278,0.6315 -0.624,0.6368 z m 3.277,-0.4069 c -0.283,0 -0.539,-0.1902 -0.611,-0.4756 -0.084,-0.3382 0.119,-0.679 0.457,-0.7662 0.098,-0.0238 0.196,-0.0502 0.291,-0.0766 0.336,-0.0925 0.682,0.103 0.777,0.4386 0.092,0.3355 -0.103,0.6816 -0.439,0.7768 -0.105,0.029 -0.214,0.0581 -0.319,0.0845 -0.053,0.0106 -0.106,0.0185 -0.156,0.0185 z m -6.576,-0.0079 c -0.053,0 -0.104,-0.0053 -0.156,-0.0211 -0.109,-0.0265 -0.214,-0.0555 -0.32,-0.0872 -0.336,-0.0952 -0.528,-0.4439 -0.433,-0.7795 0.095,-0.3355 0.443,-0.5284 0.776,-0.4333 0.098,0.0265 0.193,0.0529 0.291,0.0793 0.338,0.0872 0.539,0.4307 0.454,0.7662 -0.076,0.2853 -0.332,0.4756 -0.612,0.4756 z m 9.804,-1.2709 c -0.222,0 -0.436,-0.1162 -0.552,-0.3249 -0.169,-0.3039 -0.058,-0.687 0.246,-0.8561 0.087,-0.0475 0.174,-0.0977 0.261,-0.1506 0.302,-0.177 0.687,-0.0766 0.864,0.2246 0.177,0.3012 0.077,0.6869 -0.224,0.8613 -0.095,0.0555 -0.193,0.111 -0.288,0.1638 -0.098,0.0555 -0.204,0.0819 -0.307,0.0819 z m -13.028,-0.0237 c -0.106,0 -0.211,-0.0265 -0.309,-0.082 -0.095,-0.0528 -0.193,-0.1083 -0.285,-0.1664 -0.299,-0.177 -0.399,-0.5628 -0.222,-0.864 0.177,-0.2985 0.562,-0.3989 0.864,-0.2219 0.087,0.0502 0.174,0.1004 0.261,0.1506 0.304,0.1717 0.412,0.5548 0.241,0.8587 -0.114,0.2087 -0.328,0.325 -0.55,0.325 z m 15.818,-2.0424 c -0.166,0 -0.33,-0.0634 -0.454,-0.1929 -0.24,-0.251 -0.235,-0.6499 0.016,-0.8904 0.071,-0.0687 0.143,-0.14 0.214,-0.2113 0.243,-0.2484 0.642,-0.251 0.89,-0.0079 0.249,0.243 0.251,0.642 0.008,0.8903 -0.079,0.0793 -0.158,0.1586 -0.238,0.2352 -0.121,0.1162 -0.28,0.177 -0.436,0.177 z m -18.6,-0.0343 c -0.159,0 -0.317,-0.0582 -0.439,-0.1771 -0.079,-0.0766 -0.158,-0.1558 -0.235,-0.2351 -0.243,-0.2484 -0.24,-0.6473 0.008,-0.8904 0.249,-0.2431 0.648,-0.2404 0.891,0.0079 0.071,0.0714 0.14,0.1427 0.214,0.214 0.248,0.2431 0.256,0.6421 0.013,0.8904 -0.124,0.1268 -0.288,0.1903 -0.452,0.1903 z m -2.148,-2.7267 c -0.214,0 -0.423,-0.111 -0.542,-0.3065 -0.058,-0.0951 -0.113,-0.1902 -0.166,-0.288 -0.172,-0.3038 -0.064,-0.6869 0.24,-0.8587 0.304,-0.1717 0.687,-0.0634 0.859,0.2405 0.05,0.0872 0.1,0.1744 0.151,0.2589 0.177,0.2986 0.081,0.6869 -0.22,0.864 -0.103,0.0607 -0.214,0.0898 -0.322,0.0898 z m -1.374,-3.189 c -0.275,0 -0.526,-0.1797 -0.605,-0.4571 -0.032,-0.1057 -0.058,-0.214 -0.087,-0.3223 -0.087,-0.3382 0.116,-0.6817 0.454,-0.7662 0.338,-0.0872 0.679,0.1162 0.766,0.4544 0.024,0.0977 0.051,0.1929 0.08,0.288 0.095,0.3355 -0.098,0.6843 -0.434,0.7794 -0.06,0.0158 -0.118,0.0238 -0.174,0.0238 z"
       fill="#afd3fe"
       id="path58" />
    <path
       d="m 435.717,37.0821 c 0.029,-0.0508 0.056,-0.1016 0.085,-0.1497"
       stroke="#afd3fe"
       stroke-width="4.7698"
       stroke-linecap="round"
       stroke-linejoin="round"
       id="path60" />
    <path
       d="m 459.454,38.5148 c -0.235,0 -0.463,-0.1347 -0.571,-0.362 -0.045,-0.0951 -0.09,-0.1875 -0.137,-0.28 -0.156,-0.3118 -0.029,-0.6896 0.28,-0.8455 0.309,-0.1559 0.689,-0.029 0.845,0.2801 0.051,0.103 0.101,0.2061 0.151,0.3091 0.148,0.3144 0.013,0.6896 -0.301,0.8375 -0.085,0.0423 -0.177,0.0608 -0.267,0.0608 z m -1.953,-3.0146 c -0.177,0 -0.354,-0.074 -0.478,-0.2193 -0.069,-0.0793 -0.137,-0.1559 -0.206,-0.2352 -0.232,-0.2589 -0.211,-0.6579 0.045,-0.8904 0.259,-0.2325 0.658,-0.2113 0.89,0.045 0.077,0.0845 0.154,0.1717 0.228,0.2562 0.227,0.2643 0.195,0.6606 -0.069,0.8878 -0.116,0.1057 -0.264,0.1559 -0.41,0.1559 z m -19.546,-0.7557 c -0.161,0 -0.322,-0.0607 -0.446,-0.1849 -0.246,-0.2457 -0.246,-0.6447 0,-0.8904 0.081,-0.0819 0.163,-0.1612 0.245,-0.2404 0.251,-0.2405 0.65,-0.2299 0.891,0.0237 0.24,0.251 0.229,0.65 -0.024,0.8904 -0.077,0.0714 -0.151,0.1453 -0.225,0.2167 -0.119,0.1242 -0.28,0.1849 -0.441,0.1849 z m 16.857,-1.6275 c -0.122,0 -0.243,-0.0343 -0.349,-0.1057 -0.087,-0.0581 -0.174,-0.1136 -0.262,-0.1717 -0.293,-0.1876 -0.38,-0.576 -0.195,-0.8693 0.187,-0.2932 0.576,-0.3804 0.869,-0.1955 0.098,0.0608 0.193,0.1242 0.288,0.1876 0.291,0.1929 0.367,0.5839 0.174,0.8745 -0.121,0.1823 -0.322,0.2801 -0.525,0.2801 z m -13.99,-0.5416 c -0.22,0 -0.434,-0.1163 -0.55,-0.3224 -0.172,-0.3038 -0.063,-0.6869 0.241,-0.8587 0.1,-0.0554 0.2,-0.1109 0.301,-0.1638 0.309,-0.1638 0.689,-0.0475 0.853,0.2616 0.164,0.3065 0.048,0.6896 -0.261,0.8534 -0.093,0.0502 -0.185,0.1004 -0.275,0.1506 -0.101,0.0528 -0.206,0.0793 -0.309,0.0793 z m 10.766,-1.041 c -0.066,0 -0.132,-0.0106 -0.201,-0.0317 -0.097,-0.0317 -0.198,-0.0634 -0.295,-0.0951 -0.333,-0.1004 -0.521,-0.4545 -0.418,-0.7874 0.103,-0.3329 0.455,-0.5205 0.787,-0.4174 0.109,0.0343 0.22,0.0686 0.328,0.1056 0.33,0.111 0.507,0.4677 0.399,0.798 -0.092,0.2615 -0.338,0.428 -0.6,0.428 z m -7.429,-0.2854 c -0.283,0 -0.539,-0.1902 -0.611,-0.4782 -0.084,-0.3382 0.122,-0.679 0.46,-0.7636 0.111,-0.0264 0.222,-0.0528 0.333,-0.0792 0.338,-0.074 0.676,0.1374 0.753,0.4782 0.077,0.3408 -0.137,0.6764 -0.478,0.753 -0.103,0.0238 -0.204,0.0476 -0.304,0.0713 -0.053,0.0132 -0.103,0.0185 -0.153,0.0185 z m 3.899,-0.3778 c -0.01,0 -0.021,0 -0.031,0 -0.103,-0.0053 -0.209,-0.0079 -0.312,-0.0106 -0.349,-0.0079 -0.624,-0.2985 -0.613,-0.6446 0.008,-0.3488 0.288,-0.6262 0.645,-0.613 0.113,0.0026 0.227,0.0079 0.341,0.0132 0.348,0.0185 0.615,0.3118 0.597,0.6605 -0.016,0.3303 -0.294,0.5945 -0.627,0.5945 z"
       fill="#afd3fe"
       id="path62" />
    <path
       d="m 435.717,38.6314 c 0.857,0 1.551,-0.6944 1.551,-1.5509 0,-0.8566 -0.694,-1.551 -1.551,-1.551 -0.856,0 -1.55,0.6944 -1.55,1.551 0,0.8565 0.694,1.5509 1.55,1.5509 z"
       fill="#afd3fe"
       id="path64" />
    <path
       d="m 459.039,51.6197 c 0.857,0 1.551,-0.6944 1.551,-1.551 0,-0.8565 -0.694,-1.5509 -1.551,-1.5509 -0.856,0 -1.551,0.6944 -1.551,1.5509 0,0.8566 0.695,1.551 1.551,1.551 z"
       fill="#afd3fe"
       id="path66" />
    <path
       d="m 447.302,53.3122 c 5.294,0 9.586,-4.2916 9.586,-9.5855 0,-5.294 -4.292,-9.5856 -9.586,-9.5856 -5.294,0 -9.585,4.2916 -9.585,9.5856 0,5.2939 4.291,9.5855 9.585,9.5855 z"
       fill="url(#paint7_radial)"
       id="path68" />
    <path
       d="m 13,40.4561 c 0,-0.4878 0.1246,-0.8621 0.3738,-1.1228 0.2493,-0.2606 0.61,-0.3909 1.0822,-0.3909 0.4788,0 0.8428,0.137 1.092,0.411 0.2492,0.2673 0.3738,0.6349 0.3738,1.1027 0,0.4746 -0.1279,0.8522 -0.3837,1.1329 C 15.2889,41.863 14.9282,42 14.456,42 13.9838,42 13.6231,41.863 13.3738,41.589 13.1246,41.315 13,40.9373 13,40.4561 Z"
       fill="#ffffff"
       id="path70" />
    <path
       d="M 31.1212,41.7093 H 28.2387 L 21.1654,30.0301 h -0.0787 l 0.0491,0.6516 c 0.0919,1.2431 0.1378,2.3793 0.1378,3.4085 v 7.6191 H 19.1388 V 27.0526 h 2.8529 l 7.0537,11.6191 h 0.059 c -0.0131,-0.1537 -0.0393,-0.7118 -0.0787,-1.6742 -0.0393,-0.9691 -0.059,-1.7243 -0.059,-2.2657 v -7.6792 h 2.1545 z"
       fill="#ffffff"
       id="path72" />
    <path
       d="M 43.0544,41.7093 H 34.9186 V 27.0526 h 8.1358 v 2.0251 h -5.7846 v 3.99 h 5.4206 v 2.005 h -5.4206 v 4.6015 h 5.7846 z"
       fill="#ffffff"
       id="path74" />
    <path
       d="M 51.1411,41.7093 H 48.7898 V 29.1078 h -4.2302 v -2.0552 h 10.8117 v 2.0552 h -4.2302 z"
       fill="#ffffff"
       id="path76" />
    <path
       d="m 68.9376,28.8972 c -1.351,0 -2.4135,0.4879 -3.1874,1.4637 -0.7739,0.9758 -1.1609,2.3225 -1.1609,4.0401 0,1.7978 0.3706,3.1579 1.1117,4.0802 0.7477,0.9223 1.8265,1.3835 3.2366,1.3835 0.61,0 1.2002,-0.0602 1.7708,-0.1805 0.5706,-0.127 1.1642,-0.2874 1.7807,-0.4812 v 2.0551 c -1.1281,0.4345 -2.407,0.6517 -3.8368,0.6517 -2.1053,0 -3.7219,-0.6483 -4.85,-1.9449 -1.1281,-1.3032 -1.6921,-3.1646 -1.6921,-5.5839 0,-1.5239 0.2722,-2.8572 0.8165,-4 0.551,-1.1429 1.3445,-2.0184 2.3808,-2.6266 1.0362,-0.6082 2.2528,-0.9123 3.6498,-0.9123 1.4691,0 2.8267,0.3141 4.0728,0.9424 l -0.846,1.9949 c -0.4853,-0.2339 -1.0002,-0.4377 -1.5445,-0.6115 -0.5378,-0.1804 -1.1051,-0.2707 -1.702,-0.2707 z"
       fill="#ffffff"
       id="path78" />
    <path
       d="m 84.9929,36.1454 c 0,1.8112 -0.4558,3.2247 -1.3675,4.2406 -0.9116,1.0158 -2.1807,1.5238 -3.8072,1.5238 -1.0166,0 -1.9151,-0.2339 -2.6955,-0.7018 -0.7805,-0.4678 -1.3806,-1.1395 -1.8004,-2.015 -0.4197,-0.8755 -0.6296,-1.8914 -0.6296,-3.0476 0,-1.7979 0.4526,-3.2014 1.3576,-4.2106 0.9051,-1.0092 2.1807,-1.5137 3.8269,-1.5137 1.5741,0 2.8202,0.5179 3.7384,1.5538 0.9182,1.0293 1.3773,2.4194 1.3773,4.1705 z m -7.9194,0 c 0,2.5597 0.928,3.8396 2.7841,3.8396 1.8363,0 2.7545,-1.2799 2.7545,-3.8396 0,-2.533 -0.9247,-3.7995 -2.7742,-3.7995 -0.9707,0 -1.6757,0.3274 -2.1151,0.9824 -0.4329,0.655 -0.6493,1.594 -0.6493,2.8171 z"
       fill="#ffffff"
       id="path80" />
    <path
       d="m 97.2311,41.7093 h -2.3217 v -6.8171 c 0,-0.8554 -0.1706,-1.4937 -0.5116,-1.9148 -0.3345,-0.421 -0.869,-0.6315 -1.6036,-0.6315 -0.9772,0 -1.6921,0.294 -2.1446,0.8822 -0.4525,0.5881 -0.6788,1.5739 -0.6788,2.9574 v 5.5238 H 87.6589 V 30.6216 h 1.8102 l 0.3246,1.4536 h 0.1181 c 0.3279,-0.528 0.7936,-0.9357 1.3969,-1.2231 0.6034,-0.2874 1.2724,-0.431 2.007,-0.431 2.6102,0 3.9154,1.3533 3.9154,4.0601 z"
       fill="#ffffff"
       id="path82" />
    <path
       d="m 105.908,32.406 h -2.656 v 9.3033 H 100.93 V 32.406 h -1.7904 v -1.1027 l 1.7904,-0.7218 v -0.7219 c 0,-1.3099 0.302,-2.279 0.905,-2.9072 C 102.439,26.3175 103.36,26 104.6,26 c 0.813,0 1.613,0.137 2.4,0.411 l -0.61,1.7845 c -0.571,-0.1871 -1.115,-0.2807 -1.633,-0.2807 -0.525,0 -0.908,0.1671 -1.151,0.5012 -0.236,0.3275 -0.354,0.8221 -0.354,1.4837 v 0.7219 h 2.656 z"
       fill="#ffffff"
       id="path84" />
    <path
       d="m 24.0429,50.6053 c 0,1.0584 -0.2838,1.8684 -0.8513,2.4298 -0.5647,0.5585 -1.3785,0.8377 -2.4415,0.8377 H 19 v -6.4123 h 1.9359 c 0.9824,0 1.7458,0.2763 2.2902,0.829 0.5445,0.5526 0.8168,1.3245 0.8168,2.3158 z m -0.7779,0.0263 c 0,-0.8363 -0.2074,-1.4664 -0.6222,-1.8904 -0.412,-0.4239 -1.0256,-0.6359 -1.8409,-0.6359 h -1.0673 v 5.1228 h 0.8945 c 0.8758,0 1.534,-0.2179 1.9748,-0.6535 0.4408,-0.4386 0.6611,-1.0863 0.6611,-1.943 z"
       fill="#ffffff"
       id="path86" />
    <path
       d="m 26.0652,53.8728 h -0.7173 v -4.807 h 0.7173 z m -0.7778,-6.1096 c 0,-0.1667 0.0403,-0.2881 0.121,-0.3641 0.0806,-0.0789 0.1814,-0.1184 0.3024,-0.1184 0.1153,0 0.2147,0.0395 0.2982,0.1184 0.0835,0.079 0.1253,0.2003 0.1253,0.3641 0,0.1637 -0.0418,0.2865 -0.1253,0.3684 -0.0835,0.0789 -0.1829,0.1184 -0.2982,0.1184 -0.121,0 -0.2218,-0.0395 -0.3024,-0.1184 -0.0807,-0.0819 -0.121,-0.2047 -0.121,-0.3684 z"
       fill="#ffffff"
       id="path88" />
    <path
       d="m 30.6413,52.5614 c 0,0.4474 -0.1642,0.7924 -0.4926,1.0351 -0.3284,0.2427 -0.7893,0.364 -1.3828,0.364 -0.628,0 -1.1177,-0.1009 -1.4692,-0.3026 v -0.6754 c 0.2276,0.1169 0.471,0.209 0.7303,0.2763 0.2622,0.0672 0.5142,0.1008 0.7562,0.1008 0.3745,0 0.6626,-0.0599 0.8643,-0.1798 0.2016,-0.1228 0.3024,-0.3085 0.3024,-0.557 0,-0.1871 -0.0806,-0.3465 -0.2419,-0.4781 -0.1585,-0.1345 -0.4696,-0.2924 -0.9334,-0.4736 -0.4408,-0.1667 -0.7548,-0.3115 -0.942,-0.4343 -0.1844,-0.1257 -0.3227,-0.2675 -0.4149,-0.4254 -0.0893,-0.1579 -0.1339,-0.3465 -0.1339,-0.5658 0,-0.3918 0.157,-0.7003 0.471,-0.9254 0.314,-0.2281 0.7447,-0.3421 1.292,-0.3421 0.5099,0 1.0083,0.1052 1.4952,0.3158 l -0.255,0.5921 c -0.4753,-0.1989 -0.906,-0.2983 -1.292,-0.2983 -0.34,0 -0.5964,0.0541 -0.7692,0.1623 -0.1729,0.1082 -0.2593,0.2573 -0.2593,0.4474 0,0.1286 0.0317,0.2383 0.0951,0.3289 0.0662,0.0907 0.1714,0.1769 0.3154,0.2588 0.1441,0.0819 0.4206,0.2003 0.8297,0.3553 0.5618,0.2076 0.9406,0.4166 1.1365,0.6271 0.1988,0.2106 0.2981,0.4752 0.2981,0.7939 z"
       fill="#ffffff"
       id="path90" />
    <path
       d="m 33.7051,53.9605 c -0.6857,0 -1.2172,-0.2134 -1.5946,-0.6403 -0.3745,-0.4298 -0.5617,-1.0366 -0.5617,-1.8202 0,-0.8041 0.1901,-1.4254 0.5704,-1.864 0.3831,-0.4386 0.9276,-0.6579 1.6334,-0.6579 0.2276,0 0.4552,0.0248 0.6828,0.0745 0.2275,0.0497 0.4062,0.1082 0.5358,0.1755 l -0.2204,0.6184 c -0.1584,-0.0643 -0.3313,-0.117 -0.5185,-0.1579 -0.1873,-0.0439 -0.3529,-0.0658 -0.497,-0.0658 -0.9622,0 -1.4433,0.6228 -1.4433,1.8684 0,0.5907 0.1167,1.0439 0.3501,1.3597 0.2362,0.3158 0.5848,0.4737 1.0457,0.4737 0.3947,0 0.7994,-0.0863 1.2143,-0.2588 v 0.6447 c -0.3169,0.1667 -0.7159,0.25 -1.197,0.25 z"
       fill="#ffffff"
       id="path92" />
    <path
       d="m 40.1178,51.4649 c 0,0.7836 -0.1945,1.3962 -0.5834,1.8377 -0.3889,0.4386 -0.9262,0.6579 -1.6118,0.6579 -0.4235,0 -0.7994,-0.1009 -1.1279,-0.3026 -0.3284,-0.2018 -0.5819,-0.4912 -0.7605,-0.8684 -0.1786,-0.3772 -0.2679,-0.8187 -0.2679,-1.3246 0,-0.7836 0.193,-1.3933 0.579,-1.8289 0.3861,-0.4386 0.9219,-0.6579 1.6075,-0.6579 0.6626,0 1.1884,0.2237 1.5773,0.671 0.3918,0.4474 0.5877,1.0527 0.5877,1.8158 z m -3.6083,0 c 0,0.614 0.121,1.0819 0.363,1.4035 0.242,0.3217 0.5978,0.4825 1.0674,0.4825 0.4695,0 0.8253,-0.1594 1.0673,-0.4781 0.2449,-0.3216 0.3673,-0.7909 0.3673,-1.4079 0,-0.6111 -0.1224,-1.0745 -0.3673,-1.3903 -0.242,-0.3188 -0.6006,-0.4781 -1.076,-0.4781 -0.4696,0 -0.8239,0.1564 -1.063,0.4693 -0.2391,0.3129 -0.3587,0.7792 -0.3587,1.3991 z"
       fill="#ffffff"
       id="path94" />
    <path
       d="m 42.4166,53.8728 -1.7976,-4.807 h 0.7692 l 1.0198,2.8509 c 0.2305,0.6666 0.3659,1.0994 0.4062,1.2982 h 0.0346 c 0.0316,-0.155 0.131,-0.4751 0.2981,-0.9605 0.17,-0.4883 0.5488,-1.5512 1.1365,-3.1886 h 0.7692 l -1.7977,4.807 z"
       fill="#ffffff"
       id="path96" />
    <path
       d="m 47.8138,53.9605 c -0.7,0 -1.2531,-0.2163 -1.6593,-0.6491 -0.4033,-0.4327 -0.605,-1.0336 -0.605,-1.8026 0,-0.7749 0.1873,-1.3904 0.5618,-1.8465 0.3774,-0.4562 0.8829,-0.6842 1.5167,-0.6842 0.5935,0 1.063,0.1988 1.4087,0.5965 0.3457,0.3947 0.5186,0.9166 0.5186,1.5658 v 0.4605 h -3.2625 c 0.0144,0.5643 0.1541,0.9927 0.4191,1.2851 0.2679,0.2924 0.6439,0.4386 1.1279,0.4386 0.5099,0 1.014,-0.1082 1.5124,-0.3246 v 0.6491 c -0.2535,0.1111 -0.4941,0.1901 -0.7217,0.2369 -0.2247,0.0497 -0.4969,0.0745 -0.8167,0.0745 z m -0.1944,-4.3728 c -0.3803,0 -0.6842,0.1258 -0.9118,0.3772 -0.2247,0.2515 -0.3572,0.5994 -0.3976,1.0439 h 2.4761 c 0,-0.4591 -0.1008,-0.81 -0.3025,-1.0527 -0.2016,-0.2456 -0.4897,-0.3684 -0.8642,-0.3684 z"
       fill="#ffffff"
       id="path98" />
    <path
       d="m 52.9431,48.9781 c 0.2103,0 0.399,0.0175 0.5661,0.0526 l -0.0994,0.6754 c -0.1959,-0.0438 -0.3688,-0.0657 -0.5186,-0.0657 -0.3831,0 -0.7115,0.1578 -0.9852,0.4736 -0.2708,0.3158 -0.4062,0.7091 -0.4062,1.1799 v 2.5789 h -0.7173 v -4.807 h 0.592 l 0.0821,0.8903 h 0.0346 c 0.1757,-0.3128 0.3874,-0.5541 0.6352,-0.7236 0.2477,-0.1696 0.52,-0.2544 0.8167,-0.2544 z"
       fill="#ffffff"
       id="path100" />
    <path
       d="m 58.2236,53.3596 c 0.1268,0 0.2492,-0.0087 0.3673,-0.0263 0.1181,-0.0204 0.2118,-0.0409 0.2809,-0.0614 v 0.557 c -0.0778,0.0381 -0.193,0.0688 -0.3457,0.0922 -0.1498,0.0263 -0.2852,0.0394 -0.4062,0.0394 -0.9161,0 -1.3741,-0.4897 -1.3741,-1.4693 v -2.8596 h -0.6785 v -0.3509 l 0.6785,-0.3026 0.3025,-1.0263 h 0.4148 v 1.114 h 1.3741 v 0.5658 h -1.3741 v 2.8289 c 0,0.2895 0.0677,0.5117 0.2031,0.6667 0.1354,0.155 0.3212,0.2324 0.5574,0.2324 z"
       fill="#ffffff"
       id="path102" />
    <path
       d="m 63.0634,53.8728 v -3.1096 c 0,-0.3919 -0.0879,-0.6843 -0.2636,-0.8772 -0.1757,-0.193 -0.4509,-0.2895 -0.8254,-0.2895 -0.4983,0 -0.8628,0.1374 -1.0932,0.4123 -0.2276,0.2748 -0.3414,0.7251 -0.3414,1.3508 v 2.5132 h -0.7173 v -6.8246 h 0.7173 v 2.0658 c 0,0.2486 -0.0115,0.4547 -0.0346,0.6185 h 0.0432 c 0.1412,-0.231 0.3414,-0.4123 0.6007,-0.5439 0.2621,-0.1345 0.5603,-0.2018 0.8945,-0.2018 0.579,0 1.0126,0.1404 1.3007,0.4211 0.2909,0.2778 0.4364,0.7208 0.4364,1.3289 v 3.136 z"
       fill="#ffffff"
       id="path104" />
    <path
       d="m 67.2593,53.9605 c -0.7001,0 -1.2532,-0.2163 -1.6594,-0.6491 -0.4033,-0.4327 -0.6049,-1.0336 -0.6049,-1.8026 0,-0.7749 0.1872,-1.3904 0.5617,-1.8465 0.3774,-0.4562 0.883,-0.6842 1.5168,-0.6842 0.5934,0 1.063,0.1988 1.4087,0.5965 0.3457,0.3947 0.5185,0.9166 0.5185,1.5658 v 0.4605 h -3.2625 c 0.0144,0.5643 0.1541,0.9927 0.4192,1.2851 0.2679,0.2924 0.6438,0.4386 1.1278,0.4386 0.5099,0 1.014,-0.1082 1.5124,-0.3246 v 0.6491 c -0.2535,0.1111 -0.494,0.1901 -0.7216,0.2369 -0.2247,0.0497 -0.497,0.0745 -0.8167,0.0745 z m -0.1945,-4.3728 c -0.3803,0 -0.6842,0.1258 -0.9118,0.3772 -0.2247,0.2515 -0.3572,0.5994 -0.3975,1.0439 h 2.476 c 0,-0.4591 -0.1008,-0.81 -0.3024,-1.0527 -0.2017,-0.2456 -0.4898,-0.3684 -0.8643,-0.3684 z"
       fill="#ffffff"
       id="path106" />
    <path
       d="m 76.3943,53.8728 -0.8686,-2.8202 c -0.0547,-0.1725 -0.157,-0.5643 -0.3068,-1.1754 h -0.0345 c -0.1153,0.5117 -0.2161,0.9064 -0.3025,1.1842 l -0.8945,2.8114 h -0.8297 l -1.292,-4.807 h 0.7519 c 0.3053,1.2076 0.5372,2.1272 0.6957,2.7588 0.1613,0.6315 0.2535,1.057 0.2765,1.2763 h 0.0346 c 0.0317,-0.1667 0.0821,-0.3816 0.1513,-0.6448 0.072,-0.266 0.1339,-0.4766 0.1858,-0.6315 L 74.83,49.0658 h 0.7778 l 0.847,2.7588 c 0.1613,0.5029 0.2708,0.9254 0.3284,1.2675 h 0.0346 c 0.0115,-0.1053 0.0418,-0.2675 0.0907,-0.4868 0.0519,-0.2193 0.3529,-1.3992 0.9032,-3.5395 h 0.7432 l -1.3093,4.807 z"
       fill="#ffffff"
       id="path108" />
    <path
       d="m 83.5027,51.4649 c 0,0.7836 -0.1945,1.3962 -0.5834,1.8377 -0.3889,0.4386 -0.9261,0.6579 -1.6118,0.6579 -0.4235,0 -0.7994,-0.1009 -1.1278,-0.3026 -0.3284,-0.2018 -0.5819,-0.4912 -0.7605,-0.8684 -0.1787,-0.3772 -0.268,-0.8187 -0.268,-1.3246 0,-0.7836 0.1931,-1.3933 0.5791,-1.8289 0.386,-0.4386 0.9218,-0.6579 1.6075,-0.6579 0.6626,0 1.1883,0.2237 1.5772,0.671 0.3918,0.4474 0.5877,1.0527 0.5877,1.8158 z m -3.6082,0 c 0,0.614 0.121,1.0819 0.363,1.4035 0.242,0.3217 0.5977,0.4825 1.0673,0.4825 0.4696,0 0.8254,-0.1594 1.0673,-0.4781 0.2449,-0.3216 0.3673,-0.7909 0.3673,-1.4079 0,-0.6111 -0.1224,-1.0745 -0.3673,-1.3903 -0.2419,-0.3188 -0.6006,-0.4781 -1.0759,-0.4781 -0.4696,0 -0.8239,0.1564 -1.0631,0.4693 -0.2391,0.3129 -0.3586,0.7792 -0.3586,1.3991 z"
       fill="#ffffff"
       id="path110" />
    <path
       d="m 86.9251,48.9781 c 0.2103,0 0.399,0.0175 0.5661,0.0526 l -0.0994,0.6754 c -0.1959,-0.0438 -0.3688,-0.0657 -0.5186,-0.0657 -0.3831,0 -0.7115,0.1578 -0.9852,0.4736 -0.2708,0.3158 -0.4062,0.7091 -0.4062,1.1799 v 2.5789 h -0.7173 v -4.807 h 0.592 l 0.0821,0.8903 h 0.0346 c 0.1757,-0.3128 0.3874,-0.5541 0.6352,-0.7236 0.2477,-0.1696 0.52,-0.2544 0.8167,-0.2544 z"
       fill="#ffffff"
       id="path112" />
    <path
       d="M 89.0943,53.8728 H 88.377 v -6.8246 h 0.7173 z"
       fill="#ffffff"
       id="path114" />
    <path
       d="m 93.839,53.2281 h -0.0389 c -0.3313,0.4883 -0.8267,0.7324 -1.4865,0.7324 -0.6193,0 -1.1019,-0.2149 -1.4476,-0.6447 -0.3428,-0.4298 -0.5142,-1.0409 -0.5142,-1.8333 0,-0.7924 0.1729,-1.4079 0.5186,-1.8465 0.3457,-0.4386 0.8268,-0.6579 1.4432,-0.6579 0.6425,0 1.1351,0.2368 1.4779,0.7105 h 0.0562 l -0.0303,-0.3465 -0.0173,-0.3377 v -1.9562 h 0.7174 v 6.8246 h -0.5834 z m -1.4346,0.1228 c 0.4897,0 0.8441,-0.1345 1.063,-0.4035 0.2218,-0.272 0.3327,-0.7091 0.3327,-1.3114 v -0.1535 c 0,-0.6813 -0.1123,-1.1667 -0.337,-1.4562 -0.2218,-0.2924 -0.5776,-0.4386 -1.0674,-0.4386 -0.4205,0 -0.7432,0.1667 -0.9679,0.5 -0.2218,0.3304 -0.3327,0.7983 -0.3327,1.4035 0,0.6141 0.1109,1.0775 0.3327,1.3904 0.2218,0.3128 0.5474,0.4693 0.9766,0.4693 z"
       fill="#ffffff"
       id="path116" />
    <path
       d="m 102.43,51.4649 c 0,0.7836 -0.195,1.3962 -0.584,1.8377 -0.389,0.4386 -0.926,0.6579 -1.612,0.6579 -0.4231,0 -0.799,-0.1009 -1.1274,-0.3026 -0.3284,-0.2018 -0.5819,-0.4912 -0.7605,-0.8684 -0.1787,-0.3772 -0.268,-0.8187 -0.268,-1.3246 0,-0.7836 0.193,-1.3933 0.5791,-1.8289 0.386,-0.4386 0.9218,-0.6579 1.6078,-0.6579 0.662,0 1.188,0.2237 1.577,0.671 0.392,0.4474 0.588,1.0527 0.588,1.8158 z m -3.6086,0 c 0,0.614 0.121,1.0819 0.363,1.4035 0.242,0.3217 0.5977,0.4825 1.0676,0.4825 0.469,0 0.825,-0.1594 1.067,-0.4781 0.245,-0.3216 0.367,-0.7909 0.367,-1.4079 0,-0.6111 -0.122,-1.0745 -0.367,-1.3903 -0.242,-0.3188 -0.601,-0.4781 -1.076,-0.4781 -0.4695,0 -0.8238,0.1564 -1.063,0.4693 -0.2391,0.3129 -0.3586,0.7792 -0.3586,1.3991 z"
       fill="#ffffff"
       id="path118" />
    <path
       d="m 105.826,49.6316 h -1.206 v 4.2412 h -0.717 v -4.2412 h -0.847 v -0.329 l 0.847,-0.2631 v -0.2676 c 0,-1.1813 0.509,-1.7719 1.526,-1.7719 0.25,0 0.544,0.0512 0.881,0.1535 l -0.186,0.5833 c -0.276,-0.0906 -0.513,-0.1359 -0.708,-0.1359 -0.271,0 -0.471,0.0921 -0.601,0.2763 -0.13,0.1813 -0.195,0.4737 -0.195,0.8772 v 0.3114 h 1.206 z"
       fill="#ffffff"
       id="path120" />
    <path
       d="m 108.885,53.4079 c 0,-0.1959 0.044,-0.3436 0.13,-0.443 0.089,-0.1023 0.216,-0.1535 0.38,-0.1535 0.167,0 0.297,0.0512 0.389,0.1535 0.095,0.0994 0.143,0.2471 0.143,0.443 0,0.1901 -0.048,0.3363 -0.143,0.4386 C 109.689,53.9488 109.56,54 109.395,54 c -0.147,0 -0.269,-0.0453 -0.367,-0.136 -0.095,-0.0935 -0.143,-0.2456 -0.143,-0.4561 z"
       fill="#ffffff"
       id="path122" />
    <path
       d="m 116.391,53.8728 h -0.838 L 112.1,48.4912 h -0.034 c 0.046,0.6316 0.069,1.2106 0.069,1.7369 v 3.6447 h -0.678 v -6.4123 h 0.829 l 3.444,5.3597 h 0.035 c -0.006,-0.079 -0.019,-0.3319 -0.039,-0.7588 -0.02,-0.4298 -0.027,-0.7368 -0.022,-0.921 v -3.6799 h 0.687 z"
       fill="#ffffff"
       id="path124" />
    <path
       d="m 121.65,53.8728 h -3.521 v -6.4123 h 3.521 v 0.6623 h -2.787 v 2.0658 h 2.619 v 0.6579 h -2.619 v 2.3596 h 2.787 z"
       fill="#ffffff"
       id="path126" />
    <path
       d="m 124.999,53.8728 h -0.734 v -5.75 h -2.001 V 47.4605 H 127 v 0.6623 h -2.001 z"
       fill="#ffffff"
       id="path128" />
    <path
       d="m 380.579,24.8728 -0.878,-2.8202 c -0.056,-0.1725 -0.159,-0.5643 -0.311,-1.1754 h -0.035 c -0.116,0.5117 -0.218,0.9064 -0.305,1.1842 l -0.905,2.8114 h -0.839 L 376,20.0658 h 0.76 c 0.309,1.2076 0.543,2.1272 0.704,2.7588 0.163,0.6315 0.256,1.057 0.279,1.2763 h 0.035 c 0.032,-0.1667 0.083,-0.3816 0.153,-0.6448 0.073,-0.266 0.136,-0.4766 0.188,-0.6315 l 0.878,-2.7588 h 0.787 l 0.856,2.7588 c 0.163,0.5029 0.274,0.9254 0.332,1.2675 h 0.035 c 0.012,-0.1053 0.042,-0.2675 0.092,-0.4868 0.052,-0.2193 0.356,-1.3992 0.913,-3.5395 h 0.751 l -1.324,4.807 z"
       fill="#ffffff"
       id="path166" />
    <path
       d="m 387.543,24.8728 -0.878,-2.8202 c -0.055,-0.1725 -0.159,-0.5643 -0.31,-1.1754 h -0.035 c -0.117,0.5117 -0.219,0.9064 -0.306,1.1842 l -0.905,2.8114 h -0.838 l -1.307,-4.807 h 0.76 c 0.309,1.2076 0.544,2.1272 0.704,2.7588 0.163,0.6315 0.256,1.057 0.28,1.2763 h 0.034 c 0.033,-0.1667 0.083,-0.3816 0.153,-0.6448 0.073,-0.266 0.136,-0.4766 0.188,-0.6315 l 0.878,-2.7588 h 0.787 l 0.856,2.7588 c 0.163,0.5029 0.274,0.9254 0.332,1.2675 h 0.035 c 0.012,-0.1053 0.042,-0.2675 0.092,-0.4868 0.052,-0.2193 0.357,-1.3992 0.913,-3.5395 h 0.752 l -1.324,4.807 z"
       fill="#ffffff"
       id="path168" />
    <path
       d="m 394.507,24.8728 -0.878,-2.8202 c -0.055,-0.1725 -0.159,-0.5643 -0.31,-1.1754 h -0.035 c -0.117,0.5117 -0.218,0.9064 -0.306,1.1842 l -0.904,2.8114 h -0.839 l -1.306,-4.807 h 0.76 c 0.309,1.2076 0.543,2.1272 0.703,2.7588 0.163,0.6315 0.257,1.057 0.28,1.2763 h 0.035 c 0.032,-0.1667 0.083,-0.3816 0.153,-0.6448 0.072,-0.266 0.135,-0.4766 0.188,-0.6315 l 0.878,-2.7588 h 0.786 l 0.856,2.7588 c 0.164,0.5029 0.274,0.9254 0.333,1.2675 h 0.034 c 0.012,-0.1053 0.043,-0.2675 0.092,-0.4868 0.053,-0.2193 0.357,-1.3992 0.913,-3.5395 h 0.752 l -1.324,4.807 z"
       fill="#ffffff"
       id="path170" />
    <path
       d="m 397.456,24.4079 c 0,-0.1959 0.044,-0.3436 0.132,-0.443 0.09,-0.1023 0.218,-0.1535 0.384,-0.1535 0.169,0 0.3,0.0512 0.393,0.1535 0.096,0.0994 0.144,0.2471 0.144,0.443 0,0.1901 -0.048,0.3363 -0.144,0.4386 -0.096,0.1023 -0.227,0.1535 -0.393,0.1535 -0.149,0 -0.272,-0.0453 -0.371,-0.136 -0.097,-0.0935 -0.145,-0.2456 -0.145,-0.4561 z"
       fill="#ffffff"
       id="path172" />
    <path
       d="m 403.206,24.2281 h -0.039 c -0.335,0.4883 -0.836,0.7324 -1.503,0.7324 -0.626,0 -1.114,-0.2149 -1.464,-0.6447 -0.346,-0.4298 -0.52,-1.0409 -0.52,-1.8333 0,-0.7924 0.175,-1.4079 0.525,-1.8465 0.349,-0.4386 0.836,-0.6579 1.459,-0.6579 0.649,0 1.147,0.2368 1.494,0.7105 h 0.057 l -0.031,-0.3465 -0.017,-0.3377 v -1.9562 h 0.725 v 6.8246 h -0.59 z m -1.45,0.1228 c 0.495,0 0.853,-0.1345 1.074,-0.4035 0.225,-0.272 0.337,-0.7091 0.337,-1.3114 v -0.1535 c 0,-0.6813 -0.114,-1.1667 -0.341,-1.4562 -0.224,-0.2924 -0.584,-0.4386 -1.079,-0.4386 -0.425,0 -0.752,0.1667 -0.979,0.5 -0.224,0.3304 -0.336,0.7983 -0.336,1.4035 0,0.6141 0.112,1.0775 0.336,1.3904 0.224,0.3128 0.554,0.4693 0.988,0.4693 z"
       fill="#ffffff"
       id="path174" />
    <path
       d="m 409.567,22.4649 c 0,0.7836 -0.196,1.3962 -0.589,1.8377 -0.394,0.4386 -0.937,0.6579 -1.63,0.6579 -0.428,0 -0.808,-0.1009 -1.14,-0.3026 -0.332,-0.2018 -0.589,-0.4912 -0.769,-0.8684 -0.181,-0.3772 -0.271,-0.8187 -0.271,-1.3246 0,-0.7836 0.195,-1.3933 0.585,-1.8289 0.391,-0.4386 0.932,-0.6579 1.626,-0.6579 0.669,0 1.201,0.2237 1.594,0.671 0.396,0.4474 0.594,1.0527 0.594,1.8158 z m -3.648,0 c 0,0.614 0.123,1.0819 0.367,1.4035 0.245,0.3217 0.605,0.4825 1.079,0.4825 0.475,0 0.835,-0.1594 1.08,-0.4781 0.247,-0.3216 0.371,-0.7909 0.371,-1.4079 0,-0.6111 -0.124,-1.0745 -0.371,-1.3903 -0.245,-0.3188 -0.608,-0.4781 -1.088,-0.4781 -0.475,0 -0.833,0.1564 -1.075,0.4693 -0.242,0.3129 -0.363,0.7792 -0.363,1.3991 z"
       fill="#ffffff"
       id="path176" />
    <path
       d="m 412.39,24.3596 c 0.128,0 0.252,-0.0087 0.371,-0.0263 0.12,-0.0204 0.214,-0.0409 0.284,-0.0614 v 0.557 c -0.078,0.0381 -0.195,0.0688 -0.349,0.0922 -0.152,0.0263 -0.289,0.0394 -0.411,0.0394 -0.926,0 -1.389,-0.4897 -1.389,-1.4693 v -2.8596 h -0.686 v -0.3509 l 0.686,-0.3026 0.305,-1.0263 h 0.42 v 1.114 h 1.389 v 0.5658 h -1.389 v 2.8289 c 0,0.2895 0.068,0.5117 0.205,0.6667 0.137,0.155 0.325,0.2324 0.564,0.2324 z"
       fill="#ffffff"
       id="path178" />
    <path
       d="m 417.283,24.8728 v -3.1096 c 0,-0.3919 -0.089,-0.6843 -0.266,-0.8772 -0.178,-0.193 -0.456,-0.2895 -0.835,-0.2895 -0.501,0 -0.868,0.136 -1.101,0.4079 -0.233,0.2719 -0.349,0.7207 -0.349,1.3465 v 2.5219 h -0.726 v -4.807 h 0.59 l 0.118,0.6579 h 0.035 c 0.149,-0.2369 0.357,-0.4196 0.625,-0.5483 0.268,-0.1315 0.566,-0.1973 0.896,-0.1973 0.576,0 1.01,0.1403 1.302,0.421 0.291,0.2778 0.436,0.7237 0.436,1.3377 v 3.136 z"
       fill="#ffffff"
       id="path180" />
    <path
       d="m 421.526,24.9605 c -0.708,0 -1.267,-0.2163 -1.678,-0.6491 -0.408,-0.4327 -0.612,-1.0336 -0.612,-1.8026 0,-0.7749 0.19,-1.3904 0.568,-1.8465 0.382,-0.4562 0.893,-0.6842 1.534,-0.6842 0.6,0 1.074,0.1988 1.424,0.5965 0.35,0.3947 0.524,0.9166 0.524,1.5658 v 0.4605 h -3.298 c 0.014,0.5643 0.155,0.9927 0.423,1.2851 0.271,0.2924 0.651,0.4386 1.141,0.4386 0.515,0 1.025,-0.1082 1.529,-0.3246 v 0.6491 c -0.256,0.1111 -0.5,0.1901 -0.73,0.2369 -0.227,0.0497 -0.502,0.0745 -0.825,0.0745 z m -0.197,-4.3728 c -0.385,0 -0.692,0.1258 -0.922,0.3772 -0.227,0.2515 -0.361,0.5994 -0.402,1.0439 h 2.504 c 0,-0.4591 -0.102,-0.81 -0.306,-1.0527 -0.204,-0.2456 -0.495,-0.3684 -0.874,-0.3684 z"
       fill="#ffffff"
       id="path182" />
    <path
       d="m 426.074,24.3596 c 0.128,0 0.252,-0.0087 0.371,-0.0263 0.12,-0.0204 0.214,-0.0409 0.284,-0.0614 v 0.557 c -0.079,0.0381 -0.195,0.0688 -0.349,0.0922 -0.152,0.0263 -0.289,0.0394 -0.411,0.0394 -0.926,0 -1.389,-0.4897 -1.389,-1.4693 v -2.8596 h -0.686 v -0.3509 l 0.686,-0.3026 0.305,-1.0263 h 0.42 v 1.114 h 1.389 v 0.5658 h -1.389 v 2.8289 c 0,0.2895 0.068,0.5117 0.205,0.6667 0.137,0.155 0.325,0.2324 0.564,0.2324 z"
       fill="#ffffff"
       id="path184" />
    <path
       d="m 429.604,24.9605 c -0.693,0 -1.231,-0.2134 -1.612,-0.6403 -0.379,-0.4298 -0.568,-1.0366 -0.568,-1.8202 0,-0.8041 0.192,-1.4254 0.577,-1.864 0.387,-0.4386 0.937,-0.6579 1.651,-0.6579 0.23,0 0.46,0.0248 0.69,0.0745 0.23,0.0497 0.411,0.1082 0.542,0.1755 l -0.223,0.6184 c -0.16,-0.0643 -0.335,-0.117 -0.524,-0.1579 -0.189,-0.0439 -0.357,-0.0658 -0.502,-0.0658 -0.973,0 -1.46,0.6228 -1.46,1.8684 0,0.5907 0.118,1.0439 0.354,1.3597 0.239,0.3158 0.591,0.4737 1.057,0.4737 0.4,0 0.809,-0.0863 1.228,-0.2588 v 0.6447 c -0.32,0.1667 -0.724,0.25 -1.21,0.25 z"
       fill="#ffffff"
       id="path186" />
    <path
       d="m 436.088,22.4649 c 0,0.7836 -0.197,1.3962 -0.59,1.8377 -0.393,0.4386 -0.937,0.6579 -1.63,0.6579 -0.428,0 -0.808,-0.1009 -1.14,-0.3026 -0.332,-0.2018 -0.589,-0.4912 -0.769,-0.8684 -0.181,-0.3772 -0.271,-0.8187 -0.271,-1.3246 0,-0.7836 0.195,-1.3933 0.585,-1.8289 0.391,-0.4386 0.933,-0.6579 1.626,-0.6579 0.67,0 1.201,0.2237 1.594,0.671 0.397,0.4474 0.595,1.0527 0.595,1.8158 z m -3.649,0 c 0,0.614 0.123,1.0819 0.367,1.4035 0.245,0.3217 0.605,0.4825 1.08,0.4825 0.474,0 0.834,-0.1594 1.079,-0.4781 0.247,-0.3216 0.371,-0.7909 0.371,-1.4079 0,-0.6111 -0.124,-1.0745 -0.371,-1.3903 -0.245,-0.3188 -0.608,-0.4781 -1.088,-0.4781 -0.475,0 -0.833,0.1564 -1.075,0.4693 -0.242,0.3129 -0.363,0.7792 -0.363,1.3991 z"
       fill="#ffffff"
       id="path188" />
    <path
       d="m 440.64,24.8728 v -3.1096 c 0,-0.3919 -0.089,-0.6843 -0.266,-0.8772 -0.178,-0.193 -0.456,-0.2895 -0.835,-0.2895 -0.501,0 -0.868,0.136 -1.101,0.4079 -0.233,0.2719 -0.349,0.7207 -0.349,1.3465 v 2.5219 h -0.726 v -4.807 h 0.59 l 0.118,0.6579 h 0.035 c 0.149,-0.2369 0.357,-0.4196 0.625,-0.5483 0.268,-0.1315 0.566,-0.1973 0.896,-0.1973 0.576,0 1.01,0.1403 1.302,0.421 0.291,0.2778 0.436,0.7237 0.436,1.3377 v 3.136 z"
       fill="#ffffff"
       id="path190" />
    <path
       d="m 445.018,20.6316 h -1.219 v 4.2412 h -0.725 v -4.2412 h -0.857 v -0.329 l 0.857,-0.2631 v -0.2676 c 0,-1.1813 0.514,-1.7719 1.542,-1.7719 0.253,0 0.551,0.0512 0.891,0.1535 l -0.188,0.5833 c -0.279,-0.0906 -0.518,-0.1359 -0.716,-0.1359 -0.274,0 -0.476,0.0921 -0.607,0.2763 -0.131,0.1813 -0.197,0.4737 -0.197,0.8772 v 0.3114 h 1.219 z"
       fill="#ffffff"
       id="path192" />
    <path
       d="m 445.787,24.4079 c 0,-0.1959 0.044,-0.3436 0.131,-0.443 0.09,-0.1023 0.218,-0.1535 0.384,-0.1535 0.169,0 0.301,0.0512 0.394,0.1535 0.096,0.0994 0.144,0.2471 0.144,0.443 0,0.1901 -0.048,0.3363 -0.144,0.4386 C 446.6,24.9488 446.469,25 446.302,25 c -0.148,0 -0.272,-0.0453 -0.371,-0.136 -0.096,-0.0935 -0.144,-0.2456 -0.144,-0.4561 z"
       fill="#ffffff"
       id="path194" />
    <path
       d="m 451.554,24.8728 v -3.1096 c 0,-0.3919 -0.089,-0.6843 -0.266,-0.8772 -0.178,-0.193 -0.456,-0.2895 -0.835,-0.2895 -0.501,0 -0.868,0.136 -1.101,0.4079 -0.233,0.2719 -0.349,0.7207 -0.349,1.3465 v 2.5219 h -0.726 v -4.807 h 0.59 l 0.118,0.6579 h 0.035 c 0.149,-0.2369 0.357,-0.4196 0.625,-0.5483 0.268,-0.1315 0.566,-0.1973 0.895,-0.1973 0.577,0 1.011,0.1403 1.302,0.421 0.292,0.2778 0.437,0.7237 0.437,1.3377 v 3.136 z"
       fill="#ffffff"
       id="path196" />
    <path
       d="m 455.796,24.9605 c -0.707,0 -1.267,-0.2163 -1.677,-0.6491 -0.408,-0.4327 -0.612,-1.0336 -0.612,-1.8026 0,-0.7749 0.189,-1.3904 0.568,-1.8465 0.382,-0.4562 0.893,-0.6842 1.534,-0.6842 0.6,0 1.074,0.1988 1.424,0.5965 0.349,0.3947 0.524,0.9166 0.524,1.5658 v 0.4605 h -3.298 c 0.014,0.5643 0.155,0.9927 0.423,1.2851 0.271,0.2924 0.651,0.4386 1.141,0.4386 0.515,0 1.025,-0.1082 1.529,-0.3246 v 0.6491 c -0.256,0.1111 -0.5,0.1901 -0.73,0.2369 -0.227,0.0497 -0.502,0.0745 -0.826,0.0745 z M 455.6,20.5877 c -0.385,0 -0.692,0.1258 -0.922,0.3772 -0.227,0.2515 -0.361,0.5994 -0.402,1.0439 h 2.503 c 0,-0.4591 -0.101,-0.81 -0.305,-1.0527 -0.204,-0.2456 -0.495,-0.3684 -0.874,-0.3684 z"
       fill="#ffffff"
       id="path198" />
    <path
       d="m 460.345,24.3596 c 0.128,0 0.252,-0.0087 0.371,-0.0263 0.119,-0.0204 0.214,-0.0409 0.284,-0.0614 v 0.557 c -0.079,0.0381 -0.195,0.0688 -0.35,0.0922 -0.151,0.0263 -0.288,0.0394 -0.41,0.0394 -0.926,0 -1.39,-0.4897 -1.39,-1.4693 v -2.8596 h -0.686 v -0.3509 l 0.686,-0.3026 0.306,-1.0263 h 0.42 v 1.114 h 1.389 v 0.5658 h -1.389 v 2.8289 c 0,0.2895 0.068,0.5117 0.205,0.6667 0.137,0.155 0.325,0.2324 0.564,0.2324 z"
       fill="#ffffff"
       id="path200" />
    <path
       d="m 191.416,31.4473 c 0.445,-0.4763 0.884,-0.9848 1.313,-1.522 0.598,-0.7478 1.176,-1.5503 1.724,-2.4027 3.993,-6.2072 4.86,-12.6345 1.938,-14.3579 -2.924,-1.7231 -8.53,1.9117 -12.522,8.1186 -0.466,0.724 -0.889,1.452 -1.268,2.1754 -0.304,0.5784 -0.58,1.1532 -0.828,1.7224 -0.115,0.2648 -0.013,0.5755 0.236,0.7228 z"
       fill="#a4ecfc"
       id="path202" />
    <path
       d="m 191.801,28.8492 c 0.836,-0.8967 1.647,-1.9343 2.386,-3.0838 3.137,-4.8757 3.818,-9.9268 1.522,-11.2803 -2.296,-1.3536 -6.7,1.5014 -9.838,6.3771 -0.659,1.0253 -1.209,2.057 -1.646,3.0617 -0.092,0.2086 -0.011,0.4521 0.185,0.568 z"
       fill="#4adafa"
       id="path204" />
    <path
       d="m 186.053,32.1946 c 0,0 -2.859,3.5869 -3.587,6.0595 -0.73,2.4728 -1.923,4.4561 -2.934,5.6187 -1.011,1.1626 -2.168,3.1309 -2.772,4.7852 -0.604,1.6542 -1.806,4.3011 -2.738,5.1767 -0.932,0.8742 -2.066,2.8549 -2.249,3.8245 -0.184,0.9695 -1.239,2.6619 -1.689,3.146 -0.449,0.4842 -2.086,3.1397 -2.456,4.3367 -0.37,1.1956 0.576,-0.1525 1.122,-0.5056 0.546,-0.3531 1.576,-1.0977 1.971,-2.5385 0.396,-1.441 1.065,-3.0585 2.06,-4.0445 0.996,-0.9859 2.326,-2.5575 3.01,-4.5004 0.685,-1.943 2.235,-4.5006 3.406,-5.9415 1.17,-1.4421 2.612,-3.5054 3.279,-5.5705 0.666,-2.0634 1.611,-3.4115 2.829,-4.9376 1.219,-1.5246 2.091,-4.2489 2.091,-4.2489 z"
       fill="url(#paint8_linear)"
       id="path206" />
    <path
       d="m 182.046,30.0232 c 0,0 -2.859,3.5869 -3.587,6.0595 -0.73,2.4728 -1.923,4.4561 -2.934,5.6187 -1.011,1.1627 -2.167,3.1307 -2.772,4.7852 -0.604,1.6542 -1.806,4.3011 -2.738,5.1767 -0.932,0.8742 -2.066,2.8549 -2.249,3.8245 -0.184,0.9696 -1.239,2.6619 -1.688,3.146 -0.45,0.4842 -2.087,3.1397 -2.457,4.3367 -0.369,1.197 0.576,-0.1525 1.122,-0.5056 0.547,-0.353 1.577,-1.0977 1.971,-2.5385 0.396,-1.441 1.065,-3.0585 2.06,-4.0444 0.996,-0.986 2.326,-2.5576 3.011,-4.5005 0.684,-1.9429 2.234,-4.5006 3.406,-5.9415 1.169,-1.4421 2.611,-3.5054 3.278,-5.5705 0.666,-2.0634 1.611,-3.4115 2.83,-4.9376 1.218,-1.5246 2.09,-4.2489 2.09,-4.2489 z"
       fill="url(#paint9_linear)"
       id="path208" />
    <path
       d="m 190.914,38.7444 c 1.356,-0.8326 3.922,-2.6895 5.036,-5.1725 l -1.965,-0.508 c -1.011,2.2513 -3.348,3.8404 -4.427,4.4817 -0.089,0.0539 0.517,0.7182 1.356,1.1988 z"
       fill="url(#paint10_linear)"
       id="path210" />
    <path
       d="m 190.914,38.7444 c 1.356,-0.8326 3.922,-2.6895 5.036,-5.1725 l -1.965,-0.508 c -1.011,2.2513 -3.348,3.8404 -4.427,4.4817 -0.089,0.0539 0.517,0.7182 1.356,1.1988 z"
       fill="url(#paint11_linear)"
       id="path212" />
    <path
       d="m 189.573,37.5377 1.064,0.9459 c -0.287,0.3601 -2.352,1.76 -1.735,6.3972 l -1.483,0.9316 -4.636,-4.1258 c -0.163,-0.1448 -0.138,-0.3486 0.066,-0.4597 z"
       fill="#522cd5"
       id="path214" />
    <path
       d="m 189.296,44.7676 c 0.045,0.2699 -0.095,0.4066 -0.372,0.5592 l -0.982,0.5507 c -0.152,0.0839 -0.376,0.0621 -0.498,-0.0455 l -0.023,-0.0211 c -0.139,-0.1225 -0.112,-0.2994 0.061,-0.3934 l 0.778,-0.4652 c 0.319,-0.1757 0.487,-0.3177 0.433,-0.6793 -0.319,-2.1346 -0.483,-4.9002 1.495,-6.188 l 0.737,0.6549 c -0.956,0.7088 -2.21,2.4715 -1.629,6.0277 z"
       fill="url(#paint12_linear)"
       id="path216" />
    <path
       d="m 188.682,44.5435 c -0.052,0.176 -0.199,0.2849 -0.422,0.4074 l -0.778,0.4652 c -0.173,0.094 -0.2,0.2709 -0.062,0.3934 l 0.023,0.0211 c 0.123,0.109 0.347,0.1294 0.499,0.0455 l 0.982,-0.5507 c 0.158,-0.0862 0.27,-0.1689 0.33,-0.2744 z"
       fill="url(#paint13_radial)"
       id="path218" />
    <path
       d="m 187.613,36.5412 c 1.491,-0.5566 4.364,-1.8852 5.936,-4.1081 l -1.833,-0.8769 c -1.425,2.0153 -4.024,3.1257 -5.206,3.5466 -0.097,0.0363 0.37,0.8044 1.103,1.4384 z"
       fill="url(#paint14_linear)"
       id="path220" />
    <path
       d="m 187.613,36.5412 c 1.491,-0.5566 4.364,-1.8852 5.936,-4.1081 l -1.833,-0.8769 c -1.425,2.0153 -4.024,3.1257 -5.206,3.5466 -0.097,0.0363 0.37,0.8044 1.103,1.4384 z"
       fill="url(#paint15_linear)"
       id="path222" />
    <path
       d="m 186.528,35.0974 0.862,1.1326 c -0.351,0.2988 -2.661,0.189 -3.437,4.8312 l -1.335,1.4722 -3.651,-4.7999 c -0.033,-0.0427 0.031,-0.2376 0.251,-0.3079 z"
       fill="#522cd5"
       id="path224" />
    <path
       d="m 184.875,42.1068 c -0.008,0.2743 -0.187,0.4321 -0.487,0.5279 l -1.064,0.3331 c -0.164,0.0528 -0.38,-0.0103 -0.48,-0.1411 l -0.704,-0.9255 c -0.112,-0.1476 -0.051,-0.3148 0.135,-0.3749 l 0.931,-0.3375 c 0.346,-0.1109 0.539,-0.2176 0.554,-0.5831 0.098,-2.1566 0.936,-4.1551 3.126,-5.0387 l 0.736,0.9669 c -1.074,0.5163 -2.636,1.9724 -2.747,5.5729 z"
       fill="url(#paint16_linear)"
       id="path226" />
    <path
       d="m 182.844,42.8281 c 0.099,0.1293 0.314,0.194 0.48,0.1411 l 1.064,-0.3331 c 0.167,-0.0532 0.296,-0.1267 0.378,-0.2282 l -1.116,-1.4638 c -0.092,0.1158 -0.24,0.1821 -0.445,0.2461 l -0.93,0.3375 c -0.188,0.0603 -0.248,0.2273 -0.136,0.3749 z"
       fill="url(#paint17_radial)"
       id="path228" />
    <path
       d="m 210.115,33.4274 -0.659,-1.6157 c -1.691,0.6902 -3.245,0.8664 -4.615,0.5265 -1.206,-0.2997 -2.304,-1.0077 -3.262,-2.1041 l -1.314,1.1487 c 1.783,2.0382 4.938,4.047 9.85,2.0446 z"
       fill="#8a6fe8"
       id="path230" />
    <path
       d="m 187.434,33.3543 -1.647,-0.9512 c -0.13,-0.0763 -0.157,-0.2444 -0.053,-0.3445 l 1.152,-1.1121 c 0.075,-0.0718 0.195,-0.0841 0.289,-0.0299 l 0.983,0.568 c 0.095,0.0541 0.14,0.1623 0.108,0.2598 l -0.49,1.4954 c -0.044,0.1333 -0.21,0.1907 -0.342,0.1145 z"
       fill="#0b7891"
       id="path232" />
    <path
       d="m 188.303,31.8406 -1.551,-0.8956 c -0.175,-0.1004 -0.234,-0.3111 -0.133,-0.4696 l 2.634,-4.1851 c 0.1,-0.1599 0.321,-0.2076 0.495,-0.1072 l 1.552,0.8956 c 0.174,0.1004 0.233,0.3111 0.132,0.4696 l -2.633,4.1851 c -0.101,0.1599 -0.323,0.2078 -0.496,0.1072 z"
       fill="#ffffff"
       id="path234" />
    <path
       d="m 183.38,31.0377 -1.647,-0.9512 c -0.131,-0.0764 -0.157,-0.2444 -0.053,-0.3446 l 1.152,-1.112 c 0.075,-0.0719 0.194,-0.0841 0.289,-0.03 l 0.983,0.568 c 0.095,0.0541 0.14,0.1624 0.107,0.2598 l -0.49,1.4955 c -0.043,0.1333 -0.211,0.1894 -0.341,0.1145 z"
       fill="#0b7891"
       id="path236" />
    <path
       d="m 184.247,29.5239 -1.551,-0.8956 c -0.174,-0.1004 -0.233,-0.3111 -0.132,-0.4696 l 2.633,-4.1851 c 0.101,-0.1599 0.322,-0.2076 0.496,-0.1072 l 1.551,0.8957 c 0.174,0.1004 0.234,0.3111 0.132,0.4695 l -2.633,4.1852 c -0.099,0.1582 -0.321,0.2075 -0.496,0.1071 z"
       fill="#ffffff"
       id="path238" />
    <path
       d="m 187.244,24.761 -0.502,-0.2897 -2.588,4.1132 c -0.101,0.1599 -0.322,0.2076 -0.496,0.1072 l -1.05,-0.606 -0.046,0.0721 c -0.1,0.1599 -0.04,0.3704 0.133,0.4696 l 1.551,0.8957 c 0.174,0.1003 0.395,0.0526 0.496,-0.1072 l 2.633,-4.1852 c 0.103,-0.1586 0.044,-0.3693 -0.131,-0.4697 z"
       fill="#60defa"
       id="path240" />
    <path
       d="m 191.301,27.0786 -0.503,-0.2897 -2.588,4.1132 c -0.101,0.1599 -0.322,0.2076 -0.496,0.1072 l -0.743,-0.4294 -0.307,-0.1766 -0.045,0.0722 c -0.101,0.1598 -0.041,0.3704 0.132,0.4695 l 1.551,0.8957 c 0.174,0.1004 0.395,0.0527 0.496,-0.1072 l 2.633,-4.1851 c 0.103,-0.1601 0.042,-0.3706 -0.13,-0.4698 z"
       fill="#60defa"
       id="path242" />
    <path
       d="m 191.416,31.4474 c 0.524,-0.5602 1.038,-1.1635 1.539,-1.8064 0.519,-0.6654 -9.827,-7.1593 -10.153,-6.5605 -0.385,0.7055 -0.728,1.4068 -1.029,2.0993 -0.115,0.2648 -0.013,0.5755 0.236,0.7227 z"
       fill="#179bb8"
       id="path244" />
    <path
       d="m 210.355,32.7776 0.647,-1.6417 c 0.17,-0.4383 -0.048,-0.9317 -0.487,-1.1015 -0.438,-0.1697 -0.931,0.0487 -1.101,0.4871 l -0.663,1.6825 z"
       fill="#8a6fe8"
       id="path246" />
    <path
       d="m 210.076,34.9521 c 0.976,-0.1349 1.657,-1.0348 1.522,-2.0101 -0.135,-0.9753 -1.034,-1.6567 -2.01,-1.5218 -0.975,0.1348 -1.656,1.0347 -1.522,2.01 0.135,0.9753 1.035,1.6567 2.01,1.5219 z"
       fill="url(#paint18_radial)"
       id="path248" />
    <path
       d="m 206.472,37.3939 -6.774,-4.2194 0.512,-0.8218 6.773,4.2194 c 0.169,0.1054 0.391,0.0533 0.495,-0.1156 l 1.48,-2.3762 0.821,0.5116 -1.479,2.3762 c -0.386,0.6227 -1.207,0.8134 -1.828,0.4258 z"
       fill="#d2f6fe"
       id="path250" />
    <path
       d="m 208.827,35.3205 -0.133,-0.0832 c -0.432,-0.2693 -0.565,-0.8375 -0.296,-1.2696 l 1.776,-2.852 c 0.27,-0.4321 0.838,-0.565 1.27,-0.2957 l 0.133,0.0832 c 0.432,0.2693 0.565,0.8375 0.296,1.2695 l -1.776,2.8521 c -0.27,0.4321 -0.838,0.565 -1.27,0.2957 z"
       fill="#77e3fb"
       id="path252" />
    <path
       d="m 209.584,35.1774 -0.738,-0.4773 c -0.362,-0.2333 -0.466,-0.7168 -0.232,-1.078 l 0.071,-0.1115 c 0.234,-0.3613 0.717,-0.4654 1.079,-0.2321 l 0.738,0.4774 c 0.361,0.2333 0.465,0.7167 0.232,1.078 l -0.072,0.1115 c -0.233,0.3627 -0.717,0.4668 -1.078,0.232 z"
       fill="#8a6fe8"
       id="path254" />
    <path
       d="m 210.648,34.5769 -0.738,-0.4774 c -0.361,-0.2333 -0.465,-0.7167 -0.232,-1.078 L 209.75,32.91 c 0.233,-0.3613 0.717,-0.4654 1.078,-0.232 l 0.738,0.4773 c 0.362,0.2333 0.466,0.7167 0.232,1.078 l -0.072,0.1115 c -0.233,0.3627 -0.716,0.4654 -1.078,0.2321 z"
       fill="#8a6fe8"
       id="path256" />
    <path
       d="m 211.682,33.9719 -0.738,-0.4773 c -0.362,-0.2334 -0.466,-0.7168 -0.232,-1.0781 l 0.072,-0.1115 c 0.233,-0.3613 0.716,-0.4653 1.078,-0.232 l 0.738,0.4773 c 0.361,0.2333 0.465,0.7168 0.232,1.0781 l -0.072,0.1115 c -0.233,0.3627 -0.716,0.4667 -1.078,0.232 z"
       fill="#8a6fe8"
       id="path258" />
    <path
       d="m 202.793,31.7875 c 1.8,-1.7038 2.473,-3.5408 2.473,-3.5408 l 0.479,0.2986 0.017,-0.0023 c 1.646,-4.1617 0.143,-9.034 -3.789,-11.489 -4.429,-2.7666 -10.263,-1.4194 -13.03,3.0102 -2.767,4.4297 -1.419,10.2634 3.01,13.03 3.495,2.1835 7.865,1.8041 10.912,-0.6286 0.116,-0.1133 0.262,-0.3523 -0.072,-0.6781 z"
       fill="url(#paint19_radial)"
       id="path260" />
    <path
       d="m 202.813,31.7989 c 1.778,-1.6822 2.456,-3.4955 2.472,-3.5391 l -8.321,-5.1973 c 0,0 -0.491,-0.3814 -0.791,0.0978 -0.299,0.4793 -1.124,1.8436 -2.058,3.3404 -0.192,0.3084 -0.033,0.6139 0.164,0.7369 0.002,0.0012 8.1,4.7686 8.534,4.5613 z"
       fill="url(#paint20_radial)"
       id="path262" />
    <path
       d="m 197.96,28.7673 c 0,0 1.912,-0.2142 2.279,-0.245 0.367,-0.0306 0.591,0.0943 0.697,0.4359 0.106,0.3401 0.762,2.1436 0.762,2.1436 z"
       fill="#a08be8"
       id="path264" />
    <path
       d="m 202.796,32.5496 c 0,0 0.489,-0.2879 0.016,-0.7504 0.002,-0.0016 -8.176,-5.1157 -8.176,-5.1157 -0.191,-0.1195 -0.364,-0.386 -0.271,-0.5834 -0.082,0.1329 -0.166,0.2662 -0.25,0.4023 -0.175,0.2788 -0.059,0.5561 0.112,0.6984 0.017,0.0133 0.035,0.028 0.054,0.0397 l 0.559,0.349 z"
       fill="#512bd4"
       id="path266" />
    <path
       d="m 201.35,33.4591 -13.829,-8.6388 c -0.02,0.7208 0.044,1.4402 0.187,2.1428 l 11.634,7.2671 c 0.693,-0.1802 1.367,-0.4379 2.008,-0.7711 z"
       fill="#d0c5f3"
       id="path268" />
    <path
       d="m 201.382,15.9283 1.572,0.9314 0.735,-1.7453 -1.128,-0.668 z"
       fill="#8a6fe8"
       id="path270" />
    <path
       d="m 203.727,15.2981 c 0.712,-0.0984 1.209,-0.7551 1.11,-1.4668 -0.098,-0.7117 -0.755,-1.2089 -1.466,-1.1105 -0.712,0.0984 -1.209,0.7551 -1.111,1.4668 0.099,0.7117 0.755,1.2089 1.467,1.1105 z"
       fill="#d8cff7"
       id="path272" />
    <path
       d="m 200.196,16.5586 c -0.07,-0.0418 -0.092,-0.1375 -0.041,-0.2032 0.526,-0.6965 1.502,-0.9029 2.27,-0.4469 0.768,0.456 1.058,1.4103 0.698,2.2053 -0.034,0.0748 -0.127,0.1034 -0.197,0.0602 z"
       fill="url(#paint21_radial)"
       id="path274" />
    <path
       d="m 198.405,26.4919 c 0.356,-0.5882 0.36,-1.2362 0.01,-1.4475 -0.349,-0.2112 -0.921,0.0944 -1.276,0.6826 -0.355,0.5882 -0.36,1.2362 -0.01,1.4475 0.349,0.2112 0.921,-0.0944 1.276,-0.6826 z"
       fill="#512bd4"
       id="path276" />
    <path
       d="m 203.449,29.6596 c 0.372,-0.5774 0.396,-1.225 0.053,-1.4466 -0.343,-0.2216 -0.924,0.0669 -1.296,0.6442 -0.373,0.5774 -0.397,1.225 -0.054,1.4466 0.344,0.2216 0.924,-0.0669 1.297,-0.6442 z"
       fill="#512bd4"
       id="path278" />
    <path
       d="m 198.096,25.5799 c 0.208,-0.0488 0.415,0.0041 0.573,0.1238 -0.016,0.2455 -0.105,0.5238 -0.265,0.7906 -0.1,0.1669 -0.219,0.3093 -0.343,0.4252 -0.234,-0.0678 -0.425,-0.2561 -0.483,-0.5085 -0.086,-0.3743 0.146,-0.7454 0.518,-0.8311 z"
       fill="#8065e0"
       id="path280" />
    <path
       d="m 203.166,28.7 c 0.208,-0.0488 0.417,0.0039 0.575,0.1236 -0.013,0.2579 -0.111,0.5577 -0.294,0.8404 -0.093,0.1445 -0.2,0.2709 -0.312,0.375 -0.235,-0.0662 -0.428,-0.2555 -0.486,-0.5107 -0.088,-0.3713 0.146,-0.7426 0.517,-0.8283 z"
       fill="#8065e0"
       id="path282" />
    <path
       d="m 199.015,34.9433 -17.04,-10.7156 c -0.339,-0.2121 -0.44,-0.6587 -0.227,-0.9973 l 0.959,-1.5202 c 0.212,-0.3369 0.659,-0.4387 0.996,-0.2263 l 18.319,11.5116 c 0.487,0.3074 0.402,0.7455 -0.123,0.9826 l -2.201,1.011 c -0.222,0.1008 -0.478,0.0832 -0.683,-0.0458 z"
       fill="#27bee0"
       id="path284" />
    <path
       d="M 202.02,32.9942 183.701,21.4826 c -0.337,-0.2123 -0.784,-0.1119 -0.996,0.2264 l -0.121,0.1913 c 0.222,-0.1165 0.496,-0.1158 0.722,0.0275 l 18.32,11.5116 c 0.242,0.1524 0.343,0.3388 0.319,0.5167 0.483,-0.2414 0.547,-0.6637 0.075,-0.9619 z"
       fill="#a4ecfc"
       id="path286" />
    <path
       d="m 199.532,31.7435 -2.588,-1.6163 -1.43,2.2896 2.587,1.6163 z"
       fill="#512bd4"
       id="path288" />
    <path
       d="m 196.422,31.848 c -0.019,-0.0116 -0.032,-0.0283 -0.037,-0.0504 -0.006,-0.022 -0.003,-0.0424 0.009,-0.0597 0.012,-0.0187 0.028,-0.031 0.051,-0.0355 0.022,-0.0045 0.042,-0.0016 0.062,0.0113 0.021,0.0128 0.033,0.0297 0.038,0.0519 0.005,0.0219 0.003,0.0423 -0.009,0.061 -0.012,0.0187 -0.029,0.0296 -0.051,0.0341 -0.022,0.0031 -0.043,-0.0012 -0.063,-0.0127 z"
       fill="#ffffff"
       id="path290" />
    <path
       d="m 197.211,32.326 -0.127,-0.0797 -0.004,-0.7376 c 0,-0.0186 0.002,-0.0374 0.005,-0.055 l -0.003,-0.0025 c -0.008,0.0168 -0.026,0.0508 -0.058,0.101 l -0.294,0.4712 -0.113,-0.0702 0.449,-0.7187 0.136,0.0842 0.002,0.7179 c 0,0.0301 0,0.0501 -0.002,0.0603 l 0.002,0.0012 c 0.008,-0.0212 0.027,-0.0538 0.055,-0.0991 l 0.289,-0.4635 0.113,0.0703 z"
       fill="#ffffff"
       id="path292" />
    <path
       d="m 197.759,32.668 -0.394,-0.2461 0.449,-0.7186 0.378,0.2368 -0.064,0.1017 -0.261,-0.1641 -0.128,0.2036 0.241,0.1512 -0.063,0.1003 -0.241,-0.1512 -0.133,0.2129 0.278,0.1734 z"
       fill="#ffffff"
       id="path294" />
    <path
       d="m 198.704,32.3986 -0.202,-0.1251 -0.385,0.6169 -0.116,-0.0727 0.385,-0.6169 -0.2,-0.1254 0.063,-0.1017 0.518,0.3246 z"
       fill="#ffffff"
       id="path296" />
    <path
       d="m 181.875,18.2274 0.479,1.6777 c 1.758,-0.5019 3.321,-0.5077 4.646,-0.0199 1.165,0.4297 2.18,1.2522 3.013,2.4474 l 1.43,-0.9988 c -1.55,-2.2205 -4.467,-4.5611 -9.568,-3.1064 z"
       fill="url(#paint22_linear)"
       id="path298" />
    <path
       d="m 181.303,19.7257 -0.946,1.3381 c -0.249,0.3578 -0.161,0.8506 0.197,1.1001 0.358,0.2495 0.851,0.1614 1.1,-0.1964 l 0.969,-1.3729 z"
       fill="#8a6fe8"
       id="path300" />
    <path
       d="m 181.284,18.0917 -1.635,0.113 c -0.436,0.0331 -0.761,0.4128 -0.728,0.8489 0.033,0.436 0.412,0.7612 0.847,0.7283 l 1.676,-0.1159 z"
       fill="#8a6fe8"
       id="path302" />
    <path
       d="m 181.361,19.2285 -1.631,0.1539 c -0.435,0.0443 -0.752,0.4315 -0.707,0.866 0.044,0.4345 0.431,0.7515 0.866,0.7072 l 1.673,-0.1584 z"
       fill="#8a6fe8"
       id="path304" />
    <path
       d="m 181.831,17.4538 -1.625,-0.2087 c -0.434,-0.0531 -0.828,0.256 -0.881,0.6896 -0.053,0.4337 0.256,0.8273 0.69,0.8803 l 1.666,0.2132 z"
       fill="#8a6fe8"
       id="path306" />
    <path
       d="m 182.342,20.7051 c 0.905,-0.1252 1.538,-0.9607 1.413,-1.8662 -0.125,-0.9056 -0.961,-1.5382 -1.866,-1.413 -0.906,0.1252 -1.538,0.9608 -1.413,1.8663 0.125,0.9055 0.96,1.5381 1.866,1.4129 z"
       fill="url(#paint23_radial)"
       id="path308" />
    <path
       d="m 191.369,23.7801 c 0.95,-0.1313 1.614,-1.0076 1.482,-1.9573 -0.131,-0.9497 -1.007,-1.6132 -1.957,-1.4819 -0.95,0.1313 -1.613,1.0076 -1.482,1.9573 0.131,0.9497 1.008,1.6132 1.957,1.4819 z"
       fill="url(#paint24_radial)"
       id="path310" />
    <text
       xml:space="preserve"
       style="font-size:9.33333px;line-height:1.25;font-family:'Open Sans';-inkscape-font-specification:'Open Sans'"
       x="363.14252"
       y="14.275274"
       id="text4798"><tspan
         id="tspan4796"
         x="363.14252"
         y="14.275274"
         style="font-size:9.33333px;fill:#ffffff">November 9 - 11, 2021</tspan></text>
  </g>
  <defs
     id="defs446">
    <radialGradient
       id="paint0_radial"
       cx="0"
       cy="0"
       r="1"
       gradientUnits="userSpaceOnUse"
       gradientTransform="translate(261.473 34.1057) scale(250.15 132.529)">
      <stop
         offset="0.4602"
         stop-color="#1572E0"
         id="stop314" />
      <stop
         offset="0.8725"
         stop-color="#3E8EED"
         id="stop316" />
    </radialGradient>
    <radialGradient
       id="paint1_radial"
       cx="0"
       cy="0"
       r="1"
       gradientUnits="userSpaceOnUse"
       gradientTransform="translate(254.647 59.3469) scale(258.826 64.7668)">
      <stop
         offset="0.5491"
         stop-color="#549BEF"
         id="stop319" />
      <stop
         offset="0.9925"
         stop-color="#1C77E2"
         id="stop321" />
    </radialGradient>
    <radialGradient
       id="paint2_radial"
       cx="0"
       cy="0"
       r="1"
       gradientUnits="userSpaceOnUse"
       gradientTransform="translate(249.349 2.97703) scale(443.92 114.088)">
      <stop
         offset="0.1068"
         stop-color="#33D4F8"
         id="stop324" />
      <stop
         offset="0.7354"
         stop-color="#27BEE0"
         id="stop326" />
    </radialGradient>
    <radialGradient
       id="paint3_radial"
       cx="0"
       cy="0"
       r="1"
       gradientUnits="userSpaceOnUse"
       gradientTransform="translate(223.688 -56.9214) scale(385.48 241.832)">
      <stop
         offset="0.1052"
         stop-color="#60A2F0"
         id="stop329" />
      <stop
         offset="0.5496"
         stop-color="#3E8EED"
         id="stop331" />
      <stop
         offset="0.9964"
         stop-color="#1C77E2"
         id="stop333" />
    </radialGradient>
    <radialGradient
       id="paint4_radial"
       cx="0"
       cy="0"
       r="1"
       gradientUnits="userSpaceOnUse"
       gradientTransform="translate(32.0971 2.118) scale(21.0105)">
      <stop
         offset="0.3813"
         stop-color="#77E3FB"
         id="stop336" />
      <stop
         offset="0.979"
         stop-color="#2CC7EA"
         id="stop338" />
    </radialGradient>
    <radialGradient
       id="paint5_radial"
       cx="0"
       cy="0"
       r="1"
       gradientUnits="userSpaceOnUse"
       gradientTransform="translate(38.1637 14.922) scale(8.70218 15.67)">
      <stop
         offset="0.489583"
         stop-color="#A2CCFF"
         id="stop341" />
      <stop
         offset="0.9925"
         stop-color="#67A3EB"
         id="stop343" />
    </radialGradient>
    <linearGradient
       id="paint6_linear"
       x1="56.9979"
       y1="14.4985"
       x2="22.9978"
       y2="14.4985"
       gradientUnits="userSpaceOnUse">
      <stop
         offset="0.000330688"
         stop-color="#B5D6FF"
         stop-opacity="0"
         id="stop346" />
      <stop
         offset="1"
         stop-color="#B5D6FF"
         id="stop348" />
    </linearGradient>
    <radialGradient
       id="paint7_radial"
       cx="0"
       cy="0"
       r="1"
       gradientUnits="userSpaceOnUse"
       gradientTransform="translate(443.226 35.4956) rotate(-6.92105) scale(22.1184)">
      <stop
         offset="0.3813"
         stop-color="#AFD3FE"
         id="stop351" />
      <stop
         offset="0.979"
         stop-color="#2079E4"
         id="stop353" />
    </radialGradient>
    <linearGradient
       id="paint8_linear"
       x1="179.768"
       y1="65.7895"
       x2="180.216"
       y2="32.1161"
       gradientUnits="userSpaceOnUse">
      <stop
         stop-color="white"
         stop-opacity="0"
         id="stop356" />
      <stop
         offset="0.9936"
         stop-color="#60DEFA"
         id="stop358" />
    </linearGradient>
    <linearGradient
       id="paint9_linear"
       x1="175.761"
       y1="63.6183"
       x2="176.209"
       y2="29.9449"
       gradientUnits="userSpaceOnUse">
      <stop
         stop-color="white"
         stop-opacity="0"
         id="stop361" />
      <stop
         offset="0.9936"
         stop-color="#60DEFA"
         id="stop363" />
    </linearGradient>
    <linearGradient
       id="paint10_linear"
       x1="195.47"
       y1="33.2981"
       x2="191.892"
       y2="39.3347"
       gradientUnits="userSpaceOnUse">
      <stop
         stop-color="#522CD5"
         id="stop366" />
      <stop
         offset="0.4397"
         stop-color="#8A6FE8"
         id="stop368" />
    </linearGradient>
    <linearGradient
       id="paint11_linear"
       x1="195.47"
       y1="33.2981"
       x2="191.892"
       y2="39.3347"
       gradientUnits="userSpaceOnUse">
      <stop
         stop-color="#522CD5"
         id="stop371" />
      <stop
         offset="0.4397"
         stop-color="#8A6FE8"
         id="stop373" />
    </linearGradient>
    <linearGradient
       id="paint12_linear"
       x1="191.267"
       y1="38.3965"
       x2="188.99"
       y2="46.3138"
       gradientUnits="userSpaceOnUse">
      <stop
         stop-color="#522CD5"
         id="stop376" />
      <stop
         offset="0.4397"
         stop-color="#8A6FE8"
         id="stop378" />
    </linearGradient>
    <radialGradient
       id="paint13_radial"
       cx="0"
       cy="0"
       r="1"
       gradientUnits="userSpaceOnUse"
       gradientTransform="translate(188.707 44.3084) rotate(41.6266) scale(1.58879 1.58868)">
      <stop
         offset="0.034"
         stop-color="#522CD5"
         id="stop381" />
      <stop
         offset="1"
         stop-color="#8A6FE8"
         id="stop383" />
    </radialGradient>
    <linearGradient
       id="paint14_linear"
       x1="193.115"
       y1="32.0451"
       x2="188.443"
       y2="37.2812"
       gradientUnits="userSpaceOnUse">
      <stop
         stop-color="#522CD5"
         id="stop386" />
      <stop
         offset="0.4397"
         stop-color="#8A6FE8"
         id="stop388" />
    </linearGradient>
    <linearGradient
       id="paint15_linear"
       x1="193.115"
       y1="32.0451"
       x2="188.443"
       y2="37.2812"
       gradientUnits="userSpaceOnUse">
      <stop
         stop-color="#522CD5"
         id="stop391" />
      <stop
         offset="0.4397"
         stop-color="#8A6FE8"
         id="stop393" />
    </linearGradient>
    <linearGradient
       id="paint16_linear"
       x1="187.906"
       y1="36.0826"
       x2="184.104"
       y2="43.5029"
       gradientUnits="userSpaceOnUse">
      <stop
         stop-color="#522CD5"
         id="stop396" />
      <stop
         offset="0.4397"
         stop-color="#8A6FE8"
         id="stop398" />
    </linearGradient>
    <radialGradient
       id="paint17_radial"
       cx="0"
       cy="0"
       r="1"
       gradientUnits="userSpaceOnUse"
       gradientTransform="translate(185.689 41.0997) rotate(52.711) scale(2.81472 2.81458)">
      <stop
         offset="0.034"
         stop-color="#522CD5"
         id="stop401" />
      <stop
         offset="0.9955"
         stop-color="#8A6FE8"
         id="stop403" />
    </radialGradient>
    <radialGradient
       id="paint18_radial"
       cx="0"
       cy="0"
       r="1"
       gradientUnits="userSpaceOnUse"
       gradientTransform="translate(209.593 32.5496) rotate(-14.792) scale(2.57358)">
      <stop
         stop-color="#8065E0"
         id="stop406" />
      <stop
         offset="1"
         stop-color="#512BD4"
         id="stop408" />
    </radialGradient>
    <radialGradient
       id="paint19_radial"
       cx="0"
       cy="0"
       r="1"
       gradientUnits="userSpaceOnUse"
       gradientTransform="translate(199.448 19.8661) rotate(31.9889) scale(10.0182)">
      <stop
         offset="0.3472"
         stop-color="#A08BE8"
         id="stop411" />
      <stop
         offset="0.684"
         stop-color="#8065E0"
         id="stop413" />
      <stop
         offset="0.7596"
         stop-color="#8065E0"
         id="stop415" />
    </radialGradient>
    <radialGradient
       id="paint20_radial"
       cx="0"
       cy="0"
       r="1"
       gradientUnits="userSpaceOnUse"
       gradientTransform="translate(198.067 24.773) rotate(-14.792) scale(10.0926)">
      <stop
         offset="0.0933"
         stop-color="#E1DFDD"
         id="stop418" />
      <stop
         offset="0.6573"
         stop-color="white"
         id="stop420" />
    </radialGradient>
    <radialGradient
       id="paint21_radial"
       cx="0"
       cy="0"
       r="1"
       gradientUnits="userSpaceOnUse"
       gradientTransform="translate(201.568 16.2059) rotate(-14.792) scale(1.43477)">
      <stop
         stop-color="#8065E0"
         id="stop423" />
      <stop
         offset="1"
         stop-color="#512BD4"
         id="stop425" />
    </radialGradient>
    <linearGradient
       id="paint22_linear"
       x1="191.188"
       y1="19.4917"
       x2="182.222"
       y2="20.7313"
       gradientUnits="userSpaceOnUse">
      <stop
         offset="0.2495"
         stop-color="#967FE6"
         id="stop428" />
      <stop
         offset="1"
         stop-color="#8A6FE8"
         id="stop430" />
    </linearGradient>
    <radialGradient
       id="paint23_radial"
       cx="0"
       cy="0"
       r="1"
       gradientUnits="userSpaceOnUse"
       gradientTransform="translate(182.011 18.2805) rotate(-14.792) scale(2.61073)">
      <stop
         stop-color="#8065E0"
         id="stop433" />
      <stop
         offset="1"
         stop-color="#512BD4"
         id="stop435" />
    </radialGradient>
    <radialGradient
       id="paint24_radial"
       cx="0"
       cy="0"
       r="1"
       gradientUnits="userSpaceOnUse"
       gradientTransform="translate(191.605 21.7905) rotate(-3.42043) scale(1.73693)">
      <stop
         stop-color="#8065E0"
         id="stop438" />
      <stop
         offset="1"
         stop-color="#512BD4"
         id="stop440" />
    </radialGradient>
    <clipPath
       id="clip0">
      <rect
         width="468"
         height="60"
         fill="white"
         id="rect443" />
    </clipPath>
  </defs>
</svg>
