<?xml version="1.0" encoding="UTF-8" standalone="no"?>
<svg
   width="550"
   height="182"
   viewBox="0 0 550 182"
   fill="none"
   version="1.1"
   id="svg507"
   xmlns="http://www.w3.org/2000/svg"
   xmlns:svg="http://www.w3.org/2000/svg">
  <g
     clip-path="url(#clip0)"
     id="g376">
    <rect
       width="550"
       height="182"
       fill="#ffffff"
       id="rect2"
       x="0"
       y="0" />
    <path
       d="M 247.789,409.845 C 513.891,421.814 632.089,339.817 626.832,207.906 622.828,107.698 569.17,77.3117 593.173,-4.17709 623.816,-108.214 298.127,-156.26 85.8272,-78.7439 -79.7178,-18.293 -170.474,181.005 -88.1623,293.646 -30.6972,372.3 111.24,403.703 247.789,409.845 Z"
       fill="url(#paint0_radial)"
       id="path4" />
    <path
       d="m 157.448,35.8377 c 0,0 -1.553,0.921 -2.588,2.6611 -0.497,-1.3448 -2.661,-2.5877 -2.661,-2.5877 0,0 1.818,-0.9251 2.588,-2.6611 0.929,1.6545 2.661,2.5877 2.661,2.5877 z"
       fill="#4adafa"
       id="path6" />
    <path
       d="m 33.9696,81.3699 c 0,0 -2.7344,1.569 -4.5886,4.5724 -0.8273,-2.3636 -4.5724,-4.5887 -4.5724,-4.5887 0,0 3.1949,-1.5689 4.5887,-4.5724 1.5689,2.9179 4.5723,4.5887 4.5723,4.5887 z"
       fill="#4adafa"
       id="path8" />
    <path
       d="m 23.8967,131.822 c -0.0163,0 -1.6505,-0.02 -3.2439,-0.835 -2.0946,-1.068 -3.1501,-2.955 -3.1378,-5.608 0,-0.195 -0.159,-0.358 -0.3546,-0.358 -0.1956,0 -0.3586,0.159 -0.3586,0.354 -0.0285,6.325 -6.1821,6.382 -6.4429,6.382 -0.1915,0 -0.3504,0.151 -0.3586,0.346 -0.00813,0.192 0.1426,0.355 0.3342,0.367 0.0163,0 1.6545,0.118 3.2561,0.982 2.1027,1.133 3.1623,2.971 3.1501,5.461 0,0.196 0.1589,0.359 0.3545,0.359 0.1956,0 0.3586,-0.159 0.3586,-0.355 0.0123,-2.396 1.0881,-4.197 3.2031,-5.347 1.6138,-0.876 3.2561,-1.035 3.2724,-1.035 0.1915,-0.016 0.3342,-0.179 0.326,-0.37 -0.0122,-0.192 -0.1711,-0.343 -0.3586,-0.343 z"
       fill="#4a95ef"
       id="path10" />
    <path
       d="m 10.7784,126.157 c 0.3196,0 0.5787,-0.259 0.5787,-0.578 0,-0.32 -0.2591,-0.579 -0.5787,-0.579 -0.3196,0 -0.5787,0.259 -0.5787,0.579 0,0.319 0.2591,0.578 0.5787,0.578 z"
       fill="#4a95ef"
       id="path12" />
    <path
       d="m 12.2335,127.624 c 0.3196,0 0.5786,-0.259 0.5786,-0.578 0,-0.32 -0.259,-0.579 -0.5786,-0.579 -0.3196,0 -0.5787,0.259 -0.5787,0.579 0,0.319 0.2591,0.578 0.5787,0.578 z"
       fill="#4a95ef"
       id="path14" />
    <path
       d="m 13.6841,129.091 c 0.3196,0 0.5787,-0.259 0.5787,-0.578 0,-0.32 -0.2591,-0.579 -0.5787,-0.579 -0.3195,0 -0.5786,0.259 -0.5786,0.579 0,0.319 0.2591,0.578 0.5786,0.578 z"
       fill="#4a95ef"
       id="path16" />
    <path
       d="m 20.6934,136.166 c 0.3196,0 0.5787,-0.259 0.5787,-0.579 0,-0.319 -0.2591,-0.578 -0.5787,-0.578 -0.3196,0 -0.5787,0.259 -0.5787,0.578 0,0.32 0.2591,0.579 0.5787,0.579 z"
       fill="#4a95ef"
       id="path18" />
    <path
       d="m 22.148,137.633 c 0.3196,0 0.5787,-0.259 0.5787,-0.579 0,-0.319 -0.2591,-0.578 -0.5787,-0.578 -0.3196,0 -0.5787,0.259 -0.5787,0.578 0,0.32 0.2591,0.579 0.5787,0.579 z"
       fill="#4a95ef"
       id="path20" />
    <path
       d="m 23.5987,139.096 c 0.3196,0 0.5787,-0.259 0.5787,-0.579 0,-0.319 -0.2591,-0.579 -0.5787,-0.579 -0.3196,0 -0.5787,0.26 -0.5787,0.579 0,0.32 0.2591,0.579 0.5787,0.579 z"
       fill="#4a95ef"
       id="path22" />
    <path
       d="m 10.7217,139.039 c 0.3196,0 0.5787,-0.259 0.5787,-0.578 0,-0.32 -0.2591,-0.579 -0.5787,-0.579 -0.3196,0 -0.5786,0.259 -0.5786,0.579 0,0.319 0.259,0.578 0.5786,0.578 z"
       fill="#4a95ef"
       id="path24" />
    <path
       d="m 12.1846,137.584 c 0.3196,0 0.5787,-0.259 0.5787,-0.579 0,-0.319 -0.2591,-0.578 -0.5787,-0.578 -0.3196,0 -0.5786,0.259 -0.5786,0.578 0,0.32 0.259,0.579 0.5786,0.579 z"
       fill="#4a95ef"
       id="path26" />
    <path
       d="m 13.6519,136.133 c 0.3196,0 0.5787,-0.259 0.5787,-0.578 0,-0.32 -0.2591,-0.579 -0.5787,-0.579 -0.3196,0 -0.5787,0.259 -0.5787,0.579 0,0.319 0.2591,0.578 0.5787,0.578 z"
       fill="#4a95ef"
       id="path28" />
    <path
       d="m 20.7256,129.124 c 0.3196,0 0.5787,-0.259 0.5787,-0.579 0,-0.319 -0.2591,-0.578 -0.5787,-0.578 -0.3195,0 -0.5786,0.259 -0.5786,0.578 0,0.32 0.2591,0.579 0.5786,0.579 z"
       fill="#4a95ef"
       id="path30" />
    <path
       d="m 22.1929,127.669 c 0.3196,0 0.5787,-0.259 0.5787,-0.579 0,-0.319 -0.2591,-0.578 -0.5787,-0.578 -0.3196,0 -0.5786,0.259 -0.5786,0.578 0,0.32 0.259,0.579 0.5786,0.579 z"
       fill="#4a95ef"
       id="path32" />
    <path
       d="m 23.6597,126.218 c 0.3196,0 0.5787,-0.259 0.5787,-0.578 0,-0.32 -0.2591,-0.579 -0.5787,-0.579 -0.3196,0 -0.5786,0.259 -0.5786,0.579 0,0.319 0.259,0.578 0.5786,0.578 z"
       fill="#4a95ef"
       id="path34" />
    <path
       d="m 171.588,40.6019 c 1.076,-0.0856 1.875,-0.2445 3.069,-0.4483 0.611,-0.106 0.603,-0.9984 -0.016,-1.0799 -1.166,-0.159 -1.916,-0.2364 -3.028,-0.2527 -0.281,-0.0041 -0.518,-0.216 -0.538,-0.4972 -0.09,-1.0595 -0.249,-2.2372 -0.448,-3.4068 -0.106,-0.6113 -0.995,-0.5991 -1.08,0.0163 -0.159,1.1614 -0.233,2.3147 -0.249,3.4272 -0.004,0.2853 -0.224,0.5216 -0.505,0.542 -1.068,0.0734 -2.05,0.1834 -2.898,0.3057 -0.627,0.0896 -0.619,1.0025 0.008,1.084 0.995,0.1304 2.063,0.2526 2.967,0.326 0.269,0.0203 0.485,0.2363 0.501,0.5053 0.074,1.0921 0.188,2.0987 0.31,2.9627 0.09,0.6275 1.003,0.6194 1.084,-0.0082 0.131,-0.9943 0.253,-2.0661 0.326,-2.9667 0.021,-0.2771 0.232,-0.4891 0.497,-0.5094 z"
       fill="#4adafa"
       id="path36" />
    <path
       opacity="0.7"
       d="M 29.9145,-39.7539 C -62.2497,-13.3061 -26.6318,78.205 -50,142 -22.1261,125.34 13.5779,116.164 75.5844,96.1618 186.08,60.517 335.042,34.5067 389.765,30.8541 c 88.189,-5.8819 5.518,15.8856 -33.071,26.4741 -38.589,10.5886 -64.513,24.5662 1.728,11.258 C 440.686,52.0577 562.338,31.7343 610,30.8541 600.964,-36.3614 216.959,-93.4188 29.9145,-39.7539 Z"
       fill="url(#paint1_radial)"
       id="path38" />
    <path
       opacity="0.6"
       d="M 650.83,85.7641 C 650.135,72.7919 647.953,61.357 644.939,51 585.018,113.027 440.234,134.715 355.384,144.213 276.317,153.066 117.336,167.865 25,209.162 c 4.1866,1.176 8.4277,2.314 12.737,3.414 0.1773,0.044 0.3545,0.088 0.5318,0.137 1.8956,0.481 3.8048,0.957 5.7139,1.428 0.3955,0.098 0.791,0.191 1.1865,0.29 1.7319,0.421 3.4774,0.837 5.2229,1.247 0.4501,0.104 0.8864,0.208 1.3365,0.312 1.7728,0.41 3.5456,0.815 5.332,1.209 0.3819,0.088 0.7637,0.17 1.1456,0.257 2.0182,0.449 4.0501,0.887 6.0957,1.319 0.1364,0.027 0.2591,0.055 0.3955,0.082 4.5138,0.952 9.0822,1.871 13.6915,2.758 0.1228,0.021 0.2319,0.043 0.3546,0.065 2.1001,0.4 4.2002,0.793 6.3139,1.182 0.4364,0.077 0.8592,0.159 1.2956,0.235 1.8273,0.334 3.6547,0.657 5.4957,0.98 0.5182,0.093 1.0364,0.18 1.5682,0.273 1.8001,0.312 3.6002,0.618 5.4139,0.919 0.5046,0.082 0.9955,0.17 1.5002,0.252 1.95,0.323 3.914,0.635 5.877,0.946 0.341,0.055 0.669,0.11 1.01,0.159 4.718,0.739 9.477,1.45 14.278,2.128 0.122,0.017 0.259,0.033 0.381,0.055 2.182,0.307 4.378,0.607 6.573,0.903 0.519,0.071 1.051,0.137 1.582,0.208 1.814,0.241 3.641,0.481 5.469,0.711 0.641,0.082 1.282,0.164 1.923,0.241 1.745,0.219 3.491,0.432 5.236,0.645 0.655,0.082 1.323,0.159 1.978,0.236 1.813,0.213 3.627,0.426 5.441,0.634 0.559,0.066 1.132,0.132 1.691,0.192 2.209,0.246 4.432,0.492 6.655,0.728 0.15,0.016 0.313,0.032 0.463,0.049 2.469,0.262 4.951,0.514 7.432,0.766 0.178,0.016 0.369,0.033 0.546,0.054 2.195,0.219 4.391,0.433 6.587,0.635 0.654,0.06 1.309,0.12 1.977,0.181 1.732,0.158 3.477,0.317 5.209,0.47 0.791,0.071 1.569,0.137 2.36,0.203 1.636,0.142 3.272,0.279 4.909,0.415 0.818,0.066 1.636,0.137 2.455,0.203 1.65,0.131 3.3,0.262 4.95,0.388 0.777,0.06 1.554,0.121 2.332,0.181 1.841,0.137 3.695,0.273 5.55,0.405 0.559,0.038 1.132,0.082 1.691,0.12 2.441,0.17 4.882,0.334 7.323,0.493 0.232,0.016 0.464,0.027 0.696,0.043 2.168,0.137 4.336,0.274 6.504,0.4 0.778,0.043 1.569,0.087 2.346,0.136 1.636,0.093 3.259,0.186 4.896,0.274 0.9,0.049 1.8,0.098 2.7,0.142 1.527,0.082 3.054,0.159 4.582,0.236 0.941,0.043 1.868,0.093 2.809,0.136 1.514,0.071 3.041,0.143 4.555,0.208 0.913,0.039 1.814,0.082 2.727,0.121 1.637,0.071 3.287,0.136 4.923,0.202 0.777,0.033 1.541,0.06 2.318,0.093 2.401,0.093 4.801,0.175 7.187,0.257 h 0.014 c 17.21,0.569 33.833,0.865 49.857,0.881 168.281,0.197 271.295,-29.627 316.201,-79.962 1.064,-1.198 2.101,-2.407 3.11,-3.627 3.013,-3.666 5.727,-7.436 8.141,-11.304 0.805,-1.291 1.582,-2.588 2.318,-3.901 1.487,-2.62 2.837,-5.29 4.064,-7.999 2.455,-5.422 4.391,-11.013 5.809,-16.764 2.523,-10.077 3.451,-20.6479 2.864,-31.6779 z"
       fill="url(#paint2_radial)"
       id="path40" />
    <path
       d="m 236.897,20.8222 c -0.017,0 -1.651,-0.0203 -3.244,-0.8354 -2.095,-1.0677 -3.15,-2.9545 -3.138,-5.6074 0,-0.1956 -0.159,-0.3586 -0.355,-0.3586 -0.195,0 -0.358,0.1589 -0.358,0.3545 -0.029,6.3247 -6.182,6.3817 -6.443,6.3817 -0.192,0 -0.351,0.1508 -0.359,0.3464 -0.008,0.1916 0.143,0.3546 0.334,0.3668 0.017,0 1.655,0.1182 3.257,0.9821 2.102,1.1329 3.162,2.9708 3.15,5.4608 0,0.1956 0.159,0.3586 0.354,0.3586 0.196,0 0.359,-0.159 0.359,-0.3546 0.012,-2.3962 1.088,-4.1974 3.203,-5.3466 1.614,-0.8762 3.256,-1.0351 3.272,-1.0351 0.192,-0.0163 0.334,-0.1793 0.326,-0.3708 -0.012,-0.1916 -0.171,-0.3424 -0.358,-0.3424 z"
       fill="#afd3fe"
       id="path42" />
    <path
       d="m 223.778,15.1574 c 0.32,0 0.579,-0.2591 0.579,-0.5787 0,-0.3196 -0.259,-0.5787 -0.579,-0.5787 -0.319,0 -0.578,0.2591 -0.578,0.5787 0,0.3196 0.259,0.5787 0.578,0.5787 z"
       fill="#afd3fe"
       id="path44" />
    <path
       d="m 225.233,16.6244 c 0.32,0 0.579,-0.2591 0.579,-0.5787 0,-0.3196 -0.259,-0.5787 -0.579,-0.5787 -0.319,0 -0.578,0.2591 -0.578,0.5787 0,0.3196 0.259,0.5787 0.578,0.5787 z"
       fill="#afd3fe"
       id="path46" />
    <path
       d="m 226.684,18.0914 c 0.32,0 0.579,-0.259 0.579,-0.5786 0,-0.3196 -0.259,-0.5787 -0.579,-0.5787 -0.319,0 -0.579,0.2591 -0.579,0.5787 0,0.3196 0.26,0.5786 0.579,0.5786 z"
       fill="#afd3fe"
       id="path48" />
    <path
       d="m 233.693,25.1659 c 0.32,0 0.579,-0.2591 0.579,-0.5787 0,-0.3196 -0.259,-0.5787 -0.579,-0.5787 -0.319,0 -0.578,0.2591 -0.578,0.5787 0,0.3196 0.259,0.5787 0.578,0.5787 z"
       fill="#afd3fe"
       id="path50" />
    <path
       d="m 235.148,26.6329 c 0.32,0 0.579,-0.2591 0.579,-0.5786 0,-0.3196 -0.259,-0.5787 -0.579,-0.5787 -0.32,0 -0.579,0.2591 -0.579,0.5787 0,0.3195 0.259,0.5786 0.579,0.5786 z"
       fill="#afd3fe"
       id="path52" />
    <path
       d="m 236.599,28.0958 c 0.319,0 0.578,-0.2591 0.578,-0.5787 0,-0.3195 -0.259,-0.5786 -0.578,-0.5786 -0.32,0 -0.579,0.2591 -0.579,0.5786 0,0.3196 0.259,0.5787 0.579,0.5787 z"
       fill="#afd3fe"
       id="path54" />
    <path
       d="m 223.722,28.0392 c 0.319,0 0.578,-0.2591 0.578,-0.5787 0,-0.3196 -0.259,-0.5787 -0.578,-0.5787 -0.32,0 -0.579,0.2591 -0.579,0.5787 0,0.3196 0.259,0.5787 0.579,0.5787 z"
       fill="#afd3fe"
       id="path56" />
    <path
       d="m 225.185,26.5841 c 0.319,0 0.578,-0.2591 0.578,-0.5787 0,-0.3196 -0.259,-0.5786 -0.578,-0.5786 -0.32,0 -0.579,0.259 -0.579,0.5786 0,0.3196 0.259,0.5787 0.579,0.5787 z"
       fill="#afd3fe"
       id="path58" />
    <path
       d="m 226.652,25.1334 c 0.32,0 0.579,-0.259 0.579,-0.5786 0,-0.3196 -0.259,-0.5787 -0.579,-0.5787 -0.32,0 -0.579,0.2591 -0.579,0.5787 0,0.3196 0.259,0.5786 0.579,0.5786 z"
       fill="#afd3fe"
       id="path60" />
    <path
       d="m 233.726,18.1239 c 0.319,0 0.578,-0.2591 0.578,-0.5787 0,-0.3196 -0.259,-0.5786 -0.578,-0.5786 -0.32,0 -0.579,0.259 -0.579,0.5786 0,0.3196 0.259,0.5787 0.579,0.5787 z"
       fill="#afd3fe"
       id="path62" />
    <path
       d="m 235.193,16.6691 c 0.32,0 0.579,-0.2591 0.579,-0.5787 0,-0.3196 -0.259,-0.5787 -0.579,-0.5787 -0.32,0 -0.579,0.2591 -0.579,0.5787 0,0.3196 0.259,0.5787 0.579,0.5787 z"
       fill="#afd3fe"
       id="path64" />
    <path
       d="m 236.66,15.2184 c 0.319,0 0.578,-0.2591 0.578,-0.5787 0,-0.3196 -0.259,-0.5787 -0.578,-0.5787 -0.32,0 -0.579,0.2591 -0.579,0.5787 0,0.3196 0.259,0.5787 0.579,0.5787 z"
       fill="#afd3fe"
       id="path66" />
    <path
       d="m 427.897,169.822 c -0.017,0 -1.651,-0.02 -3.244,-0.835 -2.095,-1.068 -3.15,-2.955 -3.138,-5.608 0,-0.195 -0.159,-0.358 -0.355,-0.358 -0.195,0 -0.358,0.159 -0.358,0.354 -0.029,6.325 -6.182,6.382 -6.443,6.382 -0.192,0 -0.351,0.151 -0.359,0.346 -0.008,0.192 0.143,0.355 0.334,0.367 0.017,0 1.655,0.118 3.257,0.982 2.102,1.133 3.162,2.971 3.15,5.461 0,0.196 0.159,0.359 0.354,0.359 0.196,0 0.359,-0.159 0.359,-0.355 0.012,-2.396 1.088,-4.197 3.203,-5.347 1.614,-0.876 3.256,-1.035 3.272,-1.035 0.192,-0.016 0.334,-0.179 0.326,-0.37 -0.012,-0.192 -0.171,-0.343 -0.358,-0.343 z"
       fill="#afd3fe"
       id="path68" />
    <path
       d="m 414.778,164.157 c 0.32,0 0.579,-0.259 0.579,-0.578 0,-0.32 -0.259,-0.579 -0.579,-0.579 -0.319,0 -0.578,0.259 -0.578,0.579 0,0.319 0.259,0.578 0.578,0.578 z"
       fill="#afd3fe"
       id="path70" />
    <path
       d="m 416.233,165.624 c 0.32,0 0.579,-0.259 0.579,-0.578 0,-0.32 -0.259,-0.579 -0.579,-0.579 -0.319,0 -0.578,0.259 -0.578,0.579 0,0.319 0.259,0.578 0.578,0.578 z"
       fill="#afd3fe"
       id="path72" />
    <path
       d="m 417.684,167.091 c 0.32,0 0.579,-0.259 0.579,-0.578 0,-0.32 -0.259,-0.579 -0.579,-0.579 -0.319,0 -0.579,0.259 -0.579,0.579 0,0.319 0.26,0.578 0.579,0.578 z"
       fill="#afd3fe"
       id="path74" />
    <path
       d="m 424.693,174.166 c 0.32,0 0.579,-0.259 0.579,-0.579 0,-0.319 -0.259,-0.578 -0.579,-0.578 -0.319,0 -0.578,0.259 -0.578,0.578 0,0.32 0.259,0.579 0.578,0.579 z"
       fill="#afd3fe"
       id="path76" />
    <path
       d="m 426.148,175.633 c 0.32,0 0.579,-0.259 0.579,-0.579 0,-0.319 -0.259,-0.578 -0.579,-0.578 -0.32,0 -0.579,0.259 -0.579,0.578 0,0.32 0.259,0.579 0.579,0.579 z"
       fill="#afd3fe"
       id="path78" />
    <path
       d="m 427.599,177.096 c 0.319,0 0.578,-0.259 0.578,-0.579 0,-0.319 -0.259,-0.579 -0.578,-0.579 -0.32,0 -0.579,0.26 -0.579,0.579 0,0.32 0.259,0.579 0.579,0.579 z"
       fill="#afd3fe"
       id="path80" />
    <path
       d="m 414.722,177.039 c 0.319,0 0.578,-0.259 0.578,-0.578 0,-0.32 -0.259,-0.579 -0.578,-0.579 -0.32,0 -0.579,0.259 -0.579,0.579 0,0.319 0.259,0.578 0.579,0.578 z"
       fill="#afd3fe"
       id="path82" />
    <path
       d="m 416.185,175.584 c 0.319,0 0.578,-0.259 0.578,-0.579 0,-0.319 -0.259,-0.578 -0.578,-0.578 -0.32,0 -0.579,0.259 -0.579,0.578 0,0.32 0.259,0.579 0.579,0.579 z"
       fill="#afd3fe"
       id="path84" />
    <path
       d="m 417.652,174.133 c 0.32,0 0.579,-0.259 0.579,-0.578 0,-0.32 -0.259,-0.579 -0.579,-0.579 -0.32,0 -0.579,0.259 -0.579,0.579 0,0.319 0.259,0.578 0.579,0.578 z"
       fill="#afd3fe"
       id="path86" />
    <path
       d="m 424.726,167.124 c 0.319,0 0.578,-0.259 0.578,-0.579 0,-0.319 -0.259,-0.578 -0.578,-0.578 -0.32,0 -0.579,0.259 -0.579,0.578 0,0.32 0.259,0.579 0.579,0.579 z"
       fill="#afd3fe"
       id="path88" />
    <path
       d="m 426.193,165.669 c 0.32,0 0.579,-0.259 0.579,-0.579 0,-0.319 -0.259,-0.578 -0.579,-0.578 -0.32,0 -0.579,0.259 -0.579,0.578 0,0.32 0.259,0.579 0.579,0.579 z"
       fill="#afd3fe"
       id="path90" />
    <path
       d="m 427.66,164.218 c 0.319,0 0.578,-0.259 0.578,-0.578 0,-0.32 -0.259,-0.579 -0.578,-0.579 -0.32,0 -0.579,0.259 -0.579,0.579 0,0.319 0.259,0.578 0.579,0.578 z"
       fill="#afd3fe"
       id="path92" />
    <path
       d="m 171.893,27.7868 c 1.598,0 2.894,-1.2954 2.894,-2.8934 0,-1.598 -1.296,-2.8934 -2.894,-2.8934 -1.598,0 -2.893,1.2954 -2.893,2.8934 0,1.598 1.295,2.8934 2.893,2.8934 z"
       fill="#afd3fe"
       id="path94" />
    <path
       d="m 19.6088,41.8079 c 1.3324,0 2.4125,-1.0801 2.4125,-2.4125 0,-1.3324 -1.0801,-2.4125 -2.4125,-2.4125 -1.3324,0 -2.4125,1.0801 -2.4125,2.4125 0,1.3324 1.0801,2.4125 2.4125,2.4125 z"
       fill="#afd3fe"
       id="path96" />
    <path
       d="m 117.826,11.3482 c 1.332,0 2.413,-1.0801 2.413,-2.4125 0,-1.33239 -1.081,-2.41251 -2.413,-2.41251 -1.332,0 -2.412,1.08012 -2.412,2.41251 0,1.3324 1.08,2.4125 2.412,2.4125 z"
       fill="#afd3fe"
       id="path98" />
    <path
       d="m 303.416,162.651 c 1.333,0 2.413,-1.08 2.413,-2.413 0,-1.332 -1.08,-2.412 -2.413,-2.412 -1.332,0 -2.412,1.08 -2.412,2.412 0,1.333 1.08,2.413 2.412,2.413 z"
       fill="#afd3fe"
       id="path100" />
    <path
       d="m 220.962,69.3111 c 1.332,0 2.412,-1.0801 2.412,-2.4125 0,-1.3324 -1.08,-2.4125 -2.412,-2.4125 -1.333,0 -2.413,1.0801 -2.413,2.4125 0,1.3324 1.08,2.4125 2.413,2.4125 z"
       fill="#4a95ef"
       id="path102" />
    <path
       d="m 42.0142,96.2566 c 1.0668,0 1.9316,-0.8648 1.9316,-1.9317 0,-1.0668 -0.8648,-1.9316 -1.9316,-1.9316 -1.0669,0 -1.9317,0.8648 -1.9317,1.9316 0,1.0669 0.8648,1.9317 1.9317,1.9317 z"
       fill="#afd3fe"
       id="path104" />
    <path
       d="m 113.413,61.825 c 1.332,0 2.412,-1.0801 2.412,-2.4125 0,-1.3324 -1.08,-2.4125 -2.412,-2.4125 -1.333,0 -2.413,1.0801 -2.413,2.4125 0,1.3324 1.08,2.4125 2.413,2.4125 z"
       fill="#afd3fe"
       id="path106" />
    <path
       d="m 445.413,145.825 c 1.332,0 2.412,-1.08 2.412,-2.412 0,-1.333 -1.08,-2.413 -2.412,-2.413 -1.333,0 -2.413,1.08 -2.413,2.413 0,1.332 1.08,2.412 2.413,2.412 z"
       fill="#afd3fe"
       id="path108" />
    <path
       d="m 491.5,175 c 0.828,0 1.5,-0.672 1.5,-1.5 0,-0.828 -0.672,-1.5 -1.5,-1.5 -0.828,0 -1.5,0.672 -1.5,1.5 0,0.828 0.672,1.5 1.5,1.5 z"
       fill="#afd3fe"
       id="path110" />
    <path
       d="m 543.5,121 c 0.828,0 1.5,-0.672 1.5,-1.5 0,-0.828 -0.672,-1.5 -1.5,-1.5 -0.828,0 -1.5,0.672 -1.5,1.5 0,0.828 0.672,1.5 1.5,1.5 z"
       fill="#afd3fe"
       id="path112" />
    <path
       d="m 67.9071,58.9764 c 9.1062,0 16.4882,-7.382 16.4882,-16.4882 C 84.3953,33.382 77.0133,26 67.9071,26 58.801,26 51.4189,33.382 51.4189,42.4882 c 0,9.1062 7.3821,16.4882 16.4882,16.4882 z"
       fill="url(#paint3_radial)"
       id="path114" />
    <path
       d="m 67.9071,58.9764 c 9.1062,0 16.4882,-7.382 16.4882,-16.4882 C 84.3953,33.382 77.0133,26 67.9071,26 58.801,26 51.4189,33.382 51.4189,42.4882 c 0,9.1062 7.3821,16.4882 16.4882,16.4882 z"
       fill="url(#paint4_radial)"
       id="path116" />
    <path
       d="m 51.3825,43.3439 0.1304,0.9372 c -8.2033,3.9081 -11.8221,6.8708 -11.2312,8.9125 0.7091,2.4614 13.2362,-0.4442 29.8833,-6.125 16.6431,-5.6808 28.5467,-11.2598 27.7195,-13.3992 -0.7743,-2.005 3.9975,-4.0059 4.7435,-1.4916 1.198,4.0304 -12.8328,11.8018 -31.2119,18.0776 -18.3791,6.2758 -34.1949,8.2481 -35.3481,4.6498 -0.7947,-2.4574 5.4444,-6.9605 15.3145,-11.5613 z"
       fill="url(#paint5_linear)"
       id="path118" />
    <path
       d="m 512.07,164.763 c 8.165,0 14.785,-6.619 14.785,-14.785 0,-8.165 -6.62,-14.784 -14.785,-14.784 -8.165,0 -14.785,6.619 -14.785,14.784 0,8.166 6.62,14.785 14.785,14.785 z"
       fill="url(#paint6_radial)"
       id="path120" />
    <path
       d="m 528.888,159.567 c -0.045,0.078 -0.086,0.155 -0.131,0.229"
       stroke="#afd3fe"
       stroke-width="4.7698"
       stroke-linecap="round"
       stroke-linejoin="round"
       id="path122" />
    <path
       d="m 510.884,171.112 h -0.277 c -0.538,-0.008 -0.966,-0.448 -0.958,-0.986 0.008,-0.538 0.428,-0.962 0.986,-0.958 h 0.249 0.216 c 0.004,0 0.008,0 0.008,0 0.534,0 0.966,0.428 0.97,0.962 0.004,0.538 -0.428,0.974 -0.962,0.982 z m 5.053,-0.627 c -0.436,0 -0.831,-0.294 -0.941,-0.734 -0.131,-0.521 0.183,-1.047 0.705,-1.182 0.15,-0.036 0.301,-0.077 0.448,-0.118 0.518,-0.142 1.051,0.159 1.198,0.677 0.143,0.517 -0.159,1.051 -0.676,1.198 -0.163,0.045 -0.33,0.089 -0.494,0.13 -0.081,0.017 -0.163,0.029 -0.24,0.029 z m -10.143,-0.012 c -0.082,0 -0.159,-0.009 -0.24,-0.033 -0.168,-0.041 -0.331,-0.086 -0.494,-0.135 -0.517,-0.146 -0.815,-0.684 -0.668,-1.202 0.147,-0.517 0.685,-0.815 1.198,-0.668 0.151,0.041 0.298,0.081 0.448,0.122 0.522,0.135 0.832,0.664 0.701,1.182 -0.118,0.44 -0.513,0.734 -0.945,0.734 z m 15.123,-1.961 c -0.342,0 -0.672,-0.179 -0.852,-0.501 -0.261,-0.469 -0.089,-1.059 0.379,-1.32 0.135,-0.074 0.269,-0.151 0.404,-0.233 0.464,-0.273 1.059,-0.118 1.332,0.347 0.273,0.464 0.118,1.059 -0.346,1.328 -0.147,0.086 -0.298,0.172 -0.444,0.253 -0.151,0.086 -0.314,0.126 -0.473,0.126 z m -20.095,-0.036 c -0.163,0 -0.326,-0.041 -0.477,-0.127 -0.146,-0.081 -0.297,-0.167 -0.44,-0.256 -0.46,-0.273 -0.615,-0.868 -0.342,-1.333 0.273,-0.46 0.868,-0.615 1.333,-0.342 0.134,0.077 0.269,0.155 0.403,0.232 0.469,0.265 0.636,0.856 0.371,1.324 -0.175,0.322 -0.505,0.502 -0.848,0.502 z m 24.398,-3.15 c -0.256,0 -0.509,-0.098 -0.701,-0.298 -0.37,-0.387 -0.362,-1.002 0.025,-1.373 0.11,-0.106 0.22,-0.216 0.33,-0.326 0.375,-0.383 0.99,-0.387 1.373,-0.012 0.383,0.374 0.387,0.99 0.013,1.373 -0.123,0.122 -0.245,0.244 -0.367,0.363 -0.188,0.179 -0.432,0.273 -0.673,0.273 z m -28.689,-0.053 c -0.244,0 -0.489,-0.09 -0.676,-0.273 -0.123,-0.119 -0.245,-0.241 -0.363,-0.363 -0.375,-0.383 -0.371,-0.999 0.012,-1.373 0.383,-0.375 0.999,-0.371 1.373,0.012 0.11,0.11 0.216,0.22 0.331,0.33 0.383,0.375 0.395,0.99 0.02,1.373 -0.192,0.196 -0.444,0.294 -0.697,0.294 z m -3.313,-4.206 c -0.33,0 -0.652,-0.171 -0.835,-0.473 -0.09,-0.146 -0.176,-0.293 -0.257,-0.444 -0.265,-0.469 -0.098,-1.059 0.371,-1.324 0.468,-0.265 1.059,-0.098 1.324,0.37 0.077,0.135 0.155,0.269 0.232,0.4 0.273,0.46 0.127,1.059 -0.338,1.332 -0.159,0.094 -0.33,0.139 -0.497,0.139 z m -2.119,-4.919 c -0.424,0 -0.811,-0.277 -0.933,-0.705 -0.049,-0.163 -0.09,-0.33 -0.135,-0.497 -0.134,-0.522 0.179,-1.051 0.701,-1.182 0.522,-0.134 1.047,0.18 1.182,0.701 0.037,0.151 0.077,0.298 0.122,0.444 0.147,0.518 -0.151,1.056 -0.668,1.203 -0.094,0.024 -0.184,0.036 -0.269,0.036 z"
       fill="#afd3fe"
       id="path124" />
    <path
       d="m 492.916,139.534 c 0.045,-0.078 0.086,-0.155 0.13,-0.229"
       stroke="#afd3fe"
       stroke-width="4.7698"
       stroke-linecap="round"
       stroke-linejoin="round"
       id="path126" />
    <path
       d="m 529.527,141.746 c -0.362,0 -0.713,-0.208 -0.88,-0.558 -0.069,-0.147 -0.139,-0.289 -0.212,-0.432 -0.24,-0.481 -0.045,-1.064 0.432,-1.304 0.477,-0.24 1.064,-0.045 1.304,0.432 0.078,0.159 0.155,0.318 0.232,0.477 0.229,0.485 0.021,1.063 -0.464,1.292 -0.131,0.065 -0.273,0.093 -0.412,0.093 z m -3.011,-4.649 c -0.273,0 -0.546,-0.115 -0.738,-0.339 -0.106,-0.122 -0.212,-0.24 -0.318,-0.362 -0.358,-0.4 -0.326,-1.015 0.07,-1.374 0.399,-0.358 1.014,-0.326 1.373,0.07 0.118,0.13 0.236,0.264 0.35,0.395 0.351,0.407 0.302,1.019 -0.106,1.369 -0.179,0.163 -0.407,0.241 -0.631,0.241 z m -30.149,-1.166 c -0.248,0 -0.497,-0.094 -0.688,-0.285 -0.379,-0.379 -0.379,-0.995 0,-1.374 0.126,-0.126 0.252,-0.248 0.379,-0.37 0.387,-0.371 1.002,-0.355 1.373,0.036 0.371,0.387 0.355,1.003 -0.037,1.374 -0.118,0.11 -0.232,0.224 -0.346,0.334 -0.183,0.191 -0.432,0.285 -0.681,0.285 z m 26,-2.51 c -0.187,0 -0.375,-0.053 -0.538,-0.163 -0.134,-0.09 -0.269,-0.176 -0.403,-0.265 -0.453,-0.29 -0.587,-0.889 -0.302,-1.341 0.29,-0.452 0.889,-0.587 1.341,-0.301 0.151,0.093 0.297,0.191 0.444,0.289 0.448,0.297 0.567,0.9 0.269,1.349 -0.187,0.281 -0.497,0.432 -0.811,0.432 z m -21.578,-0.836 c -0.338,0 -0.668,-0.179 -0.848,-0.497 -0.264,-0.469 -0.097,-1.059 0.371,-1.324 0.155,-0.086 0.31,-0.171 0.465,-0.253 0.477,-0.253 1.063,-0.073 1.316,0.403 0.253,0.473 0.073,1.064 -0.403,1.317 -0.143,0.077 -0.286,0.155 -0.424,0.232 -0.155,0.082 -0.318,0.122 -0.477,0.122 z m 16.606,-1.605 c -0.101,0 -0.203,-0.017 -0.309,-0.049 -0.151,-0.049 -0.306,-0.098 -0.457,-0.147 -0.513,-0.155 -0.803,-0.701 -0.644,-1.214 0.159,-0.514 0.701,-0.803 1.215,-0.644 0.167,0.053 0.338,0.106 0.505,0.163 0.51,0.171 0.783,0.721 0.616,1.23 -0.143,0.404 -0.522,0.661 -0.926,0.661 z m -11.459,-0.44 c -0.436,0 -0.831,-0.294 -0.941,-0.738 -0.131,-0.522 0.187,-1.047 0.709,-1.178 0.171,-0.041 0.342,-0.081 0.513,-0.122 0.522,-0.114 1.043,0.212 1.162,0.738 0.118,0.525 -0.212,1.043 -0.738,1.161 -0.159,0.037 -0.314,0.073 -0.469,0.11 -0.081,0.02 -0.159,0.029 -0.236,0.029 z m 6.015,-0.583 c -0.016,0 -0.033,0 -0.049,0 -0.159,-0.008 -0.322,-0.012 -0.481,-0.017 -0.538,-0.012 -0.962,-0.46 -0.945,-0.994 0.012,-0.538 0.444,-0.966 0.994,-0.945 0.175,0.004 0.351,0.012 0.526,0.02 0.538,0.029 0.949,0.481 0.921,1.019 -0.025,0.509 -0.453,0.917 -0.966,0.917 z"
       fill="#afd3fe"
       id="path128" />
    <path
       d="m 492.916,141.926 c 1.321,0 2.392,-1.071 2.392,-2.393 0,-1.321 -1.071,-2.392 -2.392,-2.392 -1.321,0 -2.392,1.071 -2.392,2.392 0,1.322 1.071,2.393 2.392,2.393 z"
       fill="#afd3fe"
       id="path130" />
    <path
       d="m 528.888,161.959 c 1.321,0 2.392,-1.071 2.392,-2.392 0,-1.321 -1.071,-2.392 -2.392,-2.392 -1.321,0 -2.392,1.071 -2.392,2.392 0,1.321 1.071,2.392 2.392,2.392 z"
       fill="#afd3fe"
       id="path132" />
    <path
       d="m 348.769,100.714 c 1.104,-1.1817 2.193,-2.4431 3.258,-3.7758 1.482,-1.8553 2.918,-3.846 4.276,-5.9609 9.906,-15.3991 12.056,-31.3445 4.807,-35.6198 -7.252,-4.2749 -21.161,4.7425 -31.063,20.1411 -1.157,1.7961 -2.207,3.6022 -3.148,5.3968 -0.752,1.435 -1.439,2.8608 -2.053,4.2731 -0.285,0.657 -0.033,1.4278 0.585,1.793 z"
       fill="#a4ecfc"
       id="path134" />
    <path
       d="m 349.723,94.2685 c 2.074,-2.2246 4.085,-4.7989 5.92,-7.6505 7.783,-12.0959 9.472,-24.627 3.776,-27.985 -5.696,-3.358 -16.624,3.7249 -24.406,15.8208 -1.636,2.5437 -3,5.1031 -4.086,7.5956 -0.226,0.5175 -0.026,1.1215 0.461,1.4091 z"
       fill="#4adafa"
       id="path136" />
    <path
       d="m 335.464,102.568 c 0,0 -7.092,8.898 -8.899,15.032 -1.81,6.135 -4.771,11.055 -7.279,13.94 -2.508,2.884 -5.379,7.767 -6.877,11.871 -1.498,4.104 -4.48,10.67 -6.792,12.843 -2.313,2.168 -5.126,7.082 -5.581,9.488 -0.455,2.405 -3.073,6.604 -4.188,7.805 -1.115,1.201 -5.177,7.789 -6.093,10.758 -0.918,2.966 1.427,-0.378 2.783,-1.254 1.355,-0.876 3.911,-2.723 4.889,-6.298 0.982,-3.575 2.642,-7.587 5.112,-10.033 2.469,-2.446 5.77,-6.345 7.467,-11.165 1.698,-4.821 5.544,-11.166 8.45,-14.74 2.902,-3.578 6.478,-8.697 8.134,-13.82 1.652,-5.119 3.997,-8.464 7.019,-12.249 3.023,-3.783 5.187,-10.541 5.187,-10.541 z"
       fill="url(#paint7_linear)"
       id="path138" />
    <path
       d="m 325.523,97.1809 c 0,0 -7.092,8.8981 -8.899,15.0331 -1.81,6.134 -4.771,11.055 -7.279,13.939 -2.508,2.884 -5.375,7.767 -6.877,11.871 -1.498,4.104 -4.48,10.671 -6.792,12.843 -2.312,2.169 -5.125,7.083 -5.581,9.488 -0.455,2.405 -3.073,6.604 -4.188,7.805 -1.115,1.201 -5.176,7.789 -6.093,10.759 -0.917,2.969 1.427,-0.379 2.783,-1.255 1.355,-0.876 3.911,-2.723 4.889,-6.297 0.983,-3.575 2.642,-7.588 5.112,-10.034 2.469,-2.446 5.77,-6.345 7.467,-11.165 1.698,-4.82 5.544,-11.165 8.45,-14.74 2.902,-3.578 6.478,-8.697 8.134,-13.82 1.652,-5.119 3.997,-8.463 7.019,-12.249 3.023,-3.783 5.187,-10.5412 5.187,-10.5412 z"
       fill="url(#paint8_linear)"
       id="path140" />
    <path
       d="m 347.524,118.817 c 3.363,-2.066 9.729,-6.672 12.494,-12.833 l -4.877,-1.26 c -2.508,5.585 -8.305,9.528 -10.981,11.119 -0.223,0.133 1.283,1.781 3.364,2.974 z"
       fill="url(#paint9_linear)"
       id="path142" />
    <path
       d="m 347.524,118.817 c 3.363,-2.066 9.729,-6.672 12.494,-12.833 l -4.877,-1.26 c -2.508,5.585 -8.305,9.528 -10.981,11.119 -0.223,0.133 1.283,1.781 3.364,2.974 z"
       fill="url(#paint10_linear)"
       id="path144" />
    <path
       d="m 344.196,115.823 2.639,2.347 c -0.711,0.893 -5.835,4.366 -4.305,15.87 l -3.677,2.312 -11.501,-10.236 c -0.405,-0.359 -0.343,-0.865 0.162,-1.14 z"
       fill="#522cd5"
       id="path146" />
    <path
       d="m 343.51,133.76 c 0.11,0.669 -0.237,1.008 -0.923,1.387 l -2.437,1.366 c -0.376,0.208 -0.934,0.154 -1.237,-0.113 l -0.057,-0.052 c -0.344,-0.304 -0.276,-0.743 0.153,-0.976 l 1.931,-1.154 c 0.791,-0.436 1.207,-0.788 1.073,-1.685 -0.793,-5.296 -1.198,-12.157 3.709,-15.352 l 1.828,1.625 c -2.372,1.758 -5.484,6.131 -4.04,14.954 z"
       fill="url(#paint11_linear)"
       id="path148" />
    <path
       d="m 341.985,133.204 c -0.128,0.436 -0.492,0.706 -1.046,1.01 l -1.931,1.154 c -0.429,0.234 -0.496,0.672 -0.152,0.976 l 0.057,0.053 c 0.303,0.27 0.86,0.321 1.236,0.113 l 2.438,-1.367 c 0.392,-0.214 0.669,-0.419 0.818,-0.68 z"
       fill="url(#paint12_radial)"
       id="path150" />
    <path
       d="m 339.333,113.351 c 3.698,-1.381 10.827,-4.677 14.725,-10.191 l -4.546,-2.176 c -3.535,5 -9.983,7.755 -12.916,8.799 -0.239,0.09 0.918,1.995 2.737,3.568 z"
       fill="url(#paint13_linear)"
       id="path152" />
    <path
       d="m 339.333,113.351 c 3.698,-1.381 10.827,-4.677 14.725,-10.191 l -4.546,-2.176 c -3.535,5 -9.983,7.755 -12.916,8.799 -0.239,0.09 0.918,1.995 2.737,3.568 z"
       fill="url(#paint14_linear)"
       id="path154" />
    <path
       d="m 336.641,109.769 2.138,2.81 c -0.87,0.742 -6.601,0.469 -8.526,11.986 l -3.314,3.652 -9.056,-11.908 c -0.082,-0.106 0.078,-0.589 0.622,-0.764 z"
       fill="#522cd5"
       id="path156" />
    <path
       d="m 332.539,127.159 c -0.019,0.681 -0.462,1.072 -1.206,1.31 l -2.64,0.826 c -0.408,0.131 -0.944,-0.026 -1.191,-0.35 l -1.748,-2.296 c -0.278,-0.366 -0.126,-0.781 0.336,-0.93 l 2.308,-0.837 c 0.86,-0.275 1.338,-0.54 1.376,-1.447 0.244,-5.35 2.323,-10.308 7.755,-12.5 l 1.826,2.399 c -2.666,1.28 -6.539,4.893 -6.816,13.825 z"
       fill="url(#paint15_linear)"
       id="path158" />
    <path
       d="m 327.502,128.949 c 0.246,0.32 0.78,0.481 1.191,0.35 l 2.64,-0.827 c 0.415,-0.132 0.734,-0.314 0.937,-0.566 l -2.767,-3.631 c -0.23,0.287 -0.597,0.451 -1.104,0.61 l -2.309,0.837 c -0.465,0.15 -0.614,0.564 -0.336,0.931 z"
       fill="url(#paint16_radial)"
       id="path160" />
    <path
       d="m 395.157,105.626 -1.633,-4.008 c -4.196,1.712 -8.05,2.149 -11.45,1.306 -2.992,-0.743 -5.715,-2.5 -8.093,-5.2197 l -3.258,2.8497 c 4.422,5.057 12.248,10.04 24.434,5.072 z"
       fill="#8a6fe8"
       id="path162" />
    <path
       d="m 338.889,105.445 -4.085,-2.36 c -0.324,-0.19 -0.389,-0.607 -0.132,-0.855 l 2.859,-2.7589 c 0.185,-0.1781 0.482,-0.2086 0.717,-0.0743 l 2.438,1.4092 c 0.235,0.134 0.347,0.403 0.267,0.645 l -1.216,3.71 c -0.107,0.33 -0.52,0.473 -0.848,0.284 z"
       fill="#0b7891"
       id="path164" />
    <path
       d="m 341.046,101.69 -3.849,-2.2225 c -0.432,-0.249 -0.579,-0.7717 -0.328,-1.1649 l 6.532,-10.3827 c 0.25,-0.3967 0.798,-0.515 1.23,-0.2659 l 3.85,2.2219 c 0.431,0.2491 0.578,0.7718 0.327,1.165 l -6.532,10.3831 c -0.25,0.396 -0.802,0.515 -1.23,0.266 z"
       fill="#ffffff"
       id="path166" />
    <path
       d="m 328.832,99.6978 -4.085,-2.3598 c -0.324,-0.1894 -0.389,-0.6063 -0.133,-0.8548 l 2.859,-2.7589 c 0.185,-0.1782 0.483,-0.2086 0.718,-0.0743 l 2.438,1.4091 c 0.235,0.1343 0.346,0.4028 0.266,0.6446 l -1.215,3.71 c -0.107,0.3307 -0.525,0.47 -0.848,0.2841 z"
       fill="#0b7891"
       id="path168" />
    <path
       d="m 330.985,95.9432 -3.85,-2.222 c -0.431,-0.2491 -0.578,-0.7718 -0.327,-1.1649 l 6.532,-10.3828 c 0.25,-0.3966 0.798,-0.5149 1.23,-0.2659 l 3.849,2.222 c 0.432,0.2491 0.579,0.7718 0.328,1.1649 l -6.532,10.3828 c -0.247,0.3926 -0.798,0.5149 -1.23,0.2659 z"
       fill="#ffffff"
       id="path170" />
    <path
       d="m 338.419,84.1261 -1.246,-0.7186 -6.422,10.2042 c -0.25,0.3966 -0.798,0.515 -1.23,0.2659 l -2.604,-1.5033 -0.113,0.1789 c -0.251,0.3967 -0.1,0.9189 0.328,1.165 l 3.849,2.2219 c 0.432,0.2491 0.98,0.1308 1.23,-0.2659 l 6.532,-10.3827 c 0.255,-0.3936 0.108,-0.9164 -0.324,-1.1654 z"
       fill="#60defa"
       id="path172" />
    <path
       d="m 348.481,89.8761 -1.246,-0.7186 -6.422,10.2042 c -0.25,0.3966 -0.798,0.515 -1.23,0.2659 l -1.844,-1.0653 -0.76,-0.438 -0.113,0.1789 c -0.251,0.3967 -0.1,0.9189 0.328,1.165 l 3.849,2.2218 c 0.432,0.249 0.98,0.131 1.23,-0.266 l 6.532,-10.3825 c 0.254,-0.3971 0.104,-0.9194 -0.324,-1.1654 z"
       fill="#60defa"
       id="path174" />
    <path
       d="m 348.769,100.714 c 1.298,-1.3895 2.575,-2.8863 3.817,-4.4811 1.287,-1.6509 -24.378,-17.7613 -25.188,-16.2758 -0.954,1.7503 -1.807,3.4901 -2.552,5.208 -0.286,0.657 -0.034,1.4278 0.585,1.793 z"
       fill="#179bb8"
       id="path176" />
    <path
       d="m 395.754,104.014 1.605,-4.0726 c 0.421,-1.0874 -0.121,-2.3115 -1.208,-2.7326 -1.087,-0.421 -2.311,0.1208 -2.733,1.2083 l -1.644,4.1739 z"
       fill="#8a6fe8"
       id="path178" />
    <path
       d="m 395.062,109.409 c 2.42,-0.335 4.11,-2.567 3.775,-4.987 -0.334,-2.419 -2.567,-4.11 -4.986,-3.775 -2.42,0.334 -4.11,2.567 -3.776,4.986 0.335,2.42 2.568,4.11 4.987,3.776 z"
       fill="url(#paint17_radial)"
       id="path180" />
    <path
       d="M 386.119,115.468 369.315,105 l 1.269,-2.038 16.804,10.468 c 0.419,0.261 0.969,0.132 1.227,-0.287 l 3.672,-5.895 2.038,1.269 -3.671,5.895 c -0.957,1.545 -2.993,2.018 -4.535,1.056 z"
       fill="#d2f6fe"
       id="path182" />
    <path
       d="m 391.962,110.324 -0.33,-0.207 c -1.072,-0.668 -1.402,-2.077 -0.733,-3.149 l 4.405,-7.076 c 0.668,-1.0719 2.078,-1.4016 3.15,-0.7335 l 0.33,0.2063 c 1.072,0.6682 1.402,2.0772 0.734,3.1492 l -4.406,7.076 c -0.668,1.072 -2.078,1.402 -3.15,0.734 z"
       fill="#77e3fb"
       id="path184" />
    <path
       d="m 393.841,109.968 -1.832,-1.184 c -0.896,-0.579 -1.155,-1.778 -0.576,-2.675 l 0.178,-0.276 c 0.579,-0.897 1.779,-1.155 2.675,-0.576 l 1.832,1.184 c 0.896,0.579 1.154,1.778 0.575,2.675 l -0.178,0.276 c -0.578,0.9 -1.778,1.158 -2.674,0.576 z"
       fill="#8a6fe8"
       id="path186" />
    <path
       d="m 396.481,108.478 -1.832,-1.184 c -0.896,-0.579 -1.154,-1.778 -0.575,-2.675 l 0.178,-0.276 c 0.579,-0.897 1.778,-1.155 2.675,-0.576 l 1.831,1.184 c 0.897,0.579 1.155,1.778 0.576,2.675 l -0.178,0.276 c -0.579,0.9 -1.778,1.155 -2.675,0.576 z"
       fill="#8a6fe8"
       id="path188" />
    <path
       d="m 399.046,106.977 -1.832,-1.184 c -0.896,-0.579 -1.154,-1.778 -0.576,-2.674 l 0.179,-0.277 c 0.578,-0.896 1.778,-1.154 2.674,-0.576 l 1.832,1.184 c 0.896,0.579 1.154,1.779 0.575,2.675 l -0.178,0.277 c -0.578,0.899 -1.778,1.158 -2.674,0.575 z"
       fill="#8a6fe8"
       id="path190" />
    <path
       d="m 376.991,101.558 c 4.466,-4.2272 6.136,-8.7844 6.136,-8.7844 l 1.189,0.7408 0.041,-0.0058 c 4.085,-10.3247 0.355,-22.412 -9.398,-28.5025 -10.99,-6.8638 -25.462,-3.5215 -32.326,7.4678 -6.864,10.9894 -3.522,25.4619 7.468,32.3261 8.67,5.417 19.51,4.475 27.07,-1.56 0.287,-0.281 0.649,-0.874 -0.18,-1.682 z"
       fill="url(#paint18_radial)"
       id="path192" />
    <path
       d="m 377.041,101.586 c 4.413,-4.173 6.095,-8.6715 6.133,-8.7797 L 362.532,79.9127 c 0,0 -1.217,-0.9462 -1.961,0.2427 -0.745,1.1889 -2.789,4.5735 -5.108,8.287 -0.476,0.765 -0.081,1.5231 0.409,1.8281 0.004,0.003 20.094,11.8305 21.169,11.3155 z"
       fill="url(#paint19_radial)"
       id="path194" />
    <path
       d="m 365.003,94.0657 c 0,0 4.743,-0.5315 5.655,-0.6079 0.909,-0.0759 1.466,0.2339 1.729,1.0813 0.262,0.8439 1.888,5.3181 1.888,5.3181 z"
       fill="#a08be8"
       id="path196" />
    <path
       d="m 377,103.448 c 0,0 1.215,-0.714 0.041,-1.862 0.003,-0.004 -20.284,-12.6908 -20.284,-12.6908 -0.474,-0.2965 -0.903,-0.9577 -0.673,-1.4474 -0.202,0.3297 -0.412,0.6604 -0.621,0.9981 -0.433,0.6916 -0.147,1.3795 0.278,1.7325 0.044,0.033 0.088,0.0695 0.135,0.0985 l 1.386,0.8659 z"
       fill="#512bd4"
       id="path198" />
    <path
       d="M 373.412,105.705 339.104,84.2731 c -0.048,1.7882 0.11,3.5729 0.465,5.3161 l 28.862,18.0288 c 1.72,-0.447 3.392,-1.087 4.981,-1.913 z"
       fill="#d0c5f3"
       id="path200" />
    <path
       d="m 373.493,62.2133 3.901,2.3108 1.822,-4.3298 -2.799,-1.6574 z"
       fill="#8a6fe8"
       id="path202" />
    <path
       d="m 379.31,60.6498 c 1.766,-0.2441 3,-1.8733 2.755,-3.639 -0.244,-1.7656 -1.873,-2.9991 -3.639,-2.755 -1.765,0.2441 -2.999,1.8733 -2.755,3.6389 0.245,1.7657 1.874,2.9991 3.639,2.7551 z"
       fill="#d8cff7"
       id="path204" />
    <path
       d="m 370.55,63.777 c -0.174,-0.1037 -0.228,-0.3411 -0.101,-0.5041 1.305,-1.7278 3.725,-2.2399 5.632,-1.1086 1.906,1.1312 2.623,3.4987 1.732,5.471 -0.085,0.1856 -0.316,0.2566 -0.491,0.1494 z"
       fill="url(#paint20_radial)"
       id="path206" />
    <path
       d="m 366.107,88.4204 c 0.882,-1.4592 0.893,-3.067 0.026,-3.5911 -0.868,-0.524 -2.286,0.2341 -3.167,1.6933 -0.882,1.4593 -0.893,3.067 -0.026,3.5911 0.868,0.524 2.286,-0.2341 3.167,-1.6933 z"
       fill="#512bd4"
       id="path208" />
    <path
       d="m 378.62,96.2793 c 0.925,-1.4324 0.984,-3.0391 0.132,-3.5888 -0.851,-0.5497 -2.291,0.1658 -3.216,1.5981 -0.924,1.4324 -0.983,3.0391 -0.132,3.5888 0.852,0.5497 2.292,-0.1658 3.216,-1.5981 z"
       fill="#512bd4"
       id="path210" />
    <path
       d="m 365.34,86.1576 c 0.515,-0.121 1.03,0.0101 1.423,0.3072 -0.04,0.6089 -0.261,1.2995 -0.659,1.9615 -0.248,0.414 -0.543,0.7672 -0.851,1.0546 -0.581,-0.1681 -1.054,-0.6352 -1.197,-1.2613 -0.214,-0.9287 0.362,-1.8494 1.284,-2.062 z"
       fill="#8065e0"
       id="path212" />
    <path
       d="m 377.919,93.8982 c 0.516,-0.1209 1.034,0.0097 1.427,0.3068 -0.032,0.6397 -0.277,1.3834 -0.731,2.0849 -0.23,0.3584 -0.496,0.672 -0.772,0.9303 -0.584,-0.1643 -1.064,-0.6338 -1.208,-1.2669 -0.216,-0.9213 0.363,-1.8425 1.284,-2.0551 z"
       fill="#8065e0"
       id="path214" />
    <path
       d="M 367.622,109.387 325.346,82.8033 c -0.839,-0.5263 -1.092,-1.6342 -0.562,-2.4741 l 2.379,-3.7714 c 0.526,-0.8359 1.634,-1.0884 2.47,-0.5616 l 45.448,28.5588 c 1.209,0.763 0.997,1.849 -0.305,2.438 l -5.46,2.508 c -0.551,0.25 -1.185,0.206 -1.694,-0.114 z"
       fill="#27bee0"
       id="path216" />
    <path
       d="M 375.077,104.552 329.629,75.9932 c -0.836,-0.5269 -1.945,-0.2778 -2.471,0.5616 l -0.3,0.4744 c 0.549,-0.2888 1.231,-0.2873 1.791,0.0683 l 45.448,28.5585 c 0.602,0.378 0.851,0.841 0.791,1.282 1.199,-0.599 1.359,-1.647 0.189,-2.386 z"
       fill="#a4ecfc"
       id="path218" />
    <path
       d="m 368.903,101.448 -6.42,-4.01 -3.548,5.68 6.42,4.01 z"
       fill="#512bd4"
       id="path220" />
    <path
       d="m 361.189,101.709 c -0.046,-0.03 -0.08,-0.071 -0.091,-0.126 -0.015,-0.055 -0.008,-0.106 0.022,-0.149 0.029,-0.046 0.071,-0.077 0.126,-0.088 0.055,-0.011 0.106,-0.004 0.156,0.028 0.051,0.032 0.082,0.074 0.093,0.129 0.014,0.055 0.007,0.106 -0.022,0.152 -0.029,0.047 -0.071,0.074 -0.127,0.085 -0.055,0.008 -0.106,-0.003 -0.157,-0.031 z"
       fill="#ffffff"
       id="path222" />
    <path
       d="m 363.146,102.893 -0.315,-0.197 -0.012,-1.83 c 10e-4,-0.046 0.005,-0.093 0.013,-0.137 l -0.008,-0.006 c -0.019,0.042 -0.064,0.126 -0.143,0.251 l -0.729,1.169 -0.279,-0.175 1.112,-1.783 0.338,0.209 0.005,1.781 c 0,0.075 -10e-4,0.125 -0.004,0.15 l 0.004,0.003 c 0.021,-0.053 0.067,-0.133 0.136,-0.246 l 0.718,-1.15 0.279,0.175 z"
       fill="#ffffff"
       id="path224" />
    <path
       d="m 364.505,103.742 -0.975,-0.611 1.112,-1.783 0.937,0.588 -0.157,0.252 -0.649,-0.407 -0.317,0.505 0.599,0.375 -0.158,0.249 -0.598,-0.375 -0.328,0.528 0.688,0.43 z"
       fill="#ffffff"
       id="path226" />
    <path
       d="m 366.851,103.073 -0.501,-0.31 -0.956,1.53 -0.288,-0.18 0.957,-1.531 -0.498,-0.311 0.157,-0.252 1.286,0.805 z"
       fill="#ffffff"
       id="path228" />
    <path
       d="m 325.098,67.9168 1.189,4.162 c 4.36,-1.2452 8.238,-1.2594 11.525,-0.0493 2.89,1.0661 5.408,3.1066 7.476,6.0718 l 3.547,-2.4779 c -3.846,-5.509 -11.083,-11.3157 -23.737,-7.7066 z"
       fill="url(#paint21_linear)"
       id="path230" />
    <path
       d="m 323.677,71.6341 -2.344,3.3196 c -0.619,0.8877 -0.401,2.1103 0.487,2.7293 0.888,0.6191 2.11,0.4004 2.729,-0.4873 l 2.404,-3.4059 z"
       fill="#8a6fe8"
       id="path232" />
    <path
       d="m 323.632,67.5801 -4.057,0.2805 c -1.082,0.0821 -1.889,1.0241 -1.807,2.1059 0.082,1.0817 1.024,1.8885 2.103,1.8068 l 4.159,-0.2874 z"
       fill="#8a6fe8"
       id="path234" />
    <path
       d="m 323.823,70.4002 -4.046,0.3819 c -1.078,0.11 -1.865,1.0705 -1.755,2.1485 0.11,1.0779 1.071,1.8643 2.149,1.7543 l 4.151,-0.3929 z"
       fill="#8a6fe8"
       id="path236" />
    <path
       d="m 324.989,65.9978 -4.033,-0.5179 c -1.076,-0.1317 -2.052,0.635 -2.184,1.7109 -0.131,1.0758 0.635,2.0523 1.711,2.1839 l 4.133,0.5289 z"
       fill="#8a6fe8"
       id="path238" />
    <path
       d="m 326.256,74.0636 c 2.247,-0.3105 3.816,-2.3834 3.506,-4.6299 -0.311,-2.2465 -2.384,-3.8159 -4.63,-3.5053 -2.247,0.3106 -3.816,2.3835 -3.506,4.63 0.311,2.2464 2.384,3.8158 4.63,3.5052 z"
       fill="url(#paint22_radial)"
       id="path240" />
    <path
       d="m 348.652,81.693 c 2.356,-0.3258 4.002,-2.4998 3.677,-4.8559 -0.326,-2.3561 -2.5,-4.0021 -4.856,-3.6764 -2.356,0.3257 -4.002,2.4998 -3.677,4.8559 0.326,2.3561 2.5,4.0021 4.856,3.6764 z"
       fill="url(#paint23_radial)"
       id="path242" />
    <path
       d="m 33,136.105 c 0,-0.915 0.2386,-1.616 0.7159,-2.105 0.4772,-0.489 1.1679,-0.733 2.0722,-0.733 0.9168,0 1.6138,0.257 2.091,0.771 0.4773,0.501 0.7159,1.19 0.7159,2.067 0,0.89 -0.2449,1.598 -0.7347,2.124 -0.4773,0.514 -1.168,0.771 -2.0722,0.771 -0.9043,0 -1.595,-0.257 -2.0722,-0.771 C 33.2386,137.716 33,137.008 33,136.105 Z"
       fill="#ffffff"
       id="path244" />
    <path
       d="M 67.7002,138.455 H 62.1805 L 48.6358,116.556 h -0.1507 l 0.0942,1.222 c 0.1758,2.331 0.2637,4.461 0.2637,6.391 v 14.286 h -4.0879 v -27.481 h 5.4631 l 13.5071,21.785 h 0.113 c -0.0251,-0.288 -0.0753,-1.334 -0.1507,-3.139 -0.0754,-1.817 -0.113,-3.233 -0.113,-4.248 v -14.398 h 4.1256 z"
       fill="#ffffff"
       id="path246" />
    <path
       d="M 90.551,138.455 H 74.9717 V 110.974 H 90.551 v 3.797 H 79.4741 v 7.481 H 89.854 v 3.759 H 79.4741 v 8.628 H 90.551 Z"
       fill="#ffffff"
       id="path248" />
    <path
       d="m 106.036,138.455 h -4.502 v -23.628 h -8.1007 v -3.853 h 20.7037 v 3.853 h -8.101 z"
       fill="#ffffff"
       id="path250" />
    <path
       d="m 140.115,114.432 c -2.588,0 -4.622,0.915 -6.104,2.745 -1.482,1.829 -2.223,4.354 -2.223,7.575 0,3.371 0.71,5.921 2.129,7.65 1.432,1.73 3.497,2.594 6.198,2.594 1.168,0 2.298,-0.113 3.39,-0.338 1.093,-0.238 2.23,-0.539 3.41,-0.902 v 3.853 c -2.16,0.815 -4.609,1.222 -7.347,1.222 -4.031,0 -7.127,-1.216 -9.287,-3.647 -2.16,-2.443 -3.24,-5.933 -3.24,-10.47 0,-2.857 0.521,-5.357 1.563,-7.5 1.055,-2.143 2.575,-3.784 4.559,-4.925 1.985,-1.14 4.314,-1.71 6.989,-1.71 2.813,0 5.413,0.589 7.799,1.767 l -1.62,3.74 c -0.929,-0.438 -1.915,-0.82 -2.957,-1.146 -1.03,-0.338 -2.117,-0.508 -3.259,-0.508 z"
       fill="#ffffff"
       id="path252" />
    <path
       d="m 170.859,128.023 c 0,3.396 -0.873,6.046 -2.619,7.951 -1.745,1.904 -4.176,2.857 -7.29,2.857 -1.947,0 -3.667,-0.439 -5.162,-1.316 -1.494,-0.877 -2.644,-2.137 -3.447,-3.778 -0.804,-1.642 -1.206,-3.547 -1.206,-5.714 0,-3.371 0.867,-6.003 2.6,-7.895 1.733,-1.892 4.176,-2.839 7.328,-2.839 3.014,0 5.4,0.972 7.158,2.914 1.759,1.93 2.638,4.536 2.638,7.82 z m -15.165,0 c 0,4.799 1.777,7.199 5.331,7.199 3.517,0 5.275,-2.4 5.275,-7.199 0,-4.75 -1.771,-7.125 -5.313,-7.125 -1.858,0 -3.208,0.615 -4.05,1.843 -0.829,1.228 -1.243,2.988 -1.243,5.282 z"
       fill="#ffffff"
       id="path254" />
    <path
       d="m 194.294,138.455 h -4.446 v -12.782 c 0,-1.604 -0.327,-2.801 -0.98,-3.59 -0.64,-0.79 -1.664,-1.185 -3.071,-1.185 -1.871,0 -3.24,0.552 -4.106,1.655 -0.867,1.102 -1.3,2.951 -1.3,5.545 v 10.357 h -4.427 v -20.79 h 3.466 l 0.622,2.726 h 0.226 c 0.628,-0.99 1.519,-1.754 2.675,-2.293 1.155,-0.539 2.436,-0.809 3.843,-0.809 4.998,0 7.498,2.538 7.498,7.613 z"
       fill="#ffffff"
       id="path256" />
    <path
       d="m 210.909,121.011 h -5.086 v 17.444 h -4.446 v -17.444 h -3.429 v -2.067 l 3.429,-1.354 v -1.353 c 0,-2.456 0.577,-4.273 1.733,-5.451 1.155,-1.191 2.92,-1.786 5.293,-1.786 1.558,0 3.09,0.257 4.597,0.771 l -1.168,3.346 c -1.093,-0.351 -2.135,-0.527 -3.127,-0.527 -1.005,0 -1.74,0.314 -2.204,0.94 -0.452,0.614 -0.678,1.541 -0.678,2.782 v 1.353 h 5.086 z"
       fill="#ffffff"
       id="path258" />
    <path
       d="m 54.6188,156.695 c 0,1.966 -0.5413,3.47 -1.6238,4.513 -1.077,1.037 -2.6293,1.556 -4.6569,1.556 H 45 v -11.909 h 3.6926 c 1.8737,0 3.3298,0.513 4.3684,1.54 1.0385,1.026 1.5578,2.46 1.5578,4.3 z m -1.4836,0.049 c 0,-1.553 -0.3957,-2.723 -1.1869,-3.51 -0.7858,-0.788 -1.9562,-1.181 -3.5113,-1.181 h -2.0358 v 9.513 h 1.7061 c 1.6705,0 2.9261,-0.404 3.7668,-1.213 0.8407,-0.815 1.2611,-2.018 1.2611,-3.609 z"
       fill="#ffffff"
       id="path260" />
    <path
       d="M 58.4762,162.764 H 57.108 v -8.928 h 1.3682 z m -1.4836,-11.347 c 0,-0.309 0.0769,-0.535 0.2307,-0.676 0.1539,-0.146 0.3462,-0.22 0.577,-0.22 0.2198,0 0.4094,0.074 0.5687,0.22 0.1594,0.147 0.239,0.372 0.239,0.676 0,0.304 -0.0796,0.532 -0.239,0.685 -0.1593,0.146 -0.3489,0.219 -0.5687,0.219 -0.2308,0 -0.4231,-0.073 -0.577,-0.219 -0.1538,-0.153 -0.2307,-0.381 -0.2307,-0.685 z"
       fill="#ffffff"
       id="path262" />
    <path
       d="m 67.2048,160.328 c 0,0.831 -0.3132,1.472 -0.9396,1.923 -0.6265,0.45 -1.5056,0.676 -2.6376,0.676 -1.1979,0 -2.132,-0.188 -2.8024,-0.562 v -1.255 c 0.4341,0.217 0.8984,0.389 1.393,0.513 0.5,0.125 0.9808,0.188 1.4424,0.188 0.7143,0 1.2638,-0.112 1.6484,-0.334 0.3847,-0.228 0.577,-0.573 0.577,-1.035 0,-0.347 -0.1538,-0.643 -0.4616,-0.887 -0.3022,-0.25 -0.8956,-0.544 -1.7803,-0.88 -0.8407,-0.31 -1.4397,-0.579 -1.7968,-0.807 -0.3517,-0.233 -0.6154,-0.496 -0.7913,-0.79 -0.1703,-0.293 -0.2555,-0.643 -0.2555,-1.05 0,-0.728 0.2995,-1.301 0.8984,-1.719 0.599,-0.424 1.4204,-0.635 2.4645,-0.635 0.9726,0 1.9232,0.195 2.8518,0.586 l -0.4863,1.1 c -0.9066,-0.37 -1.7281,-0.554 -2.4644,-0.554 -0.6484,0 -1.1375,0.1 -1.4672,0.301 -0.3297,0.201 -0.4945,0.478 -0.4945,0.831 0,0.239 0.0604,0.443 0.1813,0.611 0.1264,0.168 0.327,0.328 0.6017,0.48 0.2748,0.152 0.8023,0.372 1.5825,0.66 1.0715,0.386 1.7941,0.774 2.1678,1.165 0.3791,0.391 0.5687,0.882 0.5687,1.474 z"
       fill="#ffffff"
       id="path264" />
    <path
       d="m 73.0486,162.927 c -1.3078,0 -2.3216,-0.397 -3.0414,-1.19 -0.7144,-0.798 -1.0715,-1.925 -1.0715,-3.38 0,-1.493 0.3626,-2.647 1.0879,-3.462 0.7309,-0.814 1.7694,-1.221 3.1156,-1.221 0.4341,0 0.8682,0.046 1.3023,0.138 0.4341,0.092 0.7748,0.201 1.0221,0.326 l -0.4204,1.148 c -0.3022,-0.119 -0.6319,-0.217 -0.9891,-0.293 -0.3571,-0.081 -0.6731,-0.122 -0.9478,-0.122 -1.8353,0 -2.753,1.157 -2.753,3.47 0,1.097 0.2226,1.938 0.6677,2.525 0.4505,0.586 1.1154,0.88 1.9946,0.88 0.7528,0 1.5248,-0.161 2.3161,-0.481 v 1.197 c -0.6044,0.31 -1.3655,0.465 -2.2831,0.465 z"
       fill="#ffffff"
       id="path266" />
    <path
       d="m 85.2802,158.292 c 0,1.455 -0.3709,2.593 -1.1128,3.413 -0.7418,0.814 -1.7666,1.222 -3.0743,1.222 -0.8078,0 -1.5249,-0.188 -2.1513,-0.562 -0.6264,-0.375 -1.1099,-0.913 -1.4506,-1.613 -0.3407,-0.701 -0.511,-1.521 -0.511,-2.46 0,-1.455 0.3681,-2.588 1.1044,-3.397 0.7363,-0.814 1.7584,-1.221 3.0662,-1.221 1.2638,0 2.2666,0.415 3.0084,1.246 0.7473,0.831 1.121,1.955 1.121,3.372 z m -6.8824,0 c 0,1.14 0.2308,2.009 0.6924,2.606 0.4616,0.598 1.1402,0.896 2.0358,0.896 0.8957,0 1.5743,-0.295 2.0359,-0.887 0.467,-0.598 0.7006,-1.469 0.7006,-2.615 0,-1.135 -0.2336,-1.996 -0.7006,-2.582 -0.4616,-0.592 -1.1457,-0.888 -2.0523,-0.888 -0.8957,0 -1.5716,0.291 -2.0277,0.872 -0.456,0.581 -0.6841,1.447 -0.6841,2.598 z"
       fill="#ffffff"
       id="path268" />
    <path
       d="m 89.6651,162.764 -3.4288,-8.928 h 1.4671 l 1.9452,5.295 c 0.4396,1.238 0.6978,2.042 0.7748,2.411 h 0.0659 c 0.0604,-0.288 0.25,-0.882 0.5687,-1.784 0.3242,-0.907 1.0468,-2.881 2.1677,-5.922 h 1.4672 l -3.4288,8.928 z"
       fill="#ffffff"
       id="path270" />
    <path
       d="m 99.9597,162.927 c -1.3352,0 -2.3903,-0.402 -3.165,-1.206 -0.7693,-0.803 -1.154,-1.919 -1.154,-3.348 0,-1.439 0.3572,-2.582 1.0715,-3.429 0.7199,-0.847 1.6842,-1.27 2.8931,-1.27 1.1317,0 2.0277,0.369 2.6867,1.107 0.66,0.733 0.989,1.703 0.989,2.908 v 0.855 h -6.2226 c 0.0275,1.049 0.294,1.844 0.7995,2.387 0.511,0.543 1.2281,0.815 2.1511,0.815 0.973,0 1.934,-0.201 2.885,-0.603 v 1.205 c -0.484,0.207 -0.942,0.353 -1.376,0.44 -0.429,0.093 -0.948,0.139 -1.5583,0.139 z m -0.3709,-8.121 c -0.7253,0 -1.305,0.233 -1.7391,0.7 -0.4286,0.467 -0.6814,1.113 -0.7583,1.939 h 4.7226 c 0,-0.853 -0.192,-1.504 -0.577,-1.955 -0.384,-0.456 -0.934,-0.684 -1.6482,-0.684 z"
       fill="#ffffff"
       id="path272" />
    <path
       d="m 109.743,153.674 c 0.401,0 0.761,0.032 1.08,0.097 l -0.19,1.255 c -0.373,-0.082 -0.703,-0.122 -0.989,-0.122 -0.73,0 -1.357,0.293 -1.879,0.879 -0.516,0.587 -0.775,1.317 -0.775,2.191 v 4.79 h -1.368 v -8.928 h 1.129 l 0.157,1.654 h 0.066 c 0.335,-0.581 0.739,-1.029 1.212,-1.344 0.472,-0.315 0.991,-0.472 1.557,-0.472 z"
       fill="#ffffff"
       id="path274" />
    <path
       d="m 119.815,161.811 c 0.242,0 0.476,-0.017 0.701,-0.049 0.225,-0.038 0.404,-0.076 0.536,-0.114 v 1.034 c -0.149,0.071 -0.368,0.128 -0.66,0.171 -0.285,0.049 -0.544,0.074 -0.774,0.074 -1.748,0 -2.621,-0.91 -2.621,-2.729 v -5.311 h -1.294 v -0.651 l 1.294,-0.562 0.577,-1.906 h 0.791 v 2.068 h 2.621 v 1.051 h -2.621 v 5.254 c 0,0.538 0.129,0.95 0.387,1.238 0.258,0.288 0.613,0.432 1.063,0.432 z"
       fill="#ffffff"
       id="path276" />
    <path
       d="m 129.047,162.764 v -5.775 c 0,-0.728 -0.168,-1.271 -0.503,-1.629 -0.335,-0.359 -0.86,-0.538 -1.574,-0.538 -0.951,0 -1.646,0.255 -2.086,0.766 -0.434,0.51 -0.651,1.346 -0.651,2.508 v 4.668 h -1.368 V 150.09 h 1.368 v 3.836 c 0,0.462 -0.022,0.844 -0.066,1.149 h 0.083 c 0.269,-0.429 0.651,-0.766 1.145,-1.01 0.501,-0.25 1.069,-0.375 1.707,-0.375 1.104,0 1.931,0.261 2.481,0.782 0.555,0.516 0.832,1.338 0.832,2.468 v 5.824 z"
       fill="#ffffff"
       id="path278" />
    <path
       d="m 137.05,162.927 c -1.335,0 -2.39,-0.402 -3.165,-1.206 -0.769,-0.803 -1.154,-1.919 -1.154,-3.348 0,-1.439 0.357,-2.582 1.072,-3.429 0.719,-0.847 1.684,-1.27 2.893,-1.27 1.132,0 2.027,0.369 2.687,1.107 0.659,0.733 0.989,1.703 0.989,2.908 v 0.855 h -6.223 c 0.027,1.049 0.294,1.844 0.799,2.387 0.511,0.543 1.228,0.815 2.152,0.815 0.972,0 1.934,-0.201 2.884,-0.603 v 1.205 c -0.483,0.207 -0.942,0.353 -1.376,0.44 -0.429,0.093 -0.948,0.139 -1.558,0.139 z m -0.371,-8.121 c -0.725,0 -1.305,0.233 -1.739,0.7 -0.429,0.467 -0.681,1.113 -0.758,1.939 h 4.723 c 0,-0.853 -0.193,-1.504 -0.577,-1.955 -0.385,-0.456 -0.934,-0.684 -1.649,-0.684 z"
       fill="#ffffff"
       id="path280" />
    <path
       d="m 154.474,162.764 -1.656,-5.238 c -0.105,-0.32 -0.3,-1.048 -0.586,-2.183 h -0.066 c -0.219,0.951 -0.412,1.684 -0.576,2.2 l -1.707,5.221 h -1.582 l -2.465,-8.928 h 1.435 c 0.582,2.243 1.024,3.951 1.327,5.124 0.307,1.173 0.483,1.963 0.527,2.37 h 0.066 c 0.06,-0.309 0.157,-0.708 0.288,-1.197 0.138,-0.494 0.256,-0.885 0.355,-1.173 l 1.657,-5.124 h 1.483 l 1.616,5.124 c 0.307,0.934 0.516,1.719 0.626,2.354 h 0.066 c 0.022,-0.196 0.08,-0.497 0.173,-0.904 0.099,-0.407 0.673,-2.599 1.723,-6.574 h 1.417 l -2.497,8.928 z"
       fill="#ffffff"
       id="path282" />
    <path
       d="m 168.033,158.292 c 0,1.455 -0.371,2.593 -1.113,3.413 -0.742,0.814 -1.766,1.222 -3.074,1.222 -0.808,0 -1.525,-0.188 -2.151,-0.562 -0.627,-0.375 -1.11,-0.913 -1.451,-1.613 -0.341,-0.701 -0.511,-1.521 -0.511,-2.46 0,-1.455 0.368,-2.588 1.104,-3.397 0.737,-0.814 1.759,-1.221 3.067,-1.221 1.263,0 2.266,0.415 3.008,1.246 0.747,0.831 1.121,1.955 1.121,3.372 z m -6.882,0 c 0,1.14 0.23,2.009 0.692,2.606 0.462,0.598 1.14,0.896 2.036,0.896 0.895,0 1.574,-0.295 2.036,-0.887 0.467,-0.598 0.7,-1.469 0.7,-2.615 0,-1.135 -0.233,-1.996 -0.7,-2.582 -0.462,-0.592 -1.146,-0.888 -2.053,-0.888 -0.895,0 -1.571,0.291 -2.027,0.872 -0.456,0.581 -0.684,1.447 -0.684,2.598 z"
       fill="#ffffff"
       id="path284" />
    <path
       d="m 174.561,153.674 c 0.401,0 0.761,0.032 1.08,0.097 l -0.19,1.255 c -0.374,-0.082 -0.703,-0.122 -0.989,-0.122 -0.731,0 -1.357,0.293 -1.879,0.879 -0.517,0.587 -0.775,1.317 -0.775,2.191 v 4.79 h -1.368 v -8.928 h 1.129 l 0.156,1.654 h 0.066 c 0.336,-0.581 0.739,-1.029 1.212,-1.344 0.473,-0.315 0.992,-0.472 1.558,-0.472 z"
       fill="#ffffff"
       id="path286" />
    <path
       d="M 178.698,162.764 H 177.33 V 150.09 h 1.368 z"
       fill="#ffffff"
       id="path288" />
    <path
       d="m 187.749,161.566 h -0.075 c -0.632,0.907 -1.577,1.361 -2.835,1.361 -1.181,0 -2.102,-0.399 -2.761,-1.198 -0.654,-0.798 -0.981,-1.933 -0.981,-3.404 0,-1.472 0.33,-2.615 0.989,-3.43 0.659,-0.814 1.577,-1.221 2.753,-1.221 1.225,0 2.165,0.439 2.819,1.319 h 0.107 l -0.058,-0.643 -0.033,-0.628 v -3.632 h 1.369 v 12.674 h -1.113 z m -2.737,0.228 c 0.934,0 1.61,-0.249 2.028,-0.749 0.423,-0.505 0.634,-1.317 0.634,-2.435 v -0.285 c 0,-1.266 -0.214,-2.167 -0.643,-2.705 -0.423,-0.543 -1.101,-0.814 -2.035,-0.814 -0.803,0 -1.418,0.309 -1.847,0.928 -0.423,0.614 -0.634,1.483 -0.634,2.607 0,1.14 0.211,2.001 0.634,2.582 0.423,0.581 1.044,0.871 1.863,0.871 z"
       fill="#ffffff"
       id="path290" />
    <path
       d="m 204.134,158.292 c 0,1.455 -0.371,2.593 -1.112,3.413 -0.742,0.814 -1.767,1.222 -3.075,1.222 -0.808,0 -1.525,-0.188 -2.151,-0.562 -0.627,-0.375 -1.11,-0.913 -1.451,-1.613 -0.34,-0.701 -0.511,-1.521 -0.511,-2.46 0,-1.455 0.368,-2.588 1.105,-3.397 0.736,-0.814 1.758,-1.221 3.066,-1.221 1.264,0 2.266,0.415 3.008,1.246 0.748,0.831 1.121,1.955 1.121,3.372 z m -6.882,0 c 0,1.14 0.231,2.009 0.692,2.606 0.462,0.598 1.14,0.896 2.036,0.896 0.896,0 1.574,-0.295 2.036,-0.887 0.467,-0.598 0.701,-1.469 0.701,-2.615 0,-1.135 -0.234,-1.996 -0.701,-2.582 -0.462,-0.592 -1.146,-0.888 -2.052,-0.888 -0.896,0 -1.572,0.291 -2.028,0.872 -0.456,0.581 -0.684,1.447 -0.684,2.598 z"
       fill="#ffffff"
       id="path292" />
    <path
       d="m 210.613,154.887 h -2.3 v 7.877 h -1.368 v -7.877 h -1.616 v -0.611 l 1.616,-0.488 v -0.497 c 0,-2.194 0.97,-3.291 2.909,-3.291 0.478,0 1.039,0.095 1.682,0.285 l -0.355,1.083 c -0.527,-0.168 -0.978,-0.252 -1.351,-0.252 -0.517,0 -0.899,0.171 -1.146,0.513 -0.247,0.337 -0.371,0.88 -0.371,1.629 v 0.578 h 2.3 z"
       fill="#ffffff"
       id="path294" />
    <path
       d="m 216.448,161.9 c 0,-0.363 0.083,-0.638 0.248,-0.822 0.17,-0.19 0.412,-0.285 0.725,-0.285 0.319,0 0.566,0.095 0.742,0.285 0.181,0.184 0.272,0.459 0.272,0.822 0,0.353 -0.091,0.625 -0.272,0.815 -0.182,0.19 -0.429,0.285 -0.742,0.285 -0.28,0 -0.514,-0.084 -0.701,-0.253 -0.181,-0.173 -0.272,-0.456 -0.272,-0.847 z"
       fill="#ffffff"
       id="path296" />
    <path
       d="m 230.765,162.764 h -1.599 l -6.585,-9.995 h -0.066 c 0.087,1.173 0.131,2.249 0.131,3.226 v 6.769 h -1.294 v -11.909 h 1.583 l 6.569,9.954 h 0.066 c -0.011,-0.147 -0.036,-0.616 -0.074,-1.409 -0.039,-0.798 -0.052,-1.369 -0.041,-1.711 v -6.834 h 1.31 z"
       fill="#ffffff"
       id="path298" />
    <path
       d="m 240.796,162.764 h -6.717 v -11.909 h 6.717 v 1.23 h -5.316 v 3.837 h 4.995 v 1.221 h -4.995 v 4.383 h 5.316 z"
       fill="#ffffff"
       id="path300" />
    <path
       d="m 247.184,162.764 h -1.401 v -10.679 h -3.817 v -1.23 H 251 v 1.23 h -3.816 z"
       fill="#ffffff"
       id="path302" />
    <path
       d="m 415.003,46.8001 -1.343,-4.4317 c -0.085,-0.2711 -0.243,-0.8868 -0.475,-1.8471 h -0.053 c -0.178,0.8041 -0.334,1.4244 -0.468,1.8609 l -1.383,4.4179 h -1.283 L 408,39.2462 h 1.163 c 0.472,1.8977 0.83,3.3428 1.075,4.3353 0.25,0.9924 0.393,1.661 0.428,2.0056 h 0.054 c 0.049,-0.2619 0.127,-0.5996 0.233,-1.0132 0.112,-0.4181 0.208,-0.7489 0.288,-0.9924 l 1.343,-4.3353 h 1.203 l 1.309,4.3353 c 0.25,0.7903 0.419,1.4542 0.508,1.9918 h 0.054 c 0.017,-0.1654 0.064,-0.4204 0.14,-0.765 0.08,-0.3446 0.546,-2.1987 1.397,-5.5621 h 1.149 l -2.025,7.5539 z"
       fill="#ffffff"
       id="path340" />
    <path
       d="m 425.654,46.8001 -1.343,-4.4317 c -0.085,-0.2711 -0.243,-0.8868 -0.474,-1.8471 h -0.054 c -0.178,0.8041 -0.334,1.4244 -0.468,1.8609 l -1.383,4.4179 h -1.283 l -1.998,-7.5539 h 1.163 c 0.472,1.8977 0.831,3.3428 1.076,4.3353 0.249,0.9924 0.392,1.661 0.427,2.0056 h 0.054 c 0.049,-0.2619 0.127,-0.5996 0.234,-1.0132 0.111,-0.4181 0.207,-0.7489 0.287,-0.9924 l 1.343,-4.3353 h 1.203 l 1.31,4.3353 c 0.249,0.7903 0.418,1.4542 0.507,1.9918 h 0.054 c 0.018,-0.1654 0.065,-0.4204 0.14,-0.765 0.08,-0.3446 0.546,-2.1987 1.397,-5.5621 h 1.149 l -2.025,7.5539 z"
       fill="#ffffff"
       id="path342" />
    <path
       d="m 436.305,46.8001 -1.343,-4.4317 c -0.084,-0.2711 -0.243,-0.8868 -0.474,-1.8471 h -0.054 c -0.178,0.8041 -0.334,1.4244 -0.467,1.8609 l -1.384,4.4179 H 431.3 l -1.998,-7.5539 h 1.163 c 0.472,1.8977 0.831,3.3428 1.076,4.3353 0.249,0.9924 0.392,1.661 0.428,2.0056 h 0.053 c 0.049,-0.2619 0.127,-0.5996 0.234,-1.0132 0.111,-0.4181 0.207,-0.7489 0.287,-0.9924 l 1.343,-4.3353 h 1.203 l 1.31,4.3353 c 0.249,0.7903 0.419,1.4542 0.508,1.9918 h 0.053 c 0.018,-0.1654 0.065,-0.4204 0.14,-0.765 0.081,-0.3446 0.546,-2.1987 1.397,-5.5621 h 1.149 l -2.024,7.5539 z"
       fill="#ffffff"
       id="path344" />
    <path
       d="m 440.816,46.0695 c 0,-0.3078 0.067,-0.5398 0.2,-0.6961 0.138,-0.1608 0.334,-0.2412 0.588,-0.2412 0.259,0 0.459,0.0804 0.602,0.2412 0.147,0.1563 0.22,0.3883 0.22,0.6961 0,0.2987 -0.073,0.5285 -0.22,0.6893 -0.147,0.1608 -0.348,0.2412 -0.602,0.2412 -0.227,0 -0.416,-0.0712 -0.568,-0.2137 -0.147,-0.147 -0.22,-0.3859 -0.22,-0.7168 z"
       fill="#ffffff"
       id="path346" />
    <path
       d="m 449.609,45.787 h -0.06 c -0.512,0.7673 -1.278,1.151 -2.298,1.151 -0.958,0 -1.704,-0.3377 -2.239,-1.0132 -0.53,-0.6754 -0.795,-1.6357 -0.795,-2.8809 0,-1.2452 0.267,-2.2124 0.802,-2.9017 0.534,-0.6892 1.278,-1.0338 2.232,-1.0338 0.993,0 1.755,0.3722 2.285,1.1165 h 0.087 l -0.047,-0.5444 -0.027,-0.5308 v -3.0739 h 1.109 v 10.7243 h -0.902 z m -2.218,0.1929 c 0.757,0 1.305,-0.2113 1.644,-0.634 0.343,-0.4274 0.514,-1.1143 0.514,-2.0608 v -0.2412 c 0,-1.0706 -0.174,-1.8334 -0.521,-2.2883 -0.343,-0.4594 -0.893,-0.6892 -1.65,-0.6892 -0.651,0 -1.15,0.2619 -1.497,0.7857 -0.343,0.5192 -0.515,1.2544 -0.515,2.2055 0,0.965 0.172,1.6932 0.515,2.1849 0.343,0.4916 0.846,0.7374 1.51,0.7374 z"
       fill="#ffffff"
       id="path348" />
    <path
       d="m 459.338,43.0163 c 0,1.2314 -0.3,2.194 -0.902,2.8878 -0.601,0.6893 -1.432,1.0339 -2.492,1.0339 -0.655,0 -1.236,-0.1586 -1.744,-0.4756 -0.508,-0.317 -0.9,-0.7719 -1.176,-1.3647 -0.276,-0.5927 -0.414,-1.2865 -0.414,-2.0814 0,-1.2314 0.298,-2.1894 0.895,-2.8741 0.597,-0.6892 1.426,-1.0338 2.486,-1.0338 1.024,0 1.837,0.3515 2.439,1.0545 0.606,0.703 0.908,1.6541 0.908,2.8534 z m -5.579,0 c 0,0.9649 0.187,1.7001 0.561,2.2055 0.374,0.5054 0.925,0.7581 1.651,0.7581 0.726,0 1.276,-0.2504 1.65,-0.7512 0.379,-0.5054 0.568,-1.2429 0.568,-2.2124 0,-0.9603 -0.189,-1.6886 -0.568,-2.1848 -0.374,-0.5009 -0.929,-0.7513 -1.664,-0.7513 -0.726,0 -1.274,0.2458 -1.643,0.7375 -0.37,0.4916 -0.555,1.2245 -0.555,2.1986 z"
       fill="#ffffff"
       id="path350" />
    <path
       d="m 463.655,45.9937 c 0.196,0 0.385,-0.0138 0.568,-0.0413 0.183,-0.0322 0.327,-0.0643 0.434,-0.0965 v 0.8753 c -0.12,0.0597 -0.298,0.108 -0.534,0.1447 -0.232,0.0414 -0.441,0.0621 -0.628,0.0621 -1.417,0 -2.125,-0.7697 -2.125,-2.3089 v -4.4938 h -1.049 V 39.584 l 1.049,-0.4756 0.468,-1.6128 h 0.641 v 1.7506 h 2.125 v 0.8891 h -2.125 v 4.4455 c 0,0.4549 0.105,0.8041 0.314,1.0476 0.209,0.2436 0.497,0.3653 0.862,0.3653 z"
       fill="#ffffff"
       id="path352" />
    <path
       d="m 471.139,46.8001 v -4.8866 c 0,-0.6157 -0.136,-1.0752 -0.408,-1.3784 -0.271,-0.3033 -0.697,-0.4549 -1.276,-0.4549 -0.766,0 -1.327,0.2137 -1.684,0.641 -0.356,0.4273 -0.534,1.1326 -0.534,2.1159 v 3.963 h -1.11 v -7.5539 h 0.903 l 0.18,1.0339 h 0.053 c 0.228,-0.3722 0.546,-0.6594 0.956,-0.8616 0.41,-0.2067 0.866,-0.3101 1.37,-0.3101 0.882,0 1.546,0.2205 1.991,0.6617 0.446,0.4365 0.668,1.1372 0.668,2.1021 v 4.9279 z"
       fill="#ffffff"
       id="path354" />
    <path
       d="m 477.627,46.938 c -1.082,0 -1.937,-0.34 -2.566,-1.0201 -0.623,-0.68 -0.935,-1.6242 -0.935,-2.8327 0,-1.2176 0.289,-2.1848 0.869,-2.9016 0.583,-0.7168 1.365,-1.0752 2.345,-1.0752 0.918,0 1.644,0.3124 2.178,0.9373 0.535,0.6203 0.802,1.4405 0.802,2.4606 v 0.7236 h -5.045 c 0.023,0.8868 0.239,1.56 0.648,2.0195 0.415,0.4595 0.996,0.6892 1.744,0.6892 0.789,0 1.568,-0.17 2.339,-0.51 v 1.02 c -0.392,0.1746 -0.764,0.2987 -1.116,0.3722 -0.347,0.0781 -0.768,0.1172 -1.263,0.1172 z m -0.3,-6.8716 c -0.588,0 -1.058,0.1976 -1.41,0.5927 -0.348,0.3952 -0.553,0.942 -0.615,1.6404 h 3.829 c 0,-0.7214 -0.156,-1.2728 -0.468,-1.6541 -0.312,-0.386 -0.757,-0.579 -1.336,-0.579 z"
       fill="#ffffff"
       id="path356" />
    <path
       d="m 484.583,45.9937 c 0.196,0 0.386,-0.0138 0.568,-0.0413 0.183,-0.0322 0.328,-0.0643 0.435,-0.0965 v 0.8753 c -0.121,0.0597 -0.299,0.108 -0.535,0.1447 -0.232,0.0414 -0.441,0.0621 -0.628,0.0621 -1.417,0 -2.125,-0.7697 -2.125,-2.3089 v -4.4938 h -1.049 V 39.584 l 1.049,-0.4756 0.468,-1.6128 h 0.641 v 1.7506 h 2.125 v 0.8891 h -2.125 v 4.4455 c 0,0.4549 0.105,0.8041 0.314,1.0476 0.21,0.2436 0.497,0.3653 0.862,0.3653 z"
       fill="#ffffff"
       id="path358" />
    <path
       d="m 489.983,46.938 c -1.061,0 -1.883,-0.3355 -2.466,-1.0063 -0.579,-0.6754 -0.869,-1.6289 -0.869,-2.8603 0,-1.2635 0.294,-2.2399 0.882,-2.9292 0.593,-0.6892 1.435,-1.0338 2.526,-1.0338 0.352,0 0.704,0.0391 1.056,0.1172 0.352,0.0781 0.628,0.17 0.828,0.2757 l -0.34,0.9718 c -0.245,-0.1011 -0.513,-0.1838 -0.802,-0.2482 -0.29,-0.0689 -0.546,-0.1033 -0.769,-0.1033 -1.488,0 -2.232,0.9787 -2.232,2.936 0,0.9282 0.181,1.6404 0.542,2.1366 0.365,0.4963 0.904,0.7444 1.617,0.7444 0.61,0 1.236,-0.1356 1.877,-0.4066 v 1.0131 c -0.49,0.2619 -1.107,0.3929 -1.85,0.3929 z"
       fill="#ffffff"
       id="path360" />
    <path
       d="m 499.899,43.0163 c 0,1.2314 -0.301,2.194 -0.902,2.8878 -0.602,0.6893 -1.433,1.0339 -2.493,1.0339 -0.655,0 -1.236,-0.1586 -1.744,-0.4756 -0.508,-0.317 -0.9,-0.7719 -1.176,-1.3647 -0.276,-0.5927 -0.414,-1.2865 -0.414,-2.0814 0,-1.2314 0.298,-2.1894 0.895,-2.8741 0.597,-0.6892 1.426,-1.0338 2.486,-1.0338 1.025,0 1.838,0.3515 2.439,1.0545 0.606,0.703 0.909,1.6541 0.909,2.8534 z m -5.58,0 c 0,0.9649 0.187,1.7001 0.561,2.2055 0.375,0.5054 0.925,0.7581 1.651,0.7581 0.726,0 1.276,-0.2504 1.65,-0.7512 0.379,-0.5054 0.568,-1.2429 0.568,-2.2124 0,-0.9603 -0.189,-1.6886 -0.568,-2.1848 -0.374,-0.5009 -0.928,-0.7513 -1.663,-0.7513 -0.727,0 -1.274,0.2458 -1.644,0.7375 -0.37,0.4916 -0.555,1.2245 -0.555,2.1986 z"
       fill="#ffffff"
       id="path362" />
    <path
       d="m 506.861,46.8001 v -4.8866 c 0,-0.6157 -0.135,-1.0752 -0.407,-1.3784 -0.272,-0.3033 -0.697,-0.4549 -1.276,-0.4549 -0.767,0 -1.328,0.2137 -1.684,0.641 -0.357,0.4273 -0.535,1.1326 -0.535,2.1159 v 3.963 h -1.109 v -7.5539 h 0.902 l 0.18,1.0339 h 0.054 c 0.227,-0.3722 0.546,-0.6594 0.955,-0.8616 0.41,-0.2067 0.867,-0.3101 1.37,-0.3101 0.882,0 1.546,0.2205 1.991,0.6617 0.446,0.4365 0.669,1.1372 0.669,2.1021 v 4.9279 z"
       fill="#ffffff"
       id="path364" />
    <path
       d="m 513.557,40.1353 h -1.864 v 6.6648 h -1.11 v -6.6648 h -1.309 v -0.5169 l 1.309,-0.4135 v -0.4204 c 0,-1.8563 0.787,-2.7845 2.359,-2.7845 0.388,0 0.842,0.0804 1.363,0.2412 l -0.287,0.9167 c -0.428,-0.1424 -0.793,-0.2137 -1.096,-0.2137 -0.419,0 -0.728,0.1448 -0.929,0.4342 -0.2,0.2849 -0.3,0.7444 -0.3,1.3785 v 0.4893 h 1.864 z"
       fill="#ffffff"
       id="path366" />
    <path
       d="m 514.733,46.0695 c 0,-0.3078 0.067,-0.5398 0.2,-0.6961 0.139,-0.1608 0.335,-0.2412 0.588,-0.2412 0.259,0 0.459,0.0804 0.602,0.2412 0.147,0.1563 0.22,0.3883 0.22,0.6961 0,0.2987 -0.073,0.5285 -0.22,0.6893 -0.147,0.1608 -0.348,0.2412 -0.602,0.2412 -0.227,0 -0.416,-0.0712 -0.568,-0.2137 -0.147,-0.147 -0.22,-0.3859 -0.22,-0.7168 z"
       fill="#ffffff"
       id="path368" />
    <path
       d="m 523.553,46.8001 v -4.8866 c 0,-0.6157 -0.136,-1.0752 -0.407,-1.3784 -0.272,-0.3033 -0.697,-0.4549 -1.277,-0.4549 -0.766,0 -1.327,0.2137 -1.683,0.641 -0.357,0.4273 -0.535,1.1326 -0.535,2.1159 v 3.963 h -1.109 v -7.5539 h 0.902 l 0.18,1.0339 h 0.054 c 0.227,-0.3722 0.545,-0.6594 0.955,-0.8616 0.41,-0.2067 0.867,-0.3101 1.37,-0.3101 0.882,0 1.546,0.2205 1.991,0.6617 0.446,0.4365 0.669,1.1372 0.669,2.1021 v 4.9279 z"
       fill="#ffffff"
       id="path370" />
    <path
       d="m 530.042,46.938 c -1.083,0 -1.938,-0.34 -2.566,-1.0201 -0.624,-0.68 -0.936,-1.6242 -0.936,-2.8327 0,-1.2176 0.29,-2.1848 0.869,-2.9016 0.583,-0.7168 1.365,-1.0752 2.345,-1.0752 0.918,0 1.644,0.3124 2.179,0.9373 0.534,0.6203 0.802,1.4405 0.802,2.4606 v 0.7236 h -5.045 c 0.022,0.8868 0.238,1.56 0.648,2.0195 0.414,0.4595 0.995,0.6892 1.744,0.6892 0.788,0 1.568,-0.17 2.338,-0.51 v 1.02 c -0.392,0.1746 -0.764,0.2987 -1.115,0.3722 -0.348,0.0781 -0.769,0.1172 -1.263,0.1172 z m -0.301,-6.8716 c -0.588,0 -1.058,0.1976 -1.41,0.5927 -0.347,0.3952 -0.552,0.942 -0.615,1.6404 h 3.829 c 0,-0.7214 -0.156,-1.2728 -0.468,-1.6541 -0.311,-0.386 -0.757,-0.579 -1.336,-0.579 z"
       fill="#ffffff"
       id="path372" />
    <path
       d="m 536.998,45.9937 c 0.196,0 0.385,-0.0138 0.568,-0.0413 0.182,-0.0322 0.327,-0.0643 0.434,-0.0965 v 0.8753 c -0.12,0.0597 -0.298,0.108 -0.535,0.1447 -0.231,0.0414 -0.441,0.0621 -0.628,0.0621 -1.416,0 -2.125,-0.7697 -2.125,-2.3089 v -4.4938 h -1.049 V 39.584 l 1.049,-0.4756 0.468,-1.6128 h 0.642 v 1.7506 h 2.125 v 0.8891 h -2.125 v 4.4455 c 0,0.4549 0.104,0.8041 0.314,1.0476 0.209,0.2436 0.496,0.3653 0.862,0.3653 z"
       fill="#ffffff"
       id="path374" />
    <text
       xml:space="preserve"
       style="font-size:16px;line-height:1.25;font-family:'Open Sans';-inkscape-font-specification:'Open Sans'"
       x="372.20584"
       y="29.369064"
       id="text8963"><tspan
         id="tspan8961"
         x="372.20584"
         y="29.369064"
         style="font-size:16px;fill:#ffffff">November 9 - 11, 2021</tspan></text>
  </g>
  <defs
     id="defs505">
    <radialGradient
       id="paint0_radial"
       cx="0"
       cy="0"
       r="1"
       gradientUnits="userSpaceOnUse"
       gradientTransform="translate(245.613 186.835) scale(298.578 398.265)">
      <stop
         offset="0.4602"
         stop-color="#1572E0"
         id="stop378" />
      <stop
         offset="0.8725"
         stop-color="#3E8EED"
         id="stop380" />
    </radialGradient>
    <radialGradient
       id="paint1_radial"
       cx="0"
       cy="0"
       r="1"
       gradientUnits="userSpaceOnUse"
       gradientTransform="translate(257.337 -101.671) scale(462.75 482.289)">
      <stop
         offset="0.1052"
         stop-color="#60A2F0"
         id="stop383" />
      <stop
         offset="0.5496"
         stop-color="#3E8EED"
         id="stop385" />
      <stop
         offset="0.9964"
         stop-color="#1C77E2"
         id="stop387" />
    </radialGradient>
    <radialGradient
       id="paint2_radial"
       cx="0"
       cy="0"
       r="1"
       gradientUnits="userSpaceOnUse"
       gradientTransform="translate(305.278 156.948) scale(340.473 186.081)">
      <stop
         offset="0.5491"
         stop-color="#549BEF"
         id="stop390" />
      <stop
         offset="0.9925"
         stop-color="#1C77E2"
         id="stop392" />
    </radialGradient>
    <radialGradient
       id="paint3_radial"
       cx="0"
       cy="0"
       r="1"
       gradientUnits="userSpaceOnUse"
       gradientTransform="translate(53.6801 17.9991) scale(43.3032)">
      <stop
         offset="0.3813"
         stop-color="#77E3FB"
         id="stop395" />
      <stop
         offset="0.979"
         stop-color="#2CC7EA"
         id="stop397" />
    </radialGradient>
    <radialGradient
       id="paint4_radial"
       cx="0"
       cy="0"
       r="1"
       gradientUnits="userSpaceOnUse"
       gradientTransform="translate(66.1834 44.3884) scale(17.9354 32.2963)">
      <stop
         offset="0.489583"
         stop-color="#A2CCFF"
         id="stop400" />
      <stop
         offset="0.9925"
         stop-color="#67A3EB"
         id="stop402" />
    </radialGradient>
    <linearGradient
       id="paint5_linear"
       x1="102.695"
       y1="43.8446"
       x2="35.9958"
       y2="43.8446"
       gradientUnits="userSpaceOnUse">
      <stop
         offset="0.000330688"
         stop-color="#B5D6FF"
         stop-opacity="0"
         id="stop405" />
      <stop
         offset="1"
         stop-color="#B5D6FF"
         id="stop407" />
    </linearGradient>
    <radialGradient
       id="paint6_radial"
       cx="0"
       cy="0"
       r="1"
       gradientUnits="userSpaceOnUse"
       gradientTransform="translate(505.782 137.283) rotate(-6.92105) scale(34.1154)">
      <stop
         offset="0.3813"
         stop-color="#AFD3FE"
         id="stop410" />
      <stop
         offset="0.979"
         stop-color="#2079E4"
         id="stop412" />
    </radialGradient>
    <linearGradient
       id="paint7_linear"
       x1="319.872"
       y1="185.912"
       x2="320.983"
       y2="102.373"
       gradientUnits="userSpaceOnUse">
      <stop
         stop-color="white"
         stop-opacity="0"
         id="stop415" />
      <stop
         offset="0.9936"
         stop-color="#60DEFA"
         id="stop417" />
    </linearGradient>
    <linearGradient
       id="paint8_linear"
       x1="309.931"
       y1="180.526"
       x2="311.042"
       y2="96.9867"
       gradientUnits="userSpaceOnUse">
      <stop
         stop-color="white"
         stop-opacity="0"
         id="stop420" />
      <stop
         offset="0.9936"
         stop-color="#60DEFA"
         id="stop422" />
    </linearGradient>
    <linearGradient
       id="paint9_linear"
       x1="358.827"
       y1="105.305"
       x2="349.949"
       y2="120.281"
       gradientUnits="userSpaceOnUse">
      <stop
         stop-color="#522CD5"
         id="stop425" />
      <stop
         offset="0.4397"
         stop-color="#8A6FE8"
         id="stop427" />
    </linearGradient>
    <linearGradient
       id="paint10_linear"
       x1="358.827"
       y1="105.305"
       x2="349.949"
       y2="120.281"
       gradientUnits="userSpaceOnUse">
      <stop
         stop-color="#522CD5"
         id="stop430" />
      <stop
         offset="0.4397"
         stop-color="#8A6FE8"
         id="stop432" />
    </linearGradient>
    <linearGradient
       id="paint11_linear"
       x1="348.398"
       y1="117.954"
       x2="342.75"
       y2="137.596"
       gradientUnits="userSpaceOnUse">
      <stop
         stop-color="#522CD5"
         id="stop435" />
      <stop
         offset="0.4397"
         stop-color="#8A6FE8"
         id="stop437" />
    </linearGradient>
    <radialGradient
       id="paint12_radial"
       cx="0"
       cy="0"
       r="1"
       gradientUnits="userSpaceOnUse"
       gradientTransform="translate(342.048 132.62) rotate(41.6266) scale(3.94157 3.9413)">
      <stop
         offset="0.034"
         stop-color="#522CD5"
         id="stop440" />
      <stop
         offset="1"
         stop-color="#8A6FE8"
         id="stop442" />
    </radialGradient>
    <linearGradient
       id="paint13_linear"
       x1="352.983"
       y1="102.197"
       x2="341.392"
       y2="115.187"
       gradientUnits="userSpaceOnUse">
      <stop
         stop-color="#522CD5"
         id="stop445" />
      <stop
         offset="0.4397"
         stop-color="#8A6FE8"
         id="stop447" />
    </linearGradient>
    <linearGradient
       id="paint14_linear"
       x1="352.983"
       y1="102.197"
       x2="341.392"
       y2="115.187"
       gradientUnits="userSpaceOnUse">
      <stop
         stop-color="#522CD5"
         id="stop450" />
      <stop
         offset="0.4397"
         stop-color="#8A6FE8"
         id="stop452" />
    </linearGradient>
    <linearGradient
       id="paint15_linear"
       x1="340.061"
       y1="112.214"
       x2="330.628"
       y2="130.623"
       gradientUnits="userSpaceOnUse">
      <stop
         stop-color="#522CD5"
         id="stop455" />
      <stop
         offset="0.4397"
         stop-color="#8A6FE8"
         id="stop457" />
    </linearGradient>
    <radialGradient
       id="paint16_radial"
       cx="0"
       cy="0"
       r="1"
       gradientUnits="userSpaceOnUse"
       gradientTransform="translate(334.559 124.661) rotate(52.711) scale(6.98294 6.98259)">
      <stop
         offset="0.034"
         stop-color="#522CD5"
         id="stop460" />
      <stop
         offset="0.9955"
         stop-color="#8A6FE8"
         id="stop462" />
    </radialGradient>
    <radialGradient
       id="paint17_radial"
       cx="0"
       cy="0"
       r="1"
       gradientUnits="userSpaceOnUse"
       gradientTransform="translate(393.863 103.449) rotate(-14.792) scale(6.3847)">
      <stop
         stop-color="#8065E0"
         id="stop465" />
      <stop
         offset="1"
         stop-color="#512BD4"
         id="stop467" />
    </radialGradient>
    <radialGradient
       id="paint18_radial"
       cx="0"
       cy="0"
       r="1"
       gradientUnits="userSpaceOnUse"
       gradientTransform="translate(368.695 71.9823) rotate(31.9889) scale(24.8538)">
      <stop
         offset="0.3472"
         stop-color="#A08BE8"
         id="stop470" />
      <stop
         offset="0.684"
         stop-color="#8065E0"
         id="stop472" />
      <stop
         offset="0.7596"
         stop-color="#8065E0"
         id="stop474" />
    </radialGradient>
    <radialGradient
       id="paint19_radial"
       cx="0"
       cy="0"
       r="1"
       gradientUnits="userSpaceOnUse"
       gradientTransform="translate(365.268 84.1561) rotate(-14.792) scale(25.0384)">
      <stop
         offset="0.0933"
         stop-color="#E1DFDD"
         id="stop477" />
      <stop
         offset="0.6573"
         stop-color="white"
         id="stop479" />
    </radialGradient>
    <radialGradient
       id="paint20_radial"
       cx="0"
       cy="0"
       r="1"
       gradientUnits="userSpaceOnUse"
       gradientTransform="translate(373.954 62.9021) rotate(-14.792) scale(3.55947)">
      <stop
         stop-color="#8065E0"
         id="stop482" />
      <stop
         offset="1"
         stop-color="#512BD4"
         id="stop484" />
    </radialGradient>
    <linearGradient
       id="paint21_linear"
       x1="348.203"
       y1="71.0532"
       x2="325.958"
       y2="74.1285"
       gradientUnits="userSpaceOnUse">
      <stop
         offset="0.2495"
         stop-color="#967FE6"
         id="stop487" />
      <stop
         offset="1"
         stop-color="#8A6FE8"
         id="stop489" />
    </linearGradient>
    <radialGradient
       id="paint22_radial"
       cx="0"
       cy="0"
       r="1"
       gradientUnits="userSpaceOnUse"
       gradientTransform="translate(325.434 68.0485) rotate(-14.792) scale(6.47688)">
      <stop
         stop-color="#8065E0"
         id="stop492" />
      <stop
         offset="1"
         stop-color="#512BD4"
         id="stop494" />
    </radialGradient>
    <radialGradient
       id="paint23_radial"
       cx="0"
       cy="0"
       r="1"
       gradientUnits="userSpaceOnUse"
       gradientTransform="translate(349.237 76.7571) rotate(-3.42043) scale(4.30909)">
      <stop
         stop-color="#8065E0"
         id="stop497" />
      <stop
         offset="1"
         stop-color="#512BD4"
         id="stop499" />
    </radialGradient>
    <clipPath
       id="clip0">
      <rect
         width="550"
         height="182"
         fill="white"
         id="rect502" />
    </clipPath>
  </defs>
</svg>
