<?xml version="1.0" encoding="UTF-8" standalone="no"?>
<svg
   width="728"
   height="90"
   viewBox="0 0 728 90"
   fill="none"
   version="1.1"
   id="svg439"
   xmlns="http://www.w3.org/2000/svg"
   xmlns:svg="http://www.w3.org/2000/svg">
  <g
     clip-path="url(#clip0)"
     id="g308">
    <rect
       width="728"
       height="90"
       fill="#ffffff"
       id="rect2"
       x="0"
       y="0" />
    <path
       d="M 382.974,164.407 C 726.838,170.55 879.576,128.465 872.784,60.7602 867.608,9.32803 798.27,-6.26807 829.288,-48.0928 868.885,-101.491 448.022,-126.15 173.683,-86.3648 -40.2385,-55.3379 -157.516,46.9534 -51.1508,104.767 c 74.258,40.37 257.6728,56.488 434.1248,59.64 z"
       fill="url(#paint0_radial)"
       id="path4" />
    <path
       opacity="0.6"
       d="M 774.801,50.6629 C 773.986,43.6988 771.427,37.5601 767.893,32 697.635,65.2988 527.871,76.9418 428.383,82.0407 335.675,86.7931 149.267,94.7382 41,116.908 c 4.9088,0.632 9.8817,1.242 14.9344,1.833 0.2079,0.023 0.4157,0.047 0.6236,0.073 2.2226,0.259 4.4611,0.514 6.6997,0.767 0.4637,0.053 0.9274,0.103 1.3911,0.156 2.0307,0.226 4.0774,0.449 6.1241,0.669 0.5276,0.056 1.0393,0.112 1.567,0.168 2.0786,0.22 4.1573,0.437 6.252,0.649 0.4477,0.047 0.8954,0.091 1.3431,0.138 2.3665,0.241 4.7489,0.476 7.1474,0.708 0.1599,0.014 0.3038,0.029 0.4637,0.044 5.2926,0.511 10.6492,1.004 16.0539,1.48 0.144,0.012 0.272,0.024 0.416,0.035 2.462,0.215 4.924,0.426 7.403,0.635 0.511,0.041 1.007,0.085 1.519,0.126 2.142,0.179 4.285,0.352 6.444,0.526 0.607,0.05 1.215,0.097 1.839,0.147 2.11,0.167 4.221,0.332 6.347,0.493 0.592,0.044 1.168,0.091 1.759,0.135 2.287,0.174 4.589,0.341 6.892,0.508 0.4,0.03 0.783,0.059 1.183,0.086 5.533,0.396 11.113,0.778 16.741,1.142 0.144,0.009 0.304,0.018 0.448,0.029 2.558,0.165 5.133,0.326 7.707,0.485 0.608,0.038 1.231,0.074 1.855,0.112 2.127,0.129 4.269,0.258 6.412,0.382 0.751,0.044 1.503,0.088 2.254,0.129 2.047,0.117 4.094,0.232 6.14,0.346 0.768,0.044 1.551,0.086 2.319,0.127 2.127,0.114 4.253,0.229 6.38,0.34 0.655,0.036 1.327,0.071 1.983,0.103 2.59,0.132 5.196,0.265 7.803,0.391 0.175,0.009 0.367,0.017 0.543,0.026 2.894,0.141 5.805,0.276 8.715,0.411 0.208,0.009 0.431,0.018 0.639,0.03 2.575,0.117 5.149,0.232 7.723,0.341 0.768,0.032 1.535,0.064 2.319,0.096 2.03,0.086 4.077,0.171 6.108,0.253 0.927,0.038 1.839,0.073 2.766,0.109 1.919,0.076 3.838,0.15 5.756,0.223 0.96,0.035 1.919,0.073 2.879,0.109 1.934,0.07 3.869,0.141 5.804,0.208 0.911,0.032 1.823,0.065 2.734,0.097 2.159,0.074 4.333,0.147 6.508,0.217 0.655,0.021 1.327,0.045 1.983,0.065 2.862,0.091 5.724,0.179 8.586,0.264 0.272,0.009 0.544,0.015 0.816,0.024 2.542,0.073 5.084,0.147 7.627,0.214 0.911,0.024 1.838,0.047 2.75,0.074 1.919,0.05 3.821,0.1 5.74,0.147 1.056,0.026 2.111,0.052 3.166,0.076 1.791,0.044 3.582,0.085 5.373,0.126 1.103,0.024 2.19,0.05 3.294,0.074 1.774,0.038 3.565,0.076 5.34,0.111 1.072,0.021 2.127,0.044 3.198,0.065 1.919,0.038 3.854,0.073 5.772,0.109 0.912,0.017 1.807,0.032 2.719,0.05 2.814,0.049 5.628,0.094 8.426,0.138 h 0.016 c 20.179,0.305 39.671,0.464 58.459,0.472 197.313,0.106 318.1,-15.904 370.754,-42.9264 1.247,-0.6433 2.462,-1.2924 3.645,-1.9474 3.534,-1.9679 6.716,-3.9916 9.546,-6.0682 0.944,-0.6932 1.855,-1.3893 2.719,-2.0942 1.742,-1.4069 3.326,-2.8402 4.765,-4.2942 2.878,-2.9107 5.148,-5.9125 6.811,-8.9995 2.958,-5.4103 4.046,-11.0849 3.358,-17.0062 z"
       fill="url(#paint1_radial)"
       id="path6" />
    <path
       opacity="0.7"
       d="M 29.6781,-42.5683 C -88.739,-22.1136 -42.9754,48.661 -73,98 -37.1862,85.115 8.68793,78.0182 88.3569,62.5488 230.327,34.9811 421.72,14.8648 492.031,12.0399 c 113.31,-4.54909 7.09,12.2859 -42.491,20.475 -49.581,8.1892 -82.889,18.9995 2.221,8.7069 C 557.457,28.4387 713.761,12.7206 775,12.0399 763.39,-39.9446 270.002,-84.0727 29.6781,-42.5683 Z"
       fill="url(#paint2_radial)"
       id="path8" />
    <path
       d="m 134.448,15.8377 c 0,0 -1.553,0.921 -2.588,2.6611 -0.497,-1.3448 -2.661,-2.5877 -2.661,-2.5877 0,0 1.818,-0.9251 2.588,-2.6611 0.929,1.6545 2.661,2.5877 2.661,2.5877 z"
       fill="#afd3fe"
       id="path10" />
    <path
       d="m 247.16,19.1368 c 1.076,-0.0856 1.874,-0.2445 3.068,-0.4483 0.612,-0.1059 0.603,-0.9984 -0.016,-1.0799 -1.166,-0.1589 -1.915,-0.2364 -3.028,-0.2527 -0.281,-0.004 -0.517,-0.216 -0.538,-0.4971 -0.089,-1.0596 -0.248,-2.2373 -0.448,-3.4069 -0.106,-0.6113 -0.994,-0.5991 -1.08,0.0163 -0.159,1.1614 -0.232,2.3147 -0.249,3.4272 -0.004,0.2853 -0.224,0.5217 -0.505,0.542 -1.068,0.0734 -2.05,0.1834 -2.897,0.3057 -0.628,0.0896 -0.62,1.0025 0.008,1.084 0.994,0.1304 2.062,0.2526 2.967,0.326 0.268,0.0204 0.484,0.2363 0.501,0.5053 0.073,1.0922 0.187,2.0987 0.309,2.9627 0.09,0.6275 1.003,0.6194 1.084,-0.0082 0.131,-0.9943 0.253,-2.0661 0.326,-2.9667 0.021,-0.2771 0.233,-0.489 0.498,-0.5094 z"
       fill="#afd3fe"
       id="path12" />
    <path
       d="m 329.897,10.8222 c -0.017,0 -1.651,-0.0203 -3.244,-0.83537 -2.095,-1.0677 -3.15,-2.95451 -3.138,-5.60746 0,-0.19561 -0.159,-0.35862 -0.355,-0.35862 -0.195,0 -0.358,0.15893 -0.358,0.35454 -0.029,6.32471 -6.182,6.38171 -6.443,6.38171 -0.192,0 -0.351,0.1508 -0.359,0.3464 -0.008,0.1916 0.143,0.3546 0.334,0.3668 0.017,0 1.655,0.1182 3.257,0.9821 2.102,1.1329 3.162,2.9708 3.15,5.4608 0,0.1956 0.159,0.3586 0.354,0.3586 0.196,0 0.359,-0.159 0.359,-0.3546 0.012,-2.3962 1.088,-4.1974 3.203,-5.3466 1.614,-0.8762 3.256,-1.0351 3.272,-1.0351 0.192,-0.0163 0.334,-0.1793 0.326,-0.3708 -0.012,-0.1916 -0.171,-0.3424 -0.358,-0.3424 z"
       fill="#afd3fe"
       id="path14" />
    <path
       d="m 316.778,5.15735 c 0.32,0 0.579,-0.25909 0.579,-0.57868 C 317.357,4.25908 317.098,4 316.778,4 316.459,4 316.2,4.25908 316.2,4.57867 c 0,0.31959 0.259,0.57868 0.578,0.57868 z"
       fill="#afd3fe"
       id="path16" />
    <path
       d="m 318.233,6.62439 c 0.32,0 0.579,-0.25909 0.579,-0.57868 0,-0.31959 -0.259,-0.57867 -0.579,-0.57867 -0.319,0 -0.578,0.25908 -0.578,0.57867 0,0.31959 0.259,0.57868 0.578,0.57868 z"
       fill="#afd3fe"
       id="path18" />
    <path
       d="m 319.684,8.09143 c 0.32,0 0.579,-0.25907 0.579,-0.57867 0,-0.31959 -0.259,-0.57868 -0.579,-0.57868 -0.319,0 -0.579,0.25909 -0.579,0.57868 0,0.3196 0.26,0.57867 0.579,0.57867 z"
       fill="#afd3fe"
       id="path20" />
    <path
       d="m 326.693,15.1659 c 0.32,0 0.579,-0.2591 0.579,-0.5787 0,-0.3196 -0.259,-0.5787 -0.579,-0.5787 -0.319,0 -0.578,0.2591 -0.578,0.5787 0,0.3196 0.259,0.5787 0.578,0.5787 z"
       fill="#afd3fe"
       id="path22" />
    <path
       d="m 328.148,16.6329 c 0.32,0 0.579,-0.2591 0.579,-0.5786 0,-0.3196 -0.259,-0.5787 -0.579,-0.5787 -0.32,0 -0.579,0.2591 -0.579,0.5787 0,0.3195 0.259,0.5786 0.579,0.5786 z"
       fill="#afd3fe"
       id="path24" />
    <path
       d="m 329.599,18.0958 c 0.319,0 0.578,-0.2591 0.578,-0.5787 0,-0.3195 -0.259,-0.5786 -0.578,-0.5786 -0.32,0 -0.579,0.2591 -0.579,0.5786 0,0.3196 0.259,0.5787 0.579,0.5787 z"
       fill="#afd3fe"
       id="path26" />
    <path
       d="m 316.722,18.0392 c 0.319,0 0.578,-0.2591 0.578,-0.5787 0,-0.3196 -0.259,-0.5787 -0.578,-0.5787 -0.32,0 -0.579,0.2591 -0.579,0.5787 0,0.3196 0.259,0.5787 0.579,0.5787 z"
       fill="#afd3fe"
       id="path28" />
    <path
       d="m 318.185,16.5841 c 0.319,0 0.578,-0.2591 0.578,-0.5787 0,-0.3196 -0.259,-0.5786 -0.578,-0.5786 -0.32,0 -0.579,0.259 -0.579,0.5786 0,0.3196 0.259,0.5787 0.579,0.5787 z"
       fill="#afd3fe"
       id="path30" />
    <path
       d="m 319.652,15.1334 c 0.32,0 0.579,-0.259 0.579,-0.5786 0,-0.3196 -0.259,-0.5787 -0.579,-0.5787 -0.32,0 -0.579,0.2591 -0.579,0.5787 0,0.3196 0.259,0.5786 0.579,0.5786 z"
       fill="#afd3fe"
       id="path32" />
    <path
       d="m 326.726,8.1239 c 0.319,0 0.578,-0.25908 0.578,-0.57868 0,-0.31959 -0.259,-0.57867 -0.578,-0.57867 -0.32,0 -0.579,0.25908 -0.579,0.57867 0,0.3196 0.259,0.57868 0.579,0.57868 z"
       fill="#afd3fe"
       id="path34" />
    <path
       d="m 328.193,6.66907 c 0.32,0 0.579,-0.25908 0.579,-0.57867 0,-0.31959 -0.259,-0.57868 -0.579,-0.57868 -0.32,0 -0.579,0.25909 -0.579,0.57868 0,0.31959 0.259,0.57867 0.579,0.57867 z"
       fill="#afd3fe"
       id="path36" />
    <path
       d="m 329.66,5.21839 c 0.319,0 0.578,-0.25908 0.578,-0.57867 0,-0.3196 -0.259,-0.57868 -0.578,-0.57868 -0.32,0 -0.579,0.25908 -0.579,0.57868 0,0.31959 0.259,0.57867 0.579,0.57867 z"
       fill="#afd3fe"
       id="path38" />
    <path
       d="m 172.893,20.7868 c 1.598,0 2.894,-1.2954 2.894,-2.8934 0,-1.598 -1.296,-2.8934 -2.894,-2.8934 -1.598,0 -2.893,1.2954 -2.893,2.8934 0,1.598 1.295,2.8934 2.893,2.8934 z"
       fill="#afd3fe"
       id="path40" />
    <path
       d="m 422.413,26.825 c 1.332,0 2.412,-1.0801 2.412,-2.4125 0,-1.3324 -1.08,-2.4125 -2.412,-2.4125 -1.333,0 -2.413,1.0801 -2.413,2.4125 0,1.3324 1.08,2.4125 2.413,2.4125 z"
       fill="#4a95ef"
       id="path42" />
    <path
       d="m 90.4125,41.825 c 1.3324,0 2.4125,-1.0801 2.4125,-2.4125 C 92.825,38.0801 91.7449,37 90.4125,37 89.0801,37 88,38.0801 88,39.4125 c 0,1.3324 1.0801,2.4125 2.4125,2.4125 z"
       fill="#afd3fe"
       id="path44" />
    <path
       d="m 44.9071,38.9764 c 9.1062,0 16.4882,-7.382 16.4882,-16.4882 C 61.3953,13.382 54.0133,6 44.9071,6 35.801,6 28.4189,13.382 28.4189,22.4882 c 0,9.1062 7.3821,16.4882 16.4882,16.4882 z"
       fill="url(#paint3_radial)"
       id="path46" />
    <path
       d="m 44.9071,38.9764 c 9.1062,0 16.4882,-7.382 16.4882,-16.4882 C 61.3953,13.382 54.0133,6 44.9071,6 35.801,6 28.4189,13.382 28.4189,22.4882 c 0,9.1062 7.3821,16.4882 16.4882,16.4882 z"
       fill="url(#paint4_radial)"
       id="path48" />
    <path
       d="m 28.3825,23.3439 0.1304,0.9372 C 20.3096,28.1892 16.6908,31.1519 17.2817,33.1936 17.9908,35.655 30.5179,32.7494 47.165,27.0686 63.8081,21.3878 75.7117,15.8088 74.8845,13.6694 74.1102,11.6644 78.8822,9.66345 79.628,12.1778 80.8261,16.2082 66.7952,23.9796 48.4161,30.2554 30.037,36.5312 14.2212,38.5035 13.068,34.9052 12.2733,32.4478 18.5124,27.9447 28.3825,23.3439 Z"
       fill="url(#paint5_linear)"
       id="path50" />
    <path
       d="m 684.888,74.5674 c -0.045,0.0774 -0.086,0.1548 -0.131,0.2282"
       stroke="#afd3fe"
       stroke-width="4.7698"
       stroke-linecap="round"
       stroke-linejoin="round"
       id="path52" />
    <path
       d="m 666.884,86.1123 h -0.277 c -0.538,-0.0081 -0.966,-0.4482 -0.958,-0.9862 0.008,-0.5379 0.428,-0.9617 0.986,-0.9576 h 0.249 0.216 c 0.004,0 0.008,0 0.008,0 0.534,0 0.966,0.4279 0.97,0.9617 0.004,0.5379 -0.428,0.974 -0.962,0.9821 z m 5.053,-0.6275 c -0.436,0 -0.831,-0.2935 -0.941,-0.7336 -0.131,-0.5216 0.183,-1.0473 0.705,-1.1818 0.15,-0.0367 0.301,-0.0774 0.448,-0.1182 0.518,-0.1426 1.051,0.159 1.198,0.6765 0.143,0.5176 -0.159,1.0514 -0.676,1.1981 -0.163,0.0448 -0.33,0.0897 -0.494,0.1304 -0.081,0.0163 -0.163,0.0286 -0.24,0.0286 z m -10.143,-0.0123 c -0.082,0 -0.159,-0.0081 -0.24,-0.0326 -0.168,-0.0407 -0.331,-0.0856 -0.494,-0.1345 -0.517,-0.1467 -0.815,-0.6846 -0.668,-1.2021 0.147,-0.5176 0.685,-0.8151 1.198,-0.6684 0.151,0.0408 0.298,0.0815 0.448,0.1223 0.522,0.1345 0.832,0.6642 0.701,1.1818 -0.118,0.4401 -0.513,0.7335 -0.945,0.7335 z m 15.123,-1.9601 c -0.342,0 -0.672,-0.1794 -0.852,-0.5013 -0.261,-0.4686 -0.089,-1.0595 0.379,-1.3203 0.135,-0.0734 0.269,-0.1508 0.404,-0.2323 0.464,-0.2731 1.059,-0.1182 1.332,0.3464 0.273,0.4645 0.118,1.0595 -0.346,1.3285 -0.147,0.0855 -0.298,0.1711 -0.444,0.2526 -0.151,0.0856 -0.314,0.1264 -0.473,0.1264 z m -20.095,-0.0367 c -0.163,0 -0.326,-0.0408 -0.477,-0.1263 -0.146,-0.0815 -0.297,-0.1671 -0.44,-0.2568 -0.46,-0.273 -0.615,-0.868 -0.342,-1.3326 0.273,-0.4605 0.868,-0.6153 1.333,-0.3423 0.134,0.0775 0.269,0.1549 0.403,0.2323 0.469,0.2649 0.636,0.8558 0.371,1.3244 -0.175,0.322 -0.505,0.5013 -0.848,0.5013 z m 24.398,-3.1501 c -0.256,0 -0.509,-0.0978 -0.701,-0.2975 -0.37,-0.3872 -0.362,-1.0025 0.025,-1.3734 0.11,-0.1059 0.22,-0.2159 0.33,-0.326 0.375,-0.383 0.99,-0.3871 1.373,-0.0122 0.383,0.3749 0.387,0.9903 0.013,1.3733 -0.123,0.1223 -0.245,0.2445 -0.367,0.3627 -0.188,0.1793 -0.432,0.2731 -0.673,0.2731 z m -28.689,-0.053 c -0.244,0 -0.489,-0.0896 -0.676,-0.273 -0.123,-0.1182 -0.245,-0.2405 -0.363,-0.3627 -0.375,-0.3831 -0.371,-0.9984 0.012,-1.3734 0.383,-0.3749 0.999,-0.3708 1.373,0.0122 0.11,0.1101 0.216,0.2201 0.331,0.3301 0.383,0.375 0.395,0.9903 0.02,1.3734 -0.192,0.1956 -0.444,0.2934 -0.697,0.2934 z m -3.313,-4.2056 c -0.33,0 -0.652,-0.1712 -0.835,-0.4727 -0.09,-0.1467 -0.176,-0.2934 -0.257,-0.4442 -0.265,-0.4687 -0.098,-1.0596 0.371,-1.3244 0.468,-0.2649 1.059,-0.0979 1.324,0.3708 0.077,0.1345 0.155,0.269 0.232,0.3994 0.273,0.4605 0.127,1.0595 -0.338,1.3325 -0.159,0.0938 -0.33,0.1386 -0.497,0.1386 z m -2.119,-4.9187 c -0.424,0 -0.811,-0.2772 -0.933,-0.705 -0.049,-0.1631 -0.09,-0.3302 -0.135,-0.4972 -0.134,-0.5217 0.179,-1.0514 0.701,-1.1818 0.522,-0.1345 1.047,0.1793 1.182,0.7009 0.037,0.1508 0.077,0.2975 0.122,0.4442 0.147,0.5176 -0.151,1.0555 -0.668,1.2022 -0.094,0.0244 -0.184,0.0367 -0.269,0.0367 z"
       fill="#afd3fe"
       id="path54" />
    <path
       d="m 648.916,54.5336 c 0.045,-0.0774 0.086,-0.1548 0.13,-0.2282"
       stroke="#afd3fe"
       stroke-width="4.7698"
       stroke-linecap="round"
       stroke-linejoin="round"
       id="path56" />
    <path
       d="m 685.527,56.7463 c -0.362,0 -0.713,-0.2078 -0.88,-0.5583 -0.069,-0.1467 -0.139,-0.2893 -0.212,-0.432 -0.24,-0.4808 -0.045,-1.0636 0.432,-1.304 0.477,-0.2405 1.064,-0.0448 1.304,0.432 0.078,0.1589 0.155,0.3178 0.232,0.4767 0.229,0.485 0.021,1.0637 -0.464,1.2919 -0.131,0.0652 -0.273,0.0937 -0.412,0.0937 z m -3.011,-4.6498 c -0.273,0 -0.546,-0.1141 -0.738,-0.3382 -0.106,-0.1223 -0.212,-0.2404 -0.318,-0.3627 -0.358,-0.3994 -0.326,-1.0147 0.07,-1.3734 0.399,-0.3586 1.014,-0.326 1.373,0.0693 0.118,0.1304 0.236,0.2649 0.35,0.3953 0.351,0.4075 0.302,1.0188 -0.106,1.3693 -0.179,0.163 -0.407,0.2404 -0.631,0.2404 z M 652.367,50.931 c -0.248,0 -0.497,-0.0937 -0.688,-0.2852 -0.379,-0.379 -0.379,-0.9944 0,-1.3734 0.126,-0.1263 0.252,-0.2486 0.379,-0.3708 0.387,-0.3709 1.002,-0.3546 1.373,0.0366 0.371,0.3872 0.355,1.0025 -0.037,1.3734 -0.118,0.11 -0.232,0.2241 -0.346,0.3342 -0.183,0.1915 -0.432,0.2852 -0.681,0.2852 z m 26,-2.5103 c -0.187,0 -0.375,-0.053 -0.538,-0.163 -0.134,-0.0897 -0.269,-0.1752 -0.403,-0.2649 -0.453,-0.2893 -0.587,-0.8884 -0.302,-1.3407 0.29,-0.4524 0.889,-0.5868 1.341,-0.3016 0.151,0.0937 0.297,0.1915 0.444,0.2893 0.448,0.2975 0.567,0.9007 0.269,1.3489 -0.187,0.2812 -0.497,0.432 -0.811,0.432 z m -21.578,-0.8354 c -0.338,0 -0.668,-0.1793 -0.848,-0.4972 -0.264,-0.4686 -0.097,-1.0595 0.371,-1.3244 0.155,-0.0856 0.31,-0.1712 0.465,-0.2527 0.477,-0.2526 1.063,-0.0733 1.316,0.4035 0.253,0.4727 0.073,1.0636 -0.403,1.3162 -0.143,0.0775 -0.286,0.1549 -0.424,0.2323 -0.155,0.0815 -0.318,0.1223 -0.477,0.1223 z m 16.606,-1.6056 c -0.101,0 -0.203,-0.0163 -0.309,-0.0489 -0.151,-0.0489 -0.306,-0.0978 -0.457,-0.1467 -0.513,-0.1549 -0.803,-0.701 -0.644,-1.2144 0.159,-0.5135 0.701,-0.8029 1.215,-0.6439 0.167,0.053 0.338,0.1059 0.505,0.163 0.51,0.1711 0.783,0.7213 0.616,1.2307 -0.143,0.4034 -0.522,0.6602 -0.926,0.6602 z m -11.459,-0.4402 c -0.436,0 -0.831,-0.2934 -0.941,-0.7376 -0.131,-0.5216 0.187,-1.0473 0.709,-1.1777 0.171,-0.0407 0.342,-0.0815 0.513,-0.1223 0.522,-0.1141 1.043,0.212 1.162,0.7377 0.118,0.5257 -0.212,1.0432 -0.738,1.1614 -0.159,0.0367 -0.314,0.0734 -0.469,0.11 -0.081,0.0204 -0.159,0.0285 -0.236,0.0285 z m 6.015,-0.5827 c -0.016,0 -0.033,0 -0.049,0 -0.159,-0.0082 -0.322,-0.0122 -0.481,-0.0163 -0.538,-0.0122 -0.962,-0.4605 -0.945,-0.9944 0.012,-0.5379 0.444,-0.9658 0.994,-0.9454 0.175,0.0041 0.351,0.0122 0.526,0.0204 0.538,0.0285 0.949,0.4808 0.921,1.0188 -0.025,0.5094 -0.453,0.9169 -0.966,0.9169 z"
       fill="#afd3fe"
       id="path58" />
    <path
       d="m 648.916,56.9256 c 1.321,0 2.392,-1.071 2.392,-2.3921 0,-1.3211 -1.071,-2.3921 -2.392,-2.3921 -1.321,0 -2.392,1.071 -2.392,2.3921 0,1.3211 1.071,2.3921 2.392,2.3921 z"
       fill="#afd3fe"
       id="path60" />
    <path
       d="m 684.888,76.9593 c 1.321,0 2.392,-1.071 2.392,-2.3921 0,-1.3212 -1.071,-2.3922 -2.392,-2.3922 -1.321,0 -2.392,1.071 -2.392,2.3922 0,1.3211 1.071,2.3921 2.392,2.3921 z"
       fill="#afd3fe"
       id="path62" />
    <path
       d="m 666.785,79.5695 c 8.165,0 14.785,-6.6193 14.785,-14.7847 C 681.57,56.6194 674.95,50 666.785,50 658.619,50 652,56.6194 652,64.7848 c 0,8.1654 6.619,14.7847 14.785,14.7847 z"
       fill="url(#paint6_radial)"
       id="path64" />
    <path
       d="m 591.003,37.8001 -1.343,-4.4317 c -0.085,-0.2711 -0.243,-0.8868 -0.475,-1.8471 h -0.053 c -0.178,0.8041 -0.334,1.4244 -0.468,1.8609 l -1.383,4.4179 h -1.283 L 584,30.2462 h 1.163 c 0.472,1.8977 0.83,3.3428 1.075,4.3353 0.25,0.9924 0.393,1.661 0.428,2.0056 h 0.054 c 0.049,-0.2619 0.127,-0.5996 0.233,-1.0132 0.112,-0.4181 0.208,-0.7489 0.288,-0.9924 l 1.343,-4.3353 h 1.203 l 1.309,4.3353 c 0.25,0.7903 0.419,1.4542 0.508,1.9918 h 0.054 c 0.017,-0.1654 0.064,-0.4204 0.14,-0.765 0.08,-0.3446 0.546,-2.1987 1.397,-5.5621 h 1.149 l -2.025,7.5539 z"
       fill="#ffffff"
       id="path102" />
    <path
       d="m 601.654,37.8001 -1.343,-4.4317 c -0.085,-0.2711 -0.243,-0.8868 -0.474,-1.8471 h -0.054 c -0.178,0.8041 -0.334,1.4244 -0.468,1.8609 l -1.383,4.4179 h -1.283 l -1.998,-7.5539 h 1.163 c 0.472,1.8977 0.831,3.3428 1.076,4.3353 0.249,0.9924 0.392,1.661 0.427,2.0056 h 0.054 c 0.049,-0.2619 0.127,-0.5996 0.234,-1.0132 0.111,-0.4181 0.207,-0.7489 0.287,-0.9924 l 1.343,-4.3353 h 1.203 l 1.31,4.3353 c 0.249,0.7903 0.418,1.4542 0.507,1.9918 h 0.054 c 0.018,-0.1654 0.065,-0.4204 0.14,-0.765 0.08,-0.3446 0.546,-2.1987 1.397,-5.5621 h 1.149 l -2.025,7.5539 z"
       fill="#ffffff"
       id="path104" />
    <path
       d="m 612.305,37.8001 -1.343,-4.4317 c -0.084,-0.2711 -0.243,-0.8868 -0.474,-1.8471 h -0.054 c -0.178,0.8041 -0.334,1.4244 -0.467,1.8609 l -1.384,4.4179 H 607.3 l -1.998,-7.5539 h 1.163 c 0.472,1.8977 0.831,3.3428 1.076,4.3353 0.249,0.9924 0.392,1.661 0.428,2.0056 h 0.053 c 0.049,-0.2619 0.127,-0.5996 0.234,-1.0132 0.111,-0.4181 0.207,-0.7489 0.287,-0.9924 l 1.343,-4.3353 h 1.203 l 1.31,4.3353 c 0.249,0.7903 0.419,1.4542 0.508,1.9918 h 0.053 c 0.018,-0.1654 0.065,-0.4204 0.14,-0.765 0.081,-0.3446 0.546,-2.1987 1.397,-5.5621 h 1.149 l -2.024,7.5539 z"
       fill="#ffffff"
       id="path106" />
    <path
       d="m 616.816,37.0695 c 0,-0.3078 0.067,-0.5398 0.2,-0.6961 0.138,-0.1608 0.334,-0.2412 0.588,-0.2412 0.259,0 0.459,0.0804 0.602,0.2412 0.147,0.1563 0.22,0.3883 0.22,0.6961 0,0.2987 -0.073,0.5285 -0.22,0.6893 -0.147,0.1608 -0.348,0.2412 -0.602,0.2412 -0.227,0 -0.416,-0.0712 -0.568,-0.2137 -0.147,-0.147 -0.22,-0.3859 -0.22,-0.7168 z"
       fill="#ffffff"
       id="path108" />
    <path
       d="m 625.609,36.787 h -0.06 c -0.512,0.7673 -1.278,1.151 -2.298,1.151 -0.958,0 -1.704,-0.3377 -2.239,-1.0132 -0.53,-0.6754 -0.795,-1.6357 -0.795,-2.8809 0,-1.2452 0.267,-2.2124 0.802,-2.9017 0.534,-0.6892 1.278,-1.0338 2.232,-1.0338 0.993,0 1.755,0.3722 2.285,1.1165 h 0.087 l -0.047,-0.5444 -0.027,-0.5308 v -3.0739 h 1.109 v 10.7243 h -0.902 z m -2.218,0.1929 c 0.757,0 1.305,-0.2113 1.644,-0.634 0.343,-0.4274 0.514,-1.1143 0.514,-2.0608 v -0.2412 c 0,-1.0706 -0.174,-1.8334 -0.521,-2.2883 -0.343,-0.4594 -0.893,-0.6892 -1.65,-0.6892 -0.651,0 -1.15,0.2619 -1.497,0.7857 -0.343,0.5192 -0.515,1.2544 -0.515,2.2055 0,0.965 0.172,1.6932 0.515,2.1849 0.343,0.4916 0.846,0.7374 1.51,0.7374 z"
       fill="#ffffff"
       id="path110" />
    <path
       d="m 635.338,34.0163 c 0,1.2314 -0.3,2.194 -0.902,2.8878 -0.601,0.6893 -1.432,1.0339 -2.492,1.0339 -0.655,0 -1.236,-0.1586 -1.744,-0.4756 -0.508,-0.317 -0.9,-0.7719 -1.176,-1.3647 -0.276,-0.5927 -0.414,-1.2865 -0.414,-2.0814 0,-1.2314 0.298,-2.1894 0.895,-2.8741 0.597,-0.6892 1.426,-1.0338 2.486,-1.0338 1.024,0 1.837,0.3515 2.439,1.0545 0.606,0.703 0.908,1.6541 0.908,2.8534 z m -5.579,0 c 0,0.9649 0.187,1.7001 0.561,2.2055 0.374,0.5054 0.925,0.7581 1.651,0.7581 0.726,0 1.276,-0.2504 1.65,-0.7512 0.379,-0.5054 0.568,-1.2429 0.568,-2.2124 0,-0.9603 -0.189,-1.6886 -0.568,-2.1848 -0.374,-0.5009 -0.929,-0.7513 -1.664,-0.7513 -0.726,0 -1.274,0.2458 -1.643,0.7375 -0.37,0.4916 -0.555,1.2245 -0.555,2.1986 z"
       fill="#ffffff"
       id="path112" />
    <path
       d="m 639.655,36.9937 c 0.196,0 0.385,-0.0138 0.568,-0.0413 0.183,-0.0322 0.327,-0.0643 0.434,-0.0965 v 0.8753 c -0.12,0.0597 -0.298,0.108 -0.534,0.1447 -0.232,0.0414 -0.441,0.0621 -0.628,0.0621 -1.417,0 -2.125,-0.7697 -2.125,-2.3089 v -4.4938 h -1.049 V 30.584 l 1.049,-0.4756 0.468,-1.6128 h 0.641 v 1.7506 h 2.125 v 0.8891 h -2.125 v 4.4455 c 0,0.4549 0.105,0.8041 0.314,1.0476 0.209,0.2436 0.497,0.3653 0.862,0.3653 z"
       fill="#ffffff"
       id="path114" />
    <path
       d="m 647.139,37.8001 v -4.8866 c 0,-0.6157 -0.136,-1.0752 -0.408,-1.3784 -0.271,-0.3033 -0.697,-0.4549 -1.276,-0.4549 -0.766,0 -1.327,0.2137 -1.684,0.641 -0.356,0.4273 -0.534,1.1326 -0.534,2.1159 v 3.963 h -1.11 v -7.5539 h 0.903 l 0.18,1.0339 h 0.053 c 0.228,-0.3722 0.546,-0.6594 0.956,-0.8616 0.41,-0.2067 0.866,-0.3101 1.37,-0.3101 0.882,0 1.546,0.2205 1.991,0.6617 0.446,0.4365 0.668,1.1372 0.668,2.1021 v 4.9279 z"
       fill="#ffffff"
       id="path116" />
    <path
       d="m 653.627,37.938 c -1.082,0 -1.937,-0.34 -2.566,-1.0201 -0.623,-0.68 -0.935,-1.6242 -0.935,-2.8327 0,-1.2176 0.289,-2.1848 0.869,-2.9016 0.583,-0.7168 1.365,-1.0752 2.345,-1.0752 0.918,0 1.644,0.3124 2.178,0.9373 0.535,0.6203 0.802,1.4405 0.802,2.4606 v 0.7236 h -5.045 c 0.023,0.8868 0.239,1.56 0.648,2.0195 0.415,0.4595 0.996,0.6892 1.744,0.6892 0.789,0 1.568,-0.17 2.339,-0.51 v 1.02 c -0.392,0.1746 -0.764,0.2987 -1.116,0.3722 -0.347,0.0781 -0.768,0.1172 -1.263,0.1172 z m -0.3,-6.8716 c -0.588,0 -1.058,0.1976 -1.41,0.5927 -0.348,0.3952 -0.553,0.942 -0.615,1.6404 h 3.829 c 0,-0.7214 -0.156,-1.2728 -0.468,-1.6541 -0.312,-0.386 -0.757,-0.579 -1.336,-0.579 z"
       fill="#ffffff"
       id="path118" />
    <path
       d="m 660.583,36.9937 c 0.196,0 0.386,-0.0138 0.568,-0.0413 0.183,-0.0322 0.328,-0.0643 0.435,-0.0965 v 0.8753 c -0.121,0.0597 -0.299,0.108 -0.535,0.1447 -0.232,0.0414 -0.441,0.0621 -0.628,0.0621 -1.417,0 -2.125,-0.7697 -2.125,-2.3089 v -4.4938 h -1.049 V 30.584 l 1.049,-0.4756 0.468,-1.6128 h 0.641 v 1.7506 h 2.125 v 0.8891 h -2.125 v 4.4455 c 0,0.4549 0.105,0.8041 0.314,1.0476 0.21,0.2436 0.497,0.3653 0.862,0.3653 z"
       fill="#ffffff"
       id="path120" />
    <path
       d="m 665.983,37.938 c -1.061,0 -1.883,-0.3355 -2.466,-1.0063 -0.579,-0.6754 -0.869,-1.6289 -0.869,-2.8603 0,-1.2635 0.294,-2.2399 0.882,-2.9292 0.593,-0.6892 1.435,-1.0338 2.526,-1.0338 0.352,0 0.704,0.0391 1.056,0.1172 0.352,0.0781 0.628,0.17 0.828,0.2757 l -0.34,0.9718 c -0.245,-0.1011 -0.513,-0.1838 -0.802,-0.2482 -0.29,-0.0689 -0.546,-0.1033 -0.769,-0.1033 -1.488,0 -2.232,0.9787 -2.232,2.936 0,0.9282 0.181,1.6404 0.542,2.1366 0.365,0.4963 0.904,0.7444 1.617,0.7444 0.61,0 1.236,-0.1356 1.877,-0.4066 v 1.0131 c -0.49,0.2619 -1.107,0.3929 -1.85,0.3929 z"
       fill="#ffffff"
       id="path122" />
    <path
       d="m 675.899,34.0163 c 0,1.2314 -0.301,2.194 -0.902,2.8878 -0.602,0.6893 -1.433,1.0339 -2.493,1.0339 -0.655,0 -1.236,-0.1586 -1.744,-0.4756 -0.508,-0.317 -0.9,-0.7719 -1.176,-1.3647 -0.276,-0.5927 -0.414,-1.2865 -0.414,-2.0814 0,-1.2314 0.298,-2.1894 0.895,-2.8741 0.597,-0.6892 1.426,-1.0338 2.486,-1.0338 1.025,0 1.838,0.3515 2.439,1.0545 0.606,0.703 0.909,1.6541 0.909,2.8534 z m -5.58,0 c 0,0.9649 0.187,1.7001 0.561,2.2055 0.375,0.5054 0.925,0.7581 1.651,0.7581 0.726,0 1.276,-0.2504 1.65,-0.7512 0.379,-0.5054 0.568,-1.2429 0.568,-2.2124 0,-0.9603 -0.189,-1.6886 -0.568,-2.1848 -0.374,-0.5009 -0.928,-0.7513 -1.663,-0.7513 -0.727,0 -1.274,0.2458 -1.644,0.7375 -0.37,0.4916 -0.555,1.2245 -0.555,2.1986 z"
       fill="#ffffff"
       id="path124" />
    <path
       d="m 682.861,37.8001 v -4.8866 c 0,-0.6157 -0.135,-1.0752 -0.407,-1.3784 -0.272,-0.3033 -0.697,-0.4549 -1.276,-0.4549 -0.767,0 -1.328,0.2137 -1.684,0.641 -0.357,0.4273 -0.535,1.1326 -0.535,2.1159 v 3.963 h -1.109 v -7.5539 h 0.902 l 0.18,1.0339 h 0.054 c 0.227,-0.3722 0.546,-0.6594 0.955,-0.8616 0.41,-0.2067 0.867,-0.3101 1.37,-0.3101 0.882,0 1.546,0.2205 1.991,0.6617 0.446,0.4365 0.669,1.1372 0.669,2.1021 v 4.9279 z"
       fill="#ffffff"
       id="path126" />
    <path
       d="m 689.557,31.1353 h -1.864 v 6.6648 h -1.11 v -6.6648 h -1.309 v -0.5169 l 1.309,-0.4135 v -0.4204 c 0,-1.8563 0.787,-2.7845 2.359,-2.7845 0.388,0 0.842,0.0804 1.363,0.2412 l -0.287,0.9167 c -0.428,-0.1424 -0.793,-0.2137 -1.096,-0.2137 -0.419,0 -0.728,0.1448 -0.929,0.4342 -0.2,0.2849 -0.3,0.7444 -0.3,1.3785 v 0.4893 h 1.864 z"
       fill="#ffffff"
       id="path128" />
    <path
       d="m 690.733,37.0695 c 0,-0.3078 0.067,-0.5398 0.2,-0.6961 0.139,-0.1608 0.335,-0.2412 0.588,-0.2412 0.259,0 0.459,0.0804 0.602,0.2412 0.147,0.1563 0.22,0.3883 0.22,0.6961 0,0.2987 -0.073,0.5285 -0.22,0.6893 -0.147,0.1608 -0.348,0.2412 -0.602,0.2412 -0.227,0 -0.416,-0.0712 -0.568,-0.2137 -0.147,-0.147 -0.22,-0.3859 -0.22,-0.7168 z"
       fill="#ffffff"
       id="path130" />
    <path
       d="m 699.553,37.8001 v -4.8866 c 0,-0.6157 -0.136,-1.0752 -0.407,-1.3784 -0.272,-0.3033 -0.697,-0.4549 -1.277,-0.4549 -0.766,0 -1.327,0.2137 -1.683,0.641 -0.357,0.4273 -0.535,1.1326 -0.535,2.1159 v 3.963 h -1.109 v -7.5539 h 0.902 l 0.18,1.0339 h 0.054 c 0.227,-0.3722 0.545,-0.6594 0.955,-0.8616 0.41,-0.2067 0.867,-0.3101 1.37,-0.3101 0.882,0 1.546,0.2205 1.991,0.6617 0.446,0.4365 0.669,1.1372 0.669,2.1021 v 4.9279 z"
       fill="#ffffff"
       id="path132" />
    <path
       d="m 706.042,37.938 c -1.083,0 -1.938,-0.34 -2.566,-1.0201 -0.624,-0.68 -0.936,-1.6242 -0.936,-2.8327 0,-1.2176 0.29,-2.1848 0.869,-2.9016 0.583,-0.7168 1.365,-1.0752 2.345,-1.0752 0.918,0 1.644,0.3124 2.179,0.9373 0.534,0.6203 0.802,1.4405 0.802,2.4606 v 0.7236 h -5.045 c 0.022,0.8868 0.238,1.56 0.648,2.0195 0.414,0.4595 0.995,0.6892 1.744,0.6892 0.788,0 1.568,-0.17 2.338,-0.51 v 1.02 c -0.392,0.1746 -0.764,0.2987 -1.115,0.3722 -0.348,0.0781 -0.769,0.1172 -1.263,0.1172 z m -0.301,-6.8716 c -0.588,0 -1.058,0.1976 -1.41,0.5927 -0.347,0.3952 -0.552,0.942 -0.615,1.6404 h 3.829 c 0,-0.7214 -0.156,-1.2728 -0.468,-1.6541 -0.311,-0.386 -0.757,-0.579 -1.336,-0.579 z"
       fill="#ffffff"
       id="path134" />
    <path
       d="m 712.998,36.9937 c 0.196,0 0.385,-0.0138 0.568,-0.0413 0.182,-0.0322 0.327,-0.0643 0.434,-0.0965 v 0.8753 c -0.12,0.0597 -0.298,0.108 -0.535,0.1447 -0.231,0.0414 -0.441,0.0621 -0.628,0.0621 -1.416,0 -2.125,-0.7697 -2.125,-2.3089 v -4.4938 h -1.049 V 30.584 l 1.049,-0.4756 0.468,-1.6128 h 0.642 v 1.7506 h 2.125 v 0.8891 h -2.125 v 4.4455 c 0,0.4549 0.104,0.8041 0.314,1.0476 0.209,0.2436 0.496,0.3653 0.862,0.3653 z"
       fill="#ffffff"
       id="path136" />
    <path
       d="m 13,60.0702 c 0,-0.6099 0.1604,-1.0777 0.4812,-1.4035 0.3208,-0.3258 0.7852,-0.4888 1.393,-0.4888 0.6163,0 1.0848,0.1713 1.4057,0.5138 0.3208,0.3342 0.4812,0.7937 0.4812,1.3785 0,0.5931 -0.1647,1.0651 -0.4939,1.416 C 15.9464,61.8287 15.4821,62 14.8742,62 14.2664,62 13.802,61.8287 13.4812,61.4862 13.1604,61.1437 13,60.6717 13,60.0702 Z"
       fill="#ffffff"
       id="path138" />
    <path
       d="m 36.3262,61.6366 h -3.7104 l -9.1051,-14.599 h -0.1013 l 0.0633,0.8145 c 0.1182,1.5539 0.1773,2.9741 0.1773,4.2607 v 9.5238 H 20.902 V 43.3158 h 3.6725 l 9.0797,14.5238 h 0.076 c -0.0169,-0.1921 -0.0507,-0.8897 -0.1013,-2.0927 -0.0507,-1.2114 -0.076,-2.1554 -0.076,-2.8321 v -9.599 h 2.7733 z"
       fill="#ffffff"
       id="path140" />
    <path
       d="M 51.6871,61.6366 H 41.2143 V 43.3158 h 10.4728 v 2.5313 h -7.4462 v 4.9875 h 6.9776 v 2.5063 h -6.9776 v 5.7518 h 7.4462 z"
       fill="#ffffff"
       id="path142" />
    <path
       d="M 62.0965,61.6366 H 59.0699 V 45.8847 h -5.4453 v -2.5689 h 13.9172 v 2.5689 h -5.4453 z"
       fill="#ffffff"
       id="path144" />
    <path
       d="m 85.0048,45.6216 c -1.7391,0 -3.1068,0.6098 -4.103,1.8295 -0.9962,1.2197 -1.4943,2.9031 -1.4943,5.0502 0,2.2472 0.477,3.9473 1.431,5.1002 0.9624,1.1529 2.3512,1.7293 4.1663,1.7293 0.7852,0 1.545,-0.0752 2.2794,-0.2255 0.7345,-0.1588 1.4986,-0.3593 2.2921,-0.6015 v 2.5689 c -1.452,0.543 -3.0983,0.8145 -4.9387,0.8145 -2.71,0 -4.7911,-0.8103 -6.2431,-2.4311 -1.4521,-1.629 -2.1782,-3.9557 -2.1782,-6.9799 0,-1.9048 0.3504,-3.5714 1.0511,-5 0.7092,-1.4286 1.7307,-2.523 3.0646,-3.2832 1.3339,-0.7603 2.8999,-1.1404 4.6981,-1.1404 1.8911,0 3.6387,0.3927 5.2427,1.178 l -1.089,2.4937 C 88.559,46.4319 87.8963,46.1771 87.1956,45.9599 86.5033,45.7343 85.7731,45.6216 85.0048,45.6216 Z"
       fill="#ffffff"
       id="path146" />
    <path
       d="m 105.672,54.6817 c 0,2.264 -0.587,4.0309 -1.761,5.3008 -1.173,1.2698 -2.807,1.9047 -4.9003,1.9047 -1.3086,0 -2.4652,-0.2924 -3.4698,-0.8772 -1.0047,-0.5848 -1.7771,-1.4244 -2.3175,-2.5188 -0.5403,-1.0944 -0.8104,-2.3642 -0.8104,-3.8095 0,-2.2473 0.5825,-4.0017 1.7475,-5.2632 1.1651,-1.2614 2.8071,-1.8922 4.9262,-1.8922 2.0263,0 3.6303,0.6475 4.8123,1.9424 1.182,1.2865 1.773,3.0242 1.773,5.213 z m -10.1944,0 c 0,3.1997 1.1945,4.7995 3.5837,4.7995 2.3637,0 3.5457,-1.5998 3.5457,-4.7995 0,-3.1662 -1.19,-4.7494 -3.571,-4.7494 -1.2495,0 -2.157,0.4094 -2.7227,1.2281 -0.5572,0.8187 -0.8357,1.9925 -0.8357,3.5213 z"
       fill="#ffffff"
       id="path148" />
    <path
       d="m 121.425,61.6366 h -2.988 v -8.5213 c 0,-1.0694 -0.22,-1.8672 -0.659,-2.3935 -0.431,-0.5263 -1.119,-0.7895 -2.064,-0.7895 -1.258,0 -2.178,0.3676 -2.761,1.1028 -0.582,0.7352 -0.874,1.9674 -0.874,3.6967 v 6.9048 h -2.975 V 47.7769 h 2.33 l 0.417,1.8171 h 0.152 c 0.423,-0.66 1.022,-1.1696 1.799,-1.5288 0.776,-0.3593 1.637,-0.5389 2.583,-0.5389 3.36,0 5.04,1.6917 5.04,5.0752 z"
       fill="#ffffff"
       id="path150" />
    <path
       d="m 132.594,50.0075 h -3.419 v 11.6291 h -2.988 V 50.0075 h -2.305 v -1.3784 l 2.305,-0.9023 v -0.9022 c 0,-1.6375 0.388,-2.8488 1.165,-3.6341 C 128.128,42.3968 129.314,42 130.91,42 c 1.047,0 2.077,0.1713 3.09,0.5138 l -0.785,2.2306 c -0.735,-0.234 -1.435,-0.3509 -2.102,-0.3509 -0.676,0 -1.17,0.2088 -1.482,0.6266 -0.304,0.4093 -0.456,1.0275 -0.456,1.8546 v 0.9022 h 3.419 z"
       fill="#ffffff"
       id="path152" />
    <path
       d="m 27.4436,73.6353 c 0,1.3609 -0.3625,2.4023 -1.0877,3.1241 -0.7215,0.718 -1.7614,1.0771 -3.1197,1.0771 H 21 v -8.2444 h 2.4737 c 1.2552,0 2.2307,0.3553 2.9264,1.0658 0.6957,0.7105 1.0435,1.703 1.0435,2.9774 z m -0.9938,0.0339 c 0,-1.0752 -0.2651,-1.8854 -0.7951,-2.4305 -0.5264,-0.5451 -1.3105,-0.8176 -2.3522,-0.8176 h -1.3638 v 6.5864 h 1.1429 c 1.1191,0 1.9602,-0.2801 2.5234,-0.8402 0.5632,-0.5639 0.8448,-1.3966 0.8448,-2.4981 z"
       fill="#ffffff"
       id="path154" />
    <path
       d="M 30.0277,77.8365 H 29.1112 V 71.656 h 0.9165 z m -0.9939,-7.8553 c 0,-0.2143 0.0516,-0.3703 0.1547,-0.468 0.103,-0.1015 0.2319,-0.1523 0.3865,-0.1523 0.1472,0 0.2742,0.0508 0.3809,0.1523 0.1068,0.1015 0.1602,0.2575 0.1602,0.468 0,0.2105 -0.0534,0.3684 -0.1602,0.4737 -0.1067,0.1015 -0.2337,0.1522 -0.3809,0.1522 -0.1546,0 -0.2835,-0.0507 -0.3865,-0.1522 -0.1031,-0.1053 -0.1547,-0.2632 -0.1547,-0.4737 z"
       fill="#ffffff"
       id="path156" />
    <path
       d="m 35.875,76.1504 c 0,0.5752 -0.2098,1.0188 -0.6294,1.3308 -0.4196,0.312 -1.0086,0.468 -1.7669,0.468 -0.8025,0 -1.4282,-0.1297 -1.8773,-0.389 v -0.8685 c 0.2908,0.1504 0.6018,0.2688 0.9331,0.3553 0.335,0.0865 0.6571,0.1297 0.9663,0.1297 0.4785,0 0.8466,-0.0771 1.1043,-0.2312 0.2577,-0.1579 0.3865,-0.3966 0.3865,-0.7162 0,-0.2406 -0.1031,-0.4455 -0.3092,-0.6146 -0.2025,-0.173 -0.6,-0.376 -1.1927,-0.6091 -0.5632,-0.2142 -0.9644,-0.4003 -1.2037,-0.5582 -0.2355,-0.1617 -0.4122,-0.344 -0.53,-0.547 -0.1141,-0.203 -0.1712,-0.4455 -0.1712,-0.7275 0,-0.5037 0.2006,-0.9003 0.6019,-1.1898 0.4012,-0.2933 0.9515,-0.4399 1.6509,-0.4399 0.6515,0 1.2884,0.1354 1.9104,0.406 l -0.3257,0.7613 c -0.6074,-0.2556 -1.1577,-0.3834 -1.651,-0.3834 -0.4343,0 -0.7619,0.0695 -0.9828,0.2086 -0.2209,0.1391 -0.3313,0.3308 -0.3313,0.5752 0,0.1654 0.0405,0.3064 0.1215,0.4229 0.0846,0.1166 0.219,0.2275 0.4031,0.3327 0.184,0.1053 0.5374,0.2576 1.0601,0.4568 0.7178,0.2669 1.2018,0.5357 1.4522,0.8064 0.2539,0.2707 0.3809,0.6109 0.3809,1.0207 z"
       fill="#ffffff"
       id="path158" />
    <path
       d="m 39.7898,77.9492 c -0.8761,0 -1.5552,-0.2744 -2.0374,-0.8233 -0.4786,-0.5526 -0.7178,-1.3327 -0.7178,-2.3402 0,-1.0338 0.2429,-1.8327 0.7288,-2.3966 0.4896,-0.5639 1.1853,-0.8459 2.0872,-0.8459 0.2908,0 0.5816,0.032 0.8724,0.0959 0.2908,0.0639 0.519,0.1391 0.6846,0.2256 l -0.2816,0.7951 c -0.2024,-0.0827 -0.4233,-0.1504 -0.6626,-0.203 -0.2392,-0.0564 -0.4509,-0.0846 -0.6349,-0.0846 -1.2295,0 -1.8442,0.8007 -1.8442,2.4022 0,0.7594 0.1491,1.3421 0.4472,1.7482 0.3019,0.406 0.7473,0.609 1.3362,0.609 0.5043,0 1.0215,-0.1109 1.5516,-0.3327 v 0.8289 c -0.4049,0.2143 -0.9147,0.3214 -1.5295,0.3214 z"
       fill="#ffffff"
       id="path160" />
    <path
       d="m 47.9838,74.7406 c 0,1.0075 -0.2485,1.7951 -0.7454,2.3628 -0.497,0.5639 -1.1835,0.8458 -2.0595,0.8458 -0.5412,0 -1.0215,-0.1297 -1.4412,-0.389 -0.4196,-0.2594 -0.7435,-0.6316 -0.9718,-1.1166 -0.2282,-0.485 -0.3423,-1.0526 -0.3423,-1.703 0,-1.0075 0.2466,-1.7914 0.7399,-2.3515 0.4932,-0.5639 1.1779,-0.8459 2.054,-0.8459 0.8466,0 1.5184,0.2876 2.0154,0.8628 0.5006,0.5752 0.7509,1.3534 0.7509,2.3346 z m -4.6105,0 c 0,0.7895 0.1546,1.391 0.4638,1.8045 0.3092,0.4135 0.7638,0.6203 1.3638,0.6203 0.6,0 1.0547,-0.2049 1.3639,-0.6146 0.3128,-0.4136 0.4693,-1.017 0.4693,-1.8102 0,-0.7857 -0.1565,-1.3816 -0.4693,-1.7876 -0.3092,-0.4098 -0.7675,-0.6147 -1.3749,-0.6147 -0.6,0 -1.0528,0.2012 -1.3583,0.6034 -0.3055,0.4023 -0.4583,1.0019 -0.4583,1.7989 z"
       fill="#ffffff"
       id="path162" />
    <path
       d="m 50.9213,77.8365 -2.297,-6.1805 h 0.9828 l 1.3031,3.6654 c 0.2945,0.8572 0.4675,1.4136 0.519,1.6692 h 0.0442 c 0.0405,-0.1992 0.1675,-0.6109 0.381,-1.235 0.2172,-0.6278 0.7012,-1.9943 1.4522,-4.0996 h 0.9828 l -2.297,6.1805 z"
       fill="#ffffff"
       id="path164" />
    <path
       d="m 57.8177,77.9492 c -0.8945,0 -1.6013,-0.2781 -2.1203,-0.8345 -0.5153,-0.5564 -0.773,-1.329 -0.773,-2.3177 0,-0.9962 0.2392,-1.7876 0.7178,-2.3741 0.4822,-0.5864 1.1282,-0.8797 1.938,-0.8797 0.7583,0 1.3583,0.2557 1.8001,0.767 0.4417,0.5075 0.6626,1.1785 0.6626,2.0131 v 0.5921 h -4.1688 c 0.0184,0.7256 0.1969,1.2763 0.5356,1.6523 0.3423,0.3759 0.8227,0.5639 1.4411,0.5639 0.6515,0 1.2957,-0.1391 1.9325,-0.4173 v 0.8346 c -0.3239,0.1428 -0.6313,0.2443 -0.9221,0.3045 -0.2871,0.0639 -0.6349,0.0958 -1.0435,0.0958 z m -0.2485,-5.6221 c -0.4859,0 -0.8742,0.1616 -1.165,0.4849 -0.2872,0.3233 -0.4565,0.7707 -0.508,1.3421 H 59.06 c 0,-0.5902 -0.1288,-1.0413 -0.3865,-1.3533 -0.2577,-0.3158 -0.6258,-0.4737 -1.1043,-0.4737 z"
       fill="#ffffff"
       id="path166" />
    <path
       d="m 64.3717,71.5432 c 0.2688,0 0.5099,0.0226 0.7234,0.0677 l -0.127,0.8684 c -0.2503,-0.0564 -0.4712,-0.0846 -0.6626,-0.0846 -0.4896,0 -0.9092,0.203 -1.2589,0.6091 -0.346,0.406 -0.5191,0.9116 -0.5191,1.5169 v 3.3158 H 61.611 V 71.656 h 0.7564 l 0.1049,1.1448 h 0.0442 c 0.2245,-0.4023 0.4951,-0.7125 0.8117,-0.9305 0.3165,-0.218 0.6644,-0.3271 1.0435,-0.3271 z"
       fill="#ffffff"
       id="path168" />
    <path
       d="m 71.1191,77.1767 c 0.1619,0 0.3184,-0.0113 0.4693,-0.0338 0.1509,-0.0264 0.2706,-0.0527 0.3589,-0.079 v 0.7162 c -0.0994,0.0488 -0.2466,0.0883 -0.4417,0.1184 -0.1914,0.0338 -0.3644,0.0507 -0.519,0.0507 -1.1706,0 -1.7559,-0.6297 -1.7559,-1.889 v -3.6767 h -0.8669 v -0.4512 l 0.8669,-0.3891 0.3865,-1.3195 h 0.5301 v 1.4323 h 1.7558 v 0.7275 h -1.7558 v 3.6372 c 0,0.3722 0.0865,0.6579 0.2595,0.8571 0.173,0.1993 0.4104,0.2989 0.7123,0.2989 z"
       fill="#ffffff"
       id="path170" />
    <path
       d="m 77.3032,77.8365 v -3.9982 c 0,-0.5037 -0.1123,-0.8797 -0.3368,-1.1278 -0.2246,-0.2481 -0.5761,-0.3722 -1.0546,-0.3722 -0.6368,0 -1.1025,0.1767 -1.397,0.5301 -0.2908,0.3534 -0.4362,0.9324 -0.4362,1.7369 v 3.2312 H 73.162 V 69.062 h 0.9166 v 2.656 c 0,0.3196 -0.0147,0.5846 -0.0441,0.7952 h 0.0552 c 0.1803,-0.297 0.4362,-0.5301 0.7675,-0.6993 0.3349,-0.1729 0.7159,-0.2594 1.1429,-0.2594 0.7399,0 1.2939,0.1805 1.662,0.5414 0.3718,0.3571 0.5577,0.9267 0.5577,1.7086 v 4.032 z"
       fill="#ffffff"
       id="path172" />
    <path
       d="m 82.6646,77.9492 c -0.8945,0 -1.6012,-0.2781 -2.1202,-0.8345 -0.5154,-0.5564 -0.7731,-1.329 -0.7731,-2.3177 0,-0.9962 0.2393,-1.7876 0.7178,-2.3741 0.4823,-0.5864 1.1283,-0.8797 1.9381,-0.8797 0.7583,0 1.3583,0.2557 1.8,0.767 0.4417,0.5075 0.6626,1.1785 0.6626,2.0131 v 0.5921 H 80.721 c 0.0184,0.7256 0.197,1.2763 0.5356,1.6523 0.3424,0.3759 0.8227,0.5639 1.4412,0.5639 0.6515,0 1.2957,-0.1391 1.9325,-0.4173 v 0.8346 c -0.3239,0.1428 -0.6313,0.2443 -0.9221,0.3045 -0.2871,0.0639 -0.635,0.0958 -1.0436,0.0958 z m -0.2484,-5.6221 c -0.4859,0 -0.8743,0.1616 -1.1651,0.4849 -0.2871,0.3233 -0.4564,0.7707 -0.508,1.3421 h 3.1639 c 0,-0.5902 -0.1289,-1.0413 -0.3865,-1.3533 -0.2577,-0.3158 -0.6258,-0.4737 -1.1043,-0.4737 z"
       fill="#ffffff"
       id="path174" />
    <path
       d="m 94.3372,77.8365 -1.1099,-3.626 c -0.0699,-0.2218 -0.2006,-0.7255 -0.392,-1.5113 h -0.0442 c -0.1472,0.6579 -0.276,1.1655 -0.3865,1.5226 l -1.1429,3.6147 H 90.2015 L 88.5506,71.656 h 0.9607 c 0.3902,1.5526 0.6866,2.735 0.889,3.547 0.2062,0.812 0.3239,1.359 0.3534,1.641 h 0.0442 c 0.0405,-0.2143 0.1049,-0.4906 0.1932,-0.829 0.092,-0.3421 0.1712,-0.6127 0.2374,-0.812 l 1.1099,-3.547 h 0.9939 l 1.0822,3.547 c 0.2061,0.6466 0.346,1.1899 0.4196,1.6297 h 0.0442 c 0.0147,-0.1353 0.0534,-0.344 0.1159,-0.6259 0.0663,-0.282 0.451,-1.7989 1.154,-4.5508 h 0.9497 l -1.673,6.1805 z"
       fill="#ffffff"
       id="path176" />
    <path
       d="m 103.42,74.7406 c 0,1.0075 -0.248,1.7951 -0.745,2.3628 -0.497,0.5639 -1.184,0.8458 -2.06,0.8458 -0.541,0 -1.0213,-0.1297 -1.441,-0.389 -0.4196,-0.2594 -0.7435,-0.6316 -0.9717,-1.1166 -0.2283,-0.485 -0.3424,-1.0526 -0.3424,-1.703 0,-1.0075 0.2467,-1.7914 0.7399,-2.3515 0.4933,-0.5639 1.1779,-0.8459 2.0542,-0.8459 0.846,0 1.518,0.2876 2.015,0.8628 0.501,0.5752 0.751,1.3534 0.751,2.3346 z m -4.6104,0 c 0,0.7895 0.1546,1.391 0.4638,1.8045 0.3092,0.4135 0.7636,0.6203 1.3636,0.6203 0.6,0 1.055,-0.2049 1.364,-0.6146 0.313,-0.4136 0.469,-1.017 0.469,-1.8102 0,-0.7857 -0.156,-1.3816 -0.469,-1.7876 -0.309,-0.4098 -0.767,-0.6147 -1.375,-0.6147 -0.6,0 -1.0526,0.2012 -1.3581,0.6034 -0.3055,0.4023 -0.4583,1.0019 -0.4583,1.7989 z"
       fill="#ffffff"
       id="path178" />
    <path
       d="m 107.793,71.5432 c 0.269,0 0.51,0.0226 0.724,0.0677 l -0.127,0.8684 c -0.251,-0.0564 -0.472,-0.0846 -0.663,-0.0846 -0.49,0 -0.909,0.203 -1.259,0.6091 -0.346,0.406 -0.519,0.9116 -0.519,1.5169 v 3.3158 h -0.917 V 71.656 h 0.757 l 0.105,1.1448 h 0.044 c 0.224,-0.4023 0.495,-0.7125 0.812,-0.9305 0.316,-0.218 0.664,-0.3271 1.043,-0.3271 z"
       fill="#ffffff"
       id="path180" />
    <path
       d="m 110.565,77.8365 h -0.917 V 69.062 h 0.917 z"
       fill="#ffffff"
       id="path182" />
    <path
       d="m 116.628,77.0075 h -0.05 c -0.423,0.6278 -1.056,0.9417 -1.899,0.9417 -0.792,0 -1.408,-0.2763 -1.85,-0.8289 -0.438,-0.5526 -0.657,-1.3383 -0.657,-2.3571 0,-1.0188 0.221,-1.8102 0.662,-2.3741 0.442,-0.5639 1.057,-0.8459 1.845,-0.8459 0.82,0 1.45,0.3045 1.888,0.9136 h 0.072 L 116.6,72.0113 116.578,71.5771 V 69.062 h 0.917 v 8.7745 h -0.746 z m -1.833,0.1579 c 0.625,0 1.078,-0.1729 1.358,-0.5188 0.283,-0.3496 0.425,-0.9116 0.425,-1.6861 v -0.1973 c 0,-0.876 -0.144,-1.5 -0.431,-1.8722 -0.283,-0.376 -0.738,-0.5639 -1.364,-0.5639 -0.537,0 -0.949,0.2143 -1.236,0.6428 -0.284,0.4248 -0.426,1.0263 -0.426,1.8045 0,0.7895 0.142,1.3854 0.426,1.7876 0.283,0.4023 0.699,0.6034 1.248,0.6034 z"
       fill="#ffffff"
       id="path184" />
    <path
       d="m 127.604,74.7406 c 0,1.0075 -0.248,1.7951 -0.745,2.3628 -0.497,0.5639 -1.183,0.8458 -2.059,0.8458 -0.542,0 -1.022,-0.1297 -1.442,-0.389 -0.419,-0.2594 -0.743,-0.6316 -0.971,-1.1166 -0.229,-0.485 -0.343,-1.0526 -0.343,-1.703 0,-1.0075 0.247,-1.7914 0.74,-2.3515 0.493,-0.5639 1.178,-0.8459 2.054,-0.8459 0.847,0 1.519,0.2876 2.016,0.8628 0.5,0.5752 0.75,1.3534 0.75,2.3346 z m -4.61,0 c 0,0.7895 0.155,1.391 0.464,1.8045 0.309,0.4135 0.764,0.6203 1.364,0.6203 0.6,0 1.054,-0.2049 1.363,-0.6146 0.313,-0.4136 0.47,-1.017 0.47,-1.8102 0,-0.7857 -0.157,-1.3816 -0.47,-1.7876 -0.309,-0.4098 -0.767,-0.6147 -1.374,-0.6147 -0.6,0 -1.053,0.2012 -1.359,0.6034 -0.305,0.4023 -0.458,1.0019 -0.458,1.7989 z"
       fill="#ffffff"
       id="path186" />
    <path
       d="m 131.944,72.3835 h -1.54 v 5.453 h -0.917 v -5.453 h -1.082 v -0.423 l 1.082,-0.3383 v -0.344 c 0,-1.5188 0.65,-2.2782 1.949,-2.2782 0.321,0 0.696,0.0658 1.127,0.1974 l -0.238,0.75 c -0.353,-0.1166 -0.655,-0.1748 -0.905,-0.1748 -0.346,0 -0.602,0.1184 -0.768,0.3552 -0.165,0.2331 -0.248,0.609 -0.248,1.1278 v 0.4004 h 1.54 z"
       fill="#ffffff"
       id="path188" />
    <path
       d="m 135.854,77.2387 c 0,-0.2519 0.055,-0.4417 0.165,-0.5695 0.114,-0.1316 0.276,-0.1974 0.486,-0.1974 0.214,0 0.379,0.0658 0.497,0.1974 0.122,0.1278 0.182,0.3176 0.182,0.5695 0,0.2444 -0.06,0.4324 -0.182,0.5639 -0.121,0.1316 -0.287,0.1974 -0.497,0.1974 -0.188,0 -0.344,-0.0583 -0.469,-0.1748 -0.122,-0.1203 -0.182,-0.3158 -0.182,-0.5865 z"
       fill="#ffffff"
       id="path190" />
    <path
       d="m 145.445,77.8365 h -1.072 l -4.411,-6.9192 h -0.044 c 0.058,0.812 0.088,1.5564 0.088,2.2331 v 4.6861 h -0.867 v -8.2444 h 1.06 l 4.401,6.891 h 0.044 c -0.007,-0.1015 -0.024,-0.4267 -0.05,-0.9756 -0.025,-0.5526 -0.035,-0.9473 -0.027,-1.1842 v -4.7312 h 0.878 z"
       fill="#ffffff"
       id="path192" />
    <path
       d="m 152.164,77.8365 h -4.5 v -8.2444 h 4.5 v 0.8515 h -3.561 v 2.656 h 3.346 v 0.8459 h -3.346 v 3.0338 h 3.561 z"
       fill="#ffffff"
       id="path194" />
    <path
       d="m 156.444,77.8365 h -0.939 v -7.3929 h -2.557 V 69.5921 H 159 v 0.8515 h -2.556 z"
       fill="#ffffff"
       id="path196" />
    <path
       d="m 271.985,50.0537 c 0.599,-0.6411 1.19,-1.3254 1.767,-2.0483 0.805,-1.0064 1.583,-2.0864 2.32,-3.2337 5.374,-8.3536 6.54,-17.0036 2.608,-19.3228 -3.934,-2.3191 -11.479,2.5727 -16.851,10.9261 -0.628,0.9743 -1.197,1.954 -1.708,2.9276 -0.408,0.7784 -0.78,1.5519 -1.113,2.318 -0.155,0.3564 -0.019,0.7745 0.317,0.9727 z"
       fill="#a4ecfc"
       id="path198" />
    <path
       d="m 272.503,46.5571 c 1.125,-1.2067 2.216,-2.6032 3.211,-4.1501 4.222,-6.5618 5.138,-13.3596 2.049,-15.1812 -3.09,-1.8217 -9.018,2.0206 -13.24,8.5824 -0.888,1.3799 -1.628,2.7683 -2.217,4.1204 -0.122,0.2807 -0.014,0.6084 0.251,0.7644 z"
       fill="#4adafa"
       id="path200" />
    <path
       d="m 264.768,51.0593 c 0,0 -3.848,4.8272 -4.828,8.1549 -0.982,3.3279 -2.588,5.997 -3.949,7.5617 -1.36,1.5647 -2.917,4.2136 -3.73,6.4399 -0.813,2.2264 -2.431,5.7885 -3.685,6.9669 -1.254,1.1765 -2.78,3.8422 -3.027,5.1471 -0.247,1.3048 -1.667,3.5824 -2.272,4.234 -0.605,0.6515 -2.808,4.2253 -3.306,5.8362 -0.497,1.6091 0.775,-0.2052 1.51,-0.6804 0.735,-0.4751 2.122,-1.4773 2.653,-3.4163 0.532,-1.9393 1.433,-4.1162 2.772,-5.4431 1.34,-1.3269 3.131,-3.442 4.051,-6.0568 0.921,-2.6148 3.008,-6.0569 4.584,-7.996 1.574,-1.9408 3.514,-4.7177 4.412,-7.4968 0.897,-2.777 2.169,-4.5913 3.808,-6.6451 1.64,-2.0519 2.814,-5.7182 2.814,-5.7182 z"
       fill="url(#paint7_linear)"
       id="path202" />
    <path
       d="m 259.375,48.1372 c 0,0 -3.847,4.8272 -4.827,8.1549 -0.982,3.3279 -2.589,5.997 -3.949,7.5617 -1.361,1.5647 -2.916,4.2133 -3.731,6.4399 -0.813,2.2263 -2.43,5.7885 -3.684,6.9669 -1.255,1.1765 -2.781,3.8422 -3.028,5.147 -0.247,1.3049 -1.667,3.5824 -2.272,4.234 -0.605,0.6516 -2.808,4.2254 -3.305,5.8363 -0.498,1.611 0.774,-0.2052 1.51,-0.6804 0.735,-0.4751 2.121,-1.4773 2.652,-3.4164 0.533,-1.9393 1.433,-4.1161 2.773,-5.443 1.339,-1.3269 3.13,-3.442 4.051,-6.0568 0.921,-2.6148 3.007,-6.0569 4.584,-7.9961 1.574,-1.9407 3.514,-4.7176 4.412,-7.4968 0.896,-2.777 2.168,-4.5913 3.808,-6.645 1.64,-2.0519 2.814,-5.7183 2.814,-5.7183 z"
       fill="url(#paint8_linear)"
       id="path204" />
    <path
       d="m 271.31,59.8738 c 1.824,-1.1205 5.278,-3.6194 6.777,-6.9612 l -2.645,-0.6836 c -1.36,3.0298 -4.505,5.1685 -5.957,6.0315 -0.121,0.0725 0.696,0.9666 1.825,1.6133 z"
       fill="url(#paint9_linear)"
       id="path206" />
    <path
       d="m 271.31,59.8738 c 1.824,-1.1205 5.278,-3.6194 6.777,-6.9612 l -2.645,-0.6836 c -1.36,3.0298 -4.505,5.1685 -5.957,6.0315 -0.121,0.0725 0.696,0.9666 1.825,1.6133 z"
       fill="url(#paint10_linear)"
       id="path208" />
    <path
       d="m 269.505,58.2501 1.431,1.273 c -0.385,0.4846 -3.165,2.3687 -2.335,8.6093 l -1.994,1.2538 -6.24,-5.5525 c -0.219,-0.1949 -0.186,-0.4691 0.088,-0.6186 z"
       fill="#522cd5"
       id="path210" />
    <path
       d="m 269.132,67.9802 c 0.06,0.3633 -0.128,0.5472 -0.5,0.7526 l -1.323,0.7412 c -0.203,0.1129 -0.506,0.0835 -0.67,-0.0613 l -0.031,-0.0285 c -0.187,-0.1648 -0.15,-0.4028 0.083,-0.5293 l 1.047,-0.6262 c 0.429,-0.2364 0.655,-0.4275 0.582,-0.9141 -0.43,-2.8728 -0.65,-6.5948 2.012,-8.3279 l 0.992,0.8814 c -1.287,0.9538 -2.975,3.3262 -2.192,8.1121 z"
       fill="url(#paint11_linear)"
       id="path212" />
    <path
       d="m 268.305,67.6786 c -0.069,0.2368 -0.267,0.3835 -0.567,0.5482 l -1.048,0.6262 c -0.233,0.1265 -0.269,0.3645 -0.082,0.5293 l 0.03,0.0285 c 0.165,0.1466 0.467,0.1742 0.671,0.0613 l 1.322,-0.7412 c 0.214,-0.1161 0.364,-0.2273 0.444,-0.3694 z"
       fill="url(#paint12_radial)"
       id="path214" />
    <path
       d="m 266.867,56.9091 c 2.006,-0.7491 5.873,-2.5371 7.988,-5.5287 l -2.466,-1.1801 c -1.918,2.7122 -5.416,4.2066 -7.007,4.7731 -0.13,0.0487 0.498,1.0824 1.485,1.9357 z"
       fill="url(#paint13_linear)"
       id="path216" />
    <path
       d="m 266.867,56.9091 c 2.006,-0.7491 5.873,-2.5371 7.988,-5.5287 l -2.466,-1.1801 c -1.918,2.7122 -5.416,4.2066 -7.007,4.7731 -0.13,0.0487 0.498,1.0824 1.485,1.9357 z"
       fill="url(#paint14_linear)"
       id="path218" />
    <path
       d="m 265.406,54.9661 1.16,1.5243 c -0.472,0.4021 -3.58,0.2543 -4.625,6.5019 l -1.797,1.9813 -4.913,-6.4598 c -0.045,-0.0574 0.042,-0.3197 0.337,-0.4144 z"
       fill="#522cd5"
       id="path220" />
    <path
       d="m 263.181,64.3995 c -0.01,0.3692 -0.25,0.5814 -0.654,0.7104 l -1.432,0.4483 c -0.221,0.071 -0.512,-0.0139 -0.646,-0.1898 L 259.5,64.1228 c -0.15,-0.1986 -0.068,-0.4237 0.183,-0.5046 l 1.252,-0.4542 c 0.467,-0.1492 0.726,-0.2929 0.746,-0.7847 0.133,-2.9024 1.261,-5.592 4.207,-6.7811 l 0.991,1.3013 c -1.446,0.6947 -3.547,2.6544 -3.698,7.5 z"
       fill="url(#paint15_linear)"
       id="path222" />
    <path
       d="m 260.449,65.3703 c 0.133,0.174 0.423,0.2611 0.646,0.1898 l 1.432,-0.4483 c 0.225,-0.0715 0.398,-0.1705 0.508,-0.307 l -1.501,-1.9701 c -0.124,0.1559 -0.324,0.2451 -0.599,0.3312 l -1.252,0.4542 c -0.253,0.0811 -0.333,0.306 -0.183,0.5046 z"
       fill="url(#paint16_radial)"
       id="path224" />
    <path
       d="m 297.15,52.7185 -0.886,-2.1744 c -2.276,0.9289 -4.367,1.1659 -6.211,0.7085 -1.623,-0.4033 -3.101,-1.3561 -4.391,-2.8317 l -1.767,1.5459 c 2.399,2.7431 6.644,5.4465 13.255,2.7517 z"
       fill="#8a6fe8"
       id="path226" />
    <path
       d="m 266.626,52.62 -2.216,-1.2801 c -0.176,-0.1027 -0.211,-0.3289 -0.072,-0.4637 l 1.551,-1.4966 c 0.1,-0.0967 0.262,-0.1132 0.389,-0.0403 l 1.323,0.7644 c 0.127,0.0728 0.188,0.2185 0.144,0.3496 l -0.659,2.0127 c -0.058,0.1793 -0.282,0.2565 -0.46,0.154 z"
       fill="#0b7891"
       id="path228" />
    <path
       d="m 267.796,50.5829 -2.088,-1.2054 c -0.235,-0.1351 -0.314,-0.4187 -0.178,-0.632 l 3.543,-5.6323 c 0.136,-0.2152 0.434,-0.2794 0.668,-0.1443 l 2.088,1.2054 c 0.234,0.1351 0.314,0.4187 0.178,0.6319 l -3.544,5.6324 c -0.136,0.2152 -0.435,0.2796 -0.667,0.1443 z"
       fill="#ffffff"
       id="path230" />
    <path
       d="m 261.17,49.5024 -2.216,-1.2801 c -0.176,-0.1028 -0.211,-0.329 -0.072,-0.4637 l 1.551,-1.4967 c 0.1,-0.0967 0.262,-0.1132 0.389,-0.0403 l 1.323,0.7644 c 0.127,0.0729 0.188,0.2185 0.144,0.3497 l -0.659,2.0126 c -0.058,0.1794 -0.284,0.2549 -0.46,0.1541 z"
       fill="#0b7891"
       id="path232" />
    <path
       d="m 262.338,47.4654 -2.088,-1.2053 c -0.235,-0.1352 -0.314,-0.4187 -0.178,-0.632 l 3.543,-5.6324 c 0.136,-0.2151 0.434,-0.2793 0.668,-0.1442 l 2.088,1.2053 c 0.234,0.1352 0.314,0.4187 0.178,0.632 l -3.544,5.6324 c -0.134,0.213 -0.433,0.2793 -0.667,0.1442 z"
       fill="#ffffff"
       id="path234" />
    <path
       d="m 266.371,41.0551 -0.676,-0.3898 -3.484,5.5355 c -0.136,0.2152 -0.433,0.2794 -0.667,0.1443 l -1.413,-0.8155 -0.061,0.097 c -0.136,0.2152 -0.055,0.4985 0.178,0.632 l 2.088,1.2054 c 0.234,0.1351 0.531,0.0709 0.667,-0.1443 l 3.544,-5.6324 c 0.138,-0.2135 0.058,-0.4971 -0.176,-0.6322 z"
       fill="#60defa"
       id="path236" />
    <path
       d="m 271.829,44.1743 -0.675,-0.3899 -3.484,5.5356 c -0.136,0.2151 -0.433,0.2794 -0.668,0.1442 l -1,-0.5779 -0.412,-0.2376 -0.062,0.0971 c -0.136,0.2151 -0.054,0.4985 0.178,0.6319 l 2.088,1.2054 c 0.235,0.1351 0.532,0.0709 0.668,-0.1442 l 3.543,-5.6324 c 0.138,-0.2155 0.056,-0.4988 -0.176,-0.6322 z"
       fill="#60defa"
       id="path238" />
    <path
       d="m 271.985,50.0539 c 0.705,-0.7539 1.397,-1.5659 2.071,-2.4311 0.698,-0.8955 -13.225,-9.635 -13.664,-8.8292 -0.518,0.9495 -0.98,1.8933 -1.385,2.8252 -0.154,0.3565 -0.018,0.7746 0.318,0.9727 z"
       fill="#179bb8"
       id="path240" />
    <path
       d="m 297.474,51.844 0.871,-2.2094 c 0.228,-0.5899 -0.066,-1.2539 -0.656,-1.4824 -0.59,-0.2284 -1.254,0.0656 -1.482,0.6555 l -0.892,2.2643 z"
       fill="#8a6fe8"
       id="path242" />
    <path
       d="m 297.098,54.7704 c 1.313,-0.1815 2.23,-1.3926 2.048,-2.7052 -0.181,-1.3126 -1.392,-2.2295 -2.705,-2.0481 -1.313,0.1815 -2.229,1.3927 -2.048,2.7052 0.181,1.3126 1.393,2.2295 2.705,2.0481 z"
       fill="url(#paint17_radial)"
       id="path244" />
    <path
       d="m 292.247,58.0566 -9.116,-5.6785 0.688,-1.106 9.116,5.6786 c 0.228,0.1418 0.526,0.0717 0.666,-0.1556 l 1.991,-3.1979 1.106,0.6884 -1.991,3.198 c -0.52,0.8381 -1.624,1.0947 -2.46,0.573 z"
       fill="#d2f6fe"
       id="path246" />
    <path
       d="m 295.417,55.2664 -0.18,-0.1119 c -0.581,-0.3624 -0.76,-1.1271 -0.398,-1.7086 l 2.391,-3.8383 c 0.362,-0.5815 1.127,-0.7604 1.708,-0.3979 l 0.179,0.1119 c 0.582,0.3625 0.761,1.1271 0.398,1.7086 l -2.39,3.8383 c -0.362,0.5815 -1.127,0.7604 -1.708,0.3979 z"
       fill="#77e3fb"
       id="path248" />
    <path
       d="m 296.436,55.0738 -0.994,-0.6424 c -0.486,-0.3139 -0.626,-0.9646 -0.312,-1.4508 l 0.097,-0.1501 c 0.314,-0.4862 0.964,-0.6262 1.45,-0.3122 l 0.994,0.6423 c 0.486,0.314 0.626,0.9647 0.312,1.4509 l -0.096,0.1501 c -0.314,0.4881 -0.965,0.6281 -1.451,0.3122 z"
       fill="#8a6fe8"
       id="path250" />
    <path
       d="m 297.868,54.2655 -0.994,-0.6424 c -0.486,-0.314 -0.626,-0.9647 -0.312,-1.4509 l 0.097,-0.15 c 0.314,-0.4863 0.964,-0.6263 1.451,-0.3123 l 0.993,0.6424 c 0.486,0.314 0.626,0.9646 0.312,1.4509 l -0.096,0.15 c -0.314,0.4881 -0.965,0.6263 -1.451,0.3123 z"
       fill="#8a6fe8"
       id="path252" />
    <path
       d="m 299.259,53.4513 -0.994,-0.6424 c -0.486,-0.314 -0.626,-0.9647 -0.312,-1.4509 l 0.097,-0.1501 c 0.314,-0.4862 0.964,-0.6262 1.451,-0.3122 l 0.993,0.6424 c 0.487,0.314 0.627,0.9646 0.313,1.4508 l -0.097,0.1501 c -0.314,0.4881 -0.964,0.6281 -1.451,0.3123 z"
       fill="#8a6fe8"
       id="path254" />
    <path
       d="m 287.295,50.5114 c 2.423,-2.293 3.329,-4.7652 3.329,-4.7652 l 0.645,0.4019 0.022,-0.0032 c 2.216,-5.6009 0.193,-12.158 -5.098,-15.4619 -5.962,-3.7235 -13.813,-1.9103 -17.536,4.0511 -3.724,5.9615 -1.911,13.8125 4.051,17.5359 4.703,2.9386 10.584,2.4279 14.685,-0.846 0.156,-0.1525 0.352,-0.4742 -0.098,-0.9126 z"
       fill="url(#paint18_radial)"
       id="path256" />
    <path
       d="m 287.322,50.5269 c 2.394,-2.264 3.307,-4.7043 3.327,-4.763 l -11.198,-6.9945 c 0,0 -0.66,-0.5133 -1.064,0.1316 -0.403,0.645 -1.513,2.4811 -2.77,4.4955 -0.259,0.4151 -0.044,0.8263 0.221,0.9917 0.003,0.0016 10.901,6.4176 11.484,6.1387 z"
       fill="url(#paint19_radial)"
       id="path258" />
    <path
       d="m 280.792,46.447 c 0,0 2.573,-0.2883 3.068,-0.3297 0.493,-0.0412 0.795,0.1268 0.937,0.5865 0.143,0.4579 1.025,2.885 1.025,2.885 z"
       fill="#a08be8"
       id="path260" />
    <path
       d="m 287.3,51.537 c 0,0 0.659,-0.3875 0.022,-1.01 0.002,-0.0021 -11.004,-6.8846 -11.004,-6.8846 -0.257,-0.1609 -0.489,-0.5196 -0.364,-0.7852 -0.11,0.1789 -0.224,0.3582 -0.337,0.5414 -0.235,0.3752 -0.08,0.7484 0.151,0.9398 0.023,0.0179 0.047,0.0377 0.073,0.0535 l 0.752,0.4697 z"
       fill="#512bd4"
       id="path262" />
    <path
       d="M 285.354,52.761 266.742,41.1348 c -0.025,0.9701 0.06,1.9382 0.253,2.8839 l 15.657,9.7801 c 0.933,-0.2426 1.84,-0.5894 2.702,-1.0378 z"
       fill="#d0c5f3"
       id="path264" />
    <path
       d="m 285.398,29.1681 2.115,1.2535 0.989,-2.3488 -1.518,-0.8991 z"
       fill="#8a6fe8"
       id="path266" />
    <path
       d="m 288.553,28.3199 c 0.958,-0.1324 1.627,-1.0162 1.495,-1.9741 -0.133,-0.9578 -1.017,-1.6269 -1.974,-1.4945 -0.958,0.1324 -1.627,1.0162 -1.495,1.9741 0.133,0.9578 1.016,1.6269 1.974,1.4945 z"
       fill="#d8cff7"
       id="path268" />
    <path
       d="m 283.801,30.0161 c -0.094,-0.0562 -0.123,-0.185 -0.055,-0.2734 0.708,-0.9373 2.021,-1.2151 3.055,-0.6014 1.034,0.6137 1.424,1.8979 0.94,2.9679 -0.046,0.1006 -0.171,0.1392 -0.266,0.081 z"
       fill="url(#paint20_radial)"
       id="path270" />
    <path
       d="m 281.391,43.3848 c 0.478,-0.7916 0.484,-1.6638 0.014,-1.9481 -0.471,-0.2843 -1.24,0.127 -1.718,0.9186 -0.479,0.7916 -0.485,1.6637 -0.014,1.948 0.471,0.2843 1.24,-0.1269 1.718,-0.9185 z"
       fill="#512bd4"
       id="path272" />
    <path
       d="m 288.179,47.6478 c 0.501,-0.777 0.533,-1.6486 0.071,-1.9468 -0.462,-0.2982 -1.243,0.09 -1.744,0.867 -0.502,0.777 -0.534,1.6486 -0.072,1.9468 0.462,0.2982 1.243,-0.09 1.745,-0.867 z"
       fill="#512bd4"
       id="path274" />
    <path
       d="m 280.975,42.1571 c 0.279,-0.0657 0.559,0.0055 0.772,0.1666 -0.022,0.3303 -0.142,0.705 -0.358,1.0641 -0.134,0.2246 -0.295,0.4162 -0.462,0.5721 -0.315,-0.0912 -0.571,-0.3446 -0.649,-0.6842 -0.116,-0.5039 0.197,-1.0033 0.697,-1.1186 z"
       fill="#8065e0"
       id="path276" />
    <path
       d="m 287.799,46.3562 c 0.279,-0.0656 0.561,0.0053 0.773,0.1664 -0.017,0.3471 -0.15,0.7505 -0.396,1.1311 -0.125,0.1944 -0.269,0.3645 -0.419,0.5046 -0.317,-0.0891 -0.577,-0.3438 -0.655,-0.6872 -0.118,-0.4998 0.197,-0.9995 0.697,-1.1149 z"
       fill="#8065e0"
       id="path278" />
    <path
       d="M 282.212,54.7587 259.279,40.3376 c -0.455,-0.2856 -0.592,-0.8866 -0.305,-1.3422 l 1.29,-2.0459 c 0.286,-0.4534 0.887,-0.5904 1.34,-0.3046 l 24.655,15.4924 c 0.656,0.4137 0.541,1.0033 -0.166,1.3224 l -2.962,1.3606 c -0.299,0.1357 -0.643,0.112 -0.919,-0.0616 z"
       fill="#27bee0"
       id="path280" />
    <path
       d="M 286.257,52.1355 261.602,36.6431 c -0.453,-0.2858 -1.054,-0.1506 -1.34,0.3047 l -0.163,0.2574 c 0.298,-0.1567 0.668,-0.1559 0.972,0.037 l 24.654,15.4924 c 0.327,0.2051 0.462,0.456 0.43,0.6954 0.65,-0.3248 0.737,-0.8932 0.102,-1.2945 z"
       fill="#a4ecfc"
       id="path282" />
    <path
       d="m 282.907,50.4518 -3.482,-2.1752 -1.925,3.0814 3.483,2.1752 z"
       fill="#512bd4"
       id="path284" />
    <path
       d="m 278.723,50.5925 c -0.025,-0.0156 -0.044,-0.038 -0.05,-0.0679 -0.008,-0.0296 -0.004,-0.057 0.012,-0.0803 0.016,-0.0252 0.038,-0.0417 0.068,-0.0478 0.03,-0.006 0.057,-0.0021 0.085,0.0152 0.027,0.0173 0.044,0.04 0.05,0.0698 0.008,0.0296 0.004,0.057 -0.012,0.0822 -0.016,0.0252 -0.039,0.0398 -0.068,0.0459 -0.031,0.0042 -0.058,-0.0016 -0.085,-0.0171 z"
       fill="#ffffff"
       id="path286" />
    <path
       d="m 279.783,51.2361 -0.171,-0.1073 -0.006,-0.9926 c 0,-0.0251 0.003,-0.0504 0.007,-0.0741 l -0.004,-0.0033 c -0.01,0.0226 -0.035,0.0684 -0.078,0.1359 l -0.395,0.6342 -0.152,-0.0946 0.604,-0.9671 0.183,0.1133 0.003,0.9661 c -10e-4,0.0405 -10e-4,0.0674 -0.003,0.0812 l 0.003,0.0016 c 0.011,-0.0285 0.036,-0.0724 0.073,-0.1334 l 0.39,-0.6238 0.152,0.0946 z"
       fill="#ffffff"
       id="path288" />
    <path
       d="m 280.521,51.6961 -0.529,-0.3312 0.604,-0.9671 0.508,0.3187 -0.085,0.1369 -0.352,-0.2209 -0.172,0.274 0.325,0.2035 -0.086,0.135 -0.324,-0.2034 -0.178,0.2864 0.373,0.2334 z"
       fill="#ffffff"
       id="path290" />
    <path
       d="m 281.794,51.3336 -0.272,-0.1684 -0.518,0.8303 -0.156,-0.0978 0.518,-0.8303 -0.27,-0.1687 0.085,-0.1369 0.698,0.4368 z"
       fill="#ffffff"
       id="path292" />
    <path
       d="m 259.145,32.2621 0.645,2.2577 c 2.365,-0.6754 4.468,-0.6832 6.251,-0.0267 1.569,0.5783 2.935,1.6852 4.056,3.2938 l 1.924,-1.3442 c -2.086,-2.9885 -6.012,-6.1385 -12.876,-4.1806 z"
       fill="url(#paint21_linear)"
       id="path294" />
    <path
       d="m 258.374,34.2787 -1.272,1.8008 c -0.336,0.4815 -0.217,1.1448 0.265,1.4806 0.481,0.3358 1.144,0.2172 1.48,-0.2644 l 1.304,-1.8476 z"
       fill="#8a6fe8"
       id="path296" />
    <path
       d="m 258.349,32.0795 -2.2,0.1522 c -0.587,0.0445 -1.025,0.5556 -0.98,1.1424 0.044,0.5868 0.555,1.0245 1.14,0.9802 l 2.256,-0.156 z"
       fill="#8a6fe8"
       id="path298" />
    <path
       d="m 258.453,33.6092 -2.195,0.2072 c -0.585,0.0597 -1.012,0.5807 -0.952,1.1655 0.06,0.5847 0.581,1.0114 1.166,0.9517 l 2.252,-0.2131 z"
       fill="#8a6fe8"
       id="path300" />
    <path
       d="m 259.086,31.221 -2.188,-0.281 c -0.584,-0.0714 -1.113,0.3446 -1.185,0.9282 -0.071,0.5836 0.345,1.1133 0.928,1.1847 l 2.243,0.2869 z"
       fill="#8a6fe8"
       id="path302" />
    <path
       d="m 259.773,35.5967 c 1.219,-0.1685 2.07,-1.293 1.902,-2.5117 -0.169,-1.2186 -1.293,-2.07 -2.512,-1.9015 -1.219,0.1684 -2.07,1.293 -1.901,2.5116 0.168,1.2187 1.293,2.07 2.511,1.9016 z"
       fill="url(#paint22_radial)"
       id="path304" />
    <path
       d="m 271.922,39.7351 c 1.278,-0.1767 2.171,-1.3561 1.994,-2.6342 -0.176,-1.2781 -1.356,-2.171 -2.634,-1.9943 -1.278,0.1767 -2.171,1.356 -1.994,2.6342 0.176,1.2781 1.356,2.171 2.634,1.9943 z"
       fill="url(#paint23_radial)"
       id="path306" />
    <text
       xml:space="preserve"
       style="font-size:14.6667px;line-height:1.25;font-family:'Open Sans';-inkscape-font-specification:'Open Sans'"
       x="561.24725"
       y="19.527405"
       id="text3213"><tspan
         id="tspan3211"
         x="561.24725"
         y="19.527405"
         style="fill:#ffffff">November 9 - 11, 2021</tspan></text>
  </g>
  <defs
     id="defs437">
    <radialGradient
       id="paint0_radial"
       cx="0"
       cy="0"
       r="1"
       gradientUnits="userSpaceOnUse"
       gradientTransform="translate(380.162 49.9454) scale(385.831 204.412)">
      <stop
         offset="0.4602"
         stop-color="#1572E0"
         id="stop310" />
      <stop
         offset="0.8725"
         stop-color="#3E8EED"
         id="stop312" />
    </radialGradient>
    <radialGradient
       id="paint1_radial"
       cx="0"
       cy="0"
       r="1"
       gradientUnits="userSpaceOnUse"
       gradientTransform="translate(369.633 88.8774) scale(399.213 99.8963)">
      <stop
         offset="0.5491"
         stop-color="#549BEF"
         id="stop315" />
      <stop
         offset="0.9925"
         stop-color="#1C77E2"
         id="stop317" />
    </radialGradient>
    <radialGradient
       id="paint2_radial"
       cx="0"
       cy="0"
       r="1"
       gradientUnits="userSpaceOnUse"
       gradientTransform="translate(321.882 -90.4547) scale(594.564 373.002)">
      <stop
         offset="0.1052"
         stop-color="#60A2F0"
         id="stop320" />
      <stop
         offset="0.5496"
         stop-color="#3E8EED"
         id="stop322" />
      <stop
         offset="0.9964"
         stop-color="#1C77E2"
         id="stop324" />
    </radialGradient>
    <radialGradient
       id="paint3_radial"
       cx="0"
       cy="0"
       r="1"
       gradientUnits="userSpaceOnUse"
       gradientTransform="translate(30.6801 -2.00089) scale(43.3032)">
      <stop
         offset="0.3813"
         stop-color="#77E3FB"
         id="stop327" />
      <stop
         offset="0.979"
         stop-color="#2CC7EA"
         id="stop329" />
    </radialGradient>
    <radialGradient
       id="paint4_radial"
       cx="0"
       cy="0"
       r="1"
       gradientUnits="userSpaceOnUse"
       gradientTransform="translate(43.1834 24.3884) scale(17.9354 32.2963)">
      <stop
         offset="0.489583"
         stop-color="#A2CCFF"
         id="stop332" />
      <stop
         offset="0.9925"
         stop-color="#67A3EB"
         id="stop334" />
    </radialGradient>
    <linearGradient
       id="paint5_linear"
       x1="79.6952"
       y1="23.8446"
       x2="12.9958"
       y2="23.8446"
       gradientUnits="userSpaceOnUse">
      <stop
         offset="0.000330688"
         stop-color="#B5D6FF"
         stop-opacity="0"
         id="stop337" />
      <stop
         offset="1"
         stop-color="#B5D6FF"
         id="stop339" />
    </linearGradient>
    <radialGradient
       id="paint6_radial"
       cx="0"
       cy="0"
       r="1"
       gradientUnits="userSpaceOnUse"
       gradientTransform="translate(660.497 52.0892) rotate(-6.92105) scale(34.1154)">
      <stop
         offset="0.3813"
         stop-color="#AFD3FE"
         id="stop342" />
      <stop
         offset="0.979"
         stop-color="#2079E4"
         id="stop344" />
    </radialGradient>
    <linearGradient
       id="paint7_linear"
       x1="256.309"
       y1="96.2716"
       x2="256.912"
       y2="50.9536"
       gradientUnits="userSpaceOnUse">
      <stop
         stop-color="white"
         stop-opacity="0"
         id="stop347" />
      <stop
         offset="0.9936"
         stop-color="#60DEFA"
         id="stop349" />
    </linearGradient>
    <linearGradient
       id="paint8_linear"
       x1="250.917"
       y1="93.3498"
       x2="251.519"
       y2="48.0318"
       gradientUnits="userSpaceOnUse">
      <stop
         stop-color="white"
         stop-opacity="0"
         id="stop352" />
      <stop
         offset="0.9936"
         stop-color="#60DEFA"
         id="stop354" />
    </linearGradient>
    <linearGradient
       id="paint9_linear"
       x1="277.441"
       y1="52.5442"
       x2="272.626"
       y2="60.6683"
       gradientUnits="userSpaceOnUse">
      <stop
         stop-color="#522CD5"
         id="stop357" />
      <stop
         offset="0.4397"
         stop-color="#8A6FE8"
         id="stop359" />
    </linearGradient>
    <linearGradient
       id="paint10_linear"
       x1="277.441"
       y1="52.5442"
       x2="272.626"
       y2="60.6683"
       gradientUnits="userSpaceOnUse">
      <stop
         stop-color="#522CD5"
         id="stop362" />
      <stop
         offset="0.4397"
         stop-color="#8A6FE8"
         id="stop364" />
    </linearGradient>
    <linearGradient
       id="paint11_linear"
       x1="271.784"
       y1="59.4059"
       x2="268.72"
       y2="70.0611"
       gradientUnits="userSpaceOnUse">
      <stop
         stop-color="#522CD5"
         id="stop367" />
      <stop
         offset="0.4397"
         stop-color="#8A6FE8"
         id="stop369" />
    </linearGradient>
    <radialGradient
       id="paint12_radial"
       cx="0"
       cy="0"
       r="1"
       gradientUnits="userSpaceOnUse"
       gradientTransform="translate(268.339 67.3623) rotate(41.6266) scale(2.13821 2.13806)">
      <stop
         offset="0.034"
         stop-color="#522CD5"
         id="stop372" />
      <stop
         offset="1"
         stop-color="#8A6FE8"
         id="stop374" />
    </radialGradient>
    <linearGradient
       id="paint13_linear"
       x1="274.272"
       y1="50.8582"
       x2="267.984"
       y2="57.9051"
       gradientUnits="userSpaceOnUse">
      <stop
         stop-color="#522CD5"
         id="stop377" />
      <stop
         offset="0.4397"
         stop-color="#8A6FE8"
         id="stop379" />
    </linearGradient>
    <linearGradient
       id="paint14_linear"
       x1="274.272"
       y1="50.8582"
       x2="267.984"
       y2="57.9051"
       gradientUnits="userSpaceOnUse">
      <stop
         stop-color="#522CD5"
         id="stop382" />
      <stop
         offset="0.4397"
         stop-color="#8A6FE8"
         id="stop384" />
    </linearGradient>
    <linearGradient
       id="paint15_linear"
       x1="267.262"
       y1="56.292"
       x2="262.145"
       y2="66.2784"
       gradientUnits="userSpaceOnUse">
      <stop
         stop-color="#522CD5"
         id="stop387" />
      <stop
         offset="0.4397"
         stop-color="#8A6FE8"
         id="stop389" />
    </linearGradient>
    <radialGradient
       id="paint16_radial"
       cx="0"
       cy="0"
       r="1"
       gradientUnits="userSpaceOnUse"
       gradientTransform="translate(264.277 63.0442) rotate(52.711) scale(3.78808 3.78789)">
      <stop
         offset="0.034"
         stop-color="#522CD5"
         id="stop392" />
      <stop
         offset="0.9955"
         stop-color="#8A6FE8"
         id="stop394" />
    </radialGradient>
    <radialGradient
       id="paint17_radial"
       cx="0"
       cy="0"
       r="1"
       gradientUnits="userSpaceOnUse"
       gradientTransform="translate(296.448 51.5372) rotate(-14.792) scale(3.46355)">
      <stop
         stop-color="#8065E0"
         id="stop397" />
      <stop
         offset="1"
         stop-color="#512BD4"
         id="stop399" />
    </radialGradient>
    <radialGradient
       id="paint18_radial"
       cx="0"
       cy="0"
       r="1"
       gradientUnits="userSpaceOnUse"
       gradientTransform="translate(282.795 34.4674) rotate(31.9889) scale(13.4826)">
      <stop
         offset="0.3472"
         stop-color="#A08BE8"
         id="stop402" />
      <stop
         offset="0.684"
         stop-color="#8065E0"
         id="stop404" />
      <stop
         offset="0.7596"
         stop-color="#8065E0"
         id="stop406" />
    </radialGradient>
    <radialGradient
       id="paint19_radial"
       cx="0"
       cy="0"
       r="1"
       gradientUnits="userSpaceOnUse"
       gradientTransform="translate(280.936 41.0713) rotate(-14.792) scale(13.5827)">
      <stop
         offset="0.0933"
         stop-color="#E1DFDD"
         id="stop409" />
      <stop
         offset="0.6573"
         stop-color="white"
         id="stop411" />
    </radialGradient>
    <radialGradient
       id="paint20_radial"
       cx="0"
       cy="0"
       r="1"
       gradientUnits="userSpaceOnUse"
       gradientTransform="translate(285.648 29.5415) rotate(-14.792) scale(1.93093)">
      <stop
         stop-color="#8065E0"
         id="stop414" />
      <stop
         offset="1"
         stop-color="#512BD4"
         id="stop416" />
    </radialGradient>
    <linearGradient
       id="paint21_linear"
       x1="271.679"
       y1="33.9635"
       x2="259.611"
       y2="35.6317"
       gradientUnits="userSpaceOnUse">
      <stop
         offset="0.2495"
         stop-color="#967FE6"
         id="stop419" />
      <stop
         offset="1"
         stop-color="#8A6FE8"
         id="stop421" />
    </linearGradient>
    <radialGradient
       id="paint22_radial"
       cx="0"
       cy="0"
       r="1"
       gradientUnits="userSpaceOnUse"
       gradientTransform="translate(259.327 32.3336) rotate(-14.792) scale(3.51355)">
      <stop
         stop-color="#8065E0"
         id="stop424" />
      <stop
         offset="1"
         stop-color="#512BD4"
         id="stop426" />
    </radialGradient>
    <radialGradient
       id="paint23_radial"
       cx="0"
       cy="0"
       r="1"
       gradientUnits="userSpaceOnUse"
       gradientTransform="translate(272.239 37.0575) rotate(-3.42043) scale(2.33758)">
      <stop
         stop-color="#8065E0"
         id="stop429" />
      <stop
         offset="1"
         stop-color="#512BD4"
         id="stop431" />
    </radialGradient>
    <clipPath
       id="clip0">
      <rect
         width="728"
         height="90"
         fill="white"
         id="rect434" />
    </clipPath>
  </defs>
</svg>
