<svg width="5120" height="1440" viewBox="0 0 5120 1440" fill="none" xmlns="http://www.w3.org/2000/svg">
<g clip-path="url(#clip0)">
<rect width="5120" height="1440" fill="url(#paint0_linear)"/>
<path d="M6093.13 -2326.92C2637.87 -4388.48 -4688.04 -3303.88 -6401.3 -2248.84C-7110.64 -1812 -7621.24 -1288.96 -7980.6 -729.483C-5424.68 -208.108 6215.41 2151.82 8300.94 2323.6C8741.13 837.973 8269.28 -1028.69 6093.13 -2326.92Z" fill="url(#paint1_radial)"/>
<path d="M4335.75 1049.76C4220.43 944.089 4058.89 905.483 3826.87 898.803C3712.63 801.863 3531.94 684.028 3317.16 670.383C2990.89 649.659 2862.49 579.78 2727.08 507.047C2539.53 406.339 2385.22 410.792 2178.61 440.822C2011.39 286.449 1790.05 355.3 1790.05 355.3C1790.05 355.3 1564.94 235.238 1439.91 235.238C1351.36 235.238 1229.99 276.743 1166.62 301.007C2288.91 417.072 3761.89 906.655 4497.9 1256.56C4497.9 1256.56 4420.35 1127.29 4335.75 1049.76Z" fill="#E29E3B"/>
<path d="M701.724 267.608C436.424 257.731 164.9 254.248 -108.221 259.387C-491.985 757.56 -384.426 1396.4 -266.362 1665.42C-130.43 1974.96 399.828 2589.54 1329.72 2233.41C2259.61 1877.28 2765.04 1767.61 3431.91 1836.4C3837.88 1878.25 4826.33 2085.43 4927.95 1665.42C4387.45 803.013 1915.53 312.709 701.724 267.608Z" fill="#FDD696"/>
<path d="M534.966 262.299C509.389 249.168 480.33 235.238 454.468 225.304C404 205.893 275.375 240.662 220.168 257.275C325.671 257.789 430.718 259.559 534.966 262.299Z" fill="#E29E3B"/>
<path d="M701.728 267.608C802.094 271.319 904.743 277.656 1009.05 286.334C972.852 264.126 912.564 232.669 844.569 220.337C778.801 208.406 705.896 239.291 657.883 266.124C672.555 266.581 687.17 267.037 701.728 267.608Z" fill="#E29E3B"/>
<path d="M1421.71 1165.44L1240.8 1928.8C1535.27 1820.98 1778.8 1745.25 2002.2 1698.05L1791.89 1268.15L1650.05 1355.99L1554.76 1158L1421.71 1165.44Z" fill="#E29E3B"/>
<path d="M1789.7 1268.63L1521.29 1206.14L1554.01 1158.52C1554.01 1158.52 193.898 897.04 -356.563 791.4C-408.303 1083.68 -347.438 1361.39 -282.835 1508.72C-167.268 1772.19 283.546 2295.29 1074.12 1992.17C1393.93 1869.52 1654.67 1781.28 1889.4 1723.45L1789.7 1268.63Z" fill="url(#paint2_linear)"/>
<path d="M905.258 1308.4H-125.01C-159.788 1308.4 -188 1292.61 -188 1273.15C-188 1273.15 -179.001 1237.9 -125.01 1237.9H905.21C939.988 1237.9 968.2 1253.69 968.2 1273.15C968.2 1292.61 940.037 1308.4 905.258 1308.4Z" fill="#E29E3B"/>
<path d="M3439.22 734.21L3210.06 657.138L3230.22 717.425L3425.01 779.14L3439.22 734.21Z" fill="#C4832D"/>
<path d="M3268.47 676.777L3210.06 657.138L3230.22 717.425L3288.22 735.809L3268.47 676.777Z" fill="#CE8C32"/>
<path d="M3764.18 568.077C3857.58 568.077 3933.28 492.367 3933.28 398.974C3933.28 305.582 3857.58 229.872 3764.18 229.872C3670.79 229.872 3595.08 305.582 3595.08 398.974C3595.08 492.367 3670.79 568.077 3764.18 568.077Z" fill="url(#paint3_linear)"/>
<path d="M2236.09 129.291C2234.62 133.203 2231.89 136.588 2228.3 139.038C2227.66 139.463 2227.64 140.245 2228.22 140.722C2231.78 143.528 2234.52 147.152 2236.04 151.285C2236.43 152.323 2237.99 152.323 2238.36 151.285C2239.92 147.152 2242.64 143.528 2246.18 140.722C2246.76 140.262 2246.74 139.463 2246.1 139.038C2242.51 136.588 2239.78 133.203 2238.31 129.291C2237.99 128.321 2236.47 128.321 2236.09 129.291Z" fill="#FDD696"/>
<path d="M4402.79 2.39053C4401.32 6.30297 4398.59 9.68808 4395 12.1376C4394.36 12.5629 4394.34 13.3454 4394.92 13.8216C4398.48 16.6284 4401.22 20.2516 4402.74 24.3852C4403.13 25.4229 4404.69 25.4229 4405.06 24.3852C4406.61 20.2516 4409.34 16.6284 4412.88 13.8216C4413.46 13.3624 4413.44 12.5629 4412.8 12.1376C4409.21 9.68808 4406.48 6.30297 4405.01 2.39053C4404.69 1.42093 4403.17 1.42093 4402.79 2.39053Z" fill="#FDD696"/>
<path d="M1831.32 138.987C1829.12 144.462 1825.01 149.201 1819.65 152.629C1818.69 153.222 1818.65 154.335 1819.55 154.981C1824.89 158.912 1828.97 163.975 1831.25 169.773C1831.85 171.227 1834.16 171.227 1834.76 169.773C1837.09 163.993 1841.17 158.912 1846.46 154.981C1847.34 154.335 1847.32 153.222 1846.36 152.629C1840.97 149.201 1836.89 144.462 1834.69 138.987C1834.16 137.622 1831.87 137.622 1831.32 138.987Z" fill="#FDD696"/>
<path d="M3998.02 12.0867C3995.82 17.5618 3991.71 22.3009 3986.35 25.7295C3985.39 26.3219 3985.35 27.4349 3986.24 28.0811C3991.59 32.0124 3995.67 37.0746 3997.95 42.8728C3998.55 44.3269 4000.86 44.3269 4001.46 42.8728C4003.78 37.0926 4007.86 32.0124 4013.16 28.0811C4014.04 27.4349 4014.02 26.3219 4013.06 25.7295C4007.67 22.3009 4003.59 17.5618 4001.39 12.0867C4000.86 10.7224 3998.57 10.7224 3998.02 12.0867Z" fill="#FDD696"/>
<path d="M4754.72 778.186C4752.52 783.661 4748.41 788.401 4743.05 791.829C4742.09 792.422 4742.05 793.535 4742.95 794.181C4748.29 798.112 4752.37 803.174 4754.65 808.973C4755.25 810.427 4757.56 810.427 4758.16 808.973C4760.49 803.192 4764.57 798.112 4769.86 794.181C4770.74 793.535 4770.72 792.422 4769.76 791.829C4764.37 788.401 4760.29 783.661 4758.09 778.186C4757.56 776.822 4755.27 776.822 4754.72 778.186Z" fill="#FDD696"/>
<path d="M4704.13 589.602C4703.4 591.962 4702.04 593.981 4700.25 595.454C4699.93 595.699 4699.92 596.19 4700.21 596.454C4701.99 598.134 4703.35 600.324 4704.12 602.796C4704.31 603.419 4705.09 603.419 4705.28 602.796C4706.05 600.305 4707.41 598.134 4709.19 596.454C4709.48 596.171 4709.47 595.699 4709.15 595.454C4707.36 593.981 4706 591.943 4705.27 589.602C4705.07 589.017 4704.31 589.017 4704.13 589.602Z" fill="#FDD696"/>
<path d="M1739.94 21.3425C1738.1 26.0309 1734.7 30.1035 1730.22 33.0437C1729.42 33.5403 1729.4 34.4939 1730.13 35.0501C1734.59 38.4274 1737.99 42.7781 1739.89 47.7248C1740.37 48.9763 1742.3 48.9763 1742.81 47.7248C1744.74 42.7582 1748.14 38.4075 1752.57 35.0501C1753.3 34.4939 1753.28 33.5403 1752.48 33.0437C1748 30.1035 1744.6 26.0507 1742.76 21.3425C1742.28 20.1704 1740.4 20.1704 1739.94 21.3425Z" fill="#FDD696"/>
<path d="M4663.34 660.543C4661.5 665.231 4658.1 669.304 4653.62 672.244C4652.82 672.74 4652.8 673.694 4653.53 674.25C4657.99 677.628 4661.39 681.978 4663.29 686.925C4663.77 688.176 4665.7 688.176 4666.21 686.925C4668.14 681.958 4671.54 677.608 4675.97 674.25C4676.7 673.694 4676.68 672.74 4675.88 672.244C4671.4 669.304 4668 665.251 4666.16 660.543C4665.68 659.371 4663.8 659.371 4663.34 660.543Z" fill="#FDD696"/>
<path d="M1912.9 114.463C1915.49 114.463 1917.6 112.359 1917.6 109.763C1917.6 107.168 1915.49 105.063 1912.9 105.063C1910.3 105.063 1908.2 107.168 1908.2 109.763C1908.2 112.359 1910.3 114.463 1912.9 114.463Z" fill="#FDD696"/>
<path d="M4836.3 753.664C4838.9 753.664 4841 751.559 4841 748.964C4841 746.368 4838.9 744.264 4836.3 744.264C4833.7 744.264 4831.6 746.368 4831.6 748.964C4831.6 751.559 4833.7 753.664 4836.3 753.664Z" fill="#FDD696"/>
<path d="M2267.75 260.164C2271.64 260.164 2274.8 257.007 2274.8 253.114C2274.8 249.22 2271.64 246.063 2267.75 246.063C2263.86 246.063 2260.7 249.22 2260.7 253.114C2260.7 257.007 2263.86 260.164 2267.75 260.164Z" fill="#FDD696"/>
<path d="M4434.45 133.264C4438.34 133.264 4441.5 130.107 4441.5 126.213C4441.5 122.32 4438.34 119.163 4434.45 119.163C4430.56 119.163 4427.4 122.32 4427.4 126.213C4427.4 130.107 4430.56 133.264 4434.45 133.264Z" fill="#FDD696"/>
<path d="M1633.25 128.563C1639.74 128.563 1645 124.355 1645 119.163C1645 113.972 1639.74 109.763 1633.25 109.763C1626.76 109.763 1621.5 113.972 1621.5 119.163C1621.5 124.355 1626.76 128.563 1633.25 128.563Z" fill="#FDD696"/>
<path d="M3799.95 1.66333C3806.44 1.66333 3811.7 -2.54516 3811.7 -7.73658C3811.7 -12.928 3806.44 -17.1365 3799.95 -17.1365C3793.46 -17.1365 3788.2 -12.928 3788.2 -7.73658C3788.2 -2.54516 3793.46 1.66333 3799.95 1.66333Z" fill="#FDD696"/>
<path d="M4556.65 767.763C4563.14 767.763 4568.4 763.555 4568.4 758.363C4568.4 753.172 4563.14 748.963 4556.65 748.963C4550.16 748.963 4544.9 753.172 4544.9 758.363C4544.9 763.555 4550.16 767.763 4556.65 767.763Z" fill="#FDD696"/>
<path d="M1976.35 203.763C1980.24 203.763 1983.4 201.659 1983.4 199.063C1983.4 196.468 1980.24 194.364 1976.35 194.364C1972.46 194.364 1969.3 196.468 1969.3 199.063C1969.3 201.659 1972.46 203.763 1976.35 203.763Z" fill="#FDD696"/>
<path d="M4143.05 76.8635C4146.94 76.8635 4150.1 74.7593 4150.1 72.1636C4150.1 69.5679 4146.94 67.4636 4143.05 67.4636C4139.16 67.4636 4136 69.5679 4136 72.1636C4136 74.7593 4139.16 76.8635 4143.05 76.8635Z" fill="#FDD696"/>
<path d="M4899.75 842.964C4903.64 842.964 4906.8 840.859 4906.8 838.264C4906.8 835.668 4903.64 833.563 4899.75 833.563C4895.86 833.563 4892.7 835.668 4892.7 838.264C4892.7 840.859 4895.86 842.964 4899.75 842.964Z" fill="#FDD696"/>
<path d="M1294.01 16.4872C1292.91 20.3936 1290.87 23.7836 1288.18 26.2308C1287.69 26.6573 1287.68 27.4431 1288.12 27.9146C1290.8 30.7209 1292.83 34.3579 1293.97 38.4888C1294.27 39.5215 1295.43 39.5215 1295.73 38.4888C1296.89 34.3579 1298.92 30.7209 1301.58 27.9146C1302.03 27.4431 1302.01 26.6573 1301.52 26.2308C1298.83 23.7836 1296.79 20.3936 1295.69 16.4872C1295.43 15.5218 1294.29 15.5218 1294.01 16.4872Z" fill="#FDD696"/>
<path d="M4217.41 655.687C4216.31 659.594 4214.27 662.984 4211.58 665.431C4211.09 665.857 4211.07 666.643 4211.52 667.115C4214.19 669.921 4216.23 673.558 4217.37 677.689C4217.67 678.722 4218.83 678.722 4219.13 677.689C4220.29 673.558 4222.32 669.921 4224.98 667.115C4225.43 666.643 4225.41 665.857 4224.92 665.431C4222.23 662.984 4220.19 659.594 4219.09 655.687C4218.83 654.722 4217.69 654.722 4217.41 655.687Z" fill="#FDD696"/>
<path d="M4978.81 1013.02C4977.71 1016.93 4975.67 1020.32 4972.98 1022.77C4972.49 1023.19 4972.47 1023.98 4972.92 1024.45C4975.59 1027.26 4977.63 1030.89 4978.77 1035.03C4979.07 1036.06 4980.23 1036.06 4980.53 1035.03C4981.69 1030.89 4983.72 1027.26 4986.38 1024.45C4986.82 1023.98 4986.81 1023.19 4986.32 1022.77C4983.63 1020.32 4981.59 1016.93 4980.49 1013.02C4980.23 1012.06 4979.09 1012.06 4978.81 1013.02Z" fill="#FDD696"/>
<path d="M3798.89 958.579L3782.17 952.699L3858.67 735.811L3875.45 741.692L3798.89 958.579Z" fill="#E29E3B"/>
<path d="M3891.55 728.503L3860.72 717.656C3851.88 714.516 3842.17 719.197 3839.09 728.046L3838.57 729.531C3835.43 738.38 3840.11 748.085 3848.96 751.168L3879.79 762.015C3888.64 765.155 3898.35 760.473 3901.43 751.624L3901.94 750.14C3905.03 741.348 3900.4 731.643 3891.55 728.503Z" fill="#E29E3B"/>
<path d="M3922.95 612.438L3758.07 735.81C3755.96 737.352 3756.36 740.606 3758.7 741.691C3797.58 759.218 3844.51 755.678 3881.05 728.331C3917.58 700.985 3934.26 656.968 3928.37 614.721C3928.03 612.152 3925.06 610.896 3922.95 612.438Z" fill="#FFEED0"/>
<path d="M3360.67 821.388L3149.03 754.364C3136.47 750.367 3129.51 736.951 3133.5 724.391L3138.81 707.549C3142.81 694.989 3154.23 685.398 3166.79 689.337L3380.42 759.045C3392.98 763.041 3399.95 776.458 3395.95 789.018L3390.64 805.859C3386.64 818.419 3373.23 825.384 3360.67 821.388Z" fill="#F8BB55"/>
<path d="M3401.31 831.036L3189.68 764.011C3177.12 760.015 3170.15 746.599 3174.15 734.039L3177.75 722.678C3181.74 710.118 3195.16 703.153 3207.72 707.149L3419.36 774.174C3431.91 778.17 3438.88 791.586 3434.88 804.146L3431.29 815.507C3427.29 828.067 3413.87 835.032 3401.31 831.036Z" fill="#CE8B32"/>
<path d="M3455.61 852.673L3204.98 771.661C3192.42 767.665 3185.46 754.248 3189.45 741.688L3194.65 725.246C3198.65 712.686 3214.86 704.865 3227.42 708.861L3475.93 787.704C3488.49 791.7 3499.46 804.831 3495.86 820.759L3488.67 840.684C3484.27 852.273 3468.17 856.669 3455.61 852.673Z" fill="#F8BB55"/>
<path d="M3457.09 848.678L3245.46 781.653C3232.9 777.657 3225.93 764.24 3229.93 751.68L3233.53 740.319C3237.52 727.759 3250.94 720.794 3263.5 724.791L3475.13 791.815C3487.69 795.812 3494.66 809.228 3490.66 821.788L3487.07 833.149C3483.07 845.709 3469.65 852.674 3457.09 848.678Z" fill="#CE8B32"/>
<path d="M3261.33 775.316C3272.39 775.316 3281.37 766.344 3281.37 755.277C3281.37 744.21 3272.39 735.238 3261.33 735.238C3250.26 735.238 3241.29 744.21 3241.29 755.277C3241.29 766.344 3250.26 775.316 3261.33 775.316Z" fill="#EEAB42"/>
<path d="M3310.14 790.788C3321.2 790.788 3330.17 781.817 3330.17 770.75C3330.17 759.682 3321.2 750.711 3310.14 750.711C3299.07 750.711 3290.1 759.682 3290.1 770.75C3290.1 781.817 3299.07 790.788 3310.14 790.788Z" fill="#EEAB42"/>
<path d="M3358.95 806.26C3370.02 806.26 3378.99 797.288 3378.99 786.22C3378.99 775.153 3370.02 766.181 3358.95 766.181C3347.89 766.181 3338.91 775.153 3338.91 786.22C3338.91 797.288 3347.89 806.26 3358.95 806.26Z" fill="#EEAB42"/>
<path d="M3407.76 821.732C3418.83 821.732 3427.8 812.761 3427.8 801.693C3427.8 790.626 3418.83 781.655 3407.76 781.655C3396.69 781.655 3387.72 790.626 3387.72 801.693C3387.72 812.761 3396.69 821.732 3407.76 821.732Z" fill="#EEAB42"/>
<path d="M3456.58 639.883C3467.65 639.883 3476.62 630.911 3476.62 619.844C3476.62 608.777 3467.65 599.805 3456.58 599.805C3445.51 599.805 3436.54 608.777 3436.54 619.844C3436.54 630.911 3445.51 639.883 3456.58 639.883Z" fill="#EEAB42"/>
<path d="M3347.54 540.273L3308.94 649.829L3162.62 585.888L3148.92 629.106C3146.69 636.071 3150.57 643.492 3157.54 645.719L3469.54 744.543C3477.13 746.941 3485.24 742.716 3487.64 735.123L3504.48 681.971C3506.42 675.806 3504.42 669.012 3499.4 664.901L3347.54 540.273Z" fill="#FFE5B9"/>
<path d="M3341.2 580.694L3184.83 520.749L3259.33 472.907C3261.9 471.308 3265.04 470.909 3267.89 471.822L3359.07 500.71C3362.84 501.909 3364.95 505.905 3363.75 509.73L3341.2 580.694Z" fill="#F1AE44"/>
<path d="M3337.77 564.993L3191.79 518.75C3187.39 517.38 3182.71 519.778 3181.29 524.174L3159.48 592.968C3158.11 597.364 3160.5 602.045 3164.9 603.473L3310.88 649.716C3315.28 651.086 3319.96 648.688 3321.39 644.292L3343.19 575.498C3344.56 571.102 3342.17 566.421 3337.77 564.993Z" fill="#C4832D"/>
<path d="M3318.08 487.693L3267.89 471.765C3265.04 470.851 3261.9 471.251 3259.33 472.849L3184.83 520.691L3277.94 552.434L3318.08 487.693Z" fill="white"/>
<path d="M3280.57 546.895L3193.74 519.378C3188.26 517.665 3182.38 520.691 3180.61 526.171L3160.05 591.026C3158.34 596.507 3161.37 602.387 3166.85 604.157L3253.68 631.675L3280.57 546.895Z" fill="#E29E3B"/>
<path d="M2912.16 572.129L2884.64 557.971L3092 345.936L3113.98 367.402L2912.16 572.129Z" fill="#FFE5B9"/>
<path d="M3227.47 597.593L3190.14 585.775C3185.8 584.405 3181.12 586.803 3179.75 591.141L3168.9 625.339C3167.53 629.678 3169.93 634.359 3174.27 635.729L3211.6 647.547C3215.94 648.917 3220.62 646.519 3221.99 642.18L3232.84 607.983C3234.27 603.644 3231.87 598.963 3227.47 597.593Z" fill="#CE8B32"/>
<path d="M3213.14 625.682L3188.42 617.632C3185.46 616.661 3183.06 614.492 3181.8 611.637L3072.7 364.663L3100.96 352.218L3218.4 619.915C3219.82 623.284 3216.63 626.823 3213.14 625.682Z" fill="#FFE5B9"/>
<path d="M3084.4 339.258L3050.72 374.768C3046.21 379.506 3046.95 387.156 3052.26 390.981L3076.01 407.937C3078.98 410.05 3082.81 410.506 3086.17 409.193L3114.61 398.175C3120.37 395.948 3123.06 389.326 3120.54 383.731L3101.99 342.34C3098.96 335.261 3089.71 333.663 3084.4 339.258Z" fill="#E29E3B"/>
<path d="M3043.19 614.034L3035.54 611.579L2945.11 582.92C2945.11 582.92 2922.61 630.933 2976.73 649.83C2976.62 649.887 2978.56 650.572 2979.25 650.8C2983.01 651.999 2998.88 657.08 3003.97 658.736C3006.93 659.707 3043.19 614.034 3043.19 614.034Z" fill="#C4832D"/>
<path d="M3013.67 599.191L3042.33 587.944L3036.05 602.616L3062.71 593.596L3056.03 608.725L3081.26 599.191L3074.13 616.775L3013.67 599.191Z" fill="#E29E3B"/>
<path d="M3074.19 616.888C3074.19 616.888 3043.01 671.067 3002.31 658.165C2952.24 642.294 2972.22 591.597 2972.22 591.597L3062.65 620.257L3074.19 616.888Z" fill="#F8BB55"/>
<path d="M2948.99 549.58L2923.07 541.359L2923.13 541.473C2921.18 541.016 2919.13 541.302 2917.36 542.558C2914.16 544.841 2913.42 549.294 2915.7 552.491L2940.77 587.545C2941.68 588.801 2942.94 589.715 2944.42 590.171L2975.59 600.048C2977.42 600.676 2948.99 549.58 2948.99 549.58Z" fill="#C4832D"/>
<path d="M3808.83 963.886C3824.93 877.679 3791.42 796.61 3725.13 773.032C3658.79 749.453 3581.66 791.072 3539.7 868.088L3808.83 963.886Z" fill="#FFEED0"/>
<path d="M3673.98 915.874L3697.79 848.963C3702.24 836.403 3696.47 822.93 3684.94 818.819C3673.35 814.709 3660.39 821.502 3655.94 834.062L3632.13 900.973L3673.98 915.874Z" fill="#E29E3B"/>
<path d="M3743.68 867.613C3746.89 858.613 3742.77 848.925 3734.48 845.976C3726.19 843.026 3716.87 847.931 3713.67 856.932C3710.47 865.932 3714.59 875.62 3722.88 878.569C3731.16 881.519 3740.48 876.613 3743.68 867.613Z" fill="#F7B548"/>
<path d="M3636.72 829.526C3639.92 820.526 3635.8 810.838 3627.51 807.889C3619.22 804.939 3609.91 809.844 3606.7 818.845C3603.5 827.845 3607.62 837.533 3615.91 840.482C3624.2 843.432 3633.51 838.527 3636.72 829.526Z" fill="#F7B548"/>
<path d="M3788.68 883.615C3791.89 874.615 3787.77 864.927 3779.48 861.978C3771.19 859.028 3761.87 863.933 3758.67 872.934C3755.47 881.934 3759.59 891.622 3767.88 894.571C3776.16 897.521 3785.48 892.615 3788.68 883.615Z" fill="#F7B548"/>
<path d="M3096.62 748.825L2989.06 733.639L2938.82 713.258L2881.05 703.895L2842.74 680.545L3020.29 719.595L3096.62 748.825Z" fill="#E29E3B"/>
<path d="M3280.63 927.233L3027.2 852.216C3027.2 852.216 3128.93 810.541 3185.63 817.22C3242.26 823.9 3280.63 927.233 3280.63 927.233Z" fill="#FAF9F8"/>
<path d="M2897.66 676.777L2700.24 629.849C2700.24 629.849 2776.46 593.653 2820.19 596.394C2863.92 599.134 2897.66 676.777 2897.66 676.777Z" fill="#FAF9F8"/>
<path d="M2972.17 588.801C2972.17 588.801 3006.36 571.274 3023.83 572.987C3041.36 574.643 3058.03 618.031 3058.03 618.031L2972.17 588.801Z" fill="#FAF9F8"/>
<path d="M3062.03 627.451L2970.11 598.334C2968.63 597.878 2967.37 596.964 2966.46 595.708L2941.4 560.654C2939.11 557.457 2939.85 553.004 2943.05 550.721C2946.25 548.437 2950.7 549.179 2952.98 552.376L2976.68 585.546L3074.64 616.546L3067.45 627.051C3065.74 627.85 3063.8 628.022 3062.03 627.451Z" fill="#FFE5B9"/>
<path d="M2889.04 573.444L2937.05 582.864C2943.5 584.12 2949.56 579.438 2949.9 572.873L2951.5 543.757C2951.67 540.103 2950.07 536.62 2947.16 534.508L2922.61 516.41C2917.64 512.756 2910.62 514.012 2907.2 519.15L2882.13 556.945C2877.91 563.282 2881.5 571.959 2889.04 573.444Z" fill="#E29E3B"/>
<path d="M3243.98 883.046H3233.13V893.893H3243.98V883.046Z" fill="#FBC977"/>
<path d="M3226.45 867.231H3218.11V875.567H3226.45V867.231Z" fill="#FBC977"/>
<path d="M3215.6 885.558H3207.26V893.893H3215.6V885.558Z" fill="#FBC977"/>
<path d="M3199.73 870.544H3189.74V880.535H3199.73V870.544Z" fill="#FBC977"/>
<path d="M3202.3 843.083H3193.11V852.274H3202.3V843.083Z" fill="#FBC977"/>
<path d="M3263.16 893.094H3253.97V902.285H3263.16V893.094Z" fill="#FBC977"/>
<path d="M3231.41 892.238H3221.42V902.229H3231.41V892.238Z" fill="#FBC977"/>
<path d="M3222.28 853.073H3215.6V859.753H3222.28V853.073Z" fill="#FBC977"/>
<path d="M2882.93 660.506H2875.45V667.985H2882.93V660.506Z" fill="#FBC977"/>
<path d="M2865.4 652.97H2857.93V660.448H2865.4V652.97Z" fill="#FBC977"/>
<path d="M2863.75 637.155H2856.27V644.634H2863.75V637.155Z" fill="#FBC977"/>
<path d="M2845.48 643.779H2836.29V652.971H2845.48V643.779Z" fill="#FBC977"/>
<path d="M2841.31 622.142H2834.63V628.822H2841.31V622.142Z" fill="#FBC977"/>
<path d="M2812.08 629.621H2803.75V637.956H2812.08V629.621Z" fill="#FBC977"/>
<path d="M3005.51 955.608C3473.02 1174.38 3795.93 1364.15 4092.17 1551.52C4114.61 1525.6 4135.73 1498.25 4155.49 1469.71C3860.33 1290.44 3380.99 1035.93 3025.55 870.6C1875.06 335.375 864.667 345.366 574.532 330.351C284.397 315.336 465.089 363.121 859.643 375.396C1504.88 395.377 2569.91 751.737 3005.51 955.608Z" fill="url(#paint4_radial)"/>
<path d="M4263 1679.24C3732.07 1375.62 3111.36 1070.85 2644.29 881.405C2076.79 651.209 1681 597.263 1681 597.263L1702.01 629.362C1702.01 629.362 3486.02 1302.39 2896.62 1199.95C2562.18 1141.84 3324.69 1553.41 3788.5 1971.26C3969.61 1929.17 4134.14 1824.23 4263 1679.24Z" fill="url(#paint5_linear)"/>
<path d="M991.701 970H-206.799V1017H991.701V970Z" fill="#F7B548"/>
<path d="M281.207 781.89L268.427 742.478C266.438 736.365 270.267 729.974 276.831 728.307L304.131 721.313C310.247 719.739 316.612 722.795 318.751 728.307L337.647 776.194C340.631 783.789 334.365 791.801 325.663 791.385L292.296 789.903C287.124 789.717 282.699 786.475 281.207 781.89Z" fill="#C4832D"/>
<path d="M880.561 1262.28C875.802 1262.28 871.139 1259.85 868.516 1255.48L763.708 1082.53C759.676 1075.87 761.813 1067.23 768.467 1063.2C775.121 1059.17 783.766 1061.3 787.797 1067.96L892.606 1240.91C896.637 1247.56 894.5 1256.2 887.846 1260.24C885.564 1261.64 883.038 1262.28 880.561 1262.28Z" fill="#FDD490"/>
<path d="M-19.9166 1262.28C-15.157 1262.28 -10.4945 1259.85 -7.87182 1255.48L96.937 1082.53C100.968 1075.87 98.8311 1067.23 92.1774 1063.2C85.5236 1059.17 76.8786 1061.3 72.8475 1067.96L-31.9614 1240.91C-35.9926 1247.56 -33.8555 1256.2 -27.2018 1260.24C-24.9191 1261.64 -22.3936 1262.28 -19.9166 1262.28Z" fill="#FDD490"/>
<path d="M424.663 1335.86C416.892 1335.86 410.578 1329.54 410.578 1321.77V1130.51C410.578 1122.74 416.892 1116.43 424.663 1116.43C432.434 1116.43 438.747 1122.74 438.747 1130.51V1321.77C438.747 1329.54 432.434 1335.86 424.663 1335.86Z" fill="#FDD490"/>
<path d="M657.432 749.953L648.762 726.936C647.186 722.709 642.556 720.219 637.926 721.065L557.884 735.908C553.5 736.707 550.249 740.371 550.15 744.645L549.904 753.852C549.756 759.019 554.14 763.247 559.558 763.2L648.516 762.213C655.117 762.072 659.648 755.872 657.432 749.953Z" fill="#C4832D"/>
<path d="M506.566 776.602L501.666 774.138C498.533 772.561 497.27 768.766 498.937 765.661L523.442 719.581C525.058 716.526 528.949 715.294 532.132 716.92L537.033 719.384C540.165 720.961 541.429 724.756 539.761 727.861L515.257 773.941C513.64 776.996 509.749 778.179 506.566 776.602Z" fill="#C4832D"/>
<path d="M705.167 767.4C703.131 760.551 697.848 755.5 690.869 754.14H682.388C682.34 754.043 682.34 753.897 682.291 753.8H140.211C140.163 753.897 140.163 754.043 140.114 754.14L131.051 754.188C124.654 755.5 119.42 760.551 117.336 767.4L99.6462 826.319C97.8045 832.439 98.6769 838.997 102.069 844.243C105.462 849.488 110.745 852.5 116.56 852.5H705.942C711.758 852.5 717.04 849.488 720.433 844.243C723.826 838.997 724.698 832.439 722.856 826.319L705.167 767.4Z" fill="#EBA841"/>
<path d="M1019.9 1017H-202.1C-170.156 1060.17 -81.4023 1097.51 41.1371 1122.6C135.32 1166.06 255.338 1181.5 407.689 1181.5C559.602 1181.5 703.615 1167.73 773.901 1123.13C897.894 1098.03 987.666 1060.5 1019.9 1017Z" fill="#FEDEA7"/>
<path d="M708.91 1169.39C626.544 1192.7 523.514 1205 411.077 1205C202.775 1205 53.5904 1162.55 -4.69922 1115.74C115.828 1136.32 258.92 1148.24 412.49 1148.24C564.55 1148.24 716.902 1135.07 836.601 1111C811.647 1130.86 760.668 1154.75 708.91 1169.39Z" fill="#C4832D"/>
<path d="M717.537 819.6H95.5168C-95.1305 847.809 -194.85 904.179 -206.799 970H1019.9C1007.95 904.228 908.233 847.809 717.537 819.6Z" fill="url(#paint6_linear)"/>
<path d="M56 1216C47.1724 1216 40 1212.41 40 1208C40 1203.59 47.1724 1200 56 1200C64.8276 1200 72 1203.59 72 1208C72 1212.41 64.87 1216 56 1216Z" fill="#F7B548"/>
<path d="M202.101 913.6C191.728 913.6 183.301 905.172 183.301 894.8C183.301 884.428 191.728 876 202.101 876C212.473 876 220.901 884.428 220.901 894.8C220.901 905.172 212.473 913.6 202.101 913.6Z" fill="#F7B548"/>
<path d="M340.751 913.6C331.675 913.6 324.301 905.172 324.301 894.8C324.301 884.428 331.675 876 340.751 876C349.827 876 357.201 884.428 357.201 894.8C357.201 905.172 349.827 913.6 340.751 913.6Z" fill="#F7B548"/>
<path d="M479.402 913.6C469.029 913.6 460.602 905.172 460.602 894.8C460.602 884.428 469.029 876 479.402 876C489.774 876 498.202 884.428 498.202 894.8C498.202 905.172 489.824 913.6 479.402 913.6Z" fill="#F7B548"/>
<path d="M618.052 913.6C608.976 913.6 601.602 905.172 601.602 894.8C601.602 884.428 608.976 876 618.052 876C627.127 876 634.502 884.428 634.502 894.8C634.502 905.172 627.127 913.6 618.052 913.6Z" fill="#F7B548"/>
<path d="M991.701 970H-206.799V984.1H991.701V970Z" fill="#C4832D"/>
<path d="M615.7 589.475C573.294 486.783 441.266 439.432 315.505 483.685C189.744 527.937 116.735 647.332 148.358 753.8L615.7 589.475Z" fill="url(#paint7_radial)"/>
<path d="M619.987 589.359C618.678 585.655 614.511 583.73 610.78 584.981L155.213 744.597C151.482 745.896 149.495 750.033 150.803 753.738C151.821 756.576 154.534 758.5 157.636 758.5C158.46 758.5 159.235 758.356 160.059 758.115L615.625 598.499C617.467 597.874 618.921 596.575 619.745 594.843C620.52 593.111 620.617 591.139 619.987 589.359Z" fill="#E29E3B"/>
<path d="M756.7 913.6C746.328 913.6 737.9 905.172 737.9 894.8C737.9 884.428 746.328 876 756.7 876C767.073 876 775.5 884.428 775.5 894.8C775.5 905.172 767.073 913.6 756.7 913.6Z" fill="#F7B548"/>
<mask id="mask0" mask-type="alpha" maskUnits="userSpaceOnUse" x="2543" y="-546" width="868" height="850">
<path d="M2543.47 -129.515C2543.47 109.809 2737.46 303.803 2976.79 303.803C3216.11 303.803 3410.11 109.809 3410.11 -129.515C3410.11 -163.142 3406.17 -195.855 3398.92 -227.255C3313.5 -515.336 2951.6 -689.236 2630.48 -389.906C2575.84 -317.401 2543.47 -227.255 2543.47 -129.515Z" fill="url(#paint8_linear)"/>
</mask>
<g mask="url(#mask0)">
<path d="M2543.47 -129.515C2543.47 109.809 2737.46 303.803 2976.79 303.803C3216.11 303.803 3410.11 109.809 3410.11 -129.515C3410.11 -163.142 3406.17 -195.855 3398.92 -227.255C3313.5 -515.336 2951.6 -689.236 2630.48 -389.906C2575.84 -317.401 2543.47 -227.255 2543.47 -129.515Z" fill="url(#paint9_linear)"/>
</g>
<path d="M1101.3 1331.58C1081.34 1330.66 1056.23 1321.58 1015.29 1308.27L1024.86 1255.62C1080.71 1278.16 1098.78 1278.98 1104.22 1278.06C1105 1274.76 1106.06 1264.95 1100.77 1240.95C1083.19 1160.96 1060.17 1090.64 1059.92 1089.96L1110.68 1073.25C1111.65 1076.21 1134.82 1146.88 1152.98 1229.49C1159.73 1260.14 1164.25 1297.97 1139.28 1319.1C1129.04 1327.74 1116.46 1331.58 1101.3 1331.58Z" fill="url(#paint10_linear)"/>
<path d="M879.931 1201.47L881.922 1193.5C881.922 1193.5 867.109 1194.67 861.864 1194.72C861.815 1194.72 861.767 1194.72 861.718 1194.72C861.621 1194.72 861.475 1194.72 861.378 1194.72C856.279 1194.77 851.373 1197.63 848.993 1202.54L778.716 1346.54C776.191 1351.69 778.765 1357.9 784.156 1359.75L809.702 1368.59C812.034 1369.42 814.608 1369.85 817.036 1369.66C819.416 1369.66 837.774 1368.49 837.774 1368.49C837.774 1368.49 918.008 1218.08 879.931 1201.47Z" fill="url(#paint11_radial)"/>
<path d="M869.148 1201.37L798.87 1345.37C796.345 1350.52 798.919 1356.74 804.31 1358.58L829.857 1367.42C834.325 1368.98 839.57 1369.17 843.358 1366.35C918.59 1310.06 981.096 1296.47 1019.8 1309.77C1026.12 1290.35 1029.28 1278.16 1033.31 1259.55C1005.62 1246.25 919.318 1208.61 887.215 1194.67C880.367 1191.71 872.402 1194.67 869.148 1201.37Z" fill="#522CD5"/>
<path d="M1173.62 1342.46C1153.66 1341.54 1128.55 1332.46 1087.61 1319.15L1097.17 1266.5C1153.03 1289.04 1171.09 1289.86 1176.53 1288.94C1177.31 1285.64 1178.38 1275.83 1173.08 1251.83C1155.5 1171.84 1132.48 1101.52 1132.24 1100.84L1182.99 1084.13C1183.96 1087.09 1207.13 1157.76 1225.29 1240.37C1232.05 1271.02 1236.56 1308.85 1211.6 1329.98C1201.3 1338.58 1188.77 1342.46 1173.62 1342.46Z" fill="url(#paint12_linear)"/>
<path d="M952.199 1212.35L954.19 1204.39C954.19 1204.39 939.377 1205.55 934.131 1205.6C934.083 1205.6 934.034 1205.6 933.986 1205.6C933.889 1205.6 933.743 1205.6 933.646 1205.6C928.546 1205.65 923.641 1208.51 921.261 1213.42L850.984 1357.42C848.458 1362.57 851.032 1368.79 856.423 1370.63L881.97 1379.47C884.301 1380.3 886.875 1380.73 889.304 1380.54C891.683 1380.54 910.042 1379.37 910.042 1379.37C910.042 1379.37 990.276 1228.91 952.199 1212.35Z" fill="url(#paint13_radial)"/>
<path d="M941.415 1212.2L871.138 1356.2C868.613 1361.35 871.187 1367.57 876.578 1369.41L902.124 1378.25C906.592 1379.81 911.838 1380 915.626 1377.19C990.857 1320.9 1053.36 1307.3 1092.07 1320.6C1098.39 1301.18 1101.54 1288.99 1105.57 1270.39C1077.89 1257.08 991.586 1219.44 959.483 1205.5C952.683 1202.54 944.718 1205.5 941.415 1212.2Z" fill="#522CD5"/>
<path d="M1493.29 737.209L1221.51 808.749C1215.68 810.303 1211.94 815.986 1212.86 821.96L1222.62 886.166C1223.55 892.14 1228.79 896.463 1234.81 896.171L1515.54 883.592C1522.53 883.301 1527.73 876.938 1526.66 870.042L1507.91 746.874C1506.94 739.929 1500.09 735.412 1493.29 737.209Z" fill="url(#paint14_radial)"/>
<path d="M1400.24 761.688L1221.51 808.75C1215.68 810.304 1211.94 815.987 1212.86 821.961L1222.62 886.167C1223.55 892.141 1228.79 896.463 1234.81 896.172L1419.42 887.915L1400.24 761.688Z" fill="url(#paint15_radial)"/>
<path d="M1295.72 943.769C1300.82 881.262 1282.41 835.317 1282.41 835.317L1296.5 832.84L1296.79 832.501C1257.45 726.38 1146.81 660.085 1031.37 680.338C901.254 703.116 814.269 827.061 837.047 957.174C859.825 1087.29 983.77 1174.27 1113.88 1151.49C1216.55 1133.52 1292.32 1052.51 1308.54 955.28C1308.78 951.2 1307.47 944.255 1295.72 943.769Z" fill="url(#paint16_radial)"/>
<path d="M1307.42 959.602C1307.42 959.602 1311.79 945.906 1295.13 945.178C1300.38 883.497 1282.65 837.843 1282.22 836.775L1195.47 854.745C1195.47 854.745 1179.79 855.813 1182.21 869.898C1184.64 883.983 1192.03 923.614 1199.6 967.616C1201.16 976.65 1209.32 979.758 1215.14 978.738L1308.49 959.651C1307.81 959.602 1307.42 959.602 1307.42 959.602Z" fill="white"/>
<path d="M1307.57 959.455C1307.57 959.455 1311.8 945.711 1295.09 945.176C1295.09 945.128 1295.09 945.031 1295.09 944.982L1212.62 963.195C1207.04 964.215 1199.22 962.224 1197.61 956.93C1198.34 960.815 1199.07 964.749 1199.8 968.683C1201.3 976.891 1208.2 980.097 1213.79 979.805C1214.32 979.757 1214.9 979.708 1215.49 979.611L1231.9 976.6L1308.59 959.455C1307.91 959.455 1307.57 959.455 1307.57 959.455Z" fill="url(#paint17_radial)"/>
<path d="M1295.82 1001.08L889.354 1070.82C901.155 1084.76 914.463 1097.24 928.985 1108.07L1270.9 1049.4C1281 1034.35 1289.36 1018.12 1295.82 1001.08Z" fill="#D8CFF7"/>
<path d="M941.371 703.942L982.507 682.96L955.164 643.621L925.635 658.677L941.371 703.942Z" fill="#8A6FE8"/>
<path d="M932.237 666.69C950.424 666.69 965.166 651.947 965.166 633.761C965.166 615.575 950.424 600.833 932.237 600.833C914.051 600.833 899.309 615.575 899.309 633.761C899.309 651.947 914.051 666.69 932.237 666.69Z" fill="#D8CFF7"/>
<path d="M938.746 737.794C936.901 738.716 934.569 737.891 933.841 735.948C926.07 715.307 934.861 691.654 955.016 681.407C975.123 671.159 999.456 677.91 1011.6 696.365C1012.76 698.114 1012.08 700.494 1010.24 701.416L938.746 737.794Z" fill="url(#paint18_radial)"/>
<path d="M1255.6 994.085L1287.51 989.034C1290.96 988.499 1294.21 990.831 1294.79 994.328L1304.07 1052.61C1304.6 1056.06 1302.27 1059.31 1298.78 1059.89L1266.87 1064.94C1263.42 1065.48 1260.16 1063.15 1259.58 1059.65L1250.31 1001.37C1249.77 997.922 1252.15 994.668 1255.6 994.085Z" fill="#512BD4"/>
<path d="M1264.44 1039.11C1264.15 1039.16 1263.81 1039.01 1263.56 1038.72C1263.27 1038.43 1263.13 1038.04 1263.03 1037.55C1262.93 1037.07 1262.98 1036.63 1263.17 1036.29C1263.32 1035.9 1263.56 1035.71 1263.9 1035.66C1264.24 1035.61 1264.53 1035.76 1264.78 1036.05C1265.07 1036.34 1265.21 1036.73 1265.31 1037.21C1265.41 1037.7 1265.36 1038.09 1265.17 1038.48C1265.02 1038.86 1264.78 1039.06 1264.44 1039.11Z" fill="white"/>
<path d="M1276.97 1036.82L1274.93 1037.16L1267.4 1024.49C1267.21 1024.15 1267.06 1023.81 1266.91 1023.47H1266.87C1266.96 1023.86 1267.11 1024.68 1267.35 1025.99L1269.25 1038.09L1267.45 1038.38L1264.54 1019.97L1266.72 1019.63L1274.01 1032.02C1274.3 1032.55 1274.49 1032.89 1274.59 1033.08H1274.64C1274.49 1032.6 1274.35 1031.77 1274.15 1030.61L1272.26 1018.76L1274.05 1018.46L1276.97 1036.82Z" fill="white"/>
<path d="M1285.76 1035.42L1279.45 1036.44L1276.53 1018.03L1282.6 1017.06L1282.99 1019.63L1278.77 1020.31L1279.59 1025.51L1283.48 1024.88L1283.86 1027.45L1279.98 1028.08L1280.85 1033.52L1285.32 1032.79L1285.76 1035.42Z" fill="white"/>
<path d="M1292.22 1018.17L1288.96 1018.71L1291.49 1034.54L1289.64 1034.83L1287.12 1019L1283.91 1019.53L1283.53 1016.96L1291.88 1015.65L1292.22 1018.17Z" fill="white"/>
<path d="M1281 919.29L1246.37 931.529C1242.49 932.889 1238.31 930.412 1237.68 926.332L1229.47 872.325C1228.84 868.245 1232.09 864.603 1236.22 864.748L1272.94 866.108C1276.1 866.205 1278.72 868.585 1279.2 871.693L1285.32 912.053C1285.81 915.21 1284.01 918.221 1281 919.29Z" fill="#605D5A"/>
<path d="M1550.79 775.531L1279.01 847.071C1273.18 848.625 1269.44 854.307 1270.36 860.281L1280.13 924.488C1281.05 930.461 1286.29 934.784 1292.32 934.492L1573.04 921.913C1580.03 921.622 1585.23 915.26 1584.16 908.363L1565.41 785.196C1564.39 778.251 1557.54 773.734 1550.79 775.531Z" fill="url(#paint19_radial)"/>
<path d="M1457.74 800.009L1279.01 847.071C1273.18 848.625 1269.44 854.308 1270.36 860.281L1280.13 924.488C1281.05 930.461 1286.29 934.784 1292.32 934.492L1476.92 926.236L1457.74 800.009Z" fill="url(#paint20_radial)"/>
<path d="M1354.58 975.483L1328.31 935.949C1286.88 963.487 1246.37 976.6 1207.96 974.9C1174.15 973.395 1141.03 960.427 1109.51 936.338L1080.66 974.075C1139.23 1018.85 1234.33 1055.43 1354.58 975.483Z" fill="url(#paint21_linear)"/>
<path d="M1345.6 926.818L1333.89 883.739C1330.69 872.277 1318.84 865.575 1307.37 868.78C1295.91 871.986 1289.21 883.836 1292.41 895.298L1304.41 939.446L1345.6 926.818Z" fill="#8A6FE8"/>
<path d="M1380.22 1015.84L1406.21 979.564C1413.06 969.851 1410.72 956.398 1401.01 949.55C1391.3 942.702 1377.84 945.033 1371 954.746L1344.38 991.949L1380.22 1015.84Z" fill="#8A6FE8"/>
<path d="M1355.02 997.729L1380.08 960.818C1386.69 950.91 1384.01 937.554 1374.16 930.949C1364.25 924.344 1350.89 927.015 1344.29 936.874L1318.59 974.757L1355.02 997.729Z" fill="#8A6FE8"/>
<path d="M1384.16 1038.38L1416.7 1007.88C1425.3 999.673 1425.68 986.074 1417.48 977.429C1409.27 968.833 1395.67 968.444 1387.02 976.652L1353.66 1007.93L1384.16 1038.38Z" fill="#8A6FE8"/>
<path d="M1345.35 1061.45C1370.25 1061.45 1390.42 1041.27 1390.42 1016.38C1390.42 991.487 1370.25 971.309 1345.35 971.309C1320.46 971.309 1300.28 991.487 1300.28 1016.38C1300.28 1041.27 1320.46 1061.45 1345.35 1061.45Z" fill="url(#paint22_radial)"/>
<path d="M1089.79 996.028C1114.04 996.028 1133.7 976.371 1133.7 952.122C1133.7 927.874 1114.04 908.217 1089.79 908.217C1065.54 908.217 1045.89 927.874 1045.89 952.122C1045.89 976.371 1065.54 996.028 1089.79 996.028Z" fill="url(#paint23_radial)"/>
<path d="M1572.15 81.5636C1576.04 81.5636 1579.2 78.4072 1579.2 74.5136C1579.2 70.62 1576.04 67.4636 1572.15 67.4636C1568.26 67.4636 1565.1 70.62 1565.1 74.5136C1565.1 78.4072 1568.26 81.5636 1572.15 81.5636Z" fill="#FDD696"/>
<path d="M4495.55 720.763C4499.44 720.763 4502.6 717.607 4502.6 713.713C4502.6 709.82 4499.44 706.664 4495.55 706.664C4491.66 706.664 4488.5 709.82 4488.5 713.713C4488.5 717.607 4491.66 720.763 4495.55 720.763Z" fill="#FDD696"/>
</g>
<defs>
<linearGradient id="paint0_linear" x1="2559.97" y1="1440" x2="2559.97" y2="0.00755304" gradientUnits="userSpaceOnUse">
<stop offset="0.2393" stop-color="#33D5F9"/>
<stop offset="0.6349" stop-color="#24BADB"/>
</linearGradient>
<radialGradient id="paint1_radial" cx="0" cy="0" r="1" gradientUnits="userSpaceOnUse" gradientTransform="translate(2155.37 4163.19) scale(6163.14 6159.98)">
<stop offset="0.4014" stop-color="#FEDBA1"/>
<stop offset="1" stop-color="#F9BE5C"/>
</radialGradient>
<linearGradient id="paint2_linear" x1="756.75" y1="2083.92" x2="756.75" y2="791.397" gradientUnits="userSpaceOnUse">
<stop offset="0.158" stop-color="#FCCF84"/>
<stop offset="0.2506" stop-color="#FBC873"/>
<stop offset="0.4466" stop-color="#F8BA54"/>
<stop offset="0.556" stop-color="#F7B548"/>
</linearGradient>
<linearGradient id="paint3_linear" x1="3510.24" y1="398.964" x2="3900.56" y2="398.964" gradientUnits="userSpaceOnUse">
<stop offset="0.3803" stop-color="#FDD696"/>
<stop offset="1" stop-color="#F9BE5C"/>
</linearGradient>
<radialGradient id="paint4_radial" cx="0" cy="0" r="1" gradientUnits="userSpaceOnUse" gradientTransform="translate(2516.64 996.862) scale(1385.87)">
<stop offset="0.2156" stop-color="#FAC670"/>
<stop offset="0.6321" stop-color="#FCD088"/>
<stop offset="0.9718" stop-color="#FDD696"/>
</radialGradient>
<linearGradient id="paint5_linear" x1="4263" y1="1284.28" x2="1680.99" y2="1284.28" gradientUnits="userSpaceOnUse">
<stop offset="0.2156" stop-color="#FAC670"/>
<stop offset="0.6321" stop-color="#FCD088"/>
<stop offset="0.9718" stop-color="#FDD696"/>
</linearGradient>
<linearGradient id="paint6_linear" x1="406.528" y1="819.622" x2="406.528" y2="970.013" gradientUnits="userSpaceOnUse">
<stop offset="0.0507" stop-color="white"/>
<stop offset="0.0537" stop-color="white"/>
<stop offset="0.4882" stop-color="#FEECCC"/>
<stop offset="0.8171" stop-color="#FEE0AD"/>
<stop offset="1" stop-color="#FEDBA1"/>
</linearGradient>
<radialGradient id="paint7_radial" cx="0" cy="0" r="1" gradientUnits="userSpaceOnUse" gradientTransform="translate(397.925 479.029) scale(415.541 414.182)">
<stop offset="0.0507" stop-color="white"/>
<stop offset="0.0537" stop-color="white"/>
<stop offset="0.4882" stop-color="#FEECCC"/>
<stop offset="0.8171" stop-color="#FEE0AD"/>
<stop offset="1" stop-color="#FEDBA1"/>
</radialGradient>
<linearGradient id="paint8_linear" x1="3130.2" y1="-651.636" x2="2577.95" y2="206.114" gradientUnits="userSpaceOnUse">
<stop offset="0.230111" stop-color="#FDD696" stop-opacity="0"/>
<stop offset="0.555517" stop-color="#F9BE5C"/>
</linearGradient>
<linearGradient id="paint9_linear" x1="2326.24" y1="-43.0548" x2="3326.21" y2="-43.0548" gradientUnits="userSpaceOnUse">
<stop offset="0.3803" stop-color="#FDD696"/>
<stop offset="1" stop-color="#F9BE5C"/>
</linearGradient>
<linearGradient id="paint10_linear" x1="1018.59" y1="1113.85" x2="1138.03" y2="1320.73" gradientUnits="userSpaceOnUse">
<stop offset="0.227" stop-color="#522CD5"/>
<stop offset="0.5013" stop-color="#8A6FE8"/>
</linearGradient>
<radialGradient id="paint11_radial" cx="0" cy="0" r="1" gradientUnits="userSpaceOnUse" gradientTransform="translate(798.406 1421.6) scale(119.905 119.905)">
<stop offset="0.034" stop-color="#522CD5"/>
<stop offset="0.9955" stop-color="#8A6FE8"/>
</radialGradient>
<linearGradient id="paint12_linear" x1="1090.87" y1="1124.69" x2="1210.32" y2="1331.57" gradientUnits="userSpaceOnUse">
<stop offset="0.1164" stop-color="#522CD5"/>
<stop offset="0.4102" stop-color="#8A6FE8"/>
</linearGradient>
<radialGradient id="paint13_radial" cx="0" cy="0" r="1" gradientUnits="userSpaceOnUse" gradientTransform="translate(870.692 1432.45) scale(119.905 119.905)">
<stop offset="0.034" stop-color="#522CD5"/>
<stop offset="0.9955" stop-color="#8A6FE8"/>
</radialGradient>
<radialGradient id="paint14_radial" cx="0" cy="0" r="1" gradientUnits="userSpaceOnUse" gradientTransform="translate(1409.38 619.207) scale(198.266 198.266)">
<stop offset="0.7353" stop-color="#B3AFAB"/>
<stop offset="1" stop-color="#797673"/>
</radialGradient>
<radialGradient id="paint15_radial" cx="0" cy="0" r="1" gradientUnits="userSpaceOnUse" gradientTransform="translate(1344.45 708.71) scale(145.477)">
<stop offset="0.4961" stop-color="#797673"/>
<stop offset="1" stop-color="#797673"/>
</radialGradient>
<radialGradient id="paint16_radial" cx="0" cy="0" r="1" gradientUnits="userSpaceOnUse" gradientTransform="translate(1051.6 730.214) rotate(-4.03704) scale(344.164 344.165)">
<stop offset="0.186" stop-color="#A08BE8"/>
<stop offset="0.684" stop-color="#8065E0"/>
<stop offset="0.8157" stop-color="#8065E0"/>
</radialGradient>
<radialGradient id="paint17_radial" cx="0" cy="0" r="1" gradientUnits="userSpaceOnUse" gradientTransform="translate(1225.99 958.534) rotate(-4.49669) scale(97.2561 97.2559)">
<stop stop-color="#512BD4"/>
<stop offset="0.0463" stop-color="#6645D9"/>
<stop offset="0.4202" stop-color="#7659DD"/>
<stop offset="0.7291" stop-color="#8065E0"/>
</radialGradient>
<radialGradient id="paint18_radial" cx="0" cy="0" r="1" gradientUnits="userSpaceOnUse" gradientTransform="translate(971.821 692.094) rotate(4.81835) scale(36.1419)">
<stop stop-color="#8065E0"/>
<stop offset="1" stop-color="#512BD4"/>
</radialGradient>
<radialGradient id="paint19_radial" cx="0" cy="0" r="1" gradientUnits="userSpaceOnUse" gradientTransform="translate(1466.87 657.52) scale(198.266 198.266)">
<stop offset="0.7353" stop-color="#B3AFAB"/>
<stop offset="1" stop-color="#797673"/>
</radialGradient>
<radialGradient id="paint20_radial" cx="0" cy="0" r="1" gradientUnits="userSpaceOnUse" gradientTransform="translate(1401.94 747.021) scale(145.477 145.476)">
<stop offset="0.4961" stop-color="#797673"/>
<stop offset="1" stop-color="#797673"/>
</radialGradient>
<linearGradient id="paint21_linear" x1="1119.31" y1="907.121" x2="1325.37" y2="1026.09" gradientUnits="userSpaceOnUse">
<stop offset="0.2495" stop-color="#967FE6"/>
<stop offset="0.5327" stop-color="#8A70E8"/>
<stop offset="1" stop-color="#8A6FE8"/>
</linearGradient>
<radialGradient id="paint22_radial" cx="0" cy="0" r="1" gradientUnits="userSpaceOnUse" gradientTransform="translate(1336.74 991.746) scale(73.731)">
<stop stop-color="#8065E0"/>
<stop offset="1" stop-color="#512BD4"/>
</radialGradient>
<radialGradient id="paint23_radial" cx="0" cy="0" r="1" gradientUnits="userSpaceOnUse" gradientTransform="translate(1095.83 933.512) rotate(-3.8358) scale(58.4147)">
<stop stop-color="#8065E0"/>
<stop offset="1" stop-color="#512BD4"/>
</radialGradient>
<clipPath id="clip0">
<rect width="5120" height="1440" fill="white"/>
</clipPath>
</defs>
</svg>
