<svg width="1920" height="1080" viewBox="0 0 1920 1080" fill="none" xmlns="http://www.w3.org/2000/svg">
<g clip-path="url(#clip0_355:72289)">
<rect width="1920" height="1080" fill="white"/>
<rect width="1920" height="1080" fill="#3D2876"/>
<path d="M838.878 119.902C846.549 115.832 855.05 112.554 864.06 110.237C874.519 107.562 970.778 84.4088 1092.53 109.308C1207.13 133.076 1366.32 204.615 1476.11 411.559C1505.85 467.62 1484.6 537.189 1428.66 566.864C1372.73 596.539 1303.21 575.129 1273.46 519.068C1219.08 416.557 1142.71 354.444 1046.68 334.785C978.146 320.649 922.914 333.12 922.424 332.969C860.8 348.832 798.177 311.857 782.39 250.446C767.954 197.759 792.851 144.32 838.878 119.902Z" fill="#D1CFFA" fill-opacity="0.2"/>
<path d="M1071.36 938.78C1064.57 943.281 1056.93 947.119 1048.73 950.106C1039.2 953.559 951.407 983.968 835.418 971.822C726.214 960.08 570.999 907.789 449.57 724.52C416.676 674.873 430.179 607.956 479.715 575.135C529.251 542.314 596.138 555.967 629.033 605.614C689.183 696.397 766.18 747.442 857.671 757.04C922.967 763.99 973.417 747.302 973.888 747.398C1030 726.959 1091.86 755.779 1112.21 811.697C1130.5 859.589 1112.13 911.773 1071.36 938.78Z" fill="#D1CFFA" fill-opacity="0.2"/>
<path d="M1053.04 526.121C986.169 456.892 987.946 346.069 1057.02 279.052C1126.09 212.035 1236.67 213.816 1303.54 283.045C1370.4 352.274 1368.63 463.097 1299.55 530.114C1230.48 597.13 1119.9 595.349 1053.04 526.121Z" fill="url(#paint0_linear_355:72289)" fill-opacity="0.4"/>
<path d="M588.612 938.18C556.351 904.779 557.208 851.31 590.534 818.976C623.861 786.642 677.211 787.501 709.472 820.902C741.734 854.303 740.876 907.773 707.55 940.107C674.224 972.441 620.874 971.581 588.612 938.18Z" fill="url(#paint1_linear_355:72289)" fill-opacity="0.8"/>
<path d="M930.502 795.145C924.916 795.145 919.097 794.445 913.278 793.045C906.527 791.412 844.843 775.549 783.16 724.691C725.2 676.867 656.301 587.983 656.301 437.277C656.301 396.451 689.354 363.324 730.088 363.324C770.823 363.324 803.876 396.451 803.876 437.277C803.876 511.93 828.55 570.253 877.198 610.379C911.881 639.074 947.029 648.639 947.262 648.872C987.065 658.437 1011.51 698.329 1001.96 737.989C994.048 772.283 963.788 795.145 930.502 795.145Z" fill="url(#paint2_linear_355:72289)"/>
<path d="M982.332 363.324C988.295 363.324 994.508 364.071 1000.72 365.566C1007.93 367.309 1073.78 384.244 1139.63 438.537C1201.5 489.842 1275.06 584.481 1275.06 745.367C1275.06 788.951 1239.77 824.316 1196.28 824.316C1152.8 824.316 1117.51 788.951 1117.51 745.367C1117.51 665.671 1091.17 603.409 1039.24 560.572C1002.21 529.939 964.689 519.728 964.44 519.479C921.948 509.268 895.856 466.68 906.044 424.341C914.244 387.731 946.549 363.324 982.332 363.324Z" fill="url(#paint3_linear_355:72289)"/>
<path d="M979.964 729.366C1062.7 729.366 1129.76 662.149 1129.76 579.232C1129.76 496.315 1062.7 429.098 979.964 429.098C897.233 429.098 830.166 496.315 830.166 579.232C830.166 662.149 897.233 729.366 979.964 729.366Z" fill="url(#paint4_linear_355:72289)" fill-opacity="0.8"/>
</g>
<defs>
<linearGradient id="paint0_linear_355:72289" x1="1065.39" y1="545.628" x2="1083.14" y2="253.605" gradientUnits="userSpaceOnUse">
<stop stop-color="#9A95EE" stop-opacity="0.2"/>
<stop offset="1" stop-color="#C0BDF7" stop-opacity="0.8"/>
</linearGradient>
<linearGradient id="paint1_linear_355:72289" x1="594.574" y1="947.592" x2="603.137" y2="806.698" gradientUnits="userSpaceOnUse">
<stop stop-color="#9A95EE" stop-opacity="0.2"/>
<stop offset="1" stop-color="#C0BDF7" stop-opacity="0.8"/>
</linearGradient>
<linearGradient id="paint2_linear_355:72289" x1="1108.17" y1="881.131" x2="714.069" y2="482.104" gradientUnits="userSpaceOnUse">
<stop stop-color="#56369A" stop-opacity="0.8"/>
<stop offset="1" stop-color="#C2A2E9" stop-opacity="0.8"/>
</linearGradient>
<linearGradient id="paint3_linear_355:72289" x1="880.763" y1="232.844" x2="1160.87" y2="798.201" gradientUnits="userSpaceOnUse">
<stop stop-color="#553890" stop-opacity="0.8"/>
<stop offset="1" stop-color="#BCD6FE" stop-opacity="0.8"/>
</linearGradient>
<linearGradient id="paint4_linear_355:72289" x1="1005.25" y1="528.902" x2="872.347" y2="673.321" gradientUnits="userSpaceOnUse">
<stop stop-color="#AF94DE"/>
<stop offset="1" stop-color="#66B7ED"/>
</linearGradient>
<clipPath id="clip0_355:72289">
<rect width="1920" height="1080" fill="white"/>
</clipPath>
</defs>
</svg>
