<svg width="1920" height="1080" viewBox="0 0 1920 1080" fill="none" xmlns="http://www.w3.org/2000/svg">
<g clip-path="url(#clip0_355:72279)">
<rect width="1920" height="1080" fill="white"/>
<rect width="1920" height="1080" fill="#E1DFFC"/>
<path d="M838.894 119.972C846.565 115.903 855.065 112.624 864.076 110.307C874.535 107.632 970.794 84.4791 1092.55 109.378C1207.14 133.146 1366.34 204.685 1476.13 411.63C1505.87 467.69 1484.61 537.259 1428.68 566.934C1372.74 596.609 1303.22 575.199 1273.48 519.138C1219.09 416.627 1142.73 354.515 1046.69 334.856C978.162 320.719 922.93 333.19 922.44 333.039C860.815 348.902 798.192 311.928 782.405 250.516C767.97 197.829 792.867 144.391 838.894 119.972Z" fill="#D1CFFA"/>
<path d="M1071.38 938.851C1064.59 943.352 1056.95 947.189 1048.74 950.176C1039.22 953.629 951.423 984.038 835.434 971.892C726.229 960.15 571.014 907.859 449.586 724.59C416.691 674.943 430.195 608.026 479.731 575.205C529.267 542.384 596.154 556.037 629.048 605.684C689.198 696.468 766.196 747.512 857.686 757.11C922.983 764.061 973.432 747.372 973.903 747.468C1030.01 727.029 1091.88 755.849 1112.23 811.767C1130.52 859.66 1112.14 911.843 1071.38 938.851Z" fill="#D1CFFA" fill-opacity="0.8"/>
<path d="M1053.05 526.191C986.185 456.962 987.962 346.139 1057.04 279.122C1126.11 212.106 1236.68 213.887 1303.55 283.115C1370.42 352.344 1368.64 463.167 1299.57 530.184C1230.49 597.201 1119.92 595.42 1053.05 526.191Z" fill="url(#paint0_linear_355:72279)" fill-opacity="0.4"/>
<path d="M588.628 938.25C556.366 904.849 557.224 851.38 590.55 819.046C623.876 786.712 677.226 787.571 709.488 820.973C741.749 854.374 740.892 907.843 707.566 940.177C674.239 972.511 620.889 971.652 588.628 938.25Z" fill="url(#paint1_linear_355:72279)" fill-opacity="0.8"/>
<path d="M930.518 795.215C924.932 795.215 919.112 794.515 913.293 793.116C906.543 791.483 844.859 775.619 783.175 724.762C725.216 676.937 656.316 588.053 656.316 437.348C656.316 396.522 689.37 363.395 730.104 363.395C770.839 363.395 803.892 396.522 803.892 437.348C803.892 512.001 828.565 570.323 877.214 610.449C911.897 639.144 947.045 648.709 947.277 648.942C987.081 658.507 1011.52 698.4 1001.98 738.059C994.064 772.353 963.804 795.215 930.518 795.215Z" fill="url(#paint2_linear_355:72279)"/>
<path d="M982.347 363.395C988.311 363.395 994.523 364.142 1000.74 365.636C1007.94 367.379 1073.79 384.315 1139.64 438.608C1201.52 489.912 1275.07 584.551 1275.07 745.437C1275.07 789.021 1239.79 824.386 1196.3 824.386C1152.81 824.386 1117.53 789.021 1117.53 745.437C1117.53 665.741 1091.19 603.479 1039.25 560.642C1002.23 530.009 964.704 519.798 964.456 519.549C921.963 509.338 895.872 466.75 906.06 424.412C914.26 387.801 946.564 363.395 982.347 363.395Z" fill="url(#paint3_linear_355:72279)"/>
<path d="M979.98 729.436C1062.71 729.436 1129.78 662.219 1129.78 579.302C1129.78 496.385 1062.71 429.168 979.98 429.168C897.249 429.168 830.182 496.385 830.182 579.302C830.182 662.219 897.249 729.436 979.98 729.436Z" fill="url(#paint4_linear_355:72279)" fill-opacity="0.8"/>
</g>
<defs>
<linearGradient id="paint0_linear_355:72279" x1="1065.41" y1="545.699" x2="1083.16" y2="253.676" gradientUnits="userSpaceOnUse">
<stop stop-color="#9A95EE" stop-opacity="0.2"/>
<stop offset="1" stop-color="#C0BDF7" stop-opacity="0.8"/>
</linearGradient>
<linearGradient id="paint1_linear_355:72279" x1="594.59" y1="947.662" x2="603.153" y2="806.769" gradientUnits="userSpaceOnUse">
<stop stop-color="#9A95EE" stop-opacity="0.2"/>
<stop offset="1" stop-color="#C0BDF7" stop-opacity="0.8"/>
</linearGradient>
<linearGradient id="paint2_linear_355:72279" x1="932.386" y1="714.507" x2="699.367" y2="495.355" gradientUnits="userSpaceOnUse">
<stop stop-color="#9F84D8" stop-opacity="0.8"/>
<stop offset="1" stop-color="#C2A2E9" stop-opacity="0.4"/>
</linearGradient>
<linearGradient id="paint3_linear_355:72279" x1="1051.79" y1="509.058" x2="1207.51" y2="778.664" gradientUnits="userSpaceOnUse">
<stop stop-color="#A083DA" stop-opacity="0.8"/>
<stop offset="1" stop-color="#BCD6FE" stop-opacity="0.4"/>
</linearGradient>
<linearGradient id="paint4_linear_355:72279" x1="1070.96" y1="458.11" x2="927.963" y2="647.874" gradientUnits="userSpaceOnUse">
<stop stop-color="#D7C0FF"/>
<stop offset="1" stop-color="#CAD2FF"/>
</linearGradient>
<clipPath id="clip0_355:72279">
<rect width="1920" height="1080" fill="white"/>
</clipPath>
</defs>
</svg>
