<svg width="1920" height="1080" viewBox="0 0 1920 1080" fill="none" xmlns="http://www.w3.org/2000/svg">
<g clip-path="url(#clip0_355:72188)">
<rect width="1920" height="1080" fill="white"/>
<rect width="1920" height="1080" fill="url(#paint0_linear_355:72188)"/>
<path d="M895.652 767.564C915.779 754.21 902.307 695.658 883.288 680.933C872.083 672.24 862.373 661.777 854.54 649.955C835.418 621.114 828.531 585.858 835.394 551.934C842.257 518.011 862.307 488.194 891.139 469.036C905.423 459.549 921.436 452.969 938.263 449.673C955.09 446.377 972.401 446.429 989.205 449.827C1006.01 453.224 1021.98 459.901 1036.2 469.475C1050.42 479.048 1062.61 491.331 1072.08 505.621C1080.14 517.739 1086.11 531.125 1089.73 545.222C1095.73 568.511 1143.59 603.193 1163.62 589.899L1288.56 507.006C1292.31 504.573 1295.2 501.012 1296.8 496.835C1298.4 492.659 1298.63 488.082 1297.46 483.766C1287.67 449.003 1272.49 415.989 1252.49 385.919C1227.3 347.954 1194.87 315.325 1157.06 289.898C1119.25 264.471 1076.8 246.744 1032.13 237.729C987.463 228.714 941.452 228.588 896.728 237.359C852.004 246.13 809.444 263.625 771.479 288.846C733.52 314.028 700.893 346.441 675.463 384.232C650.033 422.023 632.298 464.452 623.273 509.094C614.247 553.735 614.107 599.715 622.862 644.405C631.616 689.095 649.092 731.619 674.292 769.548C694.244 799.641 718.765 826.441 746.971 848.984C750.498 851.743 754.81 853.31 759.286 853.46C763.762 853.61 768.171 852.336 771.876 849.82L895.652 767.564Z" fill="url(#paint1_linear_355:72188)" fill-opacity="0.4"/>
<path d="M967.944 351.34C937.704 351.331 907.759 357.28 879.82 368.848C851.881 380.416 826.494 397.376 805.112 418.758C783.729 440.141 766.77 465.527 755.202 493.466C743.634 521.406 737.685 551.35 737.694 581.59C737.688 611.828 743.639 641.772 755.208 669.71C766.777 697.648 783.737 723.033 805.119 744.415C826.501 765.796 851.885 782.756 879.823 794.325C907.761 805.894 937.705 811.846 967.944 811.84C998.179 811.84 1028.12 805.884 1056.05 794.312C1083.99 782.741 1109.37 765.781 1130.75 744.4C1152.13 723.019 1169.08 697.636 1180.65 669.701C1192.22 641.766 1198.17 611.825 1198.17 581.59C1198.18 551.353 1192.23 521.412 1180.66 493.475C1169.09 465.539 1152.13 440.155 1130.75 418.773C1109.37 397.391 1083.99 380.431 1056.06 368.861C1028.12 357.291 998.18 351.337 967.944 351.34V351.34ZM967.944 668.177C944.979 668.171 922.956 659.047 906.716 642.811C890.475 626.575 881.345 604.554 881.333 581.59C881.345 558.623 890.475 536.6 906.715 520.36C922.955 504.12 944.977 494.992 967.944 494.979C990.908 494.992 1012.93 504.121 1029.16 520.362C1045.4 536.602 1054.52 558.625 1054.53 581.59C1054.52 604.552 1045.4 626.573 1029.16 642.81C1012.93 659.047 990.906 668.171 967.944 668.177V668.177Z" fill="url(#paint2_linear_355:72188)"/>
<path d="M834.301 814.647L892.305 707.759C893.596 705.502 895.661 703.788 898.117 702.935C900.574 702.082 903.256 702.148 905.669 703.119C927.412 712.932 951.283 717.09 975.064 715.207C977.704 714.966 980.337 715.735 982.434 717.358C984.53 718.981 985.934 721.337 986.363 723.953L1004.92 844.206C1005.13 845.576 1005.06 846.974 1004.71 848.317C1004.37 849.66 1003.76 850.92 1002.92 852.023C1002.08 853.126 1001.03 854.05 999.828 854.74C998.626 855.429 997.298 855.871 995.922 856.039C942.159 862.183 887.762 852.762 839.197 828.893C837.886 828.343 836.705 827.521 835.733 826.483C834.762 825.444 834.02 824.212 833.558 822.867C833.096 821.522 832.923 820.094 833.051 818.678C833.179 817.261 833.605 815.888 834.301 814.647Z" fill="url(#paint3_linear_355:72188)" fill-opacity="0.8"/>
<path d="M1154.18 334.495C1117.71 344.268 1108.53 437.741 1129.39 469.028C1141.67 487.486 1150.85 507.824 1156.57 529.241C1170.56 581.497 1163.22 637.17 1136.16 684.026C1109.11 730.883 1064.56 765.089 1012.3 779.13C986.408 786.081 959.404 787.862 932.828 784.373C906.251 780.883 880.625 772.19 857.413 758.792C834.202 745.394 813.86 727.552 797.552 706.288C781.244 685.024 769.29 660.754 762.372 634.866C756.455 612.897 754.272 590.089 755.913 567.395C758.624 529.9 704.959 454.686 668.653 464.414L442.258 525.077C435.484 526.814 429.437 530.656 424.988 536.049C420.538 541.442 417.915 548.108 417.498 555.086C414.713 611.475 420.769 667.951 435.445 722.466C453.879 791.264 485.693 855.754 529.069 912.251C572.445 968.749 626.533 1016.15 688.243 1051.74C749.952 1087.33 818.074 1110.41 888.715 1119.67C959.357 1128.93 1031.13 1124.19 1099.95 1105.71C1168.73 1087.28 1233.21 1055.49 1289.7 1012.14C1346.2 968.791 1393.59 914.742 1429.18 853.079C1464.78 791.417 1487.87 723.349 1497.14 652.766C1506.4 582.183 1501.67 510.469 1483.2 441.721C1468.61 387.196 1445.61 335.277 1415.03 287.834C1411.18 281.99 1405.57 277.522 1399.01 275.072C1392.45 272.622 1385.28 272.317 1378.54 274.2L1154.18 334.495Z" fill="url(#paint4_linear_355:72188)" fill-opacity="0.4"/>
<path d="M533.57 636.16C578.286 661.879 677.315 580.285 687.308 529.897C693.229 500.194 703.96 471.659 719.076 445.416C755.945 381.366 816.742 334.577 888.108 315.33C959.475 296.083 1035.57 305.953 1099.68 342.771C1131.44 361.013 1159.28 385.334 1181.63 414.342C1203.98 443.35 1220.4 476.477 1229.93 511.828C1239.47 547.178 1241.95 584.06 1237.22 620.363C1232.49 656.666 1220.65 691.679 1202.38 723.4C1186.91 750.365 1167.03 774.539 1143.55 794.915C1104.77 828.58 1084.15 953.114 1128.66 978.717L1406.23 1138.37C1414.46 1143.22 1424.02 1145.33 1433.52 1144.41C1443.03 1143.48 1452 1139.56 1459.13 1133.21C1516.21 1081.33 1564.82 1020.85 1603.19 953.944C1651.71 869.597 1683.12 776.513 1695.64 680.013C1708.16 583.512 1701.54 485.485 1676.15 391.532C1650.77 297.58 1607.12 209.543 1547.7 132.452C1488.28 55.3617 1414.25 -9.27239 1329.84 -57.7564C1245.52 -106.267 1152.46 -137.691 1055.99 -150.233C959.523 -162.775 861.534 -156.188 767.625 -130.85C673.715 -105.512 585.725 -61.9197 508.683 -2.56279C431.642 56.7941 367.058 130.751 318.623 215.083C280.155 281.913 252.336 354.331 236.168 429.731C234.261 439.101 235.38 448.836 239.362 457.531C243.345 466.227 249.986 473.435 258.328 478.116L533.57 636.16Z" fill="url(#paint5_linear_355:72188)" fill-opacity="0.2"/>
<path d="M1217.73 446.673C1230.76 472.543 1239.68 500.283 1244.18 528.898C1244.41 530.293 1244.34 531.72 1243.99 533.09C1243.64 534.459 1243.01 535.741 1242.14 536.853C1241.26 537.966 1240.17 538.885 1238.92 539.552C1237.68 540.22 1236.31 540.621 1234.9 540.731L1113.85 554.071C1111.28 554.4 1108.68 553.733 1106.58 552.207C1104.48 550.68 1103.04 548.409 1102.56 545.858C1100.12 533.467 1096.06 521.453 1090.47 510.128C1079.37 487.96 1062.62 469.113 1041.91 455.49C1021.2 441.867 997.262 433.952 972.512 432.543C969.899 432.404 967.43 431.303 965.58 429.452C963.729 427.602 962.629 425.133 962.489 422.52L959.404 300.968C959.385 299.566 959.644 298.174 960.165 296.872C960.686 295.569 961.46 294.383 962.44 293.381C963.421 292.378 964.591 291.58 965.881 291.03C967.171 290.481 968.557 290.192 969.96 290.18C1021.6 291.188 1071.99 306.303 1115.66 333.886C1159.33 361.47 1194.63 400.472 1217.73 446.673V446.673Z" fill="url(#paint6_linear_355:72188)" fill-opacity="0.8"/>
<path d="M1069.96 826.985L1021.84 715.457C1021.29 714.244 1020.99 712.934 1020.95 711.603C1020.92 710.273 1021.14 708.948 1021.62 707.705C1022.09 706.462 1022.81 705.326 1023.73 704.363C1024.65 703.4 1025.75 702.628 1026.97 702.093C1046.45 692.391 1063.4 678.28 1076.47 660.881C1089.55 643.482 1098.38 623.275 1102.28 601.863C1102.76 599.271 1104.17 596.945 1106.26 595.334C1108.34 593.724 1110.95 592.942 1113.58 593.139L1234.88 604.183C1236.29 604.312 1237.66 604.724 1238.91 605.394C1240.15 606.063 1241.26 606.978 1242.14 608.082C1243.03 609.186 1243.69 610.457 1244.07 611.82C1244.46 613.184 1244.57 614.61 1244.39 616.016C1237.96 661.357 1220.62 704.459 1193.85 741.613C1167.08 778.767 1131.68 808.861 1090.7 829.306C1088.38 830.326 1086.06 831.626 1083.74 832.647C1081.16 833.711 1078.27 833.714 1075.69 832.653C1073.11 831.593 1071.05 829.556 1069.96 826.985V826.985Z" fill="url(#paint7_linear_355:72188)" fill-opacity="0.8"/>
</g>
<defs>
<linearGradient id="paint0_linear_355:72188" x1="455.299" y1="1080" x2="447.299" y2="-416" gradientUnits="userSpaceOnUse">
<stop offset="0.438891" stop-color="#E8E7FB"/>
<stop offset="0.936231" stop-color="#CCCAFA"/>
</linearGradient>
<linearGradient id="paint1_linear_355:72188" x1="786.003" y1="363.718" x2="994.061" y2="614.947" gradientUnits="userSpaceOnUse">
<stop stop-color="#BCA8F8"/>
<stop offset="1" stop-color="#28AFEA" stop-opacity="0.6"/>
</linearGradient>
<linearGradient id="paint2_linear_355:72188" x1="1056.11" y1="476.673" x2="907.829" y2="653.096" gradientUnits="userSpaceOnUse">
<stop stop-color="#7C64CD" stop-opacity="0.8"/>
<stop offset="1" stop-color="#CCAFEF"/>
</linearGradient>
<linearGradient id="paint3_linear_355:72188" x1="919.024" y1="844.004" x2="941.256" y2="702.34" gradientUnits="userSpaceOnUse">
<stop stop-color="#AF94DE"/>
<stop offset="1" stop-color="#BCE4FF"/>
</linearGradient>
<linearGradient id="paint4_linear_355:72188" x1="1115.68" y1="987.525" x2="932.393" y2="511.683" gradientUnits="userSpaceOnUse">
<stop stop-color="#BCA8F8"/>
<stop offset="1" stop-color="#28AFEA" stop-opacity="0.6"/>
</linearGradient>
<linearGradient id="paint5_linear_355:72188" x1="1200.63" y1="41.415" x2="919.059" y2="678.615" gradientUnits="userSpaceOnUse">
<stop stop-color="#BCA8F8"/>
<stop offset="1" stop-color="#28AFEA" stop-opacity="0.6"/>
</linearGradient>
<linearGradient id="paint6_linear_355:72188" x1="1077.26" y1="504.002" x2="1102.7" y2="326.122" gradientUnits="userSpaceOnUse">
<stop stop-color="#AF94DE"/>
<stop offset="1" stop-color="#BCE4FF"/>
</linearGradient>
<linearGradient id="paint7_linear_355:72188" x1="1132.71" y1="786" x2="1186.96" y2="555.816" gradientUnits="userSpaceOnUse">
<stop stop-color="#AF94DE"/>
<stop offset="1" stop-color="#BCE4FF"/>
</linearGradient>
<clipPath id="clip0_355:72188">
<rect width="1920" height="1080" fill="white"/>
</clipPath>
</defs>
</svg>
