<svg width="1920" height="1080" viewBox="0 0 1920 1080" fill="none" xmlns="http://www.w3.org/2000/svg">
<g clip-path="url(#clip0_355:72199)">
<rect width="1920" height="1080" fill="white"/>
<rect width="1920" height="1080" fill="#E1DFFC"/>
<rect x="954.385" y="270.793" width="484.117" height="335.578" rx="20" fill="url(#paint0_linear_355:72199)"/>
<rect x="343.051" y="164.418" width="577.24" height="400.129" rx="20" fill="url(#paint1_linear_355:72199)" fill-opacity="0.6"/>
<path d="M741.658 551.839C741.658 630.552 716.217 702.602 674.228 758.614C664.348 771.692 673.487 790.198 689.788 790.198H957.782C1016.07 730.978 1052.38 646.097 1052.38 551.592C1052.38 470.165 1025.21 395.894 980.258 338.895L707.325 339.141C692.011 339.141 682.378 356.167 690.529 369.245C722.639 421.309 741.658 484.23 741.658 551.839Z" fill="url(#paint2_linear_355:72199)"/>
<path d="M1173.77 641.41C1173.77 562.697 1199.21 490.647 1241.2 434.635C1251.08 421.557 1241.94 403.051 1225.64 403.051H957.399C899.355 462.27 862.799 547.152 862.799 641.41C862.799 722.837 889.969 797.109 934.922 854.108H1207.86C1223.42 854.108 1232.8 837.082 1224.65 824.004C1192.54 772.187 1173.77 709.266 1173.77 641.41Z" fill="url(#paint3_linear_355:72199)" fill-opacity="0.8"/>
<path d="M523.734 850.405C466.109 790.939 467.64 695.743 527.167 638.177C586.693 580.61 681.985 582.14 739.61 641.606C797.235 701.073 795.703 796.268 736.177 853.835C676.65 911.401 581.358 909.872 523.734 850.405Z" fill="url(#paint4_linear_355:72199)"/>
<path d="M1354.65 138.618C1354.65 412.234 1266.21 662.691 1120.25 857.395C1085.91 902.855 1117.68 967.184 1174.34 967.184H2105.92C2308.55 761.33 2434.76 466.271 2434.76 137.761C2434.76 -145.29 2340.32 -403.466 2184.05 -601.602L1235.3 -600.744C1182.07 -600.744 1148.58 -541.561 1176.92 -496.101C1288.54 -315.12 1354.65 -96.3994 1354.65 138.618Z" fill="url(#paint5_linear_355:72199)" fill-opacity="0.2"/>
</g>
<defs>
<linearGradient id="paint0_linear_355:72199" x1="1413" y1="0.00187728" x2="866.361" y2="288.046" gradientUnits="userSpaceOnUse">
<stop stop-color="#AA87E7"/>
<stop offset="1" stop-color="#B9DFF8" stop-opacity="0.2"/>
</linearGradient>
<linearGradient id="paint1_linear_355:72199" x1="213" y1="428.002" x2="801.168" y2="742.008" gradientUnits="userSpaceOnUse">
<stop stop-color="#87A2E7"/>
<stop offset="1" stop-color="#B9DFF8" stop-opacity="0.2"/>
</linearGradient>
<linearGradient id="paint2_linear_355:72199" x1="1052.38" y1="492.851" x2="659.493" y2="586.256" gradientUnits="userSpaceOnUse">
<stop stop-color="#391F6E" stop-opacity="0.8"/>
<stop offset="1" stop-color="#81CAFB"/>
</linearGradient>
<linearGradient id="paint3_linear_355:72199" x1="1140.78" y1="712.14" x2="893.901" y2="537.667" gradientUnits="userSpaceOnUse">
<stop stop-color="#BEA6E6"/>
<stop offset="1" stop-color="#66B7ED"/>
</linearGradient>
<linearGradient id="paint4_linear_355:72199" x1="277.001" y1="1312" x2="770.402" y2="1319.07" gradientUnits="userSpaceOnUse">
<stop stop-color="#AA87E7"/>
<stop offset="1" stop-color="#B9DFF8" stop-opacity="0.2"/>
</linearGradient>
<linearGradient id="paint5_linear_355:72199" x1="1253" y1="804" x2="1793" y2="-148" gradientUnits="userSpaceOnUse">
<stop stop-color="#B8A3E5"/>
<stop offset="1" stop-color="#B8A3E5" stop-opacity="0"/>
</linearGradient>
<clipPath id="clip0_355:72199">
<rect width="1920" height="1080" fill="white"/>
</clipPath>
</defs>
</svg>
