<svg width="1920" height="1080" viewBox="0 0 1920 1080" fill="none" xmlns="http://www.w3.org/2000/svg">
<rect width="1920" height="1080" fill="#D3D5FB"/>
<path d="M1554.26 877.841H1092.24C1064.22 877.841 1041.49 855.112 1041.49 827.086V577.344C1041.49 549.318 1064.22 526.59 1092.24 526.59H1554.26C1582.29 526.59 1605.02 549.318 1605.02 577.344V827.086C1605.02 855.112 1582.29 877.841 1554.26 877.841Z" fill="url(#paint0_linear_355:72133)"/>
<path d="M982.741 629.318H447.95C415.51 629.318 389.201 603.01 389.201 570.57V281.491C389.201 249.051 415.51 222.742 447.95 222.742H982.741C1015.18 222.742 1041.49 249.051 1041.49 281.491V570.57C1041.49 603.01 1015.18 629.318 982.741 629.318Z" fill="url(#paint1_linear_355:72133)" fill-opacity="0.4"/>
<path d="M1220.66 592.056C1364.61 592.056 1481.31 475.356 1481.31 331.399C1481.31 187.442 1364.61 70.7422 1220.66 70.7422C1076.7 70.7422 960 187.442 960 331.399C960 475.356 1076.7 592.056 1220.66 592.056Z" fill="url(#paint2_linear_355:72133)" fill-opacity="0.4"/>
<path d="M1218.26 830.586L757.194 747.391C733.98 743.184 716.898 720.59 716.898 694.006V383.782C716.898 357.453 733.691 334.968 756.648 330.507L1217.72 241.146C1246.97 235.489 1273.68 260.911 1273.68 294.422V777.202C1273.68 810.458 1247.35 835.845 1218.26 830.586Z" fill="url(#paint3_linear_355:72133)"/>
<path d="M1273.68 740.177C1292.88 740.177 1308.45 724.611 1308.45 705.411C1308.45 686.21 1292.88 670.645 1273.68 670.645C1254.48 670.645 1238.91 686.21 1238.91 705.411C1238.91 724.611 1254.48 740.177 1273.68 740.177Z" fill="#ECFBFF" fill-opacity="0.4"/>
<path d="M1416.06 740.177C1435.26 740.177 1450.82 724.611 1450.82 705.411C1450.82 686.21 1435.26 670.645 1416.06 670.645C1396.85 670.645 1381.29 686.21 1381.29 705.411C1381.29 724.611 1396.85 740.177 1416.06 740.177Z" fill="#ECFBFF" fill-opacity="0.4"/>
<path d="M1004.15 689.251C975.354 597.426 941.334 531.219 926.03 503.718C921.064 494.805 912.508 488.541 902.526 486.58C883.708 482.888 851.088 477.209 835.377 474.51C829.52 473.517 823.51 474.357 818.188 476.98L791.578 489.967C786.434 492.462 780.807 493.786 775.077 493.786H704.286C698.557 493.786 692.929 492.488 687.785 489.967L661.175 476.98C655.828 474.383 649.844 473.517 643.987 474.51C628.25 477.209 595.655 482.862 576.837 486.58C566.83 488.541 558.274 494.831 553.334 503.718C538.03 531.219 504.009 597.401 475.209 689.251C447.886 776.364 485.573 813.67 509.739 828.006C519.11 833.557 531.052 831.902 538.641 824.085L612.818 747.768C627.868 732.286 648.545 723.551 670.139 723.551H809.25C830.844 723.551 851.521 732.286 866.571 747.768L940.774 824.085C948.362 831.902 960.305 833.557 969.676 828.006C993.791 813.67 1031.48 776.364 1004.15 689.251Z" fill="url(#paint4_linear_355:72133)" fill-opacity="0.8"/>
<path d="M635.186 629.317C669.02 629.317 696.448 601.889 696.448 568.055C696.448 534.221 669.02 506.793 635.186 506.793C601.352 506.793 573.924 534.221 573.924 568.055C573.924 601.889 601.352 629.317 635.186 629.317Z" fill="#D7CBFE" fill-opacity="0.8"/>
<path d="M882.772 619.31C944.913 619.31 995.289 568.935 995.289 506.794C995.289 444.653 944.913 394.277 882.772 394.277C820.631 394.277 770.256 444.653 770.256 506.794C770.256 568.935 820.631 619.31 882.772 619.31Z" fill="#D7CBFE" fill-opacity="0.4"/>
<defs>
<linearGradient id="paint0_linear_355:72133" x1="945.59" y1="1263.43" x2="1924.03" y2="1288.28" gradientUnits="userSpaceOnUse">
<stop stop-color="#AA87E7"/>
<stop offset="1" stop-color="#B9DFF8" stop-opacity="0.2"/>
</linearGradient>
<linearGradient id="paint1_linear_355:72133" x1="5.20116" y1="-155.998" x2="446.789" y2="602.89" gradientUnits="userSpaceOnUse">
<stop stop-color="#6E35D1"/>
<stop offset="1" stop-color="#A6D1EE"/>
</linearGradient>
<linearGradient id="paint2_linear_355:72133" x1="1041.94" y1="-817.551" x2="653.612" y2="287.985" gradientUnits="userSpaceOnUse">
<stop stop-color="#6E35D1"/>
<stop offset="1" stop-color="#A6D1EE"/>
</linearGradient>
<linearGradient id="paint3_linear_355:72133" x1="867.598" y1="679.857" x2="1311.86" y2="222.442" gradientUnits="userSpaceOnUse">
<stop stop-color="#5B3C9B" stop-opacity="0.8"/>
<stop offset="0.995208" stop-color="#81CAFB"/>
</linearGradient>
<linearGradient id="paint4_linear_355:72133" x1="785.941" y1="592.823" x2="778.094" y2="1067.54" gradientUnits="userSpaceOnUse">
<stop stop-color="#AF94DE"/>
<stop offset="1" stop-color="#66B7ED"/>
</linearGradient>
</defs>
</svg>
