<svg width="1920" height="1080" viewBox="0 0 1920 1080" fill="none" xmlns="http://www.w3.org/2000/svg">
<path d="M0 0H1920V1080H0V0Z" fill="#3D2876"/>
<path d="M1307.5 623.625C1415.87 623.625 1503.72 535.777 1503.72 427.409C1503.72 319.044 1415.87 231.195 1307.5 231.195C1199.14 231.195 1111.29 319.044 1111.29 427.409C1111.29 535.777 1199.14 623.625 1307.5 623.625Z" fill="url(#paint0_linear_355:72157)" fill-opacity="0.8"/>
<path d="M505.586 427.41H383.734C332.833 427.41 291.188 469.056 291.188 519.956V648.493C291.188 699.393 332.833 741.039 383.734 741.039H505.586C556.487 741.039 598.132 699.393 598.132 648.493V519.956C598.132 469.056 556.487 427.41 505.586 427.41Z" fill="url(#paint1_linear_355:72157)" fill-opacity="0.4"/>
<path d="M946.056 969.553H626.012C580.423 969.553 543.122 932.253 543.122 886.664V334.069C543.122 288.48 580.423 251.18 626.012 251.18H946.056C991.645 251.18 1028.95 288.48 1028.95 334.069V886.664C1028.95 932.714 992.106 969.553 946.056 969.553Z" fill="url(#paint2_linear_355:72157)"/>
<path d="M1287.71 510.875H842.56C798.841 510.875 763.07 546.646 763.07 590.365V799.69C763.07 843.41 798.841 879.18 842.56 879.18H1287.71C1331.43 879.18 1367.2 843.41 1367.2 799.69V590.365C1367.2 546.646 1331.43 510.875 1287.71 510.875Z" fill="url(#paint3_linear_355:72157)" fill-opacity="0.8"/>
<path d="M999.192 797.702C999.192 800.482 996.899 802.735 994.12 802.643C919.988 800.196 882.922 759.972 882.922 682.682V567.172C882.922 517.949 867.063 490.791 836.659 486.353C834.058 485.974 832.007 483.818 832.007 481.189V432.68C832.007 430.09 833.999 427.952 836.556 427.54C867.687 422.528 882.922 395.292 882.922 344.512V231.282C882.922 153.992 919.988 113.041 994.12 110.562C996.899 110.469 999.192 112.722 999.192 115.502V166.355C999.192 169.074 997.003 171.272 994.296 171.524C962.672 174.465 947.516 199.45 947.516 246.481V357.431C947.516 409.57 926.478 442.925 883.653 455.254C883.225 455.377 882.922 455.77 882.922 456.216V456.216C882.922 456.667 883.233 457.063 883.669 457.181C926.483 468.758 947.516 501.365 947.516 554.253V663.683C947.516 691.801 951.316 712.319 958.915 723.718C965.859 734.828 977.879 740.863 994.396 742.4C997.068 742.649 999.192 744.837 999.192 747.52V797.702Z" fill="url(#paint4_linear_355:72157)" fill-opacity="0.8"/>
<path d="M1632.81 611.055C1632.81 612.979 1631.71 614.733 1629.97 615.564L1269.98 788C1266.66 789.59 1262.82 787.171 1262.82 783.491V715.399C1262.82 713.42 1263.98 711.628 1265.79 710.827L1531.86 593.083C1532.75 592.691 1533.32 591.815 1533.32 590.848V590.848C1533.32 589.918 1532.79 589.069 1531.96 588.657L1265.6 457.009C1263.9 456.166 1262.82 454.429 1262.82 452.527V384.56C1262.82 380.814 1266.78 378.398 1270.11 380.118L1630.11 566.168C1631.77 567.026 1632.81 568.74 1632.81 570.609V611.055Z" fill="url(#paint5_linear_355:72157)" fill-opacity="0.8"/>
<path d="M455.436 611.445C443.136 611.445 432.065 607.046 423.455 598.247C414.844 589.449 409.924 579.551 409.924 567.453C409.924 555.355 414.844 545.457 423.455 536.659C432.065 527.86 443.136 523.461 455.436 523.461C467.737 523.461 478.807 527.86 487.418 536.659C496.028 545.457 500.948 555.355 500.948 567.453C500.948 579.551 496.028 589.449 487.418 598.247C478.807 607.046 468.967 611.445 455.436 611.445ZM455.436 866.598C443.136 866.598 432.065 862.199 423.455 853.401C414.844 844.602 409.924 834.704 409.924 822.606C409.924 810.508 414.844 800.61 423.455 791.812C432.065 783.014 443.136 778.614 455.436 778.614C467.737 778.614 478.807 783.014 487.418 791.812C496.028 800.61 500.948 810.508 500.948 822.606C500.948 834.704 496.028 844.602 487.418 853.401C478.807 862.199 468.967 866.598 455.436 866.598Z" fill="#E4E8F7" fill-opacity="0.6"/>
<defs>
<linearGradient id="paint0_linear_355:72157" x1="1111.29" y1="465.195" x2="1577.8" y2="427.41" gradientUnits="userSpaceOnUse">
<stop stop-color="#D7CBFE"/>
<stop offset="1" stop-color="#D7CBFE" stop-opacity="0"/>
</linearGradient>
<linearGradient id="paint1_linear_355:72157" x1="444.66" y1="814.97" x2="416.047" y2="414.146" gradientUnits="userSpaceOnUse">
<stop stop-color="#6E35D1"/>
<stop offset="1" stop-color="#A6D1EE"/>
</linearGradient>
<linearGradient id="paint2_linear_355:72157" x1="786.034" y1="7.06195" x2="933.895" y2="1043.33" gradientUnits="userSpaceOnUse">
<stop stop-color="#391F6E"/>
<stop offset="1" stop-color="#81CAFB"/>
</linearGradient>
<linearGradient id="paint3_linear_355:72157" x1="1116.13" y1="633.294" x2="976.68" y2="882.399" gradientUnits="userSpaceOnUse">
<stop stop-color="#A284D4"/>
<stop offset="1" stop-color="#8ECEFA"/>
</linearGradient>
<linearGradient id="paint4_linear_355:72157" x1="915.599" y1="110.453" x2="915.599" y2="802.751" gradientUnits="userSpaceOnUse">
<stop stop-color="#D5C2F5"/>
<stop offset="1" stop-color="white" stop-opacity="0.4"/>
</linearGradient>
<linearGradient id="paint5_linear_355:72157" x1="491.453" y1="-848.114" x2="594.246" y2="-913.998" gradientUnits="userSpaceOnUse">
<stop stop-color="#C7B7F6" stop-opacity="0.4"/>
<stop offset="1" stop-color="#67C1E9" stop-opacity="0.6"/>
</linearGradient>
</defs>
</svg>
