<svg width="1920" height="1080" viewBox="0 0 1920 1080" fill="none" xmlns="http://www.w3.org/2000/svg">
<rect width="1920" height="1080" fill="white"/>
<path d="M0 0H1920V1080H0V0Z" fill="#CED6FA"/>
<path d="M1307.5 623.622C1415.87 623.622 1503.72 535.773 1503.72 427.405C1503.72 319.04 1415.87 231.191 1307.5 231.191C1199.13 231.191 1111.29 319.04 1111.29 427.405C1111.29 535.773 1199.13 623.622 1307.5 623.622Z" fill="url(#paint0_linear_355:72168)" fill-opacity="0.8"/>
<path d="M505.585 427.406H383.733C332.833 427.406 291.187 469.052 291.187 519.952V648.489C291.187 699.389 332.833 741.035 383.733 741.035H505.585C556.486 741.035 598.132 699.389 598.132 648.489V519.952C598.132 469.052 556.486 427.406 505.585 427.406Z" fill="url(#paint1_linear_355:72168)" fill-opacity="0.4"/>
<path d="M946.056 969.549H626.011C580.422 969.549 543.122 932.249 543.122 886.66V334.065C543.122 288.476 580.422 251.176 626.011 251.176H946.056C991.645 251.176 1028.94 288.476 1028.94 334.065V886.66C1028.94 932.71 992.105 969.549 946.056 969.549Z" fill="url(#paint2_linear_355:72168)"/>
<path d="M1287.71 510.875H842.56C798.84 510.875 763.069 546.646 763.069 590.365V799.69C763.069 843.41 798.84 879.18 842.56 879.18H1287.71C1331.43 879.18 1367.2 843.41 1367.2 799.69V590.365C1367.2 546.646 1331.43 510.875 1287.71 510.875Z" fill="url(#paint3_linear_355:72168)" fill-opacity="0.8"/>
<path d="M999.191 797.702C999.191 800.482 996.899 802.735 994.12 802.643C919.987 800.196 882.921 759.972 882.921 682.682V567.172C882.921 517.949 867.063 490.791 836.659 486.353C834.057 485.974 832.006 483.818 832.006 481.189V432.68C832.006 430.09 833.998 427.952 836.555 427.54C867.686 422.528 882.921 395.292 882.921 344.512V231.282C882.921 153.992 919.987 113.041 994.12 110.562C996.899 110.469 999.191 112.722 999.191 115.502V166.355C999.191 169.074 997.003 171.272 994.295 171.524C962.671 174.465 947.515 199.45 947.515 246.481V357.431C947.515 409.57 926.477 442.925 883.652 455.254C883.224 455.377 882.921 455.77 882.921 456.216V456.216C882.921 456.667 883.232 457.063 883.668 457.181C926.482 468.758 947.515 501.365 947.515 554.253V663.683C947.515 691.801 951.315 712.319 958.914 723.718C965.858 734.828 977.879 740.863 994.395 742.4C997.067 742.649 999.191 744.837 999.191 747.52V797.702Z" fill="url(#paint4_linear_355:72168)" fill-opacity="0.8"/>
<path d="M455.436 611.441C443.135 611.441 432.064 607.042 423.454 598.243C414.844 589.445 409.924 579.547 409.924 567.449C409.924 555.351 414.844 545.453 423.454 536.655C432.064 527.856 443.135 523.457 455.436 523.457C467.736 523.457 478.807 527.856 487.417 536.655C496.027 545.453 500.948 555.351 500.948 567.449C500.948 579.547 496.027 589.445 487.417 598.243C478.807 607.042 468.966 611.441 455.436 611.441ZM455.436 866.594C443.135 866.594 432.064 862.195 423.454 853.397C414.844 844.598 409.924 834.7 409.924 822.602C409.924 810.505 414.844 800.606 423.454 791.808C432.064 783.01 443.135 778.61 455.436 778.61C467.736 778.61 478.807 783.01 487.417 791.808C496.027 800.606 500.948 810.505 500.948 822.602C500.948 834.7 496.027 844.598 487.417 853.397C478.807 862.195 468.966 866.594 455.436 866.594Z" fill="#E4E8F7" fill-opacity="0.6"/>
<path d="M1632.81 611.051C1632.81 612.975 1631.71 614.729 1629.97 615.56L1269.97 787.996C1266.66 789.586 1262.81 787.167 1262.81 783.487V715.395C1262.81 713.417 1263.98 711.624 1265.79 710.823L1531.86 593.079C1532.75 592.688 1533.32 591.811 1533.32 590.844V590.844C1533.32 589.914 1532.79 589.065 1531.96 588.653L1265.6 457.005C1263.89 456.163 1262.81 454.425 1262.81 452.523V384.556C1262.81 380.81 1266.78 378.394 1270.11 380.114L1630.11 566.164C1631.77 567.022 1632.81 568.736 1632.81 570.605V611.051Z" fill="url(#paint5_linear_355:72168)" fill-opacity="0.6"/>
<defs>
<linearGradient id="paint0_linear_355:72168" x1="1111.29" y1="465.192" x2="1577.8" y2="427.406" gradientUnits="userSpaceOnUse">
<stop stop-color="#B0ACEE"/>
<stop offset="1" stop-color="#D7CBFE" stop-opacity="0.4"/>
</linearGradient>
<linearGradient id="paint1_linear_355:72168" x1="444.659" y1="814.966" x2="416.046" y2="414.142" gradientUnits="userSpaceOnUse">
<stop stop-color="#6E35D1"/>
<stop offset="1" stop-color="#A6D1EE"/>
</linearGradient>
<linearGradient id="paint2_linear_355:72168" x1="786.033" y1="7.05805" x2="933.894" y2="1043.33" gradientUnits="userSpaceOnUse">
<stop stop-color="#391F6E"/>
<stop offset="1" stop-color="#81CAFB"/>
</linearGradient>
<linearGradient id="paint3_linear_355:72168" x1="1116.13" y1="633.294" x2="976.679" y2="882.399" gradientUnits="userSpaceOnUse">
<stop stop-color="#A284D4"/>
<stop offset="1" stop-color="#8ECEFA"/>
</linearGradient>
<linearGradient id="paint4_linear_355:72168" x1="915.598" y1="110.453" x2="915.598" y2="802.751" gradientUnits="userSpaceOnUse">
<stop stop-color="#B696EE"/>
<stop offset="1" stop-color="white" stop-opacity="0.4"/>
</linearGradient>
<linearGradient id="paint5_linear_355:72168" x1="1632.81" y1="583.885" x2="987.329" y2="583.885" gradientUnits="userSpaceOnUse">
<stop stop-color="#6CB7ED"/>
<stop offset="1" stop-color="#6CB7ED" stop-opacity="0"/>
</linearGradient>
</defs>
</svg>
