<svg width="1920" height="1080" viewBox="0 0 1920 1080" fill="none" xmlns="http://www.w3.org/2000/svg">
<g clip-path="url(#clip0_355:72245)">
<rect width="1920" height="1080" fill="white"/>
<rect width="1920" height="1080" fill="#E1DFFC"/>
<path d="M1169.13 425.123C1155.6 404.869 1118.49 423.483 1124.33 446.307C1125.82 452.133 1129.17 462.967 1132.19 472.488C1134.49 479.753 1131.69 487.623 1125.6 492.198C1125.03 492.621 1124.47 493.046 1123.91 493.474C1117.8 498.148 1109.38 498.665 1102.99 494.385C1096.39 489.969 1088.47 484.737 1080.34 479.501C1059.87 466.327 1033.21 497.974 1047.66 516.577C1051.29 521.254 1058.53 529.73 1065.04 537.224C1070.09 543.042 1070.6 551.484 1066.69 558.119C1066.19 558.966 1065.7 559.817 1065.21 560.67C1061.26 567.565 1053.34 571.334 1045.6 569.533C1038.41 567.859 1030.1 565.978 1021.63 564.176C997.813 559.073 984.11 598.242 1004.21 610.553C1009.42 613.742 1019.63 619.333 1028.55 624.132C1035.13 627.667 1038.61 635.04 1037.59 642.434C1037.57 642.632 1037.54 642.831 1037.51 643.03C1036.48 650.706 1030.82 657.067 1023.21 658.519C1015.72 659.948 1006.98 661.671 998.119 663.52C974.26 668.501 977.616 709.853 1000.98 713.009C1006.71 713.784 1017.38 714.698 1027.06 715.443C1034.7 716.03 1040.98 721.62 1042.9 729.039C1043.15 730.005 1043.41 730.972 1043.67 731.938C1045.7 739.361 1043.04 747.379 1036.67 751.705C1030.29 756.041 1022.82 761.182 1015.3 766.494C995.421 780.537 1014.81 817.124 1037.43 810.679C1042.9 809.133 1052.85 805.8 1061.93 802.681C1069.22 800.179 1077.23 802.884 1081.9 809.019C1082.46 809.767 1083.04 810.51 1083.61 811.25C1088.35 817.328 1088.97 825.769 1084.74 832.21C1080.41 838.798 1075.29 846.675 1070.19 854.767C1057.2 875.366 1089.06 901.73 1107.57 887.143C1112.24 883.445 1120.72 876.073 1128.2 869.48C1133.96 864.398 1142.37 863.81 1149.04 867.619C1149.85 868.078 1150.65 868.532 1151.46 868.981C1158.44 872.853 1162.33 880.773 1160.58 888.564C1158.96 895.815 1157.13 904.2 1155.36 912.751C1150.46 936.622 1189.77 949.956 1201.91 929.79C1205.12 924.464 1210.76 913.934 1215.53 904.872C1218.99 898.318 1226.26 894.795 1233.62 895.677C1233.73 895.689 1233.83 895.702 1233.94 895.715C1241.66 896.629 1248.11 902.237 1249.63 909.862C1251.13 917.444 1252.95 926.361 1254.92 935.413C1260.09 959.226 1301.46 955.522 1304.38 932.114C1305.13 926.233 1305.98 915.122 1306.65 905.237C1307.16 897.618 1312.65 891.299 1320.02 889.278C1320.84 889.051 1321.67 888.82 1322.49 888.584C1329.89 886.463 1337.93 889.051 1342.31 895.379C1346.79 901.857 1352.16 909.536 1357.75 917.287C1371.99 937.051 1408.37 917.367 1401.76 894.779C1400.04 888.914 1396.21 877.852 1392.82 868.269C1390.51 861.737 1392.9 854.488 1398.39 850.262V850.262C1404.11 845.861 1412.07 845.581 1417.86 849.891C1423.79 854.311 1430.67 859.369 1437.7 864.43C1457.5 878.636 1485.72 848.221 1472.24 828.889C1468.76 823.923 1461.75 814.834 1455.55 806.924C1450.99 801.12 1450.7 793.084 1454.46 786.737C1454.63 786.44 1454.81 786.143 1454.98 785.845C1458.94 779.077 1466.75 775.379 1474.4 777.118C1481.78 778.795 1490.38 780.705 1499.15 782.548C1522.99 787.537 1536.48 748.277 1516.31 736.062C1511.22 732.964 1501.35 727.623 1492.56 722.96C1485.88 719.414 1482.37 711.922 1483.49 704.444C1483.6 703.689 1483.71 702.934 1483.81 702.179C1484.88 694.503 1490.54 688.142 1498.16 686.72C1505.9 685.275 1515.1 683.504 1524.45 681.56C1548.3 676.651 1545.18 635.379 1521.85 632.211C1515.86 631.401 1504.43 630.398 1494.38 629.591C1486.76 628.978 1480.52 623.381 1478.62 615.975C1478.41 615.164 1478.2 614.353 1477.98 613.543C1475.9 605.788 1478.92 597.434 1485.78 593.26C1492.2 589.353 1499.62 584.774 1507.1 580.041C1527.7 567.009 1510.05 529.457 1487.07 534.72C1480.81 536.154 1468.77 539.559 1458.75 542.475C1451.72 544.519 1444.19 541.76 1439.77 535.932V535.932C1435.1 529.785 1434.67 521.327 1439.09 514.996C1443.63 508.49 1449 500.685 1454.38 492.662C1467.96 472.421 1436.58 445.211 1417.69 459.314C1412.76 463.01 1403.68 470.535 1395.88 477.091C1390.05 481.984 1381.73 482.411 1375.18 478.539C1374.65 478.224 1374.12 477.91 1373.58 477.599C1366.91 473.729 1363.2 466.118 1364.73 458.561C1366.33 450.62 1368.21 440.988 1370.01 431.154C1374.36 407.189 1334.94 394.631 1323.26 415.101C1320.22 420.406 1314.92 430.838 1310.37 439.936C1306.93 446.808 1299.34 450.482 1291.73 449.397C1291.15 449.314 1290.57 449.233 1289.99 449.155C1282.07 448.089 1275.55 442.127 1274.32 434.234C1273.16 426.869 1271.77 418.354 1270.28 409.714C1266.11 385.714 1224.63 387.689 1220.72 410.922C1219.68 417.101 1218.28 429.119 1217.16 439.365C1216.35 446.753 1210.86 452.723 1203.67 454.599V454.599C1196.05 456.587 1187.74 453.706 1183.5 447.073C1179.31 440.525 1174.32 432.856 1169.13 425.123Z" fill="url(#paint0_linear_355:72245)"/>
<path d="M135.851 513.521C116.243 484.171 62.4693 511.144 70.9197 544.22C73.3785 553.814 79.3142 572.784 84.0724 587.678C86.3918 594.939 83.5981 602.822 77.4217 607.288C73.4377 610.169 69.5301 613.132 65.7006 616.171C59.6756 620.951 51.2351 621.451 44.8547 617.155C34.4692 610.162 21.0413 601.246 7.17143 592.323C-22.4923 573.232 -61.1211 619.093 -40.1803 646.051C-34.1868 653.77 -21.4036 668.633 -11.1404 680.4C-6.07599 686.206 -5.54752 694.659 -9.57809 701.224C-12.4119 705.84 -15.1333 710.523 -17.7341 715.272C-21.5505 722.24 -29.4836 726.003 -37.2185 724.183C-48.8743 721.441 -63.2111 718.152 -77.906 715.029C-112.416 707.634 -132.273 764.395 -103.151 782.235C-94.6098 787.463 -76.7884 797.145 -62.8949 804.581C-56.314 808.103 -52.8171 815.478 -53.9539 822.854C-54.5837 826.941 -55.1394 831.043 -55.6175 835.16C-56.5109 842.854 -62.1889 849.212 -69.8014 850.644C-81.7994 852.902 -96.7563 855.819 -111.971 858.991C-146.546 866.209 -141.684 926.134 -107.828 930.708C-98.3586 931.99 -79.5484 933.533 -64.2202 934.675C-56.5771 935.244 -50.2803 940.829 -48.4907 948.281C-47.2472 953.459 -45.8744 958.624 -44.3614 963.777C-42.193 971.161 -44.8732 979.185 -51.2488 983.496C-61.4314 990.381 -74.2035 999.125 -87.0712 1008.22C-115.881 1028.57 -87.7813 1081.59 -54.9997 1072.24C-45.9366 1069.68 -28.4029 1063.74 -13.9462 1058.74C-6.66387 1056.23 1.36674 1058.92 5.92183 1065.14C9.0491 1069.4 12.2639 1073.58 15.5722 1077.67C20.4213 1083.66 21.0271 1092.11 16.7803 1098.54C9.9098 1108.95 1.18022 1122.33 -7.53424 1136.13C-26.3508 1165.99 19.8087 1204.19 46.6427 1183.05C54.3313 1176.95 69.1989 1163.96 80.9126 1153.58C86.6628 1148.49 95.0822 1147.88 101.684 1151.81C106.272 1154.55 110.926 1157.16 115.642 1159.66C122.698 1163.4 126.572 1171.33 124.809 1179.12C122.153 1190.85 118.958 1205.34 115.899 1220.16C108.789 1254.75 165.756 1274.08 183.356 1244.85C188.608 1236.14 198.329 1217.82 205.693 1203.79C209.138 1197.24 216.417 1193.7 223.758 1194.71C227.713 1195.25 231.683 1195.72 235.665 1196.12C243.401 1196.9 249.85 1202.52 251.347 1210.15C253.718 1222.24 256.799 1237.49 260.166 1253C267.665 1287.51 327.604 1282.14 331.847 1248.22C333.087 1238.52 334.504 1219.02 335.513 1203.48C336.008 1195.86 341.496 1189.52 348.895 1187.63C353.84 1186.37 358.778 1184.98 363.704 1183.48C371.062 1181.22 379.11 1183.83 383.475 1190.17C390.545 1200.43 399.654 1213.51 409.182 1226.73C429.824 1255.38 482.534 1226.85 472.956 1194.12C470.235 1184.84 463.874 1166.6 458.678 1151.96C456.101 1144.7 458.727 1136.66 464.888 1132.03C467.063 1130.4 469.214 1128.75 471.341 1127.07C477.635 1122.09 486.512 1121.77 492.939 1126.57C502.25 1133.53 513.5 1141.83 525.046 1150.14C553.732 1170.72 594.627 1126.65 575.089 1098.63C569.399 1090.5 557.157 1074.74 547.466 1062.43C542.902 1056.64 542.594 1048.59 546.454 1042.31C548.734 1038.6 550.94 1034.84 553.068 1031.05C556.904 1024.21 564.726 1020.52 572.371 1022.27C584.22 1024.99 598.978 1028.3 614.086 1031.48C648.632 1038.71 668.184 981.816 638.966 964.115C630.582 959.017 613.266 949.728 599.479 942.445C592.792 938.912 589.26 931.416 590.501 923.958C591.319 919.043 592.033 914.106 592.626 909.151C593.547 901.457 599.225 895.096 606.846 893.69C619.105 891.429 634.778 888.456 650.75 885.134C685.315 878.021 680.801 818.211 646.989 813.621C637.133 812.287 617.092 810.594 601.385 809.364C593.762 808.767 587.504 803.173 585.737 795.735C584.536 790.681 583.212 785.638 581.753 780.61C579.516 772.897 582.55 764.54 589.422 760.384C599.807 754.104 612.652 746.222 625.618 738.02C655.457 719.133 629.888 664.716 596.585 672.343C586.402 674.674 565.7 680.598 550.386 685.086C543.273 687.17 535.662 684.415 531.277 678.44C529.084 675.45 526.844 672.505 524.557 669.603C519.717 663.464 519.279 654.861 523.766 648.461C530.946 638.222 540.077 625.026 549.215 611.394C568.892 582.062 523.412 542.632 496.05 563.069C487.948 569.142 472.105 582.348 460.015 592.551C454.202 597.456 445.871 597.897 439.393 593.912C435.319 591.406 431.192 588.989 427.017 586.663C420.281 582.913 416.582 575.284 418.125 567.731C420.664 555.3 423.889 538.982 426.957 522.261C433.255 487.533 376.124 469.335 359.203 498.998C354.207 507.73 344.972 526.041 337.907 540.223C334.48 547.101 326.888 550.795 319.3 549.575C314.513 548.806 309.708 548.14 304.887 547.586C296.95 546.672 290.439 540.694 289.222 532.799C287.384 520.882 285.017 506.166 282.425 491.191C276.385 456.412 216.27 459.275 210.615 492.943C208.914 503.048 206.546 523.935 204.847 539.741C204.053 547.13 198.566 553.115 191.343 554.866C187.514 555.794 183.69 556.795 179.875 557.871C172.298 560.008 164.125 557.069 159.91 550.42C153.275 539.951 144.753 526.8 135.851 513.521Z" fill="url(#paint1_linear_355:72245)"/>
<path d="M1240.56 653.919L772.436 186.16C703.48 117.257 676.772 16.3302 702.509 -77.8039C728.246 -171.938 802.543 -245.207 896.751 -269.469L1531.92 -432.99C1625.16 -457.252 1724.22 -430.079 1792.21 -362.147L1792.69 -361.662C1860.68 -293.245 1887.39 -193.773 1862.62 -100.61L1695.57 531.156C1670.81 625.29 1597.48 698.56 1503.27 724.277C1410.04 749.509 1309.52 722.821 1240.56 653.919Z" fill="url(#paint2_linear_355:72245)" fill-opacity="0.4"/>
<g filter="url(#filter0_b_355:72245)">
<path d="M901.101 797.265L640.288 536.5C601.87 498.089 586.989 441.824 601.329 389.347C615.668 336.869 657.063 296.023 709.55 282.498L1063.43 191.339C1115.38 177.813 1170.57 192.962 1208.45 230.832L1208.72 231.103C1246.6 269.243 1261.48 324.697 1247.68 376.633L1154.61 728.828C1140.81 781.305 1099.96 822.151 1047.47 836.488C995.524 850.554 939.52 835.677 901.101 797.265Z" fill="url(#paint3_linear_355:72245)"/>
</g>
<path d="M944.185 752.22L690.407 501.464C667.41 480.365 654.153 446.282 659.293 414.903C665.516 376.492 690.407 350.523 716.65 340.515L1068.1 252.872C1109.76 242.052 1142.5 252.872 1165.5 277.758L1165.77 278.029C1190.12 299.398 1194.18 330.506 1187.14 367.836L1102.46 710.022C1091.1 751.95 1069.99 770.344 1039.69 776.295C1006.14 783.058 975.028 783.058 944.185 752.22Z" fill="url(#paint4_linear_355:72245)"/>
<path d="M1100 434.253C1151.26 434.253 1192.8 392.712 1192.8 341.47C1192.8 290.228 1151.26 248.688 1100 248.688C1048.75 248.688 1007.2 290.228 1007.2 341.47C1007.2 392.712 1048.75 434.253 1100 434.253Z" fill="url(#paint5_linear_355:72245)"/>
<path d="M1010.72 785.909C1061.97 785.909 1103.52 744.369 1103.52 693.126C1103.52 641.884 1061.97 600.344 1010.72 600.344C959.47 600.344 917.922 641.884 917.922 693.126C917.922 744.369 959.47 785.909 1010.72 785.909Z" fill="url(#paint6_linear_355:72245)"/>
<path d="M590.556 680.011C716.784 680.011 819.112 577.702 819.112 451.498C819.112 325.293 716.784 222.984 590.556 222.984C464.328 222.984 362 325.293 362 451.498C362 577.702 464.328 680.011 590.556 680.011Z" fill="url(#paint7_linear_355:72245)" fill-opacity="0.6"/>
<path d="M590.561 544.284C641.813 544.284 683.361 502.744 683.361 451.501C683.361 400.259 641.813 358.719 590.561 358.719C539.31 358.719 497.762 400.259 497.762 451.501C497.762 502.744 539.31 544.284 590.561 544.284Z" fill="#E1D6FA" fill-opacity="0.4"/>
</g>
<defs>
<filter id="filter0_b_355:72245" x="589.964" y="180.473" width="668.777" height="667.223" filterUnits="userSpaceOnUse" color-interpolation-filters="sRGB">
<feFlood flood-opacity="0" result="BackgroundImageFix"/>
<feGaussianBlur in="BackgroundImage" stdDeviation="3"/>
<feComposite in2="SourceAlpha" operator="in" result="effect1_backgroundBlur_355:72245"/>
<feBlend mode="normal" in="SourceGraphic" in2="effect1_backgroundBlur_355:72245" result="shape"/>
</filter>
<linearGradient id="paint0_linear_355:72245" x1="2713.79" y1="2041.37" x2="2566.04" y2="2199.56" gradientUnits="userSpaceOnUse">
<stop stop-color="#BCA8F8" stop-opacity="0.2"/>
<stop offset="1" stop-color="#28AFEA" stop-opacity="0.18"/>
</linearGradient>
<linearGradient id="paint1_linear_355:72245" x1="2374.28" y1="2855.68" x2="2160.16" y2="3084.93" gradientUnits="userSpaceOnUse">
<stop stop-color="#BCA8F8" stop-opacity="0.2"/>
<stop offset="1" stop-color="#28AFEA" stop-opacity="0.18"/>
</linearGradient>
<linearGradient id="paint2_linear_355:72245" x1="1011.07" y1="961.198" x2="2181.27" y2="-100.535" gradientUnits="userSpaceOnUse">
<stop stop-color="#839DE2"/>
<stop offset="1" stop-color="#81CAFB"/>
</linearGradient>
<linearGradient id="paint3_linear_355:72245" x1="773.244" y1="968.566" x2="1425.56" y2="377.062" gradientUnits="userSpaceOnUse">
<stop stop-color="#391F6E"/>
<stop offset="1" stop-color="#81CAFB"/>
</linearGradient>
<linearGradient id="paint4_linear_355:72245" x1="724.049" y1="648.682" x2="1424.43" y2="506.361" gradientUnits="userSpaceOnUse">
<stop stop-color="#5190D6"/>
<stop offset="1" stop-color="#D0B0F3"/>
</linearGradient>
<linearGradient id="paint5_linear_355:72245" x1="1100" y1="295.42" x2="1192.8" y2="513.42" gradientUnits="userSpaceOnUse">
<stop stop-color="#CBBCFF"/>
<stop offset="1" stop-color="#A995ED"/>
</linearGradient>
<linearGradient id="paint6_linear_355:72245" x1="1010.72" y1="600.344" x2="1010.72" y2="785.909" gradientUnits="userSpaceOnUse">
<stop stop-color="#CBBCFF"/>
<stop offset="1" stop-color="#A995ED"/>
</linearGradient>
<linearGradient id="paint7_linear_355:72245" x1="590.556" y1="222.984" x2="590.556" y2="680.011" gradientUnits="userSpaceOnUse">
<stop stop-color="#CBBCFF"/>
<stop offset="1" stop-color="#A995ED"/>
</linearGradient>
<clipPath id="clip0_355:72245">
<rect width="1920" height="1080" fill="white"/>
</clipPath>
</defs>
</svg>
