<svg width="6017" height="3385" viewBox="0 0 6017 3385" fill="none" xmlns="http://www.w3.org/2000/svg">
<g clip-path="url(#clip0_355:72683)">
<rect width="6016" height="3384" transform="translate(0.741211 0.148438)" fill="white"/>
<rect x="0.741211" y="0.148438" width="6010.26" height="3380.77" fill="#E1DFFC"/>
<path d="M2629.28 376.068C2653.31 363.317 2679.95 353.045 2708.18 345.784C2740.95 337.402 3042.56 264.856 3424.05 342.874C3783.13 417.347 4281.93 641.502 4625.93 1289.93C4719.12 1465.58 4652.53 1683.57 4477.26 1776.55C4302 1869.53 4084.17 1802.44 3990.98 1626.79C3820.57 1305.59 3581.28 1110.97 3280.37 1049.37C3065.65 1005.07 2892.59 1044.15 2891.05 1043.68C2697.96 1093.38 2501.74 977.528 2452.28 785.105C2407.05 620.02 2485.06 452.579 2629.28 376.068Z" fill="#D1CFFA"/>
<path d="M3357.73 2941.88C3336.44 2955.98 3312.5 2968.01 3286.8 2977.37C3256.95 2988.19 2981.87 3083.47 2618.43 3045.41C2276.26 3008.62 1789.92 2844.77 1409.44 2270.53C1306.37 2114.97 1348.69 1905.3 1503.9 1802.46C1659.11 1699.62 1868.69 1742.4 1971.76 1897.96C2160.23 2182.41 2401.49 2342.35 2688.16 2372.43C2892.76 2394.2 3050.83 2341.91 3052.31 2342.22C3228.12 2278.17 3421.96 2368.48 3485.72 2543.69C3543.03 2693.75 3485.45 2857.26 3357.73 2941.88Z" fill="#D1CFFA" fill-opacity="0.8"/>
<path d="M3300.3 1648.88C3090.79 1431.96 3096.35 1084.72 3312.79 874.733C3529.22 664.747 3875.69 670.327 4085.2 887.244C4294.72 1104.16 4289.15 1451.41 4072.72 1661.39C3856.29 1871.38 3509.82 1865.8 3300.3 1648.88Z" fill="url(#paint0_linear_355:72683)" fill-opacity="0.4"/>
<path d="M1845.11 2940C1744.02 2835.34 1746.71 2667.8 1851.13 2566.49C1955.55 2465.18 2122.72 2467.87 2223.8 2572.53C2324.89 2677.18 2322.2 2844.72 2217.78 2946.03C2113.36 3047.35 1946.19 3044.65 1845.11 2940Z" fill="url(#paint1_linear_355:72683)" fill-opacity="0.8"/>
<path d="M2916.36 2491.82C2898.86 2491.82 2880.63 2489.63 2862.39 2485.24C2841.24 2480.12 2647.97 2430.42 2454.69 2271.06C2273.08 2121.21 2057.2 1842.71 2057.2 1370.5C2057.2 1242.58 2160.77 1138.78 2288.4 1138.78C2416.04 1138.78 2519.6 1242.58 2519.6 1370.5C2519.6 1604.41 2596.91 1787.16 2749.34 1912.89C2858.02 2002.8 2968.15 2032.77 2968.88 2033.5C3093.59 2063.47 3170.18 2188.46 3140.27 2312.73C3115.47 2420.18 3020.66 2491.82 2916.36 2491.82Z" fill="url(#paint2_linear_355:72683)"/>
<path d="M3078.76 1138.78C3097.45 1138.78 3116.91 1141.12 3136.38 1145.8C3158.96 1151.27 3365.29 1204.33 3571.62 1374.45C3765.5 1535.2 3995.97 1831.74 3995.97 2335.85C3995.97 2472.41 3885.4 2583.22 3749.15 2583.22C3612.89 2583.22 3502.33 2472.41 3502.33 2335.85C3502.33 2086.13 3419.79 1891.05 3257.06 1756.82C3141.05 1660.84 3023.48 1628.85 3022.7 1628.07C2889.56 1596.07 2807.8 1462.63 2839.73 1329.97C2865.42 1215.26 2966.64 1138.78 3078.76 1138.78Z" fill="url(#paint3_linear_355:72683)"/>
<path d="M3071.35 2285.72C3330.57 2285.72 3540.71 2075.1 3540.71 1815.3C3540.71 1555.49 3330.57 1344.88 3071.35 1344.88C2812.12 1344.88 2601.98 1555.49 2601.98 1815.3C2601.98 2075.1 2812.12 2285.72 3071.35 2285.72Z" fill="url(#paint4_linear_355:72683)" fill-opacity="0.8"/>
</g>
<defs>
<linearGradient id="paint0_linear_355:72683" x1="3339.02" y1="1710" x2="3394.63" y2="794.999" gradientUnits="userSpaceOnUse">
<stop stop-color="#9A95EE" stop-opacity="0.2"/>
<stop offset="1" stop-color="#C0BDF7" stop-opacity="0.8"/>
</linearGradient>
<linearGradient id="paint1_linear_355:72683" x1="1863.79" y1="2969.49" x2="1890.62" y2="2528.02" gradientUnits="userSpaceOnUse">
<stop stop-color="#9A95EE" stop-opacity="0.2"/>
<stop offset="1" stop-color="#C0BDF7" stop-opacity="0.8"/>
</linearGradient>
<linearGradient id="paint2_linear_355:72683" x1="2922.22" y1="2238.93" x2="2192.09" y2="1552.26" gradientUnits="userSpaceOnUse">
<stop stop-color="#9F84D8" stop-opacity="0.8"/>
<stop offset="1" stop-color="#C2A2E9" stop-opacity="0.4"/>
</linearGradient>
<linearGradient id="paint3_linear_355:72683" x1="3296.35" y1="1595.19" x2="3784.26" y2="2439.96" gradientUnits="userSpaceOnUse">
<stop stop-color="#A083DA" stop-opacity="0.8"/>
<stop offset="1" stop-color="#BCD6FE" stop-opacity="0.4"/>
</linearGradient>
<linearGradient id="paint4_linear_355:72683" x1="3356.42" y1="1435.56" x2="2908.36" y2="2030.15" gradientUnits="userSpaceOnUse">
<stop stop-color="#D7C0FF"/>
<stop offset="1" stop-color="#CAD2FF"/>
</linearGradient>
<clipPath id="clip0_355:72683">
<rect width="6016" height="3384" fill="white" transform="translate(0.741211 0.148438)"/>
</clipPath>
</defs>
</svg>
