<svg width="6017" height="3385" viewBox="0 0 6017 3385" fill="none" xmlns="http://www.w3.org/2000/svg">
<g clip-path="url(#clip0_355:72693)">
<rect width="6016" height="3384" transform="translate(0.741211 0.976562)" fill="white"/>
<rect x="0.741211" y="0.976562" width="6010.26" height="3380.77" fill="#3D2876"/>
<path d="M2629.22 376.67C2653.26 363.918 2679.9 353.646 2708.13 346.386C2740.9 338.004 3042.51 265.458 3424 343.475C3783.07 417.949 4281.88 642.103 4625.88 1290.53C4719.07 1466.19 4652.48 1684.17 4477.21 1777.15C4301.95 1870.13 4084.12 1803.05 3990.93 1627.39C3820.52 1306.19 3581.23 1111.57 3280.32 1049.97C3065.6 1005.68 2892.54 1044.75 2891 1044.28C2697.91 1093.98 2501.69 978.129 2452.23 785.707C2407 620.621 2485.01 453.181 2629.22 376.67Z" fill="#D1CFFA" fill-opacity="0.2"/>
<path d="M3357.68 2942.48C3336.39 2956.59 3312.45 2968.61 3286.75 2977.97C3256.9 2988.79 2981.82 3084.07 2618.38 3046.01C2276.21 3009.22 1789.87 2845.38 1409.39 2271.13C1306.32 2115.57 1348.63 1905.9 1503.85 1803.06C1659.06 1700.22 1868.64 1743 1971.71 1898.56C2160.18 2183.02 2401.44 2342.95 2688.11 2373.03C2892.7 2394.81 3050.78 2342.52 3052.26 2342.82C3228.07 2278.77 3421.91 2369.08 3485.67 2544.29C3542.98 2694.35 3485.4 2857.86 3357.68 2942.48Z" fill="#D1CFFA" fill-opacity="0.2"/>
<path d="M3300.25 1649.48C3090.74 1432.57 3096.31 1085.32 3312.74 875.334C3529.17 665.349 3875.64 670.929 4085.15 887.845C4294.67 1104.76 4289.1 1452.01 4072.67 1661.99C3856.24 1871.98 3509.77 1866.4 3300.25 1649.48Z" fill="url(#paint0_linear_355:72693)" fill-opacity="0.4"/>
<path d="M1845.06 2940.61C1743.97 2835.95 1746.66 2668.41 1851.08 2567.1C1955.5 2465.79 2122.67 2468.48 2223.75 2573.14C2324.84 2677.79 2322.15 2845.33 2217.73 2946.64C2113.31 3047.95 1946.14 3045.26 1845.06 2940.61Z" fill="url(#paint1_linear_355:72693)" fill-opacity="0.8"/>
<path d="M2916.32 2492.43C2898.81 2492.43 2880.58 2490.24 2862.34 2485.85C2841.19 2480.73 2647.92 2431.03 2454.64 2271.67C2273.04 2121.82 2057.15 1843.32 2057.15 1371.11C2057.15 1243.19 2160.72 1139.39 2288.35 1139.39C2415.99 1139.39 2519.55 1243.19 2519.55 1371.11C2519.55 1605.02 2596.86 1787.77 2749.3 1913.5C2857.97 2003.41 2968.1 2033.38 2968.83 2034.11C3093.55 2064.08 3170.13 2189.07 3140.22 2313.34C3115.43 2420.79 3020.61 2492.43 2916.32 2492.43Z" fill="url(#paint2_linear_355:72693)"/>
<path d="M3078.71 1139.39C3097.4 1139.39 3116.86 1141.73 3136.33 1146.41C3158.91 1151.88 3365.24 1204.94 3571.57 1375.06C3765.45 1535.81 3995.92 1832.35 3995.92 2336.46C3995.92 2473.02 3885.35 2583.83 3749.1 2583.83C3612.84 2583.83 3502.28 2473.02 3502.28 2336.46C3502.28 2086.74 3419.74 1891.65 3257.01 1757.43C3141 1661.45 3023.43 1629.45 3022.65 1628.67C2889.51 1596.68 2807.76 1463.24 2839.68 1330.58C2865.37 1215.87 2966.59 1139.39 3078.71 1139.39Z" fill="url(#paint3_linear_355:72693)"/>
<path d="M3071.3 2286.32C3330.52 2286.32 3540.66 2075.7 3540.66 1815.9C3540.66 1556.09 3330.52 1345.48 3071.3 1345.48C2812.07 1345.48 2601.93 1556.09 2601.93 1815.9C2601.93 2075.7 2812.07 2286.32 3071.3 2286.32Z" fill="url(#paint4_linear_355:72693)" fill-opacity="0.8"/>
</g>
<defs>
<linearGradient id="paint0_linear_355:72693" x1="3338.97" y1="1710.61" x2="3394.58" y2="795.601" gradientUnits="userSpaceOnUse">
<stop stop-color="#9A95EE" stop-opacity="0.2"/>
<stop offset="1" stop-color="#C0BDF7" stop-opacity="0.8"/>
</linearGradient>
<linearGradient id="paint1_linear_355:72693" x1="1863.74" y1="2970.1" x2="1890.57" y2="2528.63" gradientUnits="userSpaceOnUse">
<stop stop-color="#9A95EE" stop-opacity="0.2"/>
<stop offset="1" stop-color="#C0BDF7" stop-opacity="0.8"/>
</linearGradient>
<linearGradient id="paint2_linear_355:72693" x1="3473.01" y1="2761.85" x2="2238.16" y2="1511.57" gradientUnits="userSpaceOnUse">
<stop stop-color="#56369A" stop-opacity="0.8"/>
<stop offset="1" stop-color="#C2A2E9" stop-opacity="0.8"/>
</linearGradient>
<linearGradient id="paint3_linear_355:72693" x1="2760.47" y1="730.553" x2="3638.15" y2="2502" gradientUnits="userSpaceOnUse">
<stop stop-color="#553890" stop-opacity="0.8"/>
<stop offset="1" stop-color="#BCD6FE" stop-opacity="0.8"/>
</linearGradient>
<linearGradient id="paint4_linear_355:72693" x1="3150.54" y1="1658.2" x2="2734.1" y2="2110.71" gradientUnits="userSpaceOnUse">
<stop stop-color="#AF94DE"/>
<stop offset="1" stop-color="#66B7ED"/>
</linearGradient>
<clipPath id="clip0_355:72693">
<rect width="6016" height="3384" fill="white" transform="translate(0.741211 0.976562)"/>
</clipPath>
</defs>
</svg>
