<svg width="6017" height="3384" viewBox="0 0 6017 3384" fill="none" xmlns="http://www.w3.org/2000/svg">
<g clip-path="url(#clip0_355:72592)">
<rect width="6016" height="3384" transform="translate(0.741211)" fill="white"/>
<rect x="0.741211" width="6010.26" height="3380.77" fill="url(#paint0_linear_355:72592)"/>
<path d="M2807.12 2405.03C2870.18 2363.19 2827.97 2179.72 2768.38 2133.59C2733.27 2106.35 2702.84 2073.56 2678.3 2036.52C2618.38 1946.15 2596.8 1835.69 2618.31 1729.39C2639.81 1623.1 2702.64 1529.67 2792.98 1469.64C2837.73 1439.92 2887.91 1419.3 2940.63 1408.97C2993.36 1398.64 3047.6 1398.81 3100.25 1409.45C3152.9 1420.1 3202.94 1441.02 3247.49 1471.02C3292.05 1501.02 3330.25 1539.5 3359.92 1584.28C3385.18 1622.25 3403.88 1664.19 3415.24 1708.36C3434.02 1781.33 3583.98 1890 3646.76 1848.35L4038.22 1588.62C4049.98 1580.99 4059.02 1569.83 4064.04 1556.75C4069.05 1543.66 4069.78 1529.32 4066.12 1515.8C4035.43 1406.87 3987.88 1303.43 3925.21 1209.21C3846.28 1090.25 3744.68 988.016 3626.21 908.344C3507.74 828.673 3374.72 773.127 3234.76 744.881C3094.79 716.634 2950.62 716.241 2810.49 743.723C2670.35 771.205 2537 826.023 2418.04 905.047C2299.1 983.952 2196.87 1085.51 2117.19 1203.92C2037.51 1322.34 1981.94 1455.28 1953.66 1595.16C1925.38 1735.03 1924.94 1879.1 1952.37 2019.13C1979.8 2159.16 2034.56 2292.4 2113.52 2411.25C2176.04 2505.54 2252.87 2589.51 2341.25 2660.15C2352.3 2668.79 2365.81 2673.7 2379.84 2674.17C2393.86 2674.64 2407.68 2670.65 2419.29 2662.77L2807.12 2405.03Z" fill="url(#paint1_linear_355:72592)" fill-opacity="0.4"/>
<path d="M3033.63 1100.86C2938.88 1100.83 2845.05 1119.47 2757.51 1155.72C2669.97 1191.96 2590.42 1245.1 2523.42 1312.1C2456.42 1379.1 2403.28 1458.65 2367.04 1546.19C2330.79 1633.73 2312.15 1727.56 2312.18 1822.31C2312.16 1917.06 2330.81 2010.88 2367.06 2098.42C2403.31 2185.96 2456.45 2265.5 2523.44 2332.49C2590.44 2399.49 2669.98 2452.63 2757.52 2488.88C2845.06 2525.13 2938.88 2543.78 3033.63 2543.76C3128.37 2543.76 3222.18 2525.1 3309.7 2488.84C3397.23 2452.58 3476.76 2399.44 3543.74 2332.45C3610.73 2265.45 3663.87 2185.92 3700.12 2098.39C3736.36 2010.86 3755.02 1917.05 3755.01 1822.31C3755.02 1727.57 3736.38 1633.75 3700.13 1546.22C3663.89 1458.68 3610.76 1379.15 3543.77 1312.15C3476.78 1245.15 3397.25 1192.01 3309.72 1155.76C3222.19 1119.51 3128.37 1100.85 3033.63 1100.86V1100.86ZM3033.63 2093.62C2961.67 2093.6 2892.67 2065.01 2841.78 2014.14C2790.89 1963.26 2762.29 1894.26 2762.25 1822.31C2762.29 1750.35 2790.89 1681.34 2841.78 1630.46C2892.66 1579.57 2961.67 1550.97 3033.63 1550.93C3105.59 1550.97 3174.58 1579.57 3225.45 1630.46C3276.33 1681.35 3304.92 1750.35 3304.94 1822.31C3304.92 1894.26 3276.33 1963.26 3225.45 2014.13C3174.57 2065.01 3105.58 2093.6 3033.63 2093.62V2093.62Z" fill="url(#paint2_linear_355:72592)"/>
<path d="M2614.88 2552.55L2796.63 2217.64C2800.67 2210.56 2807.14 2205.2 2814.84 2202.52C2822.54 2199.85 2830.94 2200.05 2838.5 2203.1C2906.63 2233.84 2981.43 2246.87 3055.94 2240.97C3064.21 2240.22 3072.46 2242.63 3079.03 2247.71C3085.6 2252.8 3090 2260.18 3091.34 2268.38L3149.5 2645.17C3150.14 2649.46 3149.92 2653.84 3148.84 2658.05C3147.77 2662.26 3145.86 2666.21 3143.23 2669.66C3140.6 2673.12 3137.3 2676.01 3133.53 2678.18C3129.77 2680.34 3125.61 2681.72 3121.29 2682.25C2952.84 2701.5 2782.39 2671.98 2630.22 2597.19C2626.11 2595.46 2622.42 2592.89 2619.37 2589.64C2616.33 2586.38 2614 2582.52 2612.55 2578.31C2611.11 2574.09 2610.56 2569.62 2610.97 2565.18C2611.37 2560.74 2612.7 2556.44 2614.88 2552.55Z" fill="url(#paint3_linear_355:72592)" fill-opacity="0.8"/>
<path d="M3617.17 1048.08C3502.89 1078.7 3474.13 1371.59 3539.49 1469.62C3577.96 1527.45 3606.73 1591.18 3624.67 1658.28C3668.48 1822.02 3645.48 1996.46 3560.72 2143.28C3475.95 2290.1 3336.35 2397.28 3172.6 2441.27C3091.48 2463.05 3006.87 2468.63 2923.6 2457.7C2840.33 2446.76 2760.03 2419.53 2687.3 2377.55C2614.57 2335.56 2550.83 2279.66 2499.74 2213.03C2448.64 2146.41 2411.18 2070.36 2389.5 1989.25C2370.96 1920.41 2364.12 1848.94 2369.27 1777.83C2377.76 1660.35 2209.61 1424.68 2095.85 1455.16L1386.48 1645.24C1365.26 1650.68 1346.31 1662.72 1332.37 1679.62C1318.42 1696.52 1310.21 1717.4 1308.9 1739.27C1300.17 1915.95 1319.15 2092.91 1365.13 2263.72C1422.89 2479.29 1522.58 2681.36 1658.49 2858.38C1794.4 3035.41 1963.88 3183.92 2157.23 3295.44C2350.59 3406.95 2564.04 3479.28 2785.38 3508.3C3006.72 3537.32 3231.62 3522.45 3447.23 3464.54C3662.76 3406.81 3864.8 3307.18 4041.81 3171.36C4218.82 3035.54 4367.33 2866.19 4478.85 2672.98C4590.37 2479.77 4662.72 2266.49 4691.76 2045.33C4720.8 1824.17 4705.97 1599.47 4648.1 1384.06C4602.38 1213.21 4530.32 1050.53 4434.5 901.876C4422.43 883.568 4404.85 869.566 4384.3 861.889C4363.75 854.212 4341.29 853.256 4320.16 859.158L3617.17 1048.08Z" fill="url(#paint4_linear_355:72592)" fill-opacity="0.4"/>
<path d="M1672.59 1993.3C1812.7 2073.89 2123 1818.23 2154.31 1660.34C2172.86 1567.28 2206.48 1477.87 2253.85 1395.64C2369.37 1194.95 2559.86 1048.34 2783.48 988.034C3007.1 927.728 3245.54 958.654 3446.42 1074.02C3545.91 1131.18 3633.17 1207.38 3703.19 1298.27C3773.22 1389.16 3824.65 1492.96 3854.53 1603.73C3884.42 1714.49 3892.17 1830.05 3877.36 1943.8C3862.54 2057.55 3825.44 2167.26 3768.18 2266.65C3719.73 2351.14 3657.43 2426.89 3583.87 2490.73C3462.34 2596.22 3397.75 2986.42 3537.22 3066.65L4406.93 3566.88C4432.71 3582.09 4462.66 3588.71 4492.45 3585.81C4522.23 3582.9 4550.33 3570.62 4572.68 3550.72C4751.53 3388.18 4903.84 3198.65 5024.08 2989.02C5176.1 2724.74 5274.53 2433.08 5313.75 2130.71C5352.98 1828.34 5332.23 1521.19 5252.69 1226.8C5173.15 932.416 5036.38 656.568 4850.19 415.018C4664 173.467 4432.05 -29.0531 4167.58 -180.97C3903.36 -332.97 3611.78 -431.432 3309.51 -470.73C3007.25 -510.028 2700.22 -489.39 2405.97 -409.997C2111.72 -330.605 1836.01 -194.015 1594.62 -8.02971C1353.22 177.955 1150.86 409.688 999.094 673.926C878.559 883.329 791.393 1110.24 740.735 1346.49C734.76 1375.85 738.266 1406.35 750.744 1433.6C763.222 1460.84 784.031 1483.43 810.168 1498.1L1672.59 1993.3Z" fill="url(#paint5_linear_355:72592)" fill-opacity="0.2"/>
<path d="M3816.28 1399.57C3857.11 1480.63 3885.07 1567.55 3899.16 1657.21C3899.88 1661.58 3899.68 1666.05 3898.58 1670.34C3897.48 1674.64 3895.5 1678.65 3892.76 1682.14C3890.03 1685.62 3886.6 1688.5 3882.7 1690.59C3878.79 1692.68 3874.49 1693.94 3870.08 1694.29L3490.82 1736.09C3482.75 1737.12 3474.59 1735.03 3468.01 1730.24C3461.43 1725.46 3456.92 1718.35 3455.41 1710.35C3447.78 1671.53 3435.05 1633.88 3417.54 1598.4C3382.77 1528.94 3330.29 1469.88 3265.4 1427.2C3200.5 1384.51 3125.49 1359.71 3047.94 1355.3C3039.76 1354.86 3032.02 1351.41 3026.22 1345.61C3020.42 1339.82 3016.97 1332.08 3016.54 1323.89L3006.87 943.031C3006.81 938.637 3007.62 934.274 3009.26 930.195C3010.89 926.115 3013.31 922.398 3016.38 919.257C3019.46 916.116 3023.12 913.613 3027.17 911.891C3031.21 910.17 3035.55 909.264 3039.95 909.227C3201.76 912.387 3359.63 959.745 3496.47 1046.17C3633.31 1132.6 3743.9 1254.81 3816.28 1399.57V1399.57Z" fill="url(#paint6_linear_355:72592)" fill-opacity="0.8"/>
<path d="M3353.29 2591.22L3202.51 2241.77C3200.8 2237.96 3199.85 2233.86 3199.73 2229.69C3199.61 2225.52 3200.31 2221.37 3201.81 2217.48C3203.3 2213.58 3205.55 2210.02 3208.43 2207C3211.31 2203.99 3214.76 2201.57 3218.58 2199.89C3279.62 2169.49 3332.73 2125.28 3373.69 2070.76C3414.66 2016.24 3442.34 1952.93 3454.55 1885.84C3456.04 1877.72 3460.48 1870.43 3467.01 1865.38C3473.55 1860.33 3481.72 1857.89 3489.96 1858.5L3870.02 1893.11C3874.44 1893.51 3878.73 1894.8 3882.65 1896.9C3886.56 1899 3890.01 1901.86 3892.79 1905.32C3895.57 1908.78 3897.63 1912.77 3898.83 1917.04C3900.04 1921.31 3900.38 1925.78 3899.83 1930.18C3879.7 2072.25 3825.35 2207.31 3741.47 2323.72C3657.58 2440.14 3546.67 2534.43 3418.28 2598.49C3411.01 2601.69 3403.74 2605.76 3396.47 2608.96C3388.39 2612.3 3379.31 2612.3 3371.23 2608.98C3363.14 2605.66 3356.69 2599.28 3353.29 2591.22V2591.22Z" fill="url(#paint7_linear_355:72592)" fill-opacity="0.8"/>
</g>
<defs>
<linearGradient id="paint0_linear_355:72592" x1="1425.98" y1="3380.77" x2="1400.94" y2="-1302.22" gradientUnits="userSpaceOnUse">
<stop offset="0.438891" stop-color="#E8E7FB"/>
<stop offset="0.936231" stop-color="#CCCAFA"/>
</linearGradient>
<linearGradient id="paint1_linear_355:72592" x1="2463.55" y1="1139.65" x2="3115.47" y2="1926.83" gradientUnits="userSpaceOnUse">
<stop stop-color="#BCA8F8"/>
<stop offset="1" stop-color="#28AFEA" stop-opacity="0.6"/>
</linearGradient>
<linearGradient id="paint2_linear_355:72592" x1="3309.88" y1="1493.57" x2="2845.27" y2="2046.36" gradientUnits="userSpaceOnUse">
<stop stop-color="#7C64CD" stop-opacity="0.8"/>
<stop offset="1" stop-color="#CCAFEF"/>
</linearGradient>
<linearGradient id="paint3_linear_355:72592" x1="2880.35" y1="2644.54" x2="2950.01" y2="2200.66" gradientUnits="userSpaceOnUse">
<stop stop-color="#AF94DE"/>
<stop offset="1" stop-color="#BCE4FF"/>
</linearGradient>
<linearGradient id="paint4_linear_355:72592" x1="3496.55" y1="3094.24" x2="2922.24" y2="1603.27" gradientUnits="userSpaceOnUse">
<stop stop-color="#BCA8F8"/>
<stop offset="1" stop-color="#28AFEA" stop-opacity="0.6"/>
</linearGradient>
<linearGradient id="paint5_linear_355:72592" x1="3762.72" y1="129.768" x2="2880.46" y2="2126.33" gradientUnits="userSpaceOnUse">
<stop stop-color="#BCA8F8"/>
<stop offset="1" stop-color="#28AFEA" stop-opacity="0.6"/>
</linearGradient>
<linearGradient id="paint6_linear_355:72592" x1="3376.14" y1="1579.2" x2="3455.85" y2="1021.85" gradientUnits="userSpaceOnUse">
<stop stop-color="#AF94DE"/>
<stop offset="1" stop-color="#BCE4FF"/>
</linearGradient>
<linearGradient id="paint7_linear_355:72592" x1="3549.9" y1="2462.8" x2="3719.89" y2="1741.56" gradientUnits="userSpaceOnUse">
<stop stop-color="#AF94DE"/>
<stop offset="1" stop-color="#BCE4FF"/>
</linearGradient>
<clipPath id="clip0_355:72592">
<rect width="6016" height="3384" fill="white" transform="translate(0.741211)"/>
</clipPath>
</defs>
</svg>
