<svg width="6017" height="3385" viewBox="0 0 6017 3385" fill="none" xmlns="http://www.w3.org/2000/svg">
<g clip-path="url(#clip0_355:72581)">
<rect width="6016" height="3384" transform="translate(0.741211 0.820312)" fill="white"/>
<rect x="0.741211" y="0.820312" width="6010.26" height="3380.77" fill="url(#paint0_linear_355:72581)"/>
<path d="M2807.12 2405.85C2870.18 2364.01 2827.97 2180.55 2768.38 2134.41C2733.27 2107.17 2702.84 2074.39 2678.3 2037.35C2618.38 1946.98 2596.8 1836.51 2618.31 1730.22C2639.81 1623.92 2702.64 1530.5 2792.98 1470.47C2837.73 1440.74 2887.91 1420.12 2940.63 1409.8C2993.36 1399.47 3047.6 1399.63 3100.25 1410.28C3152.9 1420.92 3202.94 1441.84 3247.49 1471.84C3292.05 1501.84 3330.25 1540.33 3359.92 1585.1C3385.18 1623.07 3403.88 1665.01 3415.24 1709.18C3434.02 1782.16 3583.98 1890.83 3646.76 1849.17L4038.22 1589.44C4049.98 1581.82 4059.02 1570.66 4064.04 1557.57C4069.05 1544.48 4069.78 1530.15 4066.12 1516.62C4035.43 1407.7 3987.88 1304.25 3925.21 1210.03C3846.28 1091.08 3744.68 988.84 3626.21 909.168C3507.74 829.497 3374.72 773.951 3234.76 745.705C3094.79 717.458 2950.62 717.065 2810.49 744.547C2670.35 772.029 2537 826.848 2418.04 905.871C2299.1 984.776 2196.87 1086.34 2117.19 1204.75C2037.51 1323.16 1981.94 1456.1 1953.66 1595.98C1925.38 1735.86 1924.94 1879.93 1952.37 2019.96C1979.8 2159.99 2034.56 2293.23 2113.52 2412.07C2176.04 2506.36 2252.87 2590.34 2341.25 2660.97C2352.3 2669.61 2365.81 2674.52 2379.84 2675C2393.86 2675.47 2407.68 2671.47 2419.29 2663.59L2807.12 2405.85Z" fill="url(#paint1_linear_355:72581)" fill-opacity="0.4"/>
<path d="M3033.63 1101.69C2938.88 1101.66 2845.05 1120.3 2757.51 1156.55C2669.97 1192.79 2590.42 1245.93 2523.42 1312.93C2456.42 1379.93 2403.28 1459.47 2367.04 1547.02C2330.79 1634.56 2312.15 1728.39 2312.18 1823.14C2312.16 1917.88 2330.81 2011.71 2367.06 2099.25C2403.31 2186.79 2456.45 2266.33 2523.44 2333.32C2590.44 2400.32 2669.98 2453.46 2757.52 2489.71C2845.06 2525.96 2938.88 2544.61 3033.63 2544.59C3128.37 2544.59 3222.18 2525.93 3309.7 2489.67C3397.23 2453.41 3476.76 2400.27 3543.74 2333.27C3610.73 2266.28 3663.87 2186.75 3700.12 2099.22C3736.36 2011.69 3755.02 1917.88 3755.01 1823.14C3755.02 1728.4 3736.38 1634.58 3700.13 1547.04C3663.89 1459.51 3610.75 1379.97 3543.77 1312.98C3476.78 1245.98 3397.25 1192.84 3309.72 1156.59C3222.19 1120.33 3128.37 1101.68 3033.63 1101.69V1101.69ZM3033.63 2094.44C2961.67 2094.42 2892.67 2065.84 2841.78 2014.96C2790.89 1964.09 2762.29 1895.09 2762.25 1823.14C2762.29 1751.17 2790.89 1682.17 2841.78 1631.29C2892.66 1580.4 2961.67 1551.8 3033.63 1551.76C3105.58 1551.8 3174.58 1580.4 3225.45 1631.29C3276.33 1682.18 3304.92 1751.18 3304.94 1823.14C3304.92 1895.09 3276.33 1964.08 3225.45 2014.96C3174.57 2065.84 3105.58 2094.42 3033.63 2094.44V2094.44Z" fill="url(#paint2_linear_355:72581)"/>
<path d="M2614.88 2553.38L2796.63 2218.46C2800.67 2211.39 2807.14 2206.02 2814.84 2203.35C2822.54 2200.68 2830.94 2200.88 2838.5 2203.92C2906.63 2234.67 2981.43 2247.7 3055.94 2241.8C3064.21 2241.05 3072.46 2243.46 3079.03 2248.54C3085.6 2253.63 3090 2261.01 3091.34 2269.21L3149.5 2646C3150.14 2650.29 3149.92 2654.67 3148.84 2658.88C3147.77 2663.09 3145.86 2667.04 3143.23 2670.49C3140.6 2673.95 3137.3 2676.84 3133.53 2679C3129.77 2681.16 3125.61 2682.55 3121.29 2683.07C2952.84 2702.33 2782.39 2672.81 2630.22 2598.02C2626.11 2596.29 2622.42 2593.72 2619.37 2590.46C2616.33 2587.21 2614 2583.35 2612.55 2579.14C2611.11 2574.92 2610.56 2570.45 2610.97 2566.01C2611.37 2561.57 2612.7 2557.27 2614.88 2553.38Z" fill="url(#paint3_linear_355:72581)" fill-opacity="0.8"/>
<path d="M3617.17 1048.91C3502.89 1079.53 3474.13 1372.41 3539.49 1470.44C3577.96 1528.28 3606.73 1592.01 3624.67 1659.11C3668.48 1822.85 3645.48 1997.29 3560.71 2144.11C3475.95 2290.92 3336.35 2398.1 3172.6 2442.1C3091.48 2463.88 3006.87 2469.46 2923.6 2458.53C2840.33 2447.59 2760.03 2420.35 2687.3 2378.37C2614.57 2336.39 2550.83 2280.49 2499.74 2213.86C2448.64 2147.23 2411.18 2071.19 2389.5 1990.07C2370.96 1921.23 2364.12 1849.77 2369.27 1778.66C2377.76 1661.18 2209.61 1425.51 2095.85 1455.99L1386.48 1646.06C1365.26 1651.51 1346.31 1663.55 1332.37 1680.45C1318.42 1697.34 1310.21 1718.23 1308.9 1740.09C1300.17 1916.78 1319.15 2093.74 1365.13 2264.55C1422.89 2480.12 1522.58 2682.19 1658.49 2859.21C1794.4 3036.24 1963.88 3184.75 2157.23 3296.27C2350.59 3407.78 2564.04 3480.11 2785.38 3509.13C3006.72 3538.14 3231.62 3523.28 3447.23 3465.37C3662.76 3407.64 3864.8 3308.01 4041.81 3172.19C4218.82 3036.37 4367.33 2867.02 4478.85 2673.81C4590.37 2480.6 4662.72 2267.32 4691.76 2046.16C4720.8 1825 4705.97 1600.29 4648.1 1384.88C4602.38 1214.04 4530.32 1051.36 4434.5 902.703C4422.43 884.395 4404.85 870.394 4384.3 862.717C4363.75 855.039 4341.29 854.083 4320.16 859.986L3617.17 1048.91Z" fill="url(#paint4_linear_355:72581)" fill-opacity="0.6"/>
<path d="M1672.59 1994.12C1812.7 2074.71 2123 1819.05 2154.31 1661.17C2172.86 1568.1 2206.48 1478.69 2253.85 1396.46C2369.37 1195.77 2559.86 1049.16 2783.48 988.859C3007.1 928.552 3245.54 959.478 3446.42 1074.84C3545.91 1132 3633.17 1208.21 3703.19 1299.1C3773.22 1389.99 3824.65 1493.79 3854.53 1604.55C3884.42 1715.32 3892.17 1830.88 3877.36 1944.63C3862.54 2058.38 3825.44 2168.09 3768.18 2267.48C3719.73 2351.97 3657.43 2427.71 3583.87 2491.56C3462.34 2597.04 3397.75 2987.25 3537.22 3067.47L4406.93 3567.71C4432.71 3582.91 4462.66 3589.53 4492.45 3586.63C4522.23 3583.73 4550.33 3571.44 4572.68 3551.55C4751.53 3389 4903.84 3199.48 5024.08 2989.85C5176.1 2725.56 5274.53 2433.9 5313.75 2131.53C5352.98 1829.16 5332.23 1522.01 5252.69 1227.63C5173.15 933.24 5036.38 657.393 4850.19 415.842C4664 174.291 4432.05 -28.2289 4167.58 -180.145C3903.36 -332.145 3611.78 -430.607 3309.51 -469.905C3007.25 -509.203 2700.22 -488.565 2405.97 -409.173C2111.72 -329.781 1836.01 -193.19 1594.62 -7.20549C1353.22 178.779 1150.86 410.512 999.094 674.75C878.559 884.153 791.393 1111.06 740.735 1347.31C734.76 1376.67 738.266 1407.18 750.744 1434.42C763.222 1461.67 784.031 1484.25 810.168 1498.92L1672.59 1994.12Z" fill="url(#paint5_linear_355:72581)" fill-opacity="0.6"/>
<path d="M3816.28 1400.4C3857.11 1481.46 3885.07 1568.38 3899.16 1658.04C3899.88 1662.41 3899.68 1666.88 3898.58 1671.17C3897.48 1675.46 3895.5 1679.48 3892.76 1682.96C3890.03 1686.45 3886.6 1689.33 3882.7 1691.42C3878.79 1693.51 3874.49 1694.77 3870.08 1695.11L3490.82 1736.92C3482.75 1737.95 3474.59 1735.86 3468.01 1731.07C3461.43 1726.29 3456.92 1719.17 3455.41 1711.18C3447.78 1672.35 3435.05 1634.71 3417.54 1599.23C3382.77 1529.77 3330.29 1470.71 3265.4 1428.03C3200.5 1385.34 3125.49 1360.54 3047.94 1356.13C3039.76 1355.69 3032.02 1352.24 3026.22 1346.44C3020.42 1340.65 3016.97 1332.91 3016.54 1324.72L3006.87 943.859C3006.81 939.465 3007.62 935.103 3009.26 931.023C3010.89 926.943 3013.31 923.226 3016.38 920.085C3019.46 916.944 3023.12 914.441 3027.17 912.72C3031.21 910.998 3035.55 910.093 3039.95 910.055C3201.76 913.216 3359.63 960.573 3496.47 1047C3633.31 1133.43 3743.9 1255.64 3816.28 1400.4V1400.4Z" fill="url(#paint6_linear_355:72581)" fill-opacity="0.8"/>
<path d="M3353.29 2592.04L3202.51 2242.59C3200.8 2238.78 3199.85 2234.68 3199.73 2230.51C3199.61 2226.34 3200.31 2222.19 3201.81 2218.3C3203.3 2214.4 3205.55 2210.84 3208.43 2207.83C3211.31 2204.81 3214.76 2202.39 3218.58 2200.71C3279.62 2170.31 3332.73 2126.1 3373.69 2071.58C3414.66 2017.07 3442.34 1953.75 3454.55 1886.66C3456.04 1878.54 3460.48 1871.25 3467.01 1866.2C3473.55 1861.16 3481.72 1858.71 3489.96 1859.32L3870.02 1893.93C3874.44 1894.33 3878.73 1895.62 3882.65 1897.72C3886.56 1899.82 3890.01 1902.68 3892.79 1906.14C3895.57 1909.6 3897.63 1913.59 3898.83 1917.86C3900.04 1922.13 3900.38 1926.6 3899.83 1931C3879.7 2073.07 3825.35 2208.13 3741.47 2324.54C3657.58 2440.96 3546.67 2535.25 3418.28 2599.31C3411.01 2602.51 3403.74 2606.58 3396.47 2609.78C3388.39 2613.12 3379.31 2613.12 3371.23 2609.8C3363.14 2606.48 3356.69 2600.1 3353.29 2592.04V2592.04Z" fill="url(#paint7_linear_355:72581)" fill-opacity="0.8"/>
</g>
<defs>
<linearGradient id="paint0_linear_355:72581" x1="1328.14" y1="276.291" x2="1415.78" y2="3894.97" gradientUnits="userSpaceOnUse">
<stop offset="0.438891" stop-color="#3D2876"/>
<stop offset="0.936231" stop-color="#CCCAFA"/>
</linearGradient>
<linearGradient id="paint1_linear_355:72581" x1="2463.55" y1="1140.47" x2="3115.47" y2="1927.65" gradientUnits="userSpaceOnUse">
<stop stop-color="#BCA8F8"/>
<stop offset="1" stop-color="#28AFEA" stop-opacity="0.6"/>
</linearGradient>
<linearGradient id="paint2_linear_355:72581" x1="3530.25" y1="1188.67" x2="2853.45" y2="2279.07" gradientUnits="userSpaceOnUse">
<stop stop-color="#311F6E" stop-opacity="0.8"/>
<stop offset="1" stop-color="#AB8AD3"/>
</linearGradient>
<linearGradient id="paint3_linear_355:72581" x1="2934.74" y1="2370.75" x2="2722" y2="2626.98" gradientUnits="userSpaceOnUse">
<stop stop-color="#C8B3F0"/>
<stop offset="1" stop-color="#66B7ED"/>
</linearGradient>
<linearGradient id="paint4_linear_355:72581" x1="3496.55" y1="3095.07" x2="2164.33" y2="248.566" gradientUnits="userSpaceOnUse">
<stop stop-color="#BCA8F8"/>
<stop offset="1" stop-color="#2876EA" stop-opacity="0.6"/>
</linearGradient>
<linearGradient id="paint5_linear_355:72581" x1="3762.72" y1="130.592" x2="2126.23" y2="4158.94" gradientUnits="userSpaceOnUse">
<stop stop-color="#9C84E3"/>
<stop offset="1" stop-color="#1F39BD" stop-opacity="0.4"/>
</linearGradient>
<linearGradient id="paint6_linear_355:72581" x1="3543.3" y1="1197.36" x2="3180.69" y2="1623.51" gradientUnits="userSpaceOnUse">
<stop stop-color="#C8B3F0"/>
<stop offset="1" stop-color="#66B7ED"/>
</linearGradient>
<linearGradient id="paint7_linear_355:72581" x1="3620.57" y1="2120.81" x2="3286.14" y2="2459.48" gradientUnits="userSpaceOnUse">
<stop stop-color="#C8B3F0"/>
<stop offset="1" stop-color="#66B7ED"/>
</linearGradient>
<clipPath id="clip0_355:72581">
<rect width="6016" height="3384" fill="white" transform="translate(0.741211 0.820312)"/>
</clipPath>
</defs>
</svg>
