<svg width="6017" height="3385" viewBox="0 0 6017 3385" fill="none" xmlns="http://www.w3.org/2000/svg">
<g clip-path="url(#clip0_355:72603)">
<rect width="6016" height="3384" transform="translate(0.741211 0.648438)" fill="white"/>
<rect x="0.741211" y="0.648438" width="6010.26" height="3380.77" fill="#E1DFFC"/>
<rect x="2991.14" y="849.129" width="1516.9" height="1051.48" rx="62.6069" fill="url(#paint0_linear_355:72603)"/>
<rect x="1075.63" y="515.824" width="1808.68" height="1253.74" rx="62.6069" fill="url(#paint1_linear_355:72603)" fill-opacity="0.6"/>
<path d="M2324.6 1729.74C2324.6 1976.37 2244.89 2202.13 2113.32 2377.64C2082.36 2418.61 2111 2476.6 2162.08 2476.6H3001.79C3184.44 2291.04 3298.2 2025.08 3298.2 1728.97C3298.2 1473.83 3213.07 1241.11 3072.22 1062.52L2217.03 1063.29C2169.04 1063.29 2138.86 1116.64 2164.4 1157.61C2265.01 1320.75 2324.6 1517.9 2324.6 1729.74Z" fill="url(#paint2_linear_355:72603)"/>
<path d="M3678.55 2010.39C3678.55 1763.76 3758.26 1538 3889.83 1362.5C3920.79 1321.52 3892.15 1263.54 3841.07 1263.54H3000.59C2818.72 1449.09 2704.17 1715.05 2704.17 2010.39C2704.17 2265.53 2789.31 2498.25 2930.16 2676.85H3785.35C3834.11 2676.85 3863.52 2623.5 3837.98 2582.52C3737.37 2420.16 3678.55 2223.01 3678.55 2010.39Z" fill="url(#paint3_linear_355:72603)" fill-opacity="0.8"/>
<path d="M1641.77 2665.25C1461.22 2478.92 1466.01 2180.64 1652.53 2000.27C1839.05 1819.89 2137.63 1824.69 2318.19 2011.02C2498.74 2197.34 2493.95 2495.62 2307.43 2676C2120.91 2856.37 1822.33 2851.58 1641.77 2665.25Z" fill="url(#paint4_linear_355:72603)"/>
<path d="M4245.3 434.984C4245.3 1292.31 3968.21 2077.08 3510.86 2687.15C3403.25 2829.59 3502.79 3031.16 3680.35 3031.16H6599.29C7234.19 2386.15 7629.66 1461.63 7629.66 432.297C7629.66 -454.595 7333.73 -1263.55 6844.1 -1884.37L3871.36 -1881.68C3704.56 -1881.68 3599.64 -1696.24 3688.42 -1553.8C4038.15 -986.729 4245.3 -301.404 4245.3 434.984Z" fill="url(#paint5_linear_355:72603)" fill-opacity="0.2"/>
</g>
<defs>
<linearGradient id="paint0_linear_355:72603" x1="4428.14" y1="0.650301" x2="2715.34" y2="903.189" gradientUnits="userSpaceOnUse">
<stop stop-color="#AA87E7"/>
<stop offset="1" stop-color="#B9DFF8" stop-opacity="0.2"/>
</linearGradient>
<linearGradient id="paint1_linear_355:72603" x1="668.14" y1="1341.72" x2="2511.06" y2="2325.61" gradientUnits="userSpaceOnUse">
<stop stop-color="#87A2E7"/>
<stop offset="1" stop-color="#B9DFF8" stop-opacity="0.2"/>
</linearGradient>
<linearGradient id="paint2_linear_355:72603" x1="3298.2" y1="1544.91" x2="2067.15" y2="1837.58" gradientUnits="userSpaceOnUse">
<stop stop-color="#391F6E" stop-opacity="0.8"/>
<stop offset="1" stop-color="#81CAFB"/>
</linearGradient>
<linearGradient id="paint3_linear_355:72603" x1="3575.18" y1="2232.01" x2="2801.63" y2="1685.33" gradientUnits="userSpaceOnUse">
<stop stop-color="#BEA6E6"/>
<stop offset="1" stop-color="#66B7ED"/>
</linearGradient>
<linearGradient id="paint4_linear_355:72603" x1="868.677" y1="4111.59" x2="2414.67" y2="4133.73" gradientUnits="userSpaceOnUse">
<stop stop-color="#AA87E7"/>
<stop offset="1" stop-color="#B9DFF8" stop-opacity="0.2"/>
</linearGradient>
<linearGradient id="paint5_linear_355:72603" x1="3926.81" y1="2519.85" x2="5618.81" y2="-463.087" gradientUnits="userSpaceOnUse">
<stop stop-color="#B8A3E5"/>
<stop offset="1" stop-color="#B8A3E5" stop-opacity="0"/>
</linearGradient>
<clipPath id="clip0_355:72603">
<rect width="6016" height="3384" fill="white" transform="translate(0.741211 0.648438)"/>
</clipPath>
</defs>
</svg>
