<svg width="6017" height="3385" viewBox="0 0 6017 3385" fill="none" xmlns="http://www.w3.org/2000/svg">
<g clip-path="url(#clip0_355:72614)">
<rect width="6016" height="3384" transform="translate(0.741211 0.46875)" fill="white"/>
<rect x="0.741211" y="0.46875" width="6010.26" height="3380.77" fill="#3D2876"/>
<rect x="2991.14" y="848.957" width="1516.9" height="1051.48" rx="62.6069" fill="url(#paint0_linear_355:72614)"/>
<rect x="1075.64" y="515.645" width="1808.68" height="1253.74" rx="62.6069" fill="url(#paint1_linear_355:72614)" fill-opacity="0.6"/>
<path d="M2324.6 1729.56C2324.6 1976.2 2244.89 2201.96 2113.32 2377.46C2082.36 2418.44 2111 2476.42 2162.08 2476.42H3001.79C3184.44 2290.87 3298.2 2024.91 3298.2 1728.79C3298.2 1473.65 3213.07 1240.94 3072.22 1062.34L2217.03 1063.11C2169.04 1063.11 2138.86 1116.46 2164.4 1157.44C2265.01 1320.57 2324.6 1517.72 2324.6 1729.56Z" fill="url(#paint2_linear_355:72614)"/>
<path d="M3678.55 2010.22C3678.55 1763.59 3758.26 1537.83 3889.83 1362.33C3920.79 1321.35 3892.15 1263.36 3841.07 1263.36H3000.59C2818.72 1448.92 2704.17 1714.88 2704.17 2010.22C2704.17 2265.36 2789.31 2498.08 2930.16 2676.67H3785.35C3834.11 2676.67 3863.52 2623.33 3837.98 2582.35C3737.37 2419.99 3678.55 2222.84 3678.55 2010.22Z" fill="url(#paint3_linear_355:72614)" fill-opacity="0.8"/>
<path d="M1641.77 2665.07C1461.22 2478.74 1466.01 2180.46 1652.53 2000.09C1839.05 1819.71 2137.63 1824.51 2318.19 2010.84C2498.74 2197.16 2493.95 2495.44 2307.43 2675.82C2120.91 2856.19 1822.33 2851.4 1641.77 2665.07Z" fill="url(#paint4_linear_355:72614)"/>
<path d="M4245.3 434.805C4245.3 1292.13 3968.21 2076.9 3510.86 2686.97C3403.25 2829.41 3502.79 3030.98 3680.35 3030.98H6599.29C7234.19 2385.97 7629.66 1461.45 7629.66 432.117C7629.66 -454.774 7333.73 -1263.73 6844.1 -1884.55L3871.36 -1881.86C3704.56 -1881.86 3599.64 -1696.42 3688.42 -1553.98C4038.15 -986.909 4245.3 -301.584 4245.3 434.805Z" fill="url(#paint5_linear_355:72614)" fill-opacity="0.2"/>
</g>
<defs>
<linearGradient id="paint0_linear_355:72614" x1="4508.04" y1="-520.591" x2="2502.56" y2="567.624" gradientUnits="userSpaceOnUse">
<stop stop-color="#AA87E7"/>
<stop offset="1" stop-color="#B9DFF8" stop-opacity="0.2"/>
</linearGradient>
<linearGradient id="paint1_linear_355:72614" x1="-598.008" y1="2057.65" x2="1907.06" y2="2910.45" gradientUnits="userSpaceOnUse">
<stop stop-color="#87A2E7"/>
<stop offset="1" stop-color="#B9DFF8" stop-opacity="0.2"/>
</linearGradient>
<linearGradient id="paint2_linear_355:72614" x1="3298.2" y1="1544.74" x2="2067.15" y2="1837.41" gradientUnits="userSpaceOnUse">
<stop stop-color="#391F6E" stop-opacity="0.8"/>
<stop offset="1" stop-color="#81CAFB"/>
</linearGradient>
<linearGradient id="paint3_linear_355:72614" x1="3575.18" y1="2231.84" x2="2550.8" y2="1469.44" gradientUnits="userSpaceOnUse">
<stop stop-color="#CAB7EC"/>
<stop offset="1" stop-color="#66B7ED"/>
</linearGradient>
<linearGradient id="paint4_linear_355:72614" x1="-40.958" y1="5479.02" x2="2513.08" y2="5552.91" gradientUnits="userSpaceOnUse">
<stop stop-color="#AA87E7"/>
<stop offset="1" stop-color="#B9DFF8" stop-opacity="0.2"/>
</linearGradient>
<linearGradient id="paint5_linear_355:72614" x1="4064.67" y1="7307.4" x2="5411.27" y2="-547.905" gradientUnits="userSpaceOnUse">
<stop stop-color="#8469B9" stop-opacity="0.8"/>
<stop offset="1" stop-color="#B9E2FE"/>
</linearGradient>
<clipPath id="clip0_355:72614">
<rect width="6016" height="3384" fill="white" transform="translate(0.741211 0.46875)"/>
</clipPath>
</defs>
</svg>
