<svg width="6016" height="3385" viewBox="0 0 6016 3385" fill="none" xmlns="http://www.w3.org/2000/svg">
<rect y="0.648438" width="6010.26" height="3380.77" fill="#D3D5FB"/>
<path d="M4865.38 2748.59H3419.1C3331.37 2748.59 3260.22 2677.44 3260.22 2589.71V1807.93C3260.22 1720.2 3331.37 1649.05 3419.1 1649.05H4865.38C4953.11 1649.05 5024.26 1720.2 5024.26 1807.93V2589.71C5024.26 2677.44 4953.11 2748.59 4865.38 2748.59Z" fill="url(#paint0_linear_355:72537)"/>
<path d="M3076.32 1970.63H1402.24C1300.69 1970.63 1218.33 1888.28 1218.33 1786.73V881.81C1218.33 780.261 1300.69 697.906 1402.24 697.906H3076.32C3177.86 697.906 3260.22 780.261 3260.22 881.81V1786.73C3260.22 1888.28 3177.86 1970.63 3076.32 1970.63Z" fill="url(#paint1_linear_355:72537)" fill-opacity="0.4"/>
<path d="M3824.73 1855.75C4275.79 1855.75 4641.45 1490.09 4641.45 1039.03C4641.45 587.965 4275.79 222.305 3824.73 222.305C3373.66 222.305 3008 587.965 3008 1039.03C3008 1490.09 3373.66 1855.75 3824.73 1855.75Z" fill="url(#paint2_linear_355:72537)" fill-opacity="0.4"/>
<path d="M3817.22 2603.15L2372.54 2342.47C2299.8 2329.29 2246.28 2258.5 2246.28 2175.2V1203.17C2246.28 1120.67 2298.9 1050.21 2370.83 1036.24L3815.51 756.239C3907.16 738.512 3990.86 818.17 3990.86 923.169V2435.88C3990.86 2540.08 3908.37 2619.63 3817.22 2603.15Z" fill="url(#paint3_linear_355:72537)"/>
<path d="M3990.86 2319.87C4051.03 2319.87 4099.8 2271.1 4099.8 2210.93C4099.8 2150.77 4051.03 2102 3990.86 2102C3930.7 2102 3881.93 2150.77 3881.93 2210.93C3881.93 2271.1 3930.7 2319.87 3990.86 2319.87Z" fill="#ECFBFF" fill-opacity="0.4"/>
<path d="M4436.97 2319.87C4497.14 2319.87 4545.91 2271.1 4545.91 2210.93C4545.91 2150.77 4497.14 2102 4436.97 2102C4376.81 2102 4328.04 2150.77 4328.04 2210.93C4328.04 2271.1 4376.81 2319.87 4436.97 2319.87Z" fill="#ECFBFF" fill-opacity="0.4"/>
<path d="M3146.35 2160.3C3056.11 1872.58 2949.51 1665.13 2901.56 1578.96C2886 1551.03 2859.19 1531.41 2827.92 1525.26C2768.95 1513.69 2666.74 1495.9 2617.51 1487.44C2599.16 1484.33 2580.33 1486.96 2563.66 1495.18L2480.28 1535.87C2464.16 1543.69 2446.53 1547.84 2428.57 1547.84H2206.76C2188.81 1547.84 2171.18 1543.77 2155.06 1535.87L2071.68 1495.18C2054.93 1487.04 2036.18 1484.33 2017.82 1487.44C1968.52 1495.9 1866.39 1513.61 1807.42 1525.26C1776.07 1531.41 1749.26 1551.11 1733.78 1578.96C1685.83 1665.13 1579.23 1872.5 1488.99 2160.3C1403.37 2433.25 1521.46 2550.14 1597.18 2595.06C1626.54 2612.46 1663.96 2607.27 1687.74 2582.78L1920.16 2343.65C1967.32 2295.14 2032.11 2267.77 2099.77 2267.77H2535.65C2603.31 2267.77 2668.1 2295.14 2715.25 2343.65L2947.76 2582.78C2971.53 2607.27 3008.96 2612.46 3038.32 2595.06C3113.88 2550.14 3231.96 2433.25 3146.35 2160.3Z" fill="url(#paint4_linear_355:72537)" fill-opacity="0.8"/>
<path d="M1990.25 1972.51C2096.26 1972.51 2182.2 1886.57 2182.2 1780.55C2182.2 1674.54 2096.26 1588.6 1990.25 1588.6C1884.24 1588.6 1798.29 1674.54 1798.29 1780.55C1798.29 1886.57 1884.24 1972.51 1990.25 1972.51Z" fill="#D7CBFE" fill-opacity="0.8"/>
<path d="M2766.02 1941.15C2960.73 1941.15 3118.57 1783.31 3118.57 1588.6C3118.57 1393.89 2960.73 1236.05 2766.02 1236.05C2571.31 1236.05 2413.47 1393.89 2413.47 1588.6C2413.47 1783.31 2571.31 1941.15 2766.02 1941.15Z" fill="#D7CBFE" fill-opacity="0.4"/>
<defs>
<linearGradient id="paint0_linear_355:72537" x1="2960.02" y1="3955.6" x2="6022.87" y2="4033.41" gradientUnits="userSpaceOnUse">
<stop stop-color="#AA87E7"/>
<stop offset="1" stop-color="#B9DFF8" stop-opacity="0.2"/>
</linearGradient>
<linearGradient id="paint1_linear_355:72537" x1="16.281" y1="-487.681" x2="1398.6" y2="1887.9" gradientUnits="userSpaceOnUse">
<stop stop-color="#6E35D1"/>
<stop offset="1" stop-color="#A6D1EE"/>
</linearGradient>
<linearGradient id="paint2_linear_355:72537" x1="3264.74" y1="-2561.01" x2="2047.98" y2="903" gradientUnits="userSpaceOnUse">
<stop stop-color="#6E35D1"/>
<stop offset="1" stop-color="#A6D1EE"/>
</linearGradient>
<linearGradient id="paint3_linear_355:72537" x1="2718.47" y1="2130.87" x2="4110.49" y2="697.633" gradientUnits="userSpaceOnUse">
<stop stop-color="#5B3C9B" stop-opacity="0.8"/>
<stop offset="0.995208" stop-color="#81CAFB"/>
</linearGradient>
<linearGradient id="paint4_linear_355:72537" x1="2462.61" y1="1858.16" x2="2438.03" y2="3345.61" gradientUnits="userSpaceOnUse">
<stop stop-color="#AF94DE"/>
<stop offset="1" stop-color="#66B7ED"/>
</linearGradient>
</defs>
</svg>
