<svg width="6016" height="3385" viewBox="0 0 6016 3385" fill="none" xmlns="http://www.w3.org/2000/svg">
<rect y="0.46875" width="6010.26" height="3380.77" fill="url(#paint0_linear_355:72549)"/>
<path d="M4865.38 2748.41H3419.1C3331.37 2748.41 3260.22 2677.26 3260.22 2589.53V1807.75C3260.22 1720.02 3331.37 1648.87 3419.1 1648.87H4865.38C4953.11 1648.87 5024.26 1720.02 5024.26 1807.75V2589.53C5024.26 2677.26 4953.11 2748.41 4865.38 2748.41Z" fill="url(#paint1_linear_355:72549)"/>
<path d="M3076.32 1970.45H1402.24C1300.69 1970.45 1218.33 1888.1 1218.33 1786.55V881.63C1218.33 780.081 1300.69 697.727 1402.24 697.727H3076.32C3177.86 697.727 3260.22 780.081 3260.22 881.63V1786.55C3260.22 1888.1 3177.86 1970.45 3076.32 1970.45Z" fill="url(#paint2_linear_355:72549)" fill-opacity="0.4"/>
<path d="M3824.73 1855.57C4275.79 1855.57 4641.45 1489.91 4641.45 1038.85C4641.45 587.785 4275.79 222.125 3824.73 222.125C3373.66 222.125 3008 587.785 3008 1038.85C3008 1489.91 3373.66 1855.57 3824.73 1855.57Z" fill="url(#paint3_linear_355:72549)" fill-opacity="0.4"/>
<path d="M3817.22 2602.97L2372.54 2342.29C2299.8 2329.11 2246.28 2258.32 2246.28 2175.02V1202.99C2246.28 1120.49 2298.9 1050.03 2370.83 1036.06L3815.51 756.059C3907.16 738.332 3990.86 817.991 3990.86 922.989V2435.7C3990.86 2539.9 3908.37 2619.45 3817.22 2602.97Z" fill="url(#paint4_linear_355:72549)"/>
<path d="M3990.86 2319.69C4051.03 2319.69 4099.8 2270.92 4099.8 2210.75C4099.8 2150.59 4051.03 2101.82 3990.86 2101.82C3930.7 2101.82 3881.93 2150.59 3881.93 2210.75C3881.93 2270.92 3930.7 2319.69 3990.86 2319.69Z" fill="#ECFBFF" fill-opacity="0.4"/>
<path d="M4436.97 2319.69C4497.14 2319.69 4545.91 2270.92 4545.91 2210.75C4545.91 2150.59 4497.14 2101.82 4436.97 2101.82C4376.81 2101.82 4328.04 2150.59 4328.04 2210.75C4328.04 2270.92 4376.81 2319.69 4436.97 2319.69Z" fill="#ECFBFF" fill-opacity="0.4"/>
<path d="M3146.35 2160.12C3056.11 1872.4 2949.51 1664.95 2901.56 1578.78C2886 1550.85 2859.19 1531.23 2827.92 1525.08C2768.95 1513.51 2666.74 1495.72 2617.51 1487.26C2599.16 1484.15 2580.33 1486.78 2563.66 1495L2480.28 1535.69C2464.16 1543.51 2446.53 1547.66 2428.57 1547.66H2206.76C2188.81 1547.66 2171.18 1543.59 2155.06 1535.69L2071.68 1495C2054.93 1486.86 2036.18 1484.15 2017.82 1487.26C1968.52 1495.72 1866.39 1513.43 1807.42 1525.08C1776.07 1531.23 1749.26 1550.93 1733.78 1578.78C1685.83 1664.95 1579.23 1872.32 1488.99 2160.12C1403.37 2433.07 1521.46 2549.96 1597.18 2594.88C1626.54 2612.28 1663.96 2607.09 1687.74 2582.6L1920.16 2343.47C1967.32 2294.96 2032.11 2267.59 2099.77 2267.59H2535.65C2603.31 2267.59 2668.1 2294.96 2715.25 2343.47L2947.76 2582.6C2971.53 2607.09 3008.96 2612.28 3038.32 2594.88C3113.88 2549.96 3231.96 2433.07 3146.35 2160.12Z" fill="url(#paint5_linear_355:72549)" fill-opacity="0.8"/>
<path d="M1990.25 1972.33C2096.26 1972.33 2182.2 1886.39 2182.2 1780.37C2182.2 1674.36 2096.26 1588.42 1990.25 1588.42C1884.24 1588.42 1798.29 1674.36 1798.29 1780.37C1798.29 1886.39 1884.24 1972.33 1990.25 1972.33Z" fill="#D7CBFE" fill-opacity="0.8"/>
<path d="M2766.02 1940.97C2960.73 1940.97 3118.57 1783.13 3118.57 1588.42C3118.57 1393.71 2960.73 1235.87 2766.02 1235.87C2571.31 1235.87 2413.47 1393.71 2413.47 1588.42C2413.47 1783.13 2571.31 1940.97 2766.02 1940.97Z" fill="#D7CBFE" fill-opacity="0.4"/>
<defs>
<linearGradient id="paint0_linear_355:72549" x1="3005.13" y1="0.46875" x2="3005.13" y2="3381.24" gradientUnits="userSpaceOnUse">
<stop offset="0.50487" stop-color="#4B45AA"/>
<stop offset="1" stop-color="#9380CF"/>
</linearGradient>
<linearGradient id="paint1_linear_355:72549" x1="2960.02" y1="3955.42" x2="6022.87" y2="4033.23" gradientUnits="userSpaceOnUse">
<stop offset="0.279108" stop-color="#AA87E7" stop-opacity="0.4"/>
<stop offset="1" stop-color="#B9DFF8" stop-opacity="0.2"/>
</linearGradient>
<linearGradient id="paint2_linear_355:72549" x1="16.2811" y1="-487.86" x2="1834.17" y2="2421.53" gradientUnits="userSpaceOnUse">
<stop offset="0.560635" stop-color="#9F7DDB"/>
<stop offset="0.964825" stop-color="#A6D1EE" stop-opacity="0.45"/>
</linearGradient>
<linearGradient id="paint3_linear_355:72549" x1="3264.74" y1="-2561.19" x2="2047.98" y2="902.82" gradientUnits="userSpaceOnUse">
<stop stop-color="#6E35D1"/>
<stop offset="1" stop-color="#A6D1EE"/>
</linearGradient>
<linearGradient id="paint4_linear_355:72549" x1="2718.47" y1="2130.69" x2="4110.49" y2="697.453" gradientUnits="userSpaceOnUse">
<stop stop-color="#5B3C9B" stop-opacity="0.8"/>
<stop offset="0.995208" stop-color="#81CAFB"/>
</linearGradient>
<linearGradient id="paint5_linear_355:72549" x1="2462.61" y1="1857.98" x2="2438.03" y2="3345.43" gradientUnits="userSpaceOnUse">
<stop stop-color="#AF94DE"/>
<stop offset="1" stop-color="#66B7ED"/>
</linearGradient>
</defs>
</svg>
