<svg width="6016" height="3384" viewBox="0 0 6016 3384" fill="none" xmlns="http://www.w3.org/2000/svg">
<rect width="6016" height="3384" fill="white"/>
<path d="M0 0H6010.26V3380.77H0V0Z" fill="#CED6FA"/>
<path d="M4096.84 1954.01C4436.39 1954.01 4711.65 1678.76 4711.65 1339.2C4711.65 999.658 4436.39 724.398 4096.84 724.398C3757.29 724.398 3482.03 999.658 3482.03 1339.2C3482.03 1678.76 3757.29 1954.01 4096.84 1954.01Z" fill="url(#paint0_linear_355:72572)" fill-opacity="0.8"/>
<path d="M1584.17 1339.21H1202.36C1042.88 1339.21 912.385 1469.7 912.385 1629.19V2031.93C912.385 2191.42 1042.88 2321.91 1202.36 2321.91H1584.17C1743.66 2321.91 1874.15 2191.42 1874.15 2031.93V1629.19C1874.15 1469.7 1743.66 1339.21 1584.17 1339.21Z" fill="url(#paint1_linear_355:72572)" fill-opacity="0.4"/>
<path d="M2964.31 3037.92H1961.5C1818.66 3037.92 1701.78 2921.05 1701.78 2778.2V1046.74C1701.78 903.889 1818.66 787.016 1961.5 787.016H2964.31C3107.15 787.016 3224.03 903.889 3224.03 1046.74V2778.2C3224.03 2922.49 3108.6 3037.92 2964.31 3037.92Z" fill="url(#paint2_linear_355:72572)"/>
<path d="M4034.81 1600.74H2640.02C2503.03 1600.74 2390.95 1712.82 2390.95 1849.81V2505.69C2390.95 2642.68 2503.03 2754.76 2640.02 2754.76H4034.81C4171.8 2754.76 4283.88 2642.68 4283.88 2505.69V1849.81C4283.88 1712.82 4171.8 1600.74 4034.81 1600.74Z" fill="url(#paint3_linear_355:72572)" fill-opacity="0.8"/>
<path d="M3130.8 2499.48C3130.8 2508.19 3123.62 2515.24 3114.92 2514.95C2882.63 2507.29 2766.49 2381.25 2766.49 2139.07V1777.14C2766.49 1622.9 2716.79 1537.81 2621.52 1523.91C2613.37 1522.72 2606.95 1515.97 2606.95 1507.74V1355.72C2606.95 1347.61 2613.19 1340.92 2621.19 1339.63C2718.75 1323.93 2766.49 1238.59 2766.49 1079.47V724.688C2766.49 482.507 2882.63 354.194 3114.92 346.431C3123.62 346.14 3130.8 353.192 3130.8 361.896V521.264C3130.8 529.776 3123.95 536.657 3115.47 537.444C3016.38 546.652 2968.88 624.94 2968.88 772.31V1119.95C2968.88 1283.32 2902.96 1387.84 2768.78 1426.47C2767.44 1426.85 2766.49 1428.08 2766.49 1429.48V1429.48C2766.49 1430.89 2767.46 1432.14 2768.83 1432.5C2902.98 1468.78 2968.88 1570.95 2968.88 1736.66V2079.54C2968.88 2167.65 2980.79 2231.94 3004.6 2267.65C3026.36 2302.47 3064.03 2321.38 3115.79 2326.19C3124.15 2326.97 3130.8 2333.82 3130.8 2342.22V2499.48Z" fill="url(#paint4_linear_355:72572)" fill-opacity="0.8"/>
<path d="M1427.03 1915.85C1388.49 1915.85 1353.8 1902.07 1326.82 1874.5C1299.85 1846.93 1284.43 1815.92 1284.43 1778.01C1284.43 1740.1 1299.85 1709.09 1326.82 1681.52C1353.8 1653.95 1388.49 1640.17 1427.03 1640.17C1465.57 1640.17 1500.26 1653.95 1527.24 1681.52C1554.22 1709.09 1569.64 1740.1 1569.64 1778.01C1569.64 1815.92 1554.22 1846.93 1527.24 1874.5C1500.26 1902.07 1469.43 1915.85 1427.03 1915.85ZM1427.03 2715.33C1388.49 2715.33 1353.8 2701.55 1326.82 2673.98C1299.85 2646.41 1284.43 2615.4 1284.43 2577.49C1284.43 2539.58 1299.85 2508.57 1326.82 2481C1353.8 2453.43 1388.49 2439.65 1427.03 2439.65C1465.57 2439.65 1500.26 2453.43 1527.24 2481C1554.22 2508.57 1569.64 2539.58 1569.64 2577.49C1569.64 2615.4 1554.22 2646.41 1527.24 2673.98C1500.26 2701.55 1469.43 2715.33 1427.03 2715.33Z" fill="#E4E8F7" fill-opacity="0.6"/>
<path d="M5116.15 1914.63C5116.15 1920.66 5112.69 1926.15 5107.26 1928.75L3979.24 2469.06C3968.85 2474.04 3956.82 2466.47 3956.82 2454.95V2241.56C3956.82 2235.36 3960.48 2229.75 3966.14 2227.25L4799.84 1858.31C4802.61 1857.08 4804.4 1854.34 4804.4 1851.31V1851.31C4804.4 1848.39 4802.75 1845.73 4800.13 1844.44L3965.54 1431.94C3960.2 1429.3 3956.82 1423.87 3956.82 1417.91V1204.91C3956.82 1193.19 3969.24 1185.63 3979.66 1191.01L5107.68 1773.98C5112.88 1776.67 5116.15 1782.03 5116.15 1787.88V1914.63Z" fill="url(#paint5_linear_355:72572)" fill-opacity="0.6"/>
<defs>
<linearGradient id="paint0_linear_355:72572" x1="3482.03" y1="1457.6" x2="4943.78" y2="1339.21" gradientUnits="userSpaceOnUse">
<stop stop-color="#B0ACEE"/>
<stop offset="1" stop-color="#D7CBFE" stop-opacity="0.4"/>
</linearGradient>
<linearGradient id="paint1_linear_355:72572" x1="1393.27" y1="2553.56" x2="1303.61" y2="1297.64" gradientUnits="userSpaceOnUse">
<stop stop-color="#6E35D1"/>
<stop offset="1" stop-color="#A6D1EE"/>
</linearGradient>
<linearGradient id="paint2_linear_355:72572" x1="2462.9" y1="22.1135" x2="2926.2" y2="3269.09" gradientUnits="userSpaceOnUse">
<stop stop-color="#391F6E"/>
<stop offset="1" stop-color="#81CAFB"/>
</linearGradient>
<linearGradient id="paint3_linear_355:72572" x1="3497.2" y1="1984.32" x2="3060.26" y2="2764.85" gradientUnits="userSpaceOnUse">
<stop stop-color="#A284D4"/>
<stop offset="1" stop-color="#8ECEFA"/>
</linearGradient>
<linearGradient id="paint4_linear_355:72572" x1="2868.88" y1="346.09" x2="2868.88" y2="2515.29" gradientUnits="userSpaceOnUse">
<stop stop-color="#B696EE"/>
<stop offset="1" stop-color="white" stop-opacity="0.4"/>
</linearGradient>
<linearGradient id="paint5_linear_355:72572" x1="5116.15" y1="1829.5" x2="3093.63" y2="1829.5" gradientUnits="userSpaceOnUse">
<stop stop-color="#6CB7ED"/>
<stop offset="1" stop-color="#6CB7ED" stop-opacity="0"/>
</linearGradient>
</defs>
</svg>
