<svg width="6016" height="3385" viewBox="0 0 6016 3385" fill="none" xmlns="http://www.w3.org/2000/svg">
<path d="M0 0.820312H6010.26V3381.59H0V0.820312Z" fill="#3D2876"/>
<path d="M4096.84 1954.85C4436.4 1954.85 4711.66 1679.59 4711.66 1340.04C4711.66 1000.5 4436.4 725.238 4096.84 725.238C3757.29 725.238 3482.03 1000.5 3482.03 1340.04C3482.03 1679.59 3757.29 1954.85 4096.84 1954.85Z" fill="url(#paint0_linear_355:72561)" fill-opacity="0.8"/>
<path d="M1584.17 1340.04H1202.37C1042.88 1340.04 912.388 1470.53 912.388 1630.02V2032.76C912.388 2192.25 1042.88 2322.74 1202.37 2322.74H1584.17C1743.66 2322.74 1874.15 2192.25 1874.15 2032.76V1630.02C1874.15 1470.53 1743.66 1340.04 1584.17 1340.04Z" fill="url(#paint1_linear_355:72561)" fill-opacity="0.4"/>
<path d="M2964.31 3038.76H1961.5C1818.66 3038.76 1701.78 2921.89 1701.78 2779.04V1047.58C1701.78 904.729 1818.66 787.855 1961.5 787.855H2964.31C3107.15 787.855 3224.03 904.729 3224.03 1047.58V2779.04C3224.03 2923.33 3108.6 3038.76 2964.31 3038.76Z" fill="url(#paint2_linear_355:72561)"/>
<path d="M4034.81 1601.57H2640.02C2503.04 1601.57 2390.95 1713.65 2390.95 1850.64V2506.52C2390.95 2643.51 2503.04 2755.59 2640.02 2755.59H4034.81C4171.8 2755.59 4283.88 2643.51 4283.88 2506.52V1850.64C4283.88 1713.65 4171.8 1601.57 4034.81 1601.57Z" fill="url(#paint3_linear_355:72561)" fill-opacity="0.8"/>
<path d="M3130.8 2500.3C3130.8 2509.01 3123.63 2516.06 3114.93 2515.77C2882.64 2508.11 2766.49 2382.07 2766.49 2139.89V1777.96C2766.49 1623.72 2716.79 1538.63 2621.52 1524.73C2613.38 1523.54 2606.96 1516.79 2606.96 1508.56V1356.54C2606.96 1348.43 2613.19 1341.74 2621.2 1340.45C2718.75 1324.75 2766.49 1239.41 2766.49 1080.29V725.508C2766.49 483.327 2882.64 355.014 3114.93 347.251C3123.63 346.96 3130.8 354.012 3130.8 362.716V522.084C3130.8 530.596 3123.95 537.477 3115.48 538.264C3016.38 547.472 2968.89 625.761 2968.89 773.13V1120.77C2968.89 1284.14 2902.96 1388.66 2768.78 1427.29C2767.44 1427.67 2766.49 1428.9 2766.49 1430.3V1430.3C2766.49 1431.71 2767.46 1432.96 2768.83 1433.32C2902.98 1469.6 2968.89 1571.77 2968.89 1737.48V2080.36C2968.89 2168.47 2980.79 2232.76 3004.6 2268.47C3026.36 2303.29 3064.03 2322.2 3115.79 2327.01C3124.15 2327.79 3130.8 2334.64 3130.8 2343.04V2500.3Z" fill="url(#paint4_linear_355:72561)" fill-opacity="0.8"/>
<path d="M5116.15 1915.47C5116.15 1921.5 5112.69 1926.98 5107.26 1929.59L3979.24 2469.9C3968.85 2474.88 3956.82 2467.3 3956.82 2455.79V2242.4C3956.82 2236.2 3960.48 2230.59 3966.14 2228.09L4799.84 1859.15C4802.61 1857.92 4804.4 1855.18 4804.4 1852.15V1852.15C4804.4 1849.23 4802.75 1846.57 4800.13 1845.28L3965.54 1432.78C3960.2 1430.14 3956.82 1424.71 3956.82 1418.75V1205.75C3956.82 1194.03 3969.24 1186.47 3979.66 1191.85L5107.68 1774.82C5112.88 1777.51 5116.15 1782.87 5116.15 1788.72V1915.47Z" fill="url(#paint5_linear_355:72561)" fill-opacity="0.8"/>
<path d="M1427.04 1916.68C1388.49 1916.68 1353.81 1902.9 1326.83 1875.33C1299.85 1847.76 1284.43 1816.75 1284.43 1778.84C1284.43 1740.94 1299.85 1709.92 1326.83 1682.35C1353.81 1654.78 1388.49 1641 1427.04 1641C1465.58 1641 1500.26 1654.78 1527.24 1682.35C1554.22 1709.92 1569.64 1740.94 1569.64 1778.84C1569.64 1816.75 1554.22 1847.76 1527.24 1875.33C1500.26 1902.9 1469.43 1916.68 1427.04 1916.68ZM1427.04 2716.16C1388.49 2716.16 1353.81 2702.38 1326.83 2674.81C1299.85 2647.24 1284.43 2616.23 1284.43 2578.32C1284.43 2540.42 1299.85 2509.4 1326.83 2481.83C1353.81 2454.26 1388.49 2440.48 1427.04 2440.48C1465.58 2440.48 1500.26 2454.26 1527.24 2481.83C1554.22 2509.4 1569.64 2540.42 1569.64 2578.32C1569.64 2616.23 1554.22 2647.24 1527.24 2674.81C1500.26 2702.38 1469.43 2716.16 1427.04 2716.16Z" fill="#E4E8F7" fill-opacity="0.6"/>
<defs>
<linearGradient id="paint0_linear_355:72561" x1="3482.03" y1="1458.44" x2="4943.78" y2="1340.05" gradientUnits="userSpaceOnUse">
<stop stop-color="#D7CBFE"/>
<stop offset="1" stop-color="#D7CBFE" stop-opacity="0"/>
</linearGradient>
<linearGradient id="paint1_linear_355:72561" x1="1393.27" y1="2554.39" x2="1303.61" y2="1298.48" gradientUnits="userSpaceOnUse">
<stop stop-color="#6E35D1"/>
<stop offset="1" stop-color="#A6D1EE"/>
</linearGradient>
<linearGradient id="paint2_linear_355:72561" x1="2462.91" y1="22.9533" x2="2926.2" y2="3269.93" gradientUnits="userSpaceOnUse">
<stop stop-color="#391F6E"/>
<stop offset="1" stop-color="#81CAFB"/>
</linearGradient>
<linearGradient id="paint3_linear_355:72561" x1="3497.2" y1="1985.14" x2="3060.27" y2="2765.68" gradientUnits="userSpaceOnUse">
<stop stop-color="#A284D4"/>
<stop offset="1" stop-color="#8ECEFA"/>
</linearGradient>
<linearGradient id="paint4_linear_355:72561" x1="2868.88" y1="346.91" x2="2868.88" y2="2516.11" gradientUnits="userSpaceOnUse">
<stop stop-color="#D5C2F5"/>
<stop offset="1" stop-color="white" stop-opacity="0.4"/>
</linearGradient>
<linearGradient id="paint5_linear_355:72561" x1="1539.88" y1="-2656.6" x2="1861.97" y2="-2863.03" gradientUnits="userSpaceOnUse">
<stop stop-color="#C7B7F6" stop-opacity="0.4"/>
<stop offset="1" stop-color="#67C1E9" stop-opacity="0.6"/>
</linearGradient>
</defs>
</svg>
