<svg width="6016" height="3385" viewBox="0 0 6016 3385" fill="none" xmlns="http://www.w3.org/2000/svg">
<g clip-path="url(#clip0_355:72726)">
<rect y="0.722656" width="6016" height="3384" fill="url(#paint0_linear_355:72726)"/>
<path d="M1749.56 1467.22C1980.27 1467.22 2167.3 1287.5 2167.3 1065.8C2167.3 844.108 1980.27 664.387 1749.56 664.387C1518.84 664.387 1331.81 844.108 1331.81 1065.8C1331.81 1287.5 1518.84 1467.22 1749.56 1467.22Z" fill="url(#paint1_linear_355:72726)" fill-opacity="0.8"/>
<path d="M2437.05 1970.35C2437.05 1747.34 2625.17 1566.58 2857.25 1566.58C2863.32 1566.58 2869.28 1566.78 2875.24 1566.99C2937.84 1370.37 3128.19 1227.25 3353.35 1227.25C3612.57 1227.25 3825.6 1416.81 3850.83 1659.46C3862.11 1658.44 3873.61 1657.93 3885.11 1657.93C4089.3 1657.93 4254.84 1817.01 4254.84 2013.22C4254.84 2206.05 4094.94 2362.87 3895.65 2368.3C3885.11 2369.22 2848.31 2373 2789.11 2368.81C2749.62 2365.64 2712.57 2354.28 2679.89 2336.48C2536.49 2272.14 2437.05 2132.39 2437.05 1970.35Z" fill="url(#paint2_linear_355:72726)"/>
<path d="M4161.63 1951.77C4161.63 1815.85 4276.29 1705.67 4417.74 1705.67C4421.44 1705.67 4425.07 1705.79 4428.71 1705.92C4466.86 1586.08 4582.88 1498.85 4720.12 1498.85C4878.12 1498.85 5007.96 1614.39 5023.34 1762.29C5030.21 1761.66 5037.22 1761.35 5044.23 1761.35C5168.69 1761.35 5269.59 1858.31 5269.59 1977.9C5269.59 2095.43 5172.12 2191.02 5050.65 2194.32C5044.23 2194.89 4412.29 2197.19 4376.21 2194.64C4352.14 2192.7 4329.56 2185.78 4309.64 2174.93C4222.23 2135.71 4161.63 2050.54 4161.63 1951.77Z" fill="url(#paint3_linear_355:72726)"/>
<path d="M1062.2 3051.8C1062.2 2748.25 1318.24 2502.21 1634.13 2502.21C1642.39 2502.21 1650.51 2502.49 1658.62 2502.77C1743.83 2235.15 2002.91 2040.35 2309.39 2040.35C2662.23 2040.35 2952.18 2298.36 2986.52 2628.65C3001.88 2627.25 3017.53 2626.56 3033.18 2626.56C3311.11 2626.56 3536.43 2843.08 3536.43 3110.14C3536.43 3372.62 3318.79 3586.07 3047.53 3593.45C3033.18 3594.71 1621.96 3599.86 1541.4 3594.15C1487.64 3589.83 1437.21 3574.38 1392.72 3550.15C1197.54 3462.57 1062.2 3272.36 1062.2 3051.8Z" fill="url(#paint4_linear_355:72726)" fill-opacity="0.4"/>
<path d="M4411.4 819.207C4565.58 819.207 4690.56 699.106 4690.56 550.951C4690.56 402.801 4565.58 282.699 4411.4 282.699C4257.22 282.699 4132.24 402.801 4132.24 550.951C4132.24 699.106 4257.22 819.207 4411.4 819.207Z" fill="url(#paint5_linear_355:72726)" fill-opacity="0.8"/>
<path d="M4582.85 1798L4226.57 1057.32C4221.87 1046.17 4219.11 1039.25 4215.22 1029.2H3731.9C3729.32 1038.47 3721.72 1051 3717.26 1059.57L3363.78 1799.66C3349.41 1831.69 3374.12 1867.59 3410.33 1867.59H4537.44C4574.23 1867.59 4598.37 1830.59 4582.85 1798Z" fill="url(#paint6_linear_355:72726)" fill-opacity="0.6"/>
<path d="M4159.49 1963.14C4212.95 1962.59 4258.14 1918.96 4257.56 1867.6L4253.54 1247.36C4252.96 1050.74 4139.16 785.077 3971.33 696.156C3805.22 786.734 3693.72 1053.5 3694.87 1250.67L3698.89 1870.91C3699.47 1922.27 3742.57 1963.7 3796.03 1963.14H4159.49Z" fill="url(#paint7_linear_355:72726)"/>
<path d="M4215.03 1030.3C4168.47 888.911 4081.68 754.701 3971.33 696.156C3863.27 755.253 3778.21 889.463 3732.23 1030.3H4215.03Z" fill="url(#paint8_linear_355:72726)"/>
<rect x="3872.04" y="1963.15" width="208.367" height="1033.66" fill="url(#paint9_linear_355:72726)" fill-opacity="0.4"/>
</g>
<defs>
<linearGradient id="paint0_linear_355:72726" x1="3008" y1="0.722656" x2="3008" y2="3384.72" gradientUnits="userSpaceOnUse">
<stop offset="0.750057" stop-color="#3D2876"/>
<stop offset="1" stop-color="#C8C3FB"/>
</linearGradient>
<linearGradient id="paint1_linear_355:72726" x1="-951.557" y1="2289.93" x2="-1082.29" y2="2004.96" gradientUnits="userSpaceOnUse">
<stop stop-color="#BCA8F8" stop-opacity="0.2"/>
<stop offset="1" stop-color="#28AFEA" stop-opacity="0.18"/>
</linearGradient>
<linearGradient id="paint2_linear_355:72726" x1="3345.95" y1="1673.9" x2="3345.95" y2="2370.75" gradientUnits="userSpaceOnUse">
<stop stop-color="#6175B6"/>
<stop offset="1" stop-color="#6175B6" stop-opacity="0"/>
</linearGradient>
<linearGradient id="paint3_linear_355:72726" x1="4715.61" y1="1771.08" x2="4715.61" y2="2195.82" gradientUnits="userSpaceOnUse">
<stop stop-color="#6175B6"/>
<stop offset="1" stop-color="#6175B6" stop-opacity="0"/>
</linearGradient>
<linearGradient id="paint4_linear_355:72726" x1="2648.77" y1="3596.78" x2="2661.61" y2="2040.63" gradientUnits="userSpaceOnUse">
<stop stop-color="#8570B0" stop-opacity="0"/>
<stop offset="0.871456" stop-color="#AB8AD3"/>
</linearGradient>
<linearGradient id="paint5_linear_355:72726" x1="2606.34" y1="1369" x2="2518.97" y2="1178.56" gradientUnits="userSpaceOnUse">
<stop stop-color="#BCA8F8" stop-opacity="0.2"/>
<stop offset="1" stop-color="#28AFEA" stop-opacity="0.18"/>
</linearGradient>
<linearGradient id="paint6_linear_355:72726" x1="4077.29" y1="1307.87" x2="4165.05" y2="2276.7" gradientUnits="userSpaceOnUse">
<stop stop-color="#AF94DE"/>
<stop offset="1" stop-color="#66B7ED"/>
</linearGradient>
<linearGradient id="paint7_linear_355:72726" x1="3900.31" y1="2326.33" x2="4660.54" y2="1642.97" gradientUnits="userSpaceOnUse">
<stop stop-color="#391F6E" stop-opacity="0.8"/>
<stop offset="1" stop-color="#81CAFB"/>
</linearGradient>
<linearGradient id="paint8_linear_355:72726" x1="3649.65" y1="1077.32" x2="4070.45" y2="856.509" gradientUnits="userSpaceOnUse">
<stop stop-color="#391F6E" stop-opacity="0.8"/>
<stop offset="1" stop-color="#AB8AD3"/>
</linearGradient>
<linearGradient id="paint9_linear_355:72726" x1="3976.22" y1="1963.15" x2="3976.22" y2="2996.81" gradientUnits="userSpaceOnUse">
<stop stop-color="#9287F0"/>
<stop offset="0.687779" stop-color="#E3E0FD" stop-opacity="0"/>
</linearGradient>
<clipPath id="clip0_355:72726">
<rect width="6016" height="3384" fill="white" transform="translate(0 0.722656)"/>
</clipPath>
</defs>
</svg>
