<svg width="6016" height="3385" viewBox="0 0 6016 3385" fill="none" xmlns="http://www.w3.org/2000/svg">
<g clip-path="url(#clip0_355:72713)">
<rect y="0.289062" width="6016" height="3384" fill="url(#paint0_linear_355:72713)"/>
<path d="M1749.56 1466.8C1980.27 1466.8 2167.3 1287.08 2167.3 1065.38C2167.3 843.682 1980.27 663.961 1749.56 663.961C1518.84 663.961 1331.81 843.682 1331.81 1065.38C1331.81 1287.08 1518.84 1466.8 1749.56 1466.8Z" fill="url(#paint1_linear_355:72713)" fill-opacity="0.8"/>
<path d="M2437.05 1969.92C2437.05 1746.91 2625.17 1566.14 2857.25 1566.14C2863.32 1566.14 2869.28 1566.35 2875.24 1566.55C2937.84 1369.93 3128.19 1226.82 3353.35 1226.82C3612.57 1226.82 3825.6 1416.38 3850.83 1659.03C3862.11 1658.01 3873.61 1657.5 3885.11 1657.5C4089.3 1657.5 4254.84 1816.57 4254.84 2012.78C4254.84 2205.62 4094.94 2362.44 3895.65 2367.86C3885.11 2368.78 2848.31 2372.57 2789.11 2368.37C2749.62 2365.2 2712.57 2353.85 2679.89 2336.05C2536.49 2271.7 2437.05 2131.96 2437.05 1969.92Z" fill="url(#paint2_linear_355:72713)"/>
<path d="M4161.63 1951.34C4161.63 1815.41 4276.29 1705.24 4417.74 1705.24C4421.44 1705.24 4425.07 1705.36 4428.71 1705.49C4466.86 1585.64 4582.88 1498.41 4720.12 1498.41C4878.12 1498.41 5007.96 1613.95 5023.34 1761.85C5030.21 1761.23 5037.22 1760.92 5044.23 1760.92C5168.69 1760.92 5269.59 1857.87 5269.59 1977.47C5269.59 2095 5172.12 2190.59 5050.65 2193.89C5044.23 2194.45 4412.29 2196.76 4376.21 2194.2C4352.14 2192.27 4329.56 2185.35 4309.64 2174.5C4222.23 2135.28 4161.63 2050.11 4161.63 1951.34Z" fill="url(#paint3_linear_355:72713)" fill-opacity="0.6"/>
<path d="M1062.2 3051.38C1062.2 2747.83 1318.24 2501.79 1634.13 2501.79C1642.39 2501.79 1650.51 2502.07 1658.62 2502.34C1743.83 2234.72 2002.91 2039.92 2309.39 2039.92C2662.23 2039.92 2952.18 2297.94 2986.52 2628.22C3001.88 2626.83 3017.53 2626.13 3033.18 2626.13C3311.11 2626.13 3536.43 2842.65 3536.43 3109.72C3536.43 3372.19 3318.79 3585.65 3047.53 3593.03C3033.18 3594.28 1621.96 3599.43 1541.4 3593.72C1487.64 3589.41 1437.21 3573.95 1392.72 3549.72C1197.54 3462.14 1062.2 3271.94 1062.2 3051.38Z" fill="url(#paint4_linear_355:72713)" fill-opacity="0.4"/>
<path d="M4411.4 818.773C4565.58 818.773 4690.56 698.673 4690.56 550.518C4690.56 402.367 4565.58 282.266 4411.4 282.266C4257.22 282.266 4132.24 402.367 4132.24 550.518C4132.24 698.673 4257.22 818.773 4411.4 818.773Z" fill="url(#paint5_linear_355:72713)" fill-opacity="0.8"/>
<path d="M4520.18 1859.11L4163.91 1118.43C4159.21 1107.27 4156.45 1100.35 4152.55 1090.3H3669.23C3666.66 1099.58 3659.05 1112.11 3654.59 1120.68L3301.11 1860.77C3286.74 1892.8 3311.46 1928.7 3347.67 1928.7H4474.78C4511.56 1928.7 4535.7 1891.7 4520.18 1859.11Z" fill="url(#paint6_linear_355:72713)" fill-opacity="0.6"/>
<path d="M4096.83 2024.25C4150.28 2023.7 4195.47 1980.07 4194.89 1928.7L4190.87 1308.46C4190.3 1111.84 4076.49 846.183 3908.66 757.262C3742.56 847.84 3631.05 1114.6 3632.2 1311.78L3636.23 1932.01C3636.8 1983.38 3679.91 2024.8 3733.36 2024.25H4096.83Z" fill="url(#paint7_linear_355:72713)"/>
<path d="M4152.36 1091.41C4105.81 950.016 4019.02 815.806 3908.66 757.262C3800.61 816.358 3715.54 950.569 3669.56 1091.41H4152.36Z" fill="url(#paint8_linear_355:72713)"/>
<rect x="3809.37" y="2024.25" width="208.367" height="1033.66" fill="url(#paint9_linear_355:72713)"/>
</g>
<defs>
<linearGradient id="paint0_linear_355:72713" x1="3008" y1="0.289062" x2="3008" y2="3384.29" gradientUnits="userSpaceOnUse">
<stop offset="0.750057" stop-color="#E1DFFB"/>
<stop offset="1" stop-color="#C8C3FB"/>
</linearGradient>
<linearGradient id="paint1_linear_355:72713" x1="-951.557" y1="2289.51" x2="-1082.29" y2="2004.53" gradientUnits="userSpaceOnUse">
<stop stop-color="#BCA8F8" stop-opacity="0.2"/>
<stop offset="1" stop-color="#28AFEA" stop-opacity="0.18"/>
</linearGradient>
<linearGradient id="paint2_linear_355:72713" x1="4254.84" y1="1151.49" x2="2758.33" y2="1815.03" gradientUnits="userSpaceOnUse">
<stop stop-color="#AA87E7" stop-opacity="0.81"/>
<stop offset="1" stop-color="#85C9F5" stop-opacity="0.4"/>
</linearGradient>
<linearGradient id="paint3_linear_355:72713" x1="4715.61" y1="1846.9" x2="4715.61" y2="2289.1" gradientUnits="userSpaceOnUse">
<stop stop-color="#F3EFFF"/>
<stop offset="1" stop-color="#F3EFFF" stop-opacity="0"/>
</linearGradient>
<linearGradient id="paint4_linear_355:72713" x1="2299.32" y1="2818.14" x2="2299.32" y2="3596.36" gradientUnits="userSpaceOnUse">
<stop stop-color="#F3EFFF"/>
<stop offset="1" stop-color="#F3EFFF" stop-opacity="0"/>
</linearGradient>
<linearGradient id="paint5_linear_355:72713" x1="2606.34" y1="1368.56" x2="2518.97" y2="1178.12" gradientUnits="userSpaceOnUse">
<stop stop-color="#BCA8F8" stop-opacity="0.2"/>
<stop offset="1" stop-color="#28AFEA" stop-opacity="0.18"/>
</linearGradient>
<linearGradient id="paint6_linear_355:72713" x1="4014.62" y1="1368.97" x2="4102.38" y2="2337.8" gradientUnits="userSpaceOnUse">
<stop stop-color="#AF94DE"/>
<stop offset="1" stop-color="#66B7ED"/>
</linearGradient>
<linearGradient id="paint7_linear_355:72713" x1="3837.65" y1="2387.43" x2="4597.88" y2="1704.07" gradientUnits="userSpaceOnUse">
<stop stop-color="#391F6E" stop-opacity="0.8"/>
<stop offset="1" stop-color="#81CAFB"/>
</linearGradient>
<linearGradient id="paint8_linear_355:72713" x1="3586.98" y1="1138.43" x2="4007.78" y2="917.615" gradientUnits="userSpaceOnUse">
<stop stop-color="#391F6E" stop-opacity="0.8"/>
<stop offset="1" stop-color="#AB8AD3"/>
</linearGradient>
<linearGradient id="paint9_linear_355:72713" x1="3913.55" y1="2024.25" x2="3913.55" y2="3057.91" gradientUnits="userSpaceOnUse">
<stop stop-color="#F8F7FF"/>
<stop offset="0.687779" stop-color="#E3E0FD" stop-opacity="0"/>
</linearGradient>
<clipPath id="clip0_355:72713">
<rect width="6016" height="3384" fill="white" transform="translate(0 0.289062)"/>
</clipPath>
</defs>
</svg>
