<svg width="6017" height="3385" viewBox="0 0 6017 3385" fill="none" xmlns="http://www.w3.org/2000/svg">
<g clip-path="url(#clip0_355:72625)">
<rect width="6016" height="3384" transform="translate(0.741211 0.0234375)" fill="white"/>
<rect x="0.741211" y="0.0234375" width="6010.26" height="3380.77" fill="#3D2876"/>
<path d="M3664.02 1332.08C3621.63 1268.62 3505.36 1326.94 3523.63 1398.45C3528.31 1416.71 3538.81 1450.68 3548.28 1480.52C3555.5 1503.27 3546.72 1527.9 3527.64 1542.22C3525.85 1543.56 3524.07 1544.91 3522.3 1546.27C3503.18 1560.9 3476.8 1562.52 3456.8 1549.12C3436.13 1535.28 3411.31 1518.88 3385.79 1502.46C3321.65 1461.18 3238.13 1560.34 3283.41 1618.63C3294.79 1633.29 3317.5 1659.87 3337.89 1683.36C3353.7 1701.57 3355.31 1727.99 3343.05 1748.77C3341.47 1751.44 3339.91 1754.13 3338.37 1756.83C3326.01 1778.41 3301.23 1790.21 3277 1784.57C3254.45 1779.32 3228.41 1773.42 3201.84 1767.78C3127.22 1751.79 3084.29 1874.52 3147.25 1913.09C3163.58 1923.09 3195.61 1940.61 3223.58 1955.66C3244.15 1966.72 3255.05 1989.8 3251.88 2012.95C3251.79 2013.59 3251.7 2014.24 3251.61 2014.89C3248.39 2038.92 3230.67 2058.83 3206.85 2063.38C3183.37 2067.86 3155.98 2073.26 3128.18 2079.05C3053.42 2094.66 3063.94 2224.23 3137.14 2234.12C3155.09 2236.55 3188.58 2239.42 3218.89 2241.75C3242.82 2243.59 3262.47 2261.08 3268.48 2284.31C3269.27 2287.36 3270.09 2290.42 3270.92 2293.47C3277.28 2316.7 3268.95 2341.8 3249.02 2355.35C3229.02 2368.93 3205.6 2385.05 3182.02 2401.71C3119.73 2445.71 3180.48 2560.35 3251.37 2540.15C3268.52 2535.31 3299.7 2524.85 3328.17 2515.08C3350.98 2507.25 3376.06 2515.72 3390.66 2534.92C3392.45 2537.28 3394.26 2539.63 3396.08 2541.97C3410.92 2561 3412.86 2587.42 3399.61 2607.58C3386.04 2628.23 3370 2652.93 3354 2678.29C3313.31 2742.84 3413.12 2825.45 3471.14 2779.74C3485.75 2768.15 3512.36 2745.03 3535.79 2724.37C3553.82 2708.46 3580.15 2706.62 3601.04 2718.55C3603.58 2720 3606.13 2721.43 3608.69 2722.85C3630.55 2734.97 3642.7 2759.76 3637.24 2784.15C3632.15 2806.88 3626.42 2833.17 3620.88 2859.98C3605.51 2934.77 3728.69 2976.55 3766.74 2913.37C3776.8 2896.67 3794.46 2863.66 3809.43 2835.26C3820.24 2814.74 3843.02 2803.71 3866.04 2806.47C3866.4 2806.52 3866.76 2806.56 3867.12 2806.6C3891.29 2809.46 3911.49 2827.02 3916.23 2850.89C3920.95 2874.65 3926.66 2902.61 3932.82 2930.98C3949.03 3005.6 4078.63 2993.99 4087.81 2920.65C4090.16 2902.21 4092.82 2867.38 4094.91 2836.4C4096.52 2812.54 4113.71 2792.77 4136.76 2786.44C4139.37 2785.72 4141.97 2784.99 4144.58 2784.24C4167.73 2777.6 4192.9 2785.7 4206.61 2805.51C4220.66 2825.82 4237.51 2849.89 4255.02 2874.19C4299.65 2936.12 4413.62 2874.44 4392.91 2803.67C4387.52 2785.29 4375.52 2750.63 4364.91 2720.6C4357.67 2700.13 4365.17 2677.42 4382.38 2664.18V2664.18C4400.3 2650.39 4425.22 2649.51 4443.36 2663.02C4461.96 2676.87 4483.5 2692.71 4505.54 2708.57C4567.57 2753.08 4655.99 2657.78 4613.75 2597.21C4602.86 2581.64 4580.87 2553.15 4561.43 2528.36C4547.18 2510.19 4546.26 2485.03 4558.02 2465.16C4558.58 2464.21 4559.14 2463.26 4559.7 2462.31C4572.1 2441.12 4596.55 2429.54 4620.49 2434.98C4643.61 2440.24 4670.57 2446.23 4698.07 2452.01C4772.76 2467.64 4815.04 2344.62 4751.86 2306.35C4735.89 2296.64 4704.93 2279.9 4677.41 2265.28C4656.5 2254.18 4645.5 2230.73 4649 2207.32C4649.35 2204.93 4649.7 2202.54 4650.03 2200.15C4653.36 2176.12 4671.09 2156.21 4694.94 2151.75C4719.2 2147.22 4748.04 2141.67 4777.34 2135.58C4852.08 2120.2 4842.32 1990.88 4769.21 1980.95C4750.44 1978.41 4714.59 1975.27 4683.1 1972.74C4659.24 1970.82 4639.71 1953.3 4633.77 1930.12C4633.11 1927.55 4632.43 1924.98 4631.74 1922.42C4625.22 1898.14 4634.67 1871.99 4656.14 1858.93C4676.27 1846.68 4699.54 1832.33 4723 1817.49C4787.52 1776.65 4732.23 1658.99 4660.22 1675.48C4640.6 1679.97 4602.89 1690.64 4571.48 1699.78C4549.46 1706.18 4525.88 1697.54 4512.01 1679.28V1679.28C4497.38 1660.02 4496.05 1633.52 4509.88 1613.68C4524.11 1593.29 4540.95 1568.84 4557.8 1543.7C4600.35 1480.28 4502.01 1395.02 4442.85 1439.21C4427.39 1450.79 4398.9 1474.39 4374.46 1494.93C4356.23 1510.25 4330.18 1511.59 4309.68 1499.47C4307.99 1498.46 4306.29 1497.47 4304.59 1496.48C4283.72 1484.37 4272.1 1460.54 4276.87 1436.89C4281.9 1412 4287.8 1381.8 4293.45 1350.97C4307.07 1275.88 4183.54 1236.54 4146.96 1300.67C4137.44 1317.3 4120.81 1350.01 4106.54 1378.52C4095.78 1400.04 4072.03 1411.54 4048.21 1408.14C4046.36 1407.88 4044.51 1407.62 4042.66 1407.37C4017.87 1404.04 3997.48 1385.37 3993.61 1360.67C3989.98 1337.58 3985.64 1310.88 3980.95 1283.79C3967.89 1208.59 3837.91 1214.78 3825.68 1287.58C3822.42 1306.95 3818.03 1344.63 3814.51 1376.74C3811.98 1399.86 3794.74 1418.56 3772.23 1424.44V1424.44C3748.38 1430.66 3722.33 1421.65 3709.06 1400.89C3695.94 1380.36 3680.28 1356.32 3664.02 1332.08Z" fill="url(#paint0_linear_355:72625)"/>
<path d="M426.409 1609.05C364.969 1517.09 196.479 1601.61 222.957 1705.24C230.663 1735.31 249.27 1794.77 264.181 1841.45C271.441 1864.18 262.696 1888.85 243.361 1902.83C230.857 1911.88 218.592 1921.18 206.573 1930.71C187.714 1945.68 161.292 1947.24 141.319 1933.79C108.773 1911.88 66.6857 1883.94 23.2126 1855.97C-69.7338 1796.15 -190.771 1939.84 -125.156 2024.32C-106.371 2048.51 -66.3012 2095.1 -34.1388 2131.97C-18.2854 2150.15 -16.631 2176.61 -29.2488 2197.16C-38.1426 2211.64 -46.683 2226.34 -54.8444 2241.24C-66.7901 2263.06 -91.6233 2274.84 -115.836 2269.14C-152.365 2260.54 -197.303 2250.23 -243.363 2240.44C-351.494 2217.27 -413.712 2395.12 -322.464 2451.02C-295.695 2467.41 -239.833 2497.76 -196.296 2521.06C-175.695 2532.08 -164.748 2555.17 -168.308 2578.26C-170.285 2591.09 -172.03 2603.97 -173.531 2616.9C-176.326 2640.98 -194.101 2660.88 -217.93 2665.37C-255.531 2672.44 -302.412 2681.58 -350.101 2691.53C-458.436 2714.14 -443.2 2901.91 -337.119 2916.24C-307.44 2920.26 -248.478 2925.1 -200.442 2928.67C-176.517 2930.45 -156.806 2947.94 -151.204 2971.26C-147.303 2987.51 -142.995 3003.72 -138.246 3019.89C-131.457 3043.01 -139.847 3068.13 -159.806 3081.62C-191.716 3103.2 -231.749 3130.6 -272.081 3159.1C-362.352 3222.86 -274.306 3388.99 -171.59 3359.72C-143.185 3351.7 -88.2238 3333.06 -42.9188 3317.4C-20.1228 3309.53 5.01578 3317.96 19.2741 3337.42C29.0879 3350.81 39.1766 3363.92 49.5597 3376.75C64.7396 3395.5 66.6356 3421.96 53.3416 3442.1C31.8109 3474.7 4.44913 3516.63 -22.8652 3559.91C-81.8236 3653.44 62.8094 3773.15 146.889 3706.92C170.987 3687.81 217.59 3647.07 254.297 3614.55C272.298 3598.6 298.653 3596.71 319.318 3609.02C333.716 3617.59 348.321 3625.8 363.122 3633.64C385.213 3645.33 397.338 3670.18 391.82 3694.55C383.495 3731.33 373.481 3776.72 363.891 3823.2C341.616 3931.59 520.112 3992.13 575.257 3900.56C591.718 3873.25 622.189 3815.83 645.266 3771.88C656.048 3751.34 678.833 3740.28 701.812 3743.43C714.232 3745.13 726.697 3746.61 739.198 3747.86C763.414 3750.29 783.604 3767.91 788.288 3791.79C795.719 3829.68 805.377 3877.46 815.929 3926.09C839.426 4034.22 1027.23 4017.4 1040.53 3911.12C1044.41 3880.72 1048.86 3819.58 1052.02 3770.89C1053.57 3747.03 1070.75 3727.2 1093.91 3721.28C1109.43 3717.31 1124.92 3712.97 1140.38 3708.23C1163.42 3701.18 1188.61 3709.34 1202.27 3729.18C1224.43 3761.35 1252.98 3802.34 1282.85 3843.79C1347.53 3933.53 1512.68 3844.16 1482.67 3741.59C1474.14 3712.52 1454.2 3655.34 1437.92 3609.46C1429.85 3586.74 1438.07 3561.55 1457.36 3547.09C1464.2 3541.96 1470.96 3536.75 1477.64 3531.47C1497.34 3515.9 1525.13 3514.89 1545.25 3529.92C1574.43 3551.73 1609.7 3577.75 1645.89 3603.79C1735.77 3668.29 1863.91 3530.19 1802.69 3442.41C1784.85 3416.92 1746.48 3367.5 1716.11 3328.95C1701.83 3310.81 1700.86 3285.62 1712.95 3265.95C1720.1 3254.3 1727.03 3242.52 1733.71 3230.61C1745.71 3209.19 1770.2 3197.64 1794.13 3203.13C1831.27 3211.66 1877.52 3222.04 1924.88 3231.99C2033.12 3254.64 2094.39 3076.38 2002.83 3020.91C1976.56 3004.94 1922.28 2975.82 1879.07 2953C1858.14 2941.94 1847.09 2918.47 1850.97 2895.13C1853.54 2879.7 1855.78 2864.21 1857.64 2848.66C1860.52 2824.57 1878.3 2804.66 1902.15 2800.26C1940.57 2793.17 1989.7 2783.85 2039.76 2773.44C2148.06 2751.15 2133.92 2563.75 2027.97 2549.37C1997.08 2545.18 1934.26 2539.88 1885.04 2536.02C1861.18 2534.16 1841.59 2516.65 1836.06 2493.36C1832.29 2477.5 1828.14 2461.67 1823.56 2445.89C1816.55 2421.75 1826.05 2395.59 1847.56 2382.58C1880.11 2362.9 1920.37 2338.19 1961.01 2312.48C2054.51 2253.31 1974.39 2082.8 1870.04 2106.7C1838.13 2114 1773.24 2132.57 1725.25 2146.63C1702.98 2153.16 1679.16 2144.53 1665.43 2125.83C1658.54 2116.44 1651.51 2107.19 1644.33 2098.08C1629.18 2078.86 1627.81 2051.93 1641.85 2031.9C1664.35 1999.81 1692.97 1958.45 1721.61 1915.72C1783.27 1823.82 1640.77 1700.27 1555.03 1764.3C1529.64 1783.34 1479.98 1824.73 1442.09 1856.71C1423.9 1872.06 1397.82 1873.44 1377.54 1860.97C1364.75 1853.1 1351.8 1845.51 1338.69 1838.21C1317.61 1826.47 1306.03 1802.59 1310.86 1778.95C1318.82 1739.99 1328.93 1688.85 1338.54 1636.44C1358.27 1527.62 1179.26 1470.6 1126.24 1563.55C1110.59 1590.91 1081.64 1648.31 1059.5 1692.75C1048.77 1714.29 1025.01 1725.85 1001.25 1722.03C986.229 1719.62 971.148 1717.52 956.013 1715.78C931.167 1712.93 910.788 1694.21 906.976 1669.5C901.216 1632.15 893.799 1586.03 885.675 1539.09C866.749 1430.11 678.387 1439.08 660.668 1544.57C655.337 1576.25 647.916 1641.72 642.592 1691.25C640.106 1714.38 622.93 1733.11 600.319 1738.59C588.298 1741.5 576.289 1744.65 564.311 1748.03C540.594 1754.72 515.008 1745.52 501.815 1724.7C481.021 1691.89 454.311 1650.68 426.409 1609.05Z" fill="url(#paint1_linear_355:72625)"/>
<path d="M3887.83 2048.97L2421.04 583.325C2204.98 367.431 2121.29 51.1925 2201.94 -243.761C2282.58 -538.714 2515.38 -768.292 2810.56 -844.311L4800.77 -1356.68C5092.91 -1432.7 5403.31 -1347.56 5616.33 -1134.7L5617.85 -1133.18C5830.87 -918.809 5914.56 -607.131 5836.96 -315.219L5313.54 1664.31C5235.94 1959.27 5006.18 2188.84 4711 2269.42C4418.86 2348.48 4103.89 2264.86 3887.83 2048.97Z" fill="url(#paint2_linear_355:72625)" fill-opacity="0.4"/>
<g filter="url(#filter0_b_355:72625)">
<path d="M2861.79 2498.13L2044.58 1681.07C1924.2 1560.71 1877.57 1384.41 1922.5 1219.98C1967.43 1055.55 2097.14 927.571 2261.6 885.192L3370.43 599.559C3533.19 557.18 3706.13 604.645 3824.81 723.305L3825.66 724.153C3944.34 843.661 3990.97 1017.41 3947.74 1180.15L3656.12 2283.69C3612.88 2448.12 3484.87 2576.11 3320.41 2621.03C3157.65 2665.1 2982.17 2618.48 2861.79 2498.13Z" fill="url(#paint3_linear_355:72625)"/>
</g>
<path d="M2996.79 2356.98L2201.62 1571.28C2129.56 1505.17 2088.02 1398.37 2104.13 1300.06C2123.62 1179.7 2201.62 1098.33 2283.85 1066.97L3385.05 792.357C3515.6 758.454 3618.18 792.357 3690.23 870.334L3691.08 871.182C3767.38 938.14 3780.09 1035.61 3758.05 1152.58L3492.71 2224.76C3457.11 2356.13 3390.98 2413.77 3296.04 2432.42C3190.92 2453.61 3093.43 2453.61 2996.79 2356.98Z" fill="url(#paint4_linear_355:72625)"/>
<path d="M3485.02 1360.68C3645.61 1360.68 3775.79 1230.52 3775.79 1069.96C3775.79 909.405 3645.61 779.246 3485.02 779.246C3324.43 779.246 3194.25 909.405 3194.25 1069.96C3194.25 1230.52 3324.43 1360.68 3485.02 1360.68Z" fill="url(#paint5_linear_355:72625)"/>
<path d="M3205.27 2462.55C3365.86 2462.55 3496.04 2332.39 3496.04 2171.83C3496.04 2011.27 3365.86 1881.11 3205.27 1881.11C3044.68 1881.11 2914.49 2011.27 2914.49 2171.83C2914.49 2332.39 3044.68 2462.55 3205.27 2462.55Z" fill="url(#paint6_linear_355:72625)"/>
<path d="M1888.75 2130.73C2284.26 2130.73 2604.89 1810.16 2604.89 1414.72C2604.89 1019.28 2284.26 698.707 1888.75 698.707C1493.23 698.707 1172.61 1019.28 1172.61 1414.72C1172.61 1810.16 1493.23 2130.73 1888.75 2130.73Z" fill="url(#paint7_linear_355:72625)" fill-opacity="0.6"/>
<path d="M1888.77 1705.44C2049.36 1705.44 2179.54 1575.29 2179.54 1414.73C2179.54 1254.17 2049.36 1124.01 1888.77 1124.01C1728.18 1124.01 1597.99 1254.17 1597.99 1414.73C1597.99 1575.29 1728.18 1705.44 1888.77 1705.44Z" fill="#E1D6FA" fill-opacity="0.4"/>
</g>
<defs>
<filter id="filter0_b_355:72625" x="1886.91" y="565.53" width="2095.46" height="2090.6" filterUnits="userSpaceOnUse" color-interpolation-filters="sRGB">
<feFlood flood-opacity="0" result="BackgroundImageFix"/>
<feGaussianBlur in="BackgroundImage" stdDeviation="9.39103"/>
<feComposite in2="SourceAlpha" operator="in" result="effect1_backgroundBlur_355:72625"/>
<feBlend mode="normal" in="SourceGraphic" in2="effect1_backgroundBlur_355:72625" result="shape"/>
</filter>
<linearGradient id="paint0_linear_355:72625" x1="8503.96" y1="6396.31" x2="8040.99" y2="6891.98" gradientUnits="userSpaceOnUse">
<stop stop-color="#BCA8F8" stop-opacity="0.2"/>
<stop offset="1" stop-color="#28AFEA" stop-opacity="0.18"/>
</linearGradient>
<linearGradient id="paint1_linear_355:72625" x1="7440.15" y1="8947.83" x2="6769.24" y2="9666.13" gradientUnits="userSpaceOnUse">
<stop stop-color="#BCA8F8" stop-opacity="0.2"/>
<stop offset="1" stop-color="#28AFEA" stop-opacity="0.18"/>
</linearGradient>
<linearGradient id="paint2_linear_355:72625" x1="3168.78" y1="3011.78" x2="6835.38" y2="-314.985" gradientUnits="userSpaceOnUse">
<stop stop-color="#839DE2"/>
<stop offset="1" stop-color="#81CAFB"/>
</linearGradient>
<linearGradient id="paint3_linear_355:72625" x1="2461.17" y1="3034.87" x2="4505.1" y2="1181.49" gradientUnits="userSpaceOnUse">
<stop stop-color="#391F6E"/>
<stop offset="1" stop-color="#81CAFB" stop-opacity="0.61"/>
</linearGradient>
<linearGradient id="paint4_linear_355:72625" x1="2307.03" y1="2032.56" x2="4501.56" y2="1586.62" gradientUnits="userSpaceOnUse">
<stop stop-color="#5190D6"/>
<stop offset="1" stop-color="#D0B0F3"/>
</linearGradient>
<linearGradient id="paint5_linear_355:72625" x1="3485.02" y1="925.674" x2="3775.79" y2="1608.74" gradientUnits="userSpaceOnUse">
<stop stop-color="#CBBCFF"/>
<stop offset="1" stop-color="#A995ED"/>
</linearGradient>
<linearGradient id="paint6_linear_355:72625" x1="3205.27" y1="1881.11" x2="3205.27" y2="2462.55" gradientUnits="userSpaceOnUse">
<stop stop-color="#CBBCFF"/>
<stop offset="1" stop-color="#A995ED"/>
</linearGradient>
<linearGradient id="paint7_linear_355:72625" x1="1888.75" y1="698.707" x2="1888.75" y2="2130.73" gradientUnits="userSpaceOnUse">
<stop stop-color="#CBBCFF"/>
<stop offset="1" stop-color="#A995ED"/>
</linearGradient>
<clipPath id="clip0_355:72625">
<rect width="6016" height="3384" fill="white" transform="translate(0.741211 0.0234375)"/>
</clipPath>
</defs>
</svg>
