<svg width="6017" height="3385" viewBox="0 0 6017 3385" fill="none" xmlns="http://www.w3.org/2000/svg">
<g clip-path="url(#clip0_355:72649)">
<rect width="6016" height="3384" transform="translate(0.741211 0.59375)" fill="white"/>
<rect x="0.741211" y="0.59375" width="6010.26" height="3380.77" fill="#E1DFFC"/>
<path d="M3664.02 1332.65C3621.63 1269.19 3505.36 1327.51 3523.63 1399.02C3528.31 1417.28 3538.81 1451.25 3548.28 1481.09C3555.5 1503.84 3546.72 1528.47 3527.64 1542.79C3525.85 1544.13 3524.07 1545.48 3522.3 1546.84C3503.18 1561.47 3476.8 1563.09 3456.8 1549.69C3436.13 1535.85 3411.31 1519.45 3385.79 1503.03C3321.65 1461.75 3238.13 1560.91 3283.41 1619.2C3294.79 1633.86 3317.5 1660.44 3337.89 1683.93C3353.7 1702.14 3355.31 1728.57 3343.05 1749.34C3341.47 1752.01 3339.91 1754.7 3338.37 1757.4C3326.01 1778.98 3301.23 1790.78 3277 1785.14C3254.45 1779.89 3228.41 1774 3201.84 1768.35C3127.22 1752.36 3084.29 1875.09 3147.25 1913.66C3163.58 1923.66 3195.61 1941.19 3223.58 1956.23C3244.15 1967.29 3255.05 1990.37 3251.88 2013.52C3251.79 2014.16 3251.7 2014.81 3251.61 2015.46C3248.39 2039.49 3230.67 2059.4 3206.85 2063.95C3183.37 2068.43 3155.98 2073.83 3128.18 2079.62C3053.42 2095.23 3063.94 2224.8 3137.14 2234.69C3155.09 2237.12 3188.58 2239.99 3218.89 2242.32C3242.82 2244.16 3262.47 2261.65 3268.48 2284.88C3269.27 2287.93 3270.09 2290.99 3270.92 2294.04C3277.28 2317.27 3268.95 2342.37 3249.02 2355.92C3229.02 2369.51 3205.6 2385.62 3182.02 2402.28C3119.73 2446.28 3180.48 2560.92 3251.37 2540.72C3268.52 2535.88 3299.7 2525.42 3328.17 2515.65C3350.98 2507.82 3376.06 2516.29 3390.66 2535.49C3392.45 2537.85 3394.26 2540.2 3396.08 2542.54C3410.92 2561.57 3412.86 2587.99 3399.61 2608.15C3386.04 2628.8 3370 2653.5 3354 2678.86C3313.31 2743.41 3413.12 2826.02 3471.14 2780.31C3485.75 2768.72 3512.36 2745.6 3535.79 2724.94C3553.82 2709.03 3580.15 2707.19 3601.04 2719.12C3603.58 2720.57 3606.13 2722 3608.69 2723.42C3630.55 2735.54 3642.7 2760.33 3637.24 2784.72C3632.15 2807.45 3626.42 2833.74 3620.88 2860.55C3605.51 2935.34 3728.69 2977.12 3766.74 2913.94C3776.8 2897.24 3794.46 2864.23 3809.43 2835.83C3820.24 2815.31 3843.02 2804.28 3866.04 2807.04C3866.4 2807.09 3866.76 2807.13 3867.12 2807.17C3891.29 2810.03 3911.49 2827.59 3916.23 2851.46C3920.95 2875.22 3926.66 2903.18 3932.82 2931.55C3949.03 3006.17 4078.63 2994.56 4087.81 2921.22C4090.16 2902.78 4092.82 2867.95 4094.91 2836.97C4096.52 2813.12 4113.71 2793.34 4136.76 2787.01C4139.37 2786.29 4141.97 2785.56 4144.58 2784.81C4167.73 2778.17 4192.9 2786.27 4206.61 2806.08C4220.66 2826.39 4237.51 2850.46 4255.02 2874.76C4299.65 2936.69 4413.62 2875.01 4392.91 2804.24C4387.52 2785.86 4375.52 2751.2 4364.91 2721.17C4357.67 2700.7 4365.17 2677.99 4382.38 2664.75V2664.75C4400.3 2650.96 4425.22 2650.08 4443.36 2663.59C4461.96 2677.44 4483.5 2693.28 4505.54 2709.14C4567.57 2753.65 4655.99 2658.35 4613.75 2597.78C4602.86 2582.21 4580.87 2553.72 4561.43 2528.93C4547.18 2510.76 4546.26 2485.6 4558.02 2465.73C4558.58 2464.78 4559.14 2463.83 4559.7 2462.88C4572.1 2441.69 4596.55 2430.11 4620.49 2435.55C4643.61 2440.81 4670.57 2446.8 4698.07 2452.58C4772.76 2468.21 4815.04 2345.19 4751.86 2306.92C4735.89 2297.21 4704.93 2280.47 4677.41 2265.85C4656.5 2254.75 4645.5 2231.3 4649 2207.89C4649.35 2205.5 4649.7 2203.11 4650.03 2200.72C4653.36 2176.69 4671.09 2156.78 4694.94 2152.32C4719.2 2147.8 4748.04 2142.24 4777.34 2136.15C4852.08 2120.77 4842.32 1991.45 4769.21 1981.52C4750.44 1978.98 4714.59 1975.84 4683.1 1973.31C4659.24 1971.39 4639.71 1953.87 4633.77 1930.69C4633.11 1928.12 4632.43 1925.55 4631.74 1922.99C4625.22 1898.71 4634.67 1872.56 4656.14 1859.5C4676.27 1847.25 4699.54 1832.9 4723 1818.06C4787.52 1777.22 4732.23 1659.56 4660.22 1676.05C4640.6 1680.54 4602.89 1691.21 4571.48 1700.35C4549.46 1706.75 4525.88 1698.11 4512.01 1679.85V1679.85C4497.38 1660.59 4496.05 1634.09 4509.88 1614.25C4524.11 1593.86 4540.95 1569.41 4557.8 1544.27C4600.35 1480.85 4502.01 1395.59 4442.85 1439.78C4427.39 1451.37 4398.9 1474.96 4374.46 1495.5C4356.23 1510.82 4330.18 1512.16 4309.68 1500.04C4307.99 1499.04 4306.29 1498.04 4304.59 1497.05C4283.72 1484.94 4272.1 1461.11 4276.87 1437.46C4281.9 1412.57 4287.8 1382.37 4293.45 1351.54C4307.07 1276.45 4183.54 1237.11 4146.96 1301.24C4137.44 1317.88 4120.81 1350.58 4106.54 1379.1C4095.78 1400.61 4072.03 1412.11 4048.21 1408.71C4046.36 1408.45 4044.51 1408.19 4042.66 1407.94C4017.87 1404.61 3997.48 1385.94 3993.61 1361.24C3989.98 1338.15 3985.64 1311.45 3980.95 1284.36C3967.89 1209.16 3837.91 1215.35 3825.68 1288.15C3822.42 1307.52 3818.03 1345.2 3814.51 1377.31C3811.98 1400.43 3794.74 1419.13 3772.23 1425.01V1425.01C3748.38 1431.23 3722.33 1422.22 3709.06 1401.46C3695.94 1380.93 3680.28 1356.89 3664.02 1332.65Z" fill="url(#paint0_linear_355:72649)"/>
<path d="M426.409 1609.63C364.969 1517.67 196.479 1602.18 222.957 1705.82C230.663 1735.89 249.27 1795.35 264.181 1842.03C271.441 1864.75 262.696 1889.43 243.361 1903.41C230.857 1912.45 218.592 1921.75 206.573 1931.29C187.714 1946.25 161.292 1947.82 141.319 1934.37C108.773 1912.46 66.6857 1884.51 23.2126 1856.54C-69.7338 1796.72 -190.771 1940.42 -125.156 2024.89C-106.371 2049.08 -66.3012 2095.67 -34.1389 2132.54C-18.2854 2150.72 -16.631 2177.18 -29.2488 2197.73C-38.1427 2212.22 -46.683 2226.91 -54.8444 2241.82C-66.7901 2263.63 -91.6233 2275.41 -115.836 2269.71C-152.365 2261.12 -197.303 2250.81 -243.363 2241.02C-351.494 2217.85 -413.712 2395.7 -322.464 2451.6C-295.695 2467.98 -239.833 2498.33 -196.296 2521.63C-175.695 2532.66 -164.748 2555.74 -168.308 2578.84C-170.285 2591.66 -172.03 2604.54 -173.531 2617.47C-176.326 2641.55 -194.101 2661.46 -217.93 2665.94C-255.531 2673.01 -302.411 2682.16 -350.101 2692.1C-458.436 2714.72 -443.2 2902.48 -337.119 2916.81C-307.44 2920.83 -248.478 2925.67 -200.442 2929.25C-176.517 2931.03 -156.806 2948.51 -151.204 2971.84C-147.303 2988.09 -142.995 3004.3 -138.246 3020.47C-131.457 3043.58 -139.847 3068.7 -159.806 3082.2C-191.716 3103.77 -231.749 3131.18 -272.081 3159.67C-362.352 3223.43 -274.306 3389.56 -171.59 3360.3C-143.185 3352.27 -88.2237 3333.64 -42.9188 3317.98C-20.1228 3310.1 5.01578 3318.54 19.2741 3337.99C29.0879 3351.38 39.1766 3364.5 49.5597 3377.33C64.7396 3396.08 66.6356 3422.54 53.3416 3442.67C31.8109 3475.28 4.44913 3517.2 -22.8652 3560.48C-81.8236 3654.02 62.8094 3773.73 146.889 3707.49C170.987 3688.38 217.59 3647.65 254.297 3615.13C272.298 3599.18 298.653 3597.29 319.318 3609.59C333.716 3618.17 348.321 3626.38 363.122 3634.21C385.213 3645.91 397.338 3670.75 391.82 3695.13C383.495 3731.9 373.481 3777.3 363.891 3823.77C341.616 3932.16 520.112 3992.7 575.257 3901.14C591.718 3873.83 622.189 3816.4 645.266 3772.45C656.048 3751.92 678.833 3740.85 701.812 3744C714.232 3745.71 726.697 3747.19 739.198 3748.44C763.414 3750.87 783.604 3768.49 788.288 3792.37C795.719 3830.25 805.377 3878.04 815.929 3926.67C839.426 4034.79 1027.23 4017.98 1040.53 3911.69C1044.41 3881.3 1048.86 3820.16 1052.02 3771.46C1053.57 3747.61 1070.75 3727.77 1093.91 3721.85C1109.43 3717.89 1124.92 3713.54 1140.38 3708.81C1163.42 3701.75 1188.61 3709.91 1202.27 3729.75C1224.43 3761.92 1252.98 3802.91 1282.85 3844.36C1347.53 3934.11 1512.68 3844.73 1482.67 3742.16C1474.14 3713.1 1454.2 3655.92 1437.92 3610.04C1429.85 3587.32 1438.07 3562.13 1457.36 3547.66C1464.2 3542.53 1470.96 3537.33 1477.64 3532.04C1497.34 3516.47 1525.13 3515.46 1545.25 3530.49C1574.43 3552.3 1609.7 3578.32 1645.89 3604.36C1735.77 3668.86 1863.91 3530.76 1802.69 3442.98C1784.85 3417.49 1746.48 3368.08 1716.11 3329.52C1701.83 3311.38 1700.86 3286.2 1712.95 3266.53C1720.1 3254.88 1727.03 3243.09 1733.71 3231.18C1745.71 3209.77 1770.2 3198.21 1794.13 3203.71C1831.27 3212.23 1877.52 3222.61 1924.88 3232.56C2033.12 3255.22 2094.39 3076.95 2002.83 3021.49C1976.56 3005.51 1922.28 2976.39 1879.07 2953.57C1858.14 2942.51 1847.09 2919.05 1850.97 2895.7C1853.54 2880.28 1855.78 2864.78 1857.64 2849.23C1860.52 2825.14 1878.3 2805.23 1902.15 2800.83C1940.57 2793.74 1989.7 2784.43 2039.76 2774.02C2148.06 2751.73 2133.92 2564.32 2027.97 2549.94C1997.08 2545.76 1934.26 2540.45 1885.04 2536.6C1861.18 2534.73 1841.59 2517.22 1836.06 2493.94C1832.29 2478.07 1828.14 2462.25 1823.56 2446.47C1816.55 2422.32 1826.05 2396.16 1847.56 2383.15C1880.11 2363.47 1920.37 2338.77 1961.01 2313.06C2054.51 2253.88 1974.39 2083.37 1870.04 2107.27C1838.13 2114.57 1773.24 2133.15 1725.25 2147.21C1702.98 2153.73 1679.16 2145.11 1665.43 2126.4C1658.54 2117.02 1651.51 2107.77 1644.33 2098.65C1629.18 2079.44 1627.81 2052.51 1641.85 2032.47C1664.35 2000.38 1692.97 1959.02 1721.61 1916.3C1783.27 1824.39 1640.77 1700.84 1555.03 1764.88C1529.64 1783.91 1479.98 1825.31 1442.09 1857.28C1423.9 1872.63 1397.82 1874.02 1377.54 1861.54C1364.75 1853.67 1351.8 1846.09 1338.69 1838.79C1317.61 1827.05 1306.03 1803.17 1310.86 1779.53C1318.82 1740.57 1328.93 1689.42 1338.54 1637.01C1358.27 1528.2 1179.26 1471.18 1126.24 1564.12C1110.59 1591.49 1081.64 1648.89 1059.5 1693.33C1048.77 1714.86 1025.01 1726.42 1001.25 1722.6C986.228 1720.19 971.148 1718.1 956.013 1716.36C931.167 1713.5 910.788 1694.79 906.976 1670.07C901.216 1632.73 893.799 1586.6 885.675 1539.66C866.749 1430.69 678.387 1439.66 660.668 1545.15C655.337 1576.82 647.916 1642.29 642.592 1691.82C640.106 1714.95 622.93 1733.69 600.319 1739.17C588.298 1742.08 576.289 1745.22 564.31 1748.6C540.594 1755.29 515.008 1746.09 501.815 1725.28C481.021 1692.47 454.311 1651.25 426.409 1609.63Z" fill="url(#paint1_linear_355:72649)"/>
<path d="M3887.83 2049.54L2421.04 583.895C2204.98 368.001 2121.29 51.7629 2201.94 -243.191C2282.58 -538.144 2515.38 -767.721 2810.56 -843.74L4800.77 -1356.11C5092.91 -1432.13 5403.31 -1346.99 5616.33 -1134.13L5617.85 -1132.61C5830.87 -918.239 5914.56 -606.561 5836.96 -314.648L5313.54 1664.88C5235.94 1959.84 5006.18 2189.42 4711 2270C4418.86 2349.05 4103.89 2265.43 3887.83 2049.54Z" fill="url(#paint2_linear_355:72649)" fill-opacity="0.4"/>
<g filter="url(#filter0_b_355:72649)">
<path d="M2824.19 2498.69L2006.97 1681.62C1886.6 1561.27 1839.97 1384.97 1884.9 1220.54C1929.83 1056.11 2059.53 928.129 2223.99 885.751L3332.83 600.118C3495.59 557.739 3668.53 605.203 3787.21 723.864L3788.06 724.711C3906.74 844.219 3953.37 1017.97 3910.13 1180.71L3618.51 2284.25C3575.28 2448.68 3447.27 2576.66 3282.81 2621.59C3120.05 2665.66 2944.57 2619.04 2824.19 2498.69Z" fill="url(#paint3_linear_355:72649)"/>
</g>
<path d="M2959.19 2357.54L2164.01 1571.84C2091.96 1505.73 2050.42 1398.94 2066.53 1300.62C2086.02 1180.26 2164.01 1098.89 2246.24 1067.53L3347.45 792.92C3478 759.017 3580.58 792.92 3652.63 870.897L3653.48 871.744C3729.78 938.703 3742.49 1036.17 3720.45 1153.14L3455.11 2225.32C3419.51 2356.7 3353.38 2414.33 3258.44 2432.98C3153.32 2454.17 3055.83 2454.17 2959.19 2357.54Z" fill="url(#paint4_linear_355:72649)"/>
<path d="M3447.42 1361.25C3608.01 1361.25 3738.19 1231.09 3738.19 1070.53C3738.19 909.972 3608.01 779.812 3447.42 779.812C3286.83 779.812 3156.65 909.972 3156.65 1070.53C3156.65 1231.09 3286.83 1361.25 3447.42 1361.25Z" fill="url(#paint5_linear_355:72649)"/>
<path d="M3167.67 2463.1C3328.26 2463.1 3458.44 2332.95 3458.44 2172.39C3458.44 2011.83 3328.26 1881.67 3167.67 1881.67C3007.08 1881.67 2876.89 2011.83 2876.89 2172.39C2876.89 2332.95 3007.08 2463.1 3167.67 2463.1Z" fill="url(#paint6_linear_355:72649)"/>
<path d="M1851.15 2131.3C2246.66 2131.3 2567.29 1810.73 2567.29 1415.29C2567.29 1019.85 2246.66 699.281 1851.15 699.281C1455.64 699.281 1135.01 1019.85 1135.01 1415.29C1135.01 1810.73 1455.64 2131.3 1851.15 2131.3Z" fill="url(#paint7_linear_355:72649)" fill-opacity="0.6"/>
<path d="M1851.17 1706.02C2011.76 1706.02 2141.94 1575.86 2141.94 1415.3C2141.94 1254.74 2011.76 1124.58 1851.17 1124.58C1690.58 1124.58 1560.39 1254.74 1560.39 1415.3C1560.39 1575.86 1690.58 1706.02 1851.17 1706.02Z" fill="#E1D6FA" fill-opacity="0.4"/>
</g>
<defs>
<filter id="filter0_b_355:72649" x="1849.31" y="566.089" width="2095.46" height="2090.6" filterUnits="userSpaceOnUse" color-interpolation-filters="sRGB">
<feFlood flood-opacity="0" result="BackgroundImageFix"/>
<feGaussianBlur in="BackgroundImage" stdDeviation="9.39103"/>
<feComposite in2="SourceAlpha" operator="in" result="effect1_backgroundBlur_355:72649"/>
<feBlend mode="normal" in="SourceGraphic" in2="effect1_backgroundBlur_355:72649" result="shape"/>
</filter>
<linearGradient id="paint0_linear_355:72649" x1="8503.96" y1="6396.88" x2="8040.99" y2="6892.55" gradientUnits="userSpaceOnUse">
<stop stop-color="#BCA8F8" stop-opacity="0.2"/>
<stop offset="1" stop-color="#28AFEA" stop-opacity="0.18"/>
</linearGradient>
<linearGradient id="paint1_linear_355:72649" x1="7440.15" y1="8948.4" x2="6769.24" y2="9666.7" gradientUnits="userSpaceOnUse">
<stop stop-color="#BCA8F8" stop-opacity="0.2"/>
<stop offset="1" stop-color="#28AFEA" stop-opacity="0.18"/>
</linearGradient>
<linearGradient id="paint2_linear_355:72649" x1="3168.78" y1="3012.35" x2="6835.38" y2="-314.414" gradientUnits="userSpaceOnUse">
<stop stop-color="#839DE2"/>
<stop offset="1" stop-color="#81CAFB"/>
</linearGradient>
<linearGradient id="paint3_linear_355:72649" x1="2423.57" y1="3035.43" x2="4467.5" y2="1182.05" gradientUnits="userSpaceOnUse">
<stop stop-color="#391F6E"/>
<stop offset="1" stop-color="#81CAFB"/>
</linearGradient>
<linearGradient id="paint4_linear_355:72649" x1="2269.43" y1="2033.12" x2="4463.96" y2="1587.19" gradientUnits="userSpaceOnUse">
<stop stop-color="#5190D6"/>
<stop offset="1" stop-color="#D0B0F3"/>
</linearGradient>
<linearGradient id="paint5_linear_355:72649" x1="3447.42" y1="926.241" x2="3738.19" y2="1609.31" gradientUnits="userSpaceOnUse">
<stop stop-color="#CBBCFF"/>
<stop offset="1" stop-color="#A995ED"/>
</linearGradient>
<linearGradient id="paint6_linear_355:72649" x1="3167.67" y1="1881.67" x2="3167.67" y2="2463.1" gradientUnits="userSpaceOnUse">
<stop stop-color="#CBBCFF"/>
<stop offset="1" stop-color="#A995ED"/>
</linearGradient>
<linearGradient id="paint7_linear_355:72649" x1="1851.15" y1="699.281" x2="1851.15" y2="2131.3" gradientUnits="userSpaceOnUse">
<stop stop-color="#CBBCFF"/>
<stop offset="1" stop-color="#A995ED"/>
</linearGradient>
<clipPath id="clip0_355:72649">
<rect width="6016" height="3384" fill="white" transform="translate(0.741211 0.59375)"/>
</clipPath>
</defs>
</svg>
