<svg width="272" height="269" viewBox="0 0 272 269" fill="none" xmlns="http://www.w3.org/2000/svg">
<path d="M189.79 155.713C192.356 156.74 195.268 155.495 196.295 152.929L203.004 136.174C203.841 134.093 203.18 131.703 201.398 130.339L170.521 114.103C168.326 112.42 164.876 113.437 163.194 115.633C161.512 117.828 161.935 120.969 164.13 122.646L192.299 135.979L187 149.208C185.974 151.774 187.224 154.687 189.79 155.713Z" fill="url(#paint0_linear)"/>
<path d="M196.761 152.853L188.692 148.648C185.803 156.193 181.042 175.685 184.111 180.503C185.342 182.437 185.337 183.435 184.658 185.117L202.543 183.174C203.128 181.715 205.304 176.716 204.715 175.419C196.19 169.484 196.091 158.075 196.761 152.853Z" fill="url(#paint1_linear)"/>
<path d="M171.439 184.637L196.78 180.437C197.141 180.38 198.158 180.232 198.614 179.862L211.966 187.36C213.263 188.096 212.916 190.054 211.443 190.296L188.683 194.074C188.383 194.122 188.074 194.084 187.799 193.965L171.215 186.509C170.308 186.124 170.469 184.799 171.439 184.637Z" fill="#512BD4"/>
<path d="M189.823 150.757C189.966 150.373 190.061 149.893 190.113 149.389L187.381 147.968C184.753 154.469 172.688 183.715 173.144 185.407C173.615 187.16 203.247 187.688 203.247 187.688L202.695 174.221C197.83 174.098 185.817 161.629 189.823 150.757Z" fill="#512BD4"/>
<path d="M221.108 104.314C214.309 104.314 207.091 102.195 199.531 97.9704L204.245 89.536C213.354 94.6299 221.522 95.9129 228.516 93.3517C240.258 89.0514 245.561 75.2143 245.613 75.0718L254.675 78.4265C254.404 79.163 247.856 96.5068 231.923 102.394C228.455 103.672 224.843 104.314 221.108 104.314Z" fill="#8A6FE8"/>
<path d="M232.636 65.5968L239.996 78.6784C241.241 80.8879 244.04 81.6719 246.25 80.427L246.516 80.2749C248.725 79.03 249.509 76.2312 248.264 74.0217L240.904 60.9401C239.659 58.7306 236.86 57.9466 234.651 59.1915L234.385 59.3436C232.18 60.5885 231.401 63.3825 232.636 65.5968Z" fill="#8A6FE8"/>
<path d="M255.782 85.0742L270.194 73.1046C272.194 71.394 272.436 68.3814 270.726 66.3809C269.015 64.3804 266.003 64.1381 264.002 65.8487L254.727 73.3754L255.782 85.0742Z" fill="#8A6FE8"/>
<path d="M252.84 83.6344L261.018 72.7292C262.591 70.6147 262.149 67.6258 260.035 66.053C257.92 64.4802 254.931 64.9221 253.358 67.0366L247.252 75.1288L252.84 83.6344Z" fill="#8A6FE8"/>
<path d="M247.903 81.7147L253.396 69.2271C254.461 66.818 253.368 64.0002 250.959 62.9358C248.55 61.8714 245.732 62.9643 244.667 65.3735L241.123 73.6842L247.903 81.7147Z" fill="#8A6FE8"/>
<path d="M249.942 86.9464C255.454 86.9464 259.925 82.475 259.925 76.963C259.925 71.451 255.454 66.9796 249.942 66.9796C244.43 66.9796 239.958 71.451 239.958 76.963C239.958 82.475 244.43 86.9464 249.942 86.9464Z" fill="url(#paint2_radial)"/>
<path d="M205.822 88.9088C209.414 75.908 207.371 65.459 207.371 65.459L210.441 65.5017L210.517 65.4447C206.468 41.4342 185.76 22.9833 160.548 22.6126C132.137 22.1945 108.768 44.8887 108.355 73.2946C107.936 101.705 130.631 125.074 159.037 125.488C181.455 125.815 200.728 111.75 208.07 91.8501C208.288 91.0138 208.293 89.4885 205.822 88.9088Z" fill="url(#paint3_radial)"/>
<path d="M205.822 88.9089C209.372 76.0697 207.423 65.7204 207.371 65.4686L154.004 64.6846C154.004 64.6846 150.645 64.2949 150.602 67.3645C150.559 70.4341 150.555 79.1156 150.412 88.7093C150.384 90.686 151.985 91.6554 153.258 91.6791C153.263 91.6791 204.876 90.2916 205.822 88.9089Z" fill="url(#paint4_radial)"/>
<path d="M173.582 88.4385C173.582 88.4385 181.888 82.0664 183.503 80.8832C185.128 79.7048 186.525 79.6573 187.975 80.9497C189.424 82.2375 197.549 88.7901 197.549 88.7901L173.582 88.4385Z" fill="#A08BE8"/>
<path d="M207.856 92.4489C207.856 92.4489 209.319 89.7261 205.822 88.9136C205.827 88.8993 153.349 88.101 153.349 88.101C152.132 88.0868 150.569 87.3313 150.45 86.1481C150.441 86.9939 150.426 87.8539 150.417 88.7235C150.388 90.5149 151.705 91.4843 152.902 91.6601C153.021 91.6743 153.144 91.6933 153.263 91.6933L156.851 91.7456L207.856 92.4489Z" fill="#512BD4"/>
<path d="M203.76 100.755L115.059 99.4576C117.003 102.869 119.322 106.039 121.968 108.904L196.585 109.997C199.312 107.208 201.721 104.11 203.76 100.755Z" fill="#D0C5F3"/>
<path d="M100.443 22.9453L107.723 16.6873C109.676 15.0337 112.598 15.276 114.251 17.229C115.905 19.1819 115.663 22.1043 113.71 23.7579L104.762 31.2798L100.443 22.9453Z" fill="#8A6FE8"/>
<path d="M90.0936 24.922L89.8465 15.3235C89.799 12.7671 91.8328 10.6526 94.3892 10.6051C96.9456 10.5575 99.0601 12.5913 99.1077 15.1477L99.3643 24.9838L90.0936 24.922Z" fill="#8A6FE8"/>
<path d="M96.3279 24.6797L96.3232 15.0812C96.3374 12.52 98.4282 10.4673 100.98 10.4815C103.541 10.4958 105.594 12.5865 105.58 15.1382L105.584 24.9838L96.3279 24.6797Z" fill="#8A6FE8"/>
<path d="M87.3567 27.4119L85.1472 18.0748C84.5722 15.5849 86.1355 13.0997 88.6254 12.5248C91.1153 11.9498 93.6005 13.5131 94.1754 16.003L96.442 25.5825L87.3567 27.4119Z" fill="#8A6FE8"/>
<path d="M94.1992 24.3851C89.3667 31.6173 85.3752 44.561 90.0319 57.2338C92.8592 64.9316 99.9488 75.1621 117.673 80.2085L120.471 70.3819C109.714 67.317 102.5 61.5532 99.6209 53.7128C96.5038 45.2215 98.9129 35.718 102.691 30.0634L94.1992 24.3851Z" fill="url(#paint5_linear)"/>
<path d="M96.2044 39.0204C101.56 39.0204 105.898 34.6773 105.898 29.3268C105.898 23.9764 101.56 19.6333 96.2044 19.6333C90.8539 19.6333 86.5108 23.9764 86.5108 29.3268C86.5108 34.6773 90.8539 39.0204 96.2044 39.0204Z" fill="url(#paint6_radial)"/>
<path d="M204.149 76.8395C204.263 73.1046 202.548 70.0303 200.329 69.959C198.105 69.8925 196.219 72.867 196.105 76.5971C195.991 80.332 197.706 83.4159 199.925 83.4777C202.149 83.5489 204.035 80.5744 204.149 76.8395Z" fill="#512BD4"/>
<path d="M200.115 73.1521C198.623 74.6014 198.59 76.9868 200.034 78.4693C201.028 79.4909 202.453 79.8283 203.736 79.4719C203.969 78.6689 204.102 77.7803 204.135 76.8489C204.187 75.0195 203.803 73.3422 203.137 72.1115C202.068 71.9927 200.952 72.3396 200.115 73.1521Z" fill="#8065E0"/>
<path d="M167.708 83.0452C169.932 83.0452 171.733 80.0183 171.733 76.2834C171.733 72.5486 169.927 69.5217 167.708 69.5217C165.485 69.5217 163.684 72.5486 163.684 76.2834C163.684 80.0183 165.489 83.0452 167.708 83.0452Z" fill="#512BD4"/>
<path d="M167.727 72.8955C166.235 74.3448 166.202 76.7301 167.647 78.2127C168.635 79.2248 170.051 79.5669 171.329 79.22C171.586 78.3267 171.733 77.3288 171.733 76.274C171.733 74.5776 171.358 73.0333 170.745 71.8453C169.676 71.7408 168.564 72.0829 167.727 72.8955Z" fill="#8065E0"/>
<path d="M123.731 87.0746C128.949 87.0746 133.178 82.8456 133.178 77.6282C133.178 72.4108 128.949 68.1818 123.731 68.1818C118.514 68.1818 114.285 72.4108 114.285 77.6282C114.285 82.8456 118.514 87.0746 123.731 87.0746Z" fill="url(#paint7_radial)"/>
<path d="M125.033 131.385C123.527 131.361 122.04 130.71 120.999 129.465C119.093 127.194 119.393 123.806 121.664 121.9L143.812 103.349C146.083 101.444 149.471 101.743 151.377 104.015C153.282 106.286 152.983 109.674 150.711 111.579L128.564 130.13C127.528 130.99 126.273 131.404 125.033 131.385Z" fill="url(#paint8_linear)"/>
<path d="M144.206 154.212C145.104 155.272 144.819 156.07 143.902 157.02L138.68 161.653C138.884 161.007 138.723 159.719 138.21 159.177L127.547 148.182C128.906 148.239 129.585 147.393 129.965 147.027C129.965 147.027 131.282 145.83 132.712 144.457C133.387 143.806 134.456 143.834 135.107 144.509L144.206 154.212Z" fill="#D0C5F3"/>
<path d="M101.26 143.844L126.606 147.997C126.967 148.054 127.979 148.244 128.526 148.044L138.766 159.434C139.759 160.546 138.799 162.29 137.326 162.048L114.556 158.322C114.256 158.275 113.976 158.142 113.753 157.937L100.438 145.554C99.7159 144.884 100.296 143.682 101.26 143.844Z" fill="#512BD4"/>
<path d="M152.427 20.3366L142.995 22.7838L141.807 12.7624L148.573 11.0042L152.427 20.3366Z" fill="#8A6FE8"/>
<path d="M144.04 14.7391C147.875 14.7391 150.978 11.6362 150.978 7.80155C150.978 3.9669 147.875 0.868774 144.04 0.868774C140.205 0.868774 137.103 3.97165 137.103 7.8063C137.103 11.6409 140.21 14.7391 144.04 14.7391Z" fill="#D8CFF7"/>
<path d="M157.568 25.3116C157.991 25.1976 158.238 24.7414 158.077 24.3328C156.414 19.9897 151.714 17.495 147.11 18.6925C142.505 19.8899 139.616 24.3565 140.277 28.961C140.343 29.3934 140.776 29.6737 141.199 29.5644L157.568 25.3116Z" fill="url(#paint9_radial)"/>
<path d="M192.598 97.6853H177.022V113.261H192.598V97.6853V97.6853Z" fill="#512BD4"/>
<path d="M179.797 107.635C179.683 107.635 179.593 107.597 179.516 107.521C179.44 107.445 179.398 107.355 179.398 107.255C179.398 107.146 179.436 107.06 179.516 106.98C179.593 106.904 179.688 106.866 179.797 106.866C179.911 106.866 180.001 106.904 180.082 106.98C180.163 107.056 180.201 107.146 180.201 107.255C180.201 107.355 180.163 107.45 180.082 107.521C180.001 107.607 179.911 107.635 179.797 107.635Z" fill="white"/>
<path d="M184.197 107.578H183.484L181.603 104.604C181.555 104.528 181.517 104.447 181.484 104.366H181.469C181.484 104.452 181.493 104.642 181.493 104.922V107.574H180.861V103.525H181.622L183.446 106.428C183.522 106.547 183.574 106.633 183.598 106.676H183.608C183.593 106.566 183.579 106.386 183.579 106.129V103.52H184.206V107.574H184.197V107.578Z" fill="white"/>
<path d="M187.286 107.578H185.066V103.53H187.195V104.1H185.727V105.25H187.086V105.82H185.727V107.018H187.29V107.583H187.286V107.578Z" fill="white"/>
<path d="M190.436 104.1H189.305V107.578H188.649V104.1H187.518V103.53H190.436V104.1Z" fill="white"/>
<path d="M215.435 180.669C216.623 181.382 216.609 182.238 216.043 183.421L212.579 189.484C212.565 188.809 211.999 187.645 211.339 187.293L197.711 180.299C199.013 179.919 199.393 178.897 199.64 178.431C199.64 178.431 200.505 176.873 201.417 175.115C201.845 174.283 202.871 173.965 203.698 174.402L215.435 180.669Z" fill="#8A6FE8"/>
<path d="M124.216 122.043L122.89 120.874C118.851 124.333 100.467 142.38 100.357 144.143C100.243 145.958 130.407 156.944 130.407 156.944L118.086 142.984C113.639 141.349 117.288 130.919 124.216 122.043Z" fill="#512BD4"/>
<path d="M131.001 128.044L123.508 121.415C117.164 125.402 112.265 140.598 112.265 140.598C112.265 140.598 124.815 149.797 124.529 148.975C124.249 148.153 124.092 134.359 131.001 128.044Z" fill="url(#paint10_linear)"/>
<path d="M120.395 223.255C200.809 272.43 247.671 269.665 260.648 267.512C262.952 267.132 264.093 265.265 263.385 263.036C259.393 250.51 240.505 207.526 160.091 158.351C102.596 123.188 56.651 107.246 36.0855 101.216C29.7182 99.3484 24.4343 102.185 24.5103 107.422L24.6386 116.056C24.6766 118.65 23.3699 120.783 21.0416 121.933L13.2962 125.754C8.60627 128.068 8.48273 134.069 13.0444 138.888C27.7843 154.454 62.8995 188.092 120.395 223.255Z" fill="url(#paint11_linear)"/>
<path d="M263.385 263.036C259.393 250.51 240.505 207.526 160.091 158.351C102.595 123.188 56.651 107.246 36.0855 101.216C30.4832 99.5717 25.722 101.577 24.7099 105.64C26.7769 104.689 29.5139 104.533 32.4932 105.407C53.0682 111.442 99.0079 127.379 156.499 162.542C236.913 211.722 255.801 254.706 259.792 267.232C259.835 267.365 259.873 267.498 259.902 267.636C260.158 267.598 260.41 267.555 260.652 267.517C262.947 267.132 264.093 265.265 263.385 263.036Z" fill="#FFD591"/>
<path d="M73.6717 149.375L43.1989 130.738C42.4909 130.306 41.6926 130.092 40.9751 130.159L23.061 131.703C20.785 131.898 20.7422 134.507 22.985 135.923L40.3478 147.113C41.0226 147.54 41.7924 147.764 42.4956 147.735L73.5244 153.632C75.9288 153.542 76.0238 150.814 73.6717 149.375Z" fill="#FFD591"/>
<path d="M178.371 207.921C178.832 207.16 177.701 205.63 175.839 204.514C173.981 203.392 172.104 203.103 171.643 203.863C171.182 204.623 172.318 206.148 174.176 207.27C176.034 208.391 177.915 208.681 178.371 207.921Z" fill="white"/>
<path d="M184.363 231.546C184.914 230.886 184.244 229.408 182.862 228.244C181.479 227.08 179.906 226.671 179.35 227.332C178.794 227.992 179.469 229.47 180.852 230.634C182.239 231.798 183.812 232.207 184.363 231.546Z" fill="white"/>
<path d="M128.873 167.246C129.12 166.433 128.036 165.383 126.454 164.899C124.872 164.414 123.384 164.68 123.137 165.488C122.89 166.3 123.974 167.35 125.556 167.835C127.143 168.32 128.626 168.058 128.873 167.246Z" fill="white"/>
<path d="M115.254 164.851C116.608 165.146 117.834 164.799 117.991 164.072C118.148 163.345 117.179 162.523 115.824 162.223C114.47 161.929 113.244 162.276 113.087 163.003C112.93 163.73 113.895 164.556 115.254 164.851Z" fill="white"/>
<path d="M6.16391 185.63C11.885 184.556 40.8373 193.684 74.6458 208.491C108.34 223.24 104.682 248.8 148.127 261.017C159.602 263.454 182.653 265.654 169.115 254.849C150.859 240.275 155.72 234.388 170.141 242.475C184.235 250.377 185.181 242.832 179.825 235.68C172.128 225.412 159.331 214.872 143.413 203.521C120.671 187.298 127.951 188.705 136.732 189.973C146.977 191.451 143.294 179.985 130.379 173.941C92.5171 156.227 41.0178 160.299 8.79636 172.611C-0.816387 177.144 0.338284 186.714 6.16391 185.63Z" fill="white"/>
<path d="M6.28265 189.874C56.5607 189.531 93.9093 245.854 148.127 261.016C159.602 263.454 170.664 262.318 158.647 249.793C145.299 235.88 150.336 226.676 164.644 234.967C171.657 239.035 173.833 235.253 168.15 228.405C161.123 219.928 149.272 212.173 133.353 200.817C110.612 184.594 116.356 182.808 129.823 185.421C140.229 187.441 137.616 181.187 124.306 176.089C85.2137 161.116 38.2713 164.96 6.05457 177.277C-3.56293 181.819 0.404764 189.912 6.28265 189.874Z" fill="#C7E0F5"/>
<path d="M12.1083 186.6C44.3678 185.92 73.8903 208.23 110.008 236.151C132.721 251.922 161.17 260.841 148.397 246.837C135.625 232.829 140.885 222.019 157.925 229.161C167.58 233.209 150.963 217.823 125.024 203.924C96.9219 188.861 104.758 180.019 115.126 180.66C118.538 180.869 119.013 179.448 115.591 178.493C73.2678 166.661 32.6548 174.316 12.764 180.104C6.2589 181.995 5.18501 186.747 12.1083 186.6Z" fill="url(#paint12_radial)"/>
<path d="M105.774 162.779C106.677 162.974 107.504 162.694 107.623 162.152C107.742 161.61 107.11 161.007 106.207 160.817C105.304 160.622 104.477 160.902 104.358 161.444C104.24 161.986 104.876 162.589 105.774 162.779Z" fill="white"/>
<path d="M152.569 199.942C162.225 205.649 171.239 213.376 178.542 220.076C182.61 223.806 187.29 220.342 179.968 214.64C172.646 208.933 160.904 201.292 153.62 198.161C150.251 196.707 150.023 198.441 152.569 199.942Z" fill="white"/>
<defs>
<linearGradient id="paint0_linear" x1="182.766" y1="114.687" x2="182.766" y2="153.006" gradientUnits="userSpaceOnUse">
<stop offset="0.0936" stop-color="#522CD5"/>
<stop offset="0.4499" stop-color="#8A6FE8"/>
</linearGradient>
<linearGradient id="paint1_linear" x1="193.968" y1="148.648" x2="193.968" y2="185.12" gradientUnits="userSpaceOnUse">
<stop stop-color="#522CD5"/>
<stop offset="0.4397" stop-color="#8A6FE8"/>
</linearGradient>
<radialGradient id="paint2_radial" cx="0" cy="0" r="1" gradientUnits="userSpaceOnUse" gradientTransform="translate(250.325 71.6604) scale(14.7174)">
<stop stop-color="#8065E0"/>
<stop offset="1" stop-color="#512BD4"/>
</radialGradient>
<radialGradient id="paint3_radial" cx="0" cy="0" r="1" gradientUnits="userSpaceOnUse" gradientTransform="translate(170.421 58.8304) scale(51.2642)">
<stop offset="0.4744" stop-color="#A08BE8"/>
<stop offset="0.8618" stop-color="#8065E0"/>
</radialGradient>
<radialGradient id="paint4_radial" cx="0" cy="0" r="1" gradientUnits="userSpaceOnUse" gradientTransform="translate(189.388 68.2253) scale(58.6451)">
<stop offset="0.0933" stop-color="#E1DFDD"/>
<stop offset="0.6573" stop-color="white"/>
</radialGradient>
<linearGradient id="paint5_linear" x1="104.216" y1="80.2045" x2="104.216" y2="24.3839" gradientUnits="userSpaceOnUse">
<stop stop-color="#9780E6"/>
<stop offset="1" stop-color="#8A6FE8"/>
</linearGradient>
<radialGradient id="paint6_radial" cx="0" cy="0" r="1" gradientUnits="userSpaceOnUse" gradientTransform="translate(96.6694 25.9359) scale(14.1237)">
<stop stop-color="#8065E0"/>
<stop offset="1" stop-color="#512BD4"/>
</radialGradient>
<radialGradient id="paint7_radial" cx="0" cy="0" r="1" gradientUnits="userSpaceOnUse" gradientTransform="translate(123.602 73.1095) scale(11.8058)">
<stop stop-color="#8065E0"/>
<stop offset="1" stop-color="#512BD4"/>
</radialGradient>
<linearGradient id="paint8_linear" x1="136.184" y1="102.094" x2="136.184" y2="131.383" gradientUnits="userSpaceOnUse">
<stop offset="0.0936" stop-color="#522CD5"/>
<stop offset="0.4499" stop-color="#8A6FE8"/>
</linearGradient>
<radialGradient id="paint9_radial" cx="0" cy="0" r="1" gradientUnits="userSpaceOnUse" gradientTransform="translate(147.89 21.2629) scale(11.8828)">
<stop stop-color="#8065E0"/>
<stop offset="1" stop-color="#512BD4"/>
</radialGradient>
<linearGradient id="paint10_linear" x1="121.633" y1="121.414" x2="121.633" y2="149.028" gradientUnits="userSpaceOnUse">
<stop stop-color="#522CD5"/>
<stop offset="0.4397" stop-color="#8A6FE8"/>
</linearGradient>
<linearGradient id="paint11_linear" x1="96.6342" y1="305.404" x2="184.976" y2="67.3701" gradientUnits="userSpaceOnUse">
<stop offset="0.3842" stop-color="#FFD590"/>
<stop offset="0.5153" stop-color="#F7B548"/>
</linearGradient>
<radialGradient id="paint12_radial" cx="0" cy="0" r="1" gradientUnits="userSpaceOnUse" gradientTransform="translate(119.969 171.555) rotate(15.626) scale(82.7183 88.358)">
<stop stop-color="white"/>
<stop offset="0.1307" stop-color="#F7FAFE"/>
<stop offset="1" stop-color="#C7E0F5"/>
</radialGradient>
</defs>
</svg>
