<?xml version="1.0" encoding="utf-8"?>
<!-- Generator: Adobe Illustrator 24.3.0, SVG Export Plug-In . SVG Version: 6.00 Build 0)  -->
<svg version="1.1" id="Layer_1" xmlns="http://www.w3.org/2000/svg" xmlns:xlink="http://www.w3.org/1999/xlink" x="0px" y="0px"
	 viewBox="0 0 636 300" style="enable-background:new 0 0 636 300;" xml:space="preserve">
<style type="text/css">
	.st0{fill:#B3AFAB;}
	.st1{fill-rule:evenodd;clip-rule:evenodd;fill:#848484;}
	.st2{fill:#625F5B;}
	.st3{fill-rule:evenodd;clip-rule:evenodd;fill:#BDD8F9;}
	.st4{fill-rule:evenodd;clip-rule:evenodd;fill:#76AFF2;}
	.st5{fill:#76AFF2;}
	.st6{fill:#9C9894;}
	.st7{fill:#CCCAC7;}
	.st8{fill:#605D5A;}
	.st9{fill:#BDD8F9;}
	.st10{fill:#FFFFFF;}
	.st11{fill:#797673;}
	.st12{fill:url(#SVGID_1_);}
	.st13{fill:#F7B548;}
	.st14{fill:#4995EE;}
	.st15{fill:#8A6FE8;}
	.st16{fill:url(#SVGID_2_);}
	.st17{fill:url(#SVGID_3_);}
	.st18{fill:#522CD5;}
	.st19{fill:url(#SVGID_4_);}
	.st20{fill:url(#SVGID_5_);}
	.st21{fill:url(#SVGID_6_);}
	.st22{fill:url(#SVGID_7_);}
	.st23{fill:url(#SVGID_8_);}
	.st24{fill:url(#SVGID_9_);}
	.st25{fill:#A08BE8;}
	.st26{fill:url(#SVGID_10_);}
	.st27{fill:url(#SVGID_11_);}
	.st28{fill:#512BD4;}
	.st29{fill:#D8CFF7;}
	.st30{fill:url(#SVGID_12_);}
	.st31{fill:#8065E0;}
	.st32{fill:url(#SVGID_13_);}
	.st33{fill:url(#SVGID_14_);}
	.st34{fill:url(#SVGID_15_);}
	.st35{fill:url(#SVGID_16_);}
	.st36{fill:none;}
	.st37{fill:#8DBCF4;}
	.st38{fill:#0064DA;}
</style>
<g>
	<path class="st0" d="M423.86,242.97l-0.6-162.37c-0.01-3.49-2.41-6.58-5.36-6.89L200.14,60.24c-3.92-0.42-7.08,2.52-7.03,6.57
		c0,0,1.9,167.66,1.95,171.34c0.04,3.68,3.03,5.53,3.03,5.53L423.86,242.97z"/>
	<path class="st1" d="M207.38,220.42c0.02,1.93,1.69,3.66,3.55,3.68l200.57-8.98c1.54,0.02,2.78-1.43,2.78-3.24l-0.48-121.5
		c-0.01-1.82-1.27-3.43-2.82-3.58l-201.3-9.79c-2.12-0.21-3.83,1.42-3.81,3.62l1.51,139.16"/>
	<path class="st2" d="M426.63,242.98l-0.58-162.3c-0.01-3.49-2.4-6.57-5.35-6.89L203.13,60.34c-3.92-0.42-7.07,2.52-7.02,6.57
		l2.02,179.18L426.63,242.98z"/>
	<path class="st3" d="M210.36,220.44c0.02,1.93,1.69,3.66,3.54,3.68l200.38-8.98c1.54,0.02,2.78-1.43,2.77-3.24l-0.47-121.44
		c-0.01-1.82-1.27-3.42-2.81-3.58L212.66,77.1c-2.12-0.21-3.83,1.42-3.81,3.62l1.49,139.1"/>
	<path class="st4" d="M416.62,99.32l-0.03-8.86c-0.01-1.82-1.26-3.42-2.81-3.58L212.66,77.1c-2.12-0.21-3.83,1.42-3.81,3.62
		l0.1,9.67L416.62,99.32z"/>
	<g>
		<polygon class="st5" points="238.12,98.1 220.57,97.56 220.57,102.65 238.12,103.1 		"/>
		<polygon class="st5" points="262.06,98.84 245.43,98.33 245.43,103.28 262.06,103.71 		"/>
		<polygon class="st5" points="284.77,99.55 268.99,99.06 268.99,103.88 284.77,104.29 		"/>
		<polygon class="st5" points="306.34,100.21 291.35,99.75 291.35,104.45 306.34,104.83 		"/>
	</g>
	<path class="st6" d="M198.09,243.82l0.04,3.15c0.01,1.09,0.8,2.02,1.87,2.21l97.8,15.14c2.6,0.45,7.78,0.87,10.44,0.83l219.99-15.9
		c0.56-0.03,1-0.52,1-1.12l0-2.7c0-0.72-0.54-1.3-1.22-1.31l-302.54,0.59L198.09,243.82z"/>
	<path class="st7" d="M198.08,243.43l101.64,14.66c3.65,0.59,7.37,0.87,11.09,0.84l216.94-14.76l-102.02-12.68L198.08,243.43z"/>
	<path class="st8" d="M150.05,154.1l-52.61,0.06c-3.69-0.08-6.72-3.17-6.78-6.92L88.91,30.72c-0.06-3.9,3.09-6.9,6.92-6.6l52.9,4.13
		c3.55,0.28,6.4,3.38,6.44,7.02l1.43,112.2C156.65,151.21,153.71,154.18,150.05,154.1z"/>
	<path class="st9" d="M148.78,149.46l-50.14,0.08c-1.99-0.05-3.63-1.72-3.66-3.74L93.29,32.2c-0.03-2.11,1.67-3.73,3.74-3.57
		l50.4,3.9c1.92,0.15,3.46,1.82,3.49,3.79l1.41,109.55C152.35,147.9,150.76,149.51,148.78,149.46z"/>
	<path class="st5" d="M151.21,59.57l-0.3-23.24c-0.03-1.97-1.56-3.65-3.49-3.79l-50.4-3.9c-2.07-0.16-3.77,1.46-3.74,3.57
		l0.37,24.85L151.21,59.57z"/>
	<path class="st10" d="M151.02,44.36l-0.1-8.03c-0.03-1.97-1.56-3.64-3.49-3.79l-50.4-3.9c-2.07-0.16-3.77,1.46-3.74,3.57l0.12,8.1
		L151.02,44.36z"/>
	<path class="st11" d="M543.32,145.02l-143.21-2.73c-2.53-0.18-4.62-2.37-4.65-4.89l-2.23-105.94c-0.04-2.53,2-4.28,4.54-3.91
		l144.53,13.19c2.06,0.31,3.75,2.39,3.77,4.67L547,141.2C547.02,143.46,545.38,145.17,543.32,145.02z"/>
	<path class="st9" d="M535.97,137.36l-127.16-2.23c-0.79-0.06-1.44-0.75-1.45-1.54l-1.28-94.83c-0.01-0.79,0.62-1.35,1.42-1.23
		l127.57,10.76c0.66,0.09,1.2,0.76,1.21,1.48l0.87,86.38C537.16,136.87,536.63,137.42,535.97,137.36z"/>
	
		<linearGradient id="SVGID_1_" gradientUnits="userSpaceOnUse" x1="2301.6719" y1="191.8922" x2="2301.6719" y2="191.8922" gradientTransform="matrix(-1 0 0 1 2664.2942 0)">
		<stop  offset="0.1741" style="stop-color:#958FE7"/>
		<stop  offset="0.3131" style="stop-color:#BBB7EF"/>
	</linearGradient>
	<path class="st12" d="M362.62,191.89"/>
	<path class="st5" d="M536.37,59.07l-0.09-9.3c-0.01-0.72-0.55-1.39-1.21-1.48L407.5,37.53c-0.79-0.11-1.43,0.44-1.42,1.23
		l0.14,10.72L536.37,59.07z"/>
	<g>
		<polygon class="st10" points="461.48,112.42 414.78,110.64 414.78,79.16 461.48,82.27 		"/>
		<g>
			<polygon class="st13" points="417.94,110.76 437.46,111.5 427.47,92.94 			"/>
			<polygon class="st13" points="449.79,94.11 441.12,111.64 459.07,112.32 			"/>
		</g>
		<polygon class="st14" points="438.37,89.62 428.99,111.18 447.99,111.9 		"/>
	</g>
	<g>
		<path class="st15" d="M291.5,154.73l-2.87-9.34c-0.75-2.49,0.76-5,3.36-5.6c2.6-0.6,5.32,0.93,6.07,3.43l2.94,9.58L291.5,154.73z"
			/>
		<g>
			<polygon class="st10" points="289.81,175.44 219.93,170.37 224.03,123.85 293.74,130.91 			"/>
			<g>
				<polygon class="st13" points="224.66,170.72 253.87,172.83 241.27,144.58 				"/>
				<polygon class="st13" points="274.63,147.48 259.34,173.23 286.19,175.18 				"/>
			</g>
			<polygon class="st14" points="258.07,140.18 241.19,171.92 269.62,173.98 			"/>
		</g>
		<g>
			
				<linearGradient id="SVGID_2_" gradientUnits="userSpaceOnUse" x1="721.9642" y1="4.1705" x2="721.9642" y2="45.3283" gradientTransform="matrix(0.8376 -0.5463 0.5463 0.8376 -241.0685 586.1232)">
				<stop  offset="0" style="stop-color:#522CD5"/>
				<stop  offset="0.4397" style="stop-color:#8A6FE8"/>
			</linearGradient>
			<path class="st16" d="M384.76,232.1c-6.04-5.92-17.32-18.91-21.3-35.24l9.7-2.36c3.61,14.82,13.94,26,18.76,30.56
				C392.32,225.43,389.05,229.4,384.76,232.1z"/>
			
				<linearGradient id="SVGID_3_" gradientUnits="userSpaceOnUse" x1="721.9642" y1="4.1705" x2="721.9642" y2="45.3283" gradientTransform="matrix(0.8376 -0.5463 0.5463 0.8376 -241.0685 586.1232)">
				<stop  offset="0" style="stop-color:#522CD5"/>
				<stop  offset="0.4397" style="stop-color:#8A6FE8"/>
			</linearGradient>
			<path class="st17" d="M384.76,232.1c-6.04-5.92-17.32-18.91-21.3-35.24l9.7-2.36c3.61,14.82,13.94,26,18.76,30.56
				C392.32,225.43,389.05,229.4,384.76,232.1z"/>
			<path class="st18" d="M391.85,224.99l-5.62,5.56l15.92,43.7l20-19.74c0.86-0.85,0.82-2.18-0.09-2.98L391.85,224.99z"/>
			
				<linearGradient id="SVGID_4_" gradientUnits="userSpaceOnUse" x1="849.046" y1="-419.5472" x2="822.1305" y2="-372.9282" gradientTransform="matrix(0.7107 -0.7035 0.7532 0.6615 97.1987 1103.2642)">
				<stop  offset="0" style="stop-color:#522CD5"/>
				<stop  offset="0.4397" style="stop-color:#8A6FE8"/>
			</linearGradient>
			<path class="st19" d="M389.17,271.4c-0.36,1.71,0.87,3.09,2.12,4.18l3.81,3.35c0.68,0.6,1.77,0.57,2.41-0.07l7.06-6.99
				c0.73-0.72,0.69-1.86-0.08-2.54l-3.79-3.63c-1.44-1.26-2.16-2.24-1.7-4.52c2.7-13.48-0.38-25.1-9.15-34.2l-5.14,5.09
				C388.91,237.02,393.91,248.97,389.17,271.4z"/>
			
				<radialGradient id="SVGID_5_" cx="5294.5894" cy="-393.0229" r="16.105" gradientTransform="matrix(-0.7107 0.7035 0.7035 0.7107 4427.689 -3183.1919)" gradientUnits="userSpaceOnUse">
				<stop  offset="0.034" style="stop-color:#522CD5"/>
				<stop  offset="0.9955" style="stop-color:#8A6FE8"/>
			</radialGradient>
			<path class="st20" d="M397.51,278.86c-0.64,0.64-1.73,0.67-2.41,0.07l-3.81-3.35c-0.82-0.72-1.62-1.56-1.98-2.54l9.71-9.61
				c0.26,0.87,0.84,1.52,1.69,2.26l3.79,3.63c0.77,0.68,0.81,1.82,0.08,2.54L397.51,278.86z"/>
		</g>
		<g>
			
				<linearGradient id="SVGID_6_" gradientUnits="userSpaceOnUse" x1="2795.9756" y1="203.9562" x2="2795.9756" y2="245.1139" gradientTransform="matrix(1.0126 0.1538 -0.0348 0.9823 -2468.1526 -433.7214)">
				<stop  offset="0" style="stop-color:#522CD5"/>
				<stop  offset="0.4397" style="stop-color:#8A6FE8"/>
			</linearGradient>
			<path class="st21" d="M350,236.51c-1.56-8.39-3.35-25.49,2.86-40.21l9.42,4.71c-5.63,13.35-3.58,28.48-2.24,35.06
				C360.15,236.62,355.13,237.37,350,236.51z"/>
			
				<linearGradient id="SVGID_7_" gradientUnits="userSpaceOnUse" x1="2795.9756" y1="203.9562" x2="2795.9756" y2="245.1139" gradientTransform="matrix(1.0126 0.1538 -0.0348 0.9823 -2468.1526 -433.7214)">
				<stop  offset="0" style="stop-color:#522CD5"/>
				<stop  offset="0.4397" style="stop-color:#8A6FE8"/>
			</linearGradient>
			<path class="st22" d="M350,236.51c-1.56-8.39-3.35-25.49,2.86-40.21l9.42,4.71c-5.63,13.35-3.58,28.48-2.24,35.06
				C360.15,236.62,355.13,237.37,350,236.51z"/>
			<path class="st18" d="M360.02,235.98l-7.89,0.37l-12.25,42.88l28.08-1.28c1.21-0.06,1.95-1.07,1.66-2.27L360.02,235.98z"/>
			
				<linearGradient id="SVGID_8_" gradientUnits="userSpaceOnUse" x1="2797.7188" y1="193.084" x2="2770.8032" y2="239.7031" gradientTransform="matrix(0.9989 -0.0468 0.2393 0.9899 -2488.8279 173.413)">
				<stop  offset="0" style="stop-color:#522CD5"/>
				<stop  offset="0.4397" style="stop-color:#8A6FE8"/>
			</linearGradient>
			<path class="st23" d="M330.78,268.48c-1.29,1.02-1.07,2.86-0.68,4.5l1.21,5.01c0.22,0.9,1.14,1.59,2.04,1.55l9.93-0.46
				c1.03-0.05,1.66-0.91,1.41-1.93l-1.02-5.2c-0.46-1.89-0.48-3.09,1.22-4.47c10.08-8.16,14.3-18.8,12.33-31.36l-7.22,0.34
				C350.58,242.9,347.76,255.06,330.78,268.48z"/>
			
				<radialGradient id="SVGID_9_" cx="3303.0774" cy="219.6083" r="16.105" gradientTransform="matrix(-0.9989 0.0468 0.1694 0.9932 3597.6873 -111.5199)" gradientUnits="userSpaceOnUse">
				<stop  offset="0.034" style="stop-color:#522CD5"/>
				<stop  offset="0.9955" style="stop-color:#8A6FE8"/>
			</radialGradient>
			<path class="st24" d="M333.35,279.54c-0.91,0.04-1.82-0.66-2.04-1.55l-1.21-5.01c-0.26-1.07-0.43-2.23-0.16-3.19l13.65-0.64
				c-0.29,0.81-0.19,1.69,0.08,2.8l1.02,5.2c0.25,1.02-0.39,1.88-1.41,1.93L333.35,279.54z"/>
		</g>
		
			<rect x="354.76" y="201.21" transform="matrix(0.9989 -0.0468 0.0468 0.9989 -9.0474 17.0582)" class="st25" width="10.61" height="1.38"/>
		
			<rect x="358.31" y="187.45" transform="matrix(0.9859 -0.1676 0.1676 0.9859 -26.3898 63.6034)" class="st25" width="10.61" height="1.38"/>
		
			<radialGradient id="SVGID_10_" cx="3457.4917" cy="670.6819" r="46.5507" gradientTransform="matrix(-0.9428 -0.3333 -0.3333 0.9428 3850.3591 644.4501)" gradientUnits="userSpaceOnUse">
			<stop  offset="0.4744" style="stop-color:#A08BE8"/>
			<stop  offset="0.8618" style="stop-color:#8065E0"/>
		</radialGradient>
		<path class="st26" d="M310.42,159.65c-1.37-14.27,2.68-24.83,2.68-24.83l-3.22-0.52l-0.07-0.07
			c8.64-24.39,33.71-39.91,60.18-35.66c29.82,4.78,50.11,32.82,45.33,62.64c-4.78,29.82-32.82,50.11-62.64,45.33
			c-23.53-3.77-41.12-22.03-45.15-44.21C307.45,161.4,307.73,159.81,310.42,159.65z"/>
		
			<radialGradient id="SVGID_11_" cx="3489.0698" cy="704.9242" r="35.7622" fx="3524.5605" fy="700.525" gradientTransform="matrix(-0.9428 -0.3333 -0.3333 0.9428 3850.3591 644.4501)" gradientUnits="userSpaceOnUse">
			<stop  offset="0.2022" style="stop-color:#E1DFDD"/>
			<stop  offset="0.7337" style="stop-color:#FFFFFF"/>
		</radialGradient>
		<path class="st27" d="M310.42,159.65c-1.36-14.09,2.58-24.56,2.68-24.82l24.92,3.9c0,0,3.59,0.21,3.07,3.43
			c-0.52,3.22-2.11,12.31-3.72,22.38C337.03,166.62,310.7,161.66,310.42,159.65z"/>
		<path class="st25" d="M310.42,159.59c-0.05-0.54-0.09-1.07-0.13-1.6c-0.18-2.66-0.18-5.18-0.07-7.51
			c1.17-0.24,2.24,0.21,3.31,1.32c1.48,1.53,9,9.73,9,9.73L310.42,159.59z"/>
		<path class="st28" d="M307.64,162.99c0,0-1.03-3.12,2.78-3.33c0-0.01,0-0.03,0-0.04l23.99,3.75c1.28,0.21,3.05-0.3,3.4-1.51
			c-0.14,0.89-0.29,1.79-0.44,2.7c-0.3,1.88-1.86,2.65-3.14,2.62c-0.13-0.01-0.26-0.01-0.38-0.03l-3.76-0.6L307.64,162.99z"/>
		<path class="st29" d="M310.4,172.43l93.09,14.92c-2.66,3.22-5.67,6.1-8.96,8.62l-78.31-12.55
			C313.88,180,311.92,176.32,310.4,172.43z"/>
		<path class="st28" d="M318.27,186.24c-3.94-5.04-7-10.76-8.98-16.91l11.4,1.83L318.27,186.24z"/>
		<g>
			<polygon class="st15" points="366.75,95.92 377.19,97.53 377.36,86.58 369.87,85.43 			"/>
		</g>
		
			<radialGradient id="SVGID_12_" cx="3461.1189" cy="645.5237" r="8.0595" gradientTransform="matrix(-0.9428 -0.3333 -0.3333 0.9428 3850.3591 644.4501)" gradientUnits="userSpaceOnUse">
			<stop  offset="0" style="stop-color:#8065E0"/>
			<stop  offset="0.8628" style="stop-color:#512BD4"/>
		</radialGradient>
		<path class="st30" d="M361.75,101.86c-0.47-0.07-0.78-0.54-0.66-1c1.31-4.87,6.11-8.08,11.21-7.3c5.1,0.78,8.71,5.28,8.51,10.33
			c-0.02,0.48-0.46,0.83-0.93,0.75L361.75,101.86z"/>
		<g>
			
				<ellipse transform="matrix(0.1358 -0.9907 0.9907 0.1358 131.4969 449.9045)" class="st28" cx="323.64" cy="149.58" rx="7.19" ry="4.28"/>
			<path class="st31" d="M324.27,145.82c1.31,1.78,0.93,4.28-0.85,5.59c-1.22,0.9-2.78,1-4.06,0.4c-0.1-0.88-0.09-1.84,0.05-2.82
				c0.26-1.93,0.96-3.61,1.88-4.79C322.42,144.27,323.53,144.83,324.27,145.82z"/>
		</g>
		<circle class="st29" cx="374.36" cy="80.63" r="7.63"/>
		
			<linearGradient id="SVGID_13_" gradientUnits="userSpaceOnUse" x1="-1298.2585" y1="980.2254" x2="-1332.3955" y2="1043.8162" gradientTransform="matrix(0.958 0.2869 -0.2869 0.958 1880.6578 -432.8427)">
			<stop  offset="0.3344" style="stop-color:#9780E6"/>
			<stop  offset="0.8488" style="stop-color:#8A6FE8"/>
		</linearGradient>
		<path class="st32" d="M291.02,164.31l5.84-8.4c9.57,6.11,18.34,11.25,27,12.55c17.26,2.59,30.99-13.28,34.52-17.89l9.91,7.31
			C356.64,169.44,334.4,195.6,291.02,164.31z"/>
		
			<radialGradient id="SVGID_14_" cx="3190.5029" cy="573.2368" r="14.911" gradientTransform="matrix(-0.9869 -0.1611 -0.1611 0.9869 3604.6196 100.2594)" gradientUnits="userSpaceOnUse">
			<stop  offset="0" style="stop-color:#8065E0"/>
			<stop  offset="0.8628" style="stop-color:#512BD4"/>
		</radialGradient>
		<circle class="st33" cx="363.21" cy="156.09" r="10.04"/>
		
			<linearGradient id="SVGID_15_" gradientUnits="userSpaceOnUse" x1="3286.2976" y1="-47.8377" x2="3286.2976" y2="-47.8377" gradientTransform="matrix(-0.9859 0.1676 0.1676 0.9859 3623.4036 -320.7938)">
			<stop  offset="0.1741" style="stop-color:#958FE7"/>
			<stop  offset="0.3131" style="stop-color:#BBB7EF"/>
		</linearGradient>
		<path class="st34" d="M375.57,182.84"/>
		<path class="st15" d="M295.12,169.27l-10.15-1.24c-2.7-0.35-4.6-2.68-4.25-5.2c0.36-2.52,2.84-4.28,5.54-3.93l10.41,1.28
			L295.12,169.27z"/>
		<path class="st15" d="M289.99,159.79l-7.73-6.7c-2.05-1.8-2.32-4.79-0.61-6.67c1.71-1.89,4.76-1.96,6.81-0.16l7.92,6.87
			L289.99,159.79z"/>
		<path class="st15" d="M290.24,164.58l-9.41-4c-2.5-1.08-3.68-3.84-2.63-6.16c1.05-2.32,3.93-3.33,6.43-2.24l9.65,4.1
			L290.24,164.58z"/>
		
			<radialGradient id="SVGID_16_" cx="-2215.8652" cy="966.2573" r="21.4764" gradientTransform="matrix(0.7868 0.1986 -0.1853 0.7343 2220.5068 -114.9603)" gradientUnits="userSpaceOnUse">
			<stop  offset="0" style="stop-color:#8065E0"/>
			<stop  offset="0.8628" style="stop-color:#512BD4"/>
		</radialGradient>
		<path class="st35" d="M304.71,155.02c-3.05-4.61-9.42-6.13-14.22-3.41c-4.8,2.72-6.21,8.67-3.16,13.27
			c3.05,4.61,9.42,6.13,14.22,3.41S307.77,159.63,304.71,155.02z"/>
	</g>
	<g>
		<polygon class="st5" points="305.01,197.85 220.93,199.86 220.93,195.94 305.01,194.21 		"/>
	</g>
	<g>
		<polygon class="st5" points="305.01,206.25 220.93,209.08 220.93,205.16 305.01,202.6 		"/>
	</g>
	<polygon class="st5" points="429.1,56.88 414.67,55.93 414.67,60.11 429.1,60.98 	"/>
	<polygon class="st5" points="448.77,58.72 435.1,57.82 435.1,61.89 448.77,62.72 	"/>
	<polygon class="st5" points="467.44,60.08 454.47,59.23 454.47,63.2 467.44,63.98 	"/>
	<polygon class="st5" points="485.17,61.39 472.85,60.58 472.85,64.44 485.17,65.19 	"/>
	<polygon class="st36" points="485.58,71.68 414.26,66.95 414.1,63.23 485.58,68.2 	"/>
	<g>
		
			<rect x="451.52" y="31.25" transform="matrix(0.068 -0.9977 0.9977 0.068 352.8615 515.7755)" class="st37" width="1.95" height="75.55"/>
	</g>
	<g>
		
			<rect x="451.5" y="37.36" transform="matrix(0.0634 -0.998 0.998 0.0634 348.8332 521.9082)" class="st37" width="1.95" height="75.49"/>
	</g>
	<g>
		
			<rect x="451.39" y="80.09" transform="matrix(0.0311 -0.9995 0.9995 0.0311 320.693 566.1555)" class="st37" width="1.95" height="75.16"/>
	</g>
	<polygon class="st37" points="466.09,99.06 466.09,101.02 489.98,102.1 490.07,100.14 	"/>
	<polygon class="st37" points="466.09,111.1 466.09,113.05 489.92,113.91 489.99,111.95 	"/>
	<polygon class="st37" points="466.09,105.08 466.09,107.04 489.95,108 490.03,106.05 	"/>
	<polygon class="st37" points="466.09,93.04 466.09,95 490.01,96.19 490.1,94.24 	"/>
	<polygon class="st37" points="466.09,87.03 466.09,88.98 490.03,90.28 490.14,88.33 	"/>
	<polygon class="st37" points="466.09,81.01 466.09,82.97 490.06,84.38 490.17,82.43 	"/>
	<path class="st38" d="M467.1,130.6l20.92,0.46c0.81,0.02,1.48-0.64,1.48-1.45v-4.92c0-0.79-0.63-1.43-1.42-1.45l-20.92-0.46
		c-0.81-0.02-1.48,0.64-1.48,1.45v4.92C465.68,129.94,466.31,130.59,467.1,130.6z"/>
	<polygon class="st37" points="461.9,123.05 414.83,121.78 414.78,123.73 461.9,125.01 	"/>
	<polygon class="st37" points="442.04,128.62 414.83,128.03 414.79,129.99 442.04,130.58 	"/>
	<polygon class="st10" points="528.66,71.84 497.85,70.05 497.85,62.41 528.66,64.54 	"/>
	<polygon class="st13" points="528.66,71.84 521.06,71.4 521.06,64.01 528.66,64.54 	"/>
	<g>
		<path class="st10" d="M499.36,76.57l27.33,1.82V130l-27.33-0.65V76.57 M498.66,74.57c-0.68,0-1.25,0.55-1.25,1.24v54.22
			c0,0.67,0.54,1.23,1.22,1.24l28.73,0.68c0.01,0,0.02,0,0.03,0c0.69,0,1.25-0.55,1.25-1.24V77.73c0-0.65-0.51-1.2-1.17-1.24
			l-28.73-1.91C498.71,74.58,498.68,74.57,498.66,74.57L498.66,74.57z"/>
	</g>
	<polygon class="st5" points="306.43,111.24 220.59,108.42 220.59,116.39 306.43,118.7 	"/>
	<g>
		<polygon class="st10" points="146.35,98.98 99.64,97.2 99.64,65.72 146.35,68.05 		"/>
		<g>
			<polygon class="st13" points="102.81,97.32 122.33,98.06 112.33,79.5 			"/>
			<polygon class="st13" points="134.65,80.67 125.99,98.2 143.93,98.89 			"/>
		</g>
		<polygon class="st14" points="123.23,76.18 113.85,97.74 132.86,98.46 		"/>
	</g>
	<polygon class="st37" points="146.18,111.21 99.64,110.08 99.64,107.48 146.18,108.62 	"/>
	<polygon class="st37" points="146.18,117.88 99.64,116.75 99.64,114.15 146.18,115.29 	"/>
	<polygon class="st37" points="146.18,124.55 99.64,123.42 99.64,120.82 146.18,121.96 	"/>
</g>
</svg>
