<svg width="636" height="300" viewBox="0 0 636 300" fill="none" xmlns="http://www.w3.org/2000/svg">
<path d="M467.43 218.16C356.93 263.57 194.11 273.64 142.06 222.68C81.94 163.83 176.46 92.39 263.24 125.55C320.91 147.58 396.51 143.93 444.36 137.79C525.48 127.37 542.53 187.3 467.43 218.16Z" fill="url(#paint0_radial)"/>
<path d="M263.738 70.1929L262.57 71.8169L263.382 72.4005L264.55 70.7765L263.738 70.1929Z" fill="#908D89"/>
<path d="M309.19 105.27L307.49 104.05L308.65 102.43L310.35 103.65L309.19 105.27ZM304.1 101.62L302.4 100.4L303.57 98.7801L305.27 100L304.1 101.62ZM299.01 97.9701L297.31 96.7501L298.47 95.1301L300.17 96.3501L299.01 97.9701ZM293.92 94.3201L292.22 93.1001L293.39 91.4801L295.09 92.7001L293.92 94.3201ZM288.84 90.6601L287.14 89.4401L288.3 87.8201L290 89.0401L288.84 90.6601ZM283.75 87.0101L282.05 85.7901L283.22 84.1701L284.92 85.3901L283.75 87.0101ZM278.66 83.3601L276.96 82.1401L278.12 80.5201L279.82 81.7401L278.66 83.3601ZM273.57 79.7101L271.87 78.4901L273.04 76.8701L274.74 78.0901L273.57 79.7101ZM268.48 76.0501L266.78 74.8301L267.94 73.2101L269.64 74.4301L268.48 76.0501Z" fill="#908D89"/>
<path d="M313.754 106.082L312.588 107.707L313.401 108.29L314.567 106.665L313.754 106.082Z" fill="#908D89"/>
<path d="M336.06 97.1L334.06 97L334.16 95L336.16 95.1L336.06 97.1ZM336.35 91.1L334.35 91L334.45 89L336.45 89.1L336.35 91.1ZM336.64 85.11L334.64 85.01L334.74 83.01L336.74 83.11L336.64 85.11Z" fill="#908D89"/>
<path d="M362.6 97.76L361.38 96.18L362.96 94.96L364.18 96.54L362.6 97.76ZM367.35 94.1L366.13 92.52L367.71 91.3L368.93 92.88L367.35 94.1ZM372.1 90.44L370.88 88.86L372.47 87.64L373.69 89.22L372.1 90.44ZM376.86 86.78L375.64 85.2L377.22 83.98L378.44 85.56L376.86 86.78ZM381.61 83.12L380.39 81.54L381.97 80.32L383.19 81.9L381.61 83.12ZM386.36 79.46L385.14 77.88L386.73 76.66L387.95 78.24L386.36 79.46ZM391.12 75.8L389.9 74.22L391.48 73L392.7 74.58L391.12 75.8Z" fill="#908D89"/>
<path d="M364.56 117.56L364.17 115.6L366.13 115.21L366.52 117.17L364.56 117.56ZM370.44 116.4L370.05 114.44L372.01 114.05L372.4 116.01L370.44 116.4ZM376.33 115.23L375.94 113.27L377.9 112.88L378.29 114.84L376.33 115.23ZM382.21 114.07L381.82 112.11L383.78 111.72L384.17 113.68L382.21 114.07ZM388.1 112.9L387.71 110.94L389.67 110.55L390.06 112.51L388.1 112.9ZM393.99 111.74L393.6 109.78L395.56 109.39L395.95 111.35L393.99 111.74ZM399.87 110.57L399.48 108.61L401.44 108.22L401.83 110.18L399.87 110.57ZM405.76 109.41L405.37 107.45L407.33 107.06L407.72 109.02L405.76 109.41ZM411.65 108.24L411.26 106.28L413.22 105.89L413.61 107.85L411.65 108.24ZM417.53 107.07L417.14 105.11L419.1 104.72L419.49 106.68L417.53 107.07ZM423.42 105.91L423.03 103.95L424.99 103.56L425.38 105.52L423.42 105.91ZM429.3 104.74L428.91 102.78L430.87 102.39L431.26 104.35L429.3 104.74ZM435.19 103.58L434.8 101.62L436.76 101.23L437.15 103.19L435.19 103.58ZM441.07 102.41L440.68 100.45L442.64 100.06L443.03 102.02L441.07 102.41ZM446.96 101.25L446.57 99.29L448.53 98.9L448.92 100.86L446.96 101.25Z" fill="#908D89"/>
<path d="M311.92 118.66L310.11 118.17L310.63 116.24L312.44 116.73L311.92 118.66ZM306.25 117.13L304.32 116.61L304.84 114.68L306.77 115.2L306.25 117.13ZM300.46 115.56L298.53 115.04L299.05 113.11L300.98 113.63L300.46 115.56ZM294.67 113.99L292.74 113.47L293.26 111.54L295.19 112.06L294.67 113.99ZM288.88 112.42L286.95 111.9L287.47 109.97L289.4 110.49L288.88 112.42ZM283.09 110.85L281.16 110.33L281.68 108.4L283.61 108.92L283.09 110.85ZM277.29 109.28L275.36 108.76L275.88 106.83L277.81 107.35L277.29 109.28ZM271.5 107.71L269.57 107.19L270.09 105.26L272.02 105.78L271.5 107.71ZM265.71 106.14L263.78 105.62L264.3 103.69L266.23 104.21L265.71 106.14ZM259.92 104.57L257.99 104.05L258.51 102.12L260.44 102.64L259.92 104.57ZM254.13 103L252.2 102.48L252.72 100.55L254.65 101.07L254.13 103ZM248.34 101.43L246.41 100.91L246.93 98.98L248.86 99.5L248.34 101.43ZM242.55 99.86L240.62 99.34L241.14 97.41L243.07 97.93L242.55 99.86ZM236.76 98.29L234.83 97.77L235.35 95.84L237.28 96.36L236.76 98.29ZM230.96 96.72L229.03 96.2L229.55 94.27L231.48 94.79L230.96 96.72ZM225.17 95.15L223.24 94.63L223.76 92.7L225.69 93.22L225.17 95.15ZM219.38 93.58L217.45 93.06L217.97 91.13L219.9 91.65L219.38 93.58ZM213.59 92.01L211.66 91.49L212.18 89.56L214.11 90.08L213.59 92.01ZM207.8 90.44L205.87 89.92L206.39 87.99L208.32 88.51L207.8 90.44Z" fill="#908D89"/>
<path d="M283.23 204.07C282.52 201.15 279.72 196.98 272.56 197.22L269.7 197.42L269.57 197.32L267.96 197.54L203.46 201.96C197.9 201.96 193.08 205.47 191.76 210.49L179.39 263.08H183.59L195.73 211.39C196.41 208.82 198.13 207.47 200.51 207.12C209.86 207.12 219.86 207.62 226.2 207.96C225.05 209.88 224.19 212.38 223.76 215.77L222.32 249.86H226.4L227.82 216.14C228.24 212.43 229.51 209.96 231.11 208.22C231.3 208.23 231.49 208.24 231.65 208.24C231.74 208.24 231.82 208.23 231.91 208.23C236.63 209.06 240.77 210.81 241.76 216.31L247.84 271.55H251.93L246.25 216.28C245.69 211.46 242.7 207.82 237.87 205.84L273.14 200.94C275.96 200.81 278.42 202.26 279.34 205.16L295.54 257.79L299 256L283.23 204.07Z" fill="#C8C6C4"/>
<path d="M219.75 199.04C219.75 199.04 201.75 203.59 192.67 203.59C183.6 203.59 179.09 195.53 176.75 182.97C174.41 170.41 169.89 132.55 172.36 121.57C174.12 113.75 179.38 110.68 188.16 110.41C193.42 110.24 205.13 109.85 215.96 111.53C226.79 113.2 234.17 128.7 240.83 138.88C260.73 169.3 273.72 188.99 273.72 188.99L219.75 199.04Z" fill="url(#paint1_radial)"/>
<path d="M275.32 197.41L218.49 204.86C214.15 204.86 184.31 200.28 184.31 195.96V192.07C184.31 187.75 200.25 185.01 204.6 185.01L275.33 177.87C279.67 177.87 283.19 181.37 283.19 185.69V189.58C283.18 193.91 279.66 197.41 275.32 197.41Z" fill="url(#paint2_linear)"/>
<path d="M300.25 157.98C299.61 158.4 284.35 168.31 269.75 163.18C261.31 160.22 255.01 153.02 251.02 141.78L258.73 138.69C261.82 147.38 266.41 152.85 272.38 154.96C283.27 158.81 295.81 150.74 295.93 150.66L300.25 157.98Z" fill="#8A6FE8"/>
<path d="M249.59 204.63C250.94 197.8 252.5 183.72 247.23 170.7L239.18 173.54C243.96 185.35 242.18 197.75 241.02 203.1C240.93 203.54 245.21 204.76 249.59 204.63Z" fill="url(#paint3_linear)"/>
<path d="M241.04 203.03L247.78 204.25L247.7 239.63L234.18 237.17C233.15 236.98 232.52 236.05 232.77 235.08L241.04 203.03Z" fill="#522CD5"/>
<path d="M263.78 233.31C264.78 234.4 264.53 235.67 264.19 236.99L263.15 241.04C262.96 241.76 262.18 242.24 261.4 242.1L247.31 239.54C246.43 239.38 245.9 238.59 246.11 237.76L247 233.53C247.39 232.01 246.95 231.34 245.97 229.65C244.28 226.76 240.43 212.03 242.68 203.32L249.62 204.58C249.08 209.91 254.19 222.89 263.78 233.31Z" fill="url(#paint4_linear)"/>
<path d="M264.18 236.99C264.42 236.07 264.6 235.17 264.36 234.35L246.78 231.16C247.14 231.93 247.23 232.56 246.98 233.54L246.09 237.77C245.88 238.59 246.42 239.39 247.29 239.54L261.38 242.1C262.15 242.24 262.94 241.76 263.13 241.04L264.18 236.99Z" fill="url(#paint5_radial)"/>
<path d="M223.29 200.98C230.26 193.34 234.55 188.92 234.35 186.73C234.3 186.18 233.62 185.08 230.64 182.93C228.12 181.11 225.19 179.05 225.19 179.04L230.44 172.31C230.44 172.31 233.4 174.4 235.95 176.24C239.35 178.69 242.56 181.54 242.93 185.74C243.45 191.51 240.53 194.61 230.25 205.88L223.29 200.98Z" fill="url(#paint6_linear)"/>
<path d="M273.97 143.53C275.17 131.98 271.73 123.42 271.73 123.42L274.48 123.01L274.54 122.95C267.22 103.19 245.88 90.58 223.32 93.97C197.9 97.79 180.55 120.46 184.57 144.61C188.59 168.76 212.46 185.24 237.88 181.42C257.94 178.41 272.97 163.65 276.44 145.7C276.5 144.95 276.27 143.65 273.97 143.53Z" fill="url(#paint7_radial)"/>
<path d="M274.06 153.86L194.58 165.8C196.84 168.41 199.4 170.75 202.2 172.8L269.07 162.75C271.09 159.98 272.76 157 274.06 153.86Z" fill="#D8CFF7"/>
<path d="M251.28 167.86L266.2 165.62L264.11 153.09L249.2 155.33L251.28 167.86Z" fill="#512BD4"/>
<path d="M253.11 162.8C253.01 162.81 252.92 162.8 252.84 162.74C252.76 162.69 252.71 162.61 252.7 162.53C252.69 162.44 252.71 162.36 252.77 162.28C252.83 162.21 252.91 162.16 253.01 162.15C253.11 162.14 253.2 162.15 253.28 162.21C253.36 162.26 253.41 162.34 253.42 162.43C253.43 162.52 253.41 162.6 253.35 162.68C253.29 162.74 253.21 162.78 253.11 162.8Z" fill="white"/>
<path d="M257.07 162.16L256.42 162.26L254.3 159.96C254.25 159.9 254.2 159.84 254.16 159.78H254.15C254.18 159.85 254.21 160.01 254.25 160.25L254.62 162.52L254.05 162.6L253.48 159.13L254.17 159.03L256.22 161.27C256.31 161.36 256.36 161.43 256.39 161.46H256.4C256.37 161.37 256.33 161.22 256.3 161L255.93 158.77L256.5 158.69L257.07 162.16Z" fill="white"/>
<path d="M259.85 161.75L257.85 162.05L257.28 158.58L259.2 158.3L259.28 158.79L257.95 158.99L258.11 159.97L259.33 159.79L259.41 160.28L258.19 160.46L258.36 161.48L259.77 161.27L259.85 161.75Z" fill="white"/>
<path d="M262.2 158.35L261.18 158.5L261.67 161.48L261.08 161.57L260.59 158.59L259.57 158.74L259.49 158.25L262.12 157.86L262.2 158.35Z" fill="white"/>
<path d="M274.07 143.51C275.25 132.1 271.92 123.62 271.83 123.41L224.08 130.58C224.08 130.58 221.02 130.74 221.46 133.35C221.89 135.96 223.24 143.32 224.59 151.48C224.87 153.16 226.45 153.75 227.59 153.58C227.59 153.58 273.17 145.5 274.07 143.51Z" fill="url(#paint8_radial)"/>
<path d="M245.58 147.81C245.58 147.81 252 141.18 253.27 139.95C254.53 138.71 255.78 138.47 257.27 139.35C258.76 140.23 267.03 144.59 267.03 144.59L245.58 147.81Z" fill="#A08BE8"/>
<path d="M276.34 146.28C276.34 146.28 277.32 143.69 274.07 143.51C274.07 143.5 227.11 150.53 227.11 150.53C226.02 150.69 224.51 150.29 224.22 149.3C224.34 150.02 224.46 150.75 224.59 151.49C224.84 153.01 226.17 153.64 227.26 153.61C227.37 153.61 227.48 153.6 227.59 153.58L230.8 153.1L276.34 146.28Z" fill="#512BD4"/>
<path d="M238.036 144.607C240.01 144.224 241.113 141.352 240.499 138.191C239.886 135.03 237.79 132.778 235.816 133.16C233.843 133.543 232.74 136.416 233.353 139.577C233.966 142.738 236.063 144.99 238.036 144.607Z" fill="#512BD4"/>
<path d="M236.42 136.01C237.04 135.2 237.98 134.74 238.95 134.68C239.68 135.6 240.25 136.85 240.52 138.29C240.68 139.19 240.71 140.05 240.61 140.85C239.52 141.33 238.21 141.25 237.17 140.53C235.65 139.48 235.31 137.45 236.42 136.01Z" fill="#8065E0"/>
<path d="M301.35 142.9L290.31 149.88C288.49 151.03 287.86 153.43 288.9 155.24L289.09 155.56C290.13 157.37 292.46 157.9 294.28 156.75L305.32 149.77C307.14 148.62 307.77 146.22 306.73 144.41L306.54 144.09C305.49 142.28 303.17 141.75 301.35 142.9Z" fill="#8A6FE8"/>
<path d="M295.65 164.93L303.52 167.2C305.62 167.79 307.8 166.47 308.38 164.26C308.96 162.04 307.73 159.77 305.63 159.18L297.56 156.85L295.65 164.93Z" fill="#8A6FE8"/>
<path d="M299.37 162.38L310.53 160.49C312.68 160.12 314.16 157.98 313.82 155.72C313.49 153.46 311.47 151.93 309.31 152.3L301.01 153.68L299.37 162.38Z" fill="#8A6FE8"/>
<path d="M298.71 159.92L309.2 155.42C311.23 154.55 312.22 152.13 311.41 150.01C310.61 147.89 308.31 146.87 306.28 147.73L295.6 152.31L298.71 159.92Z" fill="#8A6FE8"/>
<path d="M288.38 151.67C290.98 147.7 296.13 146.68 299.88 149.38C303.63 152.08 304.56 157.49 301.95 161.46C299.35 165.43 294.2 166.45 290.45 163.75C286.71 161.04 285.78 155.63 288.38 151.67Z" fill="url(#paint9_radial)"/>
<path d="M218.48 92.15L227.07 90.83L223.19 76.24L217.02 77.18L218.48 92.15Z" fill="#8A6FE8"/>
<path d="M222.63 82.32C219.63 83.57 216.12 82.3 214.78 79.47C213.45 76.65 214.79 73.36 217.8 72.11C220.8 70.86 224.31 72.13 225.65 74.96C226.98 77.78 225.63 81.07 222.63 82.32Z" fill="#D8CFF7"/>
<path d="M216.08 97.72C215.7 97.78 215.32 97.51 215.31 97.15C215.09 93.25 218.02 89.74 222.22 89.09C226.42 88.45 230.4 90.89 231.53 94.65C231.64 95.01 231.38 95.37 231 95.42L216.08 97.72Z" fill="#522CD5"/>
<path d="M223.37 200.94L228.79 204.75L219.96 242.66L200.66 229.13C199.83 228.55 199.72 227.45 200.41 226.67L223.37 200.94Z" fill="#522CD5"/>
<path d="M230.77 238.6C231.27 239.95 230.36 241.25 229.42 242.31L226.52 245.56C226 246.14 225.07 246.26 224.45 245.82L217.63 241.03C216.93 240.53 216.83 239.6 217.42 238.94L220.26 235.46C221.35 234.24 221.86 233.34 221.22 231.53C217.43 220.84 218.78 210.91 225.3 202.3L230.26 205.79C227.21 210.4 224.25 220.86 230.77 238.6Z" fill="url(#paint10_linear)"/>
<path d="M224.44 245.82C225.06 246.26 225.99 246.14 226.51 245.56L229.41 242.31C230.03 241.61 230.63 240.82 230.83 239.97L221.45 233.38C221.33 234.13 220.89 234.74 220.25 235.46L217.41 238.94C216.82 239.6 216.92 240.53 217.62 241.03L224.44 245.82Z" fill="url(#paint11_radial)"/>
<path d="M267.046 140.257C269.02 139.874 270.123 137.002 269.51 133.841C268.897 130.68 266.8 128.428 264.826 128.81C262.853 129.193 261.75 132.066 262.363 135.227C262.976 138.388 265.073 140.64 267.046 140.257Z" fill="#512BD4"/>
<path d="M265.43 131.66C266.05 130.85 266.99 130.39 267.96 130.33C268.69 131.25 269.26 132.5 269.53 133.94C269.69 134.84 269.72 135.7 269.62 136.5C268.53 136.98 267.22 136.9 266.18 136.18C264.66 135.13 264.32 133.1 265.43 131.66Z" fill="#8065E0"/>
<path d="M195.01 176.3C191.33 171.39 191.02 161.29 196.17 149.95C197.13 147.83 205.17 150.89 204.21 153.01C198.88 164.8 201.06 170.78 201.75 171.52C203.59 173.51 209.12 173.42 215.49 171.3C217.65 170.58 220.05 171.83 220.84 174.08C221.63 176.34 220.52 178.75 218.36 179.46C212.51 181.4 201.8 183.71 195.84 177.29C195.54 176.98 195.27 176.65 195.01 176.3Z" fill="url(#paint12_linear)"/>
<path d="M228.72 163.59L216.81 167.47C214.85 168.11 213.81 170.3 214.49 172.37L214.61 172.74C215.29 174.8 217.44 175.96 219.4 175.32L231.31 171.44C233.27 170.8 234.31 168.61 233.63 166.54L233.51 166.17C232.83 164.1 230.68 162.95 228.72 163.59Z" fill="#8A6FE8"/>
<path d="M218.65 183.4L226.02 187.81C227.99 188.97 230.45 188.37 231.52 186.46C232.59 184.55 231.85 182.06 229.88 180.9L222.33 176.38L218.65 183.4Z" fill="#8A6FE8"/>
<path d="M221.56 182.5L233.12 183.97C235.35 184.25 237.3 182.67 237.46 180.45C237.62 178.23 235.94 176.21 233.71 175.94L225.11 174.82L221.56 182.5Z" fill="#8A6FE8"/>
<path d="M221.71 178.86L233.18 177.68C235.4 177.46 236.92 175.47 236.58 173.25C236.24 171.03 234.17 169.41 231.96 169.63L220.28 170.82L221.71 178.86Z" fill="#8A6FE8"/>
<path d="M214.3 168.86C217.77 165.9 223.14 166.43 226.3 170.05C229.46 173.67 229.19 179 225.72 181.97C222.25 184.93 216.88 184.4 213.72 180.78C210.56 177.16 210.82 171.82 214.3 168.86Z" fill="url(#paint13_radial)"/>
<path d="M201.45 156.05C206.178 156.05 210.01 152.41 210.01 147.92C210.01 143.43 206.178 139.79 201.45 139.79C196.723 139.79 192.89 143.43 192.89 147.92C192.89 152.41 196.723 156.05 201.45 156.05Z" fill="url(#paint14_radial)"/>
<path d="M171.84 125.29C170.71 139.38 174.62 171.58 176.74 182.98C179.08 195.54 183.76 203.91 192.84 203.91L218.4 204.9C219.69 204.9 220.39 203.39 219.54 202.41C207.25 188.25 178.53 151.63 171.84 125.29Z" fill="#1BA6C5"/>
<path d="M385.78 262.32C384.69 262.07 287.44 262.07 286.34 262.33C284.04 262.87 283.64 264.65 285.48 265.4C285.5 265.41 285.52 265.41 285.54 265.42C289.37 267.15 310.55 268.48 336.1 268.48C361.5 268.48 382.57 267.17 386.59 265.45C386.6 265.45 386.6 265.45 386.61 265.45C386.64 265.44 386.66 265.43 386.69 265.42C386.7 265.42 386.7 265.41 386.71 265.41C388.54 264.61 388.04 262.84 385.78 262.32Z" fill="#1BA6C5"/>
<path d="M353.94 259.77C346.92 255.99 339.01 239.38 339.01 221.16C339.01 205.64 339.53 172.72 366.99 168.43L338.59 162.34L336.95 162.54L306.91 168.44C334.37 172.72 334.89 205.65 334.89 221.17C334.89 239.22 325.12 255.97 318.09 259.79C298.72 260.31 284.93 261.63 284.93 263.18C284.93 265.18 307.84 266.81 336.11 266.81C364.37 266.81 387.29 265.19 387.29 263.18C387.28 261.62 373.41 260.29 353.94 259.77Z" fill="url(#paint15_linear)"/>
<path d="M421.61 162.35C419.79 162.03 253.36 162.15 252.06 162.44C249.24 163.08 248.12 165.32 252.77 166.2H252.78C261.67 168.1 296.01 169.52 337.02 169.52C379.08 169.52 414.12 168.03 421.88 166.06H421.89C426.12 165.13 425.36 163.02 421.61 162.35Z" fill="#57CACF"/>
<path d="M337.02 167.54C384.782 167.54 423.5 165.619 423.5 163.25C423.5 160.881 384.782 158.96 337.02 158.96C289.258 158.96 250.54 160.881 250.54 163.25C250.54 165.619 289.258 167.54 337.02 167.54Z" fill="#9FE4EB"/>
<path d="M266.54 159.14L316.47 154.78C316.47 154.78 312.79 161.77 312.42 161.77C312.06 161.78 266.54 159.14 266.54 159.14Z" fill="#C8C6C4"/>
<path d="M344.97 162.46H269.86C268.03 162.46 266.55 160.98 266.55 159.15H348.29C348.28 160.97 346.8 162.46 344.97 162.46Z" fill="#605D5A"/>
<path d="M308.78 162.46H269.86C268.03 162.46 266.55 160.98 266.55 159.15H348.29H312.1C312.09 160.97 310.6 162.46 308.78 162.46Z" fill="#797673"/>
<path d="M360.7 100.1L323 100.51C322.11 100.52 321.35 101.15 321.18 102.02L309.61 159.14H348.26L362.96 102.98C363.33 101.52 362.21 100.09 360.7 100.1Z" fill="#B3AFAB"/>
<path d="M360.7 100.1L325.45 100.51C324.56 100.52 323.8 101.15 323.63 102.02L312.06 159.14H348.25L362.95 102.98C363.33 101.52 362.21 100.09 360.7 100.1Z" fill="#737373"/>
<path d="M328.97 166.51H318.67L316.8 143.33H330.85L328.97 166.51Z" fill="white"/>
<path d="M330.48 147.93L330.85 143.33H316.8L317.17 147.93H330.48Z" fill="#E1DFDD"/>
<path d="M331.61 144.83H315.75C315.21 144.83 314.8 144.33 314.91 143.8L315.55 140.81C315.63 140.42 315.98 140.13 316.39 140.13H330.96C331.36 140.13 331.71 140.41 331.8 140.81L332.44 143.8C332.56 144.33 332.15 144.83 331.61 144.83Z" fill="#605D5A"/>
<path d="M246 36.1801C245.06 36.4901 244.13 36.8601 243.22 37.2901C241.97 37.8901 240.82 38.5801 239.75 39.3601L241.67 43.4901C240.61 44.3801 239.68 45.3801 238.9 46.4601L233.81 45.9501C232.66 47.9701 231.89 50.1501 231.53 52.3901L236.04 54.2801C235.94 55.7701 236.08 57.2901 236.47 58.7701C235.37 59.4901 233.52 60.6501 232.34 61.3901C232.64 62.2401 233.01 63.0801 233.44 63.9001C234.04 65.0301 234.76 66.0801 235.55 67.0401L240.16 65.2401C241.16 66.2701 242.31 67.1401 243.55 67.8601L242.74 72.5001C244.91 73.4901 247.27 74.1201 249.7 74.3601L252.07 70.0901C253.44 70.0901 254.81 69.9301 256.18 69.6101L258.91 73.3801C259.9 73.0601 260.88 72.6801 261.84 72.2201C263.15 71.5901 264.36 70.8601 265.47 70.0401L263.49 65.9301C264.58 65.0001 265.53 63.9601 266.32 62.8301L271.21 63.6201C272.43 61.4901 273.23 59.1801 273.57 56.8101C272.14 56.3201 270.14 55.6201 269.01 55.2001C269.1 53.8401 268.99 52.4601 268.67 51.1101L272.87 48.6001C272.54 47.5901 272.12 46.5901 271.6 45.6101C270.96 44.4101 270.2 43.3001 269.34 42.2801L264.92 44.3001C263.87 43.2101 262.66 42.3001 261.34 41.5601L262.42 37.0601C260.32 36.0901 258.06 35.4601 255.71 35.1901L253.73 39.4401C252.07 39.3701 250.39 39.5301 248.72 39.9401L246 36.1801ZM260.93 50.7201C263.2 54.9701 261.27 60.2201 256.62 62.4501C251.98 64.6801 246.37 63.0401 244.11 58.7901C241.84 54.5401 243.77 49.2901 248.42 47.0601C253.07 44.8301 258.67 46.4701 260.93 50.7201Z" fill="#A7A4A0"/>
<path d="M498.17 102.14H456.35C454.73 102.14 453.41 100.82 453.41 99.2V69.1C453.41 67.48 454.73 66.16 456.35 66.16H498.17C499.79 66.16 501.11 67.48 501.11 69.1V99.2C501.11 100.83 499.79 102.14 498.17 102.14Z" fill="#84817D"/>
<path d="M453.41 94.78V99.56C453.41 100.99 454.57 102.14 455.99 102.14H498.49C499.93 102.14 501.11 100.97 501.11 99.52V94.78H453.41Z" fill="#C5D43B"/>
<path d="M471.49 86.66V73.83C471.49 72.72 472.69 72.03 473.65 72.58L484.77 79C485.73 79.55 485.73 80.94 484.77 81.49L473.64 87.91C472.69 88.46 471.49 87.77 471.49 86.66Z" fill="white"/>
<path d="M200.65 89.88H153.19C151.56 89.88 150.24 88.56 150.24 86.93V55.73C150.24 54.1 151.56 52.78 153.19 52.78H200.65C202.28 52.78 203.6 54.1 203.6 55.73V86.93C203.6 88.56 202.28 89.88 200.65 89.88Z" fill="#C5D43B"/>
<path d="M203.6 59.9V54.8C203.6 53.69 202.7 52.79 201.59 52.79H152.26C151.15 52.79 150.25 53.69 150.25 54.8V59.9H203.6Z" fill="#84817D"/>
<path d="M159.01 55.7101H154.82V57.8501H159.01V55.7101Z" fill="#CCCAC7"/>
<path d="M165.84 55.7101H161.65V57.8501H165.84V55.7101Z" fill="#CCCAC7"/>
<path d="M171.2 80.1101L159.03 74.7601V73.5201L171.2 67.4501V69.3401L161.29 74.0401L171.2 78.2001V80.1101Z" fill="white"/>
<path d="M181.81 64.66L174.91 83.18H172.81L179.71 64.66H181.81Z" fill="white"/>
<path d="M183.39 78.2001L193.31 74.0701L183.39 69.3401V67.4501L195.56 73.5201V74.7601L183.39 80.1101V78.2001Z" fill="white"/>
<path d="M351.22 77.84H313.92V31.9H338.45L351.22 44.11V77.84Z" fill="#58D0DB"/>
<path d="M338.45 31.9V44.13H351.22V44.11L338.45 31.9Z" fill="#9FE4EB"/>
<path d="M343.23 50.13H321.38C321 50.13 320.7 49.82 320.7 49.45C320.7 49.08 321.01 48.77 321.38 48.77H343.23C343.61 48.77 343.91 49.08 343.91 49.45C343.91 49.82 343.61 50.13 343.23 50.13Z" fill="#1189A5"/>
<path d="M337.77 55.6H321.38C321 55.6 320.7 55.29 320.7 54.92C320.7 54.54 321.01 54.24 321.38 54.24H337.77C338.15 54.24 338.45 54.55 338.45 54.92C338.45 55.29 338.15 55.6 337.77 55.6Z" fill="#1189A5"/>
<path d="M343.23 61.0601H321.38C321 61.0601 320.7 60.7501 320.7 60.3801C320.7 60.0001 321.01 59.7001 321.38 59.7001H343.23C343.61 59.7001 343.91 60.0101 343.91 60.3801C343.91 60.7501 343.61 61.0601 343.23 61.0601Z" fill="#1189A5"/>
<path d="M337.77 66.52H321.38C321 66.52 320.7 66.21 320.7 65.84C320.7 65.46 321.01 65.16 321.38 65.16H337.77C338.15 65.16 338.45 65.47 338.45 65.84C338.45 66.21 338.15 66.52 337.77 66.52Z" fill="#1189A5"/>
<path d="M439.71 38.14L414.57 44.04L414.65 70.43C414.02 69.85 413.13 70.12 412.2 70.12C411.3 70.12 410.56 69.19 409.93 69.74L409.87 44.04L384.73 38.14L384.76 69.08L408.86 73.46C409.67 74.76 410.66 75.2 412.19 75.2C413.72 75.2 414.76 74.7 415.52 73.47L439.67 69.16L439.71 38.14Z" fill="#0769DC"/>
<path d="M435.92 35.4C435.92 35.4 417.76 38.64 415.42 39.39C413.08 40.13 412.12 41.72 412.18 44.73C412.25 47.75 412.18 70.34 412.18 70.34L436.32 65.64L435.92 35.4Z" fill="#CAE0FA"/>
<path d="M388.71 35.4C388.71 35.4 406.69 38.64 409.03 39.39C411.37 40.13 412.33 41.72 412.27 44.73C412.2 47.75 412.18 70.34 412.18 70.34L388.13 65.7L388.71 35.4Z" fill="#A3C9F6"/>
<path d="M407.76 44.94C407.73 44.94 407.7 44.94 407.67 44.93L393.08 42.1C392.84 42.05 392.68 41.82 392.72 41.57C392.77 41.32 393.01 41.17 393.25 41.21L407.84 44.04C408.08 44.09 408.24 44.32 408.2 44.57C408.16 44.79 407.97 44.94 407.76 44.94Z" fill="#B3AFAB"/>
<path d="M407.76 49.2C407.73 49.2 407.7 49.2 407.67 49.19L393.07 46.36C392.83 46.31 392.67 46.08 392.71 45.83C392.76 45.58 393 45.43 393.24 45.47L407.84 48.3C408.08 48.35 408.24 48.58 408.2 48.83C408.16 49.05 407.97 49.2 407.76 49.2Z" fill="#B3AFAB"/>
<path d="M407.76 53.4501C407.73 53.4501 407.7 53.4501 407.67 53.4401L393.07 50.6101C392.83 50.5601 392.67 50.3301 392.71 50.0801C392.76 49.8301 393 49.6701 393.24 49.7201L407.84 52.5501C408.08 52.6001 408.24 52.8301 408.2 53.0801C408.16 53.3001 407.97 53.4501 407.76 53.4501Z" fill="#B3AFAB"/>
<path d="M407.76 57.7001C407.73 57.7001 407.7 57.7001 407.67 57.6901L393.08 54.8601C392.84 54.8101 392.68 54.5801 392.72 54.3301C392.77 54.0801 393.01 53.9201 393.25 53.9701L407.84 56.8001C408.08 56.8501 408.24 57.0801 408.2 57.3301C408.16 57.5501 407.97 57.7001 407.76 57.7001Z" fill="#B3AFAB"/>
<path d="M416.62 44.94C416.65 44.94 416.68 44.94 416.71 44.93L431.3 42.1C431.54 42.05 431.7 41.82 431.66 41.57C431.61 41.32 431.37 41.17 431.13 41.21L416.54 44.04C416.3 44.09 416.14 44.32 416.18 44.57C416.22 44.79 416.41 44.94 416.62 44.94Z" fill="#B3AFAB"/>
<path d="M416.62 49.2C416.65 49.2 416.68 49.2 416.71 49.19L431.31 46.36C431.55 46.31 431.71 46.08 431.67 45.83C431.62 45.58 431.38 45.43 431.14 45.47L416.54 48.3C416.3 48.35 416.14 48.58 416.18 48.83C416.22 49.05 416.41 49.2 416.62 49.2Z" fill="#B3AFAB"/>
<path d="M416.62 53.4501C416.65 53.4501 416.68 53.4501 416.71 53.4401L431.31 50.6101C431.55 50.5601 431.71 50.3301 431.67 50.0801C431.62 49.8301 431.38 49.6701 431.14 49.7201L416.54 52.5501C416.3 52.6001 416.14 52.8301 416.18 53.0801C416.22 53.3001 416.41 53.4501 416.62 53.4501Z" fill="#B3AFAB"/>
<path d="M416.62 57.7001C416.65 57.7001 416.68 57.7001 416.71 57.6901L431.3 54.8601C431.54 54.8101 431.7 54.5801 431.66 54.3301C431.61 54.0801 431.37 53.9201 431.13 53.9701L416.54 56.8001C416.3 56.8501 416.14 57.0801 416.18 57.3301C416.22 57.5501 416.41 57.7001 416.62 57.7001Z" fill="#B3AFAB"/>
<path d="M410.5 70.92C411.04 70.59 411.66 70.4 412.34 70.4C412.96 70.4 413.55 70.57 414.06 70.85L436.92 67.18L437.13 38.6L435.85 35.39L435.72 65.06C435.72 65.06 416.96 68.18 415.28 68.56C413.6 68.95 412.22 70.3 412.22 70.3C412.22 70.3 411.56 69.17 409.45 68.63C407.34 68.09 388.72 64.92 388.72 64.92L388.77 35.45L387.45 38.81L387.53 66.94L410.5 70.92Z" fill="#4995EE"/>
<defs>
<radialGradient id="paint0_radial" cx="0" cy="0" r="1" gradientUnits="userSpaceOnUse" gradientTransform="translate(316.474 172.352) rotate(1.55588) scale(276.788 159.951)">
<stop offset="0.1821" stop-color="#E1EFF9"/>
<stop offset="0.9144" stop-color="#B8D6F7"/>
</radialGradient>
<radialGradient id="paint1_radial" cx="0" cy="0" r="1" gradientUnits="userSpaceOnUse" gradientTransform="translate(193.225 121.496) scale(48.9061)">
<stop offset="0.0613" stop-color="#1BA6C5"/>
<stop offset="0.8867" stop-color="#57CACF"/>
</radialGradient>
<linearGradient id="paint2_linear" x1="233.742" y1="204.861" x2="233.742" y2="177.871" gradientUnits="userSpaceOnUse">
<stop offset="0.0613" stop-color="#1BA6C5"/>
<stop offset="0.8867" stop-color="#57CACF"/>
</linearGradient>
<linearGradient id="paint3_linear" x1="245.105" y1="170.765" x2="245.883" y2="204.73" gradientUnits="userSpaceOnUse">
<stop offset="0.252" stop-color="#522CD5"/>
<stop offset="0.5558" stop-color="#8A6FE8"/>
</linearGradient>
<linearGradient id="paint4_linear" x1="245.387" y1="202.799" x2="259.183" y2="243.453" gradientUnits="userSpaceOnUse">
<stop stop-color="#522CD5"/>
<stop offset="0.4397" stop-color="#8A6FE8"/>
</linearGradient>
<radialGradient id="paint5_radial" cx="0" cy="0" r="1" gradientUnits="userSpaceOnUse" gradientTransform="translate(256.631 225.809) rotate(10.2964) scale(15.0921 14.3384)">
<stop offset="0.034" stop-color="#522CD5"/>
<stop offset="0.9955" stop-color="#8A6FE8"/>
</radialGradient>
<linearGradient id="paint6_linear" x1="226.255" y1="173.737" x2="236.85" y2="203.477" gradientUnits="userSpaceOnUse">
<stop offset="0.252" stop-color="#522CD5"/>
<stop offset="0.5558" stop-color="#8A6FE8"/>
</linearGradient>
<radialGradient id="paint7_radial" cx="0" cy="0" r="1" gradientUnits="userSpaceOnUse" gradientTransform="translate(238.121 119.872) rotate(171.455) scale(46.3532 44.143)">
<stop offset="0.4744" stop-color="#A08BE8"/>
<stop offset="0.8618" stop-color="#8065E0"/>
</radialGradient>
<radialGradient id="paint8_radial" cx="0" cy="0" r="1" gradientUnits="userSpaceOnUse" gradientTransform="translate(269.491 116.82) rotate(171.455) scale(48.0368 45.7463)">
<stop offset="0.0933" stop-color="#E1DFDD"/>
<stop offset="0.6573" stop-color="white"/>
</radialGradient>
<radialGradient id="paint9_radial" cx="0" cy="0" r="1" gradientUnits="userSpaceOnUse" gradientTransform="translate(291.921 155.16) rotate(-67.3311) scale(8.65469 8.30243)">
<stop stop-color="#8065E0"/>
<stop offset="1" stop-color="#512BD4"/>
</radialGradient>
<linearGradient id="paint10_linear" x1="229.61" y1="202.566" x2="223.975" y2="245.632" gradientUnits="userSpaceOnUse">
<stop stop-color="#522CD5"/>
<stop offset="0.4397" stop-color="#8A6FE8"/>
</linearGradient>
<radialGradient id="paint11_radial" cx="0" cy="0" r="1" gradientUnits="userSpaceOnUse" gradientTransform="translate(230.405 230.712) rotate(35.1098) scale(13.5053 13.7544)">
<stop offset="0.034" stop-color="#522CD5"/>
<stop offset="0.9955" stop-color="#8A6FE8"/>
</radialGradient>
<linearGradient id="paint12_linear" x1="190.523" y1="155.62" x2="217.391" y2="180.931" gradientUnits="userSpaceOnUse">
<stop offset="0.2495" stop-color="#967FE6"/>
<stop offset="0.6748" stop-color="#8A6FE8"/>
</linearGradient>
<radialGradient id="paint13_radial" cx="0" cy="0" r="1" gradientUnits="userSpaceOnUse" gradientTransform="translate(223.722 175.887) rotate(94.5976) scale(8.42319 8.52706)">
<stop stop-color="#8065E0"/>
<stop offset="1" stop-color="#512BD4"/>
</radialGradient>
<radialGradient id="paint14_radial" cx="0" cy="0" r="1" gradientUnits="userSpaceOnUse" gradientTransform="translate(199.435 145.499) rotate(-8.54511) scale(8.54893 8.14131)">
<stop stop-color="#8065E0"/>
<stop offset="1" stop-color="#512BD4"/>
</radialGradient>
<linearGradient id="paint15_linear" x1="336.103" y1="162.342" x2="336.103" y2="266.801" gradientUnits="userSpaceOnUse">
<stop offset="0.0613" stop-color="#1BA6C5"/>
<stop offset="0.252" stop-color="#57CACF"/>
</linearGradient>
</defs>
</svg>
