<?xml version="1.0" encoding="UTF-8" standalone="no"?>
<svg
   xmlns:dc="http://purl.org/dc/elements/1.1/"
   xmlns:cc="http://creativecommons.org/ns#"
   xmlns:rdf="http://www.w3.org/1999/02/22-rdf-syntax-ns#"
   xmlns:svg="http://www.w3.org/2000/svg"
   xmlns="http://www.w3.org/2000/svg"
   xmlns:sodipodi="http://sodipodi.sourceforge.net/DTD/sodipodi-0.dtd"
   xmlns:inkscape="http://www.inkscape.org/namespaces/inkscape"
   inkscape:version="1.0 (4035a4fb49, 2020-05-01)"
   sodipodi:docname="hero.svg"
   id="svg544"
   version="1.1"
   overflow="hidden"
   fill="none"
   viewBox="0 0 650 600.00001"
   height="600"
   width="650">
  <metadata
     id="metadata548">
    <rdf:RDF>
      <cc:Work
         rdf:about="">
        <dc:format>image/svg+xml</dc:format>
        <dc:type
           rdf:resource="http://purl.org/dc/dcmitype/StillImage" />
        <dc:title></dc:title>
      </cc:Work>
    </rdf:RDF>
  </metadata>
  <sodipodi:namedview
     inkscape:current-layer="svg544"
     inkscape:window-maximized="1"
     inkscape:window-y="-12"
     inkscape:window-x="-12"
     inkscape:cy="279.27068"
     inkscape:cx="451.7131"
     inkscape:zoom="2.5738994"
     fit-margin-bottom="0"
     fit-margin-right="0"
     fit-margin-left="0"
     fit-margin-top="0"
     units="px"
     showgrid="false"
     id="namedview546"
     inkscape:window-height="2050"
     inkscape:window-width="3840"
     inkscape:pageshadow="2"
     inkscape:pageopacity="0"
     guidetolerance="10"
     gridtolerance="10"
     objecttolerance="10"
     borderopacity="1"
     bordercolor="#666666"
     pagecolor="#ffffff" />
  <defs
     id="defs360">
    <radialGradient
       gradientTransform="matrix(423.14202,11.493346,-6.6418002,244.52638,316.31409,310.75971)"
       id="paint0_radial"
       gradientUnits="userSpaceOnUse"
       r="1"
       cy="0"
       cx="0">
      <stop
         id="stop280"
         stop-color="#E1EFF9"
         offset="0.1821" />
      <stop
         id="stop282"
         stop-color="#B8D6F7"
         offset="0.9144" />
    </radialGradient>
    <radialGradient
       gradientTransform="matrix(74.793185,0,0,74.793185,127.82665,232.9845)"
       id="paint1_radial"
       gradientUnits="userSpaceOnUse"
       r="1"
       cy="0"
       cx="0">
      <stop
         id="stop285"
         stop-color="#1BA6C5"
         offset="0.0613" />
      <stop
         id="stop287"
         stop-color="#57CACF"
         offset="0.8867" />
    </radialGradient>
    <linearGradient
       gradientTransform="matrix(1.5293221,0,0,1.5293221,-167.67662,47.17797)"
       id="paint2_linear"
       gradientUnits="userSpaceOnUse"
       y2="177.871"
       x2="233.742"
       y1="204.86099"
       x1="233.742">
      <stop
         id="stop290"
         stop-color="#1BA6C5"
         offset="0.0613" />
      <stop
         id="stop292"
         stop-color="#57CACF"
         offset="0.8867" />
    </linearGradient>
    <linearGradient
       gradientTransform="matrix(1.5293221,0,0,1.5293221,-167.67662,47.17797)"
       id="paint3_linear"
       gradientUnits="userSpaceOnUse"
       y2="204.73"
       x2="245.883"
       y1="170.765"
       x1="245.105">
      <stop
         id="stop295"
         stop-color="#522CD5"
         offset="0.252" />
      <stop
         id="stop297"
         stop-color="#8A6FE8"
         offset="0.5558" />
    </linearGradient>
    <linearGradient
       gradientTransform="matrix(1.5293221,0,0,1.5293221,-167.67662,47.17797)"
       id="paint4_linear"
       gradientUnits="userSpaceOnUse"
       y2="243.453"
       x2="259.18301"
       y1="202.799"
       x1="245.38699">
      <stop
         id="stop300"
         stop-color="#522CD5"
         offset="0" />
      <stop
         id="stop302"
         stop-color="#8A6FE8"
         offset="0.4397" />
    </linearGradient>
    <radialGradient
       gradientTransform="matrix(22.709059,4.1254537,-3.9194234,21.574913,224.79485,392.51269)"
       id="paint5_radial"
       gradientUnits="userSpaceOnUse"
       r="1"
       cy="0"
       cx="0">
      <stop
         id="stop305"
         stop-color="#522CD5"
         offset="0.034" />
      <stop
         id="stop307"
         stop-color="#8A6FE8"
         offset="0.9955" />
    </radialGradient>
    <linearGradient
       gradientTransform="matrix(1.5293221,0,0,1.5293221,-167.67662,47.17797)"
       id="paint6_linear"
       gradientUnits="userSpaceOnUse"
       y2="203.47701"
       x2="236.85001"
       y1="173.737"
       x1="226.255">
      <stop
         id="stop310"
         stop-color="#522CD5"
         offset="0.252" />
      <stop
         id="stop312"
         stop-color="#8A6FE8"
         offset="0.5558" />
    </linearGradient>
    <radialGradient
       gradientTransform="matrix(-70.102149,10.533114,-10.030885,-66.759501,196.48711,230.50088)"
       id="paint7_radial"
       gradientUnits="userSpaceOnUse"
       r="1"
       cy="0"
       cx="0">
      <stop
         id="stop315"
         stop-color="#A08BE8"
         offset="0.4744" />
      <stop
         id="stop317"
         stop-color="#8065E0"
         offset="0.8618" />
    </radialGradient>
    <radialGradient
       gradientTransform="matrix(-72.648299,10.91569,-10.395216,-69.184246,244.46194,225.83339)"
       id="paint8_radial"
       gradientUnits="userSpaceOnUse"
       r="1"
       cy="0"
       cx="0">
      <stop
         id="stop320"
         stop-color="#E1DFDD"
         offset="0.0933" />
      <stop
         id="stop322"
         stop-color="#FFFFFF"
         offset="0.6573" />
    </radialGradient>
    <radialGradient
       gradientTransform="matrix(5.1011458,-12.213304,11.716213,4.893525,278.76463,284.46761)"
       id="paint9_radial"
       gradientUnits="userSpaceOnUse"
       r="1"
       cy="0"
       cx="0">
      <stop
         id="stop325"
         stop-color="#8065E0"
         offset="0" />
      <stop
         id="stop327"
         stop-color="#512BD4"
         offset="1" />
    </radialGradient>
    <linearGradient
       gradientTransform="matrix(1.5293221,0,0,1.5293221,-167.67662,47.17797)"
       id="paint10_linear"
       gradientUnits="userSpaceOnUse"
       y2="245.632"
       x2="223.97501"
       y1="202.56599"
       x1="229.61">
      <stop
         id="stop330"
         stop-color="#522CD5"
         offset="0" />
      <stop
         id="stop332"
         stop-color="#8A6FE8"
         offset="0.4397" />
    </linearGradient>
    <radialGradient
       gradientTransform="matrix(16.895951,11.879025,-12.098131,17.207627,184.68686,400.01095)"
       id="paint11_radial"
       gradientUnits="userSpaceOnUse"
       r="1"
       cy="0"
       cx="0">
      <stop
         id="stop335"
         stop-color="#522CD5"
         offset="0.034" />
      <stop
         id="stop337"
         stop-color="#8A6FE8"
         offset="0.9955" />
    </radialGradient>
    <linearGradient
       gradientTransform="matrix(1.5293221,0,0,1.5293221,-167.67662,47.17797)"
       id="paint12_linear"
       gradientUnits="userSpaceOnUse"
       y2="180.931"
       x2="217.39101"
       y1="155.62"
       x1="190.52299">
      <stop
         id="stop340"
         stop-color="#967FE6"
         offset="0.2495" />
      <stop
         id="stop342"
         stop-color="#8A6FE8"
         offset="0.6748" />
    </linearGradient>
    <radialGradient
       gradientTransform="matrix(-1.0325662,12.840326,-12.998658,-1.0452994,174.4664,316.16585)"
       id="paint13_radial"
       gradientUnits="userSpaceOnUse"
       r="1"
       cy="0"
       cx="0">
      <stop
         id="stop345"
         stop-color="#8065E0"
         offset="0" />
      <stop
         id="stop347"
         stop-color="#512BD4"
         offset="1" />
    </radialGradient>
    <radialGradient
       gradientTransform="matrix(12.928935,-1.9426522,1.8500209,12.312465,137.32375,269.69283)"
       id="paint14_radial"
       gradientUnits="userSpaceOnUse"
       r="1"
       cy="0"
       cx="0">
      <stop
         id="stop350"
         stop-color="#8065E0"
         offset="0" />
      <stop
         id="stop352"
         stop-color="#512BD4"
         offset="1" />
    </radialGradient>
    <linearGradient
       gradientTransform="matrix(1.5293221,0,0,1.5293221,-167.67662,47.17797)"
       id="paint15_linear"
       gradientUnits="userSpaceOnUse"
       y2="266.80099"
       x2="336.103"
       y1="162.342"
       x1="336.103">
      <stop
         id="stop355"
         stop-color="#1BA6C5"
         offset="0.0613" />
      <stop
         id="stop357"
         stop-color="#57CACF"
         offset="0.252" />
    </linearGradient>
  </defs>
  <path
     style="fill:url(#paint0_radial);stroke-width:1.52931"
     id="path362"
     fill="url(#paint0_radial)"
     d="m 547.17448,380.81491 c -168.99011,69.44652 -417.99436,84.84679 -497.595587,6.91254 -91.94285,-90.00062 52.608687,-199.2554 185.323267,-148.54307 88.19602,33.69097 203.81278,28.10894 276.99085,18.7189 124.05855,-15.93554 150.13359,75.71673 35.28147,122.91163 z" />
  <path
     style="stroke-width:1.52931"
     id="path364"
     fill="#908d89"
     d="m 235.66376,154.52554 -1.78624,2.48361 1.24181,0.89251 1.78625,-2.48361 z" />
  <path
     style="stroke-width:1.52931"
     id="path366"
     fill="#908d89"
     d="m 305.17451,208.16972 -2.59983,-1.86577 1.77402,-2.47752 2.59984,1.86579 z m -7.78423,-5.58202 -2.59985,-1.86577 1.7893,-2.47736 2.59986,1.86562 z m -7.78425,-5.58187 -2.59985,-1.86578 1.774,-2.47751 2.59986,1.86578 z m -7.78426,-5.58203 -2.59985,-1.86578 1.78931,-2.4775 2.59985,1.86577 z m -7.76895,-5.59733 -2.59986,-1.86576 1.77403,-2.47751 2.59983,1.86577 z m -7.78425,-5.58203 -2.59984,-1.86576 1.78929,-2.4775 2.59986,1.86577 z m -7.78426,-5.58202 -2.59984,-1.86577 1.77402,-2.4775 2.59984,1.86578 z m -7.78425,-5.58203 -2.59985,-1.86577 1.78931,-2.47749 2.59985,1.86577 z m -7.78424,-5.59731 -2.59985,-1.86577 1.77401,-2.47751 2.59986,1.86578 z" />
  <path
     style="stroke-width:1.52931"
     id="path368"
     fill="#908d89"
     d="m 312.15436,209.41153 -1.7832,2.48514 1.24334,0.89161 1.78317,-2.48515 z" />
  <path
     style="stroke-width:1.52931"
     id="path370"
     fill="#908d89"
     d="m 346.26741,195.67516 -3.05864,-0.15293 0.15293,-3.05865 3.05864,0.15294 z m 0.4435,-9.17593 -3.05864,-0.15294 0.15293,-3.05864 3.05865,0.15293 z m 0.44351,-9.16064 -3.05864,-0.15294 0.15293,-3.05864 3.05864,0.15293 z" />
  <path
     style="stroke-width:1.52931"
     id="path372"
     fill="#908d89"
     d="m 386.85562,196.6845 -1.86576,-2.41631 2.41632,-1.86578 1.86578,2.41633 z m 7.26429,-5.59731 -1.86578,-2.41633 2.41633,-1.86577 1.86577,2.41633 z m 7.26429,-5.59732 -1.86579,-2.41633 2.43163,-1.86577 1.86577,2.41633 z m 7.27956,-5.59731 -1.86577,-2.41633 2.41633,-1.86577 1.86576,2.41632 z m 7.26428,-5.59732 -1.86577,-2.41634 2.41633,-1.86577 1.86577,2.41634 z m 7.26429,-5.59732 -1.86577,-2.41634 2.43161,-1.86577 1.86577,2.41633 z m 7.27957,-5.59733 -1.86577,-2.41632 2.41633,-1.86578 1.86577,2.41633 z" />
  <path
     style="stroke-width:1.52931"
     id="path374"
     fill="#908d89"
     d="m 389.85309,226.96509 -0.59643,-2.99747 2.99747,-0.59644 0.59644,2.99747 z m 8.99241,-1.77401 -0.59644,-2.99748 2.99748,-0.59643 0.59643,2.99747 z m 9.00772,-1.78931 -0.59644,-2.99747 2.99748,-0.59644 0.59642,2.99748 z m 8.9924,-1.77401 -0.59642,-2.99747 2.99747,-0.59644 0.59644,2.99748 z m 9.00772,-1.78931 -0.59644,-2.99747 2.99748,-0.59644 0.59644,2.99748 z m 9.00771,-1.77401 -0.59644,-2.99748 2.99747,-0.59643 0.59644,2.99747 z m 8.99242,-1.78931 -0.59644,-2.99747 2.99746,-0.59643 0.59644,2.99747 z m 9.0077,-1.77401 -0.59645,-2.99748 2.99748,-0.59643 0.59645,2.99747 z m 9.0077,-1.78932 -0.59642,-2.99746 2.99747,-0.59644 0.59643,2.99748 z m 8.99242,-1.7893 -0.59643,-2.99747 2.99747,-0.59644 0.59644,2.99747 z m 9.00771,-1.77401 -0.59642,-2.99747 2.99746,-0.59644 0.59643,2.99748 z m 8.99241,-1.7893 -0.59643,-2.99748 2.99747,-0.59644 0.59644,2.99747 z m 9.0077,-1.77402 -0.59642,-2.99747 2.99746,-0.59644 0.59645,2.99747 z m 8.99243,-1.7893 -0.59643,-2.99748 2.99747,-0.59643 0.59642,2.99746 z m 9.00771,-1.77402 -0.59644,-2.99748 2.99748,-0.59644 0.59643,2.99747 z" />
  <path
     style="stroke-width:1.52931"
     id="path376"
     fill="#908d89"
     d="m 309.34957,228.64735 -2.76806,-0.74937 0.79525,-2.95159 2.76806,0.74937 z m -8.67126,-2.33987 -2.95158,-0.79525 0.79524,-2.95159 2.9516,0.79525 z m -8.85477,-2.40104 -2.95159,-0.79524 0.79525,-2.95159 2.95158,0.79525 z m -8.85477,-2.40103 -2.95159,-0.79524 0.79524,-2.9516 2.95159,0.79525 z m -8.85478,-2.40103 -2.95159,-0.79525 0.79526,-2.9516 2.95158,0.79525 z m -8.85478,-2.40104 -2.95159,-0.79525 0.79525,-2.95159 2.95158,0.79524 z m -8.87007,-2.40103 -2.95159,-0.79526 0.79525,-2.95159 2.95159,0.79525 z m -8.85477,-2.40104 -2.95159,-0.79525 0.79525,-2.95159 2.95158,0.79525 z m -8.85478,-2.40103 -2.95159,-0.79526 0.79524,-2.95159 2.9516,0.79525 z m -8.85478,-2.40104 -2.9516,-0.79525 0.79526,-2.9516 2.9516,0.79526 z m -8.85476,-2.40103 -2.9516,-0.79526 0.79525,-2.95159 2.95158,0.79525 z m -8.85478,-2.40104 -2.9516,-0.79525 0.79525,-2.9516 2.95159,0.79526 z m -8.85478,-2.40104 -2.9516,-0.79524 0.79525,-2.95161 2.9516,0.79526 z m -8.85478,-2.40104 -2.95159,-0.79524 0.79525,-2.95161 2.95159,0.79526 z m -8.87006,-2.40104 -2.9516,-0.79524 0.79525,-2.9516 2.9516,0.79526 z m -8.85477,-2.40103 -2.9516,-0.79525 0.79524,-2.95159 2.95158,0.79525 z m -8.85479,-2.40103 -2.9516,-0.79525 0.79526,-2.9516 2.95159,0.79526 z m -8.85477,-2.40104 -2.9516,-0.79524 0.79526,-2.95161 2.95159,0.79526 z m -8.85478,-2.40104 -2.95158,-0.79524 0.79523,-2.9516 2.9516,0.79525 z" />
  <path
     style="stroke-width:1.52931"
     id="path378"
     fill="#c8c6c4"
     d="m 265.47332,359.26676 c -1.08581,-4.46562 -5.36794,-10.84289 -16.31786,-10.47586 l -4.37387,0.30587 -0.19881,-0.15293 -2.46221,0.33644 -98.64129,6.7596 c -8.50303,0 -15.87436,5.36793 -17.89307,13.04513 l -18.9177,80.42705 h 6.42313 l 18.56598,-79.05067 c 1.03995,-3.93035 3.67038,-5.99494 7.31016,-6.53021 14.29916,0 29.59239,0.76467 39.28829,1.28464 -1.75872,2.93631 -3.07393,6.7596 -3.73155,11.944 l -2.20222,52.1346 h 6.23963 l 2.17165,-51.56875 c 0.64231,-5.67377 2.58455,-9.45119 5.03146,-12.11222 0.29058,0.0152 0.58114,0.0305 0.82583,0.0305 0.13765,0 0.25999,-0.0154 0.39763,-0.0154 7.21841,1.26933 13.5498,3.94564 15.06382,12.35692 l 9.29829,84.47975 h 6.25493 l -8.68656,-84.52554 c -0.85641,-7.37134 -5.4291,-12.93808 -12.81572,-15.96614 l 53.9392,-7.49366 c 4.31269,-0.19883 8.07482,2.01869 9.4818,6.45372 l 24.77501,80.48824 5.29146,-2.73749 z" />
  <path
     style="fill:url(#paint1_radial);stroke-width:1.52931"
     id="path380"
     fill="url(#paint1_radial)"
     d="m 168.39195,351.57427 c 0,0 -27.52781,6.95842 -41.41405,6.95842 -13.87095,0 -20.7682,-12.32634 -24.34682,-31.53462 -3.578617,-19.20831 -10.491157,-77.10843 -6.713717,-93.9004 2.69159,-11.9593 10.735847,-16.65431 24.163297,-17.06723 8.04423,-0.25999 25.95259,-0.85642 42.51514,1.71284 16.56256,2.55397 27.84896,26.25847 38.03425,41.82695 30.43351,46.52199 50.29942,76.63434 50.29942,76.63434 z" />
  <path
     style="fill:url(#paint2_linear);stroke-width:1.52931"
     id="path382"
     fill="url(#paint2_linear)"
     d="M 253.37637,349.08147 166.465,360.47493 c -6.63727,0 -52.27223,-7.00429 -52.27223,-13.61098 v -5.94905 c 0,-6.60668 24.37739,-10.79702 31.02994,-10.79702 l 108.16895,-10.91936 c 6.63728,0 12.02048,5.35263 12.02048,11.95929 v 5.94907 c -0.0152,6.62197 -5.39849,11.97459 -12.03577,11.97459 z" />
  <path
     style="stroke-width:1.52931"
     id="path384"
     fill="#8a6fe8"
     d="m 291.50238,288.7803 c -0.97876,0.64232 -24.31623,15.79788 -46.64432,7.95247 -12.90748,-4.52679 -22.54222,-15.5379 -28.6442,-32.72749 l 11.79106,-4.7256 c 4.72561,13.2898 11.7452,21.6552 20.87525,24.88206 16.65433,5.8879 35.83202,-6.45373 36.01554,-6.57609 z" />
  <path
     style="fill:url(#paint3_linear);stroke-width:1.52931"
     id="path386"
     fill="url(#paint3_linear)"
     d="m 214.02691,360.12317 c 2.0646,-10.44526 4.45034,-31.97812 -3.60919,-51.88989 l -12.31104,4.34328 c 7.31016,18.06129 4.58796,37.02489 2.81394,45.20676 -0.13763,0.6729 6.40786,2.53866 13.10629,2.33985 z" />
  <path
     style="stroke-width:1.52931"
     id="path388"
     fill="#522cd5"
     d="m 200.95122,357.67627 10.30762,1.86577 -0.1223,54.10741 -20.67643,-3.76213 c -1.5752,-0.29057 -2.53867,-1.71283 -2.15634,-3.19628 z" />
  <path
     style="fill:url(#paint4_linear);stroke-width:1.52931"
     id="path390"
     fill="url(#paint4_linear)"
     d="m 235.728,403.98414 c 1.52932,1.66696 1.147,3.6092 0.62702,5.62791 l -1.59048,6.19375 c -0.29058,1.10112 -1.48345,1.83518 -2.67633,1.62109 l -21.54816,-3.91507 c -1.34578,-0.24469 -2.15634,-1.45286 -1.83516,-2.7222 l 1.36108,-6.46903 c 0.59644,-2.32456 -0.0765,-3.34921 -1.57521,-5.93376 -2.58454,-4.41975 -8.47243,-26.94667 -5.03145,-40.26707 l 10.61348,1.92696 c -0.82583,8.15129 6.989,28.00187 21.65521,43.93742 z" />
  <path
     style="fill:url(#paint5_radial);stroke-width:1.52931"
     id="path392"
     fill="url(#paint5_radial)"
     d="m 236.33973,409.61205 c 0.36704,-1.40698 0.64231,-2.78338 0.27527,-4.03741 l -26.88548,-4.87854 c 0.55056,1.17758 0.6882,2.14105 0.30587,3.63979 l -1.3611,6.46903 c -0.32116,1.25404 0.50468,2.47751 1.83519,2.7069 l 21.54815,3.91507 c 1.17757,0.21409 2.38574,-0.51997 2.67631,-1.62109 z" />
  <path
     style="fill:url(#paint6_linear);stroke-width:1.52931"
     id="path394"
     fill="url(#paint6_linear)"
     d="m 173.80575,354.54115 c 10.65936,-11.68402 17.22016,-18.44362 16.91429,-21.79284 -0.0764,-0.84113 -1.1164,-2.52338 -5.67378,-5.81142 -3.85389,-2.78337 -8.3348,-5.93378 -8.3348,-5.94907 l 8.02893,-10.29235 c 0,0 4.5268,3.1963 8.42657,6.01025 5.1997,3.74685 10.10882,8.10541 10.67467,14.52856 0.79526,8.82419 -3.67037,13.56509 -19.39181,30.80055 z" />
  <path
     style="fill:url(#paint7_radial);stroke-width:1.52931"
     id="path396"
     fill="url(#paint7_radial)"
     d="m 251.3118,266.68159 c 1.83517,-17.66367 -3.42569,-30.75467 -3.42569,-30.75467 l 4.20565,-0.62702 0.0918,-0.0918 c -11.19467,-30.21937 -43.83041,-49.50413 -78.33192,-44.31972 -38.87537,5.84201 -65.40911,40.51174 -59.26124,77.44487 6.14788,36.93314 42.6528,62.13637 81.52818,56.29437 30.67821,-4.60326 53.66391,-27.17607 58.97066,-54.6274 0.0918,-1.14699 -0.26,-3.13511 -3.77742,-3.31863 z" />
  <path
     style="stroke-width:1.52931"
     id="path398"
     fill="#d8cff7"
     d="M 251.44944,282.47949 129.8989,300.73958 c 3.45628,3.99155 7.37134,7.57016 11.65344,10.70527 l 102.26578,-15.36969 c 3.08922,-4.23621 5.6432,-8.79361 7.63132,-13.59567 z" />
  <path
     style="stroke-width:1.52931"
     id="path400"
     fill="#512bd4"
     d="m 216.61147,303.89001 22.8175,-3.42569 -3.19629,-19.16242 -22.80221,3.4257 z" />
  <path
     style="stroke-width:1.52931"
     id="path402"
     fill="#ffffff"
     d="m 219.41013,296.15164 c -0.15293,0.0152 -0.29057,0 -0.41291,-0.0918 -0.1223,-0.0764 -0.19881,-0.19879 -0.21411,-0.32114 -0.0152,-0.13763 0.0152,-0.25999 0.10704,-0.38233 0.0918,-0.10705 0.2141,-0.18353 0.36704,-0.19882 0.15293,-0.0152 0.29057,0 0.4129,0.0918 0.1223,0.0764 0.19883,0.19881 0.21411,0.33646 0.0152,0.13763 -0.0152,0.25999 -0.10704,0.38232 -0.0918,0.0918 -0.2141,0.15293 -0.36704,0.18353 z" />
  <path
     style="stroke-width:1.52931"
     id="path404"
     fill="#ffffff"
     d="m 225.46625,295.17286 -0.99406,0.15294 -3.24217,-3.51744 c -0.0765,-0.0918 -0.15293,-0.18353 -0.21409,-0.27528 h -0.0152 c 0.0459,0.10705 0.0918,0.35174 0.15293,0.71879 l 0.56584,3.47155 -0.8717,0.1223 -0.87172,-5.30676 1.05524,-0.15292 3.13511,3.42568 c 0.13763,0.13764 0.21409,0.24468 0.25997,0.29056 h 0.0154 c -0.0459,-0.13764 -0.10704,-0.36704 -0.15295,-0.70349 l -0.56584,-3.41038 0.87172,-0.1223 z" />
  <path
     style="stroke-width:1.52931"
     id="path406"
     fill="#ffffff"
     d="m 229.71778,294.54584 -3.05866,0.4588 -0.87172,-5.30676 2.93629,-0.4282 0.1223,0.74937 -2.03399,0.30587 0.2447,1.49874 1.86577,-0.27528 0.12229,0.74935 -1.86577,0.27527 0.25999,1.55992 2.15634,-0.32115 z" />
  <path
     style="stroke-width:1.52931"
     id="path408"
     fill="#ffffff"
     d="m 233.31167,289.34616 -1.55991,0.22938 0.74937,4.55738 -0.9023,0.13764 -0.74936,-4.55738 -1.55992,0.22939 -0.1223,-0.74934 4.02211,-0.59645 z" />
  <path
     style="fill:url(#paint8_radial);stroke-width:1.52931"
     id="path410"
     fill="url(#paint8_radial)"
     d="m 251.46471,266.651 c 1.80462,-17.44957 -3.28803,-30.41822 -3.42567,-30.73936 l -73.02513,10.96523 c 0,0 -4.67972,0.24469 -4.00683,4.23622 0.6576,3.99154 2.7222,15.24733 4.78678,27.7266 0.42821,2.56927 2.84453,3.47157 4.58797,3.21159 0,0 69.7065,-12.35693 71.08288,-15.40028 z" />
  <path
     style="stroke-width:1.52931"
     id="path412"
     fill="#a08be8"
     d="m 207.89433,273.22708 c 0,0 9.81825,-10.13939 11.76049,-12.02047 1.92694,-1.89634 3.8386,-2.26338 6.1173,-0.91759 2.27869,1.34581 14.92618,8.01365 14.92618,8.01365 z" />
  <path
     style="stroke-width:1.52931"
     id="path414"
     fill="#512bd4"
     d="m 254.93629,270.88722 c 0,0 1.49874,-3.96094 -3.47158,-4.23622 0,-0.0154 -71.81696,10.73584 -71.81696,10.73584 -1.66696,0.24469 -3.97623,-0.36703 -4.41972,-1.88106 0.18351,1.10112 0.36702,2.21752 0.56583,3.34921 0.38234,2.32458 2.41633,3.28805 4.08328,3.24218 0.16825,0 0.33647,-0.0154 0.50469,-0.0459 l 4.90912,-0.73409 z" />
  <path
     style="stroke-width:1.52931"
     id="path416"
     fill="#512bd4"
     d="m 196.35713,268.32867 c 3.01888,-0.58574 4.70572,-4.97795 3.76672,-9.81213 -0.93747,-4.83419 -4.14294,-8.27822 -7.16182,-7.69402 -3.01733,0.58572 -4.7042,4.97947 -3.76672,9.81366 0.93749,4.83419 4.14446,8.27822 7.16182,7.69249 z" />
  <path
     style="stroke-width:1.52931"
     id="path418"
     fill="#8065e0"
     d="m 193.88574,255.18109 c 0.94818,-1.23875 2.38575,-1.94224 3.86919,-2.034 1.1164,1.40697 1.98812,3.31862 2.40104,5.52085 0.24468,1.37639 0.29057,2.69161 0.13763,3.91507 -1.66696,0.73407 -3.67037,0.61172 -5.26087,-0.48939 -2.32456,-1.60578 -2.84454,-4.71031 -1.14699,-6.91253 z" />
  <path
     style="stroke-width:1.52931"
     id="path420"
     fill="#8a6fe8"
     d="m 293.18463,265.71812 -16.88371,10.67466 c -2.78337,1.75873 -3.74684,5.4291 -2.15635,8.19717 l 0.29058,0.48938 c 1.5905,2.76808 5.15382,3.57862 7.93717,1.8199 l 16.88373,-10.67467 c 2.78337,-1.75873 3.74685,-5.42909 2.15634,-8.19717 l -0.29057,-0.48938 c -1.60578,-2.76807 -5.15381,-3.57862 -7.93719,-1.81989 z" />
  <path
     style="stroke-width:1.52931"
     id="path422"
     fill="#8a6fe8"
     d="m 284.46749,299.40908 12.03578,3.47158 c 3.21157,0.90229 6.54549,-1.11642 7.43251,-4.49622 0.887,-3.3951 -0.99406,-6.86665 -4.20564,-7.76895 l -12.34164,-3.56334 z" />
  <path
     style="stroke-width:1.52931"
     id="path424"
     fill="#8a6fe8"
     d="m 290.15658,295.50931 17.06723,-2.89042 c 3.28804,-0.56583 5.55145,-3.83859 5.03147,-7.29485 -0.50467,-3.45628 -3.59391,-5.79614 -6.89724,-5.2303 l -12.69337,2.11048 z" />
  <path
     style="stroke-width:1.52931"
     id="path426"
     fill="#8a6fe8"
     d="m 289.14723,291.74718 16.04259,-6.88195 c 3.10452,-1.33051 4.61855,-5.03147 3.37981,-8.27363 -1.22347,-3.24217 -4.74091,-4.80209 -7.84543,-3.48686 l -16.33316,7.0043 z" />
  <path
     style="fill:url(#paint9_radial);stroke-width:1.52931"
     id="path428"
     fill="url(#paint9_radial)"
     d="m 273.34934,279.13027 c 3.97622,-6.0714 11.85222,-7.63131 17.5872,-3.50214 5.73496,4.12917 7.15722,12.4028 3.16568,18.47421 -3.97622,6.07141 -11.85224,7.63132 -17.5872,3.50215 -5.71967,-4.14446 -7.14192,-12.4181 -3.16568,-18.47422 z" />
  <path
     style="stroke-width:1.52931"
     id="path430"
     fill="#8a6fe8"
     d="m 166.44971,188.10501 13.13686,-2.0187 -5.93376,-22.31281 -9.43593,1.43756 z" />
  <path
     style="stroke-width:1.52931"
     id="path432"
     fill="#d8cff7"
     d="m 172.79637,173.07178 c -4.58794,1.91164 -9.95588,-0.0306 -12.00517,-4.35857 -2.03399,-4.3127 0.0152,-9.34417 4.61856,-11.25581 4.58798,-1.91165 9.9559,0.0306 12.00518,4.35856 2.034,4.31269 -0.0305,9.34417 -4.61857,11.25582 z" />
  <path
     style="stroke-width:1.52931"
     id="path434"
     fill="#522cd5"
     d="m 162.77932,196.62334 c -0.58112,0.0917 -1.16228,-0.32116 -1.17757,-0.87172 -0.33644,-5.96435 4.14447,-11.33227 10.56762,-12.32633 6.42316,-0.97877 12.50986,2.75278 14.23799,8.50303 0.16822,0.55055 -0.22941,1.10111 -0.81054,1.17758 z" />
  <path
     style="stroke-width:1.52931"
     id="path436"
     fill="#522cd5"
     d="m 173.92809,354.47999 8.28892,5.82671 -13.50392,57.9766 -29.51591,-20.69173 c -1.26933,-0.88699 -1.43757,-2.56926 -0.38233,-3.76214 z" />
  <path
     style="fill:url(#paint10_linear);stroke-width:1.52931"
     id="path438"
     fill="url(#paint10_linear)"
     d="m 185.24507,412.07425 c 0.76467,2.06459 -0.62702,4.05271 -2.06458,5.67379 l -4.43504,4.9703 c -0.79525,0.88701 -2.21752,1.07053 -3.1657,0.39762 l -10.42997,-7.32545 c -1.07052,-0.76467 -1.22344,-2.18694 -0.32115,-3.19629 l 4.34327,-5.32203 c 1.66696,-1.86579 2.44691,-3.24217 1.46814,-6.01026 -5.79612,-16.34844 -3.73154,-31.5346 6.23964,-44.70207 l 7.58543,5.33733 c -4.66443,7.05018 -9.19121,23.04689 0.77996,50.17706 z" />
  <path
     style="fill:url(#paint11_radial);stroke-width:1.52931"
     id="path440"
     fill="url(#paint11_radial)"
     d="m 175.56445,423.11596 c 0.94819,0.67291 2.37047,0.48939 3.16571,-0.39762 l 4.43505,-4.9703 c 0.94817,-1.07052 1.86576,-2.27869 2.17163,-3.57861 L 170.99179,404.0912 c -0.18352,1.14699 -0.85641,2.07987 -1.83518,3.18099 l -4.34328,5.32203 c -0.90229,1.00935 -0.74936,2.43162 0.32115,3.19629 z" />
  <path
     style="stroke-width:1.52931"
     id="path442"
     fill="#512bd4"
     d="m 240.72277,261.67611 c 3.01887,-0.58573 4.70572,-4.97794 3.76824,-9.81211 -0.93746,-4.8342 -4.14445,-8.27823 -7.16334,-7.69403 -3.01736,0.58573 -4.70419,4.97947 -3.76671,9.81367 0.93746,4.83417 4.14445,8.27821 7.16181,7.69247 z" />
  <path
     style="stroke-width:1.52931"
     id="path444"
     fill="#8065e0"
     d="m 238.25139,248.52853 c 0.94817,-1.23875 2.38573,-1.94223 3.86918,-2.03399 1.11642,1.40698 1.98812,3.31863 2.40104,5.52085 0.24469,1.37638 0.29056,2.6916 0.13764,3.91506 -1.66696,0.73409 -3.67038,0.61174 -5.26086,-0.48938 -2.32459,-1.60579 -2.84456,-4.71031 -1.147,-6.91254 z" />
  <path
     style="fill:url(#paint12_linear);stroke-width:1.52931"
     id="path446"
     fill="url(#paint12_linear)"
     d="m 130.55651,316.79748 c -5.62791,-7.50897 -6.10199,-22.95514 1.77402,-40.29764 1.46813,-3.24217 13.76389,1.43756 12.29574,4.67973 -8.15128,18.03071 -4.81736,27.17605 -3.76213,28.30775 2.81396,3.04335 11.27111,2.90571 21.01288,-0.33644 3.30334,-1.10113 6.97372,0.81053 8.18189,4.2515 1.20816,3.45626 -0.48939,7.14195 -3.79272,8.22776 -8.94654,2.96689 -25.32558,6.49962 -34.44034,-3.31863 -0.4588,-0.47409 -0.87171,-0.97876 -1.26934,-1.51403 z" />
  <path
     style="stroke-width:1.52931"
     id="path448"
     fill="#8a6fe8"
     d="m 182.10996,297.3598 -18.21422,5.93377 c -2.99748,0.97877 -4.58797,4.32798 -3.54802,7.49368 l 0.1835,0.56584 c 1.03994,3.1504 4.32798,4.92441 7.32546,3.94565 l 18.21423,-5.93376 c 2.99747,-0.97877 4.58796,-4.32798 3.54802,-7.49368 l -0.18351,-0.56585 c -1.03994,-3.1657 -4.328,-4.92443 -7.32546,-3.94565 z" />
  <path
     style="stroke-width:1.52931"
     id="path450"
     fill="#8a6fe8"
     d="m 166.70969,327.65567 11.2711,6.74431 c 3.01276,1.77401 6.7749,0.85642 8.41127,-2.06459 1.63638,-2.921 0.50468,-6.72901 -2.50807,-8.50303 l -11.54639,-6.91254 z" />
  <path
     style="stroke-width:1.52931"
     id="path452"
     fill="#8a6fe8"
     d="m 171.16003,326.27927 17.67895,2.24811 c 3.41039,0.42823 6.39258,-1.98813 6.63727,-5.38321 0.24469,-3.39509 -2.32458,-6.48432 -5.73497,-6.89725 l -13.15217,-1.71284 z" />
  <path
     style="stroke-width:1.52931"
     id="path454"
     fill="#8a6fe8"
     d="m 171.38941,320.71256 17.54133,-1.80461 c 3.3951,-0.33645 5.71967,-3.37981 5.19969,-6.7749 -0.51996,-3.3951 -3.68567,-5.8726 -7.06545,-5.53615 l -17.8625,1.8199 z" />
  <path
     style="fill:url(#paint13_radial);stroke-width:1.52931"
     id="path456"
     fill="url(#paint13_radial)"
     d="m 160.05714,305.41931 c 5.30674,-4.52677 13.5192,-3.71624 18.35186,1.8199 4.83265,5.53615 4.41974,13.68744 -0.887,18.22953 -5.30675,4.52679 -13.51921,3.71624 -18.35187,-1.8199 -4.83266,-5.53615 -4.43504,-13.70273 0.88701,-18.22953 z" />
  <path
     style="fill:url(#paint14_radial);stroke-width:1.52931"
     id="path458"
     fill="url(#paint14_radial)"
     d="m 140.40534,285.8287 c 7.23064,0 13.091,-5.56673 13.091,-12.43338 0,-6.86667 -5.86036,-12.4334 -13.091,-12.4334 -7.22909,0 -13.091,5.56673 -13.091,12.4334 0,6.86665 5.86191,12.43338 13.091,12.43338 z" />
  <path
     style="stroke-width:1.52931"
     id="path460"
     fill="#1ba6c5"
     d="m 95.122103,238.78676 c -1.72812,21.54815 4.25152,70.79232 7.493687,88.22659 3.57861,19.20829 10.73585,32.00872 24.62209,32.00872 l 39.08947,1.51402 c 1.97282,0 3.04336,-2.30927 1.74344,-3.80802 -18.79538,-21.65518 -62.71752,-77.65898 -72.948687,-117.94131 z" />
  <path
     style="stroke-width:1.52931"
     id="path462"
     fill="#1ba6c5"
     d="m 422.3053,448.34978 c -1.66695,-0.38233 -150.39353,-0.38233 -152.07578,0.0152 -3.51746,0.82584 -4.12917,3.54803 -1.31522,4.69503 0.0305,0.0152 0.0611,0.0152 0.0918,0.0305 5.85731,2.64572 38.24835,4.67973 77.32254,4.67973 38.84478,0 71.06759,-2.00342 77.21546,-4.63385 0.0152,0 0.0152,0 0.0305,0 0.0459,-0.0152 0.0764,-0.0305 0.1223,-0.0459 0.0152,0 0.0152,-0.0152 0.0305,-0.0152 2.79865,-1.22345 2.03399,-3.93036 -1.42228,-4.7256 z" />
  <path
     style="fill:url(#paint15_linear);stroke-width:1.52931"
     id="path464"
     fill="url(#paint15_linear)"
     d="m 373.6117,444.45002 c -10.73585,-5.78085 -22.8328,-31.18289 -22.8328,-59.04715 0,-23.73507 0.79526,-74.08037 42.79045,-80.64116 l -43.43275,-9.31357 -2.50809,0.30586 -45.94084,9.02301 c 41.99519,6.54549 42.79043,56.90607 42.79043,80.64115 0,27.60428 -14.94148,53.22041 -25.69261,59.06243 -29.62297,0.79526 -50.71231,2.81396 -50.71231,5.18441 0,3.05864 35.03676,5.55144 78.2707,5.55144 43.21864,0 78.27071,-2.47751 78.27071,-5.55144 -0.0152,-2.38575 -21.22699,-4.41975 -51.00289,-5.21498 z" />
  <path
     style="stroke-width:1.52931"
     id="path466"
     fill="#57cacf"
     d="m 477.10092,295.46342 c -2.78336,-0.48938 -257.30846,-0.30585 -259.29658,0.13766 -4.31269,0.97877 -6.02552,4.40445 1.08583,5.75024 h 0.0152 c 13.59567,2.90572 66.11259,5.07736 128.83011,5.07736 64.32328,0 117.91073,-2.27869 129.77828,-5.29145 h 0.0152 c 6.46903,-1.42228 5.30675,-4.64915 -0.42822,-5.67381 z" />
  <path
     style="stroke-width:1.52931"
     id="path468"
     fill="#9fe4eb"
     d="m 347.73557,303.40061 c 73.04347,0 132.25577,-2.93782 132.25577,-6.56079 0,-3.62296 -59.2123,-6.56078 -132.25577,-6.56078 -73.0435,0 -132.25579,2.93782 -132.25579,6.56078 0,3.62297 59.21229,6.56079 132.25579,6.56079 z" />
  <path
     style="stroke-width:1.52931"
     id="path470"
     fill="#c8c6c4"
     d="m 239.94893,290.55432 76.35906,-6.66784 c 0,0 -5.6279,10.68995 -6.19375,10.68995 -0.55058,0.0152 -70.16531,-4.02211 -70.16531,-4.02211 z" />
  <path
     style="stroke-width:1.52931"
     id="path472"
     fill="#605d5a"
     d="M 359.89366,295.63166 H 245.02628 c -2.79867,0 -5.06206,-2.2634 -5.06206,-5.06205 h 125.0068 c -0.0152,2.78335 -2.27868,5.06205 -5.07736,5.06205 z" />
  <path
     style="stroke-width:1.52931"
     id="path474"
     fill="#797673"
     d="m 304.5475,295.63166 h -59.52122 c -2.79867,0 -5.06206,-2.2634 -5.06206,-5.06205 h 125.0068 -55.34618 c -0.0152,2.78335 -2.29398,5.06205 -5.07734,5.06205 z" />
  <path
     style="stroke-width:1.52931"
     id="path476"
     fill="#b3afab"
     d="m 383.94991,200.26313 -57.65545,0.62702 c -1.36109,0.0154 -2.52337,0.97877 -2.78335,2.30927 l -17.69427,87.3549 h 59.1083 l 22.48104,-85.88675 c 0.56585,-2.23281 -1.14699,-4.41974 -3.45627,-4.40444 z" />
  <path
     style="stroke-width:1.52931"
     id="path478"
     fill="#737373"
     d="m 383.94991,200.26313 -53.90861,0.62702 c -1.36109,0.0154 -2.52337,0.97877 -2.78336,2.30927 l -17.69428,87.3549 h 55.3462 l 22.48104,-85.88675 c 0.58113,-2.23281 -1.13171,-4.41974 -3.44099,-4.40444 z" />
  <path
     style="stroke-width:1.52931"
     id="path480"
     fill="#ffffff"
     d="m 335.42451,301.82541 h -15.752 l -2.85985,-35.44969 h 21.48698 z" />
  <path
     style="stroke-width:1.52931"
     id="path482"
     fill="#e1dfdd"
     d="m 337.73379,273.41061 0.56585,-7.03489 h -21.48698 l 0.56585,7.03489 z" />
  <path
     style="stroke-width:1.52931"
     id="path484"
     fill="#605d5a"
     d="m 339.46193,268.66972 h -24.25506 c -0.82581,0 -1.45286,-0.76467 -1.28463,-1.57521 l 0.97876,-4.57268 c 0.1223,-0.59643 0.65763,-1.03994 1.28465,-1.03994 h 22.28222 c 0.61173,0 1.14699,0.42821 1.28463,1.03994 l 0.97877,4.57268 c 0.18351,0.81054 -0.44351,1.57521 -1.26934,1.57521 z" />
  <path
     style="stroke-width:1.52931"
     id="path486"
     fill="#a7a4a0"
     d="m 208.53665,102.509 c -1.43757,0.47409 -2.85984,1.03994 -4.25152,1.69755 -1.91165,0.91759 -3.67037,1.97282 -5.30674,3.1657 l 2.9363,6.3161 c -1.62109,1.36109 -3.04336,2.89042 -4.23623,4.54208 l -7.78424,-0.77995 c -1.75873,3.08923 -2.93631,6.42315 -3.48686,9.84884 l 6.89723,2.89041 c -0.15292,2.27869 0.0611,4.60326 0.65762,6.86666 -1.68226,1.10111 -4.51151,2.87513 -6.3161,4.00683 0.45879,1.29992 1.02465,2.58455 1.68226,3.83859 0.91759,1.72814 2.0187,3.33393 3.22687,4.80207 l 7.05018,-2.75277 c 1.52931,1.5752 3.28803,2.90571 5.18439,4.00682 l -1.23875,7.09606 c 3.31863,1.51402 6.92783,2.4775 10.64408,2.84453 l 3.6245,-6.5302 c 2.09516,0 4.19033,-0.24469 6.28551,-0.73408 l 4.17506,5.76555 c 1.51402,-0.48938 3.01276,-1.07053 4.48091,-1.77401 2.00342,-0.96348 3.85388,-2.07988 5.55144,-3.33393 l -3.02805,-6.28551 c 1.66694,-1.42228 3.1198,-3.01277 4.32796,-4.74091 l 7.4784,1.20817 c 1.86577,-3.25746 3.08923,-6.79019 3.60919,-10.41468 -2.18692,-0.74937 -5.24558,-1.81989 -6.97372,-2.46221 0.13766,-2.07988 -0.0305,-4.19034 -0.51995,-6.25493 l 6.42315,-3.8386 c -0.50468,-1.54461 -1.14699,-3.07393 -1.94224,-4.57267 -0.97877,-1.83519 -2.14105,-3.53273 -3.45627,-5.09264 l -6.7596,3.08923 c -1.60579,-1.66696 -3.45629,-3.05865 -5.47498,-4.19035 l 1.65167,-6.88194 c -3.21157,-1.48345 -6.66784,-2.44692 -10.26176,-2.85984 l -3.02804,6.49962 c -2.53868,-0.10705 -5.10795,0.13764 -7.66191,0.76466 z m 22.83277,22.23635 c 3.47157,6.49962 0.51999,14.52856 -6.59137,17.93895 -7.09607,3.41038 -15.67556,0.9023 -19.13182,-5.59732 -3.47156,-6.49962 -0.51996,-14.52856 6.59138,-17.93895 7.11134,-3.41039 15.67555,-0.9023 19.13181,5.59732 z" />
  <path
     style="stroke-width:1.52931"
     id="path488"
     fill="#84817d"
     d="m 594.1859,203.38295 h -63.95631 c -2.47751,0 -4.49622,-2.01872 -4.49622,-4.49621 v -46.0326 c 0,-2.4775 2.01871,-4.49621 4.49622,-4.49621 h 63.95631 c 2.47747,0 4.49615,2.01871 4.49615,4.49621 v 46.0326 c 0,2.49279 -2.01868,4.49621 -4.49615,4.49621 z" />
  <path
     style="stroke-width:1.52931"
     id="path490"
     fill="#c5d43b"
     d="m 525.73337,192.12712 v 7.31017 c 0,2.18694 1.77402,3.94566 3.94565,3.94566 h 64.99618 c 2.20225,0 4.00685,-1.78932 4.00685,-4.00683 v -7.249 z" />
  <path
     style="stroke-width:1.52931"
     id="path492"
     fill="#ffffff"
     d="m 553.38352,179.70904 v -19.62121 c 0,-1.69755 1.83518,-2.75278 3.30333,-1.91165 l 17.00609,9.81825 c 1.46817,0.84113 1.46817,2.96688 0,3.80801 l -17.02138,9.81825 c -1.45286,0.84112 -3.28804,-0.2141 -3.28804,-1.91165 z" />
  <path
     style="stroke-width:1.52931"
     id="path494"
     fill="#c5d43b"
     d="M 139.1819,184.63345 H 66.600253 c -2.4928,0 -4.5115,-2.0187 -4.5115,-4.5115 V 132.4071 c 0,-2.4928 2.0187,-4.5115 4.5115,-4.5115 H 139.1819 c 2.49278,0 4.51149,2.0187 4.51149,4.5115 v 47.71485 c 0,2.4928 -2.01871,4.5115 -4.51149,4.5115 z" />
  <path
     style="stroke-width:1.52931"
     id="path496"
     fill="#84817d"
     d="m 143.69339,138.78437 v -7.79954 c 0,-1.69755 -1.37639,-3.07394 -3.07394,-3.07394 H 65.177983 c -1.69755,0 -3.07394,1.37639 -3.07394,3.07394 v 7.79954 z" />
  <path
     style="stroke-width:1.52931"
     id="path498"
     fill="#cccac7"
     d="m 75.500903,132.37667 h -6.40786 v 3.27274 h 6.40786 z" />
  <path
     style="stroke-width:1.52931"
     id="path500"
     fill="#cccac7"
     d="m 85.946183,132.37667 h -6.40787 v 3.27274 h 6.40787 z" />
  <path
     style="stroke-width:1.52931"
     id="path502"
     fill="#ffffff"
     d="m 94.143343,169.69213 -18.61185,-8.18188 v -1.89636 l 18.61185,-9.28298 v 2.89042 l -15.15558,7.18781 15.15558,6.36198 z" />
  <path
     style="stroke-width:1.52931"
     id="path504"
     fill="#ffffff"
     d="m 110.36946,146.06395 -10.552327,28.32304 h -3.21158 l 10.552337,-28.32304 z" />
  <path
     style="stroke-width:1.52931"
     id="path506"
     fill="#ffffff"
     d="m 112.78578,166.77112 15.17089,-6.3161 -15.17089,-7.23369 v -2.89042 l 18.61185,9.28298 v 1.89636 l -18.61185,8.18188 z" />
  <path
     style="stroke-width:1.52931"
     id="path508"
     fill="#58d0db"
     d="m 369.45193,166.22042 h -57.0437 V 95.963347 h 37.51426 l 19.52944,18.673023 z" />
  <path
     style="stroke-width:1.52931"
     id="path510"
     fill="#9fe4eb"
     d="m 349.92249,95.963347 v 18.703613 h 19.52944 v -0.0306 z" />
  <path
     style="stroke-width:1.52931"
     id="path512"
     fill="#1189a5"
     d="m 357.23266,123.84289 h -33.4157 c -0.58114,0 -1.03994,-0.47409 -1.03994,-1.03993 0,-0.56586 0.4741,-1.03994 1.03994,-1.03994 h 33.4157 c 0.58113,0 1.03993,0.47408 1.03993,1.03994 0,0.56584 -0.4588,1.03993 -1.03993,1.03993 z" />
  <path
     style="stroke-width:1.52931"
     id="path514"
     fill="#1189a5"
     d="m 348.88256,132.20829 h -25.0656 c -0.58114,0 -1.03994,-0.47409 -1.03994,-1.03994 0,-0.58114 0.4741,-1.03994 1.03994,-1.03994 h 25.0656 c 0.58113,0 1.03993,0.47409 1.03993,1.03994 0,0.56585 -0.4588,1.03994 -1.03993,1.03994 z" />
  <path
     style="stroke-width:1.52931"
     id="path516"
     fill="#1189a5"
     d="m 357.23266,140.55854 h -33.4157 c -0.58114,0 -1.03994,-0.47409 -1.03994,-1.03994 0,-0.58114 0.4741,-1.03994 1.03994,-1.03994 h 33.4157 c 0.58113,0 1.03993,0.47408 1.03993,1.03994 0,0.56585 -0.4588,1.03994 -1.03993,1.03994 z" />
  <path
     style="stroke-width:1.52931"
     id="path518"
     fill="#1189a5"
     d="m 348.88256,148.90849 h -25.0656 c -0.58114,0 -1.03994,-0.4741 -1.03994,-1.03995 0,-0.58114 0.4741,-1.03993 1.03994,-1.03993 h 25.0656 c 0.58113,0 1.03993,0.47409 1.03993,1.03993 0,0.56585 -0.4588,1.03995 -1.03993,1.03995 z" />
  <path
     style="stroke-width:1.52931"
     id="path520"
     fill="#0769dc"
     d="m 504.78167,105.50632 -38.44716,9.023 0.1223,40.35882 c -0.96347,-0.88701 -2.32459,-0.47409 -3.74687,-0.47409 -1.37637,0 -2.50806,-1.42227 -3.47156,-0.58115 l -0.0918,-39.30358 -38.44715,-9.023 0.0459,47.31723 36.85666,6.69843 c 1.23876,1.98812 2.75277,2.66101 5.09265,2.66101 2.33986,0 3.93035,-0.76466 5.09264,-2.64572 l 36.93313,-6.59138 z" />
  <path
     style="stroke-width:1.52931"
     id="path522"
     fill="#cae0fa"
     d="m 498.98554,101.31598 c 0,0 -27.7725,4.955 -31.35111,6.10199 -3.5786,1.1317 -5.04677,3.56332 -4.955,8.16658 0.10704,4.61856 0,39.16594 0,39.16594 l 36.91783,-7.1878 z" />
  <path
     style="stroke-width:1.52931"
     id="path524"
     fill="#a3c9f6"
     d="m 426.78623,101.31598 c 0,0 27.49721,4.955 31.07583,6.10199 3.57862,1.1317 5.04676,3.56332 4.955,8.16658 -0.10704,4.61856 -0.13763,39.16594 -0.13763,39.16594 l -36.7802,-7.09605 z" />
  <path
     style="stroke-width:1.52931"
     id="path526"
     fill="#b3afab"
     d="m 455.91981,115.90571 c -0.0459,0 -0.0918,0 -0.13763,-0.0153 l -22.31282,-4.32798 c -0.36703,-0.0765 -0.61172,-0.42821 -0.55054,-0.81054 0.0764,-0.38233 0.44349,-0.61173 0.81053,-0.55056 l 22.31281,4.32798 c 0.36703,0.0765 0.61173,0.42821 0.55055,0.81054 -0.0611,0.33646 -0.35173,0.56585 -0.6729,0.56585 z" />
  <path
     style="stroke-width:1.52931"
     id="path528"
     fill="#b3afab"
     d="m 455.91981,122.42062 c -0.0459,0 -0.0918,0 -0.13763,-0.0153 l -22.32811,-4.32798 c -0.36703,-0.0765 -0.61172,-0.42821 -0.55055,-0.81054 0.0764,-0.38233 0.4435,-0.61173 0.81053,-0.55055 l 22.32811,4.32798 c 0.36703,0.0765 0.61173,0.42821 0.55055,0.81054 -0.0611,0.33645 -0.35173,0.56585 -0.6729,0.56585 z" />
  <path
     style="stroke-width:1.52931"
     id="path530"
     fill="#b3afab"
     d="m 455.91981,128.9204 c -0.0459,0 -0.0918,0 -0.13763,-0.0153 l -22.32811,-4.32799 c -0.36703,-0.0765 -0.61172,-0.4282 -0.55055,-0.81054 0.0764,-0.38233 0.4435,-0.62702 0.81053,-0.55055 l 22.32811,4.32798 c 0.36703,0.0765 0.61173,0.42821 0.55055,0.81054 -0.0611,0.33645 -0.35173,0.56585 -0.6729,0.56585 z" />
  <path
     style="stroke-width:1.52931"
     id="path532"
     fill="#b3afab"
     d="m 455.91981,135.42002 c -0.0459,0 -0.0918,0 -0.13763,-0.0153 l -22.31282,-4.32799 c -0.36703,-0.0765 -0.61172,-0.4282 -0.55054,-0.81054 0.0764,-0.38233 0.44349,-0.62702 0.81053,-0.55055 l 22.31281,4.32798 c 0.36703,0.0765 0.61173,0.42821 0.55055,0.81054 -0.0611,0.33645 -0.35173,0.56585 -0.6729,0.56585 z" />
  <path
     style="stroke-width:1.52931"
     id="path534"
     fill="#b3afab"
     d="m 469.46961,115.90571 c 0.0459,0 0.0918,0 0.13764,-0.0153 l 22.31281,-4.32798 c 0.36703,-0.0765 0.61173,-0.42821 0.55056,-0.81054 -0.0764,-0.38233 -0.44352,-0.61173 -0.81054,-0.55056 l -22.31281,4.32798 c -0.36703,0.0765 -0.61173,0.42822 -0.55055,0.81055 0.0611,0.33645 0.35173,0.56584 0.67289,0.56585 z" />
  <path
     style="stroke-width:1.52931"
     id="path536"
     fill="#b3afab"
     d="m 469.46961,122.42062 c 0.0459,0 0.0918,0 0.13764,-0.0153 l 22.32811,-4.32798 c 0.36703,-0.0765 0.61173,-0.42821 0.55056,-0.81054 -0.0764,-0.38233 -0.44352,-0.61173 -0.81055,-0.55055 l -22.3281,4.32798 c -0.36703,0.0765 -0.61173,0.42821 -0.55055,0.81054 0.0611,0.33645 0.35173,0.56585 0.67289,0.56585 z" />
  <path
     style="stroke-width:1.52931"
     id="path538"
     fill="#b3afab"
     d="m 469.46961,128.9204 c 0.0459,0 0.0918,0 0.13764,-0.0153 l 22.32811,-4.32799 c 0.36703,-0.0765 0.61173,-0.4282 0.55056,-0.81054 -0.0764,-0.38233 -0.44352,-0.62702 -0.81055,-0.55055 l -22.3281,4.32798 c -0.36703,0.0765 -0.61173,0.42821 -0.55055,0.81054 0.0611,0.33645 0.35173,0.56585 0.67289,0.56585 z" />
  <path
     style="stroke-width:1.52931"
     id="path540"
     fill="#b3afab"
     d="m 469.46961,135.42002 c 0.0459,0 0.0918,0 0.13764,-0.0153 l 22.31281,-4.32799 c 0.36703,-0.0765 0.61173,-0.4282 0.55056,-0.81054 -0.0764,-0.38233 -0.44352,-0.62702 -0.81054,-0.55055 l -22.31281,4.32798 c -0.36703,0.0765 -0.61173,0.42821 -0.55055,0.81054 0.0611,0.33645 0.35173,0.56585 0.67289,0.56585 z" />
  <path
     style="stroke-width:1.52931"
     id="path542"
     fill="#4995ee"
     d="m 460.11016,155.6375 c 0.82583,-0.50467 1.77401,-0.79524 2.81395,-0.79524 0.94818,0 1.85048,0.25997 2.63044,0.68819 l 34.96029,-5.61261 0.32118,-43.70803 -1.95755,-4.90913 -0.19879,45.37499 c 0,0 -28.6901,4.77148 -31.25936,5.35263 -2.56927,0.59644 -4.67972,2.66103 -4.67972,2.66103 0,0 -1.00936,-1.72814 -4.23622,-2.55397 -3.22687,-0.82584 -31.70286,-5.67379 -31.70286,-5.67379 l 0.0764,-45.06913 -2.0187,5.13853 0.12229,43.01983 z" />
</svg>
