<?xml version="1.0" encoding="UTF-8" standalone="no"?>
<svg
   xmlns:dc="http://purl.org/dc/elements/1.1/"
   xmlns:cc="http://creativecommons.org/ns#"
   xmlns:rdf="http://www.w3.org/1999/02/22-rdf-syntax-ns#"
   xmlns:svg="http://www.w3.org/2000/svg"
   xmlns="http://www.w3.org/2000/svg"
   xmlns:sodipodi="http://sodipodi.sourceforge.net/DTD/sodipodi-0.dtd"
   xmlns:inkscape="http://www.inkscape.org/namespaces/inkscape"
   inkscape:export-ydpi="96"
   inkscape:export-xdpi="96"
   inkscape:export-filename="C:\Users\bethma\OneDrive\dotnetConf\focus\Windows\Social Media Sharing\Social Media Sharing\Windows 1600x900.png"
   inkscape:version="1.0 (4035a4fb49, 2020-05-01)"
   sodipodi:docname="Windows 1600x900.svg"
   id="svg3208"
   version="1.1"
   fill="none"
   viewBox="0 0 1600 900"
   height="900"
   width="1600">
  <metadata
     id="metadata3212">
    <rdf:RDF>
      <cc:Work
         rdf:about="">
        <dc:format>image/svg+xml</dc:format>
        <dc:type
           rdf:resource="http://purl.org/dc/dcmitype/StillImage" />
        <dc:title></dc:title>
      </cc:Work>
    </rdf:RDF>
  </metadata>
  <sodipodi:namedview
     inkscape:current-layer="g3089"
     inkscape:window-maximized="1"
     inkscape:window-y="-12"
     inkscape:window-x="-12"
     inkscape:cy="450"
     inkscape:cx="559.60347"
     inkscape:zoom="1.00875"
     showgrid="false"
     id="namedview3210"
     inkscape:window-height="2050"
     inkscape:window-width="3840"
     inkscape:pageshadow="2"
     inkscape:pageopacity="0"
     guidetolerance="10"
     gridtolerance="10"
     objecttolerance="10"
     borderopacity="1"
     bordercolor="#666666"
     pagecolor="#ffffff" />
  <g
     id="g3089"
     clip-path="url(#clip0)">
    <rect
       y="748.45105"
       x="-3.9653037"
       id="rect2819"
       fill="#ffffff"
       height="900"
       width="1600" />
    <rect
       style="fill:url(#paint0_linear)"
       y="-4.0085047e-06"
       x="0"
       id="rect2821"
       fill="url(#paint0_linear)"
       height="900"
       width="1600" />
    <path
       id="path2823"
       fill="#ffffff"
       d="m 96.3906,563.234 c 0,-3.802 0.9896,-6.718 2.9688,-8.75 1.9796,-2.031 4.8436,-3.046 8.5936,-3.046 3.802,0 6.693,1.067 8.672,3.203 1.979,2.083 2.969,4.948 2.969,8.593 0,3.698 -1.016,6.641 -3.047,8.828 -1.979,2.136 -4.844,3.204 -8.594,3.204 -3.75,0 -6.614,-1.068 -8.5936,-3.204 -1.9792,-2.135 -2.9688,-5.078 -2.9688,-8.828 z M 240.297,573 h -22.891 l -56.172,-91.016 h -0.625 l 0.391,5.078 c 0.729,9.688 1.094,18.542 1.094,26.563 V 573 H 145.141 V 458.781 h 22.656 l 56.015,90.547 h 0.469 c -0.104,-1.198 -0.312,-5.547 -0.625,-13.047 -0.312,-7.552 -0.468,-13.437 -0.468,-17.656 v -59.844 h 17.109 z m 94.765,0 H 270.453 V 458.781 h 64.609 v 15.781 h -45.937 v 31.094 h 43.047 v 15.625 h -43.047 v 35.86 h 45.937 z m 64.219,0 h -18.672 v -98.203 h -33.593 v -16.016 h 85.859 v 16.016 h -33.594 z m 141.328,-99.844 c -10.729,0 -19.166,3.802 -25.312,11.406 -6.146,7.605 -9.219,18.099 -9.219,31.485 0,14.01 2.943,24.609 8.828,31.797 5.938,7.187 14.505,10.781 25.703,10.781 4.844,0 9.532,-0.469 14.063,-1.406 4.531,-0.99 9.245,-2.24 14.14,-3.75 v 16.015 c -8.958,3.386 -19.114,5.078 -30.468,5.078 -16.719,0 -29.558,-5.052 -38.516,-15.156 -8.958,-10.156 -13.437,-24.661 -13.437,-43.515 0,-11.875 2.161,-22.266 6.484,-31.172 4.375,-8.907 10.677,-15.729 18.906,-20.469 8.229,-4.74 17.891,-7.109 28.985,-7.109 11.666,0 22.448,2.448 32.343,7.343 l -6.718,15.547 c -3.855,-1.823 -7.943,-3.411 -12.266,-4.765 -4.271,-1.407 -8.776,-2.11 -13.516,-2.11 z m 127.5,56.485 c 0,14.114 -3.619,25.13 -10.859,33.047 -7.24,7.916 -17.318,11.874 -30.234,11.874 -8.073,0 -15.209,-1.822 -21.407,-5.468 -6.198,-3.646 -10.963,-8.88 -14.297,-15.703 -3.333,-6.823 -5,-14.74 -5,-23.75 0,-14.011 3.594,-24.948 10.782,-32.813 7.187,-7.864 17.317,-11.797 30.39,-11.797 12.5,0 22.396,4.037 29.688,12.11 7.292,8.02 10.937,18.854 10.937,32.5 z m -62.89,0 c 0,19.948 7.37,29.921 22.109,29.921 14.583,0 21.875,-9.973 21.875,-29.921 0,-19.74 -7.344,-29.61 -22.031,-29.61 -7.708,0 -13.307,2.552 -16.797,7.657 -3.437,5.104 -5.156,12.421 -5.156,21.953 z M 765.297,573 h -18.438 v -53.125 c 0,-6.667 -1.354,-11.641 -4.062,-14.922 -2.656,-3.281 -6.901,-4.922 -12.735,-4.922 -7.76,0 -13.437,2.292 -17.031,6.875 -3.593,4.584 -5.39,12.266 -5.39,23.047 V 573 h -18.36 v -86.406 h 14.375 l 2.578,11.328 h 0.938 c 2.604,-4.115 6.302,-7.292 11.094,-9.531 4.791,-2.24 10.104,-3.36 15.937,-3.36 20.729,0 31.094,10.547 31.094,31.641 z m 68.906,-72.5 H 813.109 V 573 h -18.437 v -72.5 h -14.219 v -8.594 l 14.219,-5.625 v -5.625 c 0,-10.208 2.396,-17.76 7.187,-22.656 4.792,-4.948 12.11,-7.422 21.953,-7.422 6.459,0 12.813,1.068 19.063,3.203 l -4.844,13.907 c -4.531,-1.459 -8.854,-2.188 -12.969,-2.188 -4.166,0 -7.213,1.302 -9.14,3.906 -1.875,2.552 -2.813,6.406 -2.813,11.563 v 5.625 h 21.094 z" />
    <path
       id="path3087"
       fill="#ffffff"
       d="m 156.999,792.031 h -7.493 V 818 h -4.458 v -25.969 h -5.263 v -2.014 l 5.263,-1.612 v -1.638 c 0,-7.233 3.16,-10.85 9.48,-10.85 1.558,0 3.384,0.314 5.479,0.94 l -1.155,3.572 c -1.719,-0.555 -3.187,-0.832 -4.404,-0.832 -1.683,0 -2.927,0.564 -3.733,1.692 -0.806,1.11 -1.209,2.9 -1.209,5.371 v 1.906 h 7.493 z m 30.776,11.225 c 0,4.799 -1.208,8.549 -3.625,11.253 -2.417,2.685 -5.756,4.028 -10.017,4.028 -2.632,0 -4.968,-0.618 -7.009,-1.853 -2.041,-1.235 -3.617,-3.008 -4.727,-5.317 -1.11,-2.31 -1.665,-5.013 -1.665,-8.111 0,-4.798 1.199,-8.531 3.599,-11.198 2.399,-2.686 5.729,-4.029 9.99,-4.029 4.118,0 7.385,1.37 9.802,4.109 2.435,2.739 3.652,6.445 3.652,11.118 z m -22.424,0 c 0,3.76 0.752,6.625 2.256,8.594 1.504,1.969 3.715,2.954 6.633,2.954 2.919,0 5.13,-0.976 6.634,-2.927 1.521,-1.969 2.282,-4.843 2.282,-8.621 0,-3.742 -0.761,-6.579 -2.282,-8.513 -1.504,-1.951 -3.733,-2.927 -6.687,-2.927 -2.919,0 -5.121,0.958 -6.607,2.873 -1.486,1.916 -2.229,4.772 -2.229,8.567 z m 42.029,15.281 c -4.261,0 -7.564,-1.307 -9.91,-3.921 -2.327,-2.632 -3.491,-6.347 -3.491,-11.145 0,-4.923 1.182,-8.728 3.545,-11.413 2.381,-2.686 5.765,-4.029 10.151,-4.029 1.415,0 2.829,0.152 4.243,0.457 1.415,0.304 2.525,0.662 3.331,1.074 l -1.37,3.787 c -0.985,-0.394 -2.059,-0.716 -3.223,-0.967 -1.163,-0.269 -2.193,-0.403 -3.088,-0.403 -5.98,0 -8.97,3.814 -8.97,11.44 0,3.617 0.725,6.392 2.175,8.326 1.469,1.933 3.635,2.9 6.499,2.9 2.453,0 4.969,-0.528 7.547,-1.584 v 3.947 c -1.97,1.021 -4.449,1.531 -7.439,1.531 z m 18.638,-29.971 v 19.095 c 0,2.399 0.546,4.189 1.638,5.371 1.092,1.181 2.802,1.772 5.129,1.772 3.08,0 5.326,-0.841 6.741,-2.524 1.432,-1.683 2.148,-4.431 2.148,-8.245 v -15.469 h 4.458 V 818 h -3.679 l -0.644,-3.948 h -0.242 c -0.913,1.45 -2.184,2.56 -3.814,3.33 -1.611,0.77 -3.455,1.155 -5.532,1.155 -3.581,0 -6.266,-0.85 -8.056,-2.551 -1.773,-1.701 -2.659,-4.422 -2.659,-8.164 v -19.256 z m 48.581,21.404 c 0,2.739 -1.02,4.852 -3.061,6.338 -2.041,1.486 -4.906,2.229 -8.594,2.229 -3.903,0 -6.947,-0.618 -9.131,-1.853 v -4.136 c 1.414,0.716 2.927,1.28 4.539,1.692 1.629,0.412 3.195,0.618 4.699,0.618 2.328,0 4.118,-0.367 5.371,-1.101 1.254,-0.752 1.88,-1.889 1.88,-3.411 0,-1.146 -0.501,-2.121 -1.504,-2.927 -0.984,-0.824 -2.918,-1.79 -5.8,-2.9 -2.74,-1.021 -4.691,-1.907 -5.855,-2.659 -1.146,-0.77 -2.005,-1.638 -2.578,-2.605 -0.555,-0.967 -0.833,-2.122 -0.833,-3.464 0,-2.4 0.976,-4.288 2.928,-5.667 1.951,-1.396 4.628,-2.095 8.029,-2.095 3.169,0 6.267,0.645 9.292,1.934 l -1.584,3.625 c -2.954,-1.217 -5.631,-1.826 -8.03,-1.826 -2.112,0 -3.706,0.331 -4.78,0.994 -1.074,0.662 -1.611,1.575 -1.611,2.739 0,0.788 0.197,1.459 0.59,2.014 0.412,0.555 1.066,1.083 1.961,1.585 0.895,0.501 2.614,1.226 5.156,2.175 3.491,1.271 5.846,2.551 7.063,3.84 1.235,1.289 1.853,2.91 1.853,4.861 z m 6.633,5.183 c 0,-1.199 0.269,-2.103 0.806,-2.712 0.555,-0.627 1.343,-0.94 2.363,-0.94 1.039,0 1.844,0.313 2.417,0.94 0.591,0.609 0.887,1.513 0.887,2.712 0,1.164 -0.296,2.059 -0.887,2.686 -0.59,0.626 -1.396,0.94 -2.417,0.94 -0.913,0 -1.674,-0.278 -2.282,-0.833 -0.591,-0.573 -0.887,-1.504 -0.887,-2.793 z m 35.342,-1.101 h -0.241 c -2.059,2.99 -5.139,4.485 -9.239,4.485 -3.849,0 -6.848,-1.316 -8.996,-3.948 -2.131,-2.631 -3.196,-6.373 -3.196,-11.225 0,-4.852 1.074,-8.621 3.223,-11.306 2.148,-2.686 5.138,-4.029 8.969,-4.029 3.993,0 7.054,1.45 9.185,4.351 h 0.349 l -0.188,-2.122 -0.107,-2.068 v -11.977 h 4.458 V 818 h -3.626 z m -8.916,0.752 c 3.044,0 5.246,-0.823 6.607,-2.471 1.378,-1.665 2.068,-4.341 2.068,-8.029 v -0.94 c 0,-4.172 -0.699,-7.144 -2.095,-8.916 -1.379,-1.791 -3.59,-2.686 -6.634,-2.686 -2.613,0 -4.619,1.021 -6.015,3.062 -1.379,2.023 -2.068,4.887 -2.068,8.593 0,3.76 0.689,6.598 2.068,8.514 1.378,1.915 3.402,2.873 6.069,2.873 z m 48.018,-11.548 c 0,4.799 -1.209,8.549 -3.626,11.253 -2.417,2.685 -5.756,4.028 -10.017,4.028 -2.632,0 -4.968,-0.618 -7.009,-1.853 -2.041,-1.235 -3.617,-3.008 -4.727,-5.317 -1.11,-2.31 -1.665,-5.013 -1.665,-8.111 0,-4.798 1.2,-8.531 3.599,-11.198 2.399,-2.686 5.729,-4.029 9.99,-4.029 4.118,0 7.385,1.37 9.802,4.109 2.435,2.739 3.653,6.445 3.653,11.118 z m -22.425,0 c 0,3.76 0.752,6.625 2.256,8.594 1.504,1.969 3.715,2.954 6.634,2.954 2.918,0 5.129,-0.976 6.633,-2.927 1.522,-1.969 2.283,-4.843 2.283,-8.621 0,-3.742 -0.761,-6.579 -2.283,-8.513 -1.504,-1.951 -3.733,-2.927 -6.687,-2.927 -2.918,0 -5.121,0.958 -6.607,2.873 -1.486,1.916 -2.229,4.772 -2.229,8.567 z m 39.773,11.602 c 0.788,0 1.549,-0.054 2.283,-0.161 0.734,-0.126 1.316,-0.251 1.746,-0.376 v 3.41 c -0.484,0.233 -1.2,0.421 -2.149,0.564 -0.931,0.162 -1.772,0.242 -2.524,0.242 -5.693,0 -8.54,-2.999 -8.54,-8.996 v -17.51 h -4.216 v -2.149 l 4.216,-1.853 1.88,-6.284 h 2.578 v 6.821 h 8.54 v 3.465 h -8.54 v 17.322 c 0,1.772 0.421,3.133 1.262,4.082 0.842,0.948 1.996,1.423 3.464,1.423 z M 403.103,818 v -19.041 c 0,-2.399 -0.547,-4.189 -1.639,-5.371 -1.092,-1.181 -2.802,-1.772 -5.129,-1.772 -3.079,0 -5.335,0.832 -6.768,2.497 -1.432,1.666 -2.148,4.414 -2.148,8.245 V 818 h -4.458 v -29.434 h 3.625 l 0.726,4.029 h 0.214 c 0.913,-1.45 2.194,-2.569 3.841,-3.357 1.647,-0.806 3.482,-1.209 5.505,-1.209 3.545,0 6.213,0.86 8.003,2.578 1.79,1.701 2.686,4.432 2.686,8.191 V 818 Z m 26.076,0.537 c -4.35,0 -7.788,-1.325 -10.312,-3.975 -2.507,-2.649 -3.76,-6.328 -3.76,-11.037 0,-4.745 1.164,-8.513 3.491,-11.306 2.346,-2.793 5.488,-4.19 9.426,-4.19 3.689,0 6.607,1.218 8.755,3.653 2.149,2.417 3.223,5.612 3.223,9.587 v 2.82 h -20.276 c 0.09,3.455 0.958,6.078 2.605,7.869 1.665,1.79 4.002,2.685 7.009,2.685 3.169,0 6.302,-0.662 9.4,-1.987 v 3.974 c -1.576,0.681 -3.071,1.164 -4.485,1.451 -1.397,0.304 -3.088,0.456 -5.076,0.456 z m -1.208,-26.775 c -2.364,0 -4.252,0.77 -5.667,2.31 -1.396,1.539 -2.22,3.67 -2.471,6.391 h 15.389 c 0,-2.81 -0.627,-4.959 -1.88,-6.445 -1.253,-1.504 -3.044,-2.256 -5.371,-2.256 z m 29.165,23.096 c 0.788,0 1.548,-0.054 2.282,-0.161 0.735,-0.126 1.316,-0.251 1.746,-0.376 v 3.41 c -0.483,0.233 -1.199,0.421 -2.148,0.564 -0.931,0.162 -1.773,0.242 -2.525,0.242 -5.693,0 -8.54,-2.999 -8.54,-8.996 v -17.51 h -4.216 v -2.149 l 4.216,-1.853 1.88,-6.284 h 2.578 v 6.821 h 8.54 v 3.465 h -8.54 v 17.322 c 0,1.772 0.421,3.133 1.262,4.082 0.842,0.948 1.997,1.423 3.465,1.423 z m 21.699,3.679 c -4.261,0 -7.564,-1.307 -9.91,-3.921 -2.327,-2.632 -3.491,-6.347 -3.491,-11.145 0,-4.923 1.182,-8.728 3.545,-11.413 2.381,-2.686 5.765,-4.029 10.151,-4.029 1.415,0 2.829,0.152 4.244,0.457 1.414,0.304 2.524,0.662 3.33,1.074 l -1.37,3.787 c -0.985,-0.394 -2.059,-0.716 -3.223,-0.967 -1.163,-0.269 -2.193,-0.403 -3.088,-0.403 -5.98,0 -8.97,3.814 -8.97,11.44 0,3.617 0.725,6.392 2.176,8.326 1.468,1.933 3.634,2.9 6.499,2.9 2.452,0 4.968,-0.528 7.546,-1.584 v 3.947 c -1.969,1.021 -4.449,1.531 -7.439,1.531 z m 39.853,-15.281 c 0,4.799 -1.208,8.549 -3.625,11.253 -2.417,2.685 -5.756,4.028 -10.017,4.028 -2.632,0 -4.968,-0.618 -7.009,-1.853 -2.041,-1.235 -3.617,-3.008 -4.727,-5.317 -1.11,-2.31 -1.665,-5.013 -1.665,-8.111 0,-4.798 1.2,-8.531 3.599,-11.198 2.399,-2.686 5.729,-4.029 9.99,-4.029 4.118,0 7.385,1.37 9.802,4.109 2.435,2.739 3.652,6.445 3.652,11.118 z m -22.424,0 c 0,3.76 0.752,6.625 2.256,8.594 1.504,1.969 3.715,2.954 6.633,2.954 2.919,0 5.13,-0.976 6.634,-2.927 1.521,-1.969 2.282,-4.843 2.282,-8.621 0,-3.742 -0.761,-6.579 -2.282,-8.513 -1.504,-1.951 -3.733,-2.927 -6.687,-2.927 -2.919,0 -5.121,0.958 -6.607,2.873 -1.486,1.916 -2.229,4.772 -2.229,8.567 z M 546.672,818 v -19.041 c 0,-2.399 -0.546,-4.189 -1.638,-5.371 -1.092,-1.181 -2.802,-1.772 -5.13,-1.772 -3.079,0 -5.335,0.832 -6.767,2.497 -1.433,1.666 -2.149,4.414 -2.149,8.245 V 818 h -4.458 v -29.434 h 3.626 l 0.725,4.029 h 0.215 c 0.913,-1.45 2.193,-2.569 3.84,-3.357 1.647,-0.806 3.482,-1.209 5.505,-1.209 3.545,0 6.213,0.86 8.003,2.578 1.791,1.701 2.686,4.432 2.686,8.191 V 818 Z m 26.909,-25.969 h -7.493 V 818 h -4.458 v -25.969 h -5.263 v -2.014 l 5.263,-1.612 v -1.638 c 0,-7.233 3.16,-10.85 9.48,-10.85 1.558,0 3.384,0.314 5.479,0.94 l -1.155,3.572 c -1.719,-0.555 -3.187,-0.832 -4.404,-0.832 -1.683,0 -2.927,0.564 -3.733,1.692 -0.806,1.11 -1.209,2.9 -1.209,5.371 v 1.906 h 7.493 z m 4.727,23.122 c 0,-1.199 0.268,-2.103 0.805,-2.712 0.555,-0.627 1.343,-0.94 2.364,-0.94 1.038,0 1.844,0.313 2.417,0.94 0.59,0.609 0.886,1.513 0.886,2.712 0,1.164 -0.296,2.059 -0.886,2.686 -0.591,0.626 -1.397,0.94 -2.417,0.94 -0.914,0 -1.674,-0.278 -2.283,-0.833 -0.591,-0.573 -0.886,-1.504 -0.886,-2.793 z M 613.757,818 v -19.041 c 0,-2.399 -0.546,-4.189 -1.638,-5.371 -1.092,-1.181 -2.802,-1.772 -5.13,-1.772 -3.079,0 -5.335,0.832 -6.767,2.497 -1.433,1.666 -2.149,4.414 -2.149,8.245 V 818 h -4.458 v -29.434 h 3.626 l 0.725,4.029 h 0.215 c 0.913,-1.45 2.193,-2.569 3.84,-3.357 1.647,-0.806 3.482,-1.209 5.505,-1.209 3.545,0 6.213,0.86 8.003,2.578 1.791,1.701 2.686,4.432 2.686,8.191 V 818 Z m 26.076,0.537 c -4.35,0 -7.788,-1.325 -10.312,-3.975 -2.507,-2.649 -3.76,-6.328 -3.76,-11.037 0,-4.745 1.164,-8.513 3.491,-11.306 2.346,-2.793 5.488,-4.19 9.427,-4.19 3.688,0 6.606,1.218 8.755,3.653 2.148,2.417 3.222,5.612 3.222,9.587 v 2.82 H 630.38 c 0.09,3.455 0.958,6.078 2.605,7.869 1.665,1.79 4.002,2.685 7.01,2.685 3.169,0 6.302,-0.662 9.399,-1.987 v 3.974 c -1.575,0.681 -3.07,1.164 -4.485,1.451 -1.396,0.304 -3.088,0.456 -5.076,0.456 z m -1.208,-26.775 c -2.363,0 -4.252,0.77 -5.667,2.31 -1.396,1.539 -2.22,3.67 -2.47,6.391 h 15.388 c 0,-2.81 -0.627,-4.959 -1.88,-6.445 -1.253,-1.504 -3.044,-2.256 -5.371,-2.256 z m 29.165,23.096 c 0.788,0 1.549,-0.054 2.283,-0.161 0.734,-0.126 1.316,-0.251 1.745,-0.376 v 3.41 c -0.483,0.233 -1.199,0.421 -2.148,0.564 -0.931,0.162 -1.773,0.242 -2.524,0.242 -5.694,0 -8.541,-2.999 -8.541,-8.996 v -17.51 h -4.216 v -2.149 l 4.216,-1.853 1.88,-6.284 h 2.578 v 6.821 h 8.541 v 3.465 h -8.541 v 17.322 c 0,1.772 0.421,3.133 1.263,4.082 0.841,0.948 1.996,1.423 3.464,1.423 z" />
    <text
       id="text3216"
       y="666.24042"
       x="133.82901"
       style="font-style:normal;font-weight:normal;font-size:40px;line-height:1.25;font-family:sans-serif;fill:#000000;fill-opacity:1;stroke:none"
       xml:space="preserve"><tspan
         style="font-style:normal;font-variant:normal;font-weight:normal;font-stretch:normal;font-size:85.3333px;font-family:'Open Sans';-inkscape-font-specification:'Open Sans';fill:#ffffff"
         y="666.24042"
         x="133.82901"
         id="tspan3214"
         sodipodi:role="line">Focus on Windows</tspan></text>
    <text
       id="text3220"
       y="746.64191"
       x="141.72491"
       style="font-style:normal;font-variant:normal;font-weight:normal;font-stretch:normal;font-size:53.3333px;line-height:1.25;font-family:'Open Sans';-inkscape-font-specification:'Open Sans';fill:#000000;fill-opacity:1;stroke:none"
       xml:space="preserve"><tspan
         style="font-size:53.3333px;fill:#ffffff"
         y="746.64191"
         x="141.72491"
         id="tspan3218"
         sodipodi:role="line">February 25, 2021</tspan></text>
    <g
       transform="matrix(1.7858227,0,0,1.8444682,610.0124,-7.1641546)"
       id="g3901"
       style="fill:none">
      <path
         style="fill:url(#paint0_radial)"
         d="m 467.43,218.16 c -110.5,45.41 -273.32,55.48 -325.37,4.52 -60.12,-58.85 34.4,-130.29 121.18,-97.13 57.67,22.03 133.27,18.38 181.12,12.24 81.12,-10.42 98.17,49.51 23.07,80.37 z"
         fill="url(#paint0_radial)"
         id="path3492" />
      <path
         d="m 263.738,70.1929 -1.168,1.624 0.812,0.5836 1.168,-1.624 z"
         fill="#908d89"
         id="path3494" />
      <path
         d="m 309.19,105.27 -1.7,-1.22 1.16,-1.62 1.7,1.22 z m -5.09,-3.65 -1.7,-1.22 1.17,-1.6199 1.7,1.2199 z m -5.09,-3.6499 -1.7,-1.22 1.16,-1.62 1.7,1.22 z m -5.09,-3.65 -1.7,-1.22 1.17,-1.62 1.7,1.22 z m -5.08,-3.66 -1.7,-1.22 1.16,-1.62 1.7,1.22 z m -5.09,-3.65 -1.7,-1.22 1.17,-1.62 1.7,1.22 z m -5.09,-3.65 -1.7,-1.22 1.16,-1.62 1.7,1.22 z m -5.09,-3.65 -1.7,-1.22 1.17,-1.62 1.7,1.22 z m -5.09,-3.66 -1.7,-1.22 1.16,-1.62 1.7,1.22 z"
         fill="#908d89"
         id="path3496" />
      <path
         d="m 313.754,106.082 -1.166,1.625 0.813,0.583 1.166,-1.625 z"
         fill="#908d89"
         id="path3498" />
      <path
         d="m 336.06,97.1 -2,-0.1 0.1,-2 2,0.1 z m 0.29,-6 -2,-0.1 0.1,-2 2,0.1 z m 0.29,-5.99 -2,-0.1 0.1,-2 2,0.1 z"
         fill="#908d89"
         id="path3500" />
      <path
         d="m 362.6,97.76 -1.22,-1.58 1.58,-1.22 1.22,1.58 z m 4.75,-3.66 -1.22,-1.58 1.58,-1.22 1.22,1.58 z m 4.75,-3.66 -1.22,-1.58 1.59,-1.22 1.22,1.58 z m 4.76,-3.66 -1.22,-1.58 1.58,-1.22 1.22,1.58 z m 4.75,-3.66 -1.22,-1.58 1.58,-1.22 1.22,1.58 z m 4.75,-3.66 -1.22,-1.58 1.59,-1.22 1.22,1.58 z m 4.76,-3.66 -1.22,-1.58 1.58,-1.22 1.22,1.58 z"
         fill="#908d89"
         id="path3502" />
      <path
         d="m 364.56,117.56 -0.39,-1.96 1.96,-0.39 0.39,1.96 z m 5.88,-1.16 -0.39,-1.96 1.96,-0.39 0.39,1.96 z m 5.89,-1.17 -0.39,-1.96 1.96,-0.39 0.39,1.96 z m 5.88,-1.16 -0.39,-1.96 1.96,-0.39 0.39,1.96 z m 5.89,-1.17 -0.39,-1.96 1.96,-0.39 0.39,1.96 z m 5.89,-1.16 -0.39,-1.96 1.96,-0.39 0.39,1.96 z m 5.88,-1.17 -0.39,-1.96 1.96,-0.39 0.39,1.96 z m 5.89,-1.16 -0.39,-1.96 1.96,-0.39 0.39,1.96 z m 5.89,-1.17 -0.39,-1.96 1.96,-0.39 0.39,1.96 z m 5.88,-1.17 -0.39,-1.96 1.96,-0.39 0.39,1.96 z m 5.89,-1.16 -0.39,-1.96 1.96,-0.39 0.39,1.96 z m 5.88,-1.17 -0.39,-1.96 1.96,-0.39 0.39,1.96 z m 5.89,-1.16 -0.39,-1.96 1.96,-0.39 0.39,1.96 z m 5.88,-1.17 -0.39,-1.96 1.96,-0.39 0.39,1.96 z m 5.89,-1.16 -0.39,-1.96 1.96,-0.39 0.39,1.96 z"
         fill="#908d89"
         id="path3504" />
      <path
         d="m 311.92,118.66 -1.81,-0.49 0.52,-1.93 1.81,0.49 z m -5.67,-1.53 -1.93,-0.52 0.52,-1.93 1.93,0.52 z m -5.79,-1.57 -1.93,-0.52 0.52,-1.93 1.93,0.52 z m -5.79,-1.57 -1.93,-0.52 0.52,-1.93 1.93,0.52 z m -5.79,-1.57 -1.93,-0.52 0.52,-1.93 1.93,0.52 z m -5.79,-1.57 -1.93,-0.52 0.52,-1.93 1.93,0.52 z m -5.8,-1.57 -1.93,-0.52 0.52,-1.93 1.93,0.52 z m -5.79,-1.57 -1.93,-0.52 0.52,-1.93 1.93,0.52 z m -5.79,-1.57 -1.93,-0.52 0.52,-1.93 1.93,0.52 z m -5.79,-1.57 -1.93,-0.52 0.52,-1.93 1.93,0.52 z m -5.79,-1.57 -1.93,-0.52 0.52,-1.93 1.93,0.52 z m -5.79,-1.57 -1.93,-0.52 0.52,-1.93 1.93,0.52 z m -5.79,-1.57 -1.93,-0.52 0.52,-1.93 1.93,0.52 z m -5.79,-1.57 -1.93,-0.52 0.52,-1.93 1.93,0.52 z m -5.8,-1.57 -1.93,-0.52 0.52,-1.93 1.93,0.52 z m -5.79,-1.57 -1.93,-0.52 0.52,-1.93 1.93,0.52 z m -5.79,-1.57 -1.93,-0.52 0.52,-1.93 1.93,0.52 z m -5.79,-1.57 -1.93,-0.52 0.52,-1.93 1.93,0.52 z m -5.79,-1.57 -1.93,-0.52 0.52,-1.93 1.93,0.52 z"
         fill="#908d89"
         id="path3506" />
      <path
         d="m 283.23,204.07 c -0.71,-2.92 -3.51,-7.09 -10.67,-6.85 l -2.86,0.2 -0.13,-0.1 -1.61,0.22 -64.5,4.42 c -5.56,0 -10.38,3.51 -11.7,8.53 l -12.37,52.59 h 4.2 l 12.14,-51.69 c 0.68,-2.57 2.4,-3.92 4.78,-4.27 9.35,0 19.35,0.5 25.69,0.84 -1.15,1.92 -2.01,4.42 -2.44,7.81 l -1.44,34.09 h 4.08 l 1.42,-33.72 c 0.42,-3.71 1.69,-6.18 3.29,-7.92 0.19,0.01 0.38,0.02 0.54,0.02 0.09,0 0.17,-0.01 0.26,-0.01 4.72,0.83 8.86,2.58 9.85,8.08 l 6.08,55.24 h 4.09 l -5.68,-55.27 c -0.56,-4.82 -3.55,-8.46 -8.38,-10.44 l 35.27,-4.9 c 2.82,-0.13 5.28,1.32 6.2,4.22 l 16.2,52.63 L 299,256 Z"
         fill="#c8c6c4"
         id="path3508" />
      <path
         style="fill:url(#paint1_radial)"
         d="m 219.75,199.04 c 0,0 -18,4.55 -27.08,4.55 -9.07,0 -13.58,-8.06 -15.92,-20.62 -2.34,-12.56 -6.86,-50.42 -4.39,-61.4 1.76,-7.82 7.02,-10.89 15.8,-11.16 5.26,-0.17 16.97,-0.56 27.8,1.12 10.83,1.67 18.21,17.17 24.87,27.35 19.9,30.42 32.89,50.11 32.89,50.11 z"
         fill="url(#paint1_radial)"
         id="path3510" />
      <path
         style="fill:url(#paint2_linear)"
         d="m 275.32,197.41 -56.83,7.45 c -4.34,0 -34.18,-4.58 -34.18,-8.9 v -3.89 c 0,-4.32 15.94,-7.06 20.29,-7.06 l 70.73,-7.14 c 4.34,0 7.86,3.5 7.86,7.82 v 3.89 c -0.01,4.33 -3.53,7.83 -7.87,7.83 z"
         fill="url(#paint2_linear)"
         id="path3512" />
      <path
         d="m 300.25,157.98 c -0.64,0.42 -15.9,10.33 -30.5,5.2 -8.44,-2.96 -14.74,-10.16 -18.73,-21.4 l 7.71,-3.09 c 3.09,8.69 7.68,14.16 13.65,16.27 10.89,3.85 23.43,-4.22 23.55,-4.3 z"
         fill="#8a6fe8"
         id="path3514" />
      <path
         d="m 249.59,204.63 c 1.35,-6.83 2.91,-20.91 -2.36,-33.93 l -8.05,2.84 c 4.78,11.81 3,24.21 1.84,29.56 -0.09,0.44 4.19,1.66 8.57,1.53 z"
         fill="url(#paint3_linear)"
         id="path3516"
         style="fill:url(#paint3_linear-0)" />
      <path
         d="m 241.04,203.03 6.74,1.22 -0.08,35.38 -13.52,-2.46 c -1.03,-0.19 -1.66,-1.12 -1.41,-2.09 z"
         fill="#522cd5"
         id="path3518" />
      <path
         d="m 263.78,233.31 c 1,1.09 0.75,2.36 0.41,3.68 l -1.04,4.05 c -0.19,0.72 -0.97,1.2 -1.75,1.06 l -14.09,-2.56 c -0.88,-0.16 -1.41,-0.95 -1.2,-1.78 l 0.89,-4.23 c 0.39,-1.52 -0.05,-2.19 -1.03,-3.88 -1.69,-2.89 -5.54,-17.62 -3.29,-26.33 l 6.94,1.26 c -0.54,5.33 4.57,18.31 14.16,28.73 z"
         fill="url(#paint4_linear)"
         id="path3520"
         style="fill:url(#paint4_linear-9)" />
      <path
         d="m 264.18,236.99 c 0.24,-0.92 0.42,-1.82 0.18,-2.64 l -17.58,-3.19 c 0.36,0.77 0.45,1.4 0.2,2.38 l -0.89,4.23 c -0.21,0.82 0.33,1.62 1.2,1.77 l 14.09,2.56 c 0.77,0.14 1.56,-0.34 1.75,-1.06 z"
         fill="url(#paint5_radial)"
         id="path3522"
         style="fill:url(#paint5_radial-6)" />
      <path
         style="fill:url(#paint6_linear)"
         d="m 223.29,200.98 c 6.97,-7.64 11.26,-12.06 11.06,-14.25 -0.05,-0.55 -0.73,-1.65 -3.71,-3.8 -2.52,-1.82 -5.45,-3.88 -5.45,-3.89 l 5.25,-6.73 c 0,0 2.96,2.09 5.51,3.93 3.4,2.45 6.61,5.3 6.98,9.5 0.52,5.77 -2.4,8.87 -12.68,20.14 z"
         fill="url(#paint6_linear)"
         id="path3524" />
      <path
         d="m 273.97,143.53 c 1.2,-11.55 -2.24,-20.11 -2.24,-20.11 l 2.75,-0.41 0.06,-0.06 c -7.32,-19.76 -28.66,-32.37 -51.22,-28.98 -25.42,3.82 -42.77,26.49 -38.75,50.64 4.02,24.15 27.89,40.63 53.31,36.81 20.06,-3.01 35.09,-17.77 38.56,-35.72 0.06,-0.75 -0.17,-2.05 -2.47,-2.17 z"
         fill="url(#paint7_radial)"
         id="path3526"
         style="fill:url(#paint7_radial-3)" />
      <path
         d="m 274.06,153.86 -79.48,11.94 c 2.26,2.61 4.82,4.95 7.62,7 l 66.87,-10.05 c 2.02,-2.77 3.69,-5.75 4.99,-8.89 z"
         fill="#d8cff7"
         id="path3528" />
      <path
         d="m 251.28,167.86 14.92,-2.24 -2.09,-12.53 -14.91,2.24 z"
         fill="#512bd4"
         id="path3530" />
      <path
         d="m 253.11,162.8 c -0.1,0.01 -0.19,0 -0.27,-0.06 -0.08,-0.05 -0.13,-0.13 -0.14,-0.21 -0.01,-0.09 0.01,-0.17 0.07,-0.25 0.06,-0.07 0.14,-0.12 0.24,-0.13 0.1,-0.01 0.19,0 0.27,0.06 0.08,0.05 0.13,0.13 0.14,0.22 0.01,0.09 -0.01,0.17 -0.07,0.25 -0.06,0.06 -0.14,0.1 -0.24,0.12 z"
         fill="#ffffff"
         id="path3532" />
      <path
         d="m 257.07,162.16 -0.65,0.1 -2.12,-2.3 c -0.05,-0.06 -0.1,-0.12 -0.14,-0.18 h -0.01 c 0.03,0.07 0.06,0.23 0.1,0.47 l 0.37,2.27 -0.57,0.08 -0.57,-3.47 0.69,-0.1 2.05,2.24 c 0.09,0.09 0.14,0.16 0.17,0.19 h 0.01 c -0.03,-0.09 -0.07,-0.24 -0.1,-0.46 l -0.37,-2.23 0.57,-0.08 z"
         fill="#ffffff"
         id="path3534" />
      <path
         d="m 259.85,161.75 -2,0.3 -0.57,-3.47 1.92,-0.28 0.08,0.49 -1.33,0.2 0.16,0.98 1.22,-0.18 0.08,0.49 -1.22,0.18 0.17,1.02 1.41,-0.21 z"
         fill="#ffffff"
         id="path3536" />
      <path
         d="m 262.2,158.35 -1.02,0.15 0.49,2.98 -0.59,0.09 -0.49,-2.98 -1.02,0.15 -0.08,-0.49 2.63,-0.39 z"
         fill="#ffffff"
         id="path3538" />
      <path
         d="m 274.07,143.51 c 1.18,-11.41 -2.15,-19.89 -2.24,-20.1 l -47.75,7.17 c 0,0 -3.06,0.16 -2.62,2.77 0.43,2.61 1.78,9.97 3.13,18.13 0.28,1.68 1.86,2.27 3,2.1 0,0 45.58,-8.08 46.48,-10.07 z"
         fill="url(#paint8_radial)"
         id="path3540"
         style="fill:url(#paint8_radial-5)" />
      <path
         d="m 245.58,147.81 c 0,0 6.42,-6.63 7.69,-7.86 1.26,-1.24 2.51,-1.48 4,-0.6 1.49,0.88 9.76,5.24 9.76,5.24 z"
         fill="#a08be8"
         id="path3542" />
      <path
         d="m 276.34,146.28 c 0,0 0.98,-2.59 -2.27,-2.77 0,-0.01 -46.96,7.02 -46.96,7.02 -1.09,0.16 -2.6,-0.24 -2.89,-1.23 0.12,0.72 0.24,1.45 0.37,2.19 0.25,1.52 1.58,2.15 2.67,2.12 0.11,0 0.22,-0.01 0.33,-0.03 l 3.21,-0.48 z"
         fill="#512bd4"
         id="path3544" />
      <path
         d="m 238.036,144.607 c 1.974,-0.383 3.077,-3.255 2.463,-6.416 -0.613,-3.161 -2.709,-5.413 -4.683,-5.031 -1.973,0.383 -3.076,3.256 -2.463,6.417 0.613,3.161 2.71,5.413 4.683,5.03 z"
         fill="#512bd4"
         id="path3546" />
      <path
         d="m 236.42,136.01 c 0.62,-0.81 1.56,-1.27 2.53,-1.33 0.73,0.92 1.3,2.17 1.57,3.61 0.16,0.9 0.19,1.76 0.09,2.56 -1.09,0.48 -2.4,0.4 -3.44,-0.32 -1.52,-1.05 -1.86,-3.08 -0.75,-4.52 z"
         fill="#8065e0"
         id="path3548" />
      <path
         d="m 301.35,142.9 -11.04,6.98 c -1.82,1.15 -2.45,3.55 -1.41,5.36 l 0.19,0.32 c 1.04,1.81 3.37,2.34 5.19,1.19 l 11.04,-6.98 c 1.82,-1.15 2.45,-3.55 1.41,-5.36 l -0.19,-0.32 c -1.05,-1.81 -3.37,-2.34 -5.19,-1.19 z"
         fill="#8a6fe8"
         id="path3550" />
      <path
         d="m 295.65,164.93 7.87,2.27 c 2.1,0.59 4.28,-0.73 4.86,-2.94 0.58,-2.22 -0.65,-4.49 -2.75,-5.08 l -8.07,-2.33 z"
         fill="#8a6fe8"
         id="path3552" />
      <path
         d="m 299.37,162.38 11.16,-1.89 c 2.15,-0.37 3.63,-2.51 3.29,-4.77 -0.33,-2.26 -2.35,-3.79 -4.51,-3.42 l -8.3,1.38 z"
         fill="#8a6fe8"
         id="path3554" />
      <path
         d="m 298.71,159.92 10.49,-4.5 c 2.03,-0.87 3.02,-3.29 2.21,-5.41 -0.8,-2.12 -3.1,-3.14 -5.13,-2.28 l -10.68,4.58 z"
         fill="#8a6fe8"
         id="path3556" />
      <path
         d="m 288.38,151.67 c 2.6,-3.97 7.75,-4.99 11.5,-2.29 3.75,2.7 4.68,8.11 2.07,12.08 -2.6,3.97 -7.75,4.99 -11.5,2.29 -3.74,-2.71 -4.67,-8.12 -2.07,-12.08 z"
         fill="url(#paint9_radial)"
         id="path3558"
         style="fill:url(#paint9_radial-0)" />
      <path
         d="m 218.48,92.15 8.59,-1.32 -3.88,-14.59 -6.17,0.94 z"
         fill="#8a6fe8"
         id="path3560" />
      <path
         d="m 222.63,82.32 c -3,1.25 -6.51,-0.02 -7.85,-2.85 -1.33,-2.82 0.01,-6.11 3.02,-7.36 3,-1.25 6.51,0.02 7.85,2.85 1.33,2.82 -0.02,6.11 -3.02,7.36 z"
         fill="#d8cff7"
         id="path3562" />
      <path
         d="m 216.08,97.72 c -0.38,0.06 -0.76,-0.21 -0.77,-0.57 -0.22,-3.9 2.71,-7.41 6.91,-8.06 4.2,-0.64 8.18,1.8 9.31,5.56 0.11,0.36 -0.15,0.72 -0.53,0.77 z"
         fill="#522cd5"
         id="path3564" />
      <path
         d="m 223.37,200.94 5.42,3.81 -8.83,37.91 -19.3,-13.53 c -0.83,-0.58 -0.94,-1.68 -0.25,-2.46 z"
         fill="#522cd5"
         id="path3566" />
      <path
         style="fill:url(#paint10_linear)"
         d="m 230.77,238.6 c 0.5,1.35 -0.41,2.65 -1.35,3.71 l -2.9,3.25 c -0.52,0.58 -1.45,0.7 -2.07,0.26 l -6.82,-4.79 c -0.7,-0.5 -0.8,-1.43 -0.21,-2.09 l 2.84,-3.48 c 1.09,-1.22 1.6,-2.12 0.96,-3.93 -3.79,-10.69 -2.44,-20.62 4.08,-29.23 l 4.96,3.49 c -3.05,4.61 -6.01,15.07 0.51,32.81 z"
         fill="url(#paint10_linear)"
         id="path3568" />
      <path
         d="m 224.44,245.82 c 0.62,0.44 1.55,0.32 2.07,-0.26 l 2.9,-3.25 c 0.62,-0.7 1.22,-1.49 1.42,-2.34 l -9.38,-6.59 c -0.12,0.75 -0.56,1.36 -1.2,2.08 l -2.84,3.48 c -0.59,0.66 -0.49,1.59 0.21,2.09 z"
         fill="url(#paint11_radial)"
         id="path3570"
         style="fill:url(#paint11_radial-0)" />
      <path
         d="m 267.046,140.257 c 1.974,-0.383 3.077,-3.255 2.464,-6.416 -0.613,-3.161 -2.71,-5.413 -4.684,-5.031 -1.973,0.383 -3.076,3.256 -2.463,6.417 0.613,3.161 2.71,5.413 4.683,5.03 z"
         fill="#512bd4"
         id="path3572" />
      <path
         d="m 265.43,131.66 c 0.62,-0.81 1.56,-1.27 2.53,-1.33 0.73,0.92 1.3,2.17 1.57,3.61 0.16,0.9 0.19,1.76 0.09,2.56 -1.09,0.48 -2.4,0.4 -3.44,-0.32 -1.52,-1.05 -1.86,-3.08 -0.75,-4.52 z"
         fill="#8065e0"
         id="path3574" />
      <path
         style="fill:url(#paint12_linear)"
         d="m 195.01,176.3 c -3.68,-4.91 -3.99,-15.01 1.16,-26.35 0.96,-2.12 9,0.94 8.04,3.06 -5.33,11.79 -3.15,17.77 -2.46,18.51 1.84,1.99 7.37,1.9 13.74,-0.22 2.16,-0.72 4.56,0.53 5.35,2.78 0.79,2.26 -0.32,4.67 -2.48,5.38 -5.85,1.94 -16.56,4.25 -22.52,-2.17 -0.3,-0.31 -0.57,-0.64 -0.83,-0.99 z"
         fill="url(#paint12_linear)"
         id="path3576" />
      <path
         d="m 228.72,163.59 -11.91,3.88 c -1.96,0.64 -3,2.83 -2.32,4.9 l 0.12,0.37 c 0.68,2.06 2.83,3.22 4.79,2.58 l 11.91,-3.88 c 1.96,-0.64 3,-2.83 2.32,-4.9 l -0.12,-0.37 c -0.68,-2.07 -2.83,-3.22 -4.79,-2.58 z"
         fill="#8a6fe8"
         id="path3578" />
      <path
         d="m 218.65,183.4 7.37,4.41 c 1.97,1.16 4.43,0.56 5.5,-1.35 1.07,-1.91 0.33,-4.4 -1.64,-5.56 l -7.55,-4.52 z"
         fill="#8a6fe8"
         id="path3580" />
      <path
         d="m 221.56,182.5 11.56,1.47 c 2.23,0.28 4.18,-1.3 4.34,-3.52 0.16,-2.22 -1.52,-4.24 -3.75,-4.51 l -8.6,-1.12 z"
         fill="#8a6fe8"
         id="path3582" />
      <path
         d="m 221.71,178.86 11.47,-1.18 c 2.22,-0.22 3.74,-2.21 3.4,-4.43 -0.34,-2.22 -2.41,-3.84 -4.62,-3.62 l -11.68,1.19 z"
         fill="#8a6fe8"
         id="path3584" />
      <path
         d="m 214.3,168.86 c 3.47,-2.96 8.84,-2.43 12,1.19 3.16,3.62 2.89,8.95 -0.58,11.92 -3.47,2.96 -8.84,2.43 -12,-1.19 -3.16,-3.62 -2.9,-8.96 0.58,-11.92 z"
         fill="url(#paint13_radial)"
         id="path3586"
         style="fill:url(#paint13_radial-1)" />
      <path
         style="fill:url(#paint14_radial)"
         d="m 201.45,156.05 c 4.728,0 8.56,-3.64 8.56,-8.13 0,-4.49 -3.832,-8.13 -8.56,-8.13 -4.727,0 -8.56,3.64 -8.56,8.13 0,4.49 3.833,8.13 8.56,8.13 z"
         fill="url(#paint14_radial)"
         id="path3588" />
      <path
         d="m 171.84,125.29 c -1.13,14.09 2.78,46.29 4.9,57.69 2.34,12.56 7.02,20.93 16.1,20.93 l 25.56,0.99 c 1.29,0 1.99,-1.51 1.14,-2.49 -12.29,-14.16 -41.01,-50.78 -47.7,-77.12 z"
         fill="#1ba6c5"
         id="path3590" />
      <path
         d="m 385.78,262.32 c -1.09,-0.25 -98.34,-0.25 -99.44,0.01 -2.3,0.54 -2.7,2.32 -0.86,3.07 0.02,0.01 0.04,0.01 0.06,0.02 3.83,1.73 25.01,3.06 50.56,3.06 25.4,0 46.47,-1.31 50.49,-3.03 0.01,0 0.01,0 0.02,0 0.03,-0.01 0.05,-0.02 0.08,-0.03 0.01,0 0.01,-0.01 0.02,-0.01 1.83,-0.8 1.33,-2.57 -0.93,-3.09 z"
         fill="#1ba6c5"
         id="path3592" />
      <path
         style="fill:url(#paint15_linear)"
         d="m 353.94,259.77 c -7.02,-3.78 -14.93,-20.39 -14.93,-38.61 0,-15.52 0.52,-48.44 27.98,-52.73 l -28.4,-6.09 -1.64,0.2 -30.04,5.9 c 27.46,4.28 27.98,37.21 27.98,52.73 0,18.05 -9.77,34.8 -16.8,38.62 -19.37,0.52 -33.16,1.84 -33.16,3.39 0,2 22.91,3.63 51.18,3.63 28.26,0 51.18,-1.62 51.18,-3.63 -0.01,-1.56 -13.88,-2.89 -33.35,-3.41 z"
         fill="url(#paint15_linear)"
         id="path3594" />
      <path
         d="m 421.61,162.35 c -1.82,-0.32 -168.25,-0.2 -169.55,0.09 -2.82,0.64 -3.94,2.88 0.71,3.76 h 0.01 c 8.89,1.9 43.23,3.32 84.24,3.32 42.06,0 77.1,-1.49 84.86,-3.46 h 0.01 c 4.23,-0.93 3.47,-3.04 -0.28,-3.71 z"
         fill="#57cacf"
         id="path3596" />
      <path
         d="m 337.02,167.54 c 47.762,0 86.48,-1.921 86.48,-4.29 0,-2.369 -38.718,-4.29 -86.48,-4.29 -47.762,0 -86.48,1.921 -86.48,4.29 0,2.369 38.718,4.29 86.48,4.29 z"
         fill="#9fe4eb"
         id="path3598" />
      <path
         d="m 266.54,159.14 49.93,-4.36 c 0,0 -3.68,6.99 -4.05,6.99 -0.36,0.01 -45.88,-2.63 -45.88,-2.63 z"
         fill="#c8c6c4"
         id="path3600" />
      <path
         d="m 344.97,162.46 h -75.11 c -1.83,0 -3.31,-1.48 -3.31,-3.31 h 81.74 c -0.01,1.82 -1.49,3.31 -3.32,3.31 z"
         fill="#605d5a"
         id="path3602" />
      <path
         d="m 308.78,162.46 h -38.92 c -1.83,0 -3.31,-1.48 -3.31,-3.31 h 81.74 -36.19 c -0.01,1.82 -1.5,3.31 -3.32,3.31 z"
         fill="#797673"
         id="path3604" />
      <path
         d="m 360.7,100.1 -37.7,0.41 c -0.89,0.01 -1.65,0.64 -1.82,1.51 l -11.57,57.12 h 38.65 l 14.7,-56.16 c 0.37,-1.46 -0.75,-2.89 -2.26,-2.88 z"
         fill="#b3afab"
         id="path3606" />
      <path
         d="m 360.7,100.1 -35.25,0.41 c -0.89,0.01 -1.65,0.64 -1.82,1.51 l -11.57,57.12 h 36.19 l 14.7,-56.16 c 0.38,-1.46 -0.74,-2.89 -2.25,-2.88 z"
         fill="#737373"
         id="path3608" />
      <path
         d="m 328.97,166.51 h -10.3 l -1.87,-23.18 h 14.05 z"
         fill="#ffffff"
         id="path3610" />
      <path
         d="m 330.48,147.93 0.37,-4.6 H 316.8 l 0.37,4.6 z"
         fill="#e1dfdd"
         id="path3612" />
      <path
         d="m 331.61,144.83 h -15.86 c -0.54,0 -0.95,-0.5 -0.84,-1.03 l 0.64,-2.99 c 0.08,-0.39 0.43,-0.68 0.84,-0.68 h 14.57 c 0.4,0 0.75,0.28 0.84,0.68 l 0.64,2.99 c 0.12,0.53 -0.29,1.03 -0.83,1.03 z"
         fill="#605d5a"
         id="path3614" />
      <path
         d="m 246,36.1801 c -0.94,0.31 -1.87,0.68 -2.78,1.11 -1.25,0.6 -2.4,1.29 -3.47,2.07 l 1.92,4.13 c -1.06,0.89 -1.99,1.89 -2.77,2.97 l -5.09,-0.51 c -1.15,2.02 -1.92,4.2 -2.28,6.44 l 4.51,1.89 c -0.1,1.49 0.04,3.01 0.43,4.49 -1.1,0.72 -2.95,1.88 -4.13,2.62 0.3,0.85 0.67,1.69 1.1,2.51 0.6,1.13 1.32,2.18 2.11,3.14 l 4.61,-1.8 c 1,1.03 2.15,1.9 3.39,2.62 l -0.81,4.64 c 2.17,0.99 4.53,1.62 6.96,1.86 l 2.37,-4.27 c 1.37,0 2.74,-0.16 4.11,-0.48 l 2.73,3.77 c 0.99,-0.32 1.97,-0.7 2.93,-1.16 1.31,-0.63 2.52,-1.36 3.63,-2.18 l -1.98,-4.11 c 1.09,-0.93 2.04,-1.97 2.83,-3.1 l 4.89,0.79 c 1.22,-2.13 2.02,-4.44 2.36,-6.81 -1.43,-0.49 -3.43,-1.19 -4.56,-1.61 0.09,-1.36 -0.02,-2.74 -0.34,-4.09 l 4.2,-2.51 c -0.33,-1.01 -0.75,-2.01 -1.27,-2.99 -0.64,-1.2 -1.4,-2.31 -2.26,-3.33 l -4.42,2.02 c -1.05,-1.09 -2.26,-2 -3.58,-2.74 l 1.08,-4.5 c -2.1,-0.97 -4.36,-1.6 -6.71,-1.87 l -1.98,4.25 c -1.66,-0.07 -3.34,0.09 -5.01,0.5 z m 14.93,14.54 c 2.27,4.25 0.34,9.5 -4.31,11.73 -4.64,2.23 -10.25,0.59 -12.51,-3.66 -2.27,-4.25 -0.34,-9.5 4.31,-11.73 4.65,-2.23 10.25,-0.59 12.51,3.66 z"
         fill="#a7a4a0"
         id="path3616" />
      <path
         d="m 498.17,102.14 h -41.82 c -1.62,0 -2.94,-1.32 -2.94,-2.94 V 69.1 c 0,-1.62 1.32,-2.94 2.94,-2.94 h 41.82 c 1.62,0 2.94,1.32 2.94,2.94 v 30.1 c 0,1.63 -1.32,2.94 -2.94,2.94 z"
         fill="#84817d"
         id="path3618" />
      <path
         d="m 453.41,94.78 v 4.78 c 0,1.43 1.16,2.58 2.58,2.58 h 42.5 c 1.44,0 2.62,-1.17 2.62,-2.62 v -4.74 z"
         fill="#c5d43b"
         id="path3620" />
      <path
         d="M 471.49,86.66 V 73.83 c 0,-1.11 1.2,-1.8 2.16,-1.25 L 484.77,79 c 0.96,0.55 0.96,1.94 0,2.49 l -11.13,6.42 c -0.95,0.55 -2.15,-0.14 -2.15,-1.25 z"
         fill="#ffffff"
         id="path3622" />
      <path
         d="m 200.65,89.88 h -47.46 c -1.63,0 -2.95,-1.32 -2.95,-2.95 v -31.2 c 0,-1.63 1.32,-2.95 2.95,-2.95 h 47.46 c 1.63,0 2.95,1.32 2.95,2.95 v 31.2 c 0,1.63 -1.32,2.95 -2.95,2.95 z"
         fill="#c5d43b"
         id="path3624" />
      <path
         d="m 203.6,59.9 v -5.1 c 0,-1.11 -0.9,-2.01 -2.01,-2.01 h -49.33 c -1.11,0 -2.01,0.9 -2.01,2.01 v 5.1 z"
         fill="#84817d"
         id="path3626" />
      <path
         d="m 159.01,55.7101 h -4.19 v 2.14 h 4.19 z"
         fill="#cccac7"
         id="path3628" />
      <path
         d="m 165.84,55.7101 h -4.19 v 2.14 h 4.19 z"
         fill="#cccac7"
         id="path3630" />
      <path
         d="m 171.2,80.1101 -12.17,-5.35 v -1.24 l 12.17,-6.07 v 1.89 l -9.91,4.7 9.91,4.16 z"
         fill="#ffffff"
         id="path3632" />
      <path
         d="m 181.81,64.66 -6.9,18.52 h -2.1 l 6.9,-18.52 z"
         fill="#ffffff"
         id="path3634" />
      <path
         d="m 183.39,78.2001 9.92,-4.13 -9.92,-4.73 v -1.89 l 12.17,6.07 v 1.24 l -12.17,5.35 z"
         fill="#ffffff"
         id="path3636" />
      <path
         d="m 351.22,77.84 h -37.3 V 31.9 h 24.53 l 12.77,12.21 z"
         fill="#58d0db"
         id="path3638" />
      <path
         d="m 338.45,31.9 v 12.23 h 12.77 v -0.02 z"
         fill="#9fe4eb"
         id="path3640" />
      <path
         d="m 343.23,50.13 h -21.85 c -0.38,0 -0.68,-0.31 -0.68,-0.68 0,-0.37 0.31,-0.68 0.68,-0.68 h 21.85 c 0.38,0 0.68,0.31 0.68,0.68 0,0.37 -0.3,0.68 -0.68,0.68 z"
         fill="#1189a5"
         id="path3642" />
      <path
         d="m 337.77,55.6 h -16.39 c -0.38,0 -0.68,-0.31 -0.68,-0.68 0,-0.38 0.31,-0.68 0.68,-0.68 h 16.39 c 0.38,0 0.68,0.31 0.68,0.68 0,0.37 -0.3,0.68 -0.68,0.68 z"
         fill="#1189a5"
         id="path3644" />
      <path
         d="m 343.23,61.0601 h -21.85 c -0.38,0 -0.68,-0.31 -0.68,-0.68 0,-0.38 0.31,-0.68 0.68,-0.68 h 21.85 c 0.38,0 0.68,0.31 0.68,0.68 0,0.37 -0.3,0.68 -0.68,0.68 z"
         fill="#1189a5"
         id="path3646" />
      <path
         d="m 337.77,66.52 h -16.39 c -0.38,0 -0.68,-0.31 -0.68,-0.68 0,-0.38 0.31,-0.68 0.68,-0.68 h 16.39 c 0.38,0 0.68,0.31 0.68,0.68 0,0.37 -0.3,0.68 -0.68,0.68 z"
         fill="#1189a5"
         id="path3648" />
      <path
         d="m 439.71,38.14 -25.14,5.9 0.08,26.39 c -0.63,-0.58 -1.52,-0.31 -2.45,-0.31 -0.9,0 -1.64,-0.93 -2.27,-0.38 l -0.06,-25.7 -25.14,-5.9 0.03,30.94 24.1,4.38 c 0.81,1.3 1.8,1.74 3.33,1.74 1.53,0 2.57,-0.5 3.33,-1.73 l 24.15,-4.31 z"
         fill="#0769dc"
         id="path3650" />
      <path
         d="m 435.92,35.4 c 0,0 -18.16,3.24 -20.5,3.99 -2.34,0.74 -3.3,2.33 -3.24,5.34 0.07,3.02 0,25.61 0,25.61 l 24.14,-4.7 z"
         fill="#cae0fa"
         id="path3652" />
      <path
         d="m 388.71,35.4 c 0,0 17.98,3.24 20.32,3.99 2.34,0.74 3.3,2.33 3.24,5.34 -0.07,3.02 -0.09,25.61 -0.09,25.61 L 388.13,65.7 Z"
         fill="#a3c9f6"
         id="path3654" />
      <path
         d="m 407.76,44.94 c -0.03,0 -0.06,0 -0.09,-0.01 L 393.08,42.1 c -0.24,-0.05 -0.4,-0.28 -0.36,-0.53 0.05,-0.25 0.29,-0.4 0.53,-0.36 l 14.59,2.83 c 0.24,0.05 0.4,0.28 0.36,0.53 -0.04,0.22 -0.23,0.37 -0.44,0.37 z"
         fill="#b3afab"
         id="path3656" />
      <path
         d="m 407.76,49.2 c -0.03,0 -0.06,0 -0.09,-0.01 l -14.6,-2.83 c -0.24,-0.05 -0.4,-0.28 -0.36,-0.53 0.05,-0.25 0.29,-0.4 0.53,-0.36 l 14.6,2.83 c 0.24,0.05 0.4,0.28 0.36,0.53 -0.04,0.22 -0.23,0.37 -0.44,0.37 z"
         fill="#b3afab"
         id="path3658" />
      <path
         d="m 407.76,53.4501 c -0.03,0 -0.06,0 -0.09,-0.01 l -14.6,-2.83 c -0.24,-0.05 -0.4,-0.28 -0.36,-0.53 0.05,-0.25 0.29,-0.41 0.53,-0.36 l 14.6,2.83 c 0.24,0.05 0.4,0.28 0.36,0.53 -0.04,0.22 -0.23,0.37 -0.44,0.37 z"
         fill="#b3afab"
         id="path3660" />
      <path
         d="m 407.76,57.7001 c -0.03,0 -0.06,0 -0.09,-0.01 l -14.59,-2.83 c -0.24,-0.05 -0.4,-0.28 -0.36,-0.53 0.05,-0.25 0.29,-0.41 0.53,-0.36 l 14.59,2.83 c 0.24,0.05 0.4,0.28 0.36,0.53 -0.04,0.22 -0.23,0.37 -0.44,0.37 z"
         fill="#b3afab"
         id="path3662" />
      <path
         d="m 416.62,44.94 c 0.03,0 0.06,0 0.09,-0.01 L 431.3,42.1 c 0.24,-0.05 0.4,-0.28 0.36,-0.53 -0.05,-0.25 -0.29,-0.4 -0.53,-0.36 l -14.59,2.83 c -0.24,0.05 -0.4,0.28 -0.36,0.53 0.04,0.22 0.23,0.37 0.44,0.37 z"
         fill="#b3afab"
         id="path3664" />
      <path
         d="m 416.62,49.2 c 0.03,0 0.06,0 0.09,-0.01 l 14.6,-2.83 c 0.24,-0.05 0.4,-0.28 0.36,-0.53 -0.05,-0.25 -0.29,-0.4 -0.53,-0.36 l -14.6,2.83 c -0.24,0.05 -0.4,0.28 -0.36,0.53 0.04,0.22 0.23,0.37 0.44,0.37 z"
         fill="#b3afab"
         id="path3666" />
      <path
         d="m 416.62,53.4501 c 0.03,0 0.06,0 0.09,-0.01 l 14.6,-2.83 c 0.24,-0.05 0.4,-0.28 0.36,-0.53 -0.05,-0.25 -0.29,-0.41 -0.53,-0.36 l -14.6,2.83 c -0.24,0.05 -0.4,0.28 -0.36,0.53 0.04,0.22 0.23,0.37 0.44,0.37 z"
         fill="#b3afab"
         id="path3668" />
      <path
         d="m 416.62,57.7001 c 0.03,0 0.06,0 0.09,-0.01 l 14.59,-2.83 c 0.24,-0.05 0.4,-0.28 0.36,-0.53 -0.05,-0.25 -0.29,-0.41 -0.53,-0.36 l -14.59,2.83 c -0.24,0.05 -0.4,0.28 -0.36,0.53 0.04,0.22 0.23,0.37 0.44,0.37 z"
         fill="#b3afab"
         id="path3670" />
      <path
         d="m 410.5,70.92 c 0.54,-0.33 1.16,-0.52 1.84,-0.52 0.62,0 1.21,0.17 1.72,0.45 l 22.86,-3.67 0.21,-28.58 -1.28,-3.21 -0.13,29.67 c 0,0 -18.76,3.12 -20.44,3.5 -1.68,0.39 -3.06,1.74 -3.06,1.74 0,0 -0.66,-1.13 -2.77,-1.67 -2.11,-0.54 -20.73,-3.71 -20.73,-3.71 l 0.05,-29.47 -1.32,3.36 0.08,28.13 z"
         fill="#4995ee"
         id="path3672" />
    </g>
  </g>
  <defs
     id="defs3206">
    <linearGradient
       gradientUnits="userSpaceOnUse"
       y2="1658.8"
       x2="957.525"
       y1="-54"
       x1="2175.5"
       id="paint0_linear">
      <stop
         id="stop3091"
         stop-color="#C2DEFF"
         offset="0.0213813" />
      <stop
         id="stop3093"
         stop-color="#0F70E3"
         offset="0.748401" />
    </linearGradient>
    <linearGradient
       gradientUnits="userSpaceOnUse"
       y2="282.347"
       x2="1426.27"
       y1="201.573"
       x1="1440.06"
       id="paint1_linear">
      <stop
         id="stop3096"
         stop-color="#958FE7"
         offset="0.2584" />
      <stop
         id="stop3098"
         stop-color="#BBB7EF"
         offset="0.4497" />
    </linearGradient>
    <radialGradient
       gradientTransform="translate(1452.48 271.7) rotate(-160.28) scale(23.631)"
       gradientUnits="userSpaceOnUse"
       r="1"
       cy="0"
       cx="0"
       id="paint2_radial">
      <stop
         id="stop3101"
         stop-color="#A08BE8" />
      <stop
         id="stop3103"
         stop-color="#8065E0"
         offset="1" />
    </radialGradient>
    <linearGradient
       gradientUnits="userSpaceOnUse"
       y2="323.651"
       x2="1326.2"
       y1="267.779"
       x1="1326.2"
       id="paint3_linear">
      <stop
         id="stop3106"
         stop-color="#958FE7"
         offset="0.1788" />
      <stop
         id="stop3108"
         stop-color="#BBB7EF"
         offset="0.4497" />
    </linearGradient>
    <linearGradient
       gradientUnits="userSpaceOnUse"
       y2="310.425"
       x2="1374.87"
       y1="269.054"
       x1="1371.25"
       id="paint4_linear">
      <stop
         id="stop3111"
         stop-color="#958FE7"
         offset="0.1788" />
      <stop
         id="stop3113"
         stop-color="#BBB7EF"
         offset="0.4497" />
    </linearGradient>
    <radialGradient
       gradientTransform="translate(1384.25 167.478) scale(88.7316)"
       gradientUnits="userSpaceOnUse"
       r="1"
       cy="0"
       cx="0"
       id="paint5_radial">
      <stop
         id="stop3116"
         stop-color="#A08BE8"
         offset="0.4744" />
      <stop
         id="stop3118"
         stop-color="#8065E0"
         offset="0.8618" />
    </radialGradient>
    <radialGradient
       gradientTransform="translate(1459.07 159.083) scale(80.9827)"
       gradientUnits="userSpaceOnUse"
       r="1"
       cy="0"
       cx="0"
       id="paint6_radial">
      <stop
         id="stop3121"
         stop-color="#E1DFDD" />
      <stop
         id="stop3123"
         stop-color="#EDECEB"
         offset="0.1047" />
      <stop
         id="stop3125"
         stop-color="white"
         offset="0.7337" />
    </radialGradient>
    <radialGradient
       gradientTransform="translate(1352.95 218.188) scale(75.6291)"
       gradientUnits="userSpaceOnUse"
       r="1"
       cy="0"
       cx="0"
       id="paint7_radial">
      <stop
         id="stop3128"
         stop-color="#512BD4" />
      <stop
         id="stop3130"
         stop-color="#6645D9"
         offset="0.5045" />
      <stop
         id="stop3132"
         stop-color="#7659DD"
         offset="0.7759" />
      <stop
         id="stop3134"
         stop-color="#8065E0"
         offset="1" />
    </radialGradient>
    <radialGradient
       gradientTransform="translate(1306.97 233.153) scale(55.1625)"
       gradientUnits="userSpaceOnUse"
       r="1"
       cy="0"
       cx="0"
       id="paint8_radial">
      <stop
         id="stop3137"
         stop-color="#A08BE8"
         offset="0.4614" />
      <stop
         id="stop3139"
         stop-color="#A793EA"
         offset="0.5268" />
      <stop
         id="stop3141"
         stop-color="#C5B7F0"
         offset="0.8352" />
      <stop
         id="stop3143"
         stop-color="#D0C5F3"
         offset="1" />
    </radialGradient>
    <radialGradient
       gradientTransform="translate(1376.36 101.601) scale(13.0775)"
       gradientUnits="userSpaceOnUse"
       r="1"
       cy="0"
       cx="0"
       id="paint9_radial">
      <stop
         id="stop3146"
         stop-color="#8065E0" />
      <stop
         id="stop3148"
         stop-color="#512BD4"
         offset="0.8628" />
    </radialGradient>
    <radialGradient
       gradientTransform="translate(1368.48 313.635) rotate(-5.00064) scale(25.2924 25.1002)"
       gradientUnits="userSpaceOnUse"
       r="1"
       cy="0"
       cx="0"
       id="paint10_radial">
      <stop
         id="stop3151"
         stop-color="#8065E0" />
      <stop
         id="stop3153"
         stop-color="#512BD4"
         offset="0.8628" />
    </radialGradient>
    <radialGradient
       gradientTransform="translate(1388.89 59.6055) scale(22.9553)"
       gradientUnits="userSpaceOnUse"
       r="1"
       cy="0"
       cx="0"
       id="paint11_radial">
      <stop
         id="stop3156"
         stop-color="#A08BE8" />
      <stop
         id="stop3158"
         stop-color="#8065E0"
         offset="1" />
    </radialGradient>
    <radialGradient
       gradientTransform="translate(1418.15 145.261) rotate(-77.9485) scale(27.4759)"
       gradientUnits="userSpaceOnUse"
       r="1"
       cy="0"
       cx="0"
       id="paint12_radial">
      <stop
         id="stop3161"
         stop-color="#BDB9F0"
         offset="0.3607" />
      <stop
         id="stop3163"
         stop-opacity="0.3855"
         stop-color="#C3BCEB"
         offset="0.5611" />
      <stop
         id="stop3165"
         stop-opacity="0.3217"
         stop-color="#CEC3E2"
         offset="0.6338" />
      <stop
         id="stop3167"
         stop-opacity="0.1152"
         stop-color="#EDD6C9"
         offset="0.8689" />
      <stop
         id="stop3169"
         stop-opacity="0"
         stop-color="#F9DDBF"
         offset="1" />
    </radialGradient>
    <radialGradient
       gradientTransform="translate(1313.18 146.902) rotate(173.834) scale(33.0284)"
       gradientUnits="userSpaceOnUse"
       r="1"
       cy="0"
       cx="0"
       id="paint13_radial">
      <stop
         id="stop3172"
         stop-color="#BDB9F0" />
      <stop
         id="stop3174"
         stop-opacity="0.3855"
         stop-color="#C3BCEB"
         offset="0.5266" />
      <stop
         id="stop3176"
         stop-opacity="0.3217"
         stop-color="#CEC3E2"
         offset="0.605" />
      <stop
         id="stop3178"
         stop-opacity="0.1152"
         stop-color="#EDD6C9"
         offset="0.8586" />
      <stop
         id="stop3180"
         stop-opacity="0"
         stop-color="#F9DDBF"
         offset="1" />
    </radialGradient>
    <linearGradient
       gradientUnits="userSpaceOnUse"
       y2="298.916"
       x2="1391.56"
       y1="195.386"
       x1="1312.61"
       id="paint14_linear">
      <stop
         id="stop3183"
         stop-color="#958FE7"
         offset="0.1788" />
      <stop
         id="stop3185"
         stop-color="#BBB7EF"
         offset="0.4497" />
    </linearGradient>
    <radialGradient
       gradientTransform="translate(1320.01 181.473) scale(24.1946)"
       gradientUnits="userSpaceOnUse"
       r="1"
       cy="0"
       cx="0"
       id="paint15_radial">
      <stop
         id="stop3188"
         stop-color="#8065E0" />
      <stop
         id="stop3190"
         stop-color="#512BD4"
         offset="0.8628" />
    </radialGradient>
    <radialGradient
       gradientTransform="translate(1305.05 315.577) rotate(93.8441) scale(25.2933 25.0999)"
       gradientUnits="userSpaceOnUse"
       r="1"
       cy="0"
       cx="0"
       id="paint16_radial">
      <stop
         id="stop3193"
         stop-color="#8065E0" />
      <stop
         id="stop3195"
         stop-color="#512BD4"
         offset="0.8628" />
    </radialGradient>
    <radialGradient
       gradientTransform="translate(1391.24 290.973) rotate(-127.328) scale(23.6331)"
       gradientUnits="userSpaceOnUse"
       r="1"
       cy="0"
       cx="0"
       id="paint17_radial">
      <stop
         id="stop3198"
         stop-color="#A08BE8" />
      <stop
         id="stop3200"
         stop-color="#8065E0"
         offset="1" />
    </radialGradient>
    <clipPath
       id="clip0">
      <rect
         id="rect3203"
         fill="white"
         height="900"
         width="1600" />
    </clipPath>
    <radialGradient
       id="paint0_radial"
       cx="0"
       cy="0"
       r="1"
       gradientUnits="userSpaceOnUse"
       gradientTransform="matrix(276.68595,7.5153177,-4.3429722,159.89203,316.474,172.352)">
      <stop
         offset="0.1821"
         stop-color="#E1EFF9"
         id="stop3674" />
      <stop
         offset="0.9144"
         stop-color="#B8D6F7"
         id="stop3676" />
    </radialGradient>
    <radialGradient
       id="paint1_radial"
       cx="0"
       cy="0"
       r="1"
       gradientUnits="userSpaceOnUse"
       gradientTransform="matrix(48.9061,0,0,48.9061,193.225,121.496)">
      <stop
         offset="0.0613"
         stop-color="#1BA6C5"
         id="stop3679" />
      <stop
         offset="0.8867"
         stop-color="#57CACF"
         id="stop3681" />
    </radialGradient>
    <linearGradient
       id="paint2_linear"
       x1="233.742"
       y1="204.861"
       x2="233.742"
       y2="177.871"
       gradientUnits="userSpaceOnUse">
      <stop
         offset="0.0613"
         stop-color="#1BA6C5"
         id="stop3684" />
      <stop
         offset="0.8867"
         stop-color="#57CACF"
         id="stop3686" />
    </linearGradient>
    <linearGradient
       id="paint3_linear-0"
       x1="245.105"
       y1="170.765"
       x2="245.883"
       y2="204.73"
       gradientUnits="userSpaceOnUse">
      <stop
         offset="0.252"
         stop-color="#522CD5"
         id="stop3689" />
      <stop
         offset="0.5558"
         stop-color="#8A6FE8"
         id="stop3691" />
    </linearGradient>
    <linearGradient
       id="paint4_linear-9"
       x1="245.387"
       y1="202.799"
       x2="259.183"
       y2="243.453"
       gradientUnits="userSpaceOnUse">
      <stop
         stop-color="#522CD5"
         id="stop3694" />
      <stop
         offset="0.4397"
         stop-color="#8A6FE8"
         id="stop3696" />
    </linearGradient>
    <radialGradient
       id="paint5_radial-6"
       cx="0"
       cy="0"
       r="1"
       gradientUnits="userSpaceOnUse"
       gradientTransform="matrix(14.849061,2.6975679,-2.5628513,14.107498,256.631,225.809)">
      <stop
         offset="0.034"
         stop-color="#522CD5"
         id="stop3699" />
      <stop
         offset="0.9955"
         stop-color="#8A6FE8"
         id="stop3701" />
    </radialGradient>
    <linearGradient
       id="paint6_linear"
       x1="226.255"
       y1="173.737"
       x2="236.85"
       y2="203.477"
       gradientUnits="userSpaceOnUse">
      <stop
         offset="0.252"
         stop-color="#522CD5"
         id="stop3704" />
      <stop
         offset="0.5558"
         stop-color="#8A6FE8"
         id="stop3706" />
    </linearGradient>
    <radialGradient
       id="paint7_radial-3"
       cx="0"
       cy="0"
       r="1"
       gradientUnits="userSpaceOnUse"
       gradientTransform="matrix(-45.838655,6.8874429,-6.5590378,-43.652989,238.121,119.872)">
      <stop
         offset="0.4744"
         stop-color="#A08BE8"
         id="stop3709" />
      <stop
         offset="0.8618"
         stop-color="#8065E0"
         id="stop3711" />
    </radialGradient>
    <radialGradient
       id="paint8_radial-5"
       cx="0"
       cy="0"
       r="1"
       gradientUnits="userSpaceOnUse"
       gradientTransform="matrix(-47.503566,7.1376025,-6.797266,-45.238492,269.491,116.82)">
      <stop
         offset="0.0933"
         stop-color="#E1DFDD"
         id="stop3714" />
      <stop
         offset="0.6573"
         stop-color="white"
         id="stop3716" />
    </radialGradient>
    <radialGradient
       id="paint9_radial-0"
       cx="0"
       cy="0"
       r="1"
       gradientUnits="userSpaceOnUse"
       gradientTransform="matrix(3.3355628,-7.9860929,7.6610459,3.1998,291.921,155.16)">
      <stop
         stop-color="#8065E0"
         id="stop3719" />
      <stop
         offset="1"
         stop-color="#512BD4"
         id="stop3721" />
    </radialGradient>
    <linearGradient
       id="paint10_linear"
       x1="229.61"
       y1="202.566"
       x2="223.975"
       y2="245.632"
       gradientUnits="userSpaceOnUse">
      <stop
         stop-color="#522CD5"
         id="stop3724" />
      <stop
         offset="0.4397"
         stop-color="#8A6FE8"
         id="stop3726" />
    </linearGradient>
    <radialGradient
       id="paint11_radial-0"
       cx="0"
       cy="0"
       r="1"
       gradientUnits="userSpaceOnUse"
       gradientTransform="matrix(11.048029,7.7675082,-7.9107769,11.251806,230.405,230.712)">
      <stop
         offset="0.034"
         stop-color="#522CD5"
         id="stop3729" />
      <stop
         offset="0.9955"
         stop-color="#8A6FE8"
         id="stop3731" />
    </radialGradient>
    <linearGradient
       id="paint12_linear"
       x1="190.523"
       y1="155.62"
       x2="217.391"
       y2="180.931"
       gradientUnits="userSpaceOnUse">
      <stop
         offset="0.2495"
         stop-color="#967FE6"
         id="stop3734" />
      <stop
         offset="0.6748"
         stop-color="#8A6FE8"
         id="stop3736" />
    </linearGradient>
    <radialGradient
       id="paint13_radial-1"
       cx="0"
       cy="0"
       r="1"
       gradientUnits="userSpaceOnUse"
       gradientTransform="matrix(-0.67517908,8.3960862,-8.4996219,-0.68350501,223.722,175.887)">
      <stop
         stop-color="#8065E0"
         id="stop3739" />
      <stop
         offset="1"
         stop-color="#512BD4"
         id="stop3741" />
    </radialGradient>
    <radialGradient
       id="paint14_radial"
       cx="0"
       cy="0"
       r="1"
       gradientUnits="userSpaceOnUse"
       gradientTransform="matrix(8.4540299,-1.2702687,1.2097013,8.0509348,199.435,145.499)">
      <stop
         stop-color="#8065E0"
         id="stop3744" />
      <stop
         offset="1"
         stop-color="#512BD4"
         id="stop3746" />
    </radialGradient>
    <linearGradient
       id="paint15_linear"
       x1="336.103"
       y1="162.342"
       x2="336.103"
       y2="266.801"
       gradientUnits="userSpaceOnUse">
      <stop
         offset="0.0613"
         stop-color="#1BA6C5"
         id="stop3749" />
      <stop
         offset="0.252"
         stop-color="#57CACF"
         id="stop3751" />
    </linearGradient>
  </defs>
</svg>
