<?xml version="1.0" encoding="UTF-8" standalone="no"?>
<svg
   xmlns:dc="http://purl.org/dc/elements/1.1/"
   xmlns:cc="http://creativecommons.org/ns#"
   xmlns:rdf="http://www.w3.org/1999/02/22-rdf-syntax-ns#"
   xmlns:svg="http://www.w3.org/2000/svg"
   xmlns="http://www.w3.org/2000/svg"
   xmlns:sodipodi="http://sodipodi.sourceforge.net/DTD/sodipodi-0.dtd"
   xmlns:inkscape="http://www.inkscape.org/namespaces/inkscape"
   inkscape:export-ydpi="96"
   inkscape:export-xdpi="96"
   inkscape:export-filename="C:\Users\bethma\OneDrive\dotnetConf\focus\Windows\Social Media Sharing\Social Media Sharing\Windows 1200x1200.png"
   inkscape:version="1.0 (4035a4fb49, 2020-05-01)"
   sodipodi:docname="Windows 1200x1200.svg"
   id="svg1328"
   version="1.1"
   fill="none"
   viewBox="0 0 1200 1200"
   height="1200"
   width="1200">
  <metadata
     id="metadata1332">
    <rdf:RDF>
      <cc:Work
         rdf:about="">
        <dc:format>image/svg+xml</dc:format>
        <dc:type
           rdf:resource="http://purl.org/dc/dcmitype/StillImage" />
        <dc:title></dc:title>
      </cc:Work>
    </rdf:RDF>
  </metadata>
  <sodipodi:namedview
     inkscape:current-layer="svg1328"
     inkscape:window-maximized="1"
     inkscape:window-y="-12"
     inkscape:window-x="4468"
     inkscape:cy="686.48017"
     inkscape:cx="593.03867"
     inkscape:zoom="1.5083333"
     showgrid="false"
     id="namedview1330"
     inkscape:window-height="1901"
     inkscape:window-width="2912"
     inkscape:pageshadow="2"
     inkscape:pageopacity="0"
     guidetolerance="10"
     gridtolerance="10"
     objecttolerance="10"
     borderopacity="1"
     bordercolor="#666666"
     pagecolor="#ffffff" />
  <rect
     y="0"
     x="0"
     style="fill:url(#paint0_linear)"
     id="rect946"
     fill="url(#paint0_linear)"
     height="1200"
     width="1200" />
  <path
     id="path948"
     fill="white"
     d="M51.3906 808.234C51.3906 804.432 52.3802 801.516 54.3594 799.484C56.3385 797.453 59.2031 796.438 62.9531 796.438C66.7552 796.438 69.6458 797.505 71.625 799.641C73.6042 801.724 74.5938 804.589 74.5938 808.234C74.5938 811.932 73.5781 814.875 71.5469 817.062C69.5677 819.198 66.7031 820.266 62.9531 820.266C59.2031 820.266 56.3385 819.198 54.3594 817.062C52.3802 814.927 51.3906 811.984 51.3906 808.234ZM195.297 818H172.406L116.234 726.984H115.609L116 732.062C116.729 741.75 117.094 750.604 117.094 758.625V818H100.141V703.781H122.797L178.812 794.328H179.281C179.177 793.13 178.969 788.781 178.656 781.281C178.344 773.729 178.188 767.844 178.188 763.625V703.781H195.297V818ZM290.062 818H225.453V703.781H290.062V719.562H244.125V750.656H287.172V766.281H244.125V802.141H290.062V818ZM354.281 818H335.609V719.797H302.016V703.781H387.875V719.797H354.281V818ZM495.609 718.156C484.88 718.156 476.443 721.958 470.297 729.562C464.151 737.167 461.078 747.661 461.078 761.047C461.078 775.057 464.021 785.656 469.906 792.844C475.844 800.031 484.411 803.625 495.609 803.625C500.453 803.625 505.141 803.156 509.672 802.219C514.203 801.229 518.917 799.979 523.812 798.469V814.484C514.854 817.87 504.698 819.562 493.344 819.562C476.625 819.562 463.786 814.51 454.828 804.406C445.87 794.25 441.391 779.745 441.391 760.891C441.391 749.016 443.552 738.625 447.875 729.719C452.25 720.812 458.552 713.99 466.781 709.25C475.01 704.51 484.672 702.141 495.766 702.141C507.432 702.141 518.214 704.589 528.109 709.484L521.391 725.031C517.536 723.208 513.448 721.62 509.125 720.266C504.854 718.859 500.349 718.156 495.609 718.156ZM623.109 774.641C623.109 788.755 619.49 799.771 612.25 807.688C605.01 815.604 594.932 819.562 582.016 819.562C573.943 819.562 566.807 817.74 560.609 814.094C554.411 810.448 549.646 805.214 546.312 798.391C542.979 791.568 541.312 783.651 541.312 774.641C541.312 760.63 544.906 749.693 552.094 741.828C559.281 733.964 569.411 730.031 582.484 730.031C594.984 730.031 604.88 734.068 612.172 742.141C619.464 750.161 623.109 760.995 623.109 774.641ZM560.219 774.641C560.219 794.589 567.589 804.562 582.328 804.562C596.911 804.562 604.203 794.589 604.203 774.641C604.203 754.901 596.859 745.031 582.172 745.031C574.464 745.031 568.865 747.583 565.375 752.688C561.938 757.792 560.219 765.109 560.219 774.641ZM720.297 818H701.859V764.875C701.859 758.208 700.505 753.234 697.797 749.953C695.141 746.672 690.896 745.031 685.062 745.031C677.302 745.031 671.625 747.323 668.031 751.906C664.438 756.49 662.641 764.172 662.641 774.953V818H644.281V731.594H658.656L661.234 742.922H662.172C664.776 738.807 668.474 735.63 673.266 733.391C678.057 731.151 683.37 730.031 689.203 730.031C709.932 730.031 720.297 740.578 720.297 761.672V818ZM789.203 745.5H768.109V818H749.672V745.5H735.453V736.906L749.672 731.281V725.656C749.672 715.448 752.068 707.896 756.859 703C761.651 698.052 768.969 695.578 778.812 695.578C785.271 695.578 791.625 696.646 797.875 698.781L793.031 712.688C788.5 711.229 784.177 710.5 780.062 710.5C775.896 710.5 772.849 711.802 770.922 714.406C769.047 716.958 768.109 720.812 768.109 725.969V731.594H789.203V745.5Z" />
  <path
     id="path954"
     fill="white"
     d="M108.629 1097.67H100.455V1126H95.5918V1097.67H89.8496V1095.47L95.5918 1093.71V1091.93C95.5918 1084.04 99.0391 1080.09 105.934 1080.09C107.633 1080.09 109.625 1080.43 111.91 1081.12L110.65 1085.01C108.775 1084.41 107.174 1084.11 105.846 1084.11C104.01 1084.11 102.652 1084.72 101.773 1085.95C100.895 1087.16 100.455 1089.12 100.455 1091.81V1093.89H108.629V1097.67ZM142.203 1109.92C142.203 1115.15 140.885 1119.24 138.248 1122.19C135.611 1125.12 131.969 1126.59 127.32 1126.59C124.449 1126.59 121.9 1125.91 119.674 1124.56C117.447 1123.22 115.729 1121.28 114.518 1118.76C113.307 1116.24 112.701 1113.29 112.701 1109.92C112.701 1104.68 114.01 1100.61 116.627 1097.7C119.244 1094.77 122.877 1093.3 127.525 1093.3C132.018 1093.3 135.582 1094.8 138.219 1097.79C140.875 1100.78 142.203 1104.82 142.203 1109.92ZM117.74 1109.92C117.74 1114.02 118.561 1117.14 120.201 1119.29C121.842 1121.44 124.254 1122.51 127.438 1122.51C130.621 1122.51 133.033 1121.45 134.674 1119.32C136.334 1117.17 137.164 1114.04 137.164 1109.92C137.164 1105.83 136.334 1102.74 134.674 1100.63C133.033 1098.5 130.602 1097.44 127.379 1097.44C124.195 1097.44 121.793 1098.48 120.172 1100.57C118.551 1102.66 117.74 1105.78 117.74 1109.92ZM163.59 1126.59C158.941 1126.59 155.338 1125.16 152.779 1122.31C150.24 1119.44 148.971 1115.38 148.971 1110.15C148.971 1104.78 150.26 1100.63 152.838 1097.7C155.436 1094.77 159.127 1093.3 163.912 1093.3C165.455 1093.3 166.998 1093.47 168.541 1093.8C170.084 1094.13 171.295 1094.53 172.174 1094.97L170.68 1099.11C169.605 1098.68 168.434 1098.32 167.164 1098.05C165.895 1097.76 164.771 1097.61 163.795 1097.61C157.271 1097.61 154.01 1101.77 154.01 1110.09C154.01 1114.04 154.801 1117.06 156.383 1119.17C157.984 1121.28 160.348 1122.34 163.473 1122.34C166.148 1122.34 168.893 1121.76 171.705 1120.61V1124.92C169.557 1126.03 166.852 1126.59 163.59 1126.59ZM183.922 1093.89V1114.72C183.922 1117.34 184.518 1119.29 185.709 1120.58C186.9 1121.87 188.766 1122.51 191.305 1122.51C194.664 1122.51 197.115 1121.6 198.658 1119.76C200.221 1117.92 201.002 1114.93 201.002 1110.77V1093.89H205.865V1126H201.852L201.148 1121.69H200.885C199.889 1123.28 198.502 1124.49 196.725 1125.33C194.967 1126.17 192.955 1126.59 190.689 1126.59C186.783 1126.59 183.854 1125.66 181.9 1123.8C179.967 1121.95 179 1118.98 179 1114.9V1093.89H183.922ZM236.92 1117.24C236.92 1120.23 235.807 1122.53 233.58 1124.15C231.354 1125.78 228.229 1126.59 224.205 1126.59C219.947 1126.59 216.627 1125.91 214.244 1124.56V1120.05C215.787 1120.83 217.438 1121.45 219.195 1121.9C220.973 1122.35 222.682 1122.57 224.322 1122.57C226.861 1122.57 228.814 1122.17 230.182 1121.37C231.549 1120.55 232.232 1119.31 232.232 1117.65C232.232 1116.4 231.686 1115.34 230.592 1114.46C229.518 1113.56 227.408 1112.5 224.264 1111.29C221.275 1110.18 219.146 1109.21 217.877 1108.39C216.627 1107.55 215.689 1106.61 215.064 1105.55C214.459 1104.5 214.156 1103.24 214.156 1101.77C214.156 1099.15 215.221 1097.09 217.35 1095.59C219.479 1094.07 222.398 1093.3 226.109 1093.3C229.566 1093.3 232.945 1094.01 236.246 1095.41L234.518 1099.37C231.295 1098.04 228.375 1097.38 225.758 1097.38C223.453 1097.38 221.715 1097.74 220.543 1098.46C219.371 1099.18 218.785 1100.18 218.785 1101.45C218.785 1102.31 219 1103.04 219.43 1103.65C219.879 1104.25 220.592 1104.83 221.568 1105.38C222.545 1105.92 224.42 1106.71 227.193 1107.75C231.002 1109.13 233.57 1110.53 234.898 1111.94C236.246 1113.34 236.92 1115.11 236.92 1117.24ZM244.156 1122.89C244.156 1121.59 244.449 1120.6 245.035 1119.94C245.641 1119.25 246.5 1118.91 247.613 1118.91C248.746 1118.91 249.625 1119.25 250.25 1119.94C250.895 1120.6 251.217 1121.59 251.217 1122.89C251.217 1124.16 250.895 1125.14 250.25 1125.82C249.605 1126.51 248.727 1126.85 247.613 1126.85C246.617 1126.85 245.787 1126.55 245.123 1125.94C244.479 1125.32 244.156 1124.3 244.156 1122.89ZM282.711 1121.69H282.447C280.201 1124.96 276.842 1126.59 272.369 1126.59C268.17 1126.59 264.898 1125.15 262.555 1122.28C260.23 1119.41 259.068 1115.33 259.068 1110.03C259.068 1104.74 260.24 1100.63 262.584 1097.7C264.928 1094.77 268.189 1093.3 272.369 1093.3C276.725 1093.3 280.064 1094.89 282.389 1098.05H282.77L282.564 1095.74L282.447 1093.48V1080.41H287.311V1126H283.355L282.711 1121.69ZM272.984 1122.51C276.305 1122.51 278.707 1121.62 280.191 1119.82C281.695 1118 282.447 1115.08 282.447 1111.06V1110.03C282.447 1105.48 281.686 1102.24 280.162 1100.31C278.658 1098.35 276.246 1097.38 272.926 1097.38C270.074 1097.38 267.887 1098.49 266.363 1100.72C264.859 1102.92 264.107 1106.05 264.107 1110.09C264.107 1114.19 264.859 1117.29 266.363 1119.38C267.867 1121.47 270.074 1122.51 272.984 1122.51ZM325.367 1109.92C325.367 1115.15 324.049 1119.24 321.412 1122.19C318.775 1125.12 315.133 1126.59 310.484 1126.59C307.613 1126.59 305.064 1125.91 302.838 1124.56C300.611 1123.22 298.893 1121.28 297.682 1118.76C296.471 1116.24 295.865 1113.29 295.865 1109.92C295.865 1104.68 297.174 1100.61 299.791 1097.7C302.408 1094.77 306.041 1093.3 310.689 1093.3C315.182 1093.3 318.746 1094.8 321.383 1097.79C324.039 1100.78 325.367 1104.82 325.367 1109.92ZM300.904 1109.92C300.904 1114.02 301.725 1117.14 303.365 1119.29C305.006 1121.44 307.418 1122.51 310.602 1122.51C313.785 1122.51 316.197 1121.45 317.838 1119.32C319.498 1117.17 320.328 1114.04 320.328 1109.92C320.328 1105.83 319.498 1102.74 317.838 1100.63C316.197 1098.5 313.766 1097.44 310.543 1097.44C307.359 1097.44 304.957 1098.48 303.336 1100.57C301.715 1102.66 300.904 1105.78 300.904 1109.92ZM344.293 1122.57C345.152 1122.57 345.982 1122.51 346.783 1122.4C347.584 1122.26 348.219 1122.12 348.688 1121.99V1125.71C348.16 1125.96 347.379 1126.17 346.344 1126.32C345.328 1126.5 344.41 1126.59 343.59 1126.59C337.379 1126.59 334.273 1123.31 334.273 1116.77V1097.67H329.674V1095.33L334.273 1093.3L336.324 1086.45H339.137V1093.89H348.453V1097.67H339.137V1116.57C339.137 1118.5 339.596 1119.98 340.514 1121.02C341.432 1122.05 342.691 1122.57 344.293 1122.57ZM377.105 1126V1105.23C377.105 1102.61 376.51 1100.66 375.318 1099.37C374.127 1098.08 372.262 1097.44 369.723 1097.44C366.363 1097.44 363.902 1098.34 362.34 1100.16C360.777 1101.98 359.996 1104.97 359.996 1109.15V1126H355.133V1093.89H359.088L359.879 1098.29H360.113C361.109 1096.7 362.506 1095.48 364.303 1094.62C366.1 1093.74 368.102 1093.3 370.309 1093.3C374.176 1093.3 377.086 1094.24 379.039 1096.12C380.992 1097.97 381.969 1100.95 381.969 1105.05V1126H377.105ZM405.553 1126.59C400.807 1126.59 397.057 1125.14 394.303 1122.25C391.568 1119.36 390.201 1115.35 390.201 1110.21C390.201 1105.03 391.471 1100.92 394.01 1097.88C396.568 1094.83 399.996 1093.3 404.293 1093.3C408.316 1093.3 411.5 1094.63 413.844 1097.29C416.188 1099.93 417.359 1103.41 417.359 1107.75V1110.82H395.24C395.338 1114.59 396.285 1117.46 398.082 1119.41C399.898 1121.36 402.447 1122.34 405.729 1122.34C409.186 1122.34 412.604 1121.62 415.982 1120.17V1124.51C414.264 1125.25 412.633 1125.78 411.09 1126.09C409.566 1126.42 407.721 1126.59 405.553 1126.59ZM404.234 1097.38C401.656 1097.38 399.596 1098.22 398.053 1099.9C396.529 1101.58 395.631 1103.9 395.357 1106.87H412.145C412.145 1103.8 411.461 1101.46 410.094 1099.84C408.727 1098.2 406.773 1097.38 404.234 1097.38ZM436.051 1122.57C436.91 1122.57 437.74 1122.51 438.541 1122.4C439.342 1122.26 439.977 1122.12 440.445 1121.99V1125.71C439.918 1125.96 439.137 1126.17 438.102 1126.32C437.086 1126.5 436.168 1126.59 435.348 1126.59C429.137 1126.59 426.031 1123.31 426.031 1116.77V1097.67H421.432V1095.33L426.031 1093.3L428.082 1086.45H430.895V1093.89H440.211V1097.67H430.895V1116.57C430.895 1118.5 431.354 1119.98 432.271 1121.02C433.189 1122.05 434.449 1122.57 436.051 1122.57ZM459.723 1126.59C455.074 1126.59 451.471 1125.16 448.912 1122.31C446.373 1119.44 445.104 1115.38 445.104 1110.15C445.104 1104.78 446.393 1100.63 448.971 1097.7C451.568 1094.77 455.26 1093.3 460.045 1093.3C461.588 1093.3 463.131 1093.47 464.674 1093.8C466.217 1094.13 467.428 1094.53 468.307 1094.97L466.812 1099.11C465.738 1098.68 464.566 1098.32 463.297 1098.05C462.027 1097.76 460.904 1097.61 459.928 1097.61C453.404 1097.61 450.143 1101.77 450.143 1110.09C450.143 1114.04 450.934 1117.06 452.516 1119.17C454.117 1121.28 456.48 1122.34 459.605 1122.34C462.281 1122.34 465.025 1121.76 467.838 1120.61V1124.92C465.689 1126.03 462.984 1126.59 459.723 1126.59ZM503.199 1109.92C503.199 1115.15 501.881 1119.24 499.244 1122.19C496.607 1125.12 492.965 1126.59 488.316 1126.59C485.445 1126.59 482.896 1125.91 480.67 1124.56C478.443 1123.22 476.725 1121.28 475.514 1118.76C474.303 1116.24 473.697 1113.29 473.697 1109.92C473.697 1104.68 475.006 1100.61 477.623 1097.7C480.24 1094.77 483.873 1093.3 488.521 1093.3C493.014 1093.3 496.578 1094.8 499.215 1097.79C501.871 1100.78 503.199 1104.82 503.199 1109.92ZM478.736 1109.92C478.736 1114.02 479.557 1117.14 481.197 1119.29C482.838 1121.44 485.25 1122.51 488.434 1122.51C491.617 1122.51 494.029 1121.45 495.67 1119.32C497.33 1117.17 498.16 1114.04 498.16 1109.92C498.16 1105.83 497.33 1102.74 495.67 1100.63C494.029 1098.5 491.598 1097.44 488.375 1097.44C485.191 1097.44 482.789 1098.48 481.168 1100.57C479.547 1102.66 478.736 1105.78 478.736 1109.92ZM533.727 1126V1105.23C533.727 1102.61 533.131 1100.66 531.939 1099.37C530.748 1098.08 528.883 1097.44 526.344 1097.44C522.984 1097.44 520.523 1098.34 518.961 1100.16C517.398 1101.98 516.617 1104.97 516.617 1109.15V1126H511.754V1093.89H515.709L516.5 1098.29H516.734C517.73 1096.7 519.127 1095.48 520.924 1094.62C522.721 1093.74 524.723 1093.3 526.93 1093.3C530.797 1093.3 533.707 1094.24 535.66 1096.12C537.613 1097.97 538.59 1100.95 538.59 1105.05V1126H533.727ZM563.082 1097.67H554.908V1126H550.045V1097.67H544.303V1095.47L550.045 1093.71V1091.93C550.045 1084.04 553.492 1080.09 560.387 1080.09C562.086 1080.09 564.078 1080.43 566.363 1081.12L565.104 1085.01C563.229 1084.41 561.627 1084.11 560.299 1084.11C558.463 1084.11 557.105 1084.72 556.227 1085.95C555.348 1087.16 554.908 1089.12 554.908 1091.81V1093.89H563.082V1097.67ZM568.238 1122.89C568.238 1121.59 568.531 1120.6 569.117 1119.94C569.723 1119.25 570.582 1118.91 571.695 1118.91C572.828 1118.91 573.707 1119.25 574.332 1119.94C574.977 1120.6 575.299 1121.59 575.299 1122.89C575.299 1124.16 574.977 1125.14 574.332 1125.82C573.688 1126.51 572.809 1126.85 571.695 1126.85C570.699 1126.85 569.869 1126.55 569.205 1125.94C568.561 1125.32 568.238 1124.3 568.238 1122.89ZM606.91 1126V1105.23C606.91 1102.61 606.314 1100.66 605.123 1099.37C603.932 1098.08 602.066 1097.44 599.527 1097.44C596.168 1097.44 593.707 1098.34 592.145 1100.16C590.582 1101.98 589.801 1104.97 589.801 1109.15V1126H584.938V1093.89H588.893L589.684 1098.29H589.918C590.914 1096.7 592.311 1095.48 594.107 1094.62C595.904 1093.74 597.906 1093.3 600.113 1093.3C603.98 1093.3 606.891 1094.24 608.844 1096.12C610.797 1097.97 611.773 1100.95 611.773 1105.05V1126H606.91ZM635.357 1126.59C630.611 1126.59 626.861 1125.14 624.107 1122.25C621.373 1119.36 620.006 1115.35 620.006 1110.21C620.006 1105.03 621.275 1100.92 623.814 1097.88C626.373 1094.83 629.801 1093.3 634.098 1093.3C638.121 1093.3 641.305 1094.63 643.648 1097.29C645.992 1099.93 647.164 1103.41 647.164 1107.75V1110.82H625.045C625.143 1114.59 626.09 1117.46 627.887 1119.41C629.703 1121.36 632.252 1122.34 635.533 1122.34C638.99 1122.34 642.408 1121.62 645.787 1120.17V1124.51C644.068 1125.25 642.438 1125.78 640.895 1126.09C639.371 1126.42 637.525 1126.59 635.357 1126.59ZM634.039 1097.38C631.461 1097.38 629.4 1098.22 627.857 1099.9C626.334 1101.58 625.436 1103.9 625.162 1106.87H641.949C641.949 1103.8 641.266 1101.46 639.898 1099.84C638.531 1098.2 636.578 1097.38 634.039 1097.38ZM665.855 1122.57C666.715 1122.57 667.545 1122.51 668.346 1122.4C669.146 1122.26 669.781 1122.12 670.25 1121.99V1125.71C669.723 1125.96 668.941 1126.17 667.906 1126.32C666.891 1126.5 665.973 1126.59 665.152 1126.59C658.941 1126.59 655.836 1123.31 655.836 1116.77V1097.67H651.236V1095.33L655.836 1093.3L657.887 1086.45H660.699V1093.89H670.016V1097.67H660.699V1116.57C660.699 1118.5 661.158 1119.98 662.076 1121.02C662.994 1122.05 664.254 1122.57 665.855 1122.57Z" />
  <defs
     id="defs1326">
    <rect
       id="rect1340"
       height="50.38674"
       width="25.19337"
       y="816.79558"
       x="415.69061" />
    <linearGradient
       gradientTransform="translate(1.0802338e-6,1.0716418e-5)"
       gradientUnits="userSpaceOnUse"
       y2="1225.5"
       x2="-62"
       y1="64"
       x1="1061.5"
       id="paint0_linear">
      <stop
         id="stop1214"
         stop-color="#C2DEFF"
         offset="0.0213813" />
      <stop
         id="stop1216"
         stop-color="#0F70E3"
         offset="0.866948" />
    </linearGradient>
    <linearGradient
       gradientUnits="userSpaceOnUse"
       y2="282.347"
       x2="1022.27"
       y1="201.573"
       x1="1036.06"
       id="paint1_linear">
      <stop
         id="stop1219"
         stop-color="#958FE7"
         offset="0.2584" />
      <stop
         id="stop1221"
         stop-color="#BBB7EF"
         offset="0.4497" />
    </linearGradient>
    <radialGradient
       gradientTransform="translate(1048.48 271.7) rotate(-160.28) scale(23.631)"
       gradientUnits="userSpaceOnUse"
       r="1"
       cy="0"
       cx="0"
       id="paint2_radial">
      <stop
         id="stop1224"
         stop-color="#A08BE8" />
      <stop
         id="stop1226"
         stop-color="#8065E0"
         offset="1" />
    </radialGradient>
    <linearGradient
       gradientUnits="userSpaceOnUse"
       y2="323.651"
       x2="922.199"
       y1="267.779"
       x1="922.199"
       id="paint3_linear">
      <stop
         id="stop1229"
         stop-color="#958FE7"
         offset="0.1788" />
      <stop
         id="stop1231"
         stop-color="#BBB7EF"
         offset="0.4497" />
    </linearGradient>
    <linearGradient
       gradientUnits="userSpaceOnUse"
       y2="310.425"
       x2="970.874"
       y1="269.054"
       x1="967.254"
       id="paint4_linear">
      <stop
         id="stop1234"
         stop-color="#958FE7"
         offset="0.1788" />
      <stop
         id="stop1236"
         stop-color="#BBB7EF"
         offset="0.4497" />
    </linearGradient>
    <radialGradient
       gradientTransform="translate(980.246 167.478) scale(88.7316)"
       gradientUnits="userSpaceOnUse"
       r="1"
       cy="0"
       cx="0"
       id="paint5_radial">
      <stop
         id="stop1239"
         stop-color="#A08BE8"
         offset="0.4744" />
      <stop
         id="stop1241"
         stop-color="#8065E0"
         offset="0.8618" />
    </radialGradient>
    <radialGradient
       gradientTransform="translate(1055.07 159.083) scale(80.9827)"
       gradientUnits="userSpaceOnUse"
       r="1"
       cy="0"
       cx="0"
       id="paint6_radial">
      <stop
         id="stop1244"
         stop-color="#E1DFDD" />
      <stop
         id="stop1246"
         stop-color="#EDECEB"
         offset="0.1047" />
      <stop
         id="stop1248"
         stop-color="white"
         offset="0.7337" />
    </radialGradient>
    <radialGradient
       gradientTransform="translate(948.949 218.188) scale(75.6291)"
       gradientUnits="userSpaceOnUse"
       r="1"
       cy="0"
       cx="0"
       id="paint7_radial">
      <stop
         id="stop1251"
         stop-color="#512BD4" />
      <stop
         id="stop1253"
         stop-color="#6645D9"
         offset="0.5045" />
      <stop
         id="stop1255"
         stop-color="#7659DD"
         offset="0.7759" />
      <stop
         id="stop1257"
         stop-color="#8065E0"
         offset="1" />
    </radialGradient>
    <radialGradient
       gradientTransform="translate(902.969 233.153) scale(55.1625)"
       gradientUnits="userSpaceOnUse"
       r="1"
       cy="0"
       cx="0"
       id="paint8_radial">
      <stop
         id="stop1260"
         stop-color="#A08BE8"
         offset="0.4614" />
      <stop
         id="stop1262"
         stop-color="#A793EA"
         offset="0.5268" />
      <stop
         id="stop1264"
         stop-color="#C5B7F0"
         offset="0.8352" />
      <stop
         id="stop1266"
         stop-color="#D0C5F3"
         offset="1" />
    </radialGradient>
    <radialGradient
       gradientTransform="translate(972.365 101.601) scale(13.0775)"
       gradientUnits="userSpaceOnUse"
       r="1"
       cy="0"
       cx="0"
       id="paint9_radial">
      <stop
         id="stop1269"
         stop-color="#8065E0" />
      <stop
         id="stop1271"
         stop-color="#512BD4"
         offset="0.8628" />
    </radialGradient>
    <radialGradient
       gradientTransform="translate(964.481 313.635) rotate(-5.00064) scale(25.2924 25.1002)"
       gradientUnits="userSpaceOnUse"
       r="1"
       cy="0"
       cx="0"
       id="paint10_radial">
      <stop
         id="stop1274"
         stop-color="#8065E0" />
      <stop
         id="stop1276"
         stop-color="#512BD4"
         offset="0.8628" />
    </radialGradient>
    <radialGradient
       gradientTransform="translate(984.895 59.6055) scale(22.9553)"
       gradientUnits="userSpaceOnUse"
       r="1"
       cy="0"
       cx="0"
       id="paint11_radial">
      <stop
         id="stop1279"
         stop-color="#A08BE8" />
      <stop
         id="stop1281"
         stop-color="#8065E0"
         offset="1" />
    </radialGradient>
    <radialGradient
       gradientTransform="translate(1014.15 145.261) rotate(-77.9485) scale(27.4759)"
       gradientUnits="userSpaceOnUse"
       r="1"
       cy="0"
       cx="0"
       id="paint12_radial">
      <stop
         id="stop1284"
         stop-color="#BDB9F0"
         offset="0.3607" />
      <stop
         id="stop1286"
         stop-opacity="0.3855"
         stop-color="#C3BCEB"
         offset="0.5611" />
      <stop
         id="stop1288"
         stop-opacity="0.3217"
         stop-color="#CEC3E2"
         offset="0.6338" />
      <stop
         id="stop1290"
         stop-opacity="0.1152"
         stop-color="#EDD6C9"
         offset="0.8689" />
      <stop
         id="stop1292"
         stop-opacity="0"
         stop-color="#F9DDBF"
         offset="1" />
    </radialGradient>
    <radialGradient
       gradientTransform="translate(909.182 146.902) rotate(173.834) scale(33.0284)"
       gradientUnits="userSpaceOnUse"
       r="1"
       cy="0"
       cx="0"
       id="paint13_radial">
      <stop
         id="stop1295"
         stop-color="#BDB9F0" />
      <stop
         id="stop1297"
         stop-opacity="0.3855"
         stop-color="#C3BCEB"
         offset="0.5266" />
      <stop
         id="stop1299"
         stop-opacity="0.3217"
         stop-color="#CEC3E2"
         offset="0.605" />
      <stop
         id="stop1301"
         stop-opacity="0.1152"
         stop-color="#EDD6C9"
         offset="0.8586" />
      <stop
         id="stop1303"
         stop-opacity="0"
         stop-color="#F9DDBF"
         offset="1" />
    </radialGradient>
    <linearGradient
       gradientUnits="userSpaceOnUse"
       y2="298.916"
       x2="987.56"
       y1="195.386"
       x1="908.611"
       id="paint14_linear">
      <stop
         id="stop1306"
         stop-color="#958FE7"
         offset="0.1788" />
      <stop
         id="stop1308"
         stop-color="#BBB7EF"
         offset="0.4497" />
    </linearGradient>
    <radialGradient
       gradientTransform="translate(916.011 181.473) scale(24.1946)"
       gradientUnits="userSpaceOnUse"
       r="1"
       cy="0"
       cx="0"
       id="paint15_radial">
      <stop
         id="stop1311"
         stop-color="#8065E0" />
      <stop
         id="stop1313"
         stop-color="#512BD4"
         offset="0.8628" />
    </radialGradient>
    <radialGradient
       gradientTransform="translate(901.047 315.577) rotate(93.8441) scale(25.2933 25.0999)"
       gradientUnits="userSpaceOnUse"
       r="1"
       cy="0"
       cx="0"
       id="paint16_radial">
      <stop
         id="stop1316"
         stop-color="#8065E0" />
      <stop
         id="stop1318"
         stop-color="#512BD4"
         offset="0.8628" />
    </radialGradient>
    <radialGradient
       gradientTransform="translate(987.241 290.973) rotate(-127.328) scale(23.6331)"
       gradientUnits="userSpaceOnUse"
       r="1"
       cy="0"
       cx="0"
       id="paint17_radial">
      <stop
         id="stop1321"
         stop-color="#A08BE8" />
      <stop
         id="stop1323"
         stop-color="#8065E0"
         offset="1" />
    </radialGradient>
    <radialGradient
       id="paint0_radial"
       cx="0"
       cy="0"
       r="1"
       gradientUnits="userSpaceOnUse"
       gradientTransform="matrix(276.68595,7.5153177,-4.3429722,159.89203,316.474,172.352)">
      <stop
         offset="0.1821"
         stop-color="#E1EFF9"
         id="stop1800" />
      <stop
         offset="0.9144"
         stop-color="#B8D6F7"
         id="stop1802" />
    </radialGradient>
    <radialGradient
       id="paint1_radial"
       cx="0"
       cy="0"
       r="1"
       gradientUnits="userSpaceOnUse"
       gradientTransform="matrix(48.9061,0,0,48.9061,193.225,121.496)">
      <stop
         offset="0.0613"
         stop-color="#1BA6C5"
         id="stop1805" />
      <stop
         offset="0.8867"
         stop-color="#57CACF"
         id="stop1807" />
    </radialGradient>
    <linearGradient
       id="paint2_linear"
       x1="233.742"
       y1="204.861"
       x2="233.742"
       y2="177.871"
       gradientUnits="userSpaceOnUse">
      <stop
         offset="0.0613"
         stop-color="#1BA6C5"
         id="stop1810" />
      <stop
         offset="0.8867"
         stop-color="#57CACF"
         id="stop1812" />
    </linearGradient>
    <linearGradient
       id="paint3_linear-8"
       x1="245.105"
       y1="170.765"
       x2="245.883"
       y2="204.73"
       gradientUnits="userSpaceOnUse">
      <stop
         offset="0.252"
         stop-color="#522CD5"
         id="stop1815" />
      <stop
         offset="0.5558"
         stop-color="#8A6FE8"
         id="stop1817" />
    </linearGradient>
    <linearGradient
       id="paint4_linear-7"
       x1="245.387"
       y1="202.799"
       x2="259.183"
       y2="243.453"
       gradientUnits="userSpaceOnUse">
      <stop
         stop-color="#522CD5"
         id="stop1820" />
      <stop
         offset="0.4397"
         stop-color="#8A6FE8"
         id="stop1822" />
    </linearGradient>
    <radialGradient
       id="paint5_radial-7"
       cx="0"
       cy="0"
       r="1"
       gradientUnits="userSpaceOnUse"
       gradientTransform="matrix(14.849061,2.6975679,-2.5628513,14.107498,256.631,225.809)">
      <stop
         offset="0.034"
         stop-color="#522CD5"
         id="stop1825" />
      <stop
         offset="0.9955"
         stop-color="#8A6FE8"
         id="stop1827" />
    </radialGradient>
    <linearGradient
       id="paint6_linear"
       x1="226.255"
       y1="173.737"
       x2="236.85"
       y2="203.477"
       gradientUnits="userSpaceOnUse">
      <stop
         offset="0.252"
         stop-color="#522CD5"
         id="stop1830" />
      <stop
         offset="0.5558"
         stop-color="#8A6FE8"
         id="stop1832" />
    </linearGradient>
    <radialGradient
       id="paint7_radial-4"
       cx="0"
       cy="0"
       r="1"
       gradientUnits="userSpaceOnUse"
       gradientTransform="matrix(-45.838655,6.8874429,-6.5590378,-43.652989,238.121,119.872)">
      <stop
         offset="0.4744"
         stop-color="#A08BE8"
         id="stop1835" />
      <stop
         offset="0.8618"
         stop-color="#8065E0"
         id="stop1837" />
    </radialGradient>
    <radialGradient
       id="paint8_radial-8"
       cx="0"
       cy="0"
       r="1"
       gradientUnits="userSpaceOnUse"
       gradientTransform="matrix(-47.503566,7.1376025,-6.797266,-45.238492,269.491,116.82)">
      <stop
         offset="0.0933"
         stop-color="#E1DFDD"
         id="stop1840" />
      <stop
         offset="0.6573"
         stop-color="white"
         id="stop1842" />
    </radialGradient>
    <radialGradient
       id="paint9_radial-1"
       cx="0"
       cy="0"
       r="1"
       gradientUnits="userSpaceOnUse"
       gradientTransform="matrix(3.3355628,-7.9860929,7.6610459,3.1998,291.921,155.16)">
      <stop
         stop-color="#8065E0"
         id="stop1845" />
      <stop
         offset="1"
         stop-color="#512BD4"
         id="stop1847" />
    </radialGradient>
    <linearGradient
       id="paint10_linear"
       x1="229.61"
       y1="202.566"
       x2="223.975"
       y2="245.632"
       gradientUnits="userSpaceOnUse">
      <stop
         stop-color="#522CD5"
         id="stop1850" />
      <stop
         offset="0.4397"
         stop-color="#8A6FE8"
         id="stop1852" />
    </linearGradient>
    <radialGradient
       id="paint11_radial-8"
       cx="0"
       cy="0"
       r="1"
       gradientUnits="userSpaceOnUse"
       gradientTransform="matrix(11.048029,7.7675082,-7.9107769,11.251806,230.405,230.712)">
      <stop
         offset="0.034"
         stop-color="#522CD5"
         id="stop1855" />
      <stop
         offset="0.9955"
         stop-color="#8A6FE8"
         id="stop1857" />
    </radialGradient>
    <linearGradient
       id="paint12_linear"
       x1="190.523"
       y1="155.62"
       x2="217.391"
       y2="180.931"
       gradientUnits="userSpaceOnUse">
      <stop
         offset="0.2495"
         stop-color="#967FE6"
         id="stop1860" />
      <stop
         offset="0.6748"
         stop-color="#8A6FE8"
         id="stop1862" />
    </linearGradient>
    <radialGradient
       id="paint13_radial-4"
       cx="0"
       cy="0"
       r="1"
       gradientUnits="userSpaceOnUse"
       gradientTransform="matrix(-0.67517908,8.3960862,-8.4996219,-0.68350501,223.722,175.887)">
      <stop
         stop-color="#8065E0"
         id="stop1865" />
      <stop
         offset="1"
         stop-color="#512BD4"
         id="stop1867" />
    </radialGradient>
    <radialGradient
       id="paint14_radial"
       cx="0"
       cy="0"
       r="1"
       gradientUnits="userSpaceOnUse"
       gradientTransform="matrix(8.4540299,-1.2702687,1.2097013,8.0509348,199.435,145.499)">
      <stop
         stop-color="#8065E0"
         id="stop1870" />
      <stop
         offset="1"
         stop-color="#512BD4"
         id="stop1872" />
    </radialGradient>
    <linearGradient
       id="paint15_linear"
       x1="336.103"
       y1="162.342"
       x2="336.103"
       y2="266.801"
       gradientUnits="userSpaceOnUse">
      <stop
         offset="0.0613"
         stop-color="#1BA6C5"
         id="stop1875" />
      <stop
         offset="0.252"
         stop-color="#57CACF"
         id="stop1877" />
    </linearGradient>
  </defs>
  <text
     id="text1336"
     y="913.86737"
     x="92.220993"
     style="font-style:normal;font-variant:normal;font-weight:normal;font-stretch:normal;font-size:85.3333px;line-height:1.25;font-family:'Open Sans';-inkscape-font-specification:'Open Sans';fill:#000000;fill-opacity:1;stroke:none"
     xml:space="preserve"><tspan
       style="font-size:85.3333px;fill:#ffffff"
       y="913.86737"
       x="92.220993"
       id="tspan1334"
       sodipodi:role="line">Focus on Windows</tspan></text>
  <text
     style="fill:black;fill-opacity:1;line-height:1.25;stroke:none;font-family:sans-serif;font-style:normal;font-weight:normal;font-size:40px;white-space:pre;shape-inside:url(#rect1340);"
     id="text1338"
     xml:space="preserve" />
  <text
     id="text1346"
     y="1050.1547"
     x="93.480659"
     style="font-style:normal;font-weight:normal;font-size:40px;line-height:1.25;font-family:sans-serif;fill:#000000;fill-opacity:1;stroke:none"
     xml:space="preserve"><tspan
       style="font-style:normal;font-variant:normal;font-weight:normal;font-stretch:normal;font-size:53.3333px;font-family:'Open Sans';-inkscape-font-specification:'Open Sans';fill:#ffffff"
       y="1050.1547"
       x="93.480659"
       id="tspan1344"
       sodipodi:role="line">February 25, 2021</tspan></text>
  <g
     transform="matrix(1.9260426,0,0,1.9260426,152.14263,57.408274)"
     id="g2027"
     style="fill:none">
    <path
       style="fill:url(#paint0_radial)"
       d="m 467.43,218.16 c -110.5,45.41 -273.32,55.48 -325.37,4.52 -60.12,-58.85 34.4,-130.29 121.18,-97.13 57.67,22.03 133.27,18.38 181.12,12.24 81.12,-10.42 98.17,49.51 23.07,80.37 z"
       fill="url(#paint0_radial)"
       id="path1618" />
    <path
       d="m 263.738,70.1929 -1.168,1.624 0.812,0.5836 1.168,-1.624 z"
       fill="#908d89"
       id="path1620" />
    <path
       d="m 309.19,105.27 -1.7,-1.22 1.16,-1.62 1.7,1.22 z m -5.09,-3.65 -1.7,-1.22 1.17,-1.6199 1.7,1.2199 z m -5.09,-3.6499 -1.7,-1.22 1.16,-1.62 1.7,1.22 z m -5.09,-3.65 -1.7,-1.22 1.17,-1.62 1.7,1.22 z m -5.08,-3.66 -1.7,-1.22 1.16,-1.62 1.7,1.22 z m -5.09,-3.65 -1.7,-1.22 1.17,-1.62 1.7,1.22 z m -5.09,-3.65 -1.7,-1.22 1.16,-1.62 1.7,1.22 z m -5.09,-3.65 -1.7,-1.22 1.17,-1.62 1.7,1.22 z m -5.09,-3.66 -1.7,-1.22 1.16,-1.62 1.7,1.22 z"
       fill="#908d89"
       id="path1622" />
    <path
       d="m 313.754,106.082 -1.166,1.625 0.813,0.583 1.166,-1.625 z"
       fill="#908d89"
       id="path1624" />
    <path
       d="m 336.06,97.1 -2,-0.1 0.1,-2 2,0.1 z m 0.29,-6 -2,-0.1 0.1,-2 2,0.1 z m 0.29,-5.99 -2,-0.1 0.1,-2 2,0.1 z"
       fill="#908d89"
       id="path1626" />
    <path
       d="m 362.6,97.76 -1.22,-1.58 1.58,-1.22 1.22,1.58 z m 4.75,-3.66 -1.22,-1.58 1.58,-1.22 1.22,1.58 z m 4.75,-3.66 -1.22,-1.58 1.59,-1.22 1.22,1.58 z m 4.76,-3.66 -1.22,-1.58 1.58,-1.22 1.22,1.58 z m 4.75,-3.66 -1.22,-1.58 1.58,-1.22 1.22,1.58 z m 4.75,-3.66 -1.22,-1.58 1.59,-1.22 1.22,1.58 z m 4.76,-3.66 -1.22,-1.58 1.58,-1.22 1.22,1.58 z"
       fill="#908d89"
       id="path1628" />
    <path
       d="m 364.56,117.56 -0.39,-1.96 1.96,-0.39 0.39,1.96 z m 5.88,-1.16 -0.39,-1.96 1.96,-0.39 0.39,1.96 z m 5.89,-1.17 -0.39,-1.96 1.96,-0.39 0.39,1.96 z m 5.88,-1.16 -0.39,-1.96 1.96,-0.39 0.39,1.96 z m 5.89,-1.17 -0.39,-1.96 1.96,-0.39 0.39,1.96 z m 5.89,-1.16 -0.39,-1.96 1.96,-0.39 0.39,1.96 z m 5.88,-1.17 -0.39,-1.96 1.96,-0.39 0.39,1.96 z m 5.89,-1.16 -0.39,-1.96 1.96,-0.39 0.39,1.96 z m 5.89,-1.17 -0.39,-1.96 1.96,-0.39 0.39,1.96 z m 5.88,-1.17 -0.39,-1.96 1.96,-0.39 0.39,1.96 z m 5.89,-1.16 -0.39,-1.96 1.96,-0.39 0.39,1.96 z m 5.88,-1.17 -0.39,-1.96 1.96,-0.39 0.39,1.96 z m 5.89,-1.16 -0.39,-1.96 1.96,-0.39 0.39,1.96 z m 5.88,-1.17 -0.39,-1.96 1.96,-0.39 0.39,1.96 z m 5.89,-1.16 -0.39,-1.96 1.96,-0.39 0.39,1.96 z"
       fill="#908d89"
       id="path1630" />
    <path
       d="m 311.92,118.66 -1.81,-0.49 0.52,-1.93 1.81,0.49 z m -5.67,-1.53 -1.93,-0.52 0.52,-1.93 1.93,0.52 z m -5.79,-1.57 -1.93,-0.52 0.52,-1.93 1.93,0.52 z m -5.79,-1.57 -1.93,-0.52 0.52,-1.93 1.93,0.52 z m -5.79,-1.57 -1.93,-0.52 0.52,-1.93 1.93,0.52 z m -5.79,-1.57 -1.93,-0.52 0.52,-1.93 1.93,0.52 z m -5.8,-1.57 -1.93,-0.52 0.52,-1.93 1.93,0.52 z m -5.79,-1.57 -1.93,-0.52 0.52,-1.93 1.93,0.52 z m -5.79,-1.57 -1.93,-0.52 0.52,-1.93 1.93,0.52 z m -5.79,-1.57 -1.93,-0.52 0.52,-1.93 1.93,0.52 z m -5.79,-1.57 -1.93,-0.52 0.52,-1.93 1.93,0.52 z m -5.79,-1.57 -1.93,-0.52 0.52,-1.93 1.93,0.52 z m -5.79,-1.57 -1.93,-0.52 0.52,-1.93 1.93,0.52 z m -5.79,-1.57 -1.93,-0.52 0.52,-1.93 1.93,0.52 z m -5.8,-1.57 -1.93,-0.52 0.52,-1.93 1.93,0.52 z m -5.79,-1.57 -1.93,-0.52 0.52,-1.93 1.93,0.52 z m -5.79,-1.57 -1.93,-0.52 0.52,-1.93 1.93,0.52 z m -5.79,-1.57 -1.93,-0.52 0.52,-1.93 1.93,0.52 z m -5.79,-1.57 -1.93,-0.52 0.52,-1.93 1.93,0.52 z"
       fill="#908d89"
       id="path1632" />
    <path
       d="m 283.23,204.07 c -0.71,-2.92 -3.51,-7.09 -10.67,-6.85 l -2.86,0.2 -0.13,-0.1 -1.61,0.22 -64.5,4.42 c -5.56,0 -10.38,3.51 -11.7,8.53 l -12.37,52.59 h 4.2 l 12.14,-51.69 c 0.68,-2.57 2.4,-3.92 4.78,-4.27 9.35,0 19.35,0.5 25.69,0.84 -1.15,1.92 -2.01,4.42 -2.44,7.81 l -1.44,34.09 h 4.08 l 1.42,-33.72 c 0.42,-3.71 1.69,-6.18 3.29,-7.92 0.19,0.01 0.38,0.02 0.54,0.02 0.09,0 0.17,-0.01 0.26,-0.01 4.72,0.83 8.86,2.58 9.85,8.08 l 6.08,55.24 h 4.09 l -5.68,-55.27 c -0.56,-4.82 -3.55,-8.46 -8.38,-10.44 l 35.27,-4.9 c 2.82,-0.13 5.28,1.32 6.2,4.22 l 16.2,52.63 L 299,256 Z"
       fill="#c8c6c4"
       id="path1634" />
    <path
       style="fill:url(#paint1_radial)"
       d="m 219.75,199.04 c 0,0 -18,4.55 -27.08,4.55 -9.07,0 -13.58,-8.06 -15.92,-20.62 -2.34,-12.56 -6.86,-50.42 -4.39,-61.4 1.76,-7.82 7.02,-10.89 15.8,-11.16 5.26,-0.17 16.97,-0.56 27.8,1.12 10.83,1.67 18.21,17.17 24.87,27.35 19.9,30.42 32.89,50.11 32.89,50.11 z"
       fill="url(#paint1_radial)"
       id="path1636" />
    <path
       style="fill:url(#paint2_linear)"
       d="m 275.32,197.41 -56.83,7.45 c -4.34,0 -34.18,-4.58 -34.18,-8.9 v -3.89 c 0,-4.32 15.94,-7.06 20.29,-7.06 l 70.73,-7.14 c 4.34,0 7.86,3.5 7.86,7.82 v 3.89 c -0.01,4.33 -3.53,7.83 -7.87,7.83 z"
       fill="url(#paint2_linear)"
       id="path1638" />
    <path
       d="m 300.25,157.98 c -0.64,0.42 -15.9,10.33 -30.5,5.2 -8.44,-2.96 -14.74,-10.16 -18.73,-21.4 l 7.71,-3.09 c 3.09,8.69 7.68,14.16 13.65,16.27 10.89,3.85 23.43,-4.22 23.55,-4.3 z"
       fill="#8a6fe8"
       id="path1640" />
    <path
       d="m 249.59,204.63 c 1.35,-6.83 2.91,-20.91 -2.36,-33.93 l -8.05,2.84 c 4.78,11.81 3,24.21 1.84,29.56 -0.09,0.44 4.19,1.66 8.57,1.53 z"
       fill="url(#paint3_linear)"
       id="path1642"
       style="fill:url(#paint3_linear-8)" />
    <path
       d="m 241.04,203.03 6.74,1.22 -0.08,35.38 -13.52,-2.46 c -1.03,-0.19 -1.66,-1.12 -1.41,-2.09 z"
       fill="#522cd5"
       id="path1644" />
    <path
       d="m 263.78,233.31 c 1,1.09 0.75,2.36 0.41,3.68 l -1.04,4.05 c -0.19,0.72 -0.97,1.2 -1.75,1.06 l -14.09,-2.56 c -0.88,-0.16 -1.41,-0.95 -1.2,-1.78 l 0.89,-4.23 c 0.39,-1.52 -0.05,-2.19 -1.03,-3.88 -1.69,-2.89 -5.54,-17.62 -3.29,-26.33 l 6.94,1.26 c -0.54,5.33 4.57,18.31 14.16,28.73 z"
       fill="url(#paint4_linear)"
       id="path1646"
       style="fill:url(#paint4_linear-7)" />
    <path
       d="m 264.18,236.99 c 0.24,-0.92 0.42,-1.82 0.18,-2.64 l -17.58,-3.19 c 0.36,0.77 0.45,1.4 0.2,2.38 l -0.89,4.23 c -0.21,0.82 0.33,1.62 1.2,1.77 l 14.09,2.56 c 0.77,0.14 1.56,-0.34 1.75,-1.06 z"
       fill="url(#paint5_radial)"
       id="path1648"
       style="fill:url(#paint5_radial-7)" />
    <path
       style="fill:url(#paint6_linear)"
       d="m 223.29,200.98 c 6.97,-7.64 11.26,-12.06 11.06,-14.25 -0.05,-0.55 -0.73,-1.65 -3.71,-3.8 -2.52,-1.82 -5.45,-3.88 -5.45,-3.89 l 5.25,-6.73 c 0,0 2.96,2.09 5.51,3.93 3.4,2.45 6.61,5.3 6.98,9.5 0.52,5.77 -2.4,8.87 -12.68,20.14 z"
       fill="url(#paint6_linear)"
       id="path1650" />
    <path
       d="m 273.97,143.53 c 1.2,-11.55 -2.24,-20.11 -2.24,-20.11 l 2.75,-0.41 0.06,-0.06 c -7.32,-19.76 -28.66,-32.37 -51.22,-28.98 -25.42,3.82 -42.77,26.49 -38.75,50.64 4.02,24.15 27.89,40.63 53.31,36.81 20.06,-3.01 35.09,-17.77 38.56,-35.72 0.06,-0.75 -0.17,-2.05 -2.47,-2.17 z"
       fill="url(#paint7_radial)"
       id="path1652"
       style="fill:url(#paint7_radial-4)" />
    <path
       d="m 274.06,153.86 -79.48,11.94 c 2.26,2.61 4.82,4.95 7.62,7 l 66.87,-10.05 c 2.02,-2.77 3.69,-5.75 4.99,-8.89 z"
       fill="#d8cff7"
       id="path1654" />
    <path
       d="m 251.28,167.86 14.92,-2.24 -2.09,-12.53 -14.91,2.24 z"
       fill="#512bd4"
       id="path1656" />
    <path
       d="m 253.11,162.8 c -0.1,0.01 -0.19,0 -0.27,-0.06 -0.08,-0.05 -0.13,-0.13 -0.14,-0.21 -0.01,-0.09 0.01,-0.17 0.07,-0.25 0.06,-0.07 0.14,-0.12 0.24,-0.13 0.1,-0.01 0.19,0 0.27,0.06 0.08,0.05 0.13,0.13 0.14,0.22 0.01,0.09 -0.01,0.17 -0.07,0.25 -0.06,0.06 -0.14,0.1 -0.24,0.12 z"
       fill="#ffffff"
       id="path1658" />
    <path
       d="m 257.07,162.16 -0.65,0.1 -2.12,-2.3 c -0.05,-0.06 -0.1,-0.12 -0.14,-0.18 h -0.01 c 0.03,0.07 0.06,0.23 0.1,0.47 l 0.37,2.27 -0.57,0.08 -0.57,-3.47 0.69,-0.1 2.05,2.24 c 0.09,0.09 0.14,0.16 0.17,0.19 h 0.01 c -0.03,-0.09 -0.07,-0.24 -0.1,-0.46 l -0.37,-2.23 0.57,-0.08 z"
       fill="#ffffff"
       id="path1660" />
    <path
       d="m 259.85,161.75 -2,0.3 -0.57,-3.47 1.92,-0.28 0.08,0.49 -1.33,0.2 0.16,0.98 1.22,-0.18 0.08,0.49 -1.22,0.18 0.17,1.02 1.41,-0.21 z"
       fill="#ffffff"
       id="path1662" />
    <path
       d="m 262.2,158.35 -1.02,0.15 0.49,2.98 -0.59,0.09 -0.49,-2.98 -1.02,0.15 -0.08,-0.49 2.63,-0.39 z"
       fill="#ffffff"
       id="path1664" />
    <path
       d="m 274.07,143.51 c 1.18,-11.41 -2.15,-19.89 -2.24,-20.1 l -47.75,7.17 c 0,0 -3.06,0.16 -2.62,2.77 0.43,2.61 1.78,9.97 3.13,18.13 0.28,1.68 1.86,2.27 3,2.1 0,0 45.58,-8.08 46.48,-10.07 z"
       fill="url(#paint8_radial)"
       id="path1666"
       style="fill:url(#paint8_radial-8)" />
    <path
       d="m 245.58,147.81 c 0,0 6.42,-6.63 7.69,-7.86 1.26,-1.24 2.51,-1.48 4,-0.6 1.49,0.88 9.76,5.24 9.76,5.24 z"
       fill="#a08be8"
       id="path1668" />
    <path
       d="m 276.34,146.28 c 0,0 0.98,-2.59 -2.27,-2.77 0,-0.01 -46.96,7.02 -46.96,7.02 -1.09,0.16 -2.6,-0.24 -2.89,-1.23 0.12,0.72 0.24,1.45 0.37,2.19 0.25,1.52 1.58,2.15 2.67,2.12 0.11,0 0.22,-0.01 0.33,-0.03 l 3.21,-0.48 z"
       fill="#512bd4"
       id="path1670" />
    <path
       d="m 238.036,144.607 c 1.974,-0.383 3.077,-3.255 2.463,-6.416 -0.613,-3.161 -2.709,-5.413 -4.683,-5.031 -1.973,0.383 -3.076,3.256 -2.463,6.417 0.613,3.161 2.71,5.413 4.683,5.03 z"
       fill="#512bd4"
       id="path1672" />
    <path
       d="m 236.42,136.01 c 0.62,-0.81 1.56,-1.27 2.53,-1.33 0.73,0.92 1.3,2.17 1.57,3.61 0.16,0.9 0.19,1.76 0.09,2.56 -1.09,0.48 -2.4,0.4 -3.44,-0.32 -1.52,-1.05 -1.86,-3.08 -0.75,-4.52 z"
       fill="#8065e0"
       id="path1674" />
    <path
       d="m 301.35,142.9 -11.04,6.98 c -1.82,1.15 -2.45,3.55 -1.41,5.36 l 0.19,0.32 c 1.04,1.81 3.37,2.34 5.19,1.19 l 11.04,-6.98 c 1.82,-1.15 2.45,-3.55 1.41,-5.36 l -0.19,-0.32 c -1.05,-1.81 -3.37,-2.34 -5.19,-1.19 z"
       fill="#8a6fe8"
       id="path1676" />
    <path
       d="m 295.65,164.93 7.87,2.27 c 2.1,0.59 4.28,-0.73 4.86,-2.94 0.58,-2.22 -0.65,-4.49 -2.75,-5.08 l -8.07,-2.33 z"
       fill="#8a6fe8"
       id="path1678" />
    <path
       d="m 299.37,162.38 11.16,-1.89 c 2.15,-0.37 3.63,-2.51 3.29,-4.77 -0.33,-2.26 -2.35,-3.79 -4.51,-3.42 l -8.3,1.38 z"
       fill="#8a6fe8"
       id="path1680" />
    <path
       d="m 298.71,159.92 10.49,-4.5 c 2.03,-0.87 3.02,-3.29 2.21,-5.41 -0.8,-2.12 -3.1,-3.14 -5.13,-2.28 l -10.68,4.58 z"
       fill="#8a6fe8"
       id="path1682" />
    <path
       d="m 288.38,151.67 c 2.6,-3.97 7.75,-4.99 11.5,-2.29 3.75,2.7 4.68,8.11 2.07,12.08 -2.6,3.97 -7.75,4.99 -11.5,2.29 -3.74,-2.71 -4.67,-8.12 -2.07,-12.08 z"
       fill="url(#paint9_radial)"
       id="path1684"
       style="fill:url(#paint9_radial-1)" />
    <path
       d="m 218.48,92.15 8.59,-1.32 -3.88,-14.59 -6.17,0.94 z"
       fill="#8a6fe8"
       id="path1686" />
    <path
       d="m 222.63,82.32 c -3,1.25 -6.51,-0.02 -7.85,-2.85 -1.33,-2.82 0.01,-6.11 3.02,-7.36 3,-1.25 6.51,0.02 7.85,2.85 1.33,2.82 -0.02,6.11 -3.02,7.36 z"
       fill="#d8cff7"
       id="path1688" />
    <path
       d="m 216.08,97.72 c -0.38,0.06 -0.76,-0.21 -0.77,-0.57 -0.22,-3.9 2.71,-7.41 6.91,-8.06 4.2,-0.64 8.18,1.8 9.31,5.56 0.11,0.36 -0.15,0.72 -0.53,0.77 z"
       fill="#522cd5"
       id="path1690" />
    <path
       d="m 223.37,200.94 5.42,3.81 -8.83,37.91 -19.3,-13.53 c -0.83,-0.58 -0.94,-1.68 -0.25,-2.46 z"
       fill="#522cd5"
       id="path1692" />
    <path
       style="fill:url(#paint10_linear)"
       d="m 230.77,238.6 c 0.5,1.35 -0.41,2.65 -1.35,3.71 l -2.9,3.25 c -0.52,0.58 -1.45,0.7 -2.07,0.26 l -6.82,-4.79 c -0.7,-0.5 -0.8,-1.43 -0.21,-2.09 l 2.84,-3.48 c 1.09,-1.22 1.6,-2.12 0.96,-3.93 -3.79,-10.69 -2.44,-20.62 4.08,-29.23 l 4.96,3.49 c -3.05,4.61 -6.01,15.07 0.51,32.81 z"
       fill="url(#paint10_linear)"
       id="path1694" />
    <path
       d="m 224.44,245.82 c 0.62,0.44 1.55,0.32 2.07,-0.26 l 2.9,-3.25 c 0.62,-0.7 1.22,-1.49 1.42,-2.34 l -9.38,-6.59 c -0.12,0.75 -0.56,1.36 -1.2,2.08 l -2.84,3.48 c -0.59,0.66 -0.49,1.59 0.21,2.09 z"
       fill="url(#paint11_radial)"
       id="path1696"
       style="fill:url(#paint11_radial-8)" />
    <path
       d="m 267.046,140.257 c 1.974,-0.383 3.077,-3.255 2.464,-6.416 -0.613,-3.161 -2.71,-5.413 -4.684,-5.031 -1.973,0.383 -3.076,3.256 -2.463,6.417 0.613,3.161 2.71,5.413 4.683,5.03 z"
       fill="#512bd4"
       id="path1698" />
    <path
       d="m 265.43,131.66 c 0.62,-0.81 1.56,-1.27 2.53,-1.33 0.73,0.92 1.3,2.17 1.57,3.61 0.16,0.9 0.19,1.76 0.09,2.56 -1.09,0.48 -2.4,0.4 -3.44,-0.32 -1.52,-1.05 -1.86,-3.08 -0.75,-4.52 z"
       fill="#8065e0"
       id="path1700" />
    <path
       style="fill:url(#paint12_linear)"
       d="m 195.01,176.3 c -3.68,-4.91 -3.99,-15.01 1.16,-26.35 0.96,-2.12 9,0.94 8.04,3.06 -5.33,11.79 -3.15,17.77 -2.46,18.51 1.84,1.99 7.37,1.9 13.74,-0.22 2.16,-0.72 4.56,0.53 5.35,2.78 0.79,2.26 -0.32,4.67 -2.48,5.38 -5.85,1.94 -16.56,4.25 -22.52,-2.17 -0.3,-0.31 -0.57,-0.64 -0.83,-0.99 z"
       fill="url(#paint12_linear)"
       id="path1702" />
    <path
       d="m 228.72,163.59 -11.91,3.88 c -1.96,0.64 -3,2.83 -2.32,4.9 l 0.12,0.37 c 0.68,2.06 2.83,3.22 4.79,2.58 l 11.91,-3.88 c 1.96,-0.64 3,-2.83 2.32,-4.9 l -0.12,-0.37 c -0.68,-2.07 -2.83,-3.22 -4.79,-2.58 z"
       fill="#8a6fe8"
       id="path1704" />
    <path
       d="m 218.65,183.4 7.37,4.41 c 1.97,1.16 4.43,0.56 5.5,-1.35 1.07,-1.91 0.33,-4.4 -1.64,-5.56 l -7.55,-4.52 z"
       fill="#8a6fe8"
       id="path1706" />
    <path
       d="m 221.56,182.5 11.56,1.47 c 2.23,0.28 4.18,-1.3 4.34,-3.52 0.16,-2.22 -1.52,-4.24 -3.75,-4.51 l -8.6,-1.12 z"
       fill="#8a6fe8"
       id="path1708" />
    <path
       d="m 221.71,178.86 11.47,-1.18 c 2.22,-0.22 3.74,-2.21 3.4,-4.43 -0.34,-2.22 -2.41,-3.84 -4.62,-3.62 l -11.68,1.19 z"
       fill="#8a6fe8"
       id="path1710" />
    <path
       d="m 214.3,168.86 c 3.47,-2.96 8.84,-2.43 12,1.19 3.16,3.62 2.89,8.95 -0.58,11.92 -3.47,2.96 -8.84,2.43 -12,-1.19 -3.16,-3.62 -2.9,-8.96 0.58,-11.92 z"
       fill="url(#paint13_radial)"
       id="path1712"
       style="fill:url(#paint13_radial-4)" />
    <path
       style="fill:url(#paint14_radial)"
       d="m 201.45,156.05 c 4.728,0 8.56,-3.64 8.56,-8.13 0,-4.49 -3.832,-8.13 -8.56,-8.13 -4.727,0 -8.56,3.64 -8.56,8.13 0,4.49 3.833,8.13 8.56,8.13 z"
       fill="url(#paint14_radial)"
       id="path1714" />
    <path
       d="m 171.84,125.29 c -1.13,14.09 2.78,46.29 4.9,57.69 2.34,12.56 7.02,20.93 16.1,20.93 l 25.56,0.99 c 1.29,0 1.99,-1.51 1.14,-2.49 -12.29,-14.16 -41.01,-50.78 -47.7,-77.12 z"
       fill="#1ba6c5"
       id="path1716" />
    <path
       d="m 385.78,262.32 c -1.09,-0.25 -98.34,-0.25 -99.44,0.01 -2.3,0.54 -2.7,2.32 -0.86,3.07 0.02,0.01 0.04,0.01 0.06,0.02 3.83,1.73 25.01,3.06 50.56,3.06 25.4,0 46.47,-1.31 50.49,-3.03 0.01,0 0.01,0 0.02,0 0.03,-0.01 0.05,-0.02 0.08,-0.03 0.01,0 0.01,-0.01 0.02,-0.01 1.83,-0.8 1.33,-2.57 -0.93,-3.09 z"
       fill="#1ba6c5"
       id="path1718" />
    <path
       style="fill:url(#paint15_linear)"
       d="m 353.94,259.77 c -7.02,-3.78 -14.93,-20.39 -14.93,-38.61 0,-15.52 0.52,-48.44 27.98,-52.73 l -28.4,-6.09 -1.64,0.2 -30.04,5.9 c 27.46,4.28 27.98,37.21 27.98,52.73 0,18.05 -9.77,34.8 -16.8,38.62 -19.37,0.52 -33.16,1.84 -33.16,3.39 0,2 22.91,3.63 51.18,3.63 28.26,0 51.18,-1.62 51.18,-3.63 -0.01,-1.56 -13.88,-2.89 -33.35,-3.41 z"
       fill="url(#paint15_linear)"
       id="path1720" />
    <path
       d="m 421.61,162.35 c -1.82,-0.32 -168.25,-0.2 -169.55,0.09 -2.82,0.64 -3.94,2.88 0.71,3.76 h 0.01 c 8.89,1.9 43.23,3.32 84.24,3.32 42.06,0 77.1,-1.49 84.86,-3.46 h 0.01 c 4.23,-0.93 3.47,-3.04 -0.28,-3.71 z"
       fill="#57cacf"
       id="path1722" />
    <path
       d="m 337.02,167.54 c 47.762,0 86.48,-1.921 86.48,-4.29 0,-2.369 -38.718,-4.29 -86.48,-4.29 -47.762,0 -86.48,1.921 -86.48,4.29 0,2.369 38.718,4.29 86.48,4.29 z"
       fill="#9fe4eb"
       id="path1724" />
    <path
       d="m 266.54,159.14 49.93,-4.36 c 0,0 -3.68,6.99 -4.05,6.99 -0.36,0.01 -45.88,-2.63 -45.88,-2.63 z"
       fill="#c8c6c4"
       id="path1726" />
    <path
       d="m 344.97,162.46 h -75.11 c -1.83,0 -3.31,-1.48 -3.31,-3.31 h 81.74 c -0.01,1.82 -1.49,3.31 -3.32,3.31 z"
       fill="#605d5a"
       id="path1728" />
    <path
       d="m 308.78,162.46 h -38.92 c -1.83,0 -3.31,-1.48 -3.31,-3.31 h 81.74 -36.19 c -0.01,1.82 -1.5,3.31 -3.32,3.31 z"
       fill="#797673"
       id="path1730" />
    <path
       d="m 360.7,100.1 -37.7,0.41 c -0.89,0.01 -1.65,0.64 -1.82,1.51 l -11.57,57.12 h 38.65 l 14.7,-56.16 c 0.37,-1.46 -0.75,-2.89 -2.26,-2.88 z"
       fill="#b3afab"
       id="path1732" />
    <path
       d="m 360.7,100.1 -35.25,0.41 c -0.89,0.01 -1.65,0.64 -1.82,1.51 l -11.57,57.12 h 36.19 l 14.7,-56.16 c 0.38,-1.46 -0.74,-2.89 -2.25,-2.88 z"
       fill="#737373"
       id="path1734" />
    <path
       d="m 328.97,166.51 h -10.3 l -1.87,-23.18 h 14.05 z"
       fill="#ffffff"
       id="path1736" />
    <path
       d="m 330.48,147.93 0.37,-4.6 H 316.8 l 0.37,4.6 z"
       fill="#e1dfdd"
       id="path1738" />
    <path
       d="m 331.61,144.83 h -15.86 c -0.54,0 -0.95,-0.5 -0.84,-1.03 l 0.64,-2.99 c 0.08,-0.39 0.43,-0.68 0.84,-0.68 h 14.57 c 0.4,0 0.75,0.28 0.84,0.68 l 0.64,2.99 c 0.12,0.53 -0.29,1.03 -0.83,1.03 z"
       fill="#605d5a"
       id="path1740" />
    <path
       d="m 246,36.1801 c -0.94,0.31 -1.87,0.68 -2.78,1.11 -1.25,0.6 -2.4,1.29 -3.47,2.07 l 1.92,4.13 c -1.06,0.89 -1.99,1.89 -2.77,2.97 l -5.09,-0.51 c -1.15,2.02 -1.92,4.2 -2.28,6.44 l 4.51,1.89 c -0.1,1.49 0.04,3.01 0.43,4.49 -1.1,0.72 -2.95,1.88 -4.13,2.62 0.3,0.85 0.67,1.69 1.1,2.51 0.6,1.13 1.32,2.18 2.11,3.14 l 4.61,-1.8 c 1,1.03 2.15,1.9 3.39,2.62 l -0.81,4.64 c 2.17,0.99 4.53,1.62 6.96,1.86 l 2.37,-4.27 c 1.37,0 2.74,-0.16 4.11,-0.48 l 2.73,3.77 c 0.99,-0.32 1.97,-0.7 2.93,-1.16 1.31,-0.63 2.52,-1.36 3.63,-2.18 l -1.98,-4.11 c 1.09,-0.93 2.04,-1.97 2.83,-3.1 l 4.89,0.79 c 1.22,-2.13 2.02,-4.44 2.36,-6.81 -1.43,-0.49 -3.43,-1.19 -4.56,-1.61 0.09,-1.36 -0.02,-2.74 -0.34,-4.09 l 4.2,-2.51 c -0.33,-1.01 -0.75,-2.01 -1.27,-2.99 -0.64,-1.2 -1.4,-2.31 -2.26,-3.33 l -4.42,2.02 c -1.05,-1.09 -2.26,-2 -3.58,-2.74 l 1.08,-4.5 c -2.1,-0.97 -4.36,-1.6 -6.71,-1.87 l -1.98,4.25 c -1.66,-0.07 -3.34,0.09 -5.01,0.5 z m 14.93,14.54 c 2.27,4.25 0.34,9.5 -4.31,11.73 -4.64,2.23 -10.25,0.59 -12.51,-3.66 -2.27,-4.25 -0.34,-9.5 4.31,-11.73 4.65,-2.23 10.25,-0.59 12.51,3.66 z"
       fill="#a7a4a0"
       id="path1742" />
    <path
       d="m 498.17,102.14 h -41.82 c -1.62,0 -2.94,-1.32 -2.94,-2.94 V 69.1 c 0,-1.62 1.32,-2.94 2.94,-2.94 h 41.82 c 1.62,0 2.94,1.32 2.94,2.94 v 30.1 c 0,1.63 -1.32,2.94 -2.94,2.94 z"
       fill="#84817d"
       id="path1744" />
    <path
       d="m 453.41,94.78 v 4.78 c 0,1.43 1.16,2.58 2.58,2.58 h 42.5 c 1.44,0 2.62,-1.17 2.62,-2.62 v -4.74 z"
       fill="#c5d43b"
       id="path1746" />
    <path
       d="M 471.49,86.66 V 73.83 c 0,-1.11 1.2,-1.8 2.16,-1.25 L 484.77,79 c 0.96,0.55 0.96,1.94 0,2.49 l -11.13,6.42 c -0.95,0.55 -2.15,-0.14 -2.15,-1.25 z"
       fill="#ffffff"
       id="path1748" />
    <path
       d="m 200.65,89.88 h -47.46 c -1.63,0 -2.95,-1.32 -2.95,-2.95 v -31.2 c 0,-1.63 1.32,-2.95 2.95,-2.95 h 47.46 c 1.63,0 2.95,1.32 2.95,2.95 v 31.2 c 0,1.63 -1.32,2.95 -2.95,2.95 z"
       fill="#c5d43b"
       id="path1750" />
    <path
       d="m 203.6,59.9 v -5.1 c 0,-1.11 -0.9,-2.01 -2.01,-2.01 h -49.33 c -1.11,0 -2.01,0.9 -2.01,2.01 v 5.1 z"
       fill="#84817d"
       id="path1752" />
    <path
       d="m 159.01,55.7101 h -4.19 v 2.14 h 4.19 z"
       fill="#cccac7"
       id="path1754" />
    <path
       d="m 165.84,55.7101 h -4.19 v 2.14 h 4.19 z"
       fill="#cccac7"
       id="path1756" />
    <path
       d="m 171.2,80.1101 -12.17,-5.35 v -1.24 l 12.17,-6.07 v 1.89 l -9.91,4.7 9.91,4.16 z"
       fill="#ffffff"
       id="path1758" />
    <path
       d="m 181.81,64.66 -6.9,18.52 h -2.1 l 6.9,-18.52 z"
       fill="#ffffff"
       id="path1760" />
    <path
       d="m 183.39,78.2001 9.92,-4.13 -9.92,-4.73 v -1.89 l 12.17,6.07 v 1.24 l -12.17,5.35 z"
       fill="#ffffff"
       id="path1762" />
    <path
       d="m 351.22,77.84 h -37.3 V 31.9 h 24.53 l 12.77,12.21 z"
       fill="#58d0db"
       id="path1764" />
    <path
       d="m 338.45,31.9 v 12.23 h 12.77 v -0.02 z"
       fill="#9fe4eb"
       id="path1766" />
    <path
       d="m 343.23,50.13 h -21.85 c -0.38,0 -0.68,-0.31 -0.68,-0.68 0,-0.37 0.31,-0.68 0.68,-0.68 h 21.85 c 0.38,0 0.68,0.31 0.68,0.68 0,0.37 -0.3,0.68 -0.68,0.68 z"
       fill="#1189a5"
       id="path1768" />
    <path
       d="m 337.77,55.6 h -16.39 c -0.38,0 -0.68,-0.31 -0.68,-0.68 0,-0.38 0.31,-0.68 0.68,-0.68 h 16.39 c 0.38,0 0.68,0.31 0.68,0.68 0,0.37 -0.3,0.68 -0.68,0.68 z"
       fill="#1189a5"
       id="path1770" />
    <path
       d="m 343.23,61.0601 h -21.85 c -0.38,0 -0.68,-0.31 -0.68,-0.68 0,-0.38 0.31,-0.68 0.68,-0.68 h 21.85 c 0.38,0 0.68,0.31 0.68,0.68 0,0.37 -0.3,0.68 -0.68,0.68 z"
       fill="#1189a5"
       id="path1772" />
    <path
       d="m 337.77,66.52 h -16.39 c -0.38,0 -0.68,-0.31 -0.68,-0.68 0,-0.38 0.31,-0.68 0.68,-0.68 h 16.39 c 0.38,0 0.68,0.31 0.68,0.68 0,0.37 -0.3,0.68 -0.68,0.68 z"
       fill="#1189a5"
       id="path1774" />
    <path
       d="m 439.71,38.14 -25.14,5.9 0.08,26.39 c -0.63,-0.58 -1.52,-0.31 -2.45,-0.31 -0.9,0 -1.64,-0.93 -2.27,-0.38 l -0.06,-25.7 -25.14,-5.9 0.03,30.94 24.1,4.38 c 0.81,1.3 1.8,1.74 3.33,1.74 1.53,0 2.57,-0.5 3.33,-1.73 l 24.15,-4.31 z"
       fill="#0769dc"
       id="path1776" />
    <path
       d="m 435.92,35.4 c 0,0 -18.16,3.24 -20.5,3.99 -2.34,0.74 -3.3,2.33 -3.24,5.34 0.07,3.02 0,25.61 0,25.61 l 24.14,-4.7 z"
       fill="#cae0fa"
       id="path1778" />
    <path
       d="m 388.71,35.4 c 0,0 17.98,3.24 20.32,3.99 2.34,0.74 3.3,2.33 3.24,5.34 -0.07,3.02 -0.09,25.61 -0.09,25.61 L 388.13,65.7 Z"
       fill="#a3c9f6"
       id="path1780" />
    <path
       d="m 407.76,44.94 c -0.03,0 -0.06,0 -0.09,-0.01 L 393.08,42.1 c -0.24,-0.05 -0.4,-0.28 -0.36,-0.53 0.05,-0.25 0.29,-0.4 0.53,-0.36 l 14.59,2.83 c 0.24,0.05 0.4,0.28 0.36,0.53 -0.04,0.22 -0.23,0.37 -0.44,0.37 z"
       fill="#b3afab"
       id="path1782" />
    <path
       d="m 407.76,49.2 c -0.03,0 -0.06,0 -0.09,-0.01 l -14.6,-2.83 c -0.24,-0.05 -0.4,-0.28 -0.36,-0.53 0.05,-0.25 0.29,-0.4 0.53,-0.36 l 14.6,2.83 c 0.24,0.05 0.4,0.28 0.36,0.53 -0.04,0.22 -0.23,0.37 -0.44,0.37 z"
       fill="#b3afab"
       id="path1784" />
    <path
       d="m 407.76,53.4501 c -0.03,0 -0.06,0 -0.09,-0.01 l -14.6,-2.83 c -0.24,-0.05 -0.4,-0.28 -0.36,-0.53 0.05,-0.25 0.29,-0.41 0.53,-0.36 l 14.6,2.83 c 0.24,0.05 0.4,0.28 0.36,0.53 -0.04,0.22 -0.23,0.37 -0.44,0.37 z"
       fill="#b3afab"
       id="path1786" />
    <path
       d="m 407.76,57.7001 c -0.03,0 -0.06,0 -0.09,-0.01 l -14.59,-2.83 c -0.24,-0.05 -0.4,-0.28 -0.36,-0.53 0.05,-0.25 0.29,-0.41 0.53,-0.36 l 14.59,2.83 c 0.24,0.05 0.4,0.28 0.36,0.53 -0.04,0.22 -0.23,0.37 -0.44,0.37 z"
       fill="#b3afab"
       id="path1788" />
    <path
       d="m 416.62,44.94 c 0.03,0 0.06,0 0.09,-0.01 L 431.3,42.1 c 0.24,-0.05 0.4,-0.28 0.36,-0.53 -0.05,-0.25 -0.29,-0.4 -0.53,-0.36 l -14.59,2.83 c -0.24,0.05 -0.4,0.28 -0.36,0.53 0.04,0.22 0.23,0.37 0.44,0.37 z"
       fill="#b3afab"
       id="path1790" />
    <path
       d="m 416.62,49.2 c 0.03,0 0.06,0 0.09,-0.01 l 14.6,-2.83 c 0.24,-0.05 0.4,-0.28 0.36,-0.53 -0.05,-0.25 -0.29,-0.4 -0.53,-0.36 l -14.6,2.83 c -0.24,0.05 -0.4,0.28 -0.36,0.53 0.04,0.22 0.23,0.37 0.44,0.37 z"
       fill="#b3afab"
       id="path1792" />
    <path
       d="m 416.62,53.4501 c 0.03,0 0.06,0 0.09,-0.01 l 14.6,-2.83 c 0.24,-0.05 0.4,-0.28 0.36,-0.53 -0.05,-0.25 -0.29,-0.41 -0.53,-0.36 l -14.6,2.83 c -0.24,0.05 -0.4,0.28 -0.36,0.53 0.04,0.22 0.23,0.37 0.44,0.37 z"
       fill="#b3afab"
       id="path1794" />
    <path
       d="m 416.62,57.7001 c 0.03,0 0.06,0 0.09,-0.01 l 14.59,-2.83 c 0.24,-0.05 0.4,-0.28 0.36,-0.53 -0.05,-0.25 -0.29,-0.41 -0.53,-0.36 l -14.59,2.83 c -0.24,0.05 -0.4,0.28 -0.36,0.53 0.04,0.22 0.23,0.37 0.44,0.37 z"
       fill="#b3afab"
       id="path1796" />
    <path
       d="m 410.5,70.92 c 0.54,-0.33 1.16,-0.52 1.84,-0.52 0.62,0 1.21,0.17 1.72,0.45 l 22.86,-3.67 0.21,-28.58 -1.28,-3.21 -0.13,29.67 c 0,0 -18.76,3.12 -20.44,3.5 -1.68,0.39 -3.06,1.74 -3.06,1.74 0,0 -0.66,-1.13 -2.77,-1.67 -2.11,-0.54 -20.73,-3.71 -20.73,-3.71 l 0.05,-29.47 -1.32,3.36 0.08,28.13 z"
       fill="#4995ee"
       id="path1798" />
  </g>
</svg>
