<?xml version="1.0" encoding="UTF-8" standalone="no"?>
<svg
   xmlns:dc="http://purl.org/dc/elements/1.1/"
   xmlns:cc="http://creativecommons.org/ns#"
   xmlns:rdf="http://www.w3.org/1999/02/22-rdf-syntax-ns#"
   xmlns:svg="http://www.w3.org/2000/svg"
   xmlns="http://www.w3.org/2000/svg"
   xmlns:sodipodi="http://sodipodi.sourceforge.net/DTD/sodipodi-0.dtd"
   xmlns:inkscape="http://www.inkscape.org/namespaces/inkscape"
   inkscape:export-ydpi="96"
   inkscape:export-xdpi="96"
   inkscape:export-filename="C:\Users\bethma\OneDrive\dotnetConf\focus\Windows\Social Media Sharing\Windows 550x182.png"
   inkscape:version="1.0 (4035a4fb49, 2020-05-01)"
   sodipodi:docname="Windows 550x182.svg"
   id="svg1022"
   version="1.1"
   fill="none"
   viewBox="0 0 550 182"
   height="182"
   width="550">
  <metadata
     id="metadata1026">
    <rdf:RDF>
      <cc:Work
         rdf:about="">
        <dc:format>image/svg+xml</dc:format>
        <dc:type
           rdf:resource="http://purl.org/dc/dcmitype/StillImage" />
        <dc:title></dc:title>
      </cc:Work>
    </rdf:RDF>
  </metadata>
  <sodipodi:namedview
     inkscape:current-layer="g903"
     inkscape:window-maximized="1"
     inkscape:window-y="-12"
     inkscape:window-x="-12"
     inkscape:cy="91"
     inkscape:cx="275"
     inkscape:zoom="5.7381818"
     showgrid="false"
     id="namedview1024"
     inkscape:window-height="2050"
     inkscape:window-width="3840"
     inkscape:pageshadow="2"
     inkscape:pageopacity="0"
     guidetolerance="10"
     gridtolerance="10"
     objecttolerance="10"
     borderopacity="1"
     bordercolor="#666666"
     pagecolor="#ffffff" />
  <g
     id="g903"
     clip-path="url(#clip0)">
    <rect
       y="167.30038"
       x="25.443598"
       id="rect523"
       fill="#ffffff"
       height="182"
       width="550" />
    <rect
       style="fill:url(#paint0_linear)"
       y="6.9621854e-07"
       x="0"
       id="rect525"
       fill="url(#paint0_linear)"
       height="182"
       width="550" />
    <path
       id="path527"
       fill="#ffffff"
       d="m 16,136.904 c 0,-0.978 0.2545,-1.728 0.7636,-2.251 0.509,-0.523 1.2458,-0.784 2.2103,-0.784 0.978,0 1.7214,0.275 2.2305,0.824 0.509,0.536 0.7636,1.273 0.7636,2.211 0,0.952 -0.2612,1.709 -0.7837,2.272 -0.5091,0.549 -1.2458,0.824 -2.2104,0.824 -0.9645,0 -1.7013,-0.275 -2.2103,-0.824 C 16.2545,138.626 16,137.869 16,136.904 Z" />
    <path
       id="path529"
       fill="#ffffff"
       d="M 53.0135,139.417 H 47.1259 L 32.6782,115.998 h -0.1608 l 0.1005,1.307 c 0.1875,2.493 0.2813,4.771 0.2813,6.835 v 15.277 h -4.3604 v -29.389 h 5.8273 l 14.4075,23.298 h 0.1206 c -0.0268,-0.308 -0.0804,-1.427 -0.1608,-3.357 -0.0803,-1.943 -0.1205,-3.457 -0.1205,-4.543 v -15.398 h 4.4006 z" />
    <path
       id="path531"
       fill="#ffffff"
       d="M 77.3878,139.417 H 60.7699 v -29.389 h 16.6179 v 4.061 H 65.5724 v 8 h 11.0719 v 4.021 H 65.5724 v 9.226 h 11.8154 z" />
    <path
       id="path533"
       fill="#ffffff"
       d="m 93.9052,139.417 h -4.8025 v -25.268 h -8.6405 v -4.121 h 22.0838 v 4.121 h -8.6408 z" />
    <path
       id="path535"
       fill="#ffffff"
       d="m 130.256,113.727 c -2.76,0 -4.93,0.978 -6.511,2.935 -1.581,1.956 -2.371,4.657 -2.371,8.101 0,3.605 0.757,6.332 2.271,8.181 1.527,1.85 3.73,2.774 6.611,2.774 1.245,0 2.451,-0.12 3.617,-0.361 1.165,-0.255 2.377,-0.577 3.637,-0.965 v 4.12 c -2.305,0.872 -4.917,1.307 -7.837,1.307 -4.3,0 -7.602,-1.3 -9.907,-3.9 -2.304,-2.613 -3.456,-6.345 -3.456,-11.196 0,-3.056 0.556,-5.729 1.668,-8.021 1.125,-2.292 2.746,-4.047 4.863,-5.267 2.116,-1.219 4.601,-1.829 7.455,-1.829 3.001,0 5.773,0.63 8.319,1.89 l -1.728,4 c -0.992,-0.469 -2.043,-0.878 -3.155,-1.226 -1.099,-0.362 -2.257,-0.543 -3.476,-0.543 z" />
    <path
       id="path537"
       fill="#ffffff"
       d="m 163.049,128.261 c 0,3.631 -0.931,6.466 -2.793,8.503 -1.862,2.037 -4.454,3.055 -7.776,3.055 -2.077,0 -3.912,-0.469 -5.506,-1.407 -1.594,-0.938 -2.82,-2.285 -3.677,-4.04 -0.858,-1.756 -1.286,-3.793 -1.286,-6.111 0,-3.605 0.924,-6.42 2.773,-8.443 1.848,-2.024 4.454,-3.036 7.816,-3.036 3.215,0 5.761,1.039 7.636,3.116 1.876,2.064 2.813,4.851 2.813,8.363 z m -16.176,0 c 0,5.132 1.896,7.699 5.687,7.699 3.751,0 5.627,-2.567 5.627,-7.699 0,-5.08 -1.889,-7.619 -5.667,-7.619 -1.983,0 -3.423,0.657 -4.32,1.97 -0.884,1.313 -1.327,3.196 -1.327,5.649 z" />
    <path
       id="path539"
       fill="#ffffff"
       d="m 188.046,139.417 h -4.742 v -13.669 c 0,-1.716 -0.348,-2.995 -1.045,-3.84 -0.683,-0.844 -1.775,-1.266 -3.275,-1.266 -1.996,0 -3.456,0.59 -4.381,1.769 -0.924,1.179 -1.386,3.156 -1.386,5.93 v 11.076 h -4.722 v -22.233 h 3.697 l 0.663,2.915 h 0.241 c 0.67,-1.058 1.621,-1.876 2.854,-2.452 1.232,-0.576 2.599,-0.865 4.099,-0.865 5.332,0 7.997,2.714 7.997,8.142 z" />
    <path
       id="path541"
       fill="#ffffff"
       d="m 205.77,120.763 h -5.426 v 18.654 h -4.742 v -18.654 h -3.657 v -2.212 l 3.657,-1.447 v -1.447 c 0,-2.627 0.616,-4.57 1.849,-5.83 1.232,-1.273 3.114,-1.91 5.646,-1.91 1.661,0 3.295,0.275 4.903,0.825 l -1.246,3.578 c -1.165,-0.375 -2.277,-0.563 -3.335,-0.563 -1.072,0 -1.856,0.335 -2.351,1.005 -0.483,0.657 -0.724,1.648 -0.724,2.975 v 1.447 h 5.426 z" />
    <path
       id="path543"
       fill="#ffffff"
       d="M 30.4893,159.816 H 29 v -13.439 h 7.1399 v 1.388 h -5.6506 v 4.918 h 5.309 v 1.388 h -5.309 z" />
    <path
       id="path545"
       fill="#ffffff"
       d="m 46.3374,154.77 c 0,1.642 -0.3943,2.926 -1.1827,3.851 -0.7885,0.919 -1.8777,1.379 -3.2678,1.379 -0.8585,0 -1.6207,-0.211 -2.2865,-0.634 -0.6658,-0.423 -1.1798,-1.03 -1.5419,-1.82 -0.3621,-0.791 -0.5431,-1.716 -0.5431,-2.776 0,-1.643 0.3913,-2.921 1.1739,-3.834 0.7826,-0.919 1.8689,-1.379 3.259,-1.379 1.3433,0 2.4091,0.469 3.1976,1.407 0.7943,0.938 1.1915,2.206 1.1915,3.806 z m -7.3152,0 c 0,1.286 0.2453,2.267 0.7359,2.941 0.4906,0.674 1.2119,1.011 2.1639,1.011 0.952,0 1.6733,-0.334 2.1639,-1.002 0.4964,-0.674 0.7446,-1.657 0.7446,-2.95 0,-1.281 -0.2482,-2.253 -0.7446,-2.914 -0.4906,-0.668 -1.2178,-1.002 -2.1814,-1.002 -0.952,0 -1.6704,0.327 -2.1552,0.983 -0.4847,0.656 -0.7271,1.633 -0.7271,2.933 z" />
    <path
       id="path547"
       fill="#ffffff"
       d="m 52.7326,160 c -1.39,0 -2.4675,-0.447 -3.2326,-1.342 -0.7593,-0.901 -1.1389,-2.173 -1.1389,-3.815 0,-1.685 0.3854,-2.987 1.1564,-3.907 0.7768,-0.919 1.8806,-1.379 3.3115,-1.379 0.4614,0 0.9228,0.053 1.3842,0.157 0.4614,0.104 0.8235,0.226 1.0863,0.367 l -0.4468,1.297 c -0.3212,-0.135 -0.6716,-0.246 -1.0513,-0.331 -0.3796,-0.092 -0.7154,-0.138 -1.0074,-0.138 -1.9507,0 -2.9261,1.305 -2.9261,3.916 0,1.238 0.2365,2.187 0.7096,2.849 0.4789,0.662 1.1856,0.993 2.1201,0.993 0.8001,0 1.6207,-0.181 2.4617,-0.542 v 1.351 C 54.5169,159.825 53.708,160 52.7326,160 Z" />
    <path
       id="path549"
       fill="#ffffff"
       d="m 58.8125,149.741 v 6.536 c 0,0.821 0.1782,1.434 0.5344,1.839 0.3563,0.404 0.9141,0.606 1.6733,0.606 1.0046,0 1.7376,-0.288 2.199,-0.864 0.4672,-0.576 0.7008,-1.517 0.7008,-2.822 v -5.295 h 1.4543 v 10.075 h -1.2002 l -0.2103,-1.351 H 63.885 c -0.2979,0.496 -0.7126,0.876 -1.244,1.14 -0.5257,0.263 -1.1273,0.395 -1.8047,0.395 -1.1681,0 -2.0442,-0.291 -2.6282,-0.873 -0.5782,-0.582 -0.8674,-1.514 -0.8674,-2.795 v -6.591 z" />
    <path
       id="path551"
       fill="#ffffff"
       d="m 74.6606,157.068 c 0,0.937 -0.3329,1.66 -0.9987,2.169 -0.6658,0.509 -1.6003,0.763 -2.8034,0.763 -1.2733,0 -2.2661,-0.211 -2.9787,-0.634 v -1.416 c 0.4614,0.245 0.9549,0.438 1.4806,0.579 0.5315,0.141 1.0425,0.212 1.5331,0.212 0.7593,0 1.3433,-0.126 1.7521,-0.377 0.4089,-0.258 0.6133,-0.647 0.6133,-1.168 0,-0.392 -0.1636,-0.726 -0.4906,-1.002 -0.3212,-0.282 -0.952,-0.612 -1.8923,-0.992 -0.8936,-0.35 -1.5302,-0.653 -1.9098,-0.91 -0.3738,-0.264 -0.6542,-0.561 -0.8411,-0.892 -0.181,-0.331 -0.2716,-0.726 -0.2716,-1.186 0,-0.821 0.3184,-1.468 0.955,-1.94 0.6366,-0.478 1.5097,-0.717 2.6194,-0.717 1.0338,0 2.0442,0.221 3.0312,0.662 l -0.5169,1.241 c -0.9637,-0.416 -1.8368,-0.625 -2.6194,-0.625 -0.6892,0 -1.209,0.114 -1.5594,0.34 -0.3505,0.227 -0.5257,0.54 -0.5257,0.938 0,0.27 0.0643,0.499 0.1928,0.689 0.1343,0.19 0.3475,0.371 0.6395,0.543 0.292,0.171 0.8527,0.419 1.682,0.744 1.1389,0.435 1.9069,0.874 2.3041,1.315 0.403,0.441 0.6045,0.996 0.6045,1.664 z" />
    <path
       id="path553"
       fill="#ffffff"
       d="m 89.983,154.77 c 0,1.642 -0.3942,2.926 -1.1827,3.851 -0.7885,0.919 -1.8777,1.379 -3.2677,1.379 -0.8586,0 -1.6208,-0.211 -2.2866,-0.634 -0.6658,-0.423 -1.1797,-1.03 -1.5418,-1.82 -0.3621,-0.791 -0.5432,-1.716 -0.5432,-2.776 0,-1.643 0.3913,-2.921 1.1739,-3.834 0.7826,-0.919 1.869,-1.379 3.259,-1.379 1.3433,0 2.4092,0.469 3.1976,1.407 0.7943,0.938 1.1915,2.206 1.1915,3.806 z m -7.3152,0 c 0,1.286 0.2453,2.267 0.7359,2.941 0.4906,0.674 1.2119,1.011 2.1639,1.011 0.952,0 1.6733,-0.334 2.1639,-1.002 0.4964,-0.674 0.7447,-1.657 0.7447,-2.95 0,-1.281 -0.2483,-2.253 -0.7447,-2.914 -0.4906,-0.668 -1.2177,-1.002 -2.1814,-1.002 -0.952,0 -1.6704,0.327 -2.1551,0.983 -0.4848,0.656 -0.7272,1.633 -0.7272,2.933 z" />
    <path
       id="path555"
       fill="#ffffff"
       d="m 99.1116,159.816 v -6.517 c 0,-0.821 -0.1781,-1.434 -0.5344,-1.839 -0.3563,-0.404 -0.914,-0.606 -1.6733,-0.606 -1.0045,0 -1.7404,0.285 -2.2077,0.854 -0.4672,0.57 -0.7008,1.511 -0.7008,2.823 v 5.285 h -1.4543 v -10.075 h 1.1827 l 0.2365,1.379 h 0.0701 c 0.2979,-0.496 0.7155,-0.879 1.2528,-1.149 0.5373,-0.276 1.136,-0.414 1.7959,-0.414 1.1564,0 2.0267,0.295 2.6107,0.883 0.5842,0.582 0.8762,1.517 0.8762,2.804 v 6.572 z" />
    <path
       id="path863"
       fill="#ffffff"
       d="m 31.4327,42.1353 h -1.9293 v 6.6648 h -1.148 V 42.1353 H 27 v -0.5169 l 1.3554,-0.4135 v -0.4204 c 0,-1.8563 0.8137,-2.7845 2.4411,-2.7845 0.4011,0 0.8714,0.0804 1.4108,0.2412 l -0.2974,0.9167 c -0.4426,-0.1424 -0.8206,-0.2137 -1.1341,-0.2137 -0.4334,0 -0.7538,0.1448 -0.9613,0.4342 -0.2074,0.2849 -0.3111,0.7444 -0.3111,1.3785 v 0.4893 h 1.9293 z" />
    <path
       id="path865"
       fill="#ffffff"
       d="m 39.3577,45.0163 c 0,1.2314 -0.3112,2.194 -0.9335,2.8878 -0.6224,0.6893 -1.4822,1.0339 -2.5795,1.0339 -0.6777,0 -1.2793,-0.1586 -1.8049,-0.4756 -0.5255,-0.317 -0.9312,-0.7719 -1.2171,-1.3647 -0.2858,-0.5927 -0.4287,-1.2865 -0.4287,-2.0814 0,-1.2314 0.3089,-2.1894 0.9266,-2.8741 0.6178,-0.6892 1.4753,-1.0338 2.5725,-1.0338 1.0604,0 1.9018,0.3515 2.5241,1.0545 0.627,0.703 0.9405,1.6541 0.9405,2.8534 z m -5.7743,0 c 0,0.9649 0.1936,1.7001 0.5809,2.2055 0.3873,0.5054 0.9566,0.7581 1.7081,0.7581 0.7515,0 1.3208,-0.2504 1.7081,-0.7512 0.3919,-0.5054 0.5878,-1.2429 0.5878,-2.2124 0,-0.9603 -0.1959,-1.6886 -0.5878,-2.1848 -0.3873,-0.5009 -0.9612,-0.7513 -1.7219,-0.7513 -0.7515,0 -1.3186,0.2458 -1.7012,0.7375 -0.3827,0.4916 -0.574,1.2245 -0.574,2.1986 z" />
    <path
       id="path867"
       fill="#ffffff"
       d="m 44.4059,48.938 c -1.0972,0 -1.9478,-0.3355 -2.5517,-1.0063 -0.5994,-0.6754 -0.899,-1.6289 -0.899,-2.8603 0,-1.2635 0.3043,-2.2399 0.9128,-2.9292 0.6132,-0.6892 1.4845,-1.0338 2.614,-1.0338 0.3642,0 0.7284,0.0391 1.0926,0.1172 0.3642,0.0781 0.6501,0.17 0.8575,0.2757 l -0.3526,0.9718 c -0.2536,-0.1011 -0.5302,-0.1838 -0.8299,-0.2482 -0.2997,-0.0689 -0.5647,-0.1033 -0.7953,-0.1033 -1.5398,0 -2.3097,0.9787 -2.3097,2.936 0,0.9282 0.1867,1.6404 0.5602,2.1366 0.378,0.4963 0.9358,0.7444 1.6735,0.7444 0.6316,0 1.2793,-0.1356 1.9432,-0.4066 v 1.0131 c -0.5071,0.2619 -1.1457,0.3929 -1.9156,0.3929 z" />
    <path
       id="path869"
       fill="#ffffff"
       d="m 49.2052,41.2462 v 4.9004 c 0,0.6157 0.1406,1.0752 0.4218,1.3785 0.2813,0.3032 0.7215,0.4548 1.3209,0.4548 0.7929,0 1.3715,-0.2159 1.7357,-0.6478 0.3688,-0.4319 0.5532,-1.1372 0.5532,-2.1159 v -3.97 h 1.148 v 7.5539 h -0.9474 l -0.166,-1.0131 h -0.0622 c -0.2351,0.3721 -0.5625,0.657 -0.982,0.8546 -0.4149,0.1976 -0.8898,0.2964 -1.4246,0.2964 -0.922,0 -1.6135,-0.2183 -2.0746,-0.6548 -0.4564,-0.4365 -0.6846,-1.1349 -0.6846,-2.0952 v -4.9418 z" />
    <path
       id="path871"
       fill="#ffffff"
       d="m 61.7151,46.7393 c 0,0.7031 -0.2628,1.2452 -0.7884,1.6266 -0.5256,0.3814 -1.2632,0.5721 -2.2129,0.5721 -1.005,0 -1.7888,-0.1586 -2.3512,-0.4756 V 47.401 c 0.3642,0.1838 0.7538,0.3285 1.1687,0.4342 0.4195,0.1057 0.8229,0.1585 1.2102,0.1585 0.5993,0 1.0603,-0.0942 1.383,-0.2825 0.3227,-0.193 0.4841,-0.4848 0.4841,-0.8754 0,-0.294 -0.1291,-0.5444 -0.3873,-0.7512 -0.2535,-0.2114 -0.7514,-0.4595 -1.4937,-0.7444 -0.7053,-0.2619 -1.2079,-0.4893 -1.5075,-0.6823 -0.2951,-0.1976 -0.5164,-0.4204 -0.6639,-0.6686 -0.1429,-0.2481 -0.2144,-0.5444 -0.2144,-0.889 0,-0.6158 0.2513,-1.1005 0.7538,-1.4543 0.5025,-0.3584 1.1917,-0.5376 2.0677,-0.5376 0.816,0 1.6136,0.1654 2.3927,0.4962 l -0.408,0.9305 c -0.7607,-0.3125 -1.4499,-0.4687 -2.0677,-0.4687 -0.544,0 -0.9543,0.085 -1.2309,0.255 -0.2766,0.17 -0.4149,0.4044 -0.4149,0.703 0,0.2022 0.0507,0.3745 0.1521,0.517 0.106,0.1424 0.2743,0.2779 0.5048,0.4066 0.2305,0.1286 0.6731,0.3147 1.3278,0.5583 0.899,0.3262 1.5052,0.6547 1.8187,0.9856 0.3181,0.3308 0.4772,0.7466 0.4772,1.2474 z" />
    <path
       id="path873"
       fill="#ffffff"
       d="m 63.4231,48.0695 c 0,-0.3078 0.0692,-0.5398 0.2075,-0.6961 0.1429,-0.1608 0.3458,-0.2412 0.6086,-0.2412 0.2674,0 0.4748,0.0804 0.6223,0.2412 0.1522,0.1563 0.2282,0.3883 0.2282,0.6961 0,0.2987 -0.076,0.5285 -0.2282,0.6893 C 64.7094,48.9196 64.5019,49 64.2392,49 64.004,49 63.8081,48.9288 63.6514,48.7863 63.4992,48.6393 63.4231,48.4004 63.4231,48.0695 Z" />
    <path
       id="path875"
       fill="#ffffff"
       d="m 72.5238,47.787 h -0.0623 c -0.5302,0.7673 -1.3231,1.151 -2.3789,1.151 -0.9912,0 -1.7634,-0.3377 -2.3166,-1.0132 -0.5486,-0.6754 -0.8229,-1.6357 -0.8229,-2.8809 0,-1.2452 0.2766,-2.2124 0.8298,-2.9017 0.5532,-0.6892 1.3231,-1.0338 2.3097,-1.0338 1.0281,0 1.8165,0.3722 2.3651,1.1165 h 0.0899 l -0.0484,-0.5444 -0.0277,-0.5308 v -3.0739 h 1.148 v 10.7243 h -0.9336 z m -2.2959,0.1929 c 0.7837,0 1.3508,-0.2113 1.7011,-0.634 0.355,-0.4274 0.5325,-1.1143 0.5325,-2.0608 v -0.2412 c 0,-1.0706 -0.1798,-1.8334 -0.5394,-2.2883 -0.355,-0.4594 -0.9243,-0.6892 -1.7081,-0.6892 -0.6731,0 -1.1894,0.2619 -1.549,0.7857 -0.355,0.5192 -0.5325,1.2544 -0.5325,2.2055 0,0.965 0.1775,1.6932 0.5325,2.1849 0.355,0.4916 0.8759,0.7374 1.5629,0.7374 z" />
    <path
       id="path877"
       fill="#ffffff"
       d="m 82.5925,45.0163 c 0,1.2314 -0.3112,2.194 -0.9336,2.8878 -0.6224,0.6893 -1.4822,1.0339 -2.5794,1.0339 -0.6777,0 -1.2793,-0.1586 -1.8049,-0.4756 -0.5256,-0.317 -0.9313,-0.7719 -1.2171,-1.3647 -0.2858,-0.5927 -0.4288,-1.2865 -0.4288,-2.0814 0,-1.2314 0.3089,-2.1894 0.9267,-2.8741 0.6178,-0.6892 1.4753,-1.0338 2.5725,-1.0338 1.0604,0 1.9017,0.3515 2.5241,1.0545 0.627,0.703 0.9405,1.6541 0.9405,2.8534 z m -5.7743,0 c 0,0.9649 0.1936,1.7001 0.5809,2.2055 0.3872,0.5054 0.9566,0.7581 1.7081,0.7581 0.7514,0 1.3208,-0.2504 1.7081,-0.7512 0.3918,-0.5054 0.5878,-1.2429 0.5878,-2.2124 0,-0.9603 -0.196,-1.6886 -0.5878,-2.1848 -0.3873,-0.5009 -0.9613,-0.7513 -1.722,-0.7513 -0.7514,0 -1.3185,0.2458 -1.7011,0.7375 -0.3827,0.4916 -0.574,1.2245 -0.574,2.1986 z" />
    <path
       id="path879"
       fill="#ffffff"
       d="m 87.0598,47.9937 c 0.2029,0 0.3988,-0.0138 0.5878,-0.0413 0.189,-0.0322 0.3389,-0.0643 0.4495,-0.0965 v 0.8753 c -0.1245,0.0597 -0.3089,0.108 -0.5532,0.1447 -0.2397,0.0414 -0.4564,0.0621 -0.6501,0.0621 -1.466,0 -2.199,-0.7697 -2.199,-2.3089 V 42.1353 H 83.6091 V 41.584 l 1.0857,-0.4756 0.484,-1.6128 h 0.6639 v 1.7506 h 2.1991 v 0.8891 h -2.1991 v 4.4455 c 0,0.4549 0.1084,0.8041 0.325,1.0476 0.2167,0.2436 0.5141,0.3653 0.8921,0.3653 z" />
    <path
       id="path881"
       fill="#ffffff"
       d="m 94.805,48.8001 v -4.8866 c 0,-0.6157 -0.1406,-1.0752 -0.4218,-1.3784 -0.2813,-0.3033 -0.7215,-0.4549 -1.3209,-0.4549 -0.7929,0 -1.3738,0.2137 -1.7426,0.641 -0.3688,0.4273 -0.5533,1.1326 -0.5533,2.1159 v 3.963 h -1.1479 v -7.5539 h 0.9336 l 0.1867,1.0339 h 0.0553 c 0.2351,-0.3722 0.5648,-0.6594 0.9889,-0.8616 0.4241,-0.2067 0.8967,-0.3101 1.4176,-0.3101 0.9129,0 1.5998,0.2205 2.0608,0.6617 0.461,0.4365 0.6916,1.1372 0.6916,2.1021 v 4.9279 z" />
    <path
       id="path883"
       fill="#ffffff"
       d="m 101.52,48.938 c -1.12,0 -2.0056,-0.34 -2.6557,-1.0201 -0.6454,-0.68 -0.9681,-1.6242 -0.9681,-2.8327 0,-1.2176 0.2996,-2.1848 0.899,-2.9016 0.6039,-0.7168 1.4128,-1.0752 2.4268,-1.0752 0.95,0 1.702,0.3124 2.255,0.9373 0.553,0.6203 0.83,1.4405 0.83,2.4606 v 0.7236 h -5.2214 c 0.0231,0.8868 0.2467,1.56 0.6708,2.0195 0.4286,0.4595 1.0306,0.6892 1.8046,0.6892 0.816,0 1.623,-0.17 2.421,-0.51 v 1.02 c -0.406,0.1746 -0.791,0.2987 -1.155,0.3722 -0.36,0.0781 -0.795,0.1172 -1.307,0.1172 z m -0.311,-6.8716 c -0.609,0 -1.095,0.1976 -1.4595,0.5927 -0.3596,0.3952 -0.5717,0.942 -0.6362,1.6404 h 3.9627 c 0,-0.7214 -0.162,-1.2728 -0.484,-1.6541 -0.323,-0.386 -0.784,-0.579 -1.383,-0.579 z" />
    <path
       id="path885"
       fill="#ffffff"
       d="m 108.719,47.9937 c 0.203,0 0.398,-0.0138 0.587,-0.0413 0.19,-0.0322 0.339,-0.0643 0.45,-0.0965 v 0.8753 c -0.124,0.0597 -0.309,0.108 -0.553,0.1447 -0.24,0.0414 -0.457,0.0621 -0.65,0.0621 -1.466,0 -2.199,-0.7697 -2.199,-2.3089 v -4.4938 h -1.086 V 41.584 l 1.086,-0.4756 0.484,-1.6128 h 0.664 v 1.7506 h 2.199 v 0.8891 h -2.199 v 4.4455 c 0,0.4549 0.108,0.8041 0.325,1.0476 0.216,0.2436 0.514,0.3653 0.892,0.3653 z" />
    <path
       id="path887"
       fill="#ffffff"
       d="m 114.306,48.938 c -1.097,0 -1.948,-0.3355 -2.551,-1.0063 -0.6,-0.6754 -0.899,-1.6289 -0.899,-2.8603 0,-1.2635 0.304,-2.2399 0.912,-2.9292 0.614,-0.6892 1.485,-1.0338 2.614,-1.0338 0.365,0 0.729,0.0391 1.093,0.1172 0.364,0.0781 0.65,0.17 0.857,0.2757 l -0.352,0.9718 c -0.254,-0.1011 -0.53,-0.1838 -0.83,-0.2482 -0.3,-0.0689 -0.565,-0.1033 -0.795,-0.1033 -1.54,0 -2.31,0.9787 -2.31,2.936 0,0.9282 0.187,1.6404 0.56,2.1366 0.378,0.4963 0.936,0.7444 1.674,0.7444 0.631,0 1.279,-0.1356 1.943,-0.4066 v 1.0131 c -0.507,0.2619 -1.146,0.3929 -1.916,0.3929 z" />
    <path
       id="path889"
       fill="#ffffff"
       d="m 124.569,45.0163 c 0,1.2314 -0.312,2.194 -0.934,2.8878 -0.622,0.6893 -1.482,1.0339 -2.579,1.0339 -0.678,0 -1.28,-0.1586 -1.805,-0.4756 -0.526,-0.317 -0.931,-0.7719 -1.217,-1.3647 -0.286,-0.5927 -0.429,-1.2865 -0.429,-2.0814 0,-1.2314 0.309,-2.1894 0.927,-2.8741 0.617,-0.6892 1.475,-1.0338 2.572,-1.0338 1.06,0 1.902,0.3515 2.524,1.0545 0.627,0.703 0.941,1.6541 0.941,2.8534 z m -5.775,0 c 0,0.9649 0.194,1.7001 0.581,2.2055 0.388,0.5054 0.957,0.7581 1.708,0.7581 0.752,0 1.321,-0.2504 1.708,-0.7512 0.392,-0.5054 0.588,-1.2429 0.588,-2.2124 0,-0.9603 -0.196,-1.6886 -0.588,-2.1848 -0.387,-0.5009 -0.961,-0.7513 -1.721,-0.7513 -0.752,0 -1.319,0.2458 -1.702,0.7375 -0.382,0.4916 -0.574,1.2245 -0.574,2.1986 z" />
    <path
       id="path891"
       fill="#ffffff"
       d="m 131.774,48.8001 v -4.8866 c 0,-0.6157 -0.14,-1.0752 -0.421,-1.3784 -0.282,-0.3033 -0.722,-0.4549 -1.321,-0.4549 -0.793,0 -1.374,0.2137 -1.743,0.641 -0.369,0.4273 -0.553,1.1326 -0.553,2.1159 v 3.963 h -1.148 v -7.5539 h 0.934 l 0.186,1.0339 h 0.056 c 0.235,-0.3722 0.564,-0.6594 0.988,-0.8616 0.425,-0.2067 0.897,-0.3101 1.418,-0.3101 0.913,0 1.6,0.2205 2.061,0.6617 0.461,0.4365 0.691,1.1372 0.691,2.1021 v 4.9279 z" />
    <path
       id="path893"
       fill="#ffffff"
       d="m 138.704,42.1353 h -1.93 v 6.6648 h -1.148 v -6.6648 h -1.355 v -0.5169 l 1.355,-0.4135 v -0.4204 c 0,-1.8563 0.814,-2.7845 2.441,-2.7845 0.402,0 0.872,0.0804 1.411,0.2412 l -0.297,0.9167 c -0.443,-0.1424 -0.821,-0.2137 -1.134,-0.2137 -0.434,0 -0.754,0.1448 -0.962,0.4342 -0.207,0.2849 -0.311,0.7444 -0.311,1.3785 v 0.4893 h 1.93 z" />
    <path
       id="path895"
       fill="#ffffff"
       d="m 139.921,48.0695 c 0,-0.3078 0.069,-0.5398 0.207,-0.6961 0.143,-0.1608 0.346,-0.2412 0.609,-0.2412 0.267,0 0.475,0.0804 0.622,0.2412 0.152,0.1563 0.228,0.3883 0.228,0.6961 0,0.2987 -0.076,0.5285 -0.228,0.6893 C 141.207,48.9196 141,49 140.737,49 c -0.235,0 -0.431,-0.0712 -0.588,-0.2137 -0.152,-0.147 -0.228,-0.3859 -0.228,-0.7168 z" />
    <path
       id="path897"
       fill="#ffffff"
       d="m 149.049,48.8001 v -4.8866 c 0,-0.6157 -0.141,-1.0752 -0.422,-1.3784 -0.281,-0.3033 -0.721,-0.4549 -1.321,-0.4549 -0.793,0 -1.374,0.2137 -1.742,0.641 -0.369,0.4273 -0.554,1.1326 -0.554,2.1159 v 3.963 h -1.147 v -7.5539 h 0.933 l 0.187,1.0339 h 0.055 c 0.235,-0.3722 0.565,-0.6594 0.989,-0.8616 0.424,-0.2067 0.897,-0.3101 1.418,-0.3101 0.912,0 1.599,0.2205 2.06,0.6617 0.461,0.4365 0.692,1.1372 0.692,2.1021 v 4.9279 z" />
    <path
       id="path899"
       fill="#ffffff"
       d="m 155.764,48.938 c -1.12,0 -2.006,-0.34 -2.656,-1.0201 -0.645,-0.68 -0.968,-1.6242 -0.968,-2.8327 0,-1.2176 0.3,-2.1848 0.899,-2.9016 0.604,-0.7168 1.413,-1.0752 2.427,-1.0752 0.95,0 1.702,0.3124 2.255,0.9373 0.553,0.6203 0.83,1.4405 0.83,2.4606 v 0.7236 h -5.221 c 0.023,0.8868 0.246,1.56 0.67,2.0195 0.429,0.4595 1.031,0.6892 1.805,0.6892 0.816,0 1.623,-0.17 2.421,-0.51 v 1.02 c -0.406,0.1746 -0.791,0.2987 -1.155,0.3722 -0.36,0.0781 -0.795,0.1172 -1.307,0.1172 z m -0.311,-6.8716 c -0.609,0 -1.095,0.1976 -1.46,0.5927 -0.359,0.3952 -0.571,0.942 -0.636,1.6404 h 3.963 c 0,-0.7214 -0.162,-1.2728 -0.484,-1.6541 -0.323,-0.386 -0.784,-0.579 -1.383,-0.579 z" />
    <path
       id="path901"
       fill="#ffffff"
       d="m 162.963,47.9937 c 0.203,0 0.398,-0.0138 0.588,-0.0413 0.189,-0.0322 0.338,-0.0643 0.449,-0.0965 v 0.8753 c -0.124,0.0597 -0.309,0.108 -0.553,0.1447 -0.24,0.0414 -0.457,0.0621 -0.65,0.0621 -1.466,0 -2.199,-0.7697 -2.199,-2.3089 v -4.4938 h -1.086 V 41.584 l 1.086,-0.4756 0.484,-1.6128 h 0.664 v 1.7506 h 2.199 v 0.8891 h -2.199 v 4.4455 c 0,0.4549 0.108,0.8041 0.325,1.0476 0.216,0.2436 0.514,0.3653 0.892,0.3653 z" />
    <text
       id="text1030"
       y="28.40621"
       x="26.489227"
       style="font-size:18.6667px;line-height:1.25;font-family:'Open Sans';-inkscape-font-specification:'Open Sans'"
       xml:space="preserve"><tspan
         style="font-size:16px;fill:#ffffff"
         y="28.40621"
         x="26.489227"
         id="tspan1028"
         sodipodi:role="line">February 25, 2021</tspan></text>
    <text
       id="text1034"
       y="160.18231"
       x="107.78264"
       style="font-size:18.6667px;line-height:1.25;font-family:'Open Sans';-inkscape-font-specification:'Open Sans'"
       xml:space="preserve"><tspan
         style="fill:#ffffff"
         y="160.18231"
         x="107.78264"
         id="tspan1032"
         sodipodi:role="line">Windows</tspan></text>
    <g
       transform="matrix(0.53048613,0,0,0.55423216,262.03969,8.3600084)"
       id="g2142"
       style="fill:none">
      <path
         style="fill:url(#paint0_radial)"
         d="m 467.43,218.16 c -110.5,45.41 -273.32,55.48 -325.37,4.52 -60.12,-58.85 34.4,-130.29 121.18,-97.13 57.67,22.03 133.27,18.38 181.12,12.24 81.12,-10.42 98.17,49.51 23.07,80.37 z"
         fill="url(#paint0_radial)"
         id="path1733" />
      <path
         d="m 263.738,70.1929 -1.168,1.624 0.812,0.5836 1.168,-1.624 z"
         fill="#908d89"
         id="path1735" />
      <path
         d="m 309.19,105.27 -1.7,-1.22 1.16,-1.62 1.7,1.22 z m -5.09,-3.65 -1.7,-1.22 1.17,-1.6199 1.7,1.2199 z m -5.09,-3.6499 -1.7,-1.22 1.16,-1.62 1.7,1.22 z m -5.09,-3.65 -1.7,-1.22 1.17,-1.62 1.7,1.22 z m -5.08,-3.66 -1.7,-1.22 1.16,-1.62 1.7,1.22 z m -5.09,-3.65 -1.7,-1.22 1.17,-1.62 1.7,1.22 z m -5.09,-3.65 -1.7,-1.22 1.16,-1.62 1.7,1.22 z m -5.09,-3.65 -1.7,-1.22 1.17,-1.62 1.7,1.22 z m -5.09,-3.66 -1.7,-1.22 1.16,-1.62 1.7,1.22 z"
         fill="#908d89"
         id="path1737" />
      <path
         d="m 313.754,106.082 -1.166,1.625 0.813,0.583 1.166,-1.625 z"
         fill="#908d89"
         id="path1739" />
      <path
         d="m 336.06,97.1 -2,-0.1 0.1,-2 2,0.1 z m 0.29,-6 -2,-0.1 0.1,-2 2,0.1 z m 0.29,-5.99 -2,-0.1 0.1,-2 2,0.1 z"
         fill="#908d89"
         id="path1741" />
      <path
         d="m 362.6,97.76 -1.22,-1.58 1.58,-1.22 1.22,1.58 z m 4.75,-3.66 -1.22,-1.58 1.58,-1.22 1.22,1.58 z m 4.75,-3.66 -1.22,-1.58 1.59,-1.22 1.22,1.58 z m 4.76,-3.66 -1.22,-1.58 1.58,-1.22 1.22,1.58 z m 4.75,-3.66 -1.22,-1.58 1.58,-1.22 1.22,1.58 z m 4.75,-3.66 -1.22,-1.58 1.59,-1.22 1.22,1.58 z m 4.76,-3.66 -1.22,-1.58 1.58,-1.22 1.22,1.58 z"
         fill="#908d89"
         id="path1743" />
      <path
         d="m 364.56,117.56 -0.39,-1.96 1.96,-0.39 0.39,1.96 z m 5.88,-1.16 -0.39,-1.96 1.96,-0.39 0.39,1.96 z m 5.89,-1.17 -0.39,-1.96 1.96,-0.39 0.39,1.96 z m 5.88,-1.16 -0.39,-1.96 1.96,-0.39 0.39,1.96 z m 5.89,-1.17 -0.39,-1.96 1.96,-0.39 0.39,1.96 z m 5.89,-1.16 -0.39,-1.96 1.96,-0.39 0.39,1.96 z m 5.88,-1.17 -0.39,-1.96 1.96,-0.39 0.39,1.96 z m 5.89,-1.16 -0.39,-1.96 1.96,-0.39 0.39,1.96 z m 5.89,-1.17 -0.39,-1.96 1.96,-0.39 0.39,1.96 z m 5.88,-1.17 -0.39,-1.96 1.96,-0.39 0.39,1.96 z m 5.89,-1.16 -0.39,-1.96 1.96,-0.39 0.39,1.96 z m 5.88,-1.17 -0.39,-1.96 1.96,-0.39 0.39,1.96 z m 5.89,-1.16 -0.39,-1.96 1.96,-0.39 0.39,1.96 z m 5.88,-1.17 -0.39,-1.96 1.96,-0.39 0.39,1.96 z m 5.89,-1.16 -0.39,-1.96 1.96,-0.39 0.39,1.96 z"
         fill="#908d89"
         id="path1745" />
      <path
         d="m 311.92,118.66 -1.81,-0.49 0.52,-1.93 1.81,0.49 z m -5.67,-1.53 -1.93,-0.52 0.52,-1.93 1.93,0.52 z m -5.79,-1.57 -1.93,-0.52 0.52,-1.93 1.93,0.52 z m -5.79,-1.57 -1.93,-0.52 0.52,-1.93 1.93,0.52 z m -5.79,-1.57 -1.93,-0.52 0.52,-1.93 1.93,0.52 z m -5.79,-1.57 -1.93,-0.52 0.52,-1.93 1.93,0.52 z m -5.8,-1.57 -1.93,-0.52 0.52,-1.93 1.93,0.52 z m -5.79,-1.57 -1.93,-0.52 0.52,-1.93 1.93,0.52 z m -5.79,-1.57 -1.93,-0.52 0.52,-1.93 1.93,0.52 z m -5.79,-1.57 -1.93,-0.52 0.52,-1.93 1.93,0.52 z m -5.79,-1.57 -1.93,-0.52 0.52,-1.93 1.93,0.52 z m -5.79,-1.57 -1.93,-0.52 0.52,-1.93 1.93,0.52 z m -5.79,-1.57 -1.93,-0.52 0.52,-1.93 1.93,0.52 z m -5.79,-1.57 -1.93,-0.52 0.52,-1.93 1.93,0.52 z m -5.8,-1.57 -1.93,-0.52 0.52,-1.93 1.93,0.52 z m -5.79,-1.57 -1.93,-0.52 0.52,-1.93 1.93,0.52 z m -5.79,-1.57 -1.93,-0.52 0.52,-1.93 1.93,0.52 z m -5.79,-1.57 -1.93,-0.52 0.52,-1.93 1.93,0.52 z m -5.79,-1.57 -1.93,-0.52 0.52,-1.93 1.93,0.52 z"
         fill="#908d89"
         id="path1747" />
      <path
         d="m 283.23,204.07 c -0.71,-2.92 -3.51,-7.09 -10.67,-6.85 l -2.86,0.2 -0.13,-0.1 -1.61,0.22 -64.5,4.42 c -5.56,0 -10.38,3.51 -11.7,8.53 l -12.37,52.59 h 4.2 l 12.14,-51.69 c 0.68,-2.57 2.4,-3.92 4.78,-4.27 9.35,0 19.35,0.5 25.69,0.84 -1.15,1.92 -2.01,4.42 -2.44,7.81 l -1.44,34.09 h 4.08 l 1.42,-33.72 c 0.42,-3.71 1.69,-6.18 3.29,-7.92 0.19,0.01 0.38,0.02 0.54,0.02 0.09,0 0.17,-0.01 0.26,-0.01 4.72,0.83 8.86,2.58 9.85,8.08 l 6.08,55.24 h 4.09 l -5.68,-55.27 c -0.56,-4.82 -3.55,-8.46 -8.38,-10.44 l 35.27,-4.9 c 2.82,-0.13 5.28,1.32 6.2,4.22 l 16.2,52.63 L 299,256 Z"
         fill="#c8c6c4"
         id="path1749" />
      <path
         style="fill:url(#paint1_radial)"
         d="m 219.75,199.04 c 0,0 -18,4.55 -27.08,4.55 -9.07,0 -13.58,-8.06 -15.92,-20.62 -2.34,-12.56 -6.86,-50.42 -4.39,-61.4 1.76,-7.82 7.02,-10.89 15.8,-11.16 5.26,-0.17 16.97,-0.56 27.8,1.12 10.83,1.67 18.21,17.17 24.87,27.35 19.9,30.42 32.89,50.11 32.89,50.11 z"
         fill="url(#paint1_radial)"
         id="path1751" />
      <path
         style="fill:url(#paint2_linear)"
         d="m 275.32,197.41 -56.83,7.45 c -4.34,0 -34.18,-4.58 -34.18,-8.9 v -3.89 c 0,-4.32 15.94,-7.06 20.29,-7.06 l 70.73,-7.14 c 4.34,0 7.86,3.5 7.86,7.82 v 3.89 c -0.01,4.33 -3.53,7.83 -7.87,7.83 z"
         fill="url(#paint2_linear)"
         id="path1753" />
      <path
         d="m 300.25,157.98 c -0.64,0.42 -15.9,10.33 -30.5,5.2 -8.44,-2.96 -14.74,-10.16 -18.73,-21.4 l 7.71,-3.09 c 3.09,8.69 7.68,14.16 13.65,16.27 10.89,3.85 23.43,-4.22 23.55,-4.3 z"
         fill="#8a6fe8"
         id="path1755" />
      <path
         d="m 249.59,204.63 c 1.35,-6.83 2.91,-20.91 -2.36,-33.93 l -8.05,2.84 c 4.78,11.81 3,24.21 1.84,29.56 -0.09,0.44 4.19,1.66 8.57,1.53 z"
         fill="url(#paint3_linear)"
         id="path1757"
         style="fill:url(#paint3_linear-2)" />
      <path
         d="m 241.04,203.03 6.74,1.22 -0.08,35.38 -13.52,-2.46 c -1.03,-0.19 -1.66,-1.12 -1.41,-2.09 z"
         fill="#522cd5"
         id="path1759" />
      <path
         d="m 263.78,233.31 c 1,1.09 0.75,2.36 0.41,3.68 l -1.04,4.05 c -0.19,0.72 -0.97,1.2 -1.75,1.06 l -14.09,-2.56 c -0.88,-0.16 -1.41,-0.95 -1.2,-1.78 l 0.89,-4.23 c 0.39,-1.52 -0.05,-2.19 -1.03,-3.88 -1.69,-2.89 -5.54,-17.62 -3.29,-26.33 l 6.94,1.26 c -0.54,5.33 4.57,18.31 14.16,28.73 z"
         fill="url(#paint4_linear)"
         id="path1761"
         style="fill:url(#paint4_linear-0)" />
      <path
         d="m 264.18,236.99 c 0.24,-0.92 0.42,-1.82 0.18,-2.64 l -17.58,-3.19 c 0.36,0.77 0.45,1.4 0.2,2.38 l -0.89,4.23 c -0.21,0.82 0.33,1.62 1.2,1.77 l 14.09,2.56 c 0.77,0.14 1.56,-0.34 1.75,-1.06 z"
         fill="url(#paint5_radial)"
         id="path1763"
         style="fill:url(#paint5_radial-8)" />
      <path
         style="fill:url(#paint6_linear)"
         d="m 223.29,200.98 c 6.97,-7.64 11.26,-12.06 11.06,-14.25 -0.05,-0.55 -0.73,-1.65 -3.71,-3.8 -2.52,-1.82 -5.45,-3.88 -5.45,-3.89 l 5.25,-6.73 c 0,0 2.96,2.09 5.51,3.93 3.4,2.45 6.61,5.3 6.98,9.5 0.52,5.77 -2.4,8.87 -12.68,20.14 z"
         fill="url(#paint6_linear)"
         id="path1765" />
      <path
         d="m 273.97,143.53 c 1.2,-11.55 -2.24,-20.11 -2.24,-20.11 l 2.75,-0.41 0.06,-0.06 c -7.32,-19.76 -28.66,-32.37 -51.22,-28.98 -25.42,3.82 -42.77,26.49 -38.75,50.64 4.02,24.15 27.89,40.63 53.31,36.81 20.06,-3.01 35.09,-17.77 38.56,-35.72 0.06,-0.75 -0.17,-2.05 -2.47,-2.17 z"
         fill="url(#paint7_radial)"
         id="path1767"
         style="fill:url(#paint7_radial-8)" />
      <path
         d="m 274.06,153.86 -79.48,11.94 c 2.26,2.61 4.82,4.95 7.62,7 l 66.87,-10.05 c 2.02,-2.77 3.69,-5.75 4.99,-8.89 z"
         fill="#d8cff7"
         id="path1769" />
      <path
         d="m 251.28,167.86 14.92,-2.24 -2.09,-12.53 -14.91,2.24 z"
         fill="#512bd4"
         id="path1771" />
      <path
         d="m 253.11,162.8 c -0.1,0.01 -0.19,0 -0.27,-0.06 -0.08,-0.05 -0.13,-0.13 -0.14,-0.21 -0.01,-0.09 0.01,-0.17 0.07,-0.25 0.06,-0.07 0.14,-0.12 0.24,-0.13 0.1,-0.01 0.19,0 0.27,0.06 0.08,0.05 0.13,0.13 0.14,0.22 0.01,0.09 -0.01,0.17 -0.07,0.25 -0.06,0.06 -0.14,0.1 -0.24,0.12 z"
         fill="#ffffff"
         id="path1773" />
      <path
         d="m 257.07,162.16 -0.65,0.1 -2.12,-2.3 c -0.05,-0.06 -0.1,-0.12 -0.14,-0.18 h -0.01 c 0.03,0.07 0.06,0.23 0.1,0.47 l 0.37,2.27 -0.57,0.08 -0.57,-3.47 0.69,-0.1 2.05,2.24 c 0.09,0.09 0.14,0.16 0.17,0.19 h 0.01 c -0.03,-0.09 -0.07,-0.24 -0.1,-0.46 l -0.37,-2.23 0.57,-0.08 z"
         fill="#ffffff"
         id="path1775" />
      <path
         d="m 259.85,161.75 -2,0.3 -0.57,-3.47 1.92,-0.28 0.08,0.49 -1.33,0.2 0.16,0.98 1.22,-0.18 0.08,0.49 -1.22,0.18 0.17,1.02 1.41,-0.21 z"
         fill="#ffffff"
         id="path1777" />
      <path
         d="m 262.2,158.35 -1.02,0.15 0.49,2.98 -0.59,0.09 -0.49,-2.98 -1.02,0.15 -0.08,-0.49 2.63,-0.39 z"
         fill="#ffffff"
         id="path1779" />
      <path
         d="m 274.07,143.51 c 1.18,-11.41 -2.15,-19.89 -2.24,-20.1 l -47.75,7.17 c 0,0 -3.06,0.16 -2.62,2.77 0.43,2.61 1.78,9.97 3.13,18.13 0.28,1.68 1.86,2.27 3,2.1 0,0 45.58,-8.08 46.48,-10.07 z"
         fill="url(#paint8_radial)"
         id="path1781"
         style="fill:url(#paint8_radial-9)" />
      <path
         d="m 245.58,147.81 c 0,0 6.42,-6.63 7.69,-7.86 1.26,-1.24 2.51,-1.48 4,-0.6 1.49,0.88 9.76,5.24 9.76,5.24 z"
         fill="#a08be8"
         id="path1783" />
      <path
         d="m 276.34,146.28 c 0,0 0.98,-2.59 -2.27,-2.77 0,-0.01 -46.96,7.02 -46.96,7.02 -1.09,0.16 -2.6,-0.24 -2.89,-1.23 0.12,0.72 0.24,1.45 0.37,2.19 0.25,1.52 1.58,2.15 2.67,2.12 0.11,0 0.22,-0.01 0.33,-0.03 l 3.21,-0.48 z"
         fill="#512bd4"
         id="path1785" />
      <path
         d="m 238.036,144.607 c 1.974,-0.383 3.077,-3.255 2.463,-6.416 -0.613,-3.161 -2.709,-5.413 -4.683,-5.031 -1.973,0.383 -3.076,3.256 -2.463,6.417 0.613,3.161 2.71,5.413 4.683,5.03 z"
         fill="#512bd4"
         id="path1787" />
      <path
         d="m 236.42,136.01 c 0.62,-0.81 1.56,-1.27 2.53,-1.33 0.73,0.92 1.3,2.17 1.57,3.61 0.16,0.9 0.19,1.76 0.09,2.56 -1.09,0.48 -2.4,0.4 -3.44,-0.32 -1.52,-1.05 -1.86,-3.08 -0.75,-4.52 z"
         fill="#8065e0"
         id="path1789" />
      <path
         d="m 301.35,142.9 -11.04,6.98 c -1.82,1.15 -2.45,3.55 -1.41,5.36 l 0.19,0.32 c 1.04,1.81 3.37,2.34 5.19,1.19 l 11.04,-6.98 c 1.82,-1.15 2.45,-3.55 1.41,-5.36 l -0.19,-0.32 c -1.05,-1.81 -3.37,-2.34 -5.19,-1.19 z"
         fill="#8a6fe8"
         id="path1791" />
      <path
         d="m 295.65,164.93 7.87,2.27 c 2.1,0.59 4.28,-0.73 4.86,-2.94 0.58,-2.22 -0.65,-4.49 -2.75,-5.08 l -8.07,-2.33 z"
         fill="#8a6fe8"
         id="path1793" />
      <path
         d="m 299.37,162.38 11.16,-1.89 c 2.15,-0.37 3.63,-2.51 3.29,-4.77 -0.33,-2.26 -2.35,-3.79 -4.51,-3.42 l -8.3,1.38 z"
         fill="#8a6fe8"
         id="path1795" />
      <path
         d="m 298.71,159.92 10.49,-4.5 c 2.03,-0.87 3.02,-3.29 2.21,-5.41 -0.8,-2.12 -3.1,-3.14 -5.13,-2.28 l -10.68,4.58 z"
         fill="#8a6fe8"
         id="path1797" />
      <path
         d="m 288.38,151.67 c 2.6,-3.97 7.75,-4.99 11.5,-2.29 3.75,2.7 4.68,8.11 2.07,12.08 -2.6,3.97 -7.75,4.99 -11.5,2.29 -3.74,-2.71 -4.67,-8.12 -2.07,-12.08 z"
         fill="url(#paint9_radial)"
         id="path1799"
         style="fill:url(#paint9_radial-9)" />
      <path
         d="m 218.48,92.15 8.59,-1.32 -3.88,-14.59 -6.17,0.94 z"
         fill="#8a6fe8"
         id="path1801" />
      <path
         d="m 222.63,82.32 c -3,1.25 -6.51,-0.02 -7.85,-2.85 -1.33,-2.82 0.01,-6.11 3.02,-7.36 3,-1.25 6.51,0.02 7.85,2.85 1.33,2.82 -0.02,6.11 -3.02,7.36 z"
         fill="#d8cff7"
         id="path1803" />
      <path
         d="m 216.08,97.72 c -0.38,0.06 -0.76,-0.21 -0.77,-0.57 -0.22,-3.9 2.71,-7.41 6.91,-8.06 4.2,-0.64 8.18,1.8 9.31,5.56 0.11,0.36 -0.15,0.72 -0.53,0.77 z"
         fill="#522cd5"
         id="path1805" />
      <path
         d="m 223.37,200.94 5.42,3.81 -8.83,37.91 -19.3,-13.53 c -0.83,-0.58 -0.94,-1.68 -0.25,-2.46 z"
         fill="#522cd5"
         id="path1807" />
      <path
         style="fill:url(#paint10_linear)"
         d="m 230.77,238.6 c 0.5,1.35 -0.41,2.65 -1.35,3.71 l -2.9,3.25 c -0.52,0.58 -1.45,0.7 -2.07,0.26 l -6.82,-4.79 c -0.7,-0.5 -0.8,-1.43 -0.21,-2.09 l 2.84,-3.48 c 1.09,-1.22 1.6,-2.12 0.96,-3.93 -3.79,-10.69 -2.44,-20.62 4.08,-29.23 l 4.96,3.49 c -3.05,4.61 -6.01,15.07 0.51,32.81 z"
         fill="url(#paint10_linear)"
         id="path1809" />
      <path
         d="m 224.44,245.82 c 0.62,0.44 1.55,0.32 2.07,-0.26 l 2.9,-3.25 c 0.62,-0.7 1.22,-1.49 1.42,-2.34 l -9.38,-6.59 c -0.12,0.75 -0.56,1.36 -1.2,2.08 l -2.84,3.48 c -0.59,0.66 -0.49,1.59 0.21,2.09 z"
         fill="url(#paint11_radial)"
         id="path1811"
         style="fill:url(#paint11_radial-3)" />
      <path
         d="m 267.046,140.257 c 1.974,-0.383 3.077,-3.255 2.464,-6.416 -0.613,-3.161 -2.71,-5.413 -4.684,-5.031 -1.973,0.383 -3.076,3.256 -2.463,6.417 0.613,3.161 2.71,5.413 4.683,5.03 z"
         fill="#512bd4"
         id="path1813" />
      <path
         d="m 265.43,131.66 c 0.62,-0.81 1.56,-1.27 2.53,-1.33 0.73,0.92 1.3,2.17 1.57,3.61 0.16,0.9 0.19,1.76 0.09,2.56 -1.09,0.48 -2.4,0.4 -3.44,-0.32 -1.52,-1.05 -1.86,-3.08 -0.75,-4.52 z"
         fill="#8065e0"
         id="path1815" />
      <path
         style="fill:url(#paint12_linear)"
         d="m 195.01,176.3 c -3.68,-4.91 -3.99,-15.01 1.16,-26.35 0.96,-2.12 9,0.94 8.04,3.06 -5.33,11.79 -3.15,17.77 -2.46,18.51 1.84,1.99 7.37,1.9 13.74,-0.22 2.16,-0.72 4.56,0.53 5.35,2.78 0.79,2.26 -0.32,4.67 -2.48,5.38 -5.85,1.94 -16.56,4.25 -22.52,-2.17 -0.3,-0.31 -0.57,-0.64 -0.83,-0.99 z"
         fill="url(#paint12_linear)"
         id="path1817" />
      <path
         d="m 228.72,163.59 -11.91,3.88 c -1.96,0.64 -3,2.83 -2.32,4.9 l 0.12,0.37 c 0.68,2.06 2.83,3.22 4.79,2.58 l 11.91,-3.88 c 1.96,-0.64 3,-2.83 2.32,-4.9 l -0.12,-0.37 c -0.68,-2.07 -2.83,-3.22 -4.79,-2.58 z"
         fill="#8a6fe8"
         id="path1819" />
      <path
         d="m 218.65,183.4 7.37,4.41 c 1.97,1.16 4.43,0.56 5.5,-1.35 1.07,-1.91 0.33,-4.4 -1.64,-5.56 l -7.55,-4.52 z"
         fill="#8a6fe8"
         id="path1821" />
      <path
         d="m 221.56,182.5 11.56,1.47 c 2.23,0.28 4.18,-1.3 4.34,-3.52 0.16,-2.22 -1.52,-4.24 -3.75,-4.51 l -8.6,-1.12 z"
         fill="#8a6fe8"
         id="path1823" />
      <path
         d="m 221.71,178.86 11.47,-1.18 c 2.22,-0.22 3.74,-2.21 3.4,-4.43 -0.34,-2.22 -2.41,-3.84 -4.62,-3.62 l -11.68,1.19 z"
         fill="#8a6fe8"
         id="path1825" />
      <path
         d="m 214.3,168.86 c 3.47,-2.96 8.84,-2.43 12,1.19 3.16,3.62 2.89,8.95 -0.58,11.92 -3.47,2.96 -8.84,2.43 -12,-1.19 -3.16,-3.62 -2.9,-8.96 0.58,-11.92 z"
         fill="url(#paint13_radial)"
         id="path1827"
         style="fill:url(#paint13_radial-2)" />
      <path
         style="fill:url(#paint14_radial)"
         d="m 201.45,156.05 c 4.728,0 8.56,-3.64 8.56,-8.13 0,-4.49 -3.832,-8.13 -8.56,-8.13 -4.727,0 -8.56,3.64 -8.56,8.13 0,4.49 3.833,8.13 8.56,8.13 z"
         fill="url(#paint14_radial)"
         id="path1829" />
      <path
         d="m 171.84,125.29 c -1.13,14.09 2.78,46.29 4.9,57.69 2.34,12.56 7.02,20.93 16.1,20.93 l 25.56,0.99 c 1.29,0 1.99,-1.51 1.14,-2.49 -12.29,-14.16 -41.01,-50.78 -47.7,-77.12 z"
         fill="#1ba6c5"
         id="path1831" />
      <path
         d="m 385.78,262.32 c -1.09,-0.25 -98.34,-0.25 -99.44,0.01 -2.3,0.54 -2.7,2.32 -0.86,3.07 0.02,0.01 0.04,0.01 0.06,0.02 3.83,1.73 25.01,3.06 50.56,3.06 25.4,0 46.47,-1.31 50.49,-3.03 0.01,0 0.01,0 0.02,0 0.03,-0.01 0.05,-0.02 0.08,-0.03 0.01,0 0.01,-0.01 0.02,-0.01 1.83,-0.8 1.33,-2.57 -0.93,-3.09 z"
         fill="#1ba6c5"
         id="path1833" />
      <path
         style="fill:url(#paint15_linear)"
         d="m 353.94,259.77 c -7.02,-3.78 -14.93,-20.39 -14.93,-38.61 0,-15.52 0.52,-48.44 27.98,-52.73 l -28.4,-6.09 -1.64,0.2 -30.04,5.9 c 27.46,4.28 27.98,37.21 27.98,52.73 0,18.05 -9.77,34.8 -16.8,38.62 -19.37,0.52 -33.16,1.84 -33.16,3.39 0,2 22.91,3.63 51.18,3.63 28.26,0 51.18,-1.62 51.18,-3.63 -0.01,-1.56 -13.88,-2.89 -33.35,-3.41 z"
         fill="url(#paint15_linear)"
         id="path1835" />
      <path
         d="m 421.61,162.35 c -1.82,-0.32 -168.25,-0.2 -169.55,0.09 -2.82,0.64 -3.94,2.88 0.71,3.76 h 0.01 c 8.89,1.9 43.23,3.32 84.24,3.32 42.06,0 77.1,-1.49 84.86,-3.46 h 0.01 c 4.23,-0.93 3.47,-3.04 -0.28,-3.71 z"
         fill="#57cacf"
         id="path1837" />
      <path
         d="m 337.02,167.54 c 47.762,0 86.48,-1.921 86.48,-4.29 0,-2.369 -38.718,-4.29 -86.48,-4.29 -47.762,0 -86.48,1.921 -86.48,4.29 0,2.369 38.718,4.29 86.48,4.29 z"
         fill="#9fe4eb"
         id="path1839" />
      <path
         d="m 266.54,159.14 49.93,-4.36 c 0,0 -3.68,6.99 -4.05,6.99 -0.36,0.01 -45.88,-2.63 -45.88,-2.63 z"
         fill="#c8c6c4"
         id="path1841" />
      <path
         d="m 344.97,162.46 h -75.11 c -1.83,0 -3.31,-1.48 -3.31,-3.31 h 81.74 c -0.01,1.82 -1.49,3.31 -3.32,3.31 z"
         fill="#605d5a"
         id="path1843" />
      <path
         d="m 308.78,162.46 h -38.92 c -1.83,0 -3.31,-1.48 -3.31,-3.31 h 81.74 -36.19 c -0.01,1.82 -1.5,3.31 -3.32,3.31 z"
         fill="#797673"
         id="path1845" />
      <path
         d="m 360.7,100.1 -37.7,0.41 c -0.89,0.01 -1.65,0.64 -1.82,1.51 l -11.57,57.12 h 38.65 l 14.7,-56.16 c 0.37,-1.46 -0.75,-2.89 -2.26,-2.88 z"
         fill="#b3afab"
         id="path1847" />
      <path
         d="m 360.7,100.1 -35.25,0.41 c -0.89,0.01 -1.65,0.64 -1.82,1.51 l -11.57,57.12 h 36.19 l 14.7,-56.16 c 0.38,-1.46 -0.74,-2.89 -2.25,-2.88 z"
         fill="#737373"
         id="path1849" />
      <path
         d="m 328.97,166.51 h -10.3 l -1.87,-23.18 h 14.05 z"
         fill="#ffffff"
         id="path1851" />
      <path
         d="m 330.48,147.93 0.37,-4.6 H 316.8 l 0.37,4.6 z"
         fill="#e1dfdd"
         id="path1853" />
      <path
         d="m 331.61,144.83 h -15.86 c -0.54,0 -0.95,-0.5 -0.84,-1.03 l 0.64,-2.99 c 0.08,-0.39 0.43,-0.68 0.84,-0.68 h 14.57 c 0.4,0 0.75,0.28 0.84,0.68 l 0.64,2.99 c 0.12,0.53 -0.29,1.03 -0.83,1.03 z"
         fill="#605d5a"
         id="path1855" />
      <path
         d="m 246,36.1801 c -0.94,0.31 -1.87,0.68 -2.78,1.11 -1.25,0.6 -2.4,1.29 -3.47,2.07 l 1.92,4.13 c -1.06,0.89 -1.99,1.89 -2.77,2.97 l -5.09,-0.51 c -1.15,2.02 -1.92,4.2 -2.28,6.44 l 4.51,1.89 c -0.1,1.49 0.04,3.01 0.43,4.49 -1.1,0.72 -2.95,1.88 -4.13,2.62 0.3,0.85 0.67,1.69 1.1,2.51 0.6,1.13 1.32,2.18 2.11,3.14 l 4.61,-1.8 c 1,1.03 2.15,1.9 3.39,2.62 l -0.81,4.64 c 2.17,0.99 4.53,1.62 6.96,1.86 l 2.37,-4.27 c 1.37,0 2.74,-0.16 4.11,-0.48 l 2.73,3.77 c 0.99,-0.32 1.97,-0.7 2.93,-1.16 1.31,-0.63 2.52,-1.36 3.63,-2.18 l -1.98,-4.11 c 1.09,-0.93 2.04,-1.97 2.83,-3.1 l 4.89,0.79 c 1.22,-2.13 2.02,-4.44 2.36,-6.81 -1.43,-0.49 -3.43,-1.19 -4.56,-1.61 0.09,-1.36 -0.02,-2.74 -0.34,-4.09 l 4.2,-2.51 c -0.33,-1.01 -0.75,-2.01 -1.27,-2.99 -0.64,-1.2 -1.4,-2.31 -2.26,-3.33 l -4.42,2.02 c -1.05,-1.09 -2.26,-2 -3.58,-2.74 l 1.08,-4.5 c -2.1,-0.97 -4.36,-1.6 -6.71,-1.87 l -1.98,4.25 c -1.66,-0.07 -3.34,0.09 -5.01,0.5 z m 14.93,14.54 c 2.27,4.25 0.34,9.5 -4.31,11.73 -4.64,2.23 -10.25,0.59 -12.51,-3.66 -2.27,-4.25 -0.34,-9.5 4.31,-11.73 4.65,-2.23 10.25,-0.59 12.51,3.66 z"
         fill="#a7a4a0"
         id="path1857" />
      <path
         d="m 498.17,102.14 h -41.82 c -1.62,0 -2.94,-1.32 -2.94,-2.94 V 69.1 c 0,-1.62 1.32,-2.94 2.94,-2.94 h 41.82 c 1.62,0 2.94,1.32 2.94,2.94 v 30.1 c 0,1.63 -1.32,2.94 -2.94,2.94 z"
         fill="#84817d"
         id="path1859" />
      <path
         d="m 453.41,94.78 v 4.78 c 0,1.43 1.16,2.58 2.58,2.58 h 42.5 c 1.44,0 2.62,-1.17 2.62,-2.62 v -4.74 z"
         fill="#c5d43b"
         id="path1861" />
      <path
         d="M 471.49,86.66 V 73.83 c 0,-1.11 1.2,-1.8 2.16,-1.25 L 484.77,79 c 0.96,0.55 0.96,1.94 0,2.49 l -11.13,6.42 c -0.95,0.55 -2.15,-0.14 -2.15,-1.25 z"
         fill="#ffffff"
         id="path1863" />
      <path
         d="m 200.65,89.88 h -47.46 c -1.63,0 -2.95,-1.32 -2.95,-2.95 v -31.2 c 0,-1.63 1.32,-2.95 2.95,-2.95 h 47.46 c 1.63,0 2.95,1.32 2.95,2.95 v 31.2 c 0,1.63 -1.32,2.95 -2.95,2.95 z"
         fill="#c5d43b"
         id="path1865" />
      <path
         d="m 203.6,59.9 v -5.1 c 0,-1.11 -0.9,-2.01 -2.01,-2.01 h -49.33 c -1.11,0 -2.01,0.9 -2.01,2.01 v 5.1 z"
         fill="#84817d"
         id="path1867" />
      <path
         d="m 159.01,55.7101 h -4.19 v 2.14 h 4.19 z"
         fill="#cccac7"
         id="path1869" />
      <path
         d="m 165.84,55.7101 h -4.19 v 2.14 h 4.19 z"
         fill="#cccac7"
         id="path1871" />
      <path
         d="m 171.2,80.1101 -12.17,-5.35 v -1.24 l 12.17,-6.07 v 1.89 l -9.91,4.7 9.91,4.16 z"
         fill="#ffffff"
         id="path1873" />
      <path
         d="m 181.81,64.66 -6.9,18.52 h -2.1 l 6.9,-18.52 z"
         fill="#ffffff"
         id="path1875" />
      <path
         d="m 183.39,78.2001 9.92,-4.13 -9.92,-4.73 v -1.89 l 12.17,6.07 v 1.24 l -12.17,5.35 z"
         fill="#ffffff"
         id="path1877" />
      <path
         d="m 351.22,77.84 h -37.3 V 31.9 h 24.53 l 12.77,12.21 z"
         fill="#58d0db"
         id="path1879" />
      <path
         d="m 338.45,31.9 v 12.23 h 12.77 v -0.02 z"
         fill="#9fe4eb"
         id="path1881" />
      <path
         d="m 343.23,50.13 h -21.85 c -0.38,0 -0.68,-0.31 -0.68,-0.68 0,-0.37 0.31,-0.68 0.68,-0.68 h 21.85 c 0.38,0 0.68,0.31 0.68,0.68 0,0.37 -0.3,0.68 -0.68,0.68 z"
         fill="#1189a5"
         id="path1883" />
      <path
         d="m 337.77,55.6 h -16.39 c -0.38,0 -0.68,-0.31 -0.68,-0.68 0,-0.38 0.31,-0.68 0.68,-0.68 h 16.39 c 0.38,0 0.68,0.31 0.68,0.68 0,0.37 -0.3,0.68 -0.68,0.68 z"
         fill="#1189a5"
         id="path1885" />
      <path
         d="m 343.23,61.0601 h -21.85 c -0.38,0 -0.68,-0.31 -0.68,-0.68 0,-0.38 0.31,-0.68 0.68,-0.68 h 21.85 c 0.38,0 0.68,0.31 0.68,0.68 0,0.37 -0.3,0.68 -0.68,0.68 z"
         fill="#1189a5"
         id="path1887" />
      <path
         d="m 337.77,66.52 h -16.39 c -0.38,0 -0.68,-0.31 -0.68,-0.68 0,-0.38 0.31,-0.68 0.68,-0.68 h 16.39 c 0.38,0 0.68,0.31 0.68,0.68 0,0.37 -0.3,0.68 -0.68,0.68 z"
         fill="#1189a5"
         id="path1889" />
      <path
         d="m 439.71,38.14 -25.14,5.9 0.08,26.39 c -0.63,-0.58 -1.52,-0.31 -2.45,-0.31 -0.9,0 -1.64,-0.93 -2.27,-0.38 l -0.06,-25.7 -25.14,-5.9 0.03,30.94 24.1,4.38 c 0.81,1.3 1.8,1.74 3.33,1.74 1.53,0 2.57,-0.5 3.33,-1.73 l 24.15,-4.31 z"
         fill="#0769dc"
         id="path1891" />
      <path
         d="m 435.92,35.4 c 0,0 -18.16,3.24 -20.5,3.99 -2.34,0.74 -3.3,2.33 -3.24,5.34 0.07,3.02 0,25.61 0,25.61 l 24.14,-4.7 z"
         fill="#cae0fa"
         id="path1893" />
      <path
         d="m 388.71,35.4 c 0,0 17.98,3.24 20.32,3.99 2.34,0.74 3.3,2.33 3.24,5.34 -0.07,3.02 -0.09,25.61 -0.09,25.61 L 388.13,65.7 Z"
         fill="#a3c9f6"
         id="path1895" />
      <path
         d="m 407.76,44.94 c -0.03,0 -0.06,0 -0.09,-0.01 L 393.08,42.1 c -0.24,-0.05 -0.4,-0.28 -0.36,-0.53 0.05,-0.25 0.29,-0.4 0.53,-0.36 l 14.59,2.83 c 0.24,0.05 0.4,0.28 0.36,0.53 -0.04,0.22 -0.23,0.37 -0.44,0.37 z"
         fill="#b3afab"
         id="path1897" />
      <path
         d="m 407.76,49.2 c -0.03,0 -0.06,0 -0.09,-0.01 l -14.6,-2.83 c -0.24,-0.05 -0.4,-0.28 -0.36,-0.53 0.05,-0.25 0.29,-0.4 0.53,-0.36 l 14.6,2.83 c 0.24,0.05 0.4,0.28 0.36,0.53 -0.04,0.22 -0.23,0.37 -0.44,0.37 z"
         fill="#b3afab"
         id="path1899" />
      <path
         d="m 407.76,53.4501 c -0.03,0 -0.06,0 -0.09,-0.01 l -14.6,-2.83 c -0.24,-0.05 -0.4,-0.28 -0.36,-0.53 0.05,-0.25 0.29,-0.41 0.53,-0.36 l 14.6,2.83 c 0.24,0.05 0.4,0.28 0.36,0.53 -0.04,0.22 -0.23,0.37 -0.44,0.37 z"
         fill="#b3afab"
         id="path1901" />
      <path
         d="m 407.76,57.7001 c -0.03,0 -0.06,0 -0.09,-0.01 l -14.59,-2.83 c -0.24,-0.05 -0.4,-0.28 -0.36,-0.53 0.05,-0.25 0.29,-0.41 0.53,-0.36 l 14.59,2.83 c 0.24,0.05 0.4,0.28 0.36,0.53 -0.04,0.22 -0.23,0.37 -0.44,0.37 z"
         fill="#b3afab"
         id="path1903" />
      <path
         d="m 416.62,44.94 c 0.03,0 0.06,0 0.09,-0.01 L 431.3,42.1 c 0.24,-0.05 0.4,-0.28 0.36,-0.53 -0.05,-0.25 -0.29,-0.4 -0.53,-0.36 l -14.59,2.83 c -0.24,0.05 -0.4,0.28 -0.36,0.53 0.04,0.22 0.23,0.37 0.44,0.37 z"
         fill="#b3afab"
         id="path1905" />
      <path
         d="m 416.62,49.2 c 0.03,0 0.06,0 0.09,-0.01 l 14.6,-2.83 c 0.24,-0.05 0.4,-0.28 0.36,-0.53 -0.05,-0.25 -0.29,-0.4 -0.53,-0.36 l -14.6,2.83 c -0.24,0.05 -0.4,0.28 -0.36,0.53 0.04,0.22 0.23,0.37 0.44,0.37 z"
         fill="#b3afab"
         id="path1907" />
      <path
         d="m 416.62,53.4501 c 0.03,0 0.06,0 0.09,-0.01 l 14.6,-2.83 c 0.24,-0.05 0.4,-0.28 0.36,-0.53 -0.05,-0.25 -0.29,-0.41 -0.53,-0.36 l -14.6,2.83 c -0.24,0.05 -0.4,0.28 -0.36,0.53 0.04,0.22 0.23,0.37 0.44,0.37 z"
         fill="#b3afab"
         id="path1909" />
      <path
         d="m 416.62,57.7001 c 0.03,0 0.06,0 0.09,-0.01 l 14.59,-2.83 c 0.24,-0.05 0.4,-0.28 0.36,-0.53 -0.05,-0.25 -0.29,-0.41 -0.53,-0.36 l -14.59,2.83 c -0.24,0.05 -0.4,0.28 -0.36,0.53 0.04,0.22 0.23,0.37 0.44,0.37 z"
         fill="#b3afab"
         id="path1911" />
      <path
         d="m 410.5,70.92 c 0.54,-0.33 1.16,-0.52 1.84,-0.52 0.62,0 1.21,0.17 1.72,0.45 l 22.86,-3.67 0.21,-28.58 -1.28,-3.21 -0.13,29.67 c 0,0 -18.76,3.12 -20.44,3.5 -1.68,0.39 -3.06,1.74 -3.06,1.74 0,0 -0.66,-1.13 -2.77,-1.67 -2.11,-0.54 -20.73,-3.71 -20.73,-3.71 l 0.05,-29.47 -1.32,3.36 0.08,28.13 z"
         fill="#4995ee"
         id="path1913" />
    </g>
  </g>
  <defs
     id="defs1020">
    <linearGradient
       gradientUnits="userSpaceOnUse"
       y2="427.339"
       x2="463.024"
       y1="58"
       x1="644.5"
       id="paint0_linear">
      <stop
         id="stop905"
         stop-color="#C2DEFF"
         offset="0.0213813" />
      <stop
         id="stop907"
         stop-color="#0F70E3"
         offset="0.748401" />
    </linearGradient>
    <linearGradient
       gradientUnits="userSpaceOnUse"
       y2="76.2616"
       x2="497.578"
       y1="55.2273"
       x1="501.17"
       id="paint1_linear">
      <stop
         id="stop910"
         stop-color="#958FE7"
         offset="0.2584" />
      <stop
         id="stop912"
         stop-color="#BBB7EF"
         offset="0.4497" />
    </linearGradient>
    <radialGradient
       gradientTransform="translate(504.403 73.4892) rotate(-160.28) scale(6.15375)"
       gradientUnits="userSpaceOnUse"
       r="1"
       cy="0"
       cx="0"
       id="paint2_radial">
      <stop
         id="stop915"
         stop-color="#A08BE8" />
      <stop
         id="stop917"
         stop-color="#8065E0"
         offset="1" />
    </radialGradient>
    <linearGradient
       gradientUnits="userSpaceOnUse"
       y2="87.0176"
       x2="471.519"
       y1="72.468"
       x1="471.519"
       id="paint3_linear">
      <stop
         id="stop920"
         stop-color="#958FE7"
         offset="0.1788" />
      <stop
         id="stop922"
         stop-color="#BBB7EF"
         offset="0.4497" />
    </linearGradient>
    <linearGradient
       gradientUnits="userSpaceOnUse"
       y2="83.5734"
       x2="484.195"
       y1="72.8001"
       x1="483.252"
       id="paint4_linear">
      <stop
         id="stop925"
         stop-color="#958FE7"
         offset="0.1788" />
      <stop
         id="stop927"
         stop-color="#BBB7EF"
         offset="0.4497" />
    </linearGradient>
    <radialGradient
       gradientTransform="translate(486.635 46.3488) scale(23.1065)"
       gradientUnits="userSpaceOnUse"
       r="1"
       cy="0"
       cx="0"
       id="paint5_radial">
      <stop
         id="stop930"
         stop-color="#A08BE8"
         offset="0.4744" />
      <stop
         id="stop932"
         stop-color="#8065E0"
         offset="0.8618" />
    </radialGradient>
    <radialGradient
       gradientTransform="translate(506.121 44.1624) scale(21.0886)"
       gradientUnits="userSpaceOnUse"
       r="1"
       cy="0"
       cx="0"
       id="paint6_radial">
      <stop
         id="stop935"
         stop-color="#E1DFDD" />
      <stop
         id="stop937"
         stop-color="#EDECEB"
         offset="0.1047" />
      <stop
         id="stop939"
         stop-color="white"
         offset="0.7337" />
    </radialGradient>
    <radialGradient
       gradientTransform="translate(478.485 59.554) scale(19.6945)"
       gradientUnits="userSpaceOnUse"
       r="1"
       cy="0"
       cx="0"
       id="paint7_radial">
      <stop
         id="stop942"
         stop-color="#512BD4" />
      <stop
         id="stop944"
         stop-color="#6645D9"
         offset="0.5045" />
      <stop
         id="stop946"
         stop-color="#7659DD"
         offset="0.7759" />
      <stop
         id="stop948"
         stop-color="#8065E0"
         offset="1" />
    </radialGradient>
    <radialGradient
       gradientTransform="translate(466.512 63.4514) scale(14.3648)"
       gradientUnits="userSpaceOnUse"
       r="1"
       cy="0"
       cx="0"
       id="paint8_radial">
      <stop
         id="stop951"
         stop-color="#A08BE8"
         offset="0.4614" />
      <stop
         id="stop953"
         stop-color="#A793EA"
         offset="0.5268" />
      <stop
         id="stop955"
         stop-color="#C5B7F0"
         offset="0.8352" />
      <stop
         id="stop957"
         stop-color="#D0C5F3"
         offset="1" />
    </radialGradient>
    <radialGradient
       gradientTransform="translate(484.583 29.194) scale(3.40549)"
       gradientUnits="userSpaceOnUse"
       r="1"
       cy="0"
       cx="0"
       id="paint9_radial">
      <stop
         id="stop960"
         stop-color="#8065E0" />
      <stop
         id="stop962"
         stop-color="#512BD4"
         offset="0.8628" />
    </radialGradient>
    <radialGradient
       gradientTransform="translate(482.53 84.4093) rotate(-5.00063) scale(6.58637 6.53631)"
       gradientUnits="userSpaceOnUse"
       r="1"
       cy="0"
       cx="0"
       id="paint10_radial">
      <stop
         id="stop965"
         stop-color="#8065E0" />
      <stop
         id="stop967"
         stop-color="#512BD4"
         offset="0.8628" />
    </radialGradient>
    <radialGradient
       gradientTransform="translate(487.846 18.2578) scale(5.97777)"
       gradientUnits="userSpaceOnUse"
       r="1"
       cy="0"
       cx="0"
       id="paint11_radial">
      <stop
         id="stop970"
         stop-color="#A08BE8" />
      <stop
         id="stop972"
         stop-color="#8065E0"
         offset="1" />
    </radialGradient>
    <radialGradient
       gradientTransform="translate(495.465 40.5632) rotate(-77.9484) scale(7.15496)"
       gradientUnits="userSpaceOnUse"
       r="1"
       cy="0"
       cx="0"
       id="paint12_radial">
      <stop
         id="stop975"
         stop-color="#BDB9F0"
         offset="0.3607" />
      <stop
         id="stop977"
         stop-opacity="0.3855"
         stop-color="#C3BCEB"
         offset="0.5611" />
      <stop
         id="stop979"
         stop-opacity="0.3217"
         stop-color="#CEC3E2"
         offset="0.6338" />
      <stop
         id="stop981"
         stop-opacity="0.1152"
         stop-color="#EDD6C9"
         offset="0.8689" />
      <stop
         id="stop983"
         stop-opacity="0"
         stop-color="#F9DDBF"
         offset="1" />
    </radialGradient>
    <radialGradient
       gradientTransform="translate(468.13 40.9904) rotate(173.834) scale(8.60086)"
       gradientUnits="userSpaceOnUse"
       r="1"
       cy="0"
       cx="0"
       id="paint13_radial">
      <stop
         id="stop986"
         stop-color="#BDB9F0" />
      <stop
         id="stop988"
         stop-opacity="0.3855"
         stop-color="#C3BCEB"
         offset="0.5266" />
      <stop
         id="stop990"
         stop-opacity="0.3217"
         stop-color="#CEC3E2"
         offset="0.605" />
      <stop
         id="stop992"
         stop-opacity="0.1152"
         stop-color="#EDD6C9"
         offset="0.8586" />
      <stop
         id="stop994"
         stop-opacity="0"
         stop-color="#F9DDBF"
         offset="1" />
    </radialGradient>
    <linearGradient
       gradientUnits="userSpaceOnUse"
       y2="80.5763"
       x2="488.54"
       y1="53.6161"
       x1="467.981"
       id="paint14_linear">
      <stop
         id="stop997"
         stop-color="#958FE7"
         offset="0.1788" />
      <stop
         id="stop999"
         stop-color="#BBB7EF"
         offset="0.4497" />
    </linearGradient>
    <radialGradient
       gradientTransform="translate(469.908 49.9932) scale(6.30049)"
       gradientUnits="userSpaceOnUse"
       r="1"
       cy="0"
       cx="0"
       id="paint15_radial">
      <stop
         id="stop1002"
         stop-color="#8065E0" />
      <stop
         id="stop1004"
         stop-color="#512BD4"
         offset="0.8628" />
    </radialGradient>
    <radialGradient
       gradientTransform="translate(466.012 84.9144) rotate(93.8441) scale(6.58659 6.53624)"
       gradientUnits="userSpaceOnUse"
       r="1"
       cy="0"
       cx="0"
       id="paint16_radial">
      <stop
         id="stop1007"
         stop-color="#8065E0" />
      <stop
         id="stop1009"
         stop-color="#512BD4"
         offset="0.8628" />
    </radialGradient>
    <radialGradient
       gradientTransform="translate(488.457 78.5077) rotate(-127.328) scale(6.15429)"
       gradientUnits="userSpaceOnUse"
       r="1"
       cy="0"
       cx="0"
       id="paint17_radial">
      <stop
         id="stop1012"
         stop-color="#A08BE8" />
      <stop
         id="stop1014"
         stop-color="#8065E0"
         offset="1" />
    </radialGradient>
    <clipPath
       id="clip0">
      <rect
         id="rect1017"
         fill="white"
         height="182"
         width="550" />
    </clipPath>
    <radialGradient
       id="paint0_radial"
       cx="0"
       cy="0"
       r="1"
       gradientUnits="userSpaceOnUse"
       gradientTransform="matrix(276.68595,7.5153177,-4.3429722,159.89203,316.474,172.352)">
      <stop
         offset="0.1821"
         stop-color="#E1EFF9"
         id="stop1915" />
      <stop
         offset="0.9144"
         stop-color="#B8D6F7"
         id="stop1917" />
    </radialGradient>
    <radialGradient
       id="paint1_radial"
       cx="0"
       cy="0"
       r="1"
       gradientUnits="userSpaceOnUse"
       gradientTransform="matrix(48.9061,0,0,48.9061,193.225,121.496)">
      <stop
         offset="0.0613"
         stop-color="#1BA6C5"
         id="stop1920" />
      <stop
         offset="0.8867"
         stop-color="#57CACF"
         id="stop1922" />
    </radialGradient>
    <linearGradient
       id="paint2_linear"
       x1="233.742"
       y1="204.861"
       x2="233.742"
       y2="177.871"
       gradientUnits="userSpaceOnUse">
      <stop
         offset="0.0613"
         stop-color="#1BA6C5"
         id="stop1925" />
      <stop
         offset="0.8867"
         stop-color="#57CACF"
         id="stop1927" />
    </linearGradient>
    <linearGradient
       id="paint3_linear-2"
       x1="245.105"
       y1="170.765"
       x2="245.883"
       y2="204.73"
       gradientUnits="userSpaceOnUse">
      <stop
         offset="0.252"
         stop-color="#522CD5"
         id="stop1930" />
      <stop
         offset="0.5558"
         stop-color="#8A6FE8"
         id="stop1932" />
    </linearGradient>
    <linearGradient
       id="paint4_linear-0"
       x1="245.387"
       y1="202.799"
       x2="259.183"
       y2="243.453"
       gradientUnits="userSpaceOnUse">
      <stop
         stop-color="#522CD5"
         id="stop1935" />
      <stop
         offset="0.4397"
         stop-color="#8A6FE8"
         id="stop1937" />
    </linearGradient>
    <radialGradient
       id="paint5_radial-8"
       cx="0"
       cy="0"
       r="1"
       gradientUnits="userSpaceOnUse"
       gradientTransform="matrix(14.849061,2.6975679,-2.5628513,14.107498,256.631,225.809)">
      <stop
         offset="0.034"
         stop-color="#522CD5"
         id="stop1940" />
      <stop
         offset="0.9955"
         stop-color="#8A6FE8"
         id="stop1942" />
    </radialGradient>
    <linearGradient
       id="paint6_linear"
       x1="226.255"
       y1="173.737"
       x2="236.85"
       y2="203.477"
       gradientUnits="userSpaceOnUse">
      <stop
         offset="0.252"
         stop-color="#522CD5"
         id="stop1945" />
      <stop
         offset="0.5558"
         stop-color="#8A6FE8"
         id="stop1947" />
    </linearGradient>
    <radialGradient
       id="paint7_radial-8"
       cx="0"
       cy="0"
       r="1"
       gradientUnits="userSpaceOnUse"
       gradientTransform="matrix(-45.838655,6.8874429,-6.5590378,-43.652989,238.121,119.872)">
      <stop
         offset="0.4744"
         stop-color="#A08BE8"
         id="stop1950" />
      <stop
         offset="0.8618"
         stop-color="#8065E0"
         id="stop1952" />
    </radialGradient>
    <radialGradient
       id="paint8_radial-9"
       cx="0"
       cy="0"
       r="1"
       gradientUnits="userSpaceOnUse"
       gradientTransform="matrix(-47.503566,7.1376025,-6.797266,-45.238492,269.491,116.82)">
      <stop
         offset="0.0933"
         stop-color="#E1DFDD"
         id="stop1955" />
      <stop
         offset="0.6573"
         stop-color="white"
         id="stop1957" />
    </radialGradient>
    <radialGradient
       id="paint9_radial-9"
       cx="0"
       cy="0"
       r="1"
       gradientUnits="userSpaceOnUse"
       gradientTransform="matrix(3.3355628,-7.9860929,7.6610459,3.1998,291.921,155.16)">
      <stop
         stop-color="#8065E0"
         id="stop1960" />
      <stop
         offset="1"
         stop-color="#512BD4"
         id="stop1962" />
    </radialGradient>
    <linearGradient
       id="paint10_linear"
       x1="229.61"
       y1="202.566"
       x2="223.975"
       y2="245.632"
       gradientUnits="userSpaceOnUse">
      <stop
         stop-color="#522CD5"
         id="stop1965" />
      <stop
         offset="0.4397"
         stop-color="#8A6FE8"
         id="stop1967" />
    </linearGradient>
    <radialGradient
       id="paint11_radial-3"
       cx="0"
       cy="0"
       r="1"
       gradientUnits="userSpaceOnUse"
       gradientTransform="matrix(11.048029,7.7675082,-7.9107769,11.251806,230.405,230.712)">
      <stop
         offset="0.034"
         stop-color="#522CD5"
         id="stop1970" />
      <stop
         offset="0.9955"
         stop-color="#8A6FE8"
         id="stop1972" />
    </radialGradient>
    <linearGradient
       id="paint12_linear"
       x1="190.523"
       y1="155.62"
       x2="217.391"
       y2="180.931"
       gradientUnits="userSpaceOnUse">
      <stop
         offset="0.2495"
         stop-color="#967FE6"
         id="stop1975" />
      <stop
         offset="0.6748"
         stop-color="#8A6FE8"
         id="stop1977" />
    </linearGradient>
    <radialGradient
       id="paint13_radial-2"
       cx="0"
       cy="0"
       r="1"
       gradientUnits="userSpaceOnUse"
       gradientTransform="matrix(-0.67517908,8.3960862,-8.4996219,-0.68350501,223.722,175.887)">
      <stop
         stop-color="#8065E0"
         id="stop1980" />
      <stop
         offset="1"
         stop-color="#512BD4"
         id="stop1982" />
    </radialGradient>
    <radialGradient
       id="paint14_radial"
       cx="0"
       cy="0"
       r="1"
       gradientUnits="userSpaceOnUse"
       gradientTransform="matrix(8.4540299,-1.2702687,1.2097013,8.0509348,199.435,145.499)">
      <stop
         stop-color="#8065E0"
         id="stop1985" />
      <stop
         offset="1"
         stop-color="#512BD4"
         id="stop1987" />
    </radialGradient>
    <linearGradient
       id="paint15_linear"
       x1="336.103"
       y1="162.342"
       x2="336.103"
       y2="266.801"
       gradientUnits="userSpaceOnUse">
      <stop
         offset="0.0613"
         stop-color="#1BA6C5"
         id="stop1990" />
      <stop
         offset="0.252"
         stop-color="#57CACF"
         id="stop1992" />
    </linearGradient>
  </defs>
</svg>
