<svg width="1200" height="1200" viewBox="0 0 1200 1200" fill="none" xmlns="http://www.w3.org/2000/svg">
<rect width="1200" height="1200" fill="url(#paint0_linear)"/>
<path d="M51.3906 808.234C51.3906 804.432 52.3802 801.516 54.3594 799.484C56.3385 797.453 59.2031 796.438 62.9531 796.438C66.7552 796.438 69.6458 797.505 71.625 799.641C73.6042 801.724 74.5938 804.589 74.5938 808.234C74.5938 811.932 73.5781 814.875 71.5469 817.062C69.5677 819.198 66.7031 820.266 62.9531 820.266C59.2031 820.266 56.3385 819.198 54.3594 817.062C52.3802 814.927 51.3906 811.984 51.3906 808.234ZM195.297 818H172.406L116.234 726.984H115.609L116 732.062C116.729 741.75 117.094 750.604 117.094 758.625V818H100.141V703.781H122.797L178.812 794.328H179.281C179.177 793.13 178.969 788.781 178.656 781.281C178.344 773.729 178.188 767.844 178.188 763.625V703.781H195.297V818ZM290.062 818H225.453V703.781H290.062V719.562H244.125V750.656H287.172V766.281H244.125V802.141H290.062V818ZM354.281 818H335.609V719.797H302.016V703.781H387.875V719.797H354.281V818ZM495.609 718.156C484.88 718.156 476.443 721.958 470.297 729.562C464.151 737.167 461.078 747.661 461.078 761.047C461.078 775.057 464.021 785.656 469.906 792.844C475.844 800.031 484.411 803.625 495.609 803.625C500.453 803.625 505.141 803.156 509.672 802.219C514.203 801.229 518.917 799.979 523.812 798.469V814.484C514.854 817.87 504.698 819.562 493.344 819.562C476.625 819.562 463.786 814.51 454.828 804.406C445.87 794.25 441.391 779.745 441.391 760.891C441.391 749.016 443.552 738.625 447.875 729.719C452.25 720.812 458.552 713.99 466.781 709.25C475.01 704.51 484.672 702.141 495.766 702.141C507.432 702.141 518.214 704.589 528.109 709.484L521.391 725.031C517.536 723.208 513.448 721.62 509.125 720.266C504.854 718.859 500.349 718.156 495.609 718.156ZM623.109 774.641C623.109 788.755 619.49 799.771 612.25 807.688C605.01 815.604 594.932 819.562 582.016 819.562C573.943 819.562 566.807 817.74 560.609 814.094C554.411 810.448 549.646 805.214 546.312 798.391C542.979 791.568 541.312 783.651 541.312 774.641C541.312 760.63 544.906 749.693 552.094 741.828C559.281 733.964 569.411 730.031 582.484 730.031C594.984 730.031 604.88 734.068 612.172 742.141C619.464 750.161 623.109 760.995 623.109 774.641ZM560.219 774.641C560.219 794.589 567.589 804.562 582.328 804.562C596.911 804.562 604.203 794.589 604.203 774.641C604.203 754.901 596.859 745.031 582.172 745.031C574.464 745.031 568.865 747.583 565.375 752.688C561.938 757.792 560.219 765.109 560.219 774.641ZM720.297 818H701.859V764.875C701.859 758.208 700.505 753.234 697.797 749.953C695.141 746.672 690.896 745.031 685.062 745.031C677.302 745.031 671.625 747.323 668.031 751.906C664.438 756.49 662.641 764.172 662.641 774.953V818H644.281V731.594H658.656L661.234 742.922H662.172C664.776 738.807 668.474 735.63 673.266 733.391C678.057 731.151 683.37 730.031 689.203 730.031C709.932 730.031 720.297 740.578 720.297 761.672V818ZM789.203 745.5H768.109V818H749.672V745.5H735.453V736.906L749.672 731.281V725.656C749.672 715.448 752.068 707.896 756.859 703C761.651 698.052 768.969 695.578 778.812 695.578C785.271 695.578 791.625 696.646 797.875 698.781L793.031 712.688C788.5 711.229 784.177 710.5 780.062 710.5C775.896 710.5 772.849 711.802 770.922 714.406C769.047 716.958 768.109 720.812 768.109 725.969V731.594H789.203V745.5Z" fill="white"/>
<path d="M104.398 933H97.3423V872.321H131.168V878.588H104.398V900.793H129.549V907.06H104.398V933ZM179.479 910.214C179.479 917.63 177.611 923.426 173.875 927.604C170.14 931.755 164.98 933.83 158.395 933.83C154.327 933.83 150.716 932.875 147.562 930.966C144.408 929.057 141.973 926.318 140.257 922.749C138.542 919.179 137.684 915.001 137.684 910.214C137.684 902.799 139.538 897.03 143.246 892.907C146.953 888.757 152.1 886.682 158.685 886.682C165.049 886.682 170.099 888.798 173.834 893.032C177.597 897.265 179.479 902.993 179.479 910.214ZM144.823 910.214C144.823 916.025 145.985 920.452 148.309 923.496C150.633 926.539 154.05 928.061 158.561 928.061C163.071 928.061 166.488 926.553 168.812 923.537C171.164 920.493 172.34 916.053 172.34 910.214C172.34 904.431 171.164 900.046 168.812 897.058C166.488 894.042 163.043 892.534 158.478 892.534C153.967 892.534 150.564 894.014 148.268 896.975C145.971 899.935 144.823 904.348 144.823 910.214ZM209.776 933.83C203.191 933.83 198.086 931.81 194.461 927.771C190.864 923.703 189.066 917.962 189.066 910.546C189.066 902.937 190.892 897.058 194.544 892.907C198.224 888.757 203.454 886.682 210.233 886.682C212.419 886.682 214.605 886.917 216.791 887.387C218.976 887.858 220.692 888.411 221.937 889.047L219.82 894.899C218.299 894.291 216.638 893.793 214.84 893.405C213.041 892.99 211.45 892.783 210.067 892.783C200.825 892.783 196.205 898.676 196.205 910.463C196.205 916.053 197.325 920.341 199.566 923.33C201.835 926.318 205.183 927.812 209.61 927.812C213.401 927.812 217.289 926.996 221.273 925.363V931.464C218.229 933.042 214.397 933.83 209.776 933.83ZM238.58 887.512V917.021C238.58 920.729 239.424 923.496 241.112 925.322C242.8 927.148 245.442 928.061 249.039 928.061C253.798 928.061 257.271 926.761 259.457 924.16C261.67 921.559 262.777 917.312 262.777 911.418V887.512H269.667V933H263.98L262.984 926.899H262.611C261.2 929.14 259.235 930.856 256.717 932.045C254.227 933.235 251.377 933.83 248.167 933.83C242.634 933.83 238.483 932.516 235.716 929.887C232.977 927.259 231.607 923.053 231.607 917.27V887.512H238.58ZM313.661 920.59C313.661 924.824 312.083 928.089 308.929 930.385C305.775 932.682 301.348 933.83 295.648 933.83C289.616 933.83 284.912 932.875 281.537 930.966V924.575C283.722 925.681 286.061 926.553 288.551 927.189C291.069 927.826 293.49 928.144 295.814 928.144C299.411 928.144 302.178 927.577 304.115 926.442C306.052 925.28 307.02 923.523 307.02 921.171C307.02 919.401 306.245 917.893 304.696 916.647C303.174 915.375 300.186 913.881 295.731 912.165C291.498 910.588 288.482 909.218 286.683 908.056C284.912 906.866 283.584 905.524 282.699 904.03C281.841 902.536 281.412 900.751 281.412 898.676C281.412 894.969 282.92 892.049 285.936 889.919C288.952 887.761 293.089 886.682 298.346 886.682C303.243 886.682 308.03 887.678 312.706 889.67L310.257 895.273C305.692 893.391 301.555 892.451 297.848 892.451C294.583 892.451 292.12 892.963 290.46 893.986C288.8 895.01 287.97 896.421 287.97 898.22C287.97 899.437 288.274 900.475 288.883 901.333C289.519 902.19 290.529 903.007 291.913 903.781C293.296 904.556 295.952 905.677 299.881 907.143C305.277 909.108 308.915 911.086 310.797 913.078C312.706 915.07 313.661 917.574 313.661 920.59ZM386.251 910.214C386.251 917.63 384.383 923.426 380.648 927.604C376.913 931.755 371.752 933.83 365.167 933.83C361.1 933.83 357.489 932.875 354.334 930.966C351.18 929.057 348.745 926.318 347.03 922.749C345.314 919.179 344.457 915.001 344.457 910.214C344.457 902.799 346.31 897.03 350.018 892.907C353.726 888.757 358.872 886.682 365.458 886.682C371.821 886.682 376.871 888.798 380.606 893.032C384.369 897.265 386.251 902.993 386.251 910.214ZM351.595 910.214C351.595 916.025 352.757 920.452 355.082 923.496C357.406 926.539 360.823 928.061 365.333 928.061C369.843 928.061 373.26 926.553 375.584 923.537C377.936 920.493 379.112 916.053 379.112 910.214C379.112 904.431 377.936 900.046 375.584 897.058C373.26 894.042 369.815 892.534 365.25 892.534C360.74 892.534 357.337 894.014 355.04 896.975C352.743 899.935 351.595 904.348 351.595 910.214ZM429.498 933V903.574C429.498 899.866 428.654 897.099 426.966 895.273C425.278 893.447 422.636 892.534 419.039 892.534C414.28 892.534 410.794 893.82 408.58 896.394C406.367 898.967 405.26 903.214 405.26 909.135V933H398.37V887.512H403.973L405.094 893.737H405.426C406.837 891.496 408.815 889.767 411.361 888.549C413.906 887.304 416.743 886.682 419.869 886.682C425.348 886.682 429.47 888.01 432.237 890.666C435.004 893.295 436.388 897.514 436.388 903.325V933H429.498ZM500.553 933L479.967 879.211H479.635C480.022 883.472 480.216 888.535 480.216 894.401V933H473.7V872.321H484.325L503.541 922.375H503.873L523.255 872.321H533.797V933H526.742V893.903C526.742 889.421 526.935 884.551 527.323 879.294H526.991L506.239 933H500.553ZM556.334 933H549.444V887.512H556.334V933ZM548.863 875.185C548.863 873.608 549.251 872.46 550.025 871.74C550.8 870.993 551.769 870.62 552.931 870.62C554.037 870.62 554.992 870.993 555.794 871.74C556.597 872.487 556.998 873.636 556.998 875.185C556.998 876.735 556.597 877.897 555.794 878.671C554.992 879.418 554.037 879.792 552.931 879.792C551.769 879.792 550.8 879.418 550.025 878.671C549.251 877.897 548.863 876.735 548.863 875.185ZM589.122 933.83C582.537 933.83 577.432 931.81 573.807 927.771C570.21 923.703 568.412 917.962 568.412 910.546C568.412 902.937 570.238 897.058 573.89 892.907C577.57 888.757 582.8 886.682 589.579 886.682C591.764 886.682 593.95 886.917 596.136 887.387C598.322 887.858 600.038 888.411 601.283 889.047L599.166 894.899C597.644 894.291 595.984 893.793 594.186 893.405C592.387 892.99 590.796 892.783 589.413 892.783C580.171 892.783 575.55 898.676 575.55 910.463C575.55 916.053 576.671 920.341 578.912 923.33C581.181 926.318 584.529 927.812 588.956 927.812C592.747 927.812 596.634 926.996 600.619 925.363V931.464C597.575 933.042 593.743 933.83 589.122 933.83ZM632.203 886.682C634.223 886.682 636.035 886.848 637.64 887.18L636.686 893.571C634.804 893.156 633.144 892.949 631.705 892.949C628.025 892.949 624.871 894.443 622.242 897.431C619.641 900.419 618.341 904.141 618.341 908.596V933H611.451V887.512H617.137L617.926 895.937H618.258C619.946 892.976 621.979 890.694 624.359 889.089C626.738 887.484 629.353 886.682 632.203 886.682ZM685.411 910.214C685.411 917.63 683.543 923.426 679.808 927.604C676.073 931.755 670.912 933.83 664.327 933.83C660.26 933.83 656.649 932.875 653.495 930.966C650.34 929.057 647.905 926.318 646.19 922.749C644.474 919.179 643.617 915.001 643.617 910.214C643.617 902.799 645.471 897.03 649.178 892.907C652.886 888.757 658.032 886.682 664.618 886.682C670.982 886.682 676.031 888.798 679.767 893.032C683.53 897.265 685.411 902.993 685.411 910.214ZM650.755 910.214C650.755 916.025 651.917 920.452 654.242 923.496C656.566 926.539 659.983 928.061 664.493 928.061C669.003 928.061 672.42 926.553 674.745 923.537C677.097 920.493 678.272 916.053 678.272 910.214C678.272 904.431 677.097 900.046 674.745 897.058C672.42 894.042 668.976 892.534 664.41 892.534C659.9 892.534 656.497 894.014 654.2 896.975C651.904 899.935 650.755 904.348 650.755 910.214ZM726.874 920.59C726.874 924.824 725.296 928.089 722.142 930.385C718.988 932.682 714.561 933.83 708.861 933.83C702.829 933.83 698.125 932.875 694.75 930.966V924.575C696.935 925.681 699.273 926.553 701.764 927.189C704.282 927.826 706.703 928.144 709.027 928.144C712.624 928.144 715.391 927.577 717.328 926.442C719.264 925.28 720.233 923.523 720.233 921.171C720.233 919.401 719.458 917.893 717.909 916.647C716.387 915.375 713.399 913.881 708.944 912.165C704.71 910.588 701.694 909.218 699.896 908.056C698.125 906.866 696.797 905.524 695.912 904.03C695.054 902.536 694.625 900.751 694.625 898.676C694.625 894.969 696.133 892.049 699.149 889.919C702.165 887.761 706.301 886.682 711.559 886.682C716.456 886.682 721.243 887.678 725.919 889.67L723.47 895.273C718.905 893.391 714.768 892.451 711.061 892.451C707.796 892.451 705.333 892.963 703.673 893.986C702.013 895.01 701.183 896.421 701.183 898.22C701.183 899.437 701.487 900.475 702.096 901.333C702.732 902.19 703.742 903.007 705.125 903.781C706.509 904.556 709.165 905.677 713.094 907.143C718.49 909.108 722.128 911.086 724.01 913.078C725.919 915.07 726.874 917.574 726.874 920.59ZM757.337 933.83C750.614 933.83 745.301 931.783 741.4 927.688C737.526 923.592 735.589 917.906 735.589 910.629C735.589 903.297 737.388 897.473 740.985 893.156C744.61 888.84 749.465 886.682 755.553 886.682C761.253 886.682 765.763 888.563 769.083 892.326C772.403 896.062 774.063 901 774.063 907.143V911.501H742.728C742.866 916.841 744.208 920.895 746.754 923.662C749.327 926.429 752.938 927.812 757.586 927.812C762.484 927.812 767.326 926.788 772.113 924.741V930.883C769.678 931.935 767.368 932.682 765.182 933.125C763.023 933.595 760.409 933.83 757.337 933.83ZM755.47 892.451C751.817 892.451 748.898 893.64 746.712 896.02C744.554 898.4 743.281 901.692 742.894 905.898H766.676C766.676 901.554 765.707 898.234 763.771 895.937C761.834 893.613 759.067 892.451 755.47 892.451ZM806.603 886.682C808.622 886.682 810.435 886.848 812.04 887.18L811.085 893.571C809.203 893.156 807.543 892.949 806.104 892.949C802.424 892.949 799.27 894.443 796.642 897.431C794.041 900.419 792.74 904.141 792.74 908.596V933H785.851V887.512H791.537L792.325 895.937H792.657C794.345 892.976 796.379 890.694 798.758 889.089C801.138 887.484 803.753 886.682 806.603 886.682ZM830.509 933L813.243 887.512H820.631L830.426 914.489C832.639 920.798 833.94 924.893 834.327 926.774H834.659C834.964 925.308 835.918 922.278 837.523 917.685C839.155 913.064 842.794 903.007 848.438 887.512H855.826L838.561 933H830.509ZM870.021 933H863.131V887.512H870.021V933ZM862.55 875.185C862.55 873.608 862.937 872.46 863.712 871.74C864.487 870.993 865.455 870.62 866.617 870.62C867.724 870.62 868.679 870.993 869.481 871.74C870.283 872.487 870.685 873.636 870.685 875.185C870.685 876.735 870.283 877.897 869.481 878.671C868.679 879.418 867.724 879.792 866.617 879.792C865.455 879.792 864.487 879.418 863.712 878.671C862.937 877.897 862.55 876.735 862.55 875.185ZM902.809 933.83C896.223 933.83 891.118 931.81 887.494 927.771C883.897 923.703 882.098 917.962 882.098 910.546C882.098 902.937 883.924 897.058 887.577 892.907C891.257 888.757 896.486 886.682 903.265 886.682C905.451 886.682 907.637 886.917 909.823 887.387C912.009 887.858 913.724 888.411 914.969 889.047L912.853 894.899C911.331 894.291 909.671 893.793 907.872 893.405C906.074 892.99 904.483 892.783 903.099 892.783C893.858 892.783 889.237 898.676 889.237 910.463C889.237 916.053 890.357 920.341 892.599 923.33C894.868 926.318 898.215 927.812 902.643 927.812C906.433 927.812 910.321 926.996 914.305 925.363V931.464C911.262 933.042 907.429 933.83 902.809 933.83ZM944.354 933.83C937.63 933.83 932.318 931.783 928.417 927.688C924.543 923.592 922.606 917.906 922.606 910.629C922.606 903.297 924.404 897.473 928.001 893.156C931.626 888.84 936.482 886.682 942.569 886.682C948.269 886.682 952.779 888.563 956.1 892.326C959.42 896.062 961.08 901 961.08 907.143V911.501H929.745C929.883 916.841 931.225 920.895 933.771 923.662C936.344 926.429 939.955 927.812 944.603 927.812C949.5 927.812 954.343 926.788 959.129 924.741V930.883C956.694 931.935 954.384 932.682 952.198 933.125C950.04 933.595 947.425 933.83 944.354 933.83ZM942.486 892.451C938.834 892.451 935.915 893.64 933.729 896.02C931.571 898.4 930.298 901.692 929.911 905.898H953.692C953.692 901.554 952.724 898.234 950.787 895.937C948.85 893.613 946.083 892.451 942.486 892.451ZM1002.21 920.59C1002.21 924.824 1000.63 928.089 997.479 930.385C994.325 932.682 989.898 933.83 984.198 933.83C978.166 933.83 973.462 932.875 970.086 930.966V924.575C972.272 925.681 974.61 926.553 977.101 927.189C979.618 927.826 982.04 928.144 984.364 928.144C987.961 928.144 990.728 927.577 992.665 926.442C994.601 925.28 995.57 923.523 995.57 921.171C995.57 919.401 994.795 917.893 993.246 916.647C991.724 915.375 988.736 913.881 984.281 912.165C980.047 910.588 977.031 909.218 975.233 908.056C973.462 906.866 972.134 905.524 971.249 904.03C970.391 902.536 969.962 900.751 969.962 898.676C969.962 894.969 971.47 892.049 974.486 889.919C977.502 887.761 981.638 886.682 986.896 886.682C991.793 886.682 996.58 887.678 1001.26 889.67L998.807 895.273C994.242 893.391 990.105 892.451 986.397 892.451C983.132 892.451 980.67 892.963 979.01 893.986C977.35 895.01 976.52 896.421 976.52 898.22C976.52 899.437 976.824 900.475 977.433 901.333C978.069 902.19 979.079 903.007 980.462 903.781C981.846 904.556 984.502 905.677 988.431 907.143C993.827 909.108 997.465 911.086 999.347 913.078C1001.26 915.07 1002.21 917.574 1002.21 920.59Z" fill="white"/>
<path d="M88.6484 1050.28C86.8125 1050.28 85.3672 1050.02 84.3125 1049.49V1045.24C85.6992 1045.63 87.1445 1045.83 88.6484 1045.83C90.582 1045.83 92.0469 1045.24 93.043 1044.07C94.0586 1042.9 94.5664 1041.21 94.5664 1039V996.168H99.5469V1038.59C99.5469 1042.3 98.6094 1045.17 96.7344 1047.2C94.8594 1049.25 92.1641 1050.28 88.6484 1050.28ZM114.781 1006.89V1027.72C114.781 1030.34 115.377 1032.29 116.568 1033.58C117.76 1034.87 119.625 1035.51 122.164 1035.51C125.523 1035.51 127.975 1034.6 129.518 1032.76C131.08 1030.92 131.861 1027.93 131.861 1023.77V1006.89H136.725V1039H132.711L132.008 1034.69H131.744C130.748 1036.28 129.361 1037.49 127.584 1038.33C125.826 1039.17 123.814 1039.59 121.549 1039.59C117.643 1039.59 114.713 1038.66 112.76 1036.8C110.826 1034.95 109.859 1031.98 109.859 1027.9V1006.89H114.781ZM151.93 1039H147.066V993.414H151.93V1039ZM157.145 1006.89H162.359L169.391 1025.2C170.934 1029.38 171.891 1032.4 172.262 1034.25H172.496C172.75 1033.26 173.277 1031.56 174.078 1029.16C174.898 1026.73 177.555 1019.31 182.047 1006.89H187.262L173.463 1043.45C172.096 1047.07 170.494 1049.62 168.658 1051.13C166.842 1052.65 164.605 1053.41 161.949 1053.41C160.465 1053.41 159 1053.25 157.555 1052.92V1049.02C158.629 1049.25 159.83 1049.37 161.158 1049.37C164.498 1049.37 166.881 1047.5 168.307 1043.75L170.094 1039.18L157.145 1006.89ZM232.379 1006.25C232.379 1008.98 231.607 1011.22 230.064 1012.96C228.541 1014.69 226.373 1015.86 223.561 1016.44V1016.68C226.998 1017.11 229.547 1018.2 231.207 1019.96C232.867 1021.71 233.697 1024.02 233.697 1026.87C233.697 1030.95 232.281 1034.1 229.449 1036.3C226.617 1038.49 222.594 1039.59 217.379 1039.59C215.113 1039.59 213.033 1039.41 211.139 1039.06C209.264 1038.73 207.438 1038.13 205.66 1037.27V1032.64C207.516 1033.56 209.488 1034.26 211.578 1034.75C213.688 1035.22 215.68 1035.46 217.555 1035.46C224.957 1035.46 228.658 1032.55 228.658 1026.75C228.658 1021.56 224.576 1018.96 216.412 1018.96H212.193V1014.77H216.471C219.811 1014.77 222.457 1014.04 224.41 1012.57C226.363 1011.09 227.34 1009.04 227.34 1006.42C227.34 1004.33 226.617 1002.69 225.172 1001.5C223.746 1000.31 221.803 999.713 219.342 999.713C217.467 999.713 215.699 999.967 214.039 1000.47C212.379 1000.98 210.484 1001.92 208.355 1003.29L205.895 1000.01C207.652 998.619 209.674 997.535 211.959 996.754C214.264 995.953 216.686 995.553 219.225 995.553C223.385 995.553 226.617 996.51 228.922 998.424C231.227 1000.32 232.379 1002.93 232.379 1006.25ZM268.561 1017.53C268.561 1024.93 267.389 1030.46 265.045 1034.11C262.721 1037.76 259.156 1039.59 254.352 1039.59C249.742 1039.59 246.236 1037.72 243.834 1033.99C241.432 1030.24 240.23 1024.75 240.23 1017.53C240.23 1010.06 241.393 1004.53 243.717 1000.91C246.041 997.301 249.586 995.494 254.352 995.494C259 995.494 262.525 997.379 264.928 1001.15C267.35 1004.92 268.561 1010.38 268.561 1017.53ZM245.152 1017.53C245.152 1023.76 245.885 1028.3 247.35 1031.15C248.814 1033.98 251.148 1035.4 254.352 1035.4C257.594 1035.4 259.938 1033.96 261.383 1031.09C262.848 1028.2 263.58 1023.68 263.58 1017.53C263.58 1011.37 262.848 1006.87 261.383 1004.02C259.938 1001.15 257.594 999.713 254.352 999.713C251.148 999.713 248.814 1001.13 247.35 1003.96C245.885 1006.77 245.152 1011.29 245.152 1017.53ZM281.832 1032.03L282.271 1032.7C281.764 1034.65 281.031 1036.92 280.074 1039.5C279.117 1042.1 278.121 1044.51 277.086 1046.73H273.424C273.951 1044.7 274.527 1042.19 275.152 1039.21C275.797 1036.22 276.246 1033.82 276.5 1032.03H281.832ZM332.955 1039H304.801V1034.81L316.08 1023.47C319.518 1020 321.783 1017.52 322.877 1016.03C323.971 1014.55 324.791 1013.1 325.338 1011.7C325.885 1010.29 326.158 1008.78 326.158 1007.15C326.158 1004.87 325.465 1003.06 324.078 1001.73C322.691 1000.39 320.768 999.713 318.307 999.713C316.529 999.713 314.84 1000.01 313.238 1000.59C311.656 1001.18 309.889 1002.24 307.936 1003.79L305.357 1000.47C309.303 997.193 313.6 995.553 318.248 995.553C322.271 995.553 325.426 996.588 327.711 998.658C329.996 1000.71 331.139 1003.47 331.139 1006.95C331.139 1009.66 330.377 1012.35 328.854 1015.01C327.33 1017.66 324.479 1021.02 320.299 1025.08L310.924 1034.25V1034.49H332.955V1039ZM367.525 1017.53C367.525 1024.93 366.354 1030.46 364.01 1034.11C361.686 1037.76 358.121 1039.59 353.316 1039.59C348.707 1039.59 345.201 1037.72 342.799 1033.99C340.396 1030.24 339.195 1024.75 339.195 1017.53C339.195 1010.06 340.357 1004.53 342.682 1000.91C345.006 997.301 348.551 995.494 353.316 995.494C357.965 995.494 361.49 997.379 363.893 1001.15C366.314 1004.92 367.525 1010.38 367.525 1017.53ZM344.117 1017.53C344.117 1023.76 344.85 1028.3 346.314 1031.15C347.779 1033.98 350.113 1035.4 353.316 1035.4C356.559 1035.4 358.902 1033.96 360.348 1031.09C361.812 1028.2 362.545 1023.68 362.545 1017.53C362.545 1011.37 361.812 1006.87 360.348 1004.02C358.902 1001.15 356.559 999.713 353.316 999.713C350.113 999.713 347.779 1001.13 346.314 1003.96C344.85 1006.77 344.117 1011.29 344.117 1017.53ZM401.627 1039H373.473V1034.81L384.752 1023.47C388.189 1020 390.455 1017.52 391.549 1016.03C392.643 1014.55 393.463 1013.1 394.01 1011.7C394.557 1010.29 394.83 1008.78 394.83 1007.15C394.83 1004.87 394.137 1003.06 392.75 1001.73C391.363 1000.39 389.439 999.713 386.979 999.713C385.201 999.713 383.512 1000.01 381.91 1000.59C380.328 1001.18 378.561 1002.24 376.607 1003.79L374.029 1000.47C377.975 997.193 382.271 995.553 386.92 995.553C390.943 995.553 394.098 996.588 396.383 998.658C398.668 1000.71 399.811 1003.47 399.811 1006.95C399.811 1009.66 399.049 1012.35 397.525 1015.01C396.002 1017.66 393.15 1021.02 388.971 1025.08L379.596 1034.25V1034.49H401.627V1039ZM436.197 1017.53C436.197 1024.93 435.025 1030.46 432.682 1034.11C430.357 1037.76 426.793 1039.59 421.988 1039.59C417.379 1039.59 413.873 1037.72 411.471 1033.99C409.068 1030.24 407.867 1024.75 407.867 1017.53C407.867 1010.06 409.029 1004.53 411.354 1000.91C413.678 997.301 417.223 995.494 421.988 995.494C426.637 995.494 430.162 997.379 432.564 1001.15C434.986 1004.92 436.197 1010.38 436.197 1017.53ZM412.789 1017.53C412.789 1023.76 413.521 1028.3 414.986 1031.15C416.451 1033.98 418.785 1035.4 421.988 1035.4C425.23 1035.4 427.574 1033.96 429.02 1031.09C430.484 1028.2 431.217 1023.68 431.217 1017.53C431.217 1011.37 430.484 1006.87 429.02 1004.02C427.574 1001.15 425.23 999.713 421.988 999.713C418.785 999.713 416.451 1001.13 414.986 1003.96C413.521 1006.77 412.789 1011.29 412.789 1017.53Z" fill="white"/>
<path d="M108.629 1097.67H100.455V1126H95.5918V1097.67H89.8496V1095.47L95.5918 1093.71V1091.93C95.5918 1084.04 99.0391 1080.09 105.934 1080.09C107.633 1080.09 109.625 1080.43 111.91 1081.12L110.65 1085.01C108.775 1084.41 107.174 1084.11 105.846 1084.11C104.01 1084.11 102.652 1084.72 101.773 1085.95C100.895 1087.16 100.455 1089.12 100.455 1091.81V1093.89H108.629V1097.67ZM142.203 1109.92C142.203 1115.15 140.885 1119.24 138.248 1122.19C135.611 1125.12 131.969 1126.59 127.32 1126.59C124.449 1126.59 121.9 1125.91 119.674 1124.56C117.447 1123.22 115.729 1121.28 114.518 1118.76C113.307 1116.24 112.701 1113.29 112.701 1109.92C112.701 1104.68 114.01 1100.61 116.627 1097.7C119.244 1094.77 122.877 1093.3 127.525 1093.3C132.018 1093.3 135.582 1094.8 138.219 1097.79C140.875 1100.78 142.203 1104.82 142.203 1109.92ZM117.74 1109.92C117.74 1114.02 118.561 1117.14 120.201 1119.29C121.842 1121.44 124.254 1122.51 127.438 1122.51C130.621 1122.51 133.033 1121.45 134.674 1119.32C136.334 1117.17 137.164 1114.04 137.164 1109.92C137.164 1105.83 136.334 1102.74 134.674 1100.63C133.033 1098.5 130.602 1097.44 127.379 1097.44C124.195 1097.44 121.793 1098.48 120.172 1100.57C118.551 1102.66 117.74 1105.78 117.74 1109.92ZM163.59 1126.59C158.941 1126.59 155.338 1125.16 152.779 1122.31C150.24 1119.44 148.971 1115.38 148.971 1110.15C148.971 1104.78 150.26 1100.63 152.838 1097.7C155.436 1094.77 159.127 1093.3 163.912 1093.3C165.455 1093.3 166.998 1093.47 168.541 1093.8C170.084 1094.13 171.295 1094.53 172.174 1094.97L170.68 1099.11C169.605 1098.68 168.434 1098.32 167.164 1098.05C165.895 1097.76 164.771 1097.61 163.795 1097.61C157.271 1097.61 154.01 1101.77 154.01 1110.09C154.01 1114.04 154.801 1117.06 156.383 1119.17C157.984 1121.28 160.348 1122.34 163.473 1122.34C166.148 1122.34 168.893 1121.76 171.705 1120.61V1124.92C169.557 1126.03 166.852 1126.59 163.59 1126.59ZM183.922 1093.89V1114.72C183.922 1117.34 184.518 1119.29 185.709 1120.58C186.9 1121.87 188.766 1122.51 191.305 1122.51C194.664 1122.51 197.115 1121.6 198.658 1119.76C200.221 1117.92 201.002 1114.93 201.002 1110.77V1093.89H205.865V1126H201.852L201.148 1121.69H200.885C199.889 1123.28 198.502 1124.49 196.725 1125.33C194.967 1126.17 192.955 1126.59 190.689 1126.59C186.783 1126.59 183.854 1125.66 181.9 1123.8C179.967 1121.95 179 1118.98 179 1114.9V1093.89H183.922ZM236.92 1117.24C236.92 1120.23 235.807 1122.53 233.58 1124.15C231.354 1125.78 228.229 1126.59 224.205 1126.59C219.947 1126.59 216.627 1125.91 214.244 1124.56V1120.05C215.787 1120.83 217.438 1121.45 219.195 1121.9C220.973 1122.35 222.682 1122.57 224.322 1122.57C226.861 1122.57 228.814 1122.17 230.182 1121.37C231.549 1120.55 232.232 1119.31 232.232 1117.65C232.232 1116.4 231.686 1115.34 230.592 1114.46C229.518 1113.56 227.408 1112.5 224.264 1111.29C221.275 1110.18 219.146 1109.21 217.877 1108.39C216.627 1107.55 215.689 1106.61 215.064 1105.55C214.459 1104.5 214.156 1103.24 214.156 1101.77C214.156 1099.15 215.221 1097.09 217.35 1095.59C219.479 1094.07 222.398 1093.3 226.109 1093.3C229.566 1093.3 232.945 1094.01 236.246 1095.41L234.518 1099.37C231.295 1098.04 228.375 1097.38 225.758 1097.38C223.453 1097.38 221.715 1097.74 220.543 1098.46C219.371 1099.18 218.785 1100.18 218.785 1101.45C218.785 1102.31 219 1103.04 219.43 1103.65C219.879 1104.25 220.592 1104.83 221.568 1105.38C222.545 1105.92 224.42 1106.71 227.193 1107.75C231.002 1109.13 233.57 1110.53 234.898 1111.94C236.246 1113.34 236.92 1115.11 236.92 1117.24ZM244.156 1122.89C244.156 1121.59 244.449 1120.6 245.035 1119.94C245.641 1119.25 246.5 1118.91 247.613 1118.91C248.746 1118.91 249.625 1119.25 250.25 1119.94C250.895 1120.6 251.217 1121.59 251.217 1122.89C251.217 1124.16 250.895 1125.14 250.25 1125.82C249.605 1126.51 248.727 1126.85 247.613 1126.85C246.617 1126.85 245.787 1126.55 245.123 1125.94C244.479 1125.32 244.156 1124.3 244.156 1122.89ZM282.711 1121.69H282.447C280.201 1124.96 276.842 1126.59 272.369 1126.59C268.17 1126.59 264.898 1125.15 262.555 1122.28C260.23 1119.41 259.068 1115.33 259.068 1110.03C259.068 1104.74 260.24 1100.63 262.584 1097.7C264.928 1094.77 268.189 1093.3 272.369 1093.3C276.725 1093.3 280.064 1094.89 282.389 1098.05H282.77L282.564 1095.74L282.447 1093.48V1080.41H287.311V1126H283.355L282.711 1121.69ZM272.984 1122.51C276.305 1122.51 278.707 1121.62 280.191 1119.82C281.695 1118 282.447 1115.08 282.447 1111.06V1110.03C282.447 1105.48 281.686 1102.24 280.162 1100.31C278.658 1098.35 276.246 1097.38 272.926 1097.38C270.074 1097.38 267.887 1098.49 266.363 1100.72C264.859 1102.92 264.107 1106.05 264.107 1110.09C264.107 1114.19 264.859 1117.29 266.363 1119.38C267.867 1121.47 270.074 1122.51 272.984 1122.51ZM325.367 1109.92C325.367 1115.15 324.049 1119.24 321.412 1122.19C318.775 1125.12 315.133 1126.59 310.484 1126.59C307.613 1126.59 305.064 1125.91 302.838 1124.56C300.611 1123.22 298.893 1121.28 297.682 1118.76C296.471 1116.24 295.865 1113.29 295.865 1109.92C295.865 1104.68 297.174 1100.61 299.791 1097.7C302.408 1094.77 306.041 1093.3 310.689 1093.3C315.182 1093.3 318.746 1094.8 321.383 1097.79C324.039 1100.78 325.367 1104.82 325.367 1109.92ZM300.904 1109.92C300.904 1114.02 301.725 1117.14 303.365 1119.29C305.006 1121.44 307.418 1122.51 310.602 1122.51C313.785 1122.51 316.197 1121.45 317.838 1119.32C319.498 1117.17 320.328 1114.04 320.328 1109.92C320.328 1105.83 319.498 1102.74 317.838 1100.63C316.197 1098.5 313.766 1097.44 310.543 1097.44C307.359 1097.44 304.957 1098.48 303.336 1100.57C301.715 1102.66 300.904 1105.78 300.904 1109.92ZM344.293 1122.57C345.152 1122.57 345.982 1122.51 346.783 1122.4C347.584 1122.26 348.219 1122.12 348.688 1121.99V1125.71C348.16 1125.96 347.379 1126.17 346.344 1126.32C345.328 1126.5 344.41 1126.59 343.59 1126.59C337.379 1126.59 334.273 1123.31 334.273 1116.77V1097.67H329.674V1095.33L334.273 1093.3L336.324 1086.45H339.137V1093.89H348.453V1097.67H339.137V1116.57C339.137 1118.5 339.596 1119.98 340.514 1121.02C341.432 1122.05 342.691 1122.57 344.293 1122.57ZM377.105 1126V1105.23C377.105 1102.61 376.51 1100.66 375.318 1099.37C374.127 1098.08 372.262 1097.44 369.723 1097.44C366.363 1097.44 363.902 1098.34 362.34 1100.16C360.777 1101.98 359.996 1104.97 359.996 1109.15V1126H355.133V1093.89H359.088L359.879 1098.29H360.113C361.109 1096.7 362.506 1095.48 364.303 1094.62C366.1 1093.74 368.102 1093.3 370.309 1093.3C374.176 1093.3 377.086 1094.24 379.039 1096.12C380.992 1097.97 381.969 1100.95 381.969 1105.05V1126H377.105ZM405.553 1126.59C400.807 1126.59 397.057 1125.14 394.303 1122.25C391.568 1119.36 390.201 1115.35 390.201 1110.21C390.201 1105.03 391.471 1100.92 394.01 1097.88C396.568 1094.83 399.996 1093.3 404.293 1093.3C408.316 1093.3 411.5 1094.63 413.844 1097.29C416.188 1099.93 417.359 1103.41 417.359 1107.75V1110.82H395.24C395.338 1114.59 396.285 1117.46 398.082 1119.41C399.898 1121.36 402.447 1122.34 405.729 1122.34C409.186 1122.34 412.604 1121.62 415.982 1120.17V1124.51C414.264 1125.25 412.633 1125.78 411.09 1126.09C409.566 1126.42 407.721 1126.59 405.553 1126.59ZM404.234 1097.38C401.656 1097.38 399.596 1098.22 398.053 1099.9C396.529 1101.58 395.631 1103.9 395.357 1106.87H412.145C412.145 1103.8 411.461 1101.46 410.094 1099.84C408.727 1098.2 406.773 1097.38 404.234 1097.38ZM436.051 1122.57C436.91 1122.57 437.74 1122.51 438.541 1122.4C439.342 1122.26 439.977 1122.12 440.445 1121.99V1125.71C439.918 1125.96 439.137 1126.17 438.102 1126.32C437.086 1126.5 436.168 1126.59 435.348 1126.59C429.137 1126.59 426.031 1123.31 426.031 1116.77V1097.67H421.432V1095.33L426.031 1093.3L428.082 1086.45H430.895V1093.89H440.211V1097.67H430.895V1116.57C430.895 1118.5 431.354 1119.98 432.271 1121.02C433.189 1122.05 434.449 1122.57 436.051 1122.57ZM459.723 1126.59C455.074 1126.59 451.471 1125.16 448.912 1122.31C446.373 1119.44 445.104 1115.38 445.104 1110.15C445.104 1104.78 446.393 1100.63 448.971 1097.7C451.568 1094.77 455.26 1093.3 460.045 1093.3C461.588 1093.3 463.131 1093.47 464.674 1093.8C466.217 1094.13 467.428 1094.53 468.307 1094.97L466.812 1099.11C465.738 1098.68 464.566 1098.32 463.297 1098.05C462.027 1097.76 460.904 1097.61 459.928 1097.61C453.404 1097.61 450.143 1101.77 450.143 1110.09C450.143 1114.04 450.934 1117.06 452.516 1119.17C454.117 1121.28 456.48 1122.34 459.605 1122.34C462.281 1122.34 465.025 1121.76 467.838 1120.61V1124.92C465.689 1126.03 462.984 1126.59 459.723 1126.59ZM503.199 1109.92C503.199 1115.15 501.881 1119.24 499.244 1122.19C496.607 1125.12 492.965 1126.59 488.316 1126.59C485.445 1126.59 482.896 1125.91 480.67 1124.56C478.443 1123.22 476.725 1121.28 475.514 1118.76C474.303 1116.24 473.697 1113.29 473.697 1109.92C473.697 1104.68 475.006 1100.61 477.623 1097.7C480.24 1094.77 483.873 1093.3 488.521 1093.3C493.014 1093.3 496.578 1094.8 499.215 1097.79C501.871 1100.78 503.199 1104.82 503.199 1109.92ZM478.736 1109.92C478.736 1114.02 479.557 1117.14 481.197 1119.29C482.838 1121.44 485.25 1122.51 488.434 1122.51C491.617 1122.51 494.029 1121.45 495.67 1119.32C497.33 1117.17 498.16 1114.04 498.16 1109.92C498.16 1105.83 497.33 1102.74 495.67 1100.63C494.029 1098.5 491.598 1097.44 488.375 1097.44C485.191 1097.44 482.789 1098.48 481.168 1100.57C479.547 1102.66 478.736 1105.78 478.736 1109.92ZM533.727 1126V1105.23C533.727 1102.61 533.131 1100.66 531.939 1099.37C530.748 1098.08 528.883 1097.44 526.344 1097.44C522.984 1097.44 520.523 1098.34 518.961 1100.16C517.398 1101.98 516.617 1104.97 516.617 1109.15V1126H511.754V1093.89H515.709L516.5 1098.29H516.734C517.73 1096.7 519.127 1095.48 520.924 1094.62C522.721 1093.74 524.723 1093.3 526.93 1093.3C530.797 1093.3 533.707 1094.24 535.66 1096.12C537.613 1097.97 538.59 1100.95 538.59 1105.05V1126H533.727ZM563.082 1097.67H554.908V1126H550.045V1097.67H544.303V1095.47L550.045 1093.71V1091.93C550.045 1084.04 553.492 1080.09 560.387 1080.09C562.086 1080.09 564.078 1080.43 566.363 1081.12L565.104 1085.01C563.229 1084.41 561.627 1084.11 560.299 1084.11C558.463 1084.11 557.105 1084.72 556.227 1085.95C555.348 1087.16 554.908 1089.12 554.908 1091.81V1093.89H563.082V1097.67ZM568.238 1122.89C568.238 1121.59 568.531 1120.6 569.117 1119.94C569.723 1119.25 570.582 1118.91 571.695 1118.91C572.828 1118.91 573.707 1119.25 574.332 1119.94C574.977 1120.6 575.299 1121.59 575.299 1122.89C575.299 1124.16 574.977 1125.14 574.332 1125.82C573.688 1126.51 572.809 1126.85 571.695 1126.85C570.699 1126.85 569.869 1126.55 569.205 1125.94C568.561 1125.32 568.238 1124.3 568.238 1122.89ZM606.91 1126V1105.23C606.91 1102.61 606.314 1100.66 605.123 1099.37C603.932 1098.08 602.066 1097.44 599.527 1097.44C596.168 1097.44 593.707 1098.34 592.145 1100.16C590.582 1101.98 589.801 1104.97 589.801 1109.15V1126H584.938V1093.89H588.893L589.684 1098.29H589.918C590.914 1096.7 592.311 1095.48 594.107 1094.62C595.904 1093.74 597.906 1093.3 600.113 1093.3C603.98 1093.3 606.891 1094.24 608.844 1096.12C610.797 1097.97 611.773 1100.95 611.773 1105.05V1126H606.91ZM635.357 1126.59C630.611 1126.59 626.861 1125.14 624.107 1122.25C621.373 1119.36 620.006 1115.35 620.006 1110.21C620.006 1105.03 621.275 1100.92 623.814 1097.88C626.373 1094.83 629.801 1093.3 634.098 1093.3C638.121 1093.3 641.305 1094.63 643.648 1097.29C645.992 1099.93 647.164 1103.41 647.164 1107.75V1110.82H625.045C625.143 1114.59 626.09 1117.46 627.887 1119.41C629.703 1121.36 632.252 1122.34 635.533 1122.34C638.99 1122.34 642.408 1121.62 645.787 1120.17V1124.51C644.068 1125.25 642.438 1125.78 640.895 1126.09C639.371 1126.42 637.525 1126.59 635.357 1126.59ZM634.039 1097.38C631.461 1097.38 629.4 1098.22 627.857 1099.9C626.334 1101.58 625.436 1103.9 625.162 1106.87H641.949C641.949 1103.8 641.266 1101.46 639.898 1099.84C638.531 1098.2 636.578 1097.38 634.039 1097.38ZM665.855 1122.57C666.715 1122.57 667.545 1122.51 668.346 1122.4C669.146 1122.26 669.781 1122.12 670.25 1121.99V1125.71C669.723 1125.96 668.941 1126.17 667.906 1126.32C666.891 1126.5 665.973 1126.59 665.152 1126.59C658.941 1126.59 655.836 1123.31 655.836 1116.77V1097.67H651.236V1095.33L655.836 1093.3L657.887 1086.45H660.699V1093.89H670.016V1097.67H660.699V1116.57C660.699 1118.5 661.158 1119.98 662.076 1121.02C662.994 1122.05 664.254 1122.57 665.855 1122.57Z" fill="white"/>
<path d="M1017.41 198.401L1030.05 210.662C1018.7 222.378 1014.07 234.275 1016.97 244.152C1020.43 255.891 1034.37 265.177 1056.25 270.308L1052.23 287.473C1015.93 278.959 1003.83 261.908 1000.06 249.125C995.313 232.89 1001.47 214.863 1017.41 198.401Z" fill="url(#paint1_linear)"/>
<path d="M1000.15 227.125L999.588 229.091L1016.32 233.837L1016.88 231.872L1000.15 227.125Z" fill="#A08BE8"/>
<path d="M1006.37 261.749C1013.77 254.801 1019.2 249.465 1019.2 249.465L1018.29 247.717L1000.15 249.283C1001.28 253.189 1003.24 257.457 1006.37 261.749Z" fill="#A08BE8"/>
<path d="M1030.94 260.671L1021.99 275.588L1023.74 276.639L1032.69 261.722L1030.94 260.671Z" fill="#A08BE8"/>
<path d="M756.819 289.54V332.793L794.26 308.272L794.01 265.086L756.819 289.54Z" fill="#B3AFAB"/>
<path d="M756.819 289.585V332.611L721.013 308.998L720.763 265.541L756.819 289.585Z" fill="#B2B2B2"/>
<path d="M756.342 289.654L792.874 265.382L757.341 241.95L720.559 265.813L756.342 289.654Z" fill="#E1DFDD"/>
<path d="M1059.95 258.911L1069.2 245.174C1071.63 241.496 1070.63 236.546 1066.95 234.094C1063.27 231.664 1058.32 232.663 1055.87 236.342L1046.4 250.419L1059.95 258.911Z" fill="#D0C5F3"/>
<path d="M1060.52 275.417L1077.01 273.896C1081.39 273.464 1084.61 269.559 1084.16 265.154C1083.73 260.772 1079.82 257.548 1075.42 258.002L1058.52 259.546L1060.52 275.417Z" fill="#D0C5F3"/>
<path d="M1059.48 263.951L1075.92 262.021C1080.3 261.476 1083.41 257.48 1082.86 253.098C1082.32 248.716 1078.32 245.605 1073.94 246.15L1057.09 248.126L1059.48 263.951Z" fill="#D0C5F3"/>
<path d="M1055.14 281.979L1071.6 283.705C1075.98 284.136 1079.89 280.935 1080.32 276.53C1080.75 272.148 1077.55 268.242 1073.15 267.811L1056.25 266.04L1055.14 281.979Z" fill="#D0C5F3"/>
<path d="M1051.92 282.479C1061.15 282.479 1068.63 274.997 1068.63 265.768C1068.63 256.538 1061.15 249.057 1051.92 249.057C1042.69 249.057 1035.21 256.538 1035.21 265.768C1035.21 274.997 1042.69 282.479 1051.92 282.479Z" fill="url(#paint2_radial)"/>
<path d="M818.622 505.602L683.913 416.348L646.608 439.984L645.178 437.736L683.936 413.169L820.098 503.377L818.622 505.602Z" fill="#106EBE"/>
<path d="M738.451 335.722L736.975 337.947L826.365 396.867L827.841 394.641L738.451 335.722Z" fill="#106EBE"/>
<path d="M662.956 586.409L661.503 584.161L728.483 540.431L787.857 579.257L901.882 502.741L903.38 504.966L787.902 582.458L728.505 543.61L662.956 586.409Z" fill="#106EBE"/>
<path d="M1040.45 402.565L942.388 466.866L943.864 469.091L1041.93 404.791L1040.45 402.565Z" fill="#106EBE"/>
<path d="M1040.04 553.486L940.481 488.55L941.934 486.302L1040.07 550.308L1040.04 553.486Z" fill="#106EBE"/>
<path d="M865.258 422.092V465.345L902.699 440.824L902.449 397.639L865.258 422.092Z" fill="#B3AFAB"/>
<path d="M866.893 422.138V465.164L831.087 441.528L830.837 398.071L866.893 422.138Z" fill="#B2B2B2"/>
<path d="M866.099 422.206L902.631 397.934L867.098 374.502L830.315 398.365L866.099 422.206Z" fill="#E1DFDD"/>
<path d="M829.452 487.71V530.963L866.893 506.442L866.643 463.257L829.452 487.71Z" fill="#6E66DF"/>
<path d="M829.452 487.755V530.782L793.646 507.168L793.397 463.711L829.452 487.755Z" fill="#B2B2B2"/>
<path d="M829.634 487.823L866.167 463.551L830.633 440.12L793.851 463.983L829.634 487.823Z" fill="#C2C2C2"/>
<path d="M938.505 463.461V506.714L975.946 482.192L975.696 439.007L938.505 463.461Z" fill="#797673"/>
<path d="M938.505 463.507V506.533L902.699 482.919L902.449 439.462L938.505 463.507Z" fill="#939393"/>
<path d="M938.619 463.597L975.151 439.325L939.618 415.894L902.835 439.757L938.619 463.597Z" fill="#B3AFAB"/>
<path d="M829.452 446.023V489.276L866.893 464.755L866.643 421.57L829.452 446.023Z" fill="#F7B548"/>
<path d="M829.452 446.069V489.095L793.646 465.459L793.397 422.001L829.452 446.069Z" fill="#FFD590"/>
<path d="M829.566 446.16L866.099 421.888L830.565 398.456L793.783 422.319L829.566 446.16Z" fill="#B2B2B2"/>
<path d="M829.452 403.792V447.045L866.893 422.524L866.643 379.339L829.452 403.792Z" fill="#E3646A"/>
<path d="M829.452 403.837V446.864L793.646 423.25L793.397 379.793L829.452 403.837Z" fill="#EE8F94"/>
<path d="M821.301 409.173V428.064C821.301 428.268 821.256 428.45 821.142 428.631C821.052 428.813 820.893 428.949 820.711 429.04C820.529 429.131 820.348 429.176 820.143 429.176C819.939 429.176 819.757 429.108 819.576 428.994L803.864 418.641C803.705 418.55 803.591 418.414 803.501 418.255C803.41 418.096 803.364 417.914 803.364 417.733L803.251 398.66C803.251 398.456 803.296 398.274 803.41 398.093C803.501 397.911 803.66 397.775 803.841 397.684C804.023 397.593 804.204 397.548 804.409 397.548C804.613 397.548 804.795 397.616 804.976 397.729L820.802 408.287C820.961 408.378 821.074 408.514 821.165 408.673C821.256 408.81 821.301 408.991 821.301 409.173Z" fill="#E3646A"/>
<path d="M793.624 511.868V555.121L831.065 530.6L830.815 487.415L793.624 511.868Z" fill="#106EBE"/>
<path d="M793.624 511.913V554.94L757.818 531.326L757.568 487.869L793.624 511.913Z" fill="#3E8EED"/>
<path d="M793.238 511.982L829.77 487.71L794.237 464.278L757.455 488.141L793.238 511.982Z" fill="#72ACF1"/>
<path d="M901.064 487.529V530.782L938.505 506.26L938.255 463.075L901.064 487.529Z" fill="#3E8EED"/>
<path d="M902.699 487.574V530.6L866.893 506.987L866.643 463.529L902.699 487.574Z" fill="#72ACF1"/>
<path d="M902.063 487.642L938.596 463.37L903.062 439.938L866.28 463.802L902.063 487.642Z" fill="#A7CBF6"/>
<path d="M903.13 472.179L917.298 462.757C917.503 462.621 917.662 462.439 917.775 462.235C917.889 462.03 917.957 461.781 917.957 461.554C917.957 461.326 917.889 461.077 917.775 460.872C917.662 460.668 917.503 460.486 917.298 460.35L903.585 451.291C903.357 451.132 903.085 451.064 902.79 451.064C902.517 451.064 902.245 451.155 901.995 451.291L887.736 460.554C887.532 460.691 887.373 460.872 887.26 461.077C887.146 461.281 887.078 461.531 887.078 461.758C887.078 462.008 887.146 462.235 887.237 462.439C887.35 462.643 887.509 462.825 887.714 462.961L901.518 472.179C901.745 472.338 902.041 472.429 902.313 472.429C902.608 472.429 902.881 472.338 903.13 472.179Z" fill="#3E8EED"/>
<path d="M897.364 466.458C896.75 466.367 896.16 466.14 895.683 465.754C895.184 465.368 894.798 464.868 894.571 464.301V451.949C894.821 451.382 895.207 450.882 895.683 450.496C896.183 450.11 896.75 449.883 897.364 449.792C897.636 449.792 897.931 449.838 898.181 449.951C898.431 450.065 898.68 450.224 898.862 450.428C899.066 450.632 899.203 450.859 899.316 451.132C899.407 451.404 899.452 451.677 899.452 451.949V464.301C899.475 464.573 899.43 464.868 899.316 465.118C899.225 465.391 899.066 465.618 898.862 465.822C898.658 466.026 898.431 466.185 898.181 466.299C897.931 466.412 897.659 466.458 897.364 466.458Z" fill="#72ACF1"/>
<path d="M907.535 459.646C906.355 459.646 905.401 458.693 904.311 457.489V445.138C905.401 443.957 906.355 442.981 907.535 442.981C907.808 442.958 908.08 442.981 908.33 443.094C908.58 443.208 908.807 443.367 908.966 443.594C909.125 443.821 909.238 444.071 909.283 444.343C909.329 444.616 909.283 444.888 909.193 445.138V457.489C909.283 457.739 909.329 458.012 909.283 458.284C909.238 458.557 909.125 458.806 908.966 459.033C908.807 459.238 908.58 459.419 908.33 459.533C908.08 459.624 907.808 459.669 907.535 459.646Z" fill="#72ACF1"/>
<path d="M807.542 409.514C807.746 409.718 807.883 409.945 807.996 410.195C808.087 410.445 808.132 410.717 808.132 411.012C808.11 411.285 808.042 411.557 807.928 411.807C807.792 412.057 807.633 412.261 807.406 412.443L798.029 418.46C797.506 418.709 796.893 418.777 796.326 418.618C795.758 418.46 795.259 418.119 794.918 417.642C794.714 417.438 794.577 417.211 794.464 416.961C794.373 416.711 794.328 416.439 794.328 416.144C794.35 415.871 794.418 415.599 794.532 415.349C794.668 415.099 794.827 414.895 795.054 414.713L804.431 408.696C804.954 408.447 805.567 408.378 806.134 408.537C806.702 408.674 807.201 409.014 807.542 409.514Z" fill="#F7C6C8"/>
<path d="M818.213 415.304C818.418 415.508 818.554 415.735 818.667 415.985C818.758 416.234 818.804 416.507 818.804 416.802C818.781 417.075 818.713 417.347 818.599 417.597C818.486 417.846 818.304 418.051 818.077 418.232L808.7 424.249C808.178 424.499 807.565 424.567 806.997 424.408C806.429 424.249 805.93 423.909 805.589 423.432C805.385 423.228 805.249 423.001 805.135 422.751C805.044 422.501 804.999 422.229 804.999 421.933C805.022 421.661 805.09 421.388 805.203 421.139C805.34 420.889 805.499 420.685 805.726 420.503L815.103 414.486C815.625 414.236 816.238 414.168 816.806 414.327C817.373 414.463 817.873 414.827 818.213 415.304Z" fill="#F7C6C8"/>
<path d="M585.69 412.215V455.468L623.131 430.947L622.881 387.762L585.69 412.215Z" fill="#939393"/>
<path d="M585.69 412.261V455.287L549.884 431.673L549.635 388.216L585.69 412.261Z" fill="#B3AFAB"/>
<path d="M585.69 412.329L622.223 388.057L586.689 364.625L549.907 388.488L585.69 412.329Z" fill="#C8C6C4"/>
<path d="M619.885 435.601V478.855L657.325 454.333L657.075 411.148L619.885 435.601Z" fill="#6E66DF"/>
<path d="M619.884 435.647V478.673L584.078 455.06L583.829 411.602L619.884 435.647Z" fill="#939393"/>
<path d="M620.452 435.715L656.985 411.443L621.451 388.012L584.669 411.875L620.452 435.715Z" fill="#958FE7"/>
<path d="M620.157 421.138L634.325 411.716C634.529 411.58 634.688 411.398 634.802 411.194C634.915 410.989 634.983 410.74 634.983 410.512C634.983 410.263 634.915 410.036 634.802 409.831C634.688 409.627 634.529 409.445 634.325 409.309L620.611 400.25C620.384 400.091 620.111 400.023 619.816 400.023C619.521 400.023 619.271 400.114 619.022 400.25L604.763 409.491C604.558 409.627 604.399 409.809 604.286 410.013C604.172 410.217 604.104 410.467 604.104 410.694C604.104 410.944 604.172 411.171 604.263 411.375C604.377 411.58 604.536 411.761 604.74 411.897L618.545 421.116C618.772 421.275 619.067 421.365 619.339 421.365C619.657 421.365 619.93 421.275 620.157 421.138Z" fill="#6E66DF"/>
<path d="M614.412 415.417C613.799 415.349 613.232 415.122 612.755 414.736C612.278 414.35 611.915 413.85 611.733 413.283V400.931C611.937 400.363 612.278 399.841 612.755 399.478C613.232 399.092 613.799 398.865 614.412 398.797C614.98 398.797 615.525 399.024 615.933 399.432C616.342 399.841 616.592 400.363 616.615 400.931V413.283C616.592 413.85 616.342 414.395 615.933 414.781C615.525 415.167 614.98 415.394 614.412 415.417Z" fill="#BDB9F0"/>
<path d="M624.607 408.582C623.426 408.582 622.473 407.629 621.519 406.425V394.074C622.473 392.893 623.426 391.917 624.607 391.917C624.88 391.894 625.152 391.94 625.402 392.053C625.651 392.167 625.879 392.326 626.06 392.53C626.242 392.734 626.355 392.984 626.423 393.256C626.492 393.529 626.469 393.801 626.401 394.074V406.425C626.469 406.698 626.469 406.97 626.423 407.243C626.355 407.515 626.242 407.765 626.06 407.969C625.879 408.174 625.651 408.333 625.402 408.446C625.152 408.56 624.88 408.605 624.607 408.582Z" fill="#BDB9F0"/>
<path d="M584.056 459.419V502.672L621.496 478.151L621.247 434.966L584.056 459.419Z" fill="#F7B548"/>
<path d="M584.056 459.464V502.491L548.25 478.877L548 435.42L584.056 459.464Z" fill="#FFD590"/>
<path d="M584.033 459.556L620.566 435.284L585.032 411.852L548.25 435.715L584.033 459.556Z" fill="#FFE5B9"/>
<path d="M719.9 313.29V356.543L757.341 332.021L757.091 288.836L719.9 313.29Z" fill="#106EBE"/>
<path d="M719.9 313.335V356.361L684.094 332.748L683.845 289.29L719.9 313.335Z" fill="#3E8EED"/>
<path d="M711.749 318.67V337.561C711.749 337.765 711.704 337.947 711.59 338.129C711.477 338.31 711.34 338.447 711.159 338.537C710.977 338.628 710.796 338.674 710.591 338.674C710.387 338.674 710.205 338.606 710.024 338.492L694.312 328.116C694.153 328.025 694.039 327.889 693.948 327.73C693.858 327.571 693.812 327.389 693.812 327.208L693.699 308.135C693.699 307.931 693.744 307.749 693.858 307.568C693.948 307.386 694.107 307.25 694.289 307.159C694.471 307.068 694.652 307.023 694.857 307.023C695.061 307.023 695.243 307.091 695.424 307.204L711.25 317.762C711.409 317.853 711.522 317.989 711.613 318.148C711.704 318.307 711.749 318.489 711.749 318.67Z" fill="#106EBE"/>
<path d="M719.831 313.403L756.364 289.131L720.831 265.699L684.048 289.563L719.831 313.403Z" fill="#7BC0EF"/>
<path d="M698.058 319.329C698.262 319.533 698.398 319.76 698.512 320.01C698.603 320.26 698.648 320.532 698.648 320.827C698.625 321.1 698.557 321.372 698.444 321.622C698.308 321.872 698.149 322.076 697.922 322.258L688.544 328.275C688.022 328.524 687.409 328.593 686.841 328.434C686.274 328.275 685.774 327.934 685.434 327.457C685.229 327.253 685.093 327.026 684.98 326.776C684.889 326.526 684.843 326.254 684.843 325.959C684.866 325.686 684.934 325.414 685.048 325.164C685.184 324.914 685.343 324.71 685.57 324.528L694.947 318.512C695.469 318.262 696.082 318.194 696.65 318.353C697.24 318.489 697.74 318.852 698.058 319.329Z" fill="#72ACF1"/>
<path d="M708.752 325.142C708.956 325.346 709.093 325.573 709.206 325.823C709.297 326.073 709.342 326.345 709.342 326.64C709.32 326.913 709.252 327.185 709.138 327.435C709.002 327.685 708.843 327.889 708.616 328.071L699.239 334.087C698.716 334.337 698.103 334.405 697.536 334.246C696.968 334.087 696.469 333.747 696.128 333.27C695.924 333.066 695.787 332.839 695.674 332.589C695.583 332.339 695.538 332.067 695.538 331.772C695.56 331.499 695.629 331.227 695.742 330.977C695.878 330.727 696.037 330.523 696.264 330.341L705.641 324.324C706.164 324.075 706.777 324.006 707.344 324.165C707.912 324.302 708.412 324.642 708.752 325.142Z" fill="#72ACF1"/>
<path d="M685.547 580.733V623.986L648.107 599.464L648.356 556.279L685.547 580.733Z" fill="#B3AFAB"/>
<path d="M685.547 580.778V623.804L721.353 600.191L721.603 556.733L685.547 580.778Z" fill="#797673"/>
<path d="M693.676 586.114V605.004C693.676 605.209 693.721 605.39 693.835 605.572C693.948 605.754 694.084 605.89 694.266 605.981C694.448 606.072 694.629 606.117 694.834 606.117C695.038 606.117 695.22 606.049 695.401 605.935L711.113 595.582C711.272 595.491 711.386 595.355 711.476 595.196C711.567 595.037 711.613 594.855 711.613 594.674L711.726 575.601C711.726 575.397 711.681 575.215 711.567 575.034C711.454 574.852 711.318 574.716 711.136 574.625C710.954 574.534 710.773 574.489 710.568 574.489C710.364 574.489 710.182 574.557 710.001 574.67L694.175 585.228C694.016 585.319 693.903 585.455 693.812 585.614C693.721 585.751 693.676 585.932 693.676 586.114Z" fill="#605D5A"/>
<path d="M685.252 580.846L648.72 556.575L684.253 533.143L721.035 557.006L685.252 580.846Z" fill="#C8C6C4"/>
<path d="M707.026 586.773C706.822 586.977 706.686 587.204 706.572 587.454C706.481 587.703 706.436 587.976 706.436 588.271C706.459 588.544 706.527 588.816 706.64 589.066C706.776 589.315 706.935 589.52 707.162 589.701L716.54 595.718C717.062 595.968 717.675 596.036 718.243 595.877C718.81 595.718 719.31 595.378 719.65 594.901C719.855 594.697 719.991 594.47 720.104 594.22C720.218 593.97 720.241 593.698 720.241 593.402C720.218 593.13 720.15 592.857 720.036 592.608C719.9 592.358 719.741 592.154 719.514 591.972L710.137 585.955C709.615 585.705 709.002 585.637 708.434 585.796C707.866 585.932 707.367 586.296 707.026 586.773Z" fill="#B3AFAB"/>
<path d="M696.332 592.585C696.128 592.79 695.992 593.017 695.878 593.266C695.787 593.516 695.742 593.789 695.742 594.084C695.765 594.356 695.833 594.629 695.946 594.878C696.083 595.128 696.241 595.333 696.469 595.514L705.846 601.531C706.368 601.781 706.981 601.849 707.549 601.69C708.116 601.531 708.616 601.19 708.956 600.714C709.161 600.509 709.297 600.282 709.41 600.033C709.501 599.783 709.547 599.51 709.547 599.215C709.524 598.943 709.456 598.67 709.342 598.42C709.206 598.171 709.047 597.966 708.82 597.785L699.443 591.768C698.921 591.518 698.308 591.45 697.74 591.609C697.172 591.745 696.673 592.108 696.332 592.585Z" fill="#B3AFAB"/>
<path d="M1090.02 545.199V588.452L1127.46 563.931L1127.21 520.746L1090.02 545.199Z" fill="#797673"/>
<path d="M1091.63 545.245V588.271L1055.82 564.635L1055.57 521.177L1091.63 545.245Z" fill="#939393"/>
<path d="M1091.04 545.313L1127.57 521.041L1092.04 497.609L1055.25 521.472L1091.04 545.313Z" fill="#B3AFAB"/>
<path d="M1054.19 569.017V612.27L1091.63 587.748L1091.38 544.563L1054.19 569.017Z" fill="#106EBE"/>
<path d="M1054.19 569.063V612.089L1018.38 588.475L1018.13 545.018L1054.19 569.063Z" fill="#3E8EED"/>
<path d="M1054.62 569.153L1091.15 544.881L1055.62 521.45L1018.84 545.313L1054.62 569.153Z" fill="#72ACF1"/>
<path d="M1092.01 531.099L1106.18 521.677C1106.39 521.54 1106.55 521.359 1106.66 521.154C1106.77 520.95 1106.84 520.7 1106.84 520.473C1106.84 520.246 1106.77 519.996 1106.66 519.792C1106.55 519.588 1106.39 519.406 1106.18 519.27L1092.47 510.21C1092.24 510.052 1091.97 509.983 1091.67 509.983C1091.38 509.983 1091.13 510.074 1090.88 510.21L1076.62 519.474C1076.42 519.61 1076.26 519.792 1076.14 519.996C1076.03 520.201 1075.96 520.45 1075.96 520.678C1075.96 520.927 1076.03 521.154 1076.12 521.359C1076.23 521.563 1076.39 521.745 1076.6 521.881L1090.4 531.099C1090.63 531.258 1090.92 531.349 1091.2 531.349C1091.49 531.326 1091.76 531.258 1092.01 531.099Z" fill="#797673"/>
<path d="M1086.25 525.377C1085.63 525.309 1085.07 525.059 1084.57 524.696C1084.09 524.31 1083.7 523.811 1083.48 523.243V510.891C1083.7 510.324 1084.07 509.824 1084.57 509.438C1085.04 509.052 1085.63 508.825 1086.25 508.757C1086.52 508.757 1086.81 508.802 1087.06 508.916C1087.31 509.03 1087.56 509.188 1087.77 509.393C1087.97 509.597 1088.13 509.824 1088.22 510.097C1088.34 510.346 1088.38 510.642 1088.38 510.914V523.266C1088.38 523.538 1088.34 523.833 1088.22 524.083C1088.11 524.333 1087.95 524.583 1087.77 524.787C1087.56 524.991 1087.34 525.15 1087.06 525.264C1086.81 525.309 1086.54 525.377 1086.25 525.377Z" fill="#C8C6C4"/>
<path d="M1096.44 518.544C1095.26 518.544 1094.31 517.59 1093.29 516.387V504.035C1094.31 502.854 1095.26 501.878 1096.44 501.878C1096.71 501.855 1096.99 501.901 1097.24 501.992C1097.49 502.105 1097.71 502.264 1097.87 502.468C1098.05 502.673 1098.17 502.945 1098.21 503.195C1098.26 503.467 1098.24 503.74 1098.14 503.99V516.341C1098.24 516.591 1098.26 516.886 1098.21 517.136C1098.17 517.408 1098.05 517.658 1097.87 517.862C1097.69 518.067 1097.49 518.248 1097.24 518.339C1096.99 518.544 1096.71 518.589 1096.44 518.544Z" fill="#C8C6C4"/>
<path d="M911.645 323.643C906.582 323.643 900.61 322.19 893.935 317.989L899.293 302.028C905.628 306.001 913.234 306.183 915.369 305.184C922.089 302.028 930.309 288.178 933.033 267.766L950.493 270.104C949.585 276.893 944 311.223 922.861 321.145C919.91 322.508 916.118 323.643 911.645 323.643Z" fill="url(#paint3_linear)"/>
<path d="M963.344 269.4L953.922 311.314L971.178 310.406L980.6 268.515L963.344 269.4Z" fill="url(#paint4_linear)"/>
<path d="M958.781 289.631L958.327 291.697L975.582 290.789L976.037 288.722L958.781 289.631Z" fill="#A08BE8"/>
<path d="M928.22 287.769L927.289 289.631L944.023 294.308L944.954 292.446L928.22 287.769Z" fill="#A08BE8"/>
<path d="M1033.98 227.101C1043.79 206.008 1043.31 187.662 1043.31 187.662L1048.51 188.616L1048.65 188.548C1048.62 146.566 1018.65 109.262 975.878 101.451C927.675 92.6414 881.47 124.565 872.637 172.768C863.805 220.971 895.751 267.176 943.954 276.008C981.985 282.956 1018.79 264.542 1036.93 232.8C1037.57 231.392 1038.02 228.781 1033.98 227.101Z" fill="url(#paint5_radial)"/>
<path d="M1033.98 227.101C1043.68 206.28 1043.31 188.116 1043.31 187.685L952.764 171.133C952.764 171.133 947.156 169.521 946.202 174.72C945.249 179.92 942.774 194.701 939.799 210.98C939.186 214.318 1033.05 227.918 1033.98 227.101Z" fill="url(#paint6_radial)"/>
<path d="M990.522 219.086C990.522 219.086 1000.49 213.795 1002.42 212.819C1004.35 211.865 1005.85 212.047 1007.17 213.682C1008.48 215.317 1015.95 223.718 1015.95 223.718L990.522 219.086Z" fill="#A08BE8"/>
<path d="M1036.34 233.844C1036.34 233.844 1039.72 229.439 1034.03 227.055C1034.03 227.033 944.976 210.753 944.976 210.753C942.91 210.367 940.458 208.641 940.594 206.598C940.344 208.028 940.072 209.504 939.799 210.957C939.254 214 941.207 216.021 943.182 216.656C943.387 216.724 943.591 216.77 943.795 216.815L949.88 217.928L1036.34 233.844Z" fill="url(#paint7_radial)"/>
<path d="M1027.1 246.673L876.611 219.154C878.95 225.511 881.992 231.551 885.67 237.182L1012.25 260.341C1017.68 256.368 1022.67 251.781 1027.1 246.673Z" fill="url(#paint8_radial)"/>
<path d="M1009.65 238.784L981.485 233.634L976.931 258.537L1005.1 263.688L1009.65 238.784Z" fill="#512BD4"/>
<path d="M984.559 250.245C984.399 250.225 984.258 250.139 984.178 250C984.076 249.855 984.04 249.728 984.082 249.574C984.101 249.415 984.181 249.295 984.326 249.193C984.465 249.114 984.621 249.062 984.774 249.103C984.933 249.123 985.075 249.208 985.177 249.353C985.278 249.499 985.315 249.626 985.273 249.779C985.253 249.939 985.152 250.052 985.029 250.16C984.867 250.234 984.718 250.264 984.559 250.245Z" fill="white"/>
<path d="M991.151 251.35L990.076 251.152L988.059 246.183C988.001 246.049 987.965 245.922 987.951 245.801L987.929 245.795C987.915 245.932 987.887 246.207 987.818 246.635L987.096 250.603L986.152 250.441L987.251 244.388L988.393 244.603L990.324 249.455C990.408 249.666 990.466 249.799 990.47 249.871L990.492 249.877C990.49 249.712 990.539 249.443 990.596 249.058L991.301 245.156L992.245 245.318L991.151 251.35Z" fill="white"/>
<path d="M995.773 252.179L992.452 251.585L993.552 245.531L996.735 246.112L996.575 246.962L994.38 246.556L994.076 248.285L996.118 248.65L995.958 249.5L993.916 249.135L993.594 250.93L995.927 251.35L995.773 252.179Z" fill="white"/>
<path d="M1001.44 247.835L999.742 247.515L998.802 252.718L997.814 252.544L998.754 247.341L997.053 247.021L997.213 246.171L1001.59 246.956L1001.44 247.835Z" fill="white"/>
<path d="M982.281 99.1345L965.433 95.9558L971.087 79.1086L983.189 81.4019L982.281 99.1345Z" fill="#D0C5F3"/>
<path d="M986.731 110.941C987.48 111.077 988.23 110.532 988.275 109.783C988.911 101.609 983.303 94.1165 975.061 92.5499C966.819 90.9832 958.872 95.9102 956.465 103.743C956.238 104.493 956.715 105.265 957.487 105.401L986.731 110.941Z" fill="url(#paint9_radial)"/>
<path d="M949.109 332.725C938.483 355.748 934.85 373.231 934.736 375.092C934.6 377.681 934.804 379.406 937.892 381.382C941.457 383.652 964.662 398.479 964.662 398.479L968.385 384.628L969.112 342.465L949.109 332.725Z" fill="#8065E0"/>
<path d="M968.635 334.427C968.045 345.326 977.785 353.568 995.177 368.008C997.221 369.688 998.061 371.595 997.516 374.411L995.79 383.448C995.54 384.787 994.269 385.355 992.952 386.081L965.524 398.751C964.593 398.842 963.98 398.138 964.162 397.184L966.16 386.763C966.773 383.516 966.455 381.904 963.64 379.792C956.578 374.524 947.905 351.32 950.471 336.993C953.059 322.621 968.635 334.427 968.635 334.427Z" fill="#A08BE8"/>
<path d="M997.039 370.211C997.652 371.369 997.834 372.708 997.516 374.388L995.79 383.425C995.541 384.765 994.474 385.332 992.952 386.059L965.525 398.728C964.594 398.819 963.981 398.115 964.162 397.162L966.16 386.74C966.387 385.605 966.478 384.674 966.387 383.834L997.039 370.211Z" fill="#D0C5F3"/>
<path d="M974.13 308.385L953.037 310.224C950.426 310.451 947.905 312.79 947.406 315.446L943.841 334.087C943.342 336.743 945.044 338.696 947.656 338.469L968.749 336.63C971.36 336.403 973.88 334.064 974.379 331.408L977.944 312.767C978.444 310.133 976.741 308.158 974.13 308.385Z" fill="url(#paint10_radial)"/>
<path d="M918.23 303.254L922.453 321.327C922.589 321.259 922.725 321.213 922.839 321.168C925.586 319.874 928.061 318.194 930.286 316.196L919.728 301.823C919.229 302.323 918.729 302.822 918.23 303.254Z" fill="#A08BE8"/>
<path d="M980.826 197.856C981.94 191.508 979.78 185.824 976.001 185.161C972.222 184.497 968.255 189.106 967.14 195.454C966.026 201.802 968.186 207.486 971.965 208.149C975.744 208.813 979.711 204.204 980.826 197.856Z" fill="#512BD4"/>
<path d="M975.038 190.886C972.063 192.907 971.291 196.926 973.312 199.9C974.674 201.921 976.99 202.92 979.261 202.716C979.965 201.285 980.51 199.628 980.827 197.834C981.327 194.95 981.168 192.226 980.464 190.023C978.693 189.501 976.695 189.751 975.038 190.886Z" fill="#8065E0"/>
<path d="M1031.76 206.993C1033.07 200.681 1031.08 194.935 1027.32 194.159C1023.56 193.383 1019.46 197.871 1018.16 204.183C1016.85 210.495 1018.84 216.241 1022.6 217.017C1026.36 217.793 1030.46 213.305 1031.76 206.993Z" fill="#512BD4"/>
<path d="M1026.03 199.491C1023.06 201.512 1022.29 205.531 1024.31 208.505C1025.69 210.526 1028.01 211.547 1030.3 211.32C1030.94 210.026 1031.44 208.55 1031.75 206.984C1032.39 203.896 1032.23 200.944 1031.48 198.628C1029.69 198.106 1027.69 198.356 1026.03 199.491Z" fill="#8065E0"/>
<path d="M980.26 84.0132C989.376 84.0132 996.766 76.623 996.766 67.5066C996.766 58.3903 989.376 51 980.26 51C971.143 51 963.753 58.3903 963.753 67.5066C963.753 76.623 971.143 84.0132 980.26 84.0132Z" fill="url(#paint11_radial)"/>
<path d="M990.25 117.98C989.91 119.569 990.659 121.249 992.203 122.021C1012.18 132.102 1026.35 150.743 1031.16 172.063C1032.46 177.831 1039.77 176.854 1038.36 170.542C1033.09 147.065 1017.52 126.517 995.518 115.437C993.701 114.529 991.499 115.255 990.568 117.072C990.432 117.39 990.318 117.685 990.25 117.98Z" fill="url(#paint12_radial)"/>
<path d="M1097.3 354.295L1097.55 397.48L1060.11 422.002V378.748L1097.3 354.295Z" fill="#E3646A"/>
<path d="M1024.06 354.726L1024.31 398.184L1060.11 421.797V378.771L1024.06 354.726Z" fill="#EE8F94"/>
<path d="M1024.01 354.749L1061.39 331.113L1097.3 354.272L1060.14 378.93L1024.01 354.749Z" fill="#F7C6C8"/>
<path d="M829.634 403.905L866.167 379.634L830.633 356.202L793.851 380.065L829.634 403.905Z" fill="#F7C6C8"/>
<path d="M719.628 270.785V314.039L757.069 289.517L756.819 246.332L719.628 270.785Z" fill="#F7B548"/>
<path d="M719.628 270.831V313.857L683.822 290.221L683.549 246.786L719.628 270.831Z" fill="#FFD590"/>
<path d="M720.264 270.899L756.796 246.627L721.263 223.196L684.48 247.059L720.264 270.899Z" fill="#FFE5B9"/>
<path d="M882.492 181.668C884.104 181.486 885.489 180.238 885.738 178.557C889.962 150.471 910.237 126.949 937.393 118.661C939.345 118.071 940.435 116.005 939.845 114.075C939.254 112.122 937.188 111.032 935.258 111.623C905.401 120.727 883.105 146.589 878.473 177.468C878.178 179.466 879.563 181.35 881.561 181.645C881.856 181.713 882.174 181.713 882.492 181.668Z" fill="url(#paint13_radial)"/>
<path d="M990.931 296.329L995.699 279.368C977.921 274.373 959.439 264.246 950.789 252.894C933.578 230.28 927.539 208.664 926.721 193.974L909.125 194.973C911.509 237.681 941.934 283.954 990.931 296.329Z" fill="url(#paint14_linear)"/>
<path d="M957.736 281.207L966.955 266.767C966.364 266.404 965.819 266.04 965.252 265.654L956.102 280.004C956.624 280.413 957.169 280.821 957.736 281.207Z" fill="#A08BE8"/>
<path d="M925.246 246.196L941.275 238.567C940.935 237.977 940.594 237.386 940.254 236.796L924.247 244.425C924.564 245.015 924.882 245.605 925.246 246.196Z" fill="#A08BE8"/>
<path d="M938.937 264.678L952.128 254.506C951.674 253.983 951.243 253.461 950.834 252.939L937.574 263.179C938.029 263.678 938.483 264.178 938.937 264.678Z" fill="#A08BE8"/>
<path d="M915.573 225.807L933.056 221.515C932.806 220.88 932.557 220.244 932.33 219.608L914.892 223.877C915.119 224.512 915.346 225.171 915.573 225.807Z" fill="#A08BE8"/>
<path d="M915.278 204.577C924.281 204.577 931.58 197.278 931.58 188.275C931.58 179.271 924.281 171.973 915.278 171.973C906.274 171.973 898.975 179.271 898.975 188.275C898.975 197.278 906.274 204.577 915.278 204.577Z" fill="url(#paint15_radial)"/>
<path d="M884.558 297.441C863.442 283.41 846.731 277.12 844.915 276.734C842.395 276.212 840.646 276.121 838.217 278.891C835.424 282.07 817.192 302.709 817.192 302.709L830.316 308.521L871.866 315.719L884.558 297.441Z" fill="#8065E0"/>
<path d="M879.881 316.468C869.209 314.22 859.56 322.553 842.622 337.538C840.646 339.286 838.648 339.831 835.924 338.878L827.273 335.79C826.002 335.336 825.616 333.996 825.116 332.588L816.829 303.549C816.897 302.618 817.669 302.118 818.577 302.459L828.567 306.023C831.678 307.136 833.313 307.068 835.833 304.593C842.122 298.44 866.371 293.422 880.153 298.168C893.935 302.89 879.881 316.468 879.881 316.468Z" fill="#A08BE8"/>
<path d="M840.124 339.037C838.875 339.468 837.536 339.423 835.924 338.855L827.273 335.767C826.002 335.313 825.593 334.178 825.116 332.566L816.829 303.526C816.897 302.595 817.669 302.096 818.577 302.436L828.567 306.001C829.657 306.387 830.565 306.614 831.405 306.659L840.124 339.037Z" fill="#D0C5F3"/>
<path d="M904.743 325.913L906.173 304.775C906.355 302.164 904.425 299.303 901.882 298.395L884.013 292.015C881.47 291.107 879.268 292.492 879.086 295.103L877.656 316.241C877.474 318.852 879.404 321.713 881.947 322.621L899.816 329.001C902.381 329.887 904.584 328.525 904.743 325.913Z" fill="url(#paint16_radial)"/>
<path d="M1041.5 285.453V328.706L1078.94 304.185L1078.69 261L1041.5 285.453Z" fill="#F7B548"/>
<path d="M1041.5 285.498V328.525L1005.69 304.888L1005.44 261.431L1041.5 285.498Z" fill="#FFD590"/>
<path d="M1041.99 285.566L1078.53 261.295L1042.99 237.863L1006.21 261.726L1041.99 285.566Z" fill="#FFE5B9"/>
<path d="M1003.81 286.474L1019.04 279.981C1023.08 278.21 1024.94 273.51 1023.17 269.468C1021.42 265.427 1016.7 263.565 1012.66 265.336L997.039 271.989L1003.81 286.474Z" fill="#D0C5F3"/>
<path d="M995.291 300.642L1009.94 308.339C1013.86 310.36 1018.68 308.816 1020.7 304.911C1022.72 300.983 1021.17 296.169 1017.27 294.148L1002.24 286.247L995.291 300.642Z" fill="#D0C5F3"/>
<path d="M1000.65 290.448L1015.5 297.759C1019.47 299.689 1024.24 298.032 1026.17 294.058C1028.1 290.085 1026.44 285.317 1022.47 283.387L1007.23 275.872L1000.65 290.448Z" fill="#D0C5F3"/>
<path d="M987.23 303.208L1000.1 313.607C1003.56 316.355 1008.57 315.787 1011.32 312.336C1014.07 308.885 1013.5 303.867 1010.05 301.119L996.857 290.448L987.23 303.208Z" fill="#D0C5F3"/>
<path d="M993.315 304.57C1002.54 304.57 1010.03 297.089 1010.03 287.859C1010.03 278.63 1002.54 271.148 993.315 271.148C984.086 271.148 976.604 278.63 976.604 287.859C976.604 297.089 984.086 304.57 993.315 304.57Z" fill="url(#paint17_radial)"/>
<defs>
<linearGradient id="paint0_linear" x1="1061.5" y1="64" x2="-62" y2="1225.5" gradientUnits="userSpaceOnUse">
<stop offset="0.0213813" stop-color="#C2DEFF"/>
<stop offset="0.866948" stop-color="#0F70E3"/>
</linearGradient>
<linearGradient id="paint1_linear" x1="1036.06" y1="201.573" x2="1022.27" y2="282.347" gradientUnits="userSpaceOnUse">
<stop offset="0.2584" stop-color="#958FE7"/>
<stop offset="0.4497" stop-color="#BBB7EF"/>
</linearGradient>
<radialGradient id="paint2_radial" cx="0" cy="0" r="1" gradientUnits="userSpaceOnUse" gradientTransform="translate(1048.48 271.7) rotate(-160.28) scale(23.631)">
<stop stop-color="#A08BE8"/>
<stop offset="1" stop-color="#8065E0"/>
</radialGradient>
<linearGradient id="paint3_linear" x1="922.199" y1="267.779" x2="922.199" y2="323.651" gradientUnits="userSpaceOnUse">
<stop offset="0.1788" stop-color="#958FE7"/>
<stop offset="0.4497" stop-color="#BBB7EF"/>
</linearGradient>
<linearGradient id="paint4_linear" x1="967.254" y1="269.054" x2="970.874" y2="310.425" gradientUnits="userSpaceOnUse">
<stop offset="0.1788" stop-color="#958FE7"/>
<stop offset="0.4497" stop-color="#BBB7EF"/>
</linearGradient>
<radialGradient id="paint5_radial" cx="0" cy="0" r="1" gradientUnits="userSpaceOnUse" gradientTransform="translate(980.246 167.478) scale(88.7316)">
<stop offset="0.4744" stop-color="#A08BE8"/>
<stop offset="0.8618" stop-color="#8065E0"/>
</radialGradient>
<radialGradient id="paint6_radial" cx="0" cy="0" r="1" gradientUnits="userSpaceOnUse" gradientTransform="translate(1055.07 159.083) scale(80.9827)">
<stop stop-color="#E1DFDD"/>
<stop offset="0.1047" stop-color="#EDECEB"/>
<stop offset="0.7337" stop-color="white"/>
</radialGradient>
<radialGradient id="paint7_radial" cx="0" cy="0" r="1" gradientUnits="userSpaceOnUse" gradientTransform="translate(948.949 218.188) scale(75.6291)">
<stop stop-color="#512BD4"/>
<stop offset="0.5045" stop-color="#6645D9"/>
<stop offset="0.7759" stop-color="#7659DD"/>
<stop offset="1" stop-color="#8065E0"/>
</radialGradient>
<radialGradient id="paint8_radial" cx="0" cy="0" r="1" gradientUnits="userSpaceOnUse" gradientTransform="translate(902.969 233.153) scale(55.1625)">
<stop offset="0.4614" stop-color="#A08BE8"/>
<stop offset="0.5268" stop-color="#A793EA"/>
<stop offset="0.8352" stop-color="#C5B7F0"/>
<stop offset="1" stop-color="#D0C5F3"/>
</radialGradient>
<radialGradient id="paint9_radial" cx="0" cy="0" r="1" gradientUnits="userSpaceOnUse" gradientTransform="translate(972.365 101.601) scale(13.0775)">
<stop stop-color="#8065E0"/>
<stop offset="0.8628" stop-color="#512BD4"/>
</radialGradient>
<radialGradient id="paint10_radial" cx="0" cy="0" r="1" gradientUnits="userSpaceOnUse" gradientTransform="translate(964.481 313.635) rotate(-5.00064) scale(25.2924 25.1002)">
<stop stop-color="#8065E0"/>
<stop offset="0.8628" stop-color="#512BD4"/>
</radialGradient>
<radialGradient id="paint11_radial" cx="0" cy="0" r="1" gradientUnits="userSpaceOnUse" gradientTransform="translate(984.895 59.6055) scale(22.9553)">
<stop stop-color="#A08BE8"/>
<stop offset="1" stop-color="#8065E0"/>
</radialGradient>
<radialGradient id="paint12_radial" cx="0" cy="0" r="1" gradientUnits="userSpaceOnUse" gradientTransform="translate(1014.15 145.261) rotate(-77.9485) scale(27.4759)">
<stop offset="0.3607" stop-color="#BDB9F0"/>
<stop offset="0.5611" stop-color="#C3BCEB" stop-opacity="0.3855"/>
<stop offset="0.6338" stop-color="#CEC3E2" stop-opacity="0.3217"/>
<stop offset="0.8689" stop-color="#EDD6C9" stop-opacity="0.1152"/>
<stop offset="1" stop-color="#F9DDBF" stop-opacity="0"/>
</radialGradient>
<radialGradient id="paint13_radial" cx="0" cy="0" r="1" gradientUnits="userSpaceOnUse" gradientTransform="translate(909.182 146.902) rotate(173.834) scale(33.0284)">
<stop stop-color="#BDB9F0"/>
<stop offset="0.5266" stop-color="#C3BCEB" stop-opacity="0.3855"/>
<stop offset="0.605" stop-color="#CEC3E2" stop-opacity="0.3217"/>
<stop offset="0.8586" stop-color="#EDD6C9" stop-opacity="0.1152"/>
<stop offset="1" stop-color="#F9DDBF" stop-opacity="0"/>
</radialGradient>
<linearGradient id="paint14_linear" x1="908.611" y1="195.386" x2="987.56" y2="298.916" gradientUnits="userSpaceOnUse">
<stop offset="0.1788" stop-color="#958FE7"/>
<stop offset="0.4497" stop-color="#BBB7EF"/>
</linearGradient>
<radialGradient id="paint15_radial" cx="0" cy="0" r="1" gradientUnits="userSpaceOnUse" gradientTransform="translate(916.011 181.473) scale(24.1946)">
<stop stop-color="#8065E0"/>
<stop offset="0.8628" stop-color="#512BD4"/>
</radialGradient>
<radialGradient id="paint16_radial" cx="0" cy="0" r="1" gradientUnits="userSpaceOnUse" gradientTransform="translate(901.047 315.577) rotate(93.8441) scale(25.2933 25.0999)">
<stop stop-color="#8065E0"/>
<stop offset="0.8628" stop-color="#512BD4"/>
</radialGradient>
<radialGradient id="paint17_radial" cx="0" cy="0" r="1" gradientUnits="userSpaceOnUse" gradientTransform="translate(987.241 290.973) rotate(-127.328) scale(23.6331)">
<stop stop-color="#A08BE8"/>
<stop offset="1" stop-color="#8065E0"/>
</radialGradient>
</defs>
</svg>
