<svg width="1600" height="900" viewBox="0 0 1600 900" fill="none" xmlns="http://www.w3.org/2000/svg">
<g clip-path="url(#clip0)">
<rect width="1600" height="900" fill="white"/>
<rect width="1600" height="900" fill="url(#paint0_linear)"/>
<path d="M96.3906 563.234C96.3906 559.432 97.3802 556.516 99.3594 554.484C101.339 552.453 104.203 551.438 107.953 551.438C111.755 551.438 114.646 552.505 116.625 554.641C118.604 556.724 119.594 559.589 119.594 563.234C119.594 566.932 118.578 569.875 116.547 572.062C114.568 574.198 111.703 575.266 107.953 575.266C104.203 575.266 101.339 574.198 99.3594 572.062C97.3802 569.927 96.3906 566.984 96.3906 563.234ZM240.297 573H217.406L161.234 481.984H160.609L161 487.062C161.729 496.75 162.094 505.604 162.094 513.625V573H145.141V458.781H167.797L223.812 549.328H224.281C224.177 548.13 223.969 543.781 223.656 536.281C223.344 528.729 223.188 522.844 223.188 518.625V458.781H240.297V573ZM335.062 573H270.453V458.781H335.062V474.562H289.125V505.656H332.172V521.281H289.125V557.141H335.062V573ZM399.281 573H380.609V474.797H347.016V458.781H432.875V474.797H399.281V573ZM540.609 473.156C529.88 473.156 521.443 476.958 515.297 484.562C509.151 492.167 506.078 502.661 506.078 516.047C506.078 530.057 509.021 540.656 514.906 547.844C520.844 555.031 529.411 558.625 540.609 558.625C545.453 558.625 550.141 558.156 554.672 557.219C559.203 556.229 563.917 554.979 568.812 553.469V569.484C559.854 572.87 549.698 574.562 538.344 574.562C521.625 574.562 508.786 569.51 499.828 559.406C490.87 549.25 486.391 534.745 486.391 515.891C486.391 504.016 488.552 493.625 492.875 484.719C497.25 475.812 503.552 468.99 511.781 464.25C520.01 459.51 529.672 457.141 540.766 457.141C552.432 457.141 563.214 459.589 573.109 464.484L566.391 480.031C562.536 478.208 558.448 476.62 554.125 475.266C549.854 473.859 545.349 473.156 540.609 473.156ZM668.109 529.641C668.109 543.755 664.49 554.771 657.25 562.688C650.01 570.604 639.932 574.562 627.016 574.562C618.943 574.562 611.807 572.74 605.609 569.094C599.411 565.448 594.646 560.214 591.312 553.391C587.979 546.568 586.312 538.651 586.312 529.641C586.312 515.63 589.906 504.693 597.094 496.828C604.281 488.964 614.411 485.031 627.484 485.031C639.984 485.031 649.88 489.068 657.172 497.141C664.464 505.161 668.109 515.995 668.109 529.641ZM605.219 529.641C605.219 549.589 612.589 559.562 627.328 559.562C641.911 559.562 649.203 549.589 649.203 529.641C649.203 509.901 641.859 500.031 627.172 500.031C619.464 500.031 613.865 502.583 610.375 507.688C606.938 512.792 605.219 520.109 605.219 529.641ZM765.297 573H746.859V519.875C746.859 513.208 745.505 508.234 742.797 504.953C740.141 501.672 735.896 500.031 730.062 500.031C722.302 500.031 716.625 502.323 713.031 506.906C709.438 511.49 707.641 519.172 707.641 529.953V573H689.281V486.594H703.656L706.234 497.922H707.172C709.776 493.807 713.474 490.63 718.266 488.391C723.057 486.151 728.37 485.031 734.203 485.031C754.932 485.031 765.297 495.578 765.297 516.672V573ZM834.203 500.5H813.109V573H794.672V500.5H780.453V491.906L794.672 486.281V480.656C794.672 470.448 797.068 462.896 801.859 458C806.651 453.052 813.969 450.578 823.812 450.578C830.271 450.578 836.625 451.646 842.875 453.781L838.031 467.688C833.5 466.229 829.177 465.5 825.062 465.5C820.896 465.5 817.849 466.802 815.922 469.406C814.047 471.958 813.109 475.812 813.109 480.969V486.594H834.203V500.5Z" fill="white"/>
<path d="M151.681 662.011H145.87V612.041H173.727V617.202H151.681V635.488H172.394V640.649H151.681V662.011ZM213.512 643.247C213.512 649.353 211.974 654.127 208.897 657.568C205.821 660.986 201.572 662.695 196.148 662.695C192.799 662.695 189.825 661.909 187.228 660.336C184.63 658.764 182.625 656.508 181.212 653.569C179.799 650.629 179.093 647.189 179.093 643.247C179.093 637.14 180.619 632.389 183.673 628.994C186.726 625.576 190.965 623.867 196.388 623.867C201.629 623.867 205.787 625.61 208.863 629.096C211.962 632.583 213.512 637.299 213.512 643.247ZM184.972 643.247C184.972 648.032 185.929 651.678 187.843 654.184C189.757 656.691 192.571 657.944 196.285 657.944C199.999 657.944 202.813 656.702 204.728 654.218C206.664 651.712 207.633 648.055 207.633 643.247C207.633 638.484 206.664 634.873 204.728 632.412C202.813 629.928 199.977 628.686 196.217 628.686C192.503 628.686 189.7 629.905 187.809 632.343C185.917 634.781 184.972 638.416 184.972 643.247ZM238.463 662.695C233.04 662.695 228.836 661.031 225.851 657.705C222.888 654.355 221.407 649.627 221.407 643.52C221.407 637.254 222.911 632.412 225.919 628.994C228.95 625.576 233.256 623.867 238.839 623.867C240.639 623.867 242.439 624.06 244.239 624.448C246.039 624.835 247.452 625.291 248.478 625.815L246.734 630.634C245.481 630.133 244.114 629.723 242.633 629.404C241.152 629.062 239.841 628.891 238.702 628.891C231.091 628.891 227.286 633.745 227.286 643.452C227.286 648.055 228.209 651.586 230.055 654.047C231.923 656.508 234.68 657.739 238.326 657.739C241.448 657.739 244.649 657.067 247.931 655.722V660.747C245.424 662.045 242.268 662.695 238.463 662.695ZM262.184 624.55V648.852C262.184 651.905 262.879 654.184 264.269 655.688C265.659 657.192 267.835 657.944 270.797 657.944C274.716 657.944 277.576 656.873 279.376 654.731C281.199 652.589 282.11 649.091 282.11 644.238V624.55H287.784V662.011H283.102L282.281 656.987H281.974C280.812 658.833 279.194 660.245 277.12 661.225C275.069 662.205 272.722 662.695 270.079 662.695C265.522 662.695 262.104 661.612 259.825 659.448C257.569 657.283 256.441 653.819 256.441 649.057V624.55H262.184ZM324.015 651.792C324.015 655.278 322.716 657.967 320.118 659.858C317.521 661.749 313.875 662.695 309.181 662.695C304.213 662.695 300.34 661.909 297.56 660.336V655.073C299.36 655.984 301.285 656.702 303.336 657.226C305.41 657.75 307.403 658.012 309.317 658.012C312.28 658.012 314.558 657.545 316.153 656.611C317.748 655.654 318.546 654.207 318.546 652.27C318.546 650.812 317.908 649.57 316.632 648.544C315.379 647.496 312.918 646.266 309.249 644.853C305.763 643.554 303.279 642.426 301.798 641.469C300.34 640.489 299.246 639.384 298.517 638.154C297.81 636.923 297.457 635.454 297.457 633.745C297.457 630.691 298.699 628.287 301.183 626.533C303.666 624.755 307.073 623.867 311.402 623.867C315.436 623.867 319.378 624.687 323.229 626.328L321.212 630.942C317.452 629.392 314.046 628.618 310.992 628.618C308.303 628.618 306.275 629.039 304.908 629.882C303.541 630.725 302.857 631.888 302.857 633.369C302.857 634.371 303.108 635.226 303.609 635.932C304.133 636.639 304.965 637.311 306.104 637.949C307.244 638.587 309.431 639.51 312.667 640.717C317.11 642.335 320.107 643.964 321.656 645.605C323.229 647.246 324.015 649.308 324.015 651.792ZM383.795 643.247C383.795 649.353 382.257 654.127 379.181 657.568C376.104 660.986 371.855 662.695 366.432 662.695C363.082 662.695 360.108 661.909 357.511 660.336C354.913 658.764 352.908 656.508 351.495 653.569C350.082 650.629 349.376 647.189 349.376 643.247C349.376 637.14 350.903 632.389 353.956 628.994C357.009 625.576 361.248 623.867 366.671 623.867C371.912 623.867 376.07 625.61 379.146 629.096C382.245 632.583 383.795 637.299 383.795 643.247ZM355.255 643.247C355.255 648.032 356.212 651.678 358.126 654.184C360.04 656.691 362.854 657.944 366.568 657.944C370.283 657.944 373.097 656.702 375.011 654.218C376.948 651.712 377.916 648.055 377.916 643.247C377.916 638.484 376.948 634.873 375.011 632.412C373.097 629.928 370.26 628.686 366.5 628.686C362.786 628.686 359.983 629.905 358.092 632.343C356.201 634.781 355.255 638.416 355.255 643.247ZM419.41 662.011V637.778C419.41 634.724 418.715 632.446 417.325 630.942C415.935 629.438 413.759 628.686 410.797 628.686C406.878 628.686 404.007 629.746 402.184 631.865C400.361 633.984 399.449 637.482 399.449 642.358V662.011H393.775V624.55H398.39L399.312 629.677H399.586C400.748 627.832 402.377 626.407 404.474 625.405C406.57 624.379 408.906 623.867 411.48 623.867C415.992 623.867 419.387 624.96 421.666 627.148C423.945 629.313 425.084 632.788 425.084 637.573V662.011H419.41ZM477.926 662.011L460.973 617.714H460.699C461.018 621.223 461.178 625.393 461.178 630.224V662.011H455.812V612.041H464.562L480.387 653.261H480.66L496.622 612.041H505.304V662.011H499.493V629.814C499.493 626.123 499.653 622.112 499.972 617.783H499.698L482.608 662.011H477.926ZM523.863 662.011H518.189V624.55H523.863V662.011ZM517.711 614.399C517.711 613.1 518.03 612.154 518.668 611.562C519.306 610.947 520.104 610.639 521.061 610.639C521.972 610.639 522.758 610.947 523.419 611.562C524.08 612.177 524.41 613.123 524.41 614.399C524.41 615.675 524.08 616.632 523.419 617.27C522.758 617.885 521.972 618.193 521.061 618.193C520.104 618.193 519.306 617.885 518.668 617.27C518.03 616.632 517.711 615.675 517.711 614.399ZM550.865 662.695C545.442 662.695 541.238 661.031 538.253 657.705C535.291 654.355 533.81 649.627 533.81 643.52C533.81 637.254 535.313 632.412 538.321 628.994C541.352 625.576 545.659 623.867 551.241 623.867C553.041 623.867 554.841 624.06 556.642 624.448C558.442 624.835 559.854 625.291 560.88 625.815L559.137 630.634C557.883 630.133 556.516 629.723 555.035 629.404C553.554 629.062 552.244 628.891 551.104 628.891C543.494 628.891 539.688 633.745 539.688 643.452C539.688 648.055 540.611 651.586 542.457 654.047C544.326 656.508 547.083 657.739 550.729 657.739C553.85 657.739 557.052 657.067 560.333 655.722V660.747C557.826 662.045 554.671 662.695 550.865 662.695ZM586.344 623.867C588.007 623.867 589.5 624.003 590.821 624.277L590.035 629.541C588.486 629.199 587.118 629.028 585.934 629.028C582.903 629.028 580.305 630.258 578.141 632.719C575.999 635.18 574.928 638.245 574.928 641.914V662.011H569.254V624.55H573.937L574.586 631.489H574.859C576.249 629.051 577.924 627.171 579.884 625.849C581.843 624.528 583.997 623.867 586.344 623.867ZM630.162 643.247C630.162 649.353 628.624 654.127 625.548 657.568C622.472 660.986 618.222 662.695 612.799 662.695C609.449 662.695 606.476 661.909 603.878 660.336C601.28 658.764 599.275 656.508 597.862 653.569C596.45 650.629 595.743 647.189 595.743 643.247C595.743 637.14 597.27 632.389 600.323 628.994C603.377 625.576 607.615 623.867 613.038 623.867C618.279 623.867 622.438 625.61 625.514 629.096C628.613 632.583 630.162 637.299 630.162 643.247ZM601.622 643.247C601.622 648.032 602.579 651.678 604.493 654.184C606.407 656.691 609.221 657.944 612.936 657.944C616.65 657.944 619.464 656.702 621.378 654.218C623.315 651.712 624.283 648.055 624.283 643.247C624.283 638.484 623.315 634.873 621.378 632.412C619.464 629.928 616.627 628.686 612.867 628.686C609.153 628.686 606.35 629.905 604.459 632.343C602.568 634.781 601.622 638.416 601.622 643.247ZM664.308 651.792C664.308 655.278 663.009 657.967 660.411 659.858C657.813 661.749 654.168 662.695 649.474 662.695C644.506 662.695 640.632 661.909 637.853 660.336V655.073C639.653 655.984 641.578 656.702 643.629 657.226C645.702 657.75 647.696 658.012 649.61 658.012C652.573 658.012 654.851 657.545 656.446 656.611C658.041 655.654 658.839 654.207 658.839 652.27C658.839 650.812 658.201 649.57 656.925 648.544C655.672 647.496 653.211 646.266 649.542 644.853C646.056 643.554 643.572 642.426 642.091 641.469C640.632 640.489 639.539 639.384 638.81 638.154C638.103 636.923 637.75 635.454 637.75 633.745C637.75 630.691 638.992 628.287 641.476 626.533C643.959 624.755 647.366 623.867 651.695 623.867C655.729 623.867 659.671 624.687 663.521 626.328L661.505 630.942C657.745 629.392 654.339 628.618 651.285 628.618C648.596 628.618 646.568 629.039 645.201 629.882C643.834 630.725 643.15 631.888 643.15 633.369C643.15 634.371 643.401 635.226 643.902 635.932C644.426 636.639 645.258 637.311 646.397 637.949C647.537 638.587 649.724 639.51 652.96 640.717C657.403 642.335 660.4 643.964 661.949 645.605C663.521 647.246 664.308 649.308 664.308 651.792ZM689.396 662.695C683.858 662.695 679.483 661.009 676.271 657.636C673.08 654.264 671.485 649.581 671.485 643.588C671.485 637.55 672.966 632.753 675.929 629.199C678.914 625.644 682.913 623.867 687.926 623.867C692.62 623.867 696.334 625.416 699.068 628.515C701.803 631.591 703.17 635.659 703.17 640.717V644.306H677.364C677.478 648.704 678.583 652.042 680.68 654.321C682.799 656.599 685.772 657.739 689.601 657.739C693.634 657.739 697.621 656.896 701.563 655.209V660.268C699.558 661.134 697.656 661.749 695.855 662.114C694.078 662.501 691.925 662.695 689.396 662.695ZM687.857 628.618C684.85 628.618 682.446 629.597 680.646 631.557C678.868 633.517 677.82 636.228 677.501 639.692H697.086C697.086 636.114 696.288 633.38 694.693 631.489C693.098 629.575 690.82 628.618 687.857 628.618ZM729.967 623.867C731.63 623.867 733.123 624.003 734.444 624.277L733.658 629.541C732.109 629.199 730.742 629.028 729.557 629.028C726.526 629.028 723.928 630.258 721.764 632.719C719.622 635.18 718.551 638.245 718.551 641.914V662.011H712.877V624.55H717.56L718.209 631.489H718.482C719.872 629.051 721.547 627.171 723.507 625.849C725.466 624.528 727.62 623.867 729.967 623.867ZM749.654 662.011L735.436 624.55H741.52L749.586 646.767C751.409 651.962 752.48 655.335 752.799 656.884H753.072C753.323 655.677 754.109 653.181 755.431 649.399C756.775 645.594 759.771 637.311 764.42 624.55H770.504L756.285 662.011H749.654ZM782.193 662.011H776.52V624.55H782.193V662.011ZM776.041 614.399C776.041 613.1 776.36 612.154 776.998 611.562C777.636 610.947 778.434 610.639 779.391 610.639C780.302 610.639 781.088 610.947 781.749 611.562C782.41 612.177 782.74 613.123 782.74 614.399C782.74 615.675 782.41 616.632 781.749 617.27C781.088 617.885 780.302 618.193 779.391 618.193C778.434 618.193 777.636 617.885 776.998 617.27C776.36 616.632 776.041 615.675 776.041 614.399ZM809.195 662.695C803.772 662.695 799.568 661.031 796.583 657.705C793.621 654.355 792.14 649.627 792.14 643.52C792.14 637.254 793.644 632.412 796.651 628.994C799.682 625.576 803.989 623.867 809.571 623.867C811.371 623.867 813.172 624.06 814.972 624.448C816.772 624.835 818.185 625.291 819.21 625.815L817.467 630.634C816.214 630.133 814.846 629.723 813.365 629.404C811.884 629.062 810.574 628.891 809.435 628.891C801.824 628.891 798.019 633.745 798.019 643.452C798.019 648.055 798.941 651.586 800.787 654.047C802.656 656.508 805.413 657.739 809.059 657.739C812.18 657.739 815.382 657.067 818.663 655.722V660.747C816.157 662.045 813.001 662.695 809.195 662.695ZM843.409 662.695C837.872 662.695 833.497 661.009 830.284 657.636C827.094 654.264 825.499 649.581 825.499 643.588C825.499 637.55 826.98 632.753 829.942 629.199C832.927 625.644 836.926 623.867 841.939 623.867C846.633 623.867 850.348 625.416 853.082 628.515C855.816 631.591 857.184 635.659 857.184 640.717V644.306H831.378C831.492 648.704 832.597 652.042 834.693 654.321C836.812 656.599 839.786 657.739 843.614 657.739C847.647 657.739 851.635 656.896 855.577 655.209V660.268C853.572 661.134 851.669 661.749 849.869 662.114C848.092 662.501 845.938 662.695 843.409 662.695ZM841.871 628.618C838.863 628.618 836.459 629.597 834.659 631.557C832.882 633.517 831.834 636.228 831.515 639.692H851.1C851.1 636.114 850.302 633.38 848.707 631.489C847.112 629.575 844.833 628.618 841.871 628.618ZM891.056 651.792C891.056 655.278 889.757 657.967 887.159 659.858C884.562 661.749 880.916 662.695 876.222 662.695C871.254 662.695 867.381 661.909 864.601 660.336V655.073C866.401 655.984 868.326 656.702 870.377 657.226C872.451 657.75 874.444 658.012 876.358 658.012C879.321 658.012 881.599 657.545 883.194 656.611C884.789 655.654 885.587 654.207 885.587 652.27C885.587 650.812 884.949 649.57 883.673 648.544C882.42 647.496 879.959 646.266 876.29 644.853C872.804 643.554 870.32 642.426 868.839 641.469C867.381 640.489 866.287 639.384 865.558 638.154C864.851 636.923 864.498 635.454 864.498 633.745C864.498 630.691 865.74 628.287 868.224 626.533C870.707 624.755 874.114 623.867 878.443 623.867C882.477 623.867 886.419 624.687 890.27 626.328L888.253 630.942C884.493 629.392 881.087 628.618 878.033 628.618C875.344 628.618 873.316 629.039 871.949 629.882C870.582 630.725 869.898 631.888 869.898 633.369C869.898 634.371 870.149 635.226 870.65 635.932C871.174 636.639 872.006 637.311 873.146 637.949C874.285 638.587 876.472 639.51 879.708 640.717C884.151 642.335 887.148 643.964 888.697 645.605C890.27 647.246 891.056 649.308 891.056 651.792Z" fill="white"/>
<path d="M1421.41 198.401L1434.05 210.662C1422.7 222.378 1418.07 234.275 1420.97 244.152C1424.43 255.891 1438.37 265.177 1460.25 270.308L1456.23 287.473C1419.93 278.959 1407.83 261.908 1404.06 249.125C1399.31 232.89 1405.47 214.863 1421.41 198.401Z" fill="url(#paint1_linear)"/>
<path d="M1404.15 227.125L1403.59 229.091L1420.32 233.837L1420.88 231.872L1404.15 227.125Z" fill="#A08BE8"/>
<path d="M1410.37 261.749C1417.77 254.801 1423.2 249.465 1423.2 249.465L1422.29 247.717L1404.15 249.283C1405.28 253.189 1407.24 257.457 1410.37 261.749Z" fill="#A08BE8"/>
<path d="M1434.94 260.671L1425.99 275.588L1427.75 276.639L1436.69 261.722L1434.94 260.671Z" fill="#A08BE8"/>
<path d="M1160.82 289.54V332.793L1198.26 308.272L1198.01 265.086L1160.82 289.54Z" fill="#B3AFAB"/>
<path d="M1160.82 289.585V332.611L1125.01 308.998L1124.76 265.541L1160.82 289.585Z" fill="#B2B2B2"/>
<path d="M1160.34 289.654L1196.87 265.382L1161.34 241.95L1124.56 265.813L1160.34 289.654Z" fill="#E1DFDD"/>
<path d="M1463.95 258.911L1473.2 245.174C1475.63 241.496 1474.63 236.546 1470.95 234.094C1467.27 231.664 1462.32 232.663 1459.87 236.342L1450.4 250.419L1463.95 258.911Z" fill="#D0C5F3"/>
<path d="M1464.52 275.417L1481.01 273.896C1485.39 273.464 1488.61 269.559 1488.16 265.154C1487.73 260.772 1483.82 257.548 1479.42 258.002L1462.52 259.546L1464.52 275.417Z" fill="#D0C5F3"/>
<path d="M1463.48 263.951L1479.92 262.021C1484.3 261.476 1487.41 257.48 1486.86 253.098C1486.32 248.716 1482.32 245.605 1477.94 246.15L1461.09 248.126L1463.48 263.951Z" fill="#D0C5F3"/>
<path d="M1459.14 281.979L1475.6 283.705C1479.98 284.136 1483.89 280.935 1484.32 276.53C1484.75 272.148 1481.55 268.242 1477.15 267.811L1460.25 266.04L1459.14 281.979Z" fill="#D0C5F3"/>
<path d="M1455.92 282.479C1465.15 282.479 1472.63 274.997 1472.63 265.768C1472.63 256.538 1465.15 249.057 1455.92 249.057C1446.69 249.057 1439.21 256.538 1439.21 265.768C1439.21 274.997 1446.69 282.479 1455.92 282.479Z" fill="url(#paint2_radial)"/>
<path d="M1222.62 505.602L1087.91 416.348L1050.61 439.984L1049.18 437.736L1087.94 413.169L1224.1 503.377L1222.62 505.602Z" fill="#106EBE"/>
<path d="M1142.45 335.722L1140.97 337.947L1230.36 396.867L1231.84 394.641L1142.45 335.722Z" fill="#106EBE"/>
<path d="M1066.96 586.409L1065.5 584.161L1132.48 540.431L1191.86 579.257L1305.88 502.741L1307.38 504.966L1191.9 582.458L1132.51 543.61L1066.96 586.409Z" fill="#106EBE"/>
<path d="M1444.45 402.565L1346.39 466.866L1347.86 469.091L1445.93 404.791L1444.45 402.565Z" fill="#106EBE"/>
<path d="M1444.04 553.486L1344.48 488.55L1345.93 486.302L1444.07 550.308L1444.04 553.486Z" fill="#106EBE"/>
<path d="M1269.26 422.092V465.345L1306.7 440.824L1306.45 397.639L1269.26 422.092Z" fill="#B3AFAB"/>
<path d="M1270.89 422.138V465.164L1235.09 441.528L1234.84 398.071L1270.89 422.138Z" fill="#B2B2B2"/>
<path d="M1270.1 422.206L1306.63 397.934L1271.1 374.502L1234.32 398.365L1270.1 422.206Z" fill="#E1DFDD"/>
<path d="M1233.45 487.71V530.963L1270.89 506.442L1270.64 463.257L1233.45 487.71Z" fill="#6E66DF"/>
<path d="M1233.45 487.755V530.782L1197.65 507.168L1197.4 463.711L1233.45 487.755Z" fill="#B2B2B2"/>
<path d="M1233.63 487.823L1270.17 463.551L1234.63 440.12L1197.85 463.983L1233.63 487.823Z" fill="#C2C2C2"/>
<path d="M1342.51 463.461V506.714L1379.95 482.192L1379.7 439.007L1342.51 463.461Z" fill="#797673"/>
<path d="M1342.51 463.507V506.533L1306.7 482.919L1306.45 439.462L1342.51 463.507Z" fill="#939393"/>
<path d="M1342.62 463.597L1379.15 439.325L1343.62 415.894L1306.84 439.757L1342.62 463.597Z" fill="#B3AFAB"/>
<path d="M1233.45 446.023V489.276L1270.89 464.755L1270.64 421.57L1233.45 446.023Z" fill="#F7B548"/>
<path d="M1233.45 446.069V489.095L1197.65 465.459L1197.4 422.001L1233.45 446.069Z" fill="#FFD590"/>
<path d="M1233.57 446.16L1270.1 421.888L1234.57 398.456L1197.78 422.319L1233.57 446.16Z" fill="#B2B2B2"/>
<path d="M1233.45 403.792V447.045L1270.89 422.524L1270.64 379.339L1233.45 403.792Z" fill="#E3646A"/>
<path d="M1233.45 403.837V446.864L1197.65 423.25L1197.4 379.793L1233.45 403.837Z" fill="#EE8F94"/>
<path d="M1225.3 409.173V428.064C1225.3 428.268 1225.26 428.45 1225.14 428.631C1225.05 428.813 1224.89 428.949 1224.71 429.04C1224.53 429.131 1224.35 429.176 1224.14 429.176C1223.94 429.176 1223.76 429.108 1223.58 428.994L1207.86 418.641C1207.71 418.55 1207.59 418.414 1207.5 418.255C1207.41 418.096 1207.36 417.914 1207.36 417.733L1207.25 398.66C1207.25 398.456 1207.3 398.274 1207.41 398.093C1207.5 397.911 1207.66 397.775 1207.84 397.684C1208.02 397.593 1208.2 397.548 1208.41 397.548C1208.61 397.548 1208.79 397.616 1208.98 397.729L1224.8 408.287C1224.96 408.378 1225.07 408.514 1225.17 408.673C1225.26 408.81 1225.3 408.991 1225.3 409.173Z" fill="#E3646A"/>
<path d="M1197.62 511.868V555.121L1235.06 530.6L1234.81 487.415L1197.62 511.868Z" fill="#106EBE"/>
<path d="M1197.62 511.913V554.94L1161.82 531.326L1161.57 487.869L1197.62 511.913Z" fill="#3E8EED"/>
<path d="M1197.24 511.982L1233.77 487.71L1198.24 464.278L1161.45 488.141L1197.24 511.982Z" fill="#72ACF1"/>
<path d="M1305.06 487.529V530.782L1342.5 506.26L1342.26 463.075L1305.06 487.529Z" fill="#3E8EED"/>
<path d="M1306.7 487.574V530.6L1270.89 506.987L1270.64 463.529L1306.7 487.574Z" fill="#72ACF1"/>
<path d="M1306.06 487.642L1342.6 463.37L1307.06 439.938L1270.28 463.802L1306.06 487.642Z" fill="#A7CBF6"/>
<path d="M1307.13 472.179L1321.3 462.757C1321.5 462.621 1321.66 462.439 1321.78 462.235C1321.89 462.03 1321.96 461.781 1321.96 461.554C1321.96 461.326 1321.89 461.077 1321.78 460.872C1321.66 460.668 1321.5 460.486 1321.3 460.35L1307.58 451.291C1307.36 451.132 1307.08 451.064 1306.79 451.064C1306.52 451.064 1306.24 451.155 1306 451.291L1291.74 460.554C1291.53 460.691 1291.37 460.872 1291.26 461.077C1291.15 461.281 1291.08 461.531 1291.08 461.758C1291.08 462.008 1291.15 462.235 1291.24 462.439C1291.35 462.643 1291.51 462.825 1291.71 462.961L1305.52 472.179C1305.75 472.338 1306.04 472.429 1306.31 472.429C1306.61 472.429 1306.88 472.338 1307.13 472.179Z" fill="#3E8EED"/>
<path d="M1301.36 466.458C1300.75 466.367 1300.16 466.14 1299.68 465.754C1299.18 465.368 1298.8 464.868 1298.57 464.301V451.949C1298.82 451.382 1299.21 450.882 1299.68 450.496C1300.18 450.11 1300.75 449.883 1301.36 449.792C1301.64 449.792 1301.93 449.838 1302.18 449.951C1302.43 450.065 1302.68 450.224 1302.86 450.428C1303.07 450.632 1303.2 450.859 1303.32 451.132C1303.41 451.404 1303.45 451.677 1303.45 451.949V464.301C1303.48 464.573 1303.43 464.868 1303.32 465.118C1303.23 465.391 1303.07 465.618 1302.86 465.822C1302.66 466.026 1302.43 466.185 1302.18 466.299C1301.93 466.412 1301.66 466.458 1301.36 466.458Z" fill="#72ACF1"/>
<path d="M1311.54 459.646C1310.35 459.646 1309.4 458.693 1308.31 457.489V445.138C1309.4 443.957 1310.35 442.981 1311.54 442.981C1311.81 442.958 1312.08 442.981 1312.33 443.094C1312.58 443.208 1312.81 443.367 1312.97 443.594C1313.12 443.821 1313.24 444.071 1313.28 444.343C1313.33 444.616 1313.28 444.888 1313.19 445.138V457.489C1313.28 457.739 1313.33 458.012 1313.28 458.284C1313.24 458.557 1313.12 458.806 1312.97 459.033C1312.81 459.238 1312.58 459.419 1312.33 459.533C1312.08 459.624 1311.81 459.669 1311.54 459.646Z" fill="#72ACF1"/>
<path d="M1211.54 409.514C1211.75 409.718 1211.88 409.945 1212 410.195C1212.09 410.445 1212.13 410.717 1212.13 411.012C1212.11 411.285 1212.04 411.557 1211.93 411.807C1211.79 412.057 1211.63 412.261 1211.41 412.443L1202.03 418.46C1201.51 418.709 1200.89 418.777 1200.33 418.618C1199.76 418.46 1199.26 418.119 1198.92 417.642C1198.71 417.438 1198.58 417.211 1198.46 416.961C1198.37 416.711 1198.33 416.439 1198.33 416.144C1198.35 415.871 1198.42 415.599 1198.53 415.349C1198.67 415.099 1198.83 414.895 1199.05 414.713L1208.43 408.696C1208.95 408.447 1209.57 408.378 1210.13 408.537C1210.7 408.674 1211.2 409.014 1211.54 409.514Z" fill="#F7C6C8"/>
<path d="M1222.21 415.304C1222.42 415.508 1222.55 415.735 1222.67 415.985C1222.76 416.234 1222.8 416.507 1222.8 416.802C1222.78 417.075 1222.71 417.347 1222.6 417.597C1222.49 417.846 1222.3 418.051 1222.08 418.232L1212.7 424.249C1212.18 424.499 1211.56 424.567 1211 424.408C1210.43 424.249 1209.93 423.909 1209.59 423.432C1209.38 423.228 1209.25 423.001 1209.14 422.751C1209.04 422.501 1209 422.229 1209 421.933C1209.02 421.661 1209.09 421.388 1209.2 421.139C1209.34 420.889 1209.5 420.685 1209.73 420.503L1219.1 414.486C1219.63 414.236 1220.24 414.168 1220.81 414.327C1221.37 414.463 1221.87 414.827 1222.21 415.304Z" fill="#F7C6C8"/>
<path d="M989.69 412.215V455.468L1027.13 430.947L1026.88 387.762L989.69 412.215Z" fill="#939393"/>
<path d="M989.69 412.261V455.287L953.885 431.673L953.635 388.216L989.69 412.261Z" fill="#B3AFAB"/>
<path d="M989.69 412.329L1026.22 388.057L990.69 364.625L953.907 388.488L989.69 412.329Z" fill="#C8C6C4"/>
<path d="M1023.88 435.601V478.855L1061.33 454.333L1061.08 411.148L1023.88 435.601Z" fill="#6E66DF"/>
<path d="M1023.88 435.647V478.673L988.078 455.06L987.829 411.602L1023.88 435.647Z" fill="#939393"/>
<path d="M1024.45 435.715L1060.98 411.443L1025.45 388.012L988.669 411.875L1024.45 435.715Z" fill="#958FE7"/>
<path d="M1024.16 421.138L1038.32 411.716C1038.53 411.58 1038.69 411.398 1038.8 411.194C1038.92 410.989 1038.98 410.74 1038.98 410.512C1038.98 410.263 1038.92 410.036 1038.8 409.831C1038.69 409.627 1038.53 409.445 1038.32 409.309L1024.61 400.25C1024.38 400.091 1024.11 400.023 1023.82 400.023C1023.52 400.023 1023.27 400.114 1023.02 400.25L1008.76 409.491C1008.56 409.627 1008.4 409.809 1008.29 410.013C1008.17 410.217 1008.1 410.467 1008.1 410.694C1008.1 410.944 1008.17 411.171 1008.26 411.375C1008.38 411.58 1008.54 411.761 1008.74 411.897L1022.54 421.116C1022.77 421.275 1023.07 421.365 1023.34 421.365C1023.66 421.365 1023.93 421.275 1024.16 421.138Z" fill="#6E66DF"/>
<path d="M1018.41 415.417C1017.8 415.349 1017.23 415.122 1016.75 414.736C1016.28 414.35 1015.91 413.85 1015.73 413.283V400.931C1015.94 400.363 1016.28 399.841 1016.75 399.478C1017.23 399.092 1017.8 398.865 1018.41 398.797C1018.98 398.797 1019.52 399.024 1019.93 399.432C1020.34 399.841 1020.59 400.363 1020.61 400.931V413.283C1020.59 413.85 1020.34 414.395 1019.93 414.781C1019.52 415.167 1018.98 415.394 1018.41 415.417Z" fill="#BDB9F0"/>
<path d="M1028.61 408.582C1027.43 408.582 1026.47 407.629 1025.52 406.425V394.074C1026.47 392.893 1027.43 391.917 1028.61 391.917C1028.88 391.894 1029.15 391.94 1029.4 392.053C1029.65 392.167 1029.88 392.326 1030.06 392.53C1030.24 392.734 1030.36 392.984 1030.42 393.256C1030.49 393.529 1030.47 393.801 1030.4 394.074V406.425C1030.47 406.698 1030.47 406.97 1030.42 407.243C1030.36 407.515 1030.24 407.765 1030.06 407.969C1029.88 408.174 1029.65 408.333 1029.4 408.446C1029.15 408.56 1028.88 408.605 1028.61 408.582Z" fill="#BDB9F0"/>
<path d="M988.056 459.419V502.672L1025.5 478.151L1025.25 434.966L988.056 459.419Z" fill="#F7B548"/>
<path d="M988.056 459.464V502.491L952.25 478.877L952 435.42L988.056 459.464Z" fill="#FFD590"/>
<path d="M988.033 459.556L1024.57 435.284L989.032 411.852L952.25 435.715L988.033 459.556Z" fill="#FFE5B9"/>
<path d="M1123.9 313.29V356.543L1161.34 332.021L1161.09 288.836L1123.9 313.29Z" fill="#106EBE"/>
<path d="M1123.9 313.335V356.361L1088.09 332.748L1087.84 289.29L1123.9 313.335Z" fill="#3E8EED"/>
<path d="M1115.75 318.67V337.561C1115.75 337.765 1115.7 337.947 1115.59 338.129C1115.48 338.31 1115.34 338.447 1115.16 338.537C1114.98 338.628 1114.8 338.674 1114.59 338.674C1114.39 338.674 1114.21 338.606 1114.02 338.492L1098.31 328.116C1098.15 328.025 1098.04 327.889 1097.95 327.73C1097.86 327.571 1097.81 327.389 1097.81 327.208L1097.7 308.135C1097.7 307.931 1097.74 307.749 1097.86 307.568C1097.95 307.386 1098.11 307.25 1098.29 307.159C1098.47 307.068 1098.65 307.023 1098.86 307.023C1099.06 307.023 1099.24 307.091 1099.42 307.204L1115.25 317.762C1115.41 317.853 1115.52 317.989 1115.61 318.148C1115.7 318.307 1115.75 318.489 1115.75 318.67Z" fill="#106EBE"/>
<path d="M1123.83 313.403L1160.36 289.131L1124.83 265.699L1088.05 289.563L1123.83 313.403Z" fill="#7BC0EF"/>
<path d="M1102.06 319.329C1102.26 319.533 1102.4 319.76 1102.51 320.01C1102.6 320.26 1102.65 320.532 1102.65 320.827C1102.63 321.1 1102.56 321.372 1102.44 321.622C1102.31 321.872 1102.15 322.076 1101.92 322.258L1092.54 328.275C1092.02 328.524 1091.41 328.593 1090.84 328.434C1090.27 328.275 1089.77 327.934 1089.43 327.457C1089.23 327.253 1089.09 327.026 1088.98 326.776C1088.89 326.526 1088.84 326.254 1088.84 325.959C1088.87 325.686 1088.93 325.414 1089.05 325.164C1089.18 324.914 1089.34 324.71 1089.57 324.528L1098.95 318.512C1099.47 318.262 1100.08 318.194 1100.65 318.353C1101.24 318.489 1101.74 318.852 1102.06 319.329Z" fill="#72ACF1"/>
<path d="M1112.75 325.142C1112.96 325.346 1113.09 325.573 1113.21 325.823C1113.3 326.073 1113.34 326.345 1113.34 326.64C1113.32 326.913 1113.25 327.185 1113.14 327.435C1113 327.685 1112.84 327.889 1112.62 328.071L1103.24 334.087C1102.72 334.337 1102.1 334.405 1101.54 334.246C1100.97 334.087 1100.47 333.747 1100.13 333.27C1099.92 333.066 1099.79 332.839 1099.67 332.589C1099.58 332.339 1099.54 332.067 1099.54 331.772C1099.56 331.499 1099.63 331.227 1099.74 330.977C1099.88 330.727 1100.04 330.523 1100.26 330.341L1109.64 324.324C1110.16 324.075 1110.78 324.006 1111.34 324.165C1111.91 324.302 1112.41 324.642 1112.75 325.142Z" fill="#72ACF1"/>
<path d="M1089.55 580.733V623.986L1052.11 599.464L1052.36 556.279L1089.55 580.733Z" fill="#B3AFAB"/>
<path d="M1089.55 580.778V623.804L1125.35 600.191L1125.6 556.733L1089.55 580.778Z" fill="#797673"/>
<path d="M1097.68 586.114V605.004C1097.68 605.209 1097.72 605.39 1097.83 605.572C1097.95 605.754 1098.08 605.89 1098.27 605.981C1098.45 606.072 1098.63 606.117 1098.83 606.117C1099.04 606.117 1099.22 606.049 1099.4 605.935L1115.11 595.582C1115.27 595.491 1115.39 595.355 1115.48 595.196C1115.57 595.037 1115.61 594.855 1115.61 594.674L1115.73 575.601C1115.73 575.397 1115.68 575.215 1115.57 575.034C1115.45 574.852 1115.32 574.716 1115.14 574.625C1114.95 574.534 1114.77 574.489 1114.57 574.489C1114.36 574.489 1114.18 574.557 1114 574.67L1098.18 585.228C1098.02 585.319 1097.9 585.455 1097.81 585.614C1097.72 585.751 1097.68 585.932 1097.68 586.114Z" fill="#605D5A"/>
<path d="M1089.25 580.846L1052.72 556.575L1088.25 533.143L1125.04 557.006L1089.25 580.846Z" fill="#C8C6C4"/>
<path d="M1111.03 586.773C1110.82 586.977 1110.69 587.204 1110.57 587.454C1110.48 587.703 1110.44 587.976 1110.44 588.271C1110.46 588.544 1110.53 588.816 1110.64 589.066C1110.78 589.315 1110.94 589.52 1111.16 589.701L1120.54 595.718C1121.06 595.968 1121.68 596.036 1122.24 595.877C1122.81 595.718 1123.31 595.378 1123.65 594.901C1123.85 594.697 1123.99 594.47 1124.1 594.22C1124.22 593.97 1124.24 593.698 1124.24 593.402C1124.22 593.13 1124.15 592.857 1124.04 592.608C1123.9 592.358 1123.74 592.154 1123.51 591.972L1114.14 585.955C1113.61 585.705 1113 585.637 1112.43 585.796C1111.87 585.932 1111.37 586.296 1111.03 586.773Z" fill="#B3AFAB"/>
<path d="M1100.33 592.585C1100.13 592.79 1099.99 593.017 1099.88 593.266C1099.79 593.516 1099.74 593.789 1099.74 594.084C1099.76 594.356 1099.83 594.629 1099.95 594.878C1100.08 595.128 1100.24 595.333 1100.47 595.514L1109.85 601.531C1110.37 601.781 1110.98 601.849 1111.55 601.69C1112.12 601.531 1112.62 601.19 1112.96 600.714C1113.16 600.509 1113.3 600.282 1113.41 600.033C1113.5 599.783 1113.55 599.51 1113.55 599.215C1113.52 598.943 1113.46 598.67 1113.34 598.42C1113.21 598.171 1113.05 597.966 1112.82 597.785L1103.44 591.768C1102.92 591.518 1102.31 591.45 1101.74 591.609C1101.17 591.745 1100.67 592.108 1100.33 592.585Z" fill="#B3AFAB"/>
<path d="M1494.02 545.199V588.452L1531.46 563.931L1531.21 520.746L1494.02 545.199Z" fill="#797673"/>
<path d="M1495.63 545.245V588.271L1459.82 564.635L1459.57 521.177L1495.63 545.245Z" fill="#939393"/>
<path d="M1495.04 545.313L1531.57 521.041L1496.04 497.609L1459.25 521.472L1495.04 545.313Z" fill="#B3AFAB"/>
<path d="M1458.19 569.017V612.27L1495.63 587.748L1495.38 544.563L1458.19 569.017Z" fill="#106EBE"/>
<path d="M1458.19 569.063V612.089L1422.38 588.475L1422.13 545.018L1458.19 569.063Z" fill="#3E8EED"/>
<path d="M1458.62 569.153L1495.15 544.881L1459.62 521.45L1422.84 545.313L1458.62 569.153Z" fill="#72ACF1"/>
<path d="M1496.01 531.099L1510.18 521.677C1510.39 521.54 1510.55 521.359 1510.66 521.154C1510.77 520.95 1510.84 520.7 1510.84 520.473C1510.84 520.246 1510.77 519.996 1510.66 519.792C1510.55 519.588 1510.39 519.406 1510.18 519.27L1496.47 510.21C1496.24 510.052 1495.97 509.983 1495.67 509.983C1495.38 509.983 1495.13 510.074 1494.88 510.21L1480.62 519.474C1480.42 519.61 1480.26 519.792 1480.14 519.996C1480.03 520.201 1479.96 520.45 1479.96 520.678C1479.96 520.927 1480.03 521.154 1480.12 521.359C1480.23 521.563 1480.39 521.745 1480.6 521.881L1494.4 531.099C1494.63 531.258 1494.92 531.349 1495.2 531.349C1495.49 531.326 1495.76 531.258 1496.01 531.099Z" fill="#797673"/>
<path d="M1490.25 525.377C1489.63 525.309 1489.07 525.059 1488.57 524.696C1488.09 524.31 1487.7 523.811 1487.48 523.243V510.891C1487.7 510.324 1488.07 509.824 1488.57 509.438C1489.04 509.052 1489.63 508.825 1490.25 508.757C1490.52 508.757 1490.82 508.802 1491.06 508.916C1491.31 509.03 1491.56 509.188 1491.77 509.393C1491.97 509.597 1492.13 509.824 1492.22 510.097C1492.34 510.346 1492.38 510.642 1492.38 510.914V523.266C1492.38 523.538 1492.34 523.833 1492.22 524.083C1492.11 524.333 1491.95 524.583 1491.77 524.787C1491.56 524.991 1491.34 525.15 1491.06 525.264C1490.82 525.309 1490.54 525.377 1490.25 525.377Z" fill="#C8C6C4"/>
<path d="M1500.44 518.544C1499.26 518.544 1498.31 517.59 1497.29 516.387V504.035C1498.31 502.854 1499.26 501.878 1500.44 501.878C1500.71 501.855 1500.99 501.901 1501.24 501.992C1501.49 502.105 1501.71 502.264 1501.87 502.468C1502.05 502.673 1502.17 502.945 1502.21 503.195C1502.26 503.467 1502.24 503.74 1502.15 503.99V516.341C1502.24 516.591 1502.26 516.886 1502.21 517.136C1502.17 517.408 1502.05 517.658 1501.87 517.862C1501.69 518.067 1501.49 518.248 1501.24 518.339C1500.99 518.544 1500.71 518.589 1500.44 518.544Z" fill="#C8C6C4"/>
<path d="M1315.65 323.643C1310.58 323.643 1304.61 322.19 1297.94 317.989L1303.29 302.028C1309.63 306.001 1317.23 306.183 1319.37 305.184C1326.09 302.028 1334.31 288.178 1337.03 267.766L1354.49 270.104C1353.59 276.893 1348 311.223 1326.86 321.145C1323.91 322.508 1320.12 323.643 1315.65 323.643Z" fill="url(#paint3_linear)"/>
<path d="M1367.34 269.4L1357.92 311.314L1375.18 310.406L1384.6 268.515L1367.34 269.4Z" fill="url(#paint4_linear)"/>
<path d="M1362.78 289.631L1362.33 291.697L1379.58 290.789L1380.04 288.722L1362.78 289.631Z" fill="#A08BE8"/>
<path d="M1332.22 287.769L1331.29 289.631L1348.02 294.308L1348.95 292.446L1332.22 287.769Z" fill="#A08BE8"/>
<path d="M1437.98 227.101C1447.79 206.008 1447.31 187.662 1447.31 187.662L1452.51 188.616L1452.65 188.548C1452.62 146.566 1422.65 109.262 1379.88 101.451C1331.67 92.6414 1285.47 124.565 1276.64 172.768C1267.81 220.971 1299.75 267.176 1347.95 276.008C1385.99 282.956 1422.79 264.542 1440.93 232.8C1441.57 231.392 1442.02 228.781 1437.98 227.101Z" fill="url(#paint5_radial)"/>
<path d="M1437.98 227.101C1447.68 206.28 1447.31 188.116 1447.31 187.685L1356.76 171.133C1356.76 171.133 1351.16 169.521 1350.2 174.72C1349.25 179.92 1346.77 194.701 1343.8 210.98C1343.19 214.318 1437.05 227.918 1437.98 227.101Z" fill="url(#paint6_radial)"/>
<path d="M1394.52 219.086C1394.52 219.086 1404.49 213.795 1406.42 212.819C1408.35 211.865 1409.85 212.047 1411.17 213.682C1412.48 215.317 1419.95 223.718 1419.95 223.718L1394.52 219.086Z" fill="#A08BE8"/>
<path d="M1440.34 233.844C1440.34 233.844 1443.72 229.439 1438.03 227.055C1438.03 227.033 1348.98 210.753 1348.98 210.753C1346.91 210.367 1344.46 208.641 1344.59 206.598C1344.34 208.028 1344.07 209.504 1343.8 210.957C1343.25 214 1345.21 216.021 1347.18 216.656C1347.39 216.724 1347.59 216.77 1347.8 216.815L1353.88 217.928L1440.34 233.844Z" fill="url(#paint7_radial)"/>
<path d="M1431.1 246.673L1280.61 219.154C1282.95 225.511 1285.99 231.551 1289.67 237.182L1416.25 260.341C1421.68 256.368 1426.67 251.781 1431.1 246.673Z" fill="url(#paint8_radial)"/>
<path d="M1413.65 238.784L1385.49 233.634L1380.93 258.537L1409.1 263.688L1413.65 238.784Z" fill="#512BD4"/>
<path d="M1388.56 250.245C1388.4 250.225 1388.26 250.139 1388.18 250C1388.08 249.855 1388.04 249.728 1388.08 249.574C1388.1 249.415 1388.18 249.295 1388.33 249.193C1388.47 249.114 1388.62 249.062 1388.77 249.103C1388.93 249.123 1389.07 249.208 1389.18 249.353C1389.28 249.499 1389.31 249.626 1389.27 249.779C1389.25 249.939 1389.15 250.052 1389.03 250.16C1388.87 250.234 1388.72 250.264 1388.56 250.245Z" fill="white"/>
<path d="M1395.15 251.35L1394.08 251.152L1392.06 246.183C1392 246.049 1391.96 245.922 1391.95 245.801L1391.93 245.795C1391.92 245.932 1391.89 246.207 1391.82 246.635L1391.1 250.603L1390.15 250.441L1391.25 244.388L1392.39 244.603L1394.32 249.455C1394.41 249.666 1394.47 249.799 1394.47 249.871L1394.49 249.877C1394.49 249.712 1394.54 249.443 1394.6 249.058L1395.3 245.156L1396.25 245.318L1395.15 251.35Z" fill="white"/>
<path d="M1399.77 252.179L1396.45 251.585L1397.55 245.531L1400.73 246.112L1400.57 246.962L1398.38 246.556L1398.08 248.285L1400.12 248.65L1399.96 249.5L1397.92 249.135L1397.59 250.93L1399.93 251.35L1399.77 252.179Z" fill="white"/>
<path d="M1405.44 247.835L1403.74 247.515L1402.8 252.718L1401.81 252.544L1402.75 247.341L1401.05 247.021L1401.21 246.171L1405.59 246.956L1405.44 247.835Z" fill="white"/>
<path d="M1386.28 99.1345L1369.43 95.9558L1375.09 79.1086L1387.19 81.4019L1386.28 99.1345Z" fill="#D0C5F3"/>
<path d="M1390.73 110.941C1391.48 111.077 1392.23 110.532 1392.27 109.783C1392.91 101.609 1387.3 94.1165 1379.06 92.5499C1370.82 90.9832 1362.87 95.9102 1360.46 103.743C1360.24 104.493 1360.71 105.265 1361.49 105.401L1390.73 110.941Z" fill="url(#paint9_radial)"/>
<path d="M1353.11 332.725C1342.48 355.748 1338.85 373.231 1338.74 375.092C1338.6 377.681 1338.8 379.406 1341.89 381.382C1345.46 383.652 1368.66 398.479 1368.66 398.479L1372.39 384.628L1373.11 342.465L1353.11 332.725Z" fill="#8065E0"/>
<path d="M1372.63 334.427C1372.04 345.326 1381.79 353.568 1399.18 368.008C1401.22 369.688 1402.06 371.595 1401.52 374.411L1399.79 383.448C1399.54 384.787 1398.27 385.355 1396.95 386.081L1369.52 398.751C1368.59 398.842 1367.98 398.138 1368.16 397.184L1370.16 386.763C1370.77 383.516 1370.46 381.904 1367.64 379.792C1360.58 374.524 1351.91 351.32 1354.47 336.993C1357.06 322.621 1372.63 334.427 1372.63 334.427Z" fill="#A08BE8"/>
<path d="M1401.04 370.211C1401.65 371.369 1401.83 372.708 1401.52 374.388L1399.79 383.425C1399.54 384.765 1398.47 385.332 1396.95 386.059L1369.52 398.728C1368.59 398.819 1367.98 398.115 1368.16 397.162L1370.16 386.74C1370.39 385.605 1370.48 384.674 1370.39 383.834L1401.04 370.211Z" fill="#D0C5F3"/>
<path d="M1378.13 308.385L1357.04 310.224C1354.43 310.451 1351.91 312.79 1351.41 315.446L1347.84 334.087C1347.34 336.743 1349.04 338.696 1351.66 338.469L1372.75 336.63C1375.36 336.403 1377.88 334.064 1378.38 331.408L1381.94 312.767C1382.44 310.133 1380.74 308.158 1378.13 308.385Z" fill="url(#paint10_radial)"/>
<path d="M1322.23 303.254L1326.45 321.327C1326.59 321.259 1326.73 321.213 1326.84 321.168C1329.59 319.874 1332.06 318.194 1334.29 316.196L1323.73 301.823C1323.23 302.323 1322.73 302.822 1322.23 303.254Z" fill="#A08BE8"/>
<path d="M1384.83 197.856C1385.94 191.508 1383.78 185.824 1380 185.161C1376.22 184.497 1372.25 189.106 1371.14 195.454C1370.03 201.802 1372.19 207.486 1375.97 208.149C1379.74 208.813 1383.71 204.204 1384.83 197.856Z" fill="#512BD4"/>
<path d="M1379.04 190.886C1376.06 192.907 1375.29 196.926 1377.31 199.9C1378.67 201.921 1380.99 202.92 1383.26 202.716C1383.96 201.285 1384.51 199.628 1384.83 197.834C1385.33 194.95 1385.17 192.226 1384.46 190.023C1382.69 189.501 1380.69 189.751 1379.04 190.886Z" fill="#8065E0"/>
<path d="M1435.76 206.993C1437.07 200.681 1435.08 194.935 1431.32 194.159C1427.56 193.383 1423.46 197.871 1422.16 204.183C1420.85 210.495 1422.84 216.241 1426.6 217.017C1430.36 217.793 1434.46 213.305 1435.76 206.993Z" fill="#512BD4"/>
<path d="M1430.03 199.491C1427.06 201.512 1426.29 205.531 1428.31 208.505C1429.69 210.526 1432.01 211.547 1434.3 211.32C1434.94 210.026 1435.44 208.55 1435.75 206.984C1436.39 203.896 1436.23 200.944 1435.48 198.628C1433.69 198.106 1431.69 198.356 1430.03 199.491Z" fill="#8065E0"/>
<path d="M1384.26 84.0132C1393.38 84.0132 1400.77 76.623 1400.77 67.5066C1400.77 58.3903 1393.38 51 1384.26 51C1375.14 51 1367.75 58.3903 1367.75 67.5066C1367.75 76.623 1375.14 84.0132 1384.26 84.0132Z" fill="url(#paint11_radial)"/>
<path d="M1394.25 117.98C1393.91 119.569 1394.66 121.249 1396.2 122.021C1416.18 132.102 1430.35 150.743 1435.16 172.063C1436.46 177.831 1443.77 176.854 1442.36 170.542C1437.09 147.065 1421.52 126.517 1399.52 115.437C1397.7 114.529 1395.5 115.255 1394.57 117.072C1394.43 117.39 1394.32 117.685 1394.25 117.98Z" fill="url(#paint12_radial)"/>
<path d="M1501.3 354.295L1501.55 397.48L1464.11 422.002V378.748L1501.3 354.295Z" fill="#E3646A"/>
<path d="M1428.06 354.726L1428.31 398.184L1464.11 421.797V378.771L1428.06 354.726Z" fill="#EE8F94"/>
<path d="M1428.01 354.749L1465.39 331.113L1501.3 354.272L1464.14 378.93L1428.01 354.749Z" fill="#F7C6C8"/>
<path d="M1233.63 403.905L1270.17 379.634L1234.63 356.202L1197.85 380.065L1233.63 403.905Z" fill="#F7C6C8"/>
<path d="M1123.63 270.785V314.039L1161.07 289.517L1160.82 246.332L1123.63 270.785Z" fill="#F7B548"/>
<path d="M1123.63 270.831V313.857L1087.82 290.221L1087.55 246.786L1123.63 270.831Z" fill="#FFD590"/>
<path d="M1124.26 270.899L1160.8 246.627L1125.26 223.196L1088.48 247.059L1124.26 270.899Z" fill="#FFE5B9"/>
<path d="M1286.49 181.668C1288.1 181.486 1289.49 180.238 1289.74 178.557C1293.96 150.471 1314.24 126.949 1341.39 118.661C1343.35 118.071 1344.44 116.005 1343.84 114.075C1343.25 112.122 1341.19 111.032 1339.26 111.623C1309.4 120.727 1287.1 146.589 1282.47 177.468C1282.18 179.466 1283.56 181.35 1285.56 181.645C1285.86 181.713 1286.17 181.713 1286.49 181.668Z" fill="url(#paint13_radial)"/>
<path d="M1394.93 296.329L1399.7 279.368C1381.92 274.373 1363.44 264.246 1354.79 252.894C1337.58 230.28 1331.54 208.664 1330.72 193.974L1313.12 194.973C1315.51 237.681 1345.93 283.954 1394.93 296.329Z" fill="url(#paint14_linear)"/>
<path d="M1361.74 281.207L1370.95 266.767C1370.36 266.404 1369.82 266.04 1369.25 265.654L1360.1 280.004C1360.62 280.413 1361.17 280.821 1361.74 281.207Z" fill="#A08BE8"/>
<path d="M1329.25 246.196L1345.28 238.567C1344.93 237.977 1344.59 237.386 1344.25 236.796L1328.25 244.425C1328.56 245.015 1328.88 245.605 1329.25 246.196Z" fill="#A08BE8"/>
<path d="M1342.94 264.678L1356.13 254.506C1355.67 253.983 1355.24 253.461 1354.83 252.939L1341.57 263.179C1342.03 263.678 1342.48 264.178 1342.94 264.678Z" fill="#A08BE8"/>
<path d="M1319.57 225.807L1337.06 221.515C1336.81 220.88 1336.56 220.244 1336.33 219.608L1318.89 223.877C1319.12 224.512 1319.35 225.171 1319.57 225.807Z" fill="#A08BE8"/>
<path d="M1319.28 204.577C1328.28 204.577 1335.58 197.278 1335.58 188.275C1335.58 179.271 1328.28 171.973 1319.28 171.973C1310.27 171.973 1302.98 179.271 1302.98 188.275C1302.98 197.278 1310.27 204.577 1319.28 204.577Z" fill="url(#paint15_radial)"/>
<path d="M1288.56 297.441C1267.44 283.41 1250.73 277.12 1248.91 276.734C1246.39 276.212 1244.65 276.121 1242.22 278.891C1239.42 282.07 1221.19 302.709 1221.19 302.709L1234.32 308.521L1275.87 315.719L1288.56 297.441Z" fill="#8065E0"/>
<path d="M1283.88 316.468C1273.21 314.22 1263.56 322.553 1246.62 337.538C1244.65 339.286 1242.65 339.831 1239.92 338.878L1231.27 335.79C1230 335.336 1229.62 333.996 1229.12 332.588L1220.83 303.549C1220.9 302.618 1221.67 302.118 1222.58 302.459L1232.57 306.023C1235.68 307.136 1237.31 307.068 1239.83 304.593C1246.12 298.44 1270.37 293.422 1284.15 298.168C1297.94 302.89 1283.88 316.468 1283.88 316.468Z" fill="#A08BE8"/>
<path d="M1244.12 339.037C1242.88 339.468 1241.54 339.423 1239.92 338.855L1231.27 335.767C1230 335.313 1229.59 334.178 1229.12 332.566L1220.83 303.526C1220.9 302.595 1221.67 302.096 1222.58 302.436L1232.57 306.001C1233.66 306.387 1234.57 306.614 1235.41 306.659L1244.12 339.037Z" fill="#D0C5F3"/>
<path d="M1308.74 325.913L1310.17 304.775C1310.35 302.164 1308.42 299.303 1305.88 298.395L1288.01 292.015C1285.47 291.107 1283.27 292.492 1283.09 295.103L1281.66 316.241C1281.47 318.852 1283.4 321.713 1285.95 322.621L1303.82 329.001C1306.38 329.887 1308.58 328.525 1308.74 325.913Z" fill="url(#paint16_radial)"/>
<path d="M1445.5 285.453V328.706L1482.94 304.185L1482.69 261L1445.5 285.453Z" fill="#F7B548"/>
<path d="M1445.5 285.498V328.525L1409.69 304.888L1409.44 261.431L1445.5 285.498Z" fill="#FFD590"/>
<path d="M1445.99 285.566L1482.53 261.295L1446.99 237.863L1410.21 261.726L1445.99 285.566Z" fill="#FFE5B9"/>
<path d="M1407.8 286.474L1423.04 279.981C1427.08 278.21 1428.94 273.51 1427.17 269.468C1425.42 265.427 1420.7 263.565 1416.66 265.336L1401.04 271.989L1407.8 286.474Z" fill="#D0C5F3"/>
<path d="M1399.29 300.642L1413.94 308.339C1417.86 310.36 1422.68 308.816 1424.7 304.911C1426.72 300.983 1425.17 296.169 1421.27 294.148L1406.24 286.247L1399.29 300.642Z" fill="#D0C5F3"/>
<path d="M1404.65 290.448L1419.5 297.759C1423.47 299.689 1428.24 298.032 1430.17 294.058C1432.1 290.085 1430.44 285.317 1426.47 283.387L1411.23 275.872L1404.65 290.448Z" fill="#D0C5F3"/>
<path d="M1391.23 303.208L1404.1 313.607C1407.56 316.355 1412.57 315.787 1415.32 312.336C1418.07 308.885 1417.5 303.867 1414.05 301.119L1400.86 290.448L1391.23 303.208Z" fill="#D0C5F3"/>
<path d="M1397.32 304.57C1406.54 304.57 1414.03 297.089 1414.03 287.859C1414.03 278.63 1406.54 271.148 1397.32 271.148C1388.09 271.148 1380.6 278.63 1380.6 287.859C1380.6 297.089 1388.09 304.57 1397.32 304.57Z" fill="url(#paint17_radial)"/>
<path d="M139.647 759.339C137.965 759.339 136.64 759.098 135.673 758.614V754.72C136.944 755.078 138.269 755.257 139.647 755.257C141.42 755.257 142.763 754.72 143.676 753.646C144.607 752.572 145.072 751.023 145.072 749V709.737H149.638V748.624C149.638 752.026 148.778 754.658 147.06 756.52C145.341 758.399 142.87 759.339 139.647 759.339ZM163.603 719.566V738.661C163.603 741.06 164.149 742.85 165.241 744.032C166.333 745.213 168.043 745.804 170.37 745.804C173.45 745.804 175.696 744.963 177.111 743.28C178.543 741.597 179.259 738.849 179.259 735.035V719.566H183.717V749H180.038L179.394 745.052H179.152C178.239 746.502 176.968 747.612 175.338 748.382C173.727 749.152 171.883 749.537 169.806 749.537C166.225 749.537 163.54 748.687 161.75 746.986C159.977 745.285 159.091 742.564 159.091 738.822V719.566H163.603ZM197.655 749H193.197V707.213H197.655V749ZM202.436 719.566H207.216L213.661 736.351C215.076 740.182 215.953 742.949 216.293 744.649H216.508C216.741 743.736 217.224 742.179 217.958 739.977C218.71 737.757 221.145 730.953 225.263 719.566H230.043L217.394 753.082C216.141 756.394 214.673 758.74 212.99 760.118C211.325 761.515 209.275 762.213 206.84 762.213C205.479 762.213 204.136 762.061 202.812 761.756V758.185C203.796 758.399 204.897 758.507 206.115 758.507C209.176 758.507 211.361 756.788 212.667 753.351L214.306 749.161L202.436 719.566ZM271.4 718.976C271.4 721.482 270.693 723.532 269.279 725.125C267.882 726.719 265.895 727.784 263.317 728.321V728.536C266.468 728.93 268.804 729.933 270.326 731.544C271.848 733.155 272.609 735.268 272.609 737.882C272.609 741.624 271.311 744.506 268.715 746.529C266.119 748.535 262.431 749.537 257.65 749.537C255.574 749.537 253.667 749.376 251.93 749.054C250.211 748.749 248.537 748.203 246.908 747.416V743.172C248.609 744.014 250.417 744.658 252.333 745.106C254.267 745.536 256.093 745.75 257.812 745.75C264.597 745.75 267.99 743.092 267.99 737.774C267.99 733.012 264.248 730.631 256.764 730.631H252.897V726.791H256.818C259.879 726.791 262.305 726.119 264.096 724.776C265.886 723.416 266.781 721.536 266.781 719.137C266.781 717.221 266.119 715.717 264.794 714.625C263.487 713.533 261.706 712.987 259.45 712.987C257.731 712.987 256.111 713.22 254.589 713.685C253.067 714.151 251.33 715.01 249.379 716.263L247.123 713.255C248.734 711.984 250.587 710.991 252.682 710.274C254.795 709.54 257.015 709.173 259.342 709.173C263.156 709.173 266.119 710.051 268.231 711.805C270.344 713.542 271.4 715.932 271.4 718.976ZM304.567 729.315C304.567 736.1 303.493 741.167 301.344 744.515C299.214 747.863 295.946 749.537 291.542 749.537C287.317 749.537 284.103 747.827 281.901 744.408C279.699 740.97 278.598 735.939 278.598 729.315C278.598 722.476 279.663 717.4 281.793 714.088C283.924 710.776 287.174 709.12 291.542 709.12C295.803 709.12 299.035 710.847 301.237 714.303C303.457 717.758 304.567 722.762 304.567 729.315ZM283.109 729.315C283.109 735.026 283.781 739.189 285.124 741.803C286.466 744.399 288.606 745.697 291.542 745.697C294.514 745.697 296.662 744.381 297.987 741.749C299.33 739.099 300.001 734.955 300.001 729.315C300.001 723.675 299.33 719.549 297.987 716.935C296.662 714.303 294.514 712.987 291.542 712.987C288.606 712.987 286.466 714.285 285.124 716.881C283.781 719.459 283.109 723.604 283.109 729.315ZM316.732 742.608L317.135 743.226C316.67 745.016 315.998 747.093 315.121 749.457C314.244 751.838 313.331 754.049 312.382 756.09H309.025C309.508 754.228 310.036 751.927 310.609 749.188C311.2 746.449 311.612 744.256 311.845 742.608H316.732ZM363.595 749H337.787V745.16L348.126 734.767C351.278 731.58 353.354 729.306 354.357 727.945C355.36 726.585 356.111 725.26 356.613 723.971C357.114 722.682 357.365 721.294 357.365 719.808C357.365 717.713 356.729 716.057 355.458 714.84C354.187 713.604 352.423 712.987 350.167 712.987C348.538 712.987 346.99 713.255 345.521 713.792C344.071 714.33 342.451 715.305 340.661 716.72L338.297 713.685C341.914 710.677 345.853 709.173 350.114 709.173C353.802 709.173 356.693 710.122 358.788 712.02C360.883 713.9 361.93 716.433 361.93 719.62C361.93 722.109 361.232 724.57 359.835 727.005C358.439 729.44 355.825 732.52 351.994 736.244L343.4 744.649V744.864H363.595V749ZM395.285 729.315C395.285 736.1 394.21 741.167 392.062 744.515C389.931 747.863 386.664 749.537 382.26 749.537C378.035 749.537 374.821 747.827 372.619 744.408C370.417 740.97 369.315 735.939 369.315 729.315C369.315 722.476 370.381 717.4 372.511 714.088C374.642 710.776 377.891 709.12 382.26 709.12C386.521 709.12 389.752 710.847 391.955 714.303C394.175 717.758 395.285 722.762 395.285 729.315ZM373.827 729.315C373.827 735.026 374.499 739.189 375.841 741.803C377.184 744.399 379.324 745.697 382.26 745.697C385.232 745.697 387.38 744.381 388.705 741.749C390.048 739.099 390.719 734.955 390.719 729.315C390.719 723.675 390.048 719.549 388.705 716.935C387.38 714.303 385.232 712.987 382.26 712.987C379.324 712.987 377.184 714.285 375.841 716.881C374.499 719.459 373.827 723.604 373.827 729.315ZM426.544 749H400.736V745.16L411.076 734.767C414.227 731.58 416.304 729.306 417.306 727.945C418.309 726.585 419.061 725.26 419.562 723.971C420.063 722.682 420.314 721.294 420.314 719.808C420.314 717.713 419.678 716.057 418.407 714.84C417.136 713.604 415.373 712.987 413.117 712.987C411.487 712.987 409.939 713.255 408.471 713.792C407.021 714.33 405.4 715.305 403.61 716.72L401.247 713.685C404.863 710.677 408.802 709.173 413.063 709.173C416.751 709.173 419.643 710.122 421.737 712.02C423.832 713.9 424.879 716.433 424.879 719.62C424.879 722.109 424.181 724.57 422.785 727.005C421.388 729.44 418.774 732.52 414.943 736.244L406.349 744.649V744.864H426.544V749ZM458.234 729.315C458.234 736.1 457.16 741.167 455.011 744.515C452.881 747.863 449.613 749.537 445.209 749.537C440.984 749.537 437.77 747.827 435.568 744.408C433.366 740.97 432.265 735.939 432.265 729.315C432.265 722.476 433.33 717.4 435.46 714.088C437.591 710.776 440.84 709.12 445.209 709.12C449.47 709.12 452.702 710.847 454.904 714.303C457.124 717.758 458.234 722.762 458.234 729.315ZM436.776 729.315C436.776 735.026 437.448 739.189 438.791 741.803C440.133 744.399 442.273 745.697 445.209 745.697C448.181 745.697 450.329 744.381 451.654 741.749C452.997 739.099 453.668 734.955 453.668 729.315C453.668 723.675 452.997 719.549 451.654 716.935C450.329 714.303 448.181 712.987 445.209 712.987C442.273 712.987 440.133 714.285 438.791 716.881C437.448 719.459 436.776 723.604 436.776 729.315Z" fill="white"/>
<path d="M156.999 792.031H149.506V818H145.048V792.031H139.785V790.017L145.048 788.405V786.767C145.048 779.534 148.208 775.917 154.528 775.917C156.086 775.917 157.912 776.231 160.007 776.857L158.852 780.429C157.133 779.874 155.665 779.597 154.448 779.597C152.765 779.597 151.521 780.161 150.715 781.289C149.909 782.399 149.506 784.189 149.506 786.66V788.566H156.999V792.031ZM187.775 803.256C187.775 808.055 186.567 811.805 184.15 814.509C181.733 817.194 178.394 818.537 174.133 818.537C171.501 818.537 169.165 817.919 167.124 816.684C165.083 815.449 163.507 813.676 162.397 811.367C161.287 809.057 160.732 806.354 160.732 803.256C160.732 798.458 161.931 794.725 164.331 792.058C166.73 789.372 170.06 788.029 174.321 788.029C178.439 788.029 181.706 789.399 184.123 792.138C186.558 794.877 187.775 798.583 187.775 803.256ZM165.351 803.256C165.351 807.016 166.103 809.881 167.607 811.85C169.111 813.819 171.322 814.804 174.24 814.804C177.159 814.804 179.37 813.828 180.874 811.877C182.395 809.908 183.156 807.034 183.156 803.256C183.156 799.514 182.395 796.677 180.874 794.743C179.37 792.792 177.141 791.816 174.187 791.816C171.268 791.816 169.066 792.774 167.58 794.689C166.094 796.605 165.351 799.461 165.351 803.256ZM207.38 818.537C203.119 818.537 199.816 817.23 197.47 814.616C195.143 811.984 193.979 808.269 193.979 803.471C193.979 798.548 195.161 794.743 197.524 792.058C199.905 789.372 203.289 788.029 207.675 788.029C209.09 788.029 210.504 788.181 211.918 788.486C213.333 788.79 214.443 789.148 215.249 789.56L213.879 793.347C212.894 792.953 211.82 792.631 210.656 792.38C209.493 792.111 208.463 791.977 207.568 791.977C201.588 791.977 198.598 795.791 198.598 803.417C198.598 807.034 199.323 809.809 200.773 811.743C202.242 813.676 204.408 814.643 207.272 814.643C209.725 814.643 212.241 814.115 214.819 813.059V817.006C212.849 818.027 210.37 818.537 207.38 818.537ZM226.018 788.566V807.661C226.018 810.06 226.564 811.85 227.656 813.032C228.748 814.213 230.458 814.804 232.785 814.804C235.865 814.804 238.111 813.963 239.526 812.28C240.958 810.597 241.674 807.849 241.674 804.035V788.566H246.132V818H242.453L241.809 814.052H241.567C240.654 815.502 239.383 816.612 237.753 817.382C236.142 818.152 234.298 818.537 232.221 818.537C228.64 818.537 225.955 817.687 224.165 815.986C222.392 814.285 221.506 811.564 221.506 807.822V788.566H226.018ZM274.599 809.97C274.599 812.709 273.579 814.822 271.538 816.308C269.497 817.794 266.632 818.537 262.944 818.537C259.041 818.537 255.997 817.919 253.813 816.684V812.548C255.227 813.264 256.74 813.828 258.352 814.24C259.981 814.652 261.547 814.858 263.051 814.858C265.379 814.858 267.169 814.491 268.422 813.757C269.676 813.005 270.302 811.868 270.302 810.346C270.302 809.2 269.801 808.225 268.798 807.419C267.814 806.595 265.88 805.629 262.998 804.519C260.258 803.498 258.307 802.612 257.143 801.86C255.997 801.09 255.138 800.222 254.565 799.255C254.01 798.288 253.732 797.133 253.732 795.791C253.732 793.391 254.708 791.503 256.66 790.124C258.611 788.728 261.288 788.029 264.689 788.029C267.858 788.029 270.956 788.674 273.981 789.963L272.397 793.588C269.443 792.371 266.766 791.762 264.367 791.762C262.255 791.762 260.661 792.093 259.587 792.756C258.513 793.418 257.976 794.331 257.976 795.495C257.976 796.283 258.173 796.954 258.566 797.509C258.978 798.064 259.632 798.592 260.527 799.094C261.422 799.595 263.141 800.32 265.683 801.269C269.174 802.54 271.529 803.82 272.746 805.109C273.981 806.398 274.599 808.019 274.599 809.97ZM281.232 815.153C281.232 813.954 281.501 813.05 282.038 812.441C282.593 811.814 283.381 811.501 284.401 811.501C285.44 811.501 286.245 811.814 286.818 812.441C287.409 813.05 287.705 813.954 287.705 815.153C287.705 816.317 287.409 817.212 286.818 817.839C286.228 818.465 285.422 818.779 284.401 818.779C283.488 818.779 282.727 818.501 282.119 817.946C281.528 817.373 281.232 816.442 281.232 815.153ZM316.574 814.052H316.333C314.274 817.042 311.194 818.537 307.094 818.537C303.245 818.537 300.246 817.221 298.098 814.589C295.967 811.958 294.902 808.216 294.902 803.364C294.902 798.512 295.976 794.743 298.125 792.058C300.273 789.372 303.263 788.029 307.094 788.029C311.087 788.029 314.148 789.479 316.279 792.38H316.628L316.44 790.258L316.333 788.19V776.213H320.791V818H317.165L316.574 814.052ZM307.658 814.804C310.702 814.804 312.904 813.981 314.265 812.333C315.643 810.668 316.333 807.992 316.333 804.304V803.364C316.333 799.192 315.634 796.22 314.238 794.448C312.859 792.657 310.648 791.762 307.604 791.762C304.991 791.762 302.985 792.783 301.589 794.824C300.21 796.847 299.521 799.711 299.521 803.417C299.521 807.177 300.21 810.015 301.589 811.931C302.967 813.846 304.991 814.804 307.658 814.804ZM355.676 803.256C355.676 808.055 354.467 811.805 352.05 814.509C349.633 817.194 346.294 818.537 342.033 818.537C339.401 818.537 337.065 817.919 335.024 816.684C332.983 815.449 331.407 813.676 330.297 811.367C329.187 809.057 328.632 806.354 328.632 803.256C328.632 798.458 329.832 794.725 332.231 792.058C334.63 789.372 337.96 788.029 342.221 788.029C346.339 788.029 349.606 789.399 352.023 792.138C354.458 794.877 355.676 798.583 355.676 803.256ZM333.251 803.256C333.251 807.016 334.003 809.881 335.507 811.85C337.011 813.819 339.222 814.804 342.141 814.804C345.059 814.804 347.27 813.828 348.774 811.877C350.296 809.908 351.057 807.034 351.057 803.256C351.057 799.514 350.296 796.677 348.774 794.743C347.27 792.792 345.041 791.816 342.087 791.816C339.169 791.816 336.966 792.774 335.48 794.689C333.994 796.605 333.251 799.461 333.251 803.256ZM373.024 814.858C373.812 814.858 374.573 814.804 375.307 814.697C376.041 814.571 376.623 814.446 377.053 814.321V817.731C376.569 817.964 375.853 818.152 374.904 818.295C373.973 818.457 373.132 818.537 372.38 818.537C366.687 818.537 363.84 815.538 363.84 809.541V792.031H359.624V789.882L363.84 788.029L365.72 781.745H368.298V788.566H376.838V792.031H368.298V809.353C368.298 811.125 368.719 812.486 369.56 813.435C370.402 814.383 371.556 814.858 373.024 814.858ZM403.103 818V798.959C403.103 796.56 402.556 794.77 401.464 793.588C400.372 792.407 398.662 791.816 396.335 791.816C393.256 791.816 391 792.648 389.567 794.313C388.135 795.979 387.419 798.727 387.419 802.558V818H382.961V788.566H386.586L387.312 792.595H387.526C388.439 791.145 389.72 790.026 391.367 789.238C393.014 788.432 394.849 788.029 396.872 788.029C400.417 788.029 403.085 788.889 404.875 790.607C406.665 792.308 407.561 795.039 407.561 798.798V818H403.103ZM429.179 818.537C424.829 818.537 421.391 817.212 418.867 814.562C416.36 811.913 415.107 808.234 415.107 803.525C415.107 798.78 416.271 795.012 418.598 792.219C420.944 789.426 424.086 788.029 428.024 788.029C431.713 788.029 434.631 789.247 436.779 791.682C438.928 794.099 440.002 797.294 440.002 801.269V804.089H419.726C419.816 807.544 420.684 810.167 422.331 811.958C423.996 813.748 426.333 814.643 429.34 814.643C432.509 814.643 435.642 813.981 438.74 812.656V816.63C437.164 817.311 435.669 817.794 434.255 818.081C432.858 818.385 431.167 818.537 429.179 818.537ZM427.971 791.762C425.607 791.762 423.719 792.532 422.304 794.072C420.908 795.611 420.084 797.742 419.833 800.463H435.222C435.222 797.653 434.595 795.504 433.342 794.018C432.089 792.514 430.298 791.762 427.971 791.762ZM457.136 814.858C457.924 814.858 458.684 814.804 459.418 814.697C460.153 814.571 460.734 814.446 461.164 814.321V817.731C460.681 817.964 459.965 818.152 459.016 818.295C458.085 818.457 457.243 818.537 456.491 818.537C450.798 818.537 447.951 815.538 447.951 809.541V792.031H443.735V789.882L447.951 788.029L449.831 781.745H452.409V788.566H460.949V792.031H452.409V809.353C452.409 811.125 452.83 812.486 453.671 813.435C454.513 814.383 455.668 814.858 457.136 814.858ZM478.835 818.537C474.574 818.537 471.271 817.23 468.925 814.616C466.598 811.984 465.434 808.269 465.434 803.471C465.434 798.548 466.616 794.743 468.979 792.058C471.36 789.372 474.744 788.029 479.13 788.029C480.545 788.029 481.959 788.181 483.374 788.486C484.788 788.79 485.898 789.148 486.704 789.56L485.334 793.347C484.349 792.953 483.275 792.631 482.111 792.38C480.948 792.111 479.918 791.977 479.023 791.977C473.043 791.977 470.053 795.791 470.053 803.417C470.053 807.034 470.778 809.809 472.229 811.743C473.697 813.676 475.863 814.643 478.728 814.643C481.18 814.643 483.696 814.115 486.274 813.059V817.006C484.305 818.027 481.825 818.537 478.835 818.537ZM518.688 803.256C518.688 808.055 517.48 811.805 515.063 814.509C512.646 817.194 509.307 818.537 505.046 818.537C502.414 818.537 500.078 817.919 498.037 816.684C495.996 815.449 494.42 813.676 493.31 811.367C492.2 809.057 491.645 806.354 491.645 803.256C491.645 798.458 492.845 794.725 495.244 792.058C497.643 789.372 500.973 788.029 505.234 788.029C509.352 788.029 512.619 789.399 515.036 792.138C517.471 794.877 518.688 798.583 518.688 803.256ZM496.264 803.256C496.264 807.016 497.016 809.881 498.52 811.85C500.024 813.819 502.235 814.804 505.153 814.804C508.072 814.804 510.283 813.828 511.787 811.877C513.308 809.908 514.069 807.034 514.069 803.256C514.069 799.514 513.308 796.677 511.787 794.743C510.283 792.792 508.054 791.816 505.1 791.816C502.181 791.816 499.979 792.774 498.493 794.689C497.007 796.605 496.264 799.461 496.264 803.256ZM546.672 818V798.959C546.672 796.56 546.126 794.77 545.034 793.588C543.942 792.407 542.232 791.816 539.904 791.816C536.825 791.816 534.569 792.648 533.137 794.313C531.704 795.979 530.988 798.727 530.988 802.558V818H526.53V788.566H530.156L530.881 792.595H531.096C532.009 791.145 533.289 790.026 534.936 789.238C536.583 788.432 538.418 788.029 540.441 788.029C543.986 788.029 546.654 788.889 548.444 790.607C550.235 792.308 551.13 795.039 551.13 798.798V818H546.672ZM573.581 792.031H566.088V818H561.63V792.031H556.367V790.017L561.63 788.405V786.767C561.63 779.534 564.79 775.917 571.11 775.917C572.668 775.917 574.494 776.231 576.589 776.857L575.434 780.429C573.715 779.874 572.247 779.597 571.03 779.597C569.347 779.597 568.103 780.161 567.297 781.289C566.491 782.399 566.088 784.189 566.088 786.66V788.566H573.581V792.031ZM578.308 815.153C578.308 813.954 578.576 813.05 579.113 812.441C579.668 811.814 580.456 811.501 581.477 811.501C582.515 811.501 583.321 811.814 583.894 812.441C584.484 813.05 584.78 813.954 584.78 815.153C584.78 816.317 584.484 817.212 583.894 817.839C583.303 818.465 582.497 818.779 581.477 818.779C580.563 818.779 579.803 818.501 579.194 817.946C578.603 817.373 578.308 816.442 578.308 815.153ZM613.757 818V798.959C613.757 796.56 613.211 794.77 612.119 793.588C611.027 792.407 609.317 791.816 606.989 791.816C603.91 791.816 601.654 792.648 600.222 794.313C598.789 795.979 598.073 798.727 598.073 802.558V818H593.615V788.566H597.241L597.966 792.595H598.181C599.094 791.145 600.374 790.026 602.021 789.238C603.668 788.432 605.503 788.029 607.526 788.029C611.071 788.029 613.739 788.889 615.529 790.607C617.32 792.308 618.215 795.039 618.215 798.798V818H613.757ZM639.833 818.537C635.483 818.537 632.045 817.212 629.521 814.562C627.014 811.913 625.761 808.234 625.761 803.525C625.761 798.78 626.925 795.012 629.252 792.219C631.598 789.426 634.74 788.029 638.679 788.029C642.367 788.029 645.285 789.247 647.434 791.682C649.582 794.099 650.656 797.294 650.656 801.269V804.089H630.38C630.47 807.544 631.338 810.167 632.985 811.958C634.65 813.748 636.987 814.643 639.995 814.643C643.164 814.643 646.297 813.981 649.394 812.656V816.63C647.819 817.311 646.324 817.794 644.909 818.081C643.513 818.385 641.821 818.537 639.833 818.537ZM638.625 791.762C636.262 791.762 634.373 792.532 632.958 794.072C631.562 795.611 630.738 797.742 630.488 800.463H645.876C645.876 797.653 645.249 795.504 643.996 794.018C642.743 792.514 640.952 791.762 638.625 791.762ZM667.79 814.858C668.578 814.858 669.339 814.804 670.073 814.697C670.807 814.571 671.389 814.446 671.818 814.321V817.731C671.335 817.964 670.619 818.152 669.67 818.295C668.739 818.457 667.897 818.537 667.146 818.537C661.452 818.537 658.605 815.538 658.605 809.541V792.031H654.389V789.882L658.605 788.029L660.485 781.745H663.063V788.566H671.604V792.031H663.063V809.353C663.063 811.125 663.484 812.486 664.326 813.435C665.167 814.383 666.322 814.858 667.79 814.858Z" fill="white"/>
</g>
<defs>
<linearGradient id="paint0_linear" x1="2175.5" y1="-54" x2="957.525" y2="1658.8" gradientUnits="userSpaceOnUse">
<stop offset="0.0213813" stop-color="#C2DEFF"/>
<stop offset="0.748401" stop-color="#0F70E3"/>
</linearGradient>
<linearGradient id="paint1_linear" x1="1440.06" y1="201.573" x2="1426.27" y2="282.347" gradientUnits="userSpaceOnUse">
<stop offset="0.2584" stop-color="#958FE7"/>
<stop offset="0.4497" stop-color="#BBB7EF"/>
</linearGradient>
<radialGradient id="paint2_radial" cx="0" cy="0" r="1" gradientUnits="userSpaceOnUse" gradientTransform="translate(1452.48 271.7) rotate(-160.28) scale(23.631)">
<stop stop-color="#A08BE8"/>
<stop offset="1" stop-color="#8065E0"/>
</radialGradient>
<linearGradient id="paint3_linear" x1="1326.2" y1="267.779" x2="1326.2" y2="323.651" gradientUnits="userSpaceOnUse">
<stop offset="0.1788" stop-color="#958FE7"/>
<stop offset="0.4497" stop-color="#BBB7EF"/>
</linearGradient>
<linearGradient id="paint4_linear" x1="1371.25" y1="269.054" x2="1374.87" y2="310.425" gradientUnits="userSpaceOnUse">
<stop offset="0.1788" stop-color="#958FE7"/>
<stop offset="0.4497" stop-color="#BBB7EF"/>
</linearGradient>
<radialGradient id="paint5_radial" cx="0" cy="0" r="1" gradientUnits="userSpaceOnUse" gradientTransform="translate(1384.25 167.478) scale(88.7316)">
<stop offset="0.4744" stop-color="#A08BE8"/>
<stop offset="0.8618" stop-color="#8065E0"/>
</radialGradient>
<radialGradient id="paint6_radial" cx="0" cy="0" r="1" gradientUnits="userSpaceOnUse" gradientTransform="translate(1459.07 159.083) scale(80.9827)">
<stop stop-color="#E1DFDD"/>
<stop offset="0.1047" stop-color="#EDECEB"/>
<stop offset="0.7337" stop-color="white"/>
</radialGradient>
<radialGradient id="paint7_radial" cx="0" cy="0" r="1" gradientUnits="userSpaceOnUse" gradientTransform="translate(1352.95 218.188) scale(75.6291)">
<stop stop-color="#512BD4"/>
<stop offset="0.5045" stop-color="#6645D9"/>
<stop offset="0.7759" stop-color="#7659DD"/>
<stop offset="1" stop-color="#8065E0"/>
</radialGradient>
<radialGradient id="paint8_radial" cx="0" cy="0" r="1" gradientUnits="userSpaceOnUse" gradientTransform="translate(1306.97 233.153) scale(55.1625)">
<stop offset="0.4614" stop-color="#A08BE8"/>
<stop offset="0.5268" stop-color="#A793EA"/>
<stop offset="0.8352" stop-color="#C5B7F0"/>
<stop offset="1" stop-color="#D0C5F3"/>
</radialGradient>
<radialGradient id="paint9_radial" cx="0" cy="0" r="1" gradientUnits="userSpaceOnUse" gradientTransform="translate(1376.36 101.601) scale(13.0775)">
<stop stop-color="#8065E0"/>
<stop offset="0.8628" stop-color="#512BD4"/>
</radialGradient>
<radialGradient id="paint10_radial" cx="0" cy="0" r="1" gradientUnits="userSpaceOnUse" gradientTransform="translate(1368.48 313.635) rotate(-5.00064) scale(25.2924 25.1002)">
<stop stop-color="#8065E0"/>
<stop offset="0.8628" stop-color="#512BD4"/>
</radialGradient>
<radialGradient id="paint11_radial" cx="0" cy="0" r="1" gradientUnits="userSpaceOnUse" gradientTransform="translate(1388.89 59.6055) scale(22.9553)">
<stop stop-color="#A08BE8"/>
<stop offset="1" stop-color="#8065E0"/>
</radialGradient>
<radialGradient id="paint12_radial" cx="0" cy="0" r="1" gradientUnits="userSpaceOnUse" gradientTransform="translate(1418.15 145.261) rotate(-77.9485) scale(27.4759)">
<stop offset="0.3607" stop-color="#BDB9F0"/>
<stop offset="0.5611" stop-color="#C3BCEB" stop-opacity="0.3855"/>
<stop offset="0.6338" stop-color="#CEC3E2" stop-opacity="0.3217"/>
<stop offset="0.8689" stop-color="#EDD6C9" stop-opacity="0.1152"/>
<stop offset="1" stop-color="#F9DDBF" stop-opacity="0"/>
</radialGradient>
<radialGradient id="paint13_radial" cx="0" cy="0" r="1" gradientUnits="userSpaceOnUse" gradientTransform="translate(1313.18 146.902) rotate(173.834) scale(33.0284)">
<stop stop-color="#BDB9F0"/>
<stop offset="0.5266" stop-color="#C3BCEB" stop-opacity="0.3855"/>
<stop offset="0.605" stop-color="#CEC3E2" stop-opacity="0.3217"/>
<stop offset="0.8586" stop-color="#EDD6C9" stop-opacity="0.1152"/>
<stop offset="1" stop-color="#F9DDBF" stop-opacity="0"/>
</radialGradient>
<linearGradient id="paint14_linear" x1="1312.61" y1="195.386" x2="1391.56" y2="298.916" gradientUnits="userSpaceOnUse">
<stop offset="0.1788" stop-color="#958FE7"/>
<stop offset="0.4497" stop-color="#BBB7EF"/>
</linearGradient>
<radialGradient id="paint15_radial" cx="0" cy="0" r="1" gradientUnits="userSpaceOnUse" gradientTransform="translate(1320.01 181.473) scale(24.1946)">
<stop stop-color="#8065E0"/>
<stop offset="0.8628" stop-color="#512BD4"/>
</radialGradient>
<radialGradient id="paint16_radial" cx="0" cy="0" r="1" gradientUnits="userSpaceOnUse" gradientTransform="translate(1305.05 315.577) rotate(93.8441) scale(25.2933 25.0999)">
<stop stop-color="#8065E0"/>
<stop offset="0.8628" stop-color="#512BD4"/>
</radialGradient>
<radialGradient id="paint17_radial" cx="0" cy="0" r="1" gradientUnits="userSpaceOnUse" gradientTransform="translate(1391.24 290.973) rotate(-127.328) scale(23.6331)">
<stop stop-color="#A08BE8"/>
<stop offset="1" stop-color="#8065E0"/>
</radialGradient>
<clipPath id="clip0">
<rect width="1600" height="900" fill="white"/>
</clipPath>
</defs>
</svg>
