<svg width="550" height="182" viewBox="0 0 550 182" fill="none" xmlns="http://www.w3.org/2000/svg">
<g clip-path="url(#clip0)">
<rect width="550" height="182" fill="white"/>
<rect width="550" height="182" fill="url(#paint0_linear)"/>
<path d="M16 136.904C16 135.926 16.2545 135.176 16.7636 134.653C17.2726 134.13 18.0094 133.869 18.9739 133.869C19.9519 133.869 20.6953 134.144 21.2044 134.693C21.7134 135.229 21.968 135.966 21.968 136.904C21.968 137.856 21.7068 138.613 21.1843 139.176C20.6752 139.725 19.9385 140 18.9739 140C18.0094 140 17.2726 139.725 16.7636 139.176C16.2545 138.626 16 137.869 16 136.904Z" fill="white"/>
<path d="M53.0135 139.417H47.1259L32.6782 115.998H32.5174L32.6179 117.305C32.8054 119.798 32.8992 122.076 32.8992 124.14V139.417H28.5388V110.028H34.3661L48.7736 133.326H48.8942C48.8674 133.018 48.8138 131.899 48.7334 129.969C48.6531 128.026 48.6129 126.512 48.6129 125.426V110.028H53.0135V139.417Z" fill="white"/>
<path d="M77.3878 139.417H60.7699V110.028H77.3878V114.089H65.5724V122.089H76.6443V126.11H65.5724V135.336H77.3878V139.417Z" fill="white"/>
<path d="M93.9052 139.417H89.1027V114.149H80.4622V110.028H102.546V114.149H93.9052V139.417Z" fill="white"/>
<path d="M130.256 113.727C127.496 113.727 125.326 114.705 123.745 116.662C122.164 118.618 121.374 121.319 121.374 124.763C121.374 128.368 122.131 131.095 123.645 132.944C125.172 134.794 127.375 135.718 130.256 135.718C131.501 135.718 132.707 135.598 133.873 135.357C135.038 135.102 136.25 134.78 137.51 134.392V138.512C135.205 139.384 132.593 139.819 129.673 139.819C125.373 139.819 122.071 138.519 119.766 135.919C117.462 133.306 116.31 129.574 116.31 124.723C116.31 121.667 116.866 118.994 117.978 116.702C119.103 114.41 120.724 112.655 122.841 111.435C124.957 110.216 127.442 109.606 130.296 109.606C133.297 109.606 136.069 110.236 138.615 111.496L136.887 115.496C135.895 115.027 134.844 114.618 133.732 114.27C132.633 113.908 131.475 113.727 130.256 113.727Z" fill="white"/>
<path d="M163.049 128.261C163.049 131.892 162.118 134.727 160.256 136.764C158.394 138.801 155.802 139.819 152.48 139.819C150.403 139.819 148.568 139.35 146.974 138.412C145.38 137.474 144.154 136.127 143.297 134.372C142.439 132.616 142.011 130.579 142.011 128.261C142.011 124.656 142.935 121.841 144.784 119.818C146.632 117.794 149.238 116.782 152.6 116.782C155.815 116.782 158.361 117.821 160.236 119.898C162.112 121.962 163.049 124.749 163.049 128.261ZM146.873 128.261C146.873 133.393 148.769 135.96 152.56 135.96C156.311 135.96 158.187 133.393 158.187 128.261C158.187 123.181 156.298 120.642 152.52 120.642C150.537 120.642 149.097 121.299 148.2 122.612C147.316 123.925 146.873 125.808 146.873 128.261Z" fill="white"/>
<path d="M188.046 139.417H183.304V125.748C183.304 124.032 182.956 122.753 182.259 121.908C181.576 121.064 180.484 120.642 178.984 120.642C176.988 120.642 175.528 121.232 174.603 122.411C173.679 123.59 173.217 125.567 173.217 128.341V139.417H168.495V117.184H172.192L172.855 120.099H173.096C173.766 119.041 174.717 118.223 175.95 117.647C177.182 117.071 178.549 116.782 180.049 116.782C185.381 116.782 188.046 119.496 188.046 124.924V139.417Z" fill="white"/>
<path d="M205.77 120.763H200.344V139.417H195.602V120.763H191.945V118.551L195.602 117.104V115.657C195.602 113.03 196.218 111.087 197.451 109.827C198.683 108.554 200.565 107.917 203.097 107.917C204.758 107.917 206.392 108.192 208 108.742L206.754 112.32C205.589 111.945 204.477 111.757 203.419 111.757C202.347 111.757 201.563 112.092 201.068 112.762C200.585 113.419 200.344 114.41 200.344 115.737V117.184H205.77V120.763Z" fill="white"/>
<path d="M30.4893 159.816H29V146.377H36.1399V147.765H30.4893V152.683H35.7983V154.071H30.4893V159.816Z" fill="white"/>
<path d="M46.3374 154.77C46.3374 156.412 45.9431 157.696 45.1547 158.621C44.3662 159.54 43.277 160 41.8869 160C41.0284 160 40.2662 159.789 39.6004 159.366C38.9346 158.943 38.4206 158.336 38.0585 157.546C37.6964 156.755 37.5154 155.83 37.5154 154.77C37.5154 153.127 37.9067 151.849 38.6893 150.936C39.4719 150.017 40.5582 149.557 41.9483 149.557C43.2916 149.557 44.3574 150.026 45.1459 150.964C45.9402 151.902 46.3374 153.17 46.3374 154.77ZM39.0222 154.77C39.0222 156.056 39.2675 157.037 39.7581 157.711C40.2487 158.385 40.97 158.722 41.922 158.722C42.874 158.722 43.5953 158.388 44.0859 157.72C44.5823 157.046 44.8305 156.063 44.8305 154.77C44.8305 153.489 44.5823 152.517 44.0859 151.856C43.5953 151.188 42.8681 150.854 41.9045 150.854C40.9525 150.854 40.2341 151.181 39.7493 151.837C39.2646 152.493 39.0222 153.47 39.0222 154.77Z" fill="white"/>
<path d="M52.7326 160C51.3426 160 50.2651 159.553 49.5 158.658C48.7407 157.757 48.3611 156.485 48.3611 154.843C48.3611 153.158 48.7465 151.856 49.5175 150.936C50.2943 150.017 51.3981 149.557 52.829 149.557C53.2904 149.557 53.7518 149.61 54.2132 149.714C54.6746 149.818 55.0367 149.94 55.2995 150.081L54.8527 151.378C54.5315 151.243 54.1811 151.132 53.8014 151.047C53.4218 150.955 53.086 150.909 52.794 150.909C50.8433 150.909 49.8679 152.214 49.8679 154.825C49.8679 156.063 50.1044 157.012 50.5775 157.674C51.0564 158.336 51.7631 158.667 52.6976 158.667C53.4977 158.667 54.3183 158.486 55.1593 158.125V159.476C54.5169 159.825 53.708 160 52.7326 160Z" fill="white"/>
<path d="M58.8125 149.741V156.277C58.8125 157.098 58.9907 157.711 59.3469 158.116C59.7032 158.52 60.261 158.722 61.0202 158.722C62.0248 158.722 62.7578 158.434 63.2192 157.858C63.6864 157.282 63.92 156.341 63.92 155.036V149.741H65.3743V159.816H64.1741L63.9638 158.465H63.885C63.5871 158.961 63.1724 159.341 62.641 159.605C62.1153 159.868 61.5137 160 60.8363 160C59.6682 160 58.7921 159.709 58.2081 159.127C57.6299 158.545 57.3407 157.613 57.3407 156.332V149.741H58.8125Z" fill="white"/>
<path d="M74.6606 157.068C74.6606 158.005 74.3277 158.728 73.6619 159.237C72.9961 159.746 72.0616 160 70.8585 160C69.5852 160 68.5924 159.789 67.8798 159.366V157.95C68.3412 158.195 68.8347 158.388 69.3604 158.529C69.8919 158.67 70.4029 158.741 70.8935 158.741C71.6528 158.741 72.2368 158.615 72.6456 158.364C73.0545 158.106 73.2589 157.717 73.2589 157.196C73.2589 156.804 73.0953 156.47 72.7683 156.194C72.4471 155.912 71.8163 155.582 70.876 155.202C69.9824 154.852 69.3458 154.549 68.9662 154.292C68.5924 154.028 68.312 153.731 68.1251 153.4C67.9441 153.069 67.8535 152.674 67.8535 152.214C67.8535 151.393 68.1719 150.746 68.8085 150.274C69.4451 149.796 70.3182 149.557 71.4279 149.557C72.4617 149.557 73.4721 149.778 74.4591 150.219L73.9422 151.46C72.9785 151.044 72.1054 150.835 71.3228 150.835C70.6336 150.835 70.1138 150.949 69.7634 151.175C69.4129 151.402 69.2377 151.715 69.2377 152.113C69.2377 152.383 69.302 152.612 69.4305 152.802C69.5648 152.992 69.778 153.173 70.07 153.345C70.362 153.516 70.9227 153.764 71.752 154.089C72.8909 154.524 73.6589 154.963 74.0561 155.404C74.4591 155.845 74.6606 156.4 74.6606 157.068Z" fill="white"/>
<path d="M89.983 154.77C89.983 156.412 89.5888 157.696 88.8003 158.621C88.0118 159.54 86.9226 160 85.5326 160C84.674 160 83.9118 159.789 83.246 159.366C82.5802 158.943 82.0663 158.336 81.7042 157.546C81.3421 156.755 81.161 155.83 81.161 154.77C81.161 153.127 81.5523 151.849 82.3349 150.936C83.1175 150.017 84.2039 149.557 85.5939 149.557C86.9372 149.557 88.0031 150.026 88.7915 150.964C89.5858 151.902 89.983 153.17 89.983 154.77ZM82.6678 154.77C82.6678 156.056 82.9131 157.037 83.4037 157.711C83.8943 158.385 84.6156 158.722 85.5676 158.722C86.5196 158.722 87.2409 158.388 87.7315 157.72C88.2279 157.046 88.4762 156.063 88.4762 154.77C88.4762 153.489 88.2279 152.517 87.7315 151.856C87.2409 151.188 86.5138 150.854 85.5501 150.854C84.5981 150.854 83.8797 151.181 83.395 151.837C82.9102 152.493 82.6678 153.47 82.6678 154.77Z" fill="white"/>
<path d="M99.1116 159.816V153.299C99.1116 152.478 98.9335 151.865 98.5772 151.46C98.2209 151.056 97.6632 150.854 96.9039 150.854C95.8994 150.854 95.1635 151.139 94.6962 151.708C94.229 152.278 93.9954 153.219 93.9954 154.531V159.816H92.5411V149.741H93.7238L93.9603 151.12H94.0304C94.3283 150.624 94.7459 150.241 95.2832 149.971C95.8205 149.695 96.4192 149.557 97.0791 149.557C98.2355 149.557 99.1058 149.852 99.6898 150.44C100.274 151.022 100.566 151.957 100.566 153.244V159.816H99.1116Z" fill="white"/>
<path d="M114.11 159.816L109.765 147.903H109.694C109.776 148.847 109.817 149.968 109.817 151.267V159.816H108.442V146.377H110.684L114.741 157.463H114.811L118.902 146.377H121.127V159.816H119.638V151.157C119.638 150.164 119.679 149.086 119.76 147.921H119.69L115.31 159.816H114.11Z" fill="white"/>
<path d="M125.884 159.816H124.43V149.741H125.884V159.816ZM124.307 147.011C124.307 146.662 124.389 146.408 124.553 146.248C124.716 146.083 124.921 146 125.166 146C125.399 146 125.601 146.083 125.77 146.248C125.94 146.414 126.024 146.668 126.024 147.011C126.024 147.354 125.94 147.612 125.77 147.783C125.601 147.949 125.399 148.032 125.166 148.032C124.921 148.032 124.716 147.949 124.553 147.783C124.389 147.612 124.307 147.354 124.307 147.011Z" fill="white"/>
<path d="M132.805 160C131.415 160 130.338 159.553 129.572 158.658C128.813 157.757 128.434 156.485 128.434 154.843C128.434 153.158 128.819 151.856 129.59 150.936C130.367 150.017 131.471 149.557 132.901 149.557C133.363 149.557 133.824 149.61 134.286 149.714C134.747 149.818 135.109 149.94 135.372 150.081L134.925 151.378C134.604 151.243 134.254 151.132 133.874 151.047C133.494 150.955 133.158 150.909 132.866 150.909C130.916 150.909 129.94 152.214 129.94 154.825C129.94 156.063 130.177 157.012 130.65 157.674C131.129 158.336 131.836 158.667 132.77 158.667C133.57 158.667 134.391 158.486 135.232 158.125V159.476C134.589 159.825 133.78 160 132.805 160Z" fill="white"/>
<path d="M141.899 149.557C142.325 149.557 142.708 149.594 143.046 149.668L142.845 151.083C142.448 150.991 142.097 150.946 141.794 150.946C141.017 150.946 140.351 151.276 139.796 151.938C139.247 152.6 138.973 153.424 138.973 154.411V159.816H137.518V149.741H138.719L138.885 151.607H138.955C139.311 150.952 139.741 150.446 140.243 150.091C140.745 149.735 141.297 149.557 141.899 149.557Z" fill="white"/>
<path d="M153.13 154.77C153.13 156.412 152.736 157.696 151.947 158.621C151.159 159.54 150.069 160 148.679 160C147.821 160 147.059 159.789 146.393 159.366C145.727 158.943 145.213 158.336 144.851 157.546C144.489 156.755 144.308 155.83 144.308 154.77C144.308 153.127 144.699 151.849 145.482 150.936C146.264 150.017 147.351 149.557 148.741 149.557C150.084 149.557 151.15 150.026 151.938 150.964C152.733 151.902 153.13 153.17 153.13 154.77ZM145.815 154.77C145.815 156.056 146.06 157.037 146.551 157.711C147.041 158.385 147.762 158.722 148.714 158.722C149.666 158.722 150.388 158.388 150.878 157.72C151.375 157.046 151.623 156.063 151.623 154.77C151.623 153.489 151.375 152.517 150.878 151.856C150.388 151.188 149.661 150.854 148.697 150.854C147.745 150.854 147.027 151.181 146.542 151.837C146.057 152.493 145.815 153.47 145.815 154.77Z" fill="white"/>
<path d="M161.882 157.068C161.882 158.005 161.549 158.728 160.883 159.237C160.217 159.746 159.283 160 158.08 160C156.806 160 155.814 159.789 155.101 159.366V157.95C155.562 158.195 156.056 158.388 156.582 158.529C157.113 158.67 157.624 158.741 158.115 158.741C158.874 158.741 159.458 158.615 159.867 158.364C160.276 158.106 160.48 157.717 160.48 157.196C160.48 156.804 160.317 156.47 159.989 156.194C159.668 155.912 159.037 155.582 158.097 155.202C157.204 154.852 156.567 154.549 156.187 154.292C155.814 154.028 155.533 153.731 155.346 153.4C155.165 153.069 155.075 152.674 155.075 152.214C155.075 151.393 155.393 150.746 156.03 150.274C156.666 149.796 157.539 149.557 158.649 149.557C159.683 149.557 160.693 149.778 161.68 150.219L161.163 151.46C160.2 151.044 159.327 150.835 158.544 150.835C157.855 150.835 157.335 150.949 156.985 151.175C156.634 151.402 156.459 151.715 156.459 152.113C156.459 152.383 156.523 152.612 156.652 152.802C156.786 152.992 156.999 153.173 157.291 153.345C157.583 153.516 158.144 153.764 158.973 154.089C160.112 154.524 160.88 154.963 161.277 155.404C161.68 155.845 161.882 156.4 161.882 157.068Z" fill="white"/>
<path d="M168.312 160C166.893 160 165.771 159.547 164.948 158.64C164.13 157.733 163.721 156.473 163.721 154.861C163.721 153.237 164.101 151.947 164.86 150.991C165.625 150.035 166.65 149.557 167.935 149.557C169.139 149.557 170.091 149.974 170.791 150.808C171.492 151.635 171.843 152.729 171.843 154.089V155.054H165.228C165.258 156.237 165.541 157.135 166.078 157.748C166.621 158.361 167.383 158.667 168.365 158.667C169.398 158.667 170.42 158.44 171.431 157.987V159.347C170.917 159.58 170.429 159.746 169.968 159.844C169.512 159.948 168.96 160 168.312 160ZM167.918 150.835C167.147 150.835 166.531 151.099 166.069 151.626C165.614 152.153 165.345 152.882 165.263 153.814H170.283C170.283 152.851 170.079 152.116 169.67 151.607C169.261 151.093 168.677 150.835 167.918 150.835Z" fill="white"/>
<path d="M178.711 149.557C179.137 149.557 179.52 149.594 179.859 149.668L179.657 151.083C179.26 150.991 178.91 150.946 178.606 150.946C177.829 150.946 177.163 151.276 176.608 151.938C176.059 152.6 175.785 153.424 175.785 154.411V159.816H174.331V149.741H175.531L175.697 151.607H175.767C176.124 150.952 176.553 150.446 177.055 150.091C177.558 149.735 178.109 149.557 178.711 149.557Z" fill="white"/>
<path d="M183.757 159.816L180.113 149.741H181.672L183.74 155.716C184.207 157.114 184.481 158.021 184.563 158.437H184.633C184.697 158.112 184.899 157.441 185.238 156.424C185.582 155.401 186.35 153.173 187.542 149.741H189.101L185.457 159.816H183.757Z" fill="white"/>
<path d="M192.097 159.816H190.643V149.741H192.097V159.816ZM190.52 147.011C190.52 146.662 190.602 146.408 190.766 146.248C190.929 146.083 191.134 146 191.379 146C191.613 146 191.814 146.083 191.983 146.248C192.153 146.414 192.237 146.668 192.237 147.011C192.237 147.354 192.153 147.612 191.983 147.783C191.814 147.949 191.613 148.032 191.379 148.032C191.134 148.032 190.929 147.949 190.766 147.783C190.602 147.612 190.52 147.354 190.52 147.011Z" fill="white"/>
<path d="M199.018 160C197.628 160 196.551 159.553 195.786 158.658C195.026 157.757 194.647 156.485 194.647 154.843C194.647 153.158 195.032 151.856 195.803 150.936C196.58 150.017 197.684 149.557 199.115 149.557C199.576 149.557 200.037 149.61 200.499 149.714C200.96 149.818 201.322 149.94 201.585 150.081L201.138 151.378C200.817 151.243 200.467 151.132 200.087 151.047C199.707 150.955 199.372 150.909 199.08 150.909C197.129 150.909 196.153 152.214 196.153 154.825C196.153 156.063 196.39 157.012 196.863 157.674C197.342 158.336 198.049 158.667 198.983 158.667C199.783 158.667 200.604 158.486 201.445 158.125V159.476C200.802 159.825 199.994 160 199.018 160Z" fill="white"/>
<path d="M207.788 160C206.368 160 205.247 159.547 204.424 158.64C203.606 157.733 203.197 156.473 203.197 154.861C203.197 153.237 203.577 151.947 204.336 150.991C205.101 150.035 206.126 149.557 207.411 149.557C208.614 149.557 209.566 149.974 210.267 150.808C210.968 151.635 211.318 152.729 211.318 154.089V155.054H204.704C204.733 156.237 205.016 157.135 205.554 157.748C206.097 158.361 206.859 158.667 207.84 158.667C208.874 158.667 209.896 158.44 210.906 157.987V159.347C210.392 159.58 209.905 159.746 209.443 159.844C208.988 159.948 208.436 160 207.788 160ZM207.393 150.835C206.622 150.835 206.006 151.099 205.545 151.626C205.089 152.153 204.821 152.882 204.739 153.814H209.759C209.759 152.851 209.554 152.116 209.146 151.607C208.737 151.093 208.153 150.835 207.393 150.835Z" fill="white"/>
<path d="M220 157.068C220 158.005 219.667 158.728 219.001 159.237C218.335 159.746 217.401 160 216.198 160C214.925 160 213.932 159.789 213.219 159.366V157.95C213.681 158.195 214.174 158.388 214.7 158.529C215.231 158.67 215.742 158.741 216.233 158.741C216.992 158.741 217.576 158.615 217.985 158.364C218.394 158.106 218.598 157.717 218.598 157.196C218.598 156.804 218.435 156.47 218.108 156.194C217.786 155.912 217.156 155.582 216.215 155.202C215.322 154.852 214.685 154.549 214.306 154.292C213.932 154.028 213.651 153.731 213.465 153.4C213.283 153.069 213.193 152.674 213.193 152.214C213.193 151.393 213.511 150.746 214.148 150.274C214.784 149.796 215.658 149.557 216.767 149.557C217.801 149.557 218.811 149.778 219.799 150.219L219.282 151.46C218.318 151.044 217.445 150.835 216.662 150.835C215.973 150.835 215.453 150.949 215.103 151.175C214.752 151.402 214.577 151.715 214.577 152.113C214.577 152.383 214.641 152.612 214.77 152.802C214.904 152.992 215.117 153.173 215.409 153.345C215.701 153.516 216.262 153.764 217.091 154.089C218.23 154.524 218.998 154.963 219.396 155.404C219.799 155.845 220 156.4 220 157.068Z" fill="white"/>
<path d="M496.312 54.4014L499.605 57.5942C496.649 60.6451 495.443 63.7433 496.2 66.3153C497.098 69.3721 500.729 71.7903 506.429 73.1266L505.382 77.5965C495.928 75.3793 492.776 70.9389 491.795 67.6101C490.559 63.3826 492.161 58.688 496.312 54.4014Z" fill="url(#paint1_linear)"/>
<path d="M491.817 61.8814L491.672 62.3933L496.029 63.6293L496.174 63.1174L491.817 61.8814Z" fill="#A08BE8"/>
<path d="M493.438 70.8974C495.366 69.0881 496.779 67.6987 496.779 67.6987L496.542 67.2434L491.818 67.6514C492.114 68.6684 492.622 69.7799 493.438 70.8974Z" fill="#A08BE8"/>
<path d="M499.835 70.6167L497.506 74.5012L497.963 74.7748L500.292 70.8903L499.835 70.6167Z" fill="#A08BE8"/>
<path d="M428.453 78.1347V89.3983L438.203 83.0126L438.138 71.7668L428.453 78.1347Z" fill="#B3AFAB"/>
<path d="M428.453 78.1467V89.3511L419.129 83.202L419.064 71.8853L428.453 78.1467Z" fill="#B2B2B2"/>
<path d="M428.329 78.1643L437.842 71.8438L428.589 65.7419L419.01 71.9561L428.329 78.1643Z" fill="#E1DFDD"/>
<path d="M507.392 70.1585L509.799 66.5814C510.431 65.6235 510.171 64.3346 509.213 63.696C508.255 63.0634 506.966 63.3235 506.328 64.2814L503.862 67.9472L507.392 70.1585Z" fill="#D0C5F3"/>
<path d="M507.54 74.457L511.832 74.0608C512.973 73.9485 513.813 72.9315 513.695 71.7845C513.582 70.6433 512.566 69.8037 511.418 69.922L507.02 70.3241L507.54 74.457Z" fill="#D0C5F3"/>
<path d="M507.268 71.4712L511.549 70.9686C512.69 70.8267 513.5 69.7861 513.358 68.645C513.216 67.5038 512.175 66.6938 511.034 66.8357L506.647 67.3501L507.268 71.4712Z" fill="#D0C5F3"/>
<path d="M506.139 76.1658L510.425 76.6152C511.566 76.7275 512.583 75.8938 512.696 74.7468C512.808 73.6056 511.974 72.5887 510.827 72.4763L506.428 72.0151L506.139 76.1658Z" fill="#D0C5F3"/>
<path d="M505.299 76.2959C507.703 76.2959 509.651 74.3476 509.651 71.9442C509.651 69.5408 507.703 67.5925 505.299 67.5925C502.896 67.5925 500.948 69.5408 500.948 71.9442C500.948 74.3476 502.896 76.2959 505.299 76.2959Z" fill="url(#paint2_radial)"/>
<path d="M444.547 134.399L409.468 111.157L399.753 117.312L399.381 116.726L409.473 110.329L444.931 133.82L444.547 134.399Z" fill="#106EBE"/>
<path d="M423.67 90.1609L423.285 90.7403L446.563 106.084L446.948 105.504L423.67 90.1609Z" fill="#106EBE"/>
<path d="M404.01 155.442L403.632 154.857L421.074 143.469L436.535 153.58L466.228 133.654L466.619 134.233L436.547 154.413L421.08 144.297L404.01 155.442Z" fill="#106EBE"/>
<path d="M502.313 107.568L476.777 124.312L477.161 124.892L502.698 108.147L502.313 107.568Z" fill="#106EBE"/>
<path d="M502.207 146.868L476.28 129.958L476.658 129.373L502.213 146.041L502.207 146.868Z" fill="#106EBE"/>
<path d="M456.692 112.653V123.916L466.442 117.53L466.377 106.285L456.692 112.653Z" fill="#B3AFAB"/>
<path d="M457.117 112.665V123.869L447.793 117.714L447.728 106.397L457.117 112.665Z" fill="#B2B2B2"/>
<path d="M456.91 112.682L466.424 106.361L457.17 100.26L447.592 106.474L456.91 112.682Z" fill="#E1DFDD"/>
<path d="M447.367 129.74V141.004L457.117 134.618L457.052 123.372L447.367 129.74Z" fill="#6E66DF"/>
<path d="M447.367 129.752V140.956L438.043 134.807L437.978 123.49L447.367 129.752Z" fill="#B2B2B2"/>
<path d="M447.415 129.769L456.928 123.449L447.675 117.347L438.096 123.561L447.415 129.769Z" fill="#C2C2C2"/>
<path d="M475.766 123.425V134.689L485.516 128.303L485.45 117.057L475.766 123.425Z" fill="#797673"/>
<path d="M475.766 123.437V134.642L466.442 128.493L466.376 117.176L475.766 123.437Z" fill="#939393"/>
<path d="M475.796 123.461L485.309 117.14L476.056 111.038L466.477 117.252L475.796 123.461Z" fill="#B3AFAB"/>
<path d="M447.367 118.884V130.148L457.117 123.762L457.052 112.516L447.367 118.884Z" fill="#F7B548"/>
<path d="M447.367 118.896V130.101L438.043 123.946L437.978 112.629L447.367 118.896Z" fill="#FFD590"/>
<path d="M447.397 118.92L456.911 112.599L447.657 106.498L438.079 112.712L447.397 118.92Z" fill="#B2B2B2"/>
<path d="M447.367 107.887V119.15L457.117 112.765L457.052 101.519L447.367 107.887Z" fill="#E3646A"/>
<path d="M447.367 107.899V119.103L438.043 112.954L437.978 101.637L447.367 107.899Z" fill="#EE8F94"/>
<path d="M445.245 109.288V114.208C445.245 114.261 445.233 114.308 445.204 114.355C445.18 114.403 445.139 114.438 445.091 114.462C445.044 114.485 444.997 114.497 444.943 114.497C444.89 114.497 444.843 114.479 444.796 114.45L440.704 111.754C440.663 111.73 440.633 111.695 440.609 111.653C440.586 111.612 440.574 111.565 440.574 111.517L440.544 106.551C440.544 106.497 440.556 106.45 440.586 106.403C440.609 106.356 440.651 106.32 440.698 106.296C440.745 106.273 440.793 106.261 440.846 106.261C440.899 106.261 440.946 106.279 440.994 106.308L445.115 109.058C445.156 109.081 445.186 109.117 445.21 109.158C445.233 109.194 445.245 109.241 445.245 109.288Z" fill="#E3646A"/>
<path d="M438.037 136.031V147.295L447.787 140.909L447.722 129.663L438.037 136.031Z" fill="#106EBE"/>
<path d="M438.037 136.043V147.247L428.713 141.098L428.648 129.781L438.037 136.043Z" fill="#3E8EED"/>
<path d="M437.937 136.061L447.45 129.74L438.197 123.638L428.618 129.852L437.937 136.061Z" fill="#72ACF1"/>
<path d="M466.016 129.693V140.956L475.766 134.571L475.701 123.325L466.016 129.693Z" fill="#3E8EED"/>
<path d="M466.442 129.705V140.909L457.117 134.76L457.052 123.443L466.442 129.705Z" fill="#72ACF1"/>
<path d="M466.276 129.722L475.789 123.402L466.536 117.3L456.958 123.514L466.276 129.722Z" fill="#A7CBF6"/>
<path d="M466.554 125.695L470.244 123.242C470.297 123.206 470.338 123.159 470.368 123.106C470.397 123.053 470.415 122.988 470.415 122.928C470.415 122.869 470.397 122.804 470.368 122.751C470.338 122.698 470.297 122.651 470.244 122.615L466.672 120.256C466.613 120.215 466.542 120.197 466.465 120.197C466.394 120.197 466.323 120.22 466.258 120.256L462.545 122.668C462.492 122.704 462.451 122.751 462.421 122.804C462.392 122.857 462.374 122.922 462.374 122.982C462.374 123.047 462.392 123.106 462.415 123.159C462.445 123.212 462.486 123.26 462.539 123.295L466.134 125.695C466.193 125.737 466.27 125.761 466.341 125.761C466.418 125.761 466.489 125.737 466.554 125.695Z" fill="#3E8EED"/>
<path d="M465.052 124.206C464.892 124.182 464.739 124.123 464.614 124.023C464.484 123.922 464.384 123.792 464.325 123.644V120.428C464.39 120.28 464.49 120.15 464.614 120.049C464.745 119.949 464.892 119.89 465.052 119.866C465.123 119.866 465.2 119.878 465.265 119.907C465.33 119.937 465.395 119.978 465.442 120.032C465.495 120.085 465.531 120.144 465.56 120.215C465.584 120.286 465.596 120.357 465.596 120.428V123.644C465.602 123.715 465.59 123.792 465.56 123.857C465.537 123.928 465.495 123.987 465.442 124.04C465.389 124.093 465.33 124.135 465.265 124.164C465.2 124.194 465.129 124.206 465.052 124.206Z" fill="#72ACF1"/>
<path d="M467.701 122.432C467.393 122.432 467.145 122.184 466.861 121.87V118.654C467.145 118.346 467.393 118.092 467.701 118.092C467.772 118.086 467.843 118.092 467.908 118.122C467.973 118.151 468.032 118.193 468.073 118.252C468.115 118.311 468.144 118.376 468.156 118.447C468.168 118.518 468.156 118.589 468.133 118.654V121.87C468.156 121.935 468.168 122.006 468.156 122.077C468.144 122.148 468.115 122.213 468.073 122.272C468.032 122.326 467.973 122.373 467.908 122.402C467.843 122.426 467.772 122.438 467.701 122.432Z" fill="#72ACF1"/>
<path d="M441.662 109.377C441.715 109.43 441.751 109.489 441.78 109.554C441.804 109.619 441.816 109.69 441.816 109.767C441.81 109.838 441.792 109.909 441.762 109.974C441.727 110.039 441.686 110.092 441.626 110.14L439.184 111.706C439.048 111.771 438.889 111.789 438.741 111.748C438.593 111.706 438.463 111.618 438.374 111.494C438.321 111.44 438.286 111.381 438.256 111.316C438.233 111.251 438.221 111.18 438.221 111.103C438.227 111.032 438.244 110.961 438.274 110.896C438.309 110.831 438.351 110.778 438.41 110.731L440.852 109.164C440.988 109.099 441.147 109.081 441.295 109.123C441.443 109.158 441.573 109.247 441.662 109.377Z" fill="#F7C6C8"/>
<path d="M444.441 110.885C444.494 110.938 444.529 110.997 444.559 111.062C444.583 111.127 444.594 111.198 444.594 111.275C444.588 111.346 444.571 111.417 444.541 111.482C444.512 111.547 444.464 111.6 444.405 111.647L441.963 113.214C441.827 113.279 441.668 113.297 441.52 113.256C441.372 113.214 441.242 113.126 441.153 113.001C441.1 112.948 441.065 112.889 441.035 112.824C441.011 112.759 441 112.688 441 112.611C441.005 112.54 441.023 112.469 441.053 112.404C441.088 112.339 441.13 112.286 441.189 112.239L443.631 110.672C443.767 110.607 443.926 110.589 444.074 110.63C444.222 110.666 444.352 110.76 444.441 110.885Z" fill="#F7C6C8"/>
<path d="M383.89 110.08V121.344L393.64 114.958L393.574 103.712L383.89 110.08Z" fill="#939393"/>
<path d="M383.89 110.092V121.297L374.566 115.148L374.5 103.831L383.89 110.092Z" fill="#B3AFAB"/>
<path d="M383.89 110.11L393.403 103.789L384.15 97.6875L374.571 103.902L383.89 110.11Z" fill="#C8C6C4"/>
<path d="M392.794 116.171V127.434L402.544 121.049L402.479 109.803L392.794 116.171Z" fill="#6E66DF"/>
<path d="M392.794 116.182V127.387L383.47 121.237L383.405 109.921L392.794 116.182Z" fill="#939393"/>
<path d="M392.942 116.2L402.455 109.879L393.202 103.777L383.624 109.991L392.942 116.2Z" fill="#958FE7"/>
<path d="M392.865 112.404L396.555 109.95C396.608 109.915 396.649 109.867 396.679 109.814C396.708 109.761 396.726 109.696 396.726 109.637C396.726 109.572 396.708 109.513 396.679 109.46C396.649 109.406 396.608 109.359 396.555 109.324L392.983 106.964C392.924 106.923 392.853 106.905 392.776 106.905C392.699 106.905 392.634 106.929 392.569 106.964L388.856 109.371C388.803 109.406 388.762 109.454 388.732 109.507C388.703 109.56 388.685 109.625 388.685 109.684C388.685 109.749 388.703 109.808 388.726 109.862C388.756 109.915 388.797 109.962 388.85 109.998L392.445 112.398C392.504 112.439 392.581 112.463 392.652 112.463C392.735 112.463 392.806 112.439 392.865 112.404Z" fill="#6E66DF"/>
<path d="M391.369 110.914C391.209 110.896 391.062 110.837 390.937 110.737C390.813 110.636 390.719 110.506 390.671 110.358V107.142C390.725 106.994 390.813 106.858 390.937 106.764C391.062 106.663 391.209 106.604 391.369 106.586C391.517 106.586 391.659 106.645 391.765 106.752C391.872 106.858 391.937 106.994 391.943 107.142V110.358C391.937 110.506 391.872 110.648 391.765 110.749C391.659 110.849 391.517 110.908 391.369 110.914Z" fill="#BDB9F0"/>
<path d="M394.024 109.134C393.716 109.134 393.468 108.886 393.22 108.573V105.356C393.468 105.049 393.716 104.794 394.024 104.794C394.095 104.789 394.166 104.8 394.231 104.83C394.296 104.859 394.355 104.901 394.402 104.954C394.45 105.007 394.479 105.072 394.497 105.143C394.515 105.214 394.509 105.285 394.491 105.356V108.573C394.509 108.644 394.509 108.714 394.497 108.785C394.479 108.856 394.45 108.921 394.402 108.975C394.355 109.028 394.296 109.069 394.231 109.099C394.166 109.128 394.095 109.14 394.024 109.134Z" fill="#BDB9F0"/>
<path d="M383.464 122.373V133.636L393.214 127.251L393.149 116.005L383.464 122.373Z" fill="#F7B548"/>
<path d="M383.464 122.385V133.589L374.14 127.44L374.075 116.123L383.464 122.385Z" fill="#FFD590"/>
<path d="M383.458 122.408L392.971 116.088L383.718 109.986L374.14 116.2L383.458 122.408Z" fill="#FFE5B9"/>
<path d="M418.839 84.3191V95.5826L428.589 89.197L428.524 77.9512L418.839 84.3191Z" fill="#106EBE"/>
<path d="M418.839 84.331V95.5354L409.515 89.3863L409.45 78.0696L418.839 84.331Z" fill="#3E8EED"/>
<path d="M416.716 85.7204V90.6397C416.716 90.6929 416.704 90.7402 416.675 90.7875C416.645 90.8348 416.61 90.8703 416.562 90.894C416.515 90.9176 416.468 90.9294 416.415 90.9294C416.361 90.9294 416.314 90.9117 416.267 90.8821L412.175 88.1801C412.134 88.1564 412.104 88.1209 412.081 88.0796C412.057 88.0382 412.045 87.9909 412.045 87.9436L412.016 82.977C412.016 82.9238 412.027 82.8765 412.057 82.8292C412.081 82.7819 412.122 82.7464 412.169 82.7227C412.217 82.6991 412.264 82.6873 412.317 82.6873C412.37 82.6873 412.418 82.705 412.465 82.7346L416.586 85.4839C416.627 85.5076 416.657 85.543 416.681 85.5844C416.704 85.6258 416.716 85.6731 416.716 85.7204Z" fill="#106EBE"/>
<path d="M418.822 84.3487L428.335 78.0281L419.082 71.9263L409.503 78.1404L418.822 84.3487Z" fill="#7BC0EF"/>
<path d="M413.151 85.8917C413.204 85.945 413.24 86.0041 413.269 86.0691C413.293 86.1342 413.305 86.2051 413.305 86.282C413.299 86.3529 413.281 86.4239 413.251 86.4889C413.216 86.554 413.175 86.6072 413.115 86.6545L410.673 88.2213C410.537 88.2863 410.378 88.3041 410.23 88.2627C410.082 88.2213 409.952 88.1326 409.863 88.0084C409.81 87.9552 409.775 87.8961 409.745 87.8311C409.722 87.766 409.71 87.6951 409.71 87.6182C409.716 87.5473 409.733 87.4763 409.763 87.4113C409.798 87.3462 409.84 87.293 409.899 87.2457L412.341 85.6789C412.477 85.6138 412.636 85.5961 412.784 85.6375C412.938 85.673 413.068 85.7676 413.151 85.8917Z" fill="#72ACF1"/>
<path d="M415.936 87.4054C415.989 87.4586 416.024 87.5178 416.054 87.5828C416.078 87.6478 416.09 87.7188 416.09 87.7956C416.084 87.8666 416.066 87.9375 416.036 88.0026C416.001 88.0676 415.959 88.1208 415.9 88.1681L413.458 89.735C413.322 89.8 413.163 89.8178 413.015 89.7764C412.867 89.735 412.737 89.6463 412.648 89.5221C412.595 89.4689 412.56 89.4098 412.53 89.3447C412.506 89.2797 412.495 89.2088 412.495 89.1319C412.501 89.0609 412.518 88.99 412.548 88.9249C412.583 88.8599 412.625 88.8067 412.684 88.7594L415.126 87.1926C415.262 87.1275 415.421 87.1098 415.569 87.1512C415.717 87.1866 415.847 87.2753 415.936 87.4054Z" fill="#72ACF1"/>
<path d="M409.893 153.964V165.228L400.144 158.842L400.209 147.596L409.893 153.964Z" fill="#B3AFAB"/>
<path d="M409.893 153.976V165.18L419.217 159.031L419.282 147.714L409.893 153.976Z" fill="#797673"/>
<path d="M412.01 155.365V160.284C412.01 160.338 412.022 160.385 412.051 160.432C412.081 160.48 412.116 160.515 412.164 160.539C412.211 160.562 412.258 160.574 412.312 160.574C412.365 160.574 412.412 160.556 412.459 160.527L416.551 157.831C416.592 157.807 416.622 157.772 416.646 157.73C416.669 157.689 416.681 157.642 416.681 157.594L416.711 152.628C416.711 152.574 416.699 152.527 416.669 152.48C416.64 152.432 416.604 152.397 416.557 152.373C416.51 152.35 416.462 152.338 416.409 152.338C416.356 152.338 416.308 152.356 416.261 152.385L412.14 155.135C412.099 155.158 412.069 155.194 412.045 155.235C412.022 155.271 412.01 155.318 412.01 155.365Z" fill="#605D5A"/>
<path d="M409.817 153.994L400.303 147.673L409.556 141.571L419.135 147.785L409.817 153.994Z" fill="#C8C6C4"/>
<path d="M415.487 155.537C415.434 155.59 415.398 155.65 415.368 155.715C415.345 155.78 415.333 155.851 415.333 155.927C415.339 155.998 415.357 156.069 415.386 156.134C415.422 156.199 415.463 156.253 415.522 156.3L417.964 157.867C418.1 157.932 418.26 157.95 418.408 157.908C418.555 157.867 418.685 157.778 418.774 157.654C418.827 157.601 418.863 157.542 418.892 157.477C418.922 157.412 418.928 157.341 418.928 157.264C418.922 157.193 418.904 157.122 418.875 157.057C418.839 156.992 418.798 156.939 418.739 156.891L416.297 155.324C416.161 155.259 416.001 155.242 415.853 155.283C415.706 155.318 415.575 155.413 415.487 155.537Z" fill="#B3AFAB"/>
<path d="M412.702 157.05C412.649 157.104 412.613 157.163 412.584 157.228C412.56 157.293 412.548 157.364 412.548 157.441C412.554 157.512 412.572 157.583 412.601 157.648C412.637 157.713 412.678 157.766 412.737 157.813L415.179 159.38C415.315 159.445 415.475 159.463 415.623 159.421C415.771 159.38 415.901 159.291 415.989 159.167C416.042 159.114 416.078 159.055 416.108 158.99C416.131 158.925 416.143 158.854 416.143 158.777C416.137 158.706 416.119 158.635 416.09 158.57C416.054 158.505 416.013 158.452 415.954 158.404L413.512 156.838C413.376 156.773 413.216 156.755 413.068 156.796C412.921 156.832 412.791 156.926 412.702 157.05Z" fill="#B3AFAB"/>
<path d="M515.221 144.71V155.974L524.971 149.588L524.906 138.342L515.221 144.71Z" fill="#797673"/>
<path d="M515.64 144.722V155.926L506.316 149.771L506.251 138.455L515.64 144.722Z" fill="#939393"/>
<path d="M515.487 144.74L525 138.419L515.747 132.317L506.168 138.532L515.487 144.74Z" fill="#B3AFAB"/>
<path d="M505.891 150.913V162.176L515.641 155.791L515.576 144.545L505.891 150.913Z" fill="#106EBE"/>
<path d="M505.891 150.925V162.129L496.567 155.98L496.501 144.663L505.891 150.925Z" fill="#3E8EED"/>
<path d="M506.003 150.948L515.516 144.627L506.263 138.525L496.685 144.74L506.003 150.948Z" fill="#72ACF1"/>
<path d="M515.741 141.038L519.431 138.585C519.484 138.549 519.525 138.502 519.555 138.449C519.584 138.395 519.602 138.33 519.602 138.271C519.602 138.212 519.584 138.147 519.555 138.094C519.525 138.041 519.484 137.993 519.431 137.958L515.859 135.599C515.8 135.557 515.729 135.54 515.652 135.54C515.575 135.54 515.51 135.563 515.445 135.599L511.732 138.011C511.679 138.047 511.638 138.094 511.608 138.147C511.579 138.2 511.561 138.265 511.561 138.324C511.561 138.389 511.579 138.449 511.602 138.502C511.632 138.555 511.673 138.602 511.726 138.638L515.321 141.038C515.38 141.08 515.457 141.103 515.528 141.103C515.605 141.097 515.676 141.08 515.741 141.038Z" fill="#797673"/>
<path d="M514.239 139.548C514.08 139.531 513.932 139.466 513.802 139.371C513.677 139.271 513.577 139.141 513.518 138.993V135.776C513.577 135.628 513.672 135.498 513.802 135.398C513.926 135.297 514.08 135.238 514.239 135.22C514.31 135.22 514.387 135.232 514.452 135.262C514.517 135.291 514.582 135.333 514.635 135.386C514.689 135.439 514.73 135.498 514.754 135.569C514.783 135.634 514.795 135.711 514.795 135.782V138.999C514.795 139.07 514.783 139.146 514.754 139.211C514.724 139.277 514.683 139.342 514.635 139.395C514.582 139.448 514.523 139.489 514.452 139.519C514.387 139.531 514.316 139.548 514.239 139.548Z" fill="#C8C6C4"/>
<path d="M516.894 137.769C516.586 137.769 516.338 137.521 516.072 137.207V133.991C516.338 133.683 516.586 133.429 516.894 133.429C516.965 133.423 517.036 133.435 517.101 133.459C517.166 133.488 517.225 133.53 517.266 133.583C517.314 133.636 517.343 133.707 517.355 133.772C517.367 133.843 517.361 133.914 517.337 133.979V137.195C517.361 137.26 517.367 137.337 517.355 137.402C517.343 137.473 517.314 137.538 517.266 137.591C517.219 137.645 517.166 137.692 517.101 137.716C517.036 137.769 516.965 137.781 516.894 137.769Z" fill="#C8C6C4"/>
<path d="M468.771 87.0155C467.452 87.0155 465.897 86.6371 464.159 85.5433L465.555 81.3867C467.204 82.4214 469.185 82.4687 469.741 82.2086C471.491 81.3867 473.631 77.78 474.341 72.4646L478.887 73.0736C478.651 74.8415 477.196 83.7813 471.692 86.3651C470.923 86.7199 469.936 87.0155 468.771 87.0155Z" fill="url(#paint3_linear)"/>
<path d="M482.234 72.8903L479.78 83.8049L484.274 83.5684L486.728 72.6597L482.234 72.8903Z" fill="url(#paint4_linear)"/>
<path d="M481.045 78.1581L480.927 78.6962L485.421 78.4597L485.539 77.9216L481.045 78.1581Z" fill="#A08BE8"/>
<path d="M473.087 77.6736L472.845 78.1584L477.203 79.3764L477.445 78.8916L473.087 77.6736Z" fill="#A08BE8"/>
<path d="M500.628 61.8751C503.182 56.3823 503.058 51.6049 503.058 51.6049L504.412 51.8533L504.448 51.8355C504.442 40.9031 496.637 31.1887 485.498 29.1548C472.945 26.8607 460.913 35.1738 458.613 47.7263C456.313 60.2787 464.632 72.3109 477.185 74.6109C487.088 76.4202 496.673 71.625 501.397 63.3592C501.562 62.9926 501.681 62.3127 500.628 61.8751Z" fill="url(#paint5_radial)"/>
<path d="M500.628 61.8748C503.153 56.453 503.058 51.7229 503.058 51.6106L479.479 47.3003C479.479 47.3003 478.019 46.8805 477.77 48.2345C477.522 49.5884 476.877 53.4376 476.103 57.6769C475.943 58.546 500.386 62.0877 500.628 61.8748Z" fill="url(#paint6_radial)"/>
<path d="M489.312 59.7881C489.312 59.7881 491.907 58.4104 492.41 58.1562C492.912 57.9078 493.303 57.9551 493.646 58.3809C493.988 58.8066 495.934 60.9942 495.934 60.9942L489.312 59.7881Z" fill="#A08BE8"/>
<path d="M501.243 63.631C501.243 63.631 502.124 62.484 500.64 61.8632C500.64 61.8572 477.451 57.6179 477.451 57.6179C476.913 57.5174 476.274 57.068 476.31 56.5359C476.245 56.9084 476.174 57.2927 476.103 57.6711C475.961 58.4634 476.469 58.9896 476.984 59.1552C477.037 59.1729 477.09 59.1847 477.143 59.1966L478.728 59.4863L501.243 63.631Z" fill="url(#paint7_radial)"/>
<path d="M498.837 66.972L459.648 59.8059C460.257 61.4614 461.049 63.0342 462.007 64.5005L494.97 70.5314C496.383 69.4967 497.684 68.3023 498.837 66.972Z" fill="url(#paint8_radial)"/>
<path d="M494.292 64.9175L486.958 63.5762L485.772 70.0613L493.106 71.4026L494.292 64.9175Z" fill="#512BD4"/>
<path d="M487.758 67.9016C487.717 67.8965 487.68 67.8742 487.659 67.838C487.633 67.8001 487.623 67.767 487.634 67.727C487.639 67.6855 487.66 67.6544 487.698 67.6279C487.734 67.6071 487.775 67.5935 487.815 67.6044C487.856 67.6095 487.893 67.6317 487.919 67.6695C487.946 67.7074 487.955 67.7405 487.944 67.7805C487.939 67.822 487.913 67.8516 487.881 67.8796C487.839 67.8989 487.8 67.9067 487.758 67.9016Z" fill="white"/>
<path d="M489.475 68.1898L489.195 68.1384L488.67 66.8443C488.655 66.8096 488.645 66.7764 488.642 66.7448L488.636 66.7432C488.632 66.779 488.625 66.8506 488.607 66.9621L488.419 67.9954L488.173 67.9533L488.459 66.3769L488.757 66.433L489.26 67.6964C489.281 67.7514 489.297 67.7861 489.298 67.8048L489.303 67.8063C489.303 67.7633 489.316 67.6932 489.33 67.5931L489.514 66.577L489.76 66.6191L489.475 68.1898Z" fill="white"/>
<path d="M490.679 68.4056L489.814 68.2508L490.101 66.6744L490.929 66.8256L490.888 67.0471L490.316 66.9412L490.237 67.3914L490.769 67.4865L490.727 67.708L490.195 67.6129L490.112 68.0803L490.719 68.1898L490.679 68.4056Z" fill="white"/>
<path d="M492.155 67.2745L491.712 67.1912L491.468 68.5461L491.21 68.5008L491.455 67.146L491.012 67.0626L491.054 66.8412L492.193 67.0458L492.155 67.2745Z" fill="white"/>
<path d="M487.165 28.5516L482.778 27.7238L484.25 23.3367L487.402 23.9338L487.165 28.5516Z" fill="#D0C5F3"/>
<path d="M488.324 31.6262C488.519 31.6617 488.714 31.5198 488.726 31.3247C488.892 29.1962 487.431 27.245 485.285 26.837C483.139 26.4291 481.069 27.7121 480.443 29.7519C480.383 29.9471 480.508 30.1481 480.709 30.1836L488.324 31.6262Z" fill="url(#paint9_radial)"/>
<path d="M478.527 89.3804C475.76 95.3758 474.814 99.9285 474.784 100.413C474.749 101.087 474.802 101.537 475.606 102.051C476.534 102.642 482.577 106.503 482.577 106.503L483.547 102.897L483.736 91.9169L478.527 89.3804Z" fill="#8065E0"/>
<path d="M483.612 89.8239C483.458 92.6619 485.995 94.8082 490.524 98.5686C491.056 99.0061 491.274 99.5028 491.133 100.236L490.683 102.589C490.618 102.938 490.287 103.086 489.944 103.275L482.802 106.574C482.559 106.598 482.4 106.415 482.447 106.166L482.967 103.452C483.127 102.607 483.044 102.187 482.311 101.637C480.472 100.266 478.214 94.2228 478.882 90.492C479.556 86.7493 483.612 89.8239 483.612 89.8239Z" fill="#A08BE8"/>
<path d="M491.009 99.1421C491.168 99.4436 491.216 99.7925 491.133 100.23L490.684 102.583C490.618 102.932 490.341 103.08 489.944 103.269L482.802 106.568C482.56 106.592 482.4 106.409 482.447 106.16L482.968 103.446C483.027 103.151 483.05 102.908 483.027 102.69L491.009 99.1421Z" fill="#D0C5F3"/>
<path d="M485.043 83.042L479.55 83.5209C478.87 83.58 478.214 84.189 478.084 84.8808L477.155 89.7351C477.025 90.4268 477.469 90.9353 478.149 90.8762L483.642 90.3973C484.322 90.3381 484.978 89.7291 485.108 89.0374L486.036 84.1831C486.166 83.4973 485.723 82.9829 485.043 83.042Z" fill="url(#paint10_radial)"/>
<path d="M470.486 81.706L471.586 86.4124C471.621 86.3947 471.657 86.3829 471.686 86.371C472.402 86.034 473.046 85.5965 473.625 85.0762L470.876 81.3335C470.746 81.4636 470.616 81.5936 470.486 81.706Z" fill="#A08BE8"/>
<path d="M486.786 54.2596C487.077 52.6066 486.514 51.1264 485.53 50.9536C484.546 50.7809 483.513 51.9809 483.222 53.634C482.932 55.2871 483.495 56.7673 484.479 56.94C485.463 57.1128 486.496 55.9127 486.786 54.2596Z" fill="#512BD4"/>
<path d="M485.279 52.4444C484.504 52.9706 484.303 54.0172 484.83 54.7917C485.184 55.318 485.787 55.5781 486.379 55.5249C486.562 55.1524 486.704 54.7208 486.787 54.2537C486.917 53.5028 486.875 52.7933 486.692 52.2197C486.231 52.0838 485.711 52.1488 485.279 52.4444Z" fill="#8065E0"/>
<path d="M500.051 56.6385C500.39 54.9948 499.872 53.4986 498.894 53.2965C497.915 53.0945 496.847 54.2632 496.507 55.9069C496.168 57.5506 496.686 59.0468 497.665 59.2489C498.643 59.4509 499.712 58.2822 500.051 56.6385Z" fill="#512BD4"/>
<path d="M498.559 54.6854C497.784 55.2116 497.583 56.2581 498.109 57.0327C498.47 57.5589 499.073 57.825 499.67 57.7659C499.836 57.4288 499.966 57.0445 500.049 56.6366C500.214 55.8324 500.173 55.0638 499.978 54.4607C499.511 54.3247 498.99 54.3898 498.559 54.6854Z" fill="#8065E0"/>
<path d="M486.639 24.6138C489.013 24.6138 490.938 22.6893 490.938 20.3153C490.938 17.9413 489.013 16.0168 486.639 16.0168C484.265 16.0168 482.341 17.9413 482.341 20.3153C482.341 22.6893 484.265 24.6138 486.639 24.6138Z" fill="url(#paint11_radial)"/>
<path d="M489.241 33.4591C489.152 33.873 489.347 34.3105 489.749 34.5115C494.952 37.1367 498.642 41.991 499.895 47.5429C500.232 49.0447 502.136 48.7905 501.769 47.1468C500.398 41.0332 496.342 35.6822 490.612 32.7969C490.139 32.5604 489.566 32.7496 489.323 33.2226C489.288 33.3054 489.258 33.3822 489.241 33.4591Z" fill="url(#paint12_radial)"/>
<path d="M517.119 94.9973L517.184 106.243L507.434 112.629V101.365L517.119 94.9973Z" fill="#E3646A"/>
<path d="M498.045 95.1099L498.11 106.427L507.434 112.576V101.371L498.045 95.1099Z" fill="#EE8F94"/>
<path d="M498.033 95.1157L507.765 88.9607L517.119 94.9916L507.44 101.413L498.033 95.1157Z" fill="#F7C6C8"/>
<path d="M447.415 107.917L456.928 101.596L447.675 95.4944L438.096 101.709L447.415 107.917Z" fill="#F7C6C8"/>
<path d="M418.768 73.2509V84.5145L428.518 78.1288L428.453 66.8831L418.768 73.2509Z" fill="#F7B548"/>
<path d="M418.768 73.2629V84.4673L409.444 78.3123L409.373 67.0015L418.768 73.2629Z" fill="#FFD590"/>
<path d="M418.934 73.2805L428.447 66.96L419.194 60.8582L409.615 67.0723L418.934 73.2805Z" fill="#FFE5B9"/>
<path d="M461.179 50.0439C461.599 49.9966 461.96 49.6714 462.025 49.2338C463.125 41.9199 468.405 35.7945 475.476 33.6364C475.985 33.4826 476.268 32.9446 476.115 32.442C475.961 31.9335 475.423 31.6497 474.92 31.8035C467.145 34.1744 461.339 40.9089 460.133 48.95C460.056 49.4703 460.417 49.9611 460.937 50.0379C461.014 50.0557 461.097 50.0557 461.179 50.0439Z" fill="url(#paint13_radial)"/>
<path d="M489.418 79.9026L490.66 75.4859C486.03 74.1851 481.217 71.5481 478.964 68.5918C474.483 62.7028 472.91 57.074 472.697 53.2485L468.115 53.5087C468.736 64.6303 476.658 76.6802 489.418 79.9026Z" fill="url(#paint14_linear)"/>
<path d="M480.774 75.9647L483.174 72.2043C483.02 72.1097 482.879 72.0151 482.731 71.9146L480.348 75.6513C480.484 75.7577 480.626 75.8642 480.774 75.9647Z" fill="#A08BE8"/>
<path d="M472.313 66.8475L476.487 64.8608C476.398 64.7071 476.31 64.5534 476.221 64.3997L472.052 66.3863C472.135 66.54 472.218 66.6938 472.313 66.8475Z" fill="#A08BE8"/>
<path d="M475.878 71.6606L479.313 69.0117C479.195 68.8757 479.083 68.7397 478.976 68.6038L475.523 71.2703C475.641 71.4004 475.76 71.5305 475.878 71.6606Z" fill="#A08BE8"/>
<path d="M469.794 61.538L474.347 60.4205C474.282 60.2549 474.216 60.0894 474.157 59.9238L469.616 61.0354C469.676 61.2009 469.735 61.3724 469.794 61.538Z" fill="#A08BE8"/>
<path d="M469.717 56.0098C472.062 56.0098 473.962 54.1091 473.962 51.7645C473.962 49.42 472.062 47.5193 469.717 47.5193C467.373 47.5193 465.472 49.42 465.472 51.7645C465.472 54.1091 467.373 56.0098 469.717 56.0098Z" fill="url(#paint15_radial)"/>
<path d="M461.719 80.1922C456.22 76.5382 451.868 74.9004 451.395 74.7999C450.739 74.6639 450.284 74.6403 449.651 75.3616C448.924 76.1894 444.176 81.5639 444.176 81.5639L447.593 83.0776L458.413 84.9519L461.719 80.1922Z" fill="#8065E0"/>
<path d="M460.5 85.1466C457.721 84.5612 455.208 86.7312 450.797 90.6335C450.283 91.0887 449.762 91.2306 449.053 90.9823L446.8 90.1782C446.469 90.0599 446.369 89.7111 446.238 89.3445L444.08 81.7823C444.098 81.5399 444.299 81.4098 444.536 81.4985L447.137 82.4268C447.947 82.7165 448.373 82.6988 449.029 82.0543C450.667 80.452 456.982 79.1453 460.571 80.381C464.16 81.6108 460.5 85.1466 460.5 85.1466Z" fill="#A08BE8"/>
<path d="M450.147 91.0236C449.821 91.136 449.473 91.1241 449.053 90.9763L446.8 90.1722C446.469 90.054 446.363 89.7583 446.238 89.3385L444.08 81.7763C444.098 81.5339 444.299 81.4038 444.536 81.4925L447.137 82.4208C447.421 82.5213 447.657 82.5804 447.876 82.5923L450.147 91.0236Z" fill="#D0C5F3"/>
<path d="M466.974 87.6061L467.347 82.1015C467.394 81.4216 466.891 80.6766 466.229 80.4401L461.576 78.7786C460.914 78.5421 460.34 78.9028 460.293 79.5827L459.92 85.0874C459.873 85.7673 460.376 86.5123 461.038 86.7488L465.691 88.4103C466.359 88.6408 466.933 88.2861 466.974 87.6061Z" fill="url(#paint16_radial)"/>
<path d="M502.585 77.0708V88.3343L512.335 81.9487L512.27 70.7029L502.585 77.0708Z" fill="#F7B548"/>
<path d="M502.585 77.0823V88.2867L493.261 82.1317L493.196 70.8149L502.585 77.0823Z" fill="#FFD590"/>
<path d="M502.715 77.1001L512.229 70.7796L502.975 64.6777L493.397 70.8919L502.715 77.1001Z" fill="#FFE5B9"/>
<path d="M492.77 77.3364L496.738 75.6454C497.79 75.1842 498.275 73.9603 497.814 72.9079C497.358 71.8554 496.129 71.3706 495.076 71.8318L491.008 73.5642L492.77 77.3364Z" fill="#D0C5F3"/>
<path d="M490.553 81.0257L494.367 83.0301C495.39 83.5563 496.643 83.1542 497.169 82.1373C497.696 81.1144 497.294 79.8609 496.277 79.3347L492.362 77.2771L490.553 81.0257Z" fill="#D0C5F3"/>
<path d="M491.948 78.3711L495.815 80.275C496.85 80.7775 498.091 80.3459 498.594 79.3112C499.097 78.2765 498.665 77.0348 497.63 76.5323L493.663 74.5752L491.948 78.3711Z" fill="#D0C5F3"/>
<path d="M488.454 81.6937L491.807 84.4017C492.705 85.1171 494.012 84.9693 494.727 84.0706C495.443 83.1719 495.295 81.8652 494.396 81.1498L490.961 78.3708L488.454 81.6937Z" fill="#D0C5F3"/>
<path d="M490.039 82.0486C492.442 82.0486 494.39 80.1003 494.39 77.6969C494.39 75.2935 492.442 73.3452 490.039 73.3452C487.635 73.3452 485.687 75.2935 485.687 77.6969C485.687 80.1003 487.635 82.0486 490.039 82.0486Z" fill="url(#paint17_radial)"/>
<path d="M27.0227 33.2686C26.5897 33.2686 26.2488 33.207 26 33.084V32.0928C26.3271 32.1839 26.668 32.2295 27.0227 32.2295C27.4788 32.2295 27.8243 32.0928 28.0593 31.8193C28.2988 31.5459 28.4186 31.1517 28.4186 30.6367V20.6426H29.5934V30.541C29.5934 31.4069 29.3722 32.0768 28.93 32.5508C28.4877 33.0293 27.852 33.2686 27.0227 33.2686Z" fill="white"/>
<path d="M33.1867 23.1445V28.0049C33.1867 28.6156 33.3273 29.0713 33.6083 29.3721C33.8893 29.6729 34.3293 29.8232 34.9281 29.8232C35.7205 29.8232 36.2987 29.609 36.6626 29.1807C37.0312 28.7523 37.2155 28.0527 37.2155 27.082V23.1445H38.3626V30.6367H37.4159L37.25 29.6318H37.1878C36.9529 30.001 36.6258 30.2835 36.2066 30.4795C35.7919 30.6755 35.3174 30.7734 34.783 30.7734C33.8617 30.7734 33.1706 30.557 32.7099 30.124C32.2539 29.6911 32.0258 28.9984 32.0258 28.0459V23.1445H33.1867Z" fill="white"/>
<path d="M41.949 30.6367H40.8019V20H41.949V30.6367Z" fill="white"/>
<path d="M43.1791 23.1445H44.4091L46.0676 27.417C46.4315 28.3923 46.6573 29.0964 46.7448 29.5293H46.8001C46.86 29.2969 46.9844 28.9004 47.1733 28.3398C47.3667 27.7747 47.9933 26.043 49.0529 23.1445H50.2829L47.0281 31.6758C46.7057 32.5189 46.3279 33.1159 45.8948 33.4668C45.4664 33.8223 44.9389 34 44.3124 34C43.9623 34 43.6167 33.9613 43.2758 33.8838V32.9746C43.5292 33.0293 43.8125 33.0566 44.1258 33.0566C44.9136 33.0566 45.4756 32.6191 45.8119 31.7441L46.2335 30.6777L43.1791 23.1445Z" fill="white"/>
<path d="M60.9248 22.9941C60.9248 23.6322 60.7428 24.154 60.3789 24.5596C60.0196 24.9652 59.5082 25.2363 58.8448 25.373V25.4277C59.6556 25.528 60.2568 25.7832 60.6484 26.1934C61.04 26.6035 61.2358 27.1413 61.2358 27.8066C61.2358 28.7591 60.9018 29.4928 60.2338 30.0078C59.5658 30.5182 58.6168 30.7734 57.3867 30.7734C56.8523 30.7734 56.3617 30.7324 55.9148 30.6504C55.4726 30.5729 55.0418 30.4339 54.6226 30.2334V29.1533C55.0602 29.3675 55.5255 29.5316 56.0185 29.6455C56.516 29.7549 56.9859 29.8096 57.4282 29.8096C59.1742 29.8096 60.0472 29.1328 60.0472 27.7793C60.0472 26.5671 59.0844 25.9609 57.1587 25.9609H56.1636V24.9834H57.1725C57.9603 24.9834 58.5845 24.8125 59.0452 24.4707C59.5059 24.1243 59.7362 23.6458 59.7362 23.0352C59.7362 22.5475 59.5658 22.1647 59.2249 21.8867C58.8886 21.6087 58.4302 21.4697 57.8497 21.4697C57.4075 21.4697 56.9905 21.529 56.599 21.6475C56.2074 21.766 55.7605 21.9847 55.2583 22.3037L54.6779 21.5381C55.0925 21.2145 55.5693 20.9616 56.1083 20.7793C56.6519 20.5924 57.2232 20.499 57.8221 20.499C58.8033 20.499 59.5658 20.7223 60.1094 21.1689C60.653 21.611 60.9248 22.2194 60.9248 22.9941Z" fill="white"/>
<path d="M69.4591 25.626C69.4591 27.3532 69.1827 28.6429 68.6298 29.4951C68.0816 30.3473 67.2409 30.7734 66.1076 30.7734C65.0203 30.7734 64.1934 30.3382 63.6268 29.4678C63.0601 28.5928 62.7768 27.3122 62.7768 25.626C62.7768 23.8851 63.0509 22.5931 63.5991 21.75C64.1473 20.9069 64.9835 20.4854 66.1076 20.4854C67.204 20.4854 68.0355 20.9251 68.6022 21.8047C69.1735 22.6842 69.4591 23.958 69.4591 25.626ZM63.9377 25.626C63.9377 27.0798 64.1105 28.1393 64.456 28.8047C64.8015 29.4655 65.352 29.7959 66.1076 29.7959C66.8723 29.7959 67.4251 29.4609 67.766 28.791C68.1116 28.1165 68.2843 27.0615 68.2843 25.626C68.2843 24.1904 68.1116 23.14 67.766 22.4746C67.4251 21.8047 66.8723 21.4697 66.1076 21.4697C65.352 21.4697 64.8015 21.8001 64.456 22.4609C64.1105 23.1172 63.9377 24.1722 63.9377 25.626Z" fill="white"/>
<path d="M72.5895 29.0098L72.6931 29.167C72.5733 29.6227 72.4006 30.1514 72.1748 30.7529C71.9491 31.359 71.7141 31.9219 71.47 32.4414H70.6062C70.7306 31.9674 70.8665 31.3818 71.0139 30.6846C71.1659 29.9873 71.2719 29.429 71.3318 29.0098H72.5895Z" fill="white"/>
<path d="M84.648 30.6367H78.0072V29.6592L80.6676 27.0137C81.4784 26.2025 82.0128 25.6237 82.2708 25.2773C82.5288 24.931 82.7223 24.5937 82.8513 24.2656C82.9803 23.9375 83.0448 23.5843 83.0448 23.2061C83.0448 22.6729 82.8812 22.2513 82.5542 21.9414C82.2271 21.627 81.7733 21.4697 81.1928 21.4697C80.7736 21.4697 80.3751 21.5381 79.9973 21.6748C79.6242 21.8115 79.2073 22.0599 78.7466 22.4199L78.1385 21.6475C79.069 20.8818 80.0826 20.499 81.179 20.499C82.128 20.499 82.872 20.7406 83.411 21.2236C83.95 21.7021 84.2195 22.347 84.2195 23.1582C84.2195 23.7917 84.0399 24.4183 83.6805 25.0381C83.3212 25.6579 82.6486 26.4417 81.6627 27.3896L79.4514 29.5293V29.584H84.648V30.6367Z" fill="white"/>
<path d="M92.8022 25.626C92.8022 27.3532 92.5258 28.6429 91.9729 29.4951C91.4247 30.3473 90.584 30.7734 89.4507 30.7734C88.3634 30.7734 87.5365 30.3382 86.9699 29.4678C86.4032 28.5928 86.1199 27.3122 86.1199 25.626C86.1199 23.8851 86.394 22.5931 86.9422 21.75C87.4904 20.9069 88.3266 20.4854 89.4507 20.4854C90.5471 20.4854 91.3787 20.9251 91.9453 21.8047C92.5166 22.6842 92.8022 23.958 92.8022 25.626ZM87.2808 25.626C87.2808 27.0798 87.4536 28.1393 87.7991 28.8047C88.1446 29.4655 88.6951 29.7959 89.4507 29.7959C90.2154 29.7959 90.7682 29.4609 91.1091 28.791C91.4547 28.1165 91.6274 27.0615 91.6274 25.626C91.6274 24.1904 91.4547 23.14 91.1091 22.4746C90.7682 21.8047 90.2154 21.4697 89.4507 21.4697C88.6951 21.4697 88.1446 21.8001 87.7991 22.4609C87.4536 23.1172 87.2808 24.1722 87.2808 25.626Z" fill="white"/>
<path d="M100.846 30.6367H94.205V29.6592L96.8655 27.0137C97.6763 26.2025 98.2107 25.6237 98.4687 25.2773C98.7266 24.931 98.9201 24.5937 99.0491 24.2656C99.1781 23.9375 99.2426 23.5843 99.2426 23.2061C99.2426 22.6729 99.0791 22.2513 98.752 21.9414C98.4249 21.627 97.9711 21.4697 97.3906 21.4697C96.9714 21.4697 96.5729 21.5381 96.1952 21.6748C95.822 21.8115 95.4051 22.0599 94.9444 22.4199L94.3363 21.6475C95.2669 20.8818 96.2804 20.499 97.3768 20.499C98.3258 20.499 99.0699 20.7406 99.6089 21.2236C100.148 21.7021 100.417 22.347 100.417 23.1582C100.417 23.7917 100.238 24.4183 99.8784 25.0381C99.519 25.6579 98.8464 26.4417 97.8605 27.3896L95.6492 29.5293V29.584H100.846V30.6367Z" fill="white"/>
<path d="M109 25.626C109 27.3532 108.724 28.6429 108.171 29.4951C107.623 30.3473 106.782 30.7734 105.648 30.7734C104.561 30.7734 103.734 30.3382 103.168 29.4678C102.601 28.5928 102.318 27.3122 102.318 25.626C102.318 23.8851 102.592 22.5931 103.14 21.75C103.688 20.9069 104.524 20.4854 105.648 20.4854C106.745 20.4854 107.576 20.9251 108.143 21.8047C108.714 22.6842 109 23.958 109 25.626ZM103.479 25.626C103.479 27.0798 103.651 28.1393 103.997 28.8047C104.342 29.4655 104.893 29.7959 105.648 29.7959C106.413 29.7959 106.966 29.4609 107.307 28.791C107.652 28.1165 107.825 27.0615 107.825 25.626C107.825 24.1904 107.652 23.14 107.307 22.4746C106.966 21.8047 106.413 21.4697 105.648 21.4697C104.893 21.4697 104.342 21.8001 103.997 22.4609C103.651 23.1172 103.479 24.1722 103.479 25.626Z" fill="white"/>
<path d="M31.4327 42.1353H29.5034V48.8001H28.3554V42.1353H27V41.6184L28.3554 41.2049V40.7845C28.3554 38.9282 29.1691 38 30.7965 38C31.1976 38 31.6679 38.0804 32.2073 38.2412L31.9099 39.1579C31.4673 39.0155 31.0893 38.9442 30.7758 38.9442C30.3424 38.9442 30.022 39.089 29.8145 39.3784C29.6071 39.6633 29.5034 40.1228 29.5034 40.7569V41.2462H31.4327V42.1353Z" fill="white"/>
<path d="M39.3577 45.0163C39.3577 46.2477 39.0465 47.2103 38.4242 47.9041C37.8018 48.5934 36.942 48.938 35.8447 48.938C35.167 48.938 34.5654 48.7794 34.0398 48.4624C33.5143 48.1454 33.1086 47.6905 32.8227 47.0977C32.5369 46.505 32.394 45.8112 32.394 45.0163C32.394 43.7849 32.7029 42.8269 33.3206 42.1422C33.9384 41.453 34.7959 41.1084 35.8931 41.1084C36.9535 41.1084 37.7949 41.4599 38.4172 42.1629C39.0442 42.8659 39.3577 43.817 39.3577 45.0163ZM33.5834 45.0163C33.5834 45.9812 33.777 46.7164 34.1643 47.2218C34.5516 47.7272 35.1209 47.9799 35.8724 47.9799C36.6239 47.9799 37.1932 47.7295 37.5805 47.2287C37.9724 46.7233 38.1683 45.9858 38.1683 45.0163C38.1683 44.056 37.9724 43.3277 37.5805 42.8315C37.1932 42.3306 36.6193 42.0802 35.8586 42.0802C35.1071 42.0802 34.54 42.326 34.1574 42.8177C33.7747 43.3093 33.5834 44.0422 33.5834 45.0163Z" fill="white"/>
<path d="M44.4059 48.938C43.3087 48.938 42.4581 48.6025 41.8542 47.9317C41.2548 47.2563 40.9552 46.3028 40.9552 45.0714C40.9552 43.8079 41.2595 42.8315 41.868 42.1422C42.4812 41.453 43.3525 41.1084 44.482 41.1084C44.8462 41.1084 45.2104 41.1475 45.5746 41.2256C45.9388 41.3037 46.2247 41.3956 46.4321 41.5013L46.0795 42.4731C45.8259 42.372 45.5493 42.2893 45.2496 42.2249C44.9499 42.156 44.6849 42.1216 44.4543 42.1216C42.9145 42.1216 42.1446 43.1003 42.1446 45.0576C42.1446 45.9858 42.3313 46.698 42.7048 47.1942C43.0828 47.6905 43.6406 47.9386 44.3783 47.9386C45.0099 47.9386 45.6576 47.803 46.3215 47.532V48.5451C45.8144 48.807 45.1758 48.938 44.4059 48.938Z" fill="white"/>
<path d="M49.2052 41.2462V46.1466C49.2052 46.7623 49.3458 47.2218 49.627 47.5251C49.9083 47.8283 50.3485 47.9799 50.9479 47.9799C51.7408 47.9799 52.3194 47.764 52.6836 47.3321C53.0524 46.9002 53.2368 46.1949 53.2368 45.2162V41.2462H54.3848V48.8001H53.4374L53.2714 47.787H53.2092C52.9741 48.1591 52.6467 48.444 52.2272 48.6416C51.8123 48.8392 51.3374 48.938 50.8026 48.938C49.8806 48.938 49.1891 48.7197 48.728 48.2832C48.2716 47.8467 48.0434 47.1483 48.0434 46.188V41.2462H49.2052Z" fill="white"/>
<path d="M61.7151 46.7393C61.7151 47.4424 61.4523 47.9845 60.9267 48.3659C60.4011 48.7473 59.6635 48.938 58.7138 48.938C57.7088 48.938 56.925 48.7794 56.3626 48.4624V47.401C56.7268 47.5848 57.1164 47.7295 57.5313 47.8352C57.9508 47.9409 58.3542 47.9937 58.7415 47.9937C59.3408 47.9937 59.8018 47.8995 60.1245 47.7112C60.4472 47.5182 60.6086 47.2264 60.6086 46.8358C60.6086 46.5418 60.4795 46.2914 60.2213 46.0846C59.9678 45.8732 59.4699 45.6251 58.7276 45.3402C58.0223 45.0783 57.5197 44.8509 57.2201 44.6579C56.925 44.4603 56.7037 44.2375 56.5562 43.9893C56.4133 43.7412 56.3418 43.4449 56.3418 43.1003C56.3418 42.4845 56.5931 41.9998 57.0956 41.646C57.5981 41.2876 58.2873 41.1084 59.1633 41.1084C59.9793 41.1084 60.7769 41.2738 61.556 41.6046L61.148 42.5351C60.3873 42.2226 59.6981 42.0664 59.0803 42.0664C58.5363 42.0664 58.126 42.1514 57.8494 42.3214C57.5728 42.4914 57.4345 42.7258 57.4345 43.0244C57.4345 43.2266 57.4852 43.3989 57.5866 43.5414C57.6926 43.6838 57.8609 43.8193 58.0914 43.948C58.3219 44.0766 58.7645 44.2627 59.4192 44.5063C60.3182 44.8325 60.9244 45.161 61.2379 45.4919C61.556 45.8227 61.7151 46.2385 61.7151 46.7393Z" fill="white"/>
<path d="M63.4231 48.0695C63.4231 47.7617 63.4923 47.5297 63.6306 47.3734C63.7735 47.2126 63.9764 47.1322 64.2392 47.1322C64.5066 47.1322 64.714 47.2126 64.8615 47.3734C65.0137 47.5297 65.0897 47.7617 65.0897 48.0695C65.0897 48.3682 65.0137 48.598 64.8615 48.7588C64.7094 48.9196 64.5019 49 64.2392 49C64.004 49 63.8081 48.9288 63.6514 48.7863C63.4992 48.6393 63.4231 48.4004 63.4231 48.0695Z" fill="white"/>
<path d="M72.5238 47.787H72.4615C71.9313 48.5543 71.1384 48.938 70.0826 48.938C69.0914 48.938 68.3192 48.6003 67.766 47.9248C67.2174 47.2494 66.9431 46.2891 66.9431 45.0439C66.9431 43.7987 67.2197 42.8315 67.7729 42.1422C68.3261 41.453 69.096 41.1084 70.0826 41.1084C71.1107 41.1084 71.8991 41.4806 72.4477 42.2249H72.5376L72.4892 41.6805L72.4615 41.1497V38.0758H73.6095V48.8001H72.6759L72.5238 47.787ZM70.2279 47.9799C71.0116 47.9799 71.5787 47.7686 71.929 47.3459C72.284 46.9185 72.4615 46.2316 72.4615 45.2851V45.0439C72.4615 43.9733 72.2817 43.2105 71.9221 42.7556C71.5671 42.2962 70.9978 42.0664 70.214 42.0664C69.5409 42.0664 69.0246 42.3283 68.665 42.8521C68.31 43.3713 68.1325 44.1065 68.1325 45.0576C68.1325 46.0226 68.31 46.7508 68.665 47.2425C69.02 47.7341 69.5409 47.9799 70.2279 47.9799Z" fill="white"/>
<path d="M82.5925 45.0163C82.5925 46.2477 82.2813 47.2103 81.6589 47.9041C81.0365 48.5934 80.1767 48.938 79.0795 48.938C78.4018 48.938 77.8002 48.7794 77.2746 48.4624C76.749 48.1454 76.3433 47.6905 76.0575 47.0977C75.7717 46.505 75.6287 45.8112 75.6287 45.0163C75.6287 43.7849 75.9376 42.8269 76.5554 42.1422C77.1732 41.453 78.0307 41.1084 79.1279 41.1084C80.1883 41.1084 81.0296 41.4599 81.652 42.1629C82.279 42.8659 82.5925 43.817 82.5925 45.0163ZM76.8182 45.0163C76.8182 45.9812 77.0118 46.7164 77.3991 47.2218C77.7863 47.7272 78.3557 47.9799 79.1072 47.9799C79.8586 47.9799 80.428 47.7295 80.8153 47.2287C81.2071 46.7233 81.4031 45.9858 81.4031 45.0163C81.4031 44.056 81.2071 43.3277 80.8153 42.8315C80.428 42.3306 79.854 42.0802 79.0933 42.0802C78.3419 42.0802 77.7748 42.326 77.3922 42.8177C77.0095 43.3093 76.8182 44.0422 76.8182 45.0163Z" fill="white"/>
<path d="M87.0598 47.9937C87.2627 47.9937 87.4586 47.9799 87.6476 47.9524C87.8366 47.9202 87.9865 47.8881 88.0971 47.8559V48.7312C87.9726 48.7909 87.7882 48.8392 87.5439 48.8759C87.3042 48.9173 87.0875 48.938 86.8938 48.938C85.4278 48.938 84.6948 48.1683 84.6948 46.6291V42.1353H83.6091V41.584L84.6948 41.1084L85.1788 39.4956H85.8427V41.2462H88.0418V42.1353H85.8427V46.5808C85.8427 47.0357 85.9511 47.3849 86.1677 47.6284C86.3844 47.872 86.6818 47.9937 87.0598 47.9937Z" fill="white"/>
<path d="M94.805 48.8001V43.9135C94.805 43.2978 94.6644 42.8383 94.3832 42.5351C94.1019 42.2318 93.6617 42.0802 93.0623 42.0802C92.2694 42.0802 91.6885 42.2939 91.3197 42.7212C90.9509 43.1485 90.7664 43.8538 90.7664 44.8371V48.8001H89.6185V41.2462H90.5521L90.7388 42.2801H90.7941C91.0292 41.9079 91.3589 41.6207 91.783 41.4185C92.2071 41.2118 92.6797 41.1084 93.2006 41.1084C94.1135 41.1084 94.8004 41.3289 95.2614 41.7701C95.7224 42.2066 95.953 42.9073 95.953 43.8722V48.8001H94.805Z" fill="white"/>
<path d="M101.52 48.938C100.4 48.938 99.5144 48.598 98.8643 47.9179C98.2189 47.2379 97.8962 46.2937 97.8962 45.0852C97.8962 43.8676 98.1958 42.9004 98.7952 42.1836C99.3991 41.4668 100.208 41.1084 101.222 41.1084C102.172 41.1084 102.924 41.4208 103.477 42.0457C104.03 42.666 104.307 43.4862 104.307 44.5063V45.2299H99.0856C99.1087 46.1167 99.3323 46.7899 99.7564 47.2494C100.185 47.7089 100.787 47.9386 101.561 47.9386C102.377 47.9386 103.184 47.7686 103.982 47.4286V48.4486C103.576 48.6232 103.191 48.7473 102.827 48.8208C102.467 48.8989 102.032 48.938 101.52 48.938ZM101.209 42.0664C100.6 42.0664 100.114 42.264 99.7495 42.6591C99.3899 43.0543 99.1778 43.6011 99.1133 44.2995H103.076C103.076 43.5781 102.914 43.0267 102.592 42.6454C102.269 42.2594 101.808 42.0664 101.209 42.0664Z" fill="white"/>
<path d="M108.719 47.9937C108.922 47.9937 109.117 47.9799 109.306 47.9524C109.496 47.9202 109.645 47.8881 109.756 47.8559V48.7312C109.632 48.7909 109.447 48.8392 109.203 48.8759C108.963 48.9173 108.746 48.938 108.553 48.938C107.087 48.938 106.354 48.1683 106.354 46.6291V42.1353H105.268V41.584L106.354 41.1084L106.838 39.4956H107.502V41.2462H109.701V42.1353H107.502V46.5808C107.502 47.0357 107.61 47.3849 107.827 47.6284C108.043 47.872 108.341 47.9937 108.719 47.9937Z" fill="white"/>
<path d="M114.306 48.938C113.209 48.938 112.358 48.6025 111.755 47.9317C111.155 47.2563 110.856 46.3028 110.856 45.0714C110.856 43.8079 111.16 42.8315 111.768 42.1422C112.382 41.453 113.253 41.1084 114.382 41.1084C114.747 41.1084 115.111 41.1475 115.475 41.2256C115.839 41.3037 116.125 41.3956 116.332 41.5013L115.98 42.4731C115.726 42.372 115.45 42.2893 115.15 42.2249C114.85 42.156 114.585 42.1216 114.355 42.1216C112.815 42.1216 112.045 43.1003 112.045 45.0576C112.045 45.9858 112.232 46.698 112.605 47.1942C112.983 47.6905 113.541 47.9386 114.279 47.9386C114.91 47.9386 115.558 47.803 116.222 47.532V48.5451C115.715 48.807 115.076 48.938 114.306 48.938Z" fill="white"/>
<path d="M124.569 45.0163C124.569 46.2477 124.257 47.2103 123.635 47.9041C123.013 48.5934 122.153 48.938 121.056 48.938C120.378 48.938 119.776 48.7794 119.251 48.4624C118.725 48.1454 118.32 47.6905 118.034 47.0977C117.748 46.505 117.605 45.8112 117.605 45.0163C117.605 43.7849 117.914 42.8269 118.532 42.1422C119.149 41.453 120.007 41.1084 121.104 41.1084C122.164 41.1084 123.006 41.4599 123.628 42.1629C124.255 42.8659 124.569 43.817 124.569 45.0163ZM118.794 45.0163C118.794 45.9812 118.988 46.7164 119.375 47.2218C119.763 47.7272 120.332 47.9799 121.083 47.9799C121.835 47.9799 122.404 47.7295 122.791 47.2287C123.183 46.7233 123.379 45.9858 123.379 45.0163C123.379 44.056 123.183 43.3277 122.791 42.8315C122.404 42.3306 121.83 42.0802 121.07 42.0802C120.318 42.0802 119.751 42.326 119.368 42.8177C118.986 43.3093 118.794 44.0422 118.794 45.0163Z" fill="white"/>
<path d="M131.774 48.8001V43.9135C131.774 43.2978 131.634 42.8383 131.353 42.5351C131.071 42.2318 130.631 42.0802 130.032 42.0802C129.239 42.0802 128.658 42.2939 128.289 42.7212C127.92 43.1485 127.736 43.8538 127.736 44.8371V48.8001H126.588V41.2462H127.522L127.708 42.2801H127.764C127.999 41.9079 128.328 41.6207 128.752 41.4185C129.177 41.2118 129.649 41.1084 130.17 41.1084C131.083 41.1084 131.77 41.3289 132.231 41.7701C132.692 42.2066 132.922 42.9073 132.922 43.8722V48.8001H131.774Z" fill="white"/>
<path d="M138.704 42.1353H136.774V48.8001H135.626V42.1353H134.271V41.6184L135.626 41.2049V40.7845C135.626 38.9282 136.44 38 138.067 38C138.469 38 138.939 38.0804 139.478 38.2412L139.181 39.1579C138.738 39.0155 138.36 38.9442 138.047 38.9442C137.613 38.9442 137.293 39.089 137.085 39.3784C136.878 39.6633 136.774 40.1228 136.774 40.7569V41.2462H138.704V42.1353Z" fill="white"/>
<path d="M139.921 48.0695C139.921 47.7617 139.99 47.5297 140.128 47.3734C140.271 47.2126 140.474 47.1322 140.737 47.1322C141.004 47.1322 141.212 47.2126 141.359 47.3734C141.511 47.5297 141.587 47.7617 141.587 48.0695C141.587 48.3682 141.511 48.598 141.359 48.7588C141.207 48.9196 141 49 140.737 49C140.502 49 140.306 48.9288 140.149 48.7863C139.997 48.6393 139.921 48.4004 139.921 48.0695Z" fill="white"/>
<path d="M149.049 48.8001V43.9135C149.049 43.2978 148.908 42.8383 148.627 42.5351C148.346 42.2318 147.906 42.0802 147.306 42.0802C146.513 42.0802 145.932 42.2939 145.564 42.7212C145.195 43.1485 145.01 43.8538 145.01 44.8371V48.8001H143.863V41.2462H144.796L144.983 42.2801H145.038C145.273 41.9079 145.603 41.6207 146.027 41.4185C146.451 41.2118 146.924 41.1084 147.445 41.1084C148.357 41.1084 149.044 41.3289 149.505 41.7701C149.966 42.2066 150.197 42.9073 150.197 43.8722V48.8001H149.049Z" fill="white"/>
<path d="M155.764 48.938C154.644 48.938 153.758 48.598 153.108 47.9179C152.463 47.2379 152.14 46.2937 152.14 45.0852C152.14 43.8676 152.44 42.9004 153.039 42.1836C153.643 41.4668 154.452 41.1084 155.466 41.1084C156.416 41.1084 157.168 41.4208 157.721 42.0457C158.274 42.666 158.551 43.4862 158.551 44.5063V45.2299H153.33C153.353 46.1167 153.576 46.7899 154 47.2494C154.429 47.7089 155.031 47.9386 155.805 47.9386C156.621 47.9386 157.428 47.7686 158.226 47.4286V48.4486C157.82 48.6232 157.435 48.7473 157.071 48.8208C156.711 48.8989 156.276 48.938 155.764 48.938ZM155.453 42.0664C154.844 42.0664 154.358 42.264 153.993 42.6591C153.634 43.0543 153.422 43.6011 153.357 44.2995H157.32C157.32 43.5781 157.158 43.0267 156.836 42.6454C156.513 42.2594 156.052 42.0664 155.453 42.0664Z" fill="white"/>
<path d="M162.963 47.9937C163.166 47.9937 163.361 47.9799 163.551 47.9524C163.74 47.9202 163.889 47.8881 164 47.8559V48.7312C163.876 48.7909 163.691 48.8392 163.447 48.8759C163.207 48.9173 162.99 48.938 162.797 48.938C161.331 48.938 160.598 48.1683 160.598 46.6291V42.1353H159.512V41.584L160.598 41.1084L161.082 39.4956H161.746V41.2462H163.945V42.1353H161.746V46.5808C161.746 47.0357 161.854 47.3849 162.071 47.6284C162.287 47.872 162.585 47.9937 162.963 47.9937Z" fill="white"/>
</g>
<defs>
<linearGradient id="paint0_linear" x1="644.5" y1="58" x2="463.024" y2="427.339" gradientUnits="userSpaceOnUse">
<stop offset="0.0213813" stop-color="#C2DEFF"/>
<stop offset="0.748401" stop-color="#0F70E3"/>
</linearGradient>
<linearGradient id="paint1_linear" x1="501.17" y1="55.2273" x2="497.578" y2="76.2616" gradientUnits="userSpaceOnUse">
<stop offset="0.2584" stop-color="#958FE7"/>
<stop offset="0.4497" stop-color="#BBB7EF"/>
</linearGradient>
<radialGradient id="paint2_radial" cx="0" cy="0" r="1" gradientUnits="userSpaceOnUse" gradientTransform="translate(504.403 73.4892) rotate(-160.28) scale(6.15375)">
<stop stop-color="#A08BE8"/>
<stop offset="1" stop-color="#8065E0"/>
</radialGradient>
<linearGradient id="paint3_linear" x1="471.519" y1="72.468" x2="471.519" y2="87.0176" gradientUnits="userSpaceOnUse">
<stop offset="0.1788" stop-color="#958FE7"/>
<stop offset="0.4497" stop-color="#BBB7EF"/>
</linearGradient>
<linearGradient id="paint4_linear" x1="483.252" y1="72.8001" x2="484.195" y2="83.5734" gradientUnits="userSpaceOnUse">
<stop offset="0.1788" stop-color="#958FE7"/>
<stop offset="0.4497" stop-color="#BBB7EF"/>
</linearGradient>
<radialGradient id="paint5_radial" cx="0" cy="0" r="1" gradientUnits="userSpaceOnUse" gradientTransform="translate(486.635 46.3488) scale(23.1065)">
<stop offset="0.4744" stop-color="#A08BE8"/>
<stop offset="0.8618" stop-color="#8065E0"/>
</radialGradient>
<radialGradient id="paint6_radial" cx="0" cy="0" r="1" gradientUnits="userSpaceOnUse" gradientTransform="translate(506.121 44.1624) scale(21.0886)">
<stop stop-color="#E1DFDD"/>
<stop offset="0.1047" stop-color="#EDECEB"/>
<stop offset="0.7337" stop-color="white"/>
</radialGradient>
<radialGradient id="paint7_radial" cx="0" cy="0" r="1" gradientUnits="userSpaceOnUse" gradientTransform="translate(478.485 59.554) scale(19.6945)">
<stop stop-color="#512BD4"/>
<stop offset="0.5045" stop-color="#6645D9"/>
<stop offset="0.7759" stop-color="#7659DD"/>
<stop offset="1" stop-color="#8065E0"/>
</radialGradient>
<radialGradient id="paint8_radial" cx="0" cy="0" r="1" gradientUnits="userSpaceOnUse" gradientTransform="translate(466.512 63.4514) scale(14.3648)">
<stop offset="0.4614" stop-color="#A08BE8"/>
<stop offset="0.5268" stop-color="#A793EA"/>
<stop offset="0.8352" stop-color="#C5B7F0"/>
<stop offset="1" stop-color="#D0C5F3"/>
</radialGradient>
<radialGradient id="paint9_radial" cx="0" cy="0" r="1" gradientUnits="userSpaceOnUse" gradientTransform="translate(484.583 29.194) scale(3.40549)">
<stop stop-color="#8065E0"/>
<stop offset="0.8628" stop-color="#512BD4"/>
</radialGradient>
<radialGradient id="paint10_radial" cx="0" cy="0" r="1" gradientUnits="userSpaceOnUse" gradientTransform="translate(482.53 84.4093) rotate(-5.00063) scale(6.58637 6.53631)">
<stop stop-color="#8065E0"/>
<stop offset="0.8628" stop-color="#512BD4"/>
</radialGradient>
<radialGradient id="paint11_radial" cx="0" cy="0" r="1" gradientUnits="userSpaceOnUse" gradientTransform="translate(487.846 18.2578) scale(5.97777)">
<stop stop-color="#A08BE8"/>
<stop offset="1" stop-color="#8065E0"/>
</radialGradient>
<radialGradient id="paint12_radial" cx="0" cy="0" r="1" gradientUnits="userSpaceOnUse" gradientTransform="translate(495.465 40.5632) rotate(-77.9484) scale(7.15496)">
<stop offset="0.3607" stop-color="#BDB9F0"/>
<stop offset="0.5611" stop-color="#C3BCEB" stop-opacity="0.3855"/>
<stop offset="0.6338" stop-color="#CEC3E2" stop-opacity="0.3217"/>
<stop offset="0.8689" stop-color="#EDD6C9" stop-opacity="0.1152"/>
<stop offset="1" stop-color="#F9DDBF" stop-opacity="0"/>
</radialGradient>
<radialGradient id="paint13_radial" cx="0" cy="0" r="1" gradientUnits="userSpaceOnUse" gradientTransform="translate(468.13 40.9904) rotate(173.834) scale(8.60086)">
<stop stop-color="#BDB9F0"/>
<stop offset="0.5266" stop-color="#C3BCEB" stop-opacity="0.3855"/>
<stop offset="0.605" stop-color="#CEC3E2" stop-opacity="0.3217"/>
<stop offset="0.8586" stop-color="#EDD6C9" stop-opacity="0.1152"/>
<stop offset="1" stop-color="#F9DDBF" stop-opacity="0"/>
</radialGradient>
<linearGradient id="paint14_linear" x1="467.981" y1="53.6161" x2="488.54" y2="80.5763" gradientUnits="userSpaceOnUse">
<stop offset="0.1788" stop-color="#958FE7"/>
<stop offset="0.4497" stop-color="#BBB7EF"/>
</linearGradient>
<radialGradient id="paint15_radial" cx="0" cy="0" r="1" gradientUnits="userSpaceOnUse" gradientTransform="translate(469.908 49.9932) scale(6.30049)">
<stop stop-color="#8065E0"/>
<stop offset="0.8628" stop-color="#512BD4"/>
</radialGradient>
<radialGradient id="paint16_radial" cx="0" cy="0" r="1" gradientUnits="userSpaceOnUse" gradientTransform="translate(466.012 84.9144) rotate(93.8441) scale(6.58659 6.53624)">
<stop stop-color="#8065E0"/>
<stop offset="0.8628" stop-color="#512BD4"/>
</radialGradient>
<radialGradient id="paint17_radial" cx="0" cy="0" r="1" gradientUnits="userSpaceOnUse" gradientTransform="translate(488.457 78.5077) rotate(-127.328) scale(6.15429)">
<stop stop-color="#A08BE8"/>
<stop offset="1" stop-color="#8065E0"/>
</radialGradient>
<clipPath id="clip0">
<rect width="550" height="182" fill="white"/>
</clipPath>
</defs>
</svg>
